M48
; DRILL file {KiCad (5.1.5)-3} date 2/23/2020 10:46:11 PM
; FORMAT={-:-/ absolute / metric / decimal}
; #@! TF.CreationDate,2020-02-23T22:46:11-05:00
; #@! TF.GenerationSoftware,Kicad,Pcbnew,(5.1.5)-3
; #@! TF.FileFunction,Plated,1,2,PTH
FMAT,2
METRIC
T1C0.700
T2C0.800
T3C1.000
T4C1.500
%
G90
G05
T1
X127.635Y-66.675
X132.715Y-66.675
X127.635Y-69.215
X132.715Y-69.215
X127.635Y-76.835
X132.715Y-76.835
X127.635Y-79.375
X132.715Y-79.375
X127.635Y-71.755
X132.715Y-71.755
X127.635Y-74.295
X132.715Y-74.295
T2
X114.05Y-59.69
X116.59Y-59.69
X119.13Y-59.69
X121.67Y-59.69
X123.19Y-107.95
X124.21Y-59.69
X125.73Y-107.95
X126.75Y-59.69
X128.27Y-107.95
X129.29Y-59.69
X130.81Y-107.95
X131.83Y-59.69
X133.35Y-107.95
X134.37Y-59.69
X135.89Y-107.95
X136.91Y-59.69
X138.43Y-107.95
X140.97Y-59.69
X140.97Y-107.95
X143.51Y-59.69
X146.05Y-59.69
X146.05Y-107.95
X148.59Y-59.69
X148.59Y-107.95
X151.13Y-59.69
X151.13Y-107.95
X153.67Y-59.69
X153.67Y-107.95
X156.21Y-59.69
X156.21Y-107.95
X158.75Y-59.69
X158.75Y-107.95
X122.555Y-90.805
X122.555Y-103.505
X125.095Y-90.805
X125.095Y-103.505
X127.635Y-90.805
X127.635Y-103.505
X130.175Y-90.805
X130.175Y-103.505
X132.715Y-90.805
X132.715Y-103.505
X135.255Y-90.805
X135.255Y-103.505
X137.795Y-90.805
X137.795Y-103.505
X140.335Y-90.805
X140.335Y-103.505
X158.75Y-67.31
X158.75Y-69.81
X100.33Y-83.82
X100.33Y-86.36
X100.33Y-88.9
X100.33Y-91.44
X137.835Y-73.66
X140.335Y-73.66
X137.835Y-68.58
X140.335Y-68.58
X144.78Y-101.6
X144.78Y-104.1
X137.795Y-78.74
X140.295Y-78.74
T3
X146.685Y-67.31
X146.685Y-69.85
X146.685Y-72.39
X146.685Y-74.93
X146.685Y-77.47
X146.685Y-80.01
X146.685Y-82.55
X154.305Y-67.31
X154.305Y-69.85
X154.305Y-72.39
X154.305Y-74.93
X154.305Y-77.47
X154.305Y-80.01
X154.305Y-82.55
X115.57Y-93.98
X115.57Y-96.52
X115.57Y-99.06
X115.57Y-101.6
X108.57Y-71.91
X108.57Y-76.91
X123.07Y-71.91
X123.07Y-74.41
X123.07Y-76.91
T4
G00X116.22Y-68.81
M15
G01X114.92Y-68.81
M16
G05
G00X116.22Y-80.01
M15
G01X114.92Y-80.01
M16
G05
T0
M30
