G04 #@! TF.GenerationSoftware,KiCad,Pcbnew,(5.1.5)-3*
G04 #@! TF.CreationDate,2020-03-05T22:37:46-05:00*
G04 #@! TF.ProjectId,StupidDogFocuserPCB,53747570-6964-4446-9f67-466f63757365,1*
G04 #@! TF.SameCoordinates,Original*
G04 #@! TF.FileFunction,Soldermask,Top*
G04 #@! TF.FilePolarity,Negative*
%FSLAX46Y46*%
G04 Gerber Fmt 4.6, Leading zero omitted, Abs format (unit mm)*
G04 Created by KiCad (PCBNEW (5.1.5)-3) date 2020-03-05 22:37:46*
%MOMM*%
%LPD*%
G04 APERTURE LIST*
%ADD10C,0.100000*%
G04 APERTURE END LIST*
D10*
G36*
X124040800Y-108800800D02*
G01*
X122339200Y-108800800D01*
X122339200Y-107099200D01*
X124040800Y-107099200D01*
X124040800Y-108800800D01*
G37*
G36*
X156458169Y-107131895D02*
G01*
X156613005Y-107196031D01*
X156752354Y-107289140D01*
X156870860Y-107407646D01*
X156963969Y-107546995D01*
X157028105Y-107701831D01*
X157060800Y-107866203D01*
X157060800Y-108033797D01*
X157028105Y-108198169D01*
X156963969Y-108353005D01*
X156870860Y-108492354D01*
X156752354Y-108610860D01*
X156613005Y-108703969D01*
X156458169Y-108768105D01*
X156293797Y-108800800D01*
X156126203Y-108800800D01*
X155961831Y-108768105D01*
X155806995Y-108703969D01*
X155667646Y-108610860D01*
X155549140Y-108492354D01*
X155456031Y-108353005D01*
X155391895Y-108198169D01*
X155359200Y-108033797D01*
X155359200Y-107866203D01*
X155391895Y-107701831D01*
X155456031Y-107546995D01*
X155549140Y-107407646D01*
X155667646Y-107289140D01*
X155806995Y-107196031D01*
X155961831Y-107131895D01*
X156126203Y-107099200D01*
X156293797Y-107099200D01*
X156458169Y-107131895D01*
G37*
G36*
X158998169Y-107131895D02*
G01*
X159153005Y-107196031D01*
X159292354Y-107289140D01*
X159410860Y-107407646D01*
X159503969Y-107546995D01*
X159568105Y-107701831D01*
X159600800Y-107866203D01*
X159600800Y-108033797D01*
X159568105Y-108198169D01*
X159503969Y-108353005D01*
X159410860Y-108492354D01*
X159292354Y-108610860D01*
X159153005Y-108703969D01*
X158998169Y-108768105D01*
X158833797Y-108800800D01*
X158666203Y-108800800D01*
X158501831Y-108768105D01*
X158346995Y-108703969D01*
X158207646Y-108610860D01*
X158089140Y-108492354D01*
X157996031Y-108353005D01*
X157931895Y-108198169D01*
X157899200Y-108033797D01*
X157899200Y-107866203D01*
X157931895Y-107701831D01*
X157996031Y-107546995D01*
X158089140Y-107407646D01*
X158207646Y-107289140D01*
X158346995Y-107196031D01*
X158501831Y-107131895D01*
X158666203Y-107099200D01*
X158833797Y-107099200D01*
X158998169Y-107131895D01*
G37*
G36*
X153918169Y-107131895D02*
G01*
X154073005Y-107196031D01*
X154212354Y-107289140D01*
X154330860Y-107407646D01*
X154423969Y-107546995D01*
X154488105Y-107701831D01*
X154520800Y-107866203D01*
X154520800Y-108033797D01*
X154488105Y-108198169D01*
X154423969Y-108353005D01*
X154330860Y-108492354D01*
X154212354Y-108610860D01*
X154073005Y-108703969D01*
X153918169Y-108768105D01*
X153753797Y-108800800D01*
X153586203Y-108800800D01*
X153421831Y-108768105D01*
X153266995Y-108703969D01*
X153127646Y-108610860D01*
X153009140Y-108492354D01*
X152916031Y-108353005D01*
X152851895Y-108198169D01*
X152819200Y-108033797D01*
X152819200Y-107866203D01*
X152851895Y-107701831D01*
X152916031Y-107546995D01*
X153009140Y-107407646D01*
X153127646Y-107289140D01*
X153266995Y-107196031D01*
X153421831Y-107131895D01*
X153586203Y-107099200D01*
X153753797Y-107099200D01*
X153918169Y-107131895D01*
G37*
G36*
X151378169Y-107131895D02*
G01*
X151533005Y-107196031D01*
X151672354Y-107289140D01*
X151790860Y-107407646D01*
X151883969Y-107546995D01*
X151948105Y-107701831D01*
X151980800Y-107866203D01*
X151980800Y-108033797D01*
X151948105Y-108198169D01*
X151883969Y-108353005D01*
X151790860Y-108492354D01*
X151672354Y-108610860D01*
X151533005Y-108703969D01*
X151378169Y-108768105D01*
X151213797Y-108800800D01*
X151046203Y-108800800D01*
X150881831Y-108768105D01*
X150726995Y-108703969D01*
X150587646Y-108610860D01*
X150469140Y-108492354D01*
X150376031Y-108353005D01*
X150311895Y-108198169D01*
X150279200Y-108033797D01*
X150279200Y-107866203D01*
X150311895Y-107701831D01*
X150376031Y-107546995D01*
X150469140Y-107407646D01*
X150587646Y-107289140D01*
X150726995Y-107196031D01*
X150881831Y-107131895D01*
X151046203Y-107099200D01*
X151213797Y-107099200D01*
X151378169Y-107131895D01*
G37*
G36*
X148838169Y-107131895D02*
G01*
X148993005Y-107196031D01*
X149132354Y-107289140D01*
X149250860Y-107407646D01*
X149343969Y-107546995D01*
X149408105Y-107701831D01*
X149440800Y-107866203D01*
X149440800Y-108033797D01*
X149408105Y-108198169D01*
X149343969Y-108353005D01*
X149250860Y-108492354D01*
X149132354Y-108610860D01*
X148993005Y-108703969D01*
X148838169Y-108768105D01*
X148673797Y-108800800D01*
X148506203Y-108800800D01*
X148341831Y-108768105D01*
X148186995Y-108703969D01*
X148047646Y-108610860D01*
X147929140Y-108492354D01*
X147836031Y-108353005D01*
X147771895Y-108198169D01*
X147739200Y-108033797D01*
X147739200Y-107866203D01*
X147771895Y-107701831D01*
X147836031Y-107546995D01*
X147929140Y-107407646D01*
X148047646Y-107289140D01*
X148186995Y-107196031D01*
X148341831Y-107131895D01*
X148506203Y-107099200D01*
X148673797Y-107099200D01*
X148838169Y-107131895D01*
G37*
G36*
X146298169Y-107131895D02*
G01*
X146453005Y-107196031D01*
X146592354Y-107289140D01*
X146710860Y-107407646D01*
X146803969Y-107546995D01*
X146868105Y-107701831D01*
X146900800Y-107866203D01*
X146900800Y-108033797D01*
X146868105Y-108198169D01*
X146803969Y-108353005D01*
X146710860Y-108492354D01*
X146592354Y-108610860D01*
X146453005Y-108703969D01*
X146298169Y-108768105D01*
X146133797Y-108800800D01*
X145966203Y-108800800D01*
X145801831Y-108768105D01*
X145646995Y-108703969D01*
X145507646Y-108610860D01*
X145389140Y-108492354D01*
X145296031Y-108353005D01*
X145231895Y-108198169D01*
X145199200Y-108033797D01*
X145199200Y-107866203D01*
X145231895Y-107701831D01*
X145296031Y-107546995D01*
X145389140Y-107407646D01*
X145507646Y-107289140D01*
X145646995Y-107196031D01*
X145801831Y-107131895D01*
X145966203Y-107099200D01*
X146133797Y-107099200D01*
X146298169Y-107131895D01*
G37*
G36*
X141218169Y-107131895D02*
G01*
X141373005Y-107196031D01*
X141512354Y-107289140D01*
X141630860Y-107407646D01*
X141723969Y-107546995D01*
X141788105Y-107701831D01*
X141820800Y-107866203D01*
X141820800Y-108033797D01*
X141788105Y-108198169D01*
X141723969Y-108353005D01*
X141630860Y-108492354D01*
X141512354Y-108610860D01*
X141373005Y-108703969D01*
X141218169Y-108768105D01*
X141053797Y-108800800D01*
X140886203Y-108800800D01*
X140721831Y-108768105D01*
X140566995Y-108703969D01*
X140427646Y-108610860D01*
X140309140Y-108492354D01*
X140216031Y-108353005D01*
X140151895Y-108198169D01*
X140119200Y-108033797D01*
X140119200Y-107866203D01*
X140151895Y-107701831D01*
X140216031Y-107546995D01*
X140309140Y-107407646D01*
X140427646Y-107289140D01*
X140566995Y-107196031D01*
X140721831Y-107131895D01*
X140886203Y-107099200D01*
X141053797Y-107099200D01*
X141218169Y-107131895D01*
G37*
G36*
X136138169Y-107131895D02*
G01*
X136293005Y-107196031D01*
X136432354Y-107289140D01*
X136550860Y-107407646D01*
X136643969Y-107546995D01*
X136708105Y-107701831D01*
X136740800Y-107866203D01*
X136740800Y-108033797D01*
X136708105Y-108198169D01*
X136643969Y-108353005D01*
X136550860Y-108492354D01*
X136432354Y-108610860D01*
X136293005Y-108703969D01*
X136138169Y-108768105D01*
X135973797Y-108800800D01*
X135806203Y-108800800D01*
X135641831Y-108768105D01*
X135486995Y-108703969D01*
X135347646Y-108610860D01*
X135229140Y-108492354D01*
X135136031Y-108353005D01*
X135071895Y-108198169D01*
X135039200Y-108033797D01*
X135039200Y-107866203D01*
X135071895Y-107701831D01*
X135136031Y-107546995D01*
X135229140Y-107407646D01*
X135347646Y-107289140D01*
X135486995Y-107196031D01*
X135641831Y-107131895D01*
X135806203Y-107099200D01*
X135973797Y-107099200D01*
X136138169Y-107131895D01*
G37*
G36*
X138678169Y-107131895D02*
G01*
X138833005Y-107196031D01*
X138972354Y-107289140D01*
X139090860Y-107407646D01*
X139183969Y-107546995D01*
X139248105Y-107701831D01*
X139280800Y-107866203D01*
X139280800Y-108033797D01*
X139248105Y-108198169D01*
X139183969Y-108353005D01*
X139090860Y-108492354D01*
X138972354Y-108610860D01*
X138833005Y-108703969D01*
X138678169Y-108768105D01*
X138513797Y-108800800D01*
X138346203Y-108800800D01*
X138181831Y-108768105D01*
X138026995Y-108703969D01*
X137887646Y-108610860D01*
X137769140Y-108492354D01*
X137676031Y-108353005D01*
X137611895Y-108198169D01*
X137579200Y-108033797D01*
X137579200Y-107866203D01*
X137611895Y-107701831D01*
X137676031Y-107546995D01*
X137769140Y-107407646D01*
X137887646Y-107289140D01*
X138026995Y-107196031D01*
X138181831Y-107131895D01*
X138346203Y-107099200D01*
X138513797Y-107099200D01*
X138678169Y-107131895D01*
G37*
G36*
X125978169Y-107131895D02*
G01*
X126133005Y-107196031D01*
X126272354Y-107289140D01*
X126390860Y-107407646D01*
X126483969Y-107546995D01*
X126548105Y-107701831D01*
X126580800Y-107866203D01*
X126580800Y-108033797D01*
X126548105Y-108198169D01*
X126483969Y-108353005D01*
X126390860Y-108492354D01*
X126272354Y-108610860D01*
X126133005Y-108703969D01*
X125978169Y-108768105D01*
X125813797Y-108800800D01*
X125646203Y-108800800D01*
X125481831Y-108768105D01*
X125326995Y-108703969D01*
X125187646Y-108610860D01*
X125069140Y-108492354D01*
X124976031Y-108353005D01*
X124911895Y-108198169D01*
X124879200Y-108033797D01*
X124879200Y-107866203D01*
X124911895Y-107701831D01*
X124976031Y-107546995D01*
X125069140Y-107407646D01*
X125187646Y-107289140D01*
X125326995Y-107196031D01*
X125481831Y-107131895D01*
X125646203Y-107099200D01*
X125813797Y-107099200D01*
X125978169Y-107131895D01*
G37*
G36*
X128518169Y-107131895D02*
G01*
X128673005Y-107196031D01*
X128812354Y-107289140D01*
X128930860Y-107407646D01*
X129023969Y-107546995D01*
X129088105Y-107701831D01*
X129120800Y-107866203D01*
X129120800Y-108033797D01*
X129088105Y-108198169D01*
X129023969Y-108353005D01*
X128930860Y-108492354D01*
X128812354Y-108610860D01*
X128673005Y-108703969D01*
X128518169Y-108768105D01*
X128353797Y-108800800D01*
X128186203Y-108800800D01*
X128021831Y-108768105D01*
X127866995Y-108703969D01*
X127727646Y-108610860D01*
X127609140Y-108492354D01*
X127516031Y-108353005D01*
X127451895Y-108198169D01*
X127419200Y-108033797D01*
X127419200Y-107866203D01*
X127451895Y-107701831D01*
X127516031Y-107546995D01*
X127609140Y-107407646D01*
X127727646Y-107289140D01*
X127866995Y-107196031D01*
X128021831Y-107131895D01*
X128186203Y-107099200D01*
X128353797Y-107099200D01*
X128518169Y-107131895D01*
G37*
G36*
X133598169Y-107131895D02*
G01*
X133753005Y-107196031D01*
X133892354Y-107289140D01*
X134010860Y-107407646D01*
X134103969Y-107546995D01*
X134168105Y-107701831D01*
X134200800Y-107866203D01*
X134200800Y-108033797D01*
X134168105Y-108198169D01*
X134103969Y-108353005D01*
X134010860Y-108492354D01*
X133892354Y-108610860D01*
X133753005Y-108703969D01*
X133598169Y-108768105D01*
X133433797Y-108800800D01*
X133266203Y-108800800D01*
X133101831Y-108768105D01*
X132946995Y-108703969D01*
X132807646Y-108610860D01*
X132689140Y-108492354D01*
X132596031Y-108353005D01*
X132531895Y-108198169D01*
X132499200Y-108033797D01*
X132499200Y-107866203D01*
X132531895Y-107701831D01*
X132596031Y-107546995D01*
X132689140Y-107407646D01*
X132807646Y-107289140D01*
X132946995Y-107196031D01*
X133101831Y-107131895D01*
X133266203Y-107099200D01*
X133433797Y-107099200D01*
X133598169Y-107131895D01*
G37*
G36*
X131058169Y-107131895D02*
G01*
X131213005Y-107196031D01*
X131352354Y-107289140D01*
X131470860Y-107407646D01*
X131563969Y-107546995D01*
X131628105Y-107701831D01*
X131660800Y-107866203D01*
X131660800Y-108033797D01*
X131628105Y-108198169D01*
X131563969Y-108353005D01*
X131470860Y-108492354D01*
X131352354Y-108610860D01*
X131213005Y-108703969D01*
X131058169Y-108768105D01*
X130893797Y-108800800D01*
X130726203Y-108800800D01*
X130561831Y-108768105D01*
X130406995Y-108703969D01*
X130267646Y-108610860D01*
X130149140Y-108492354D01*
X130056031Y-108353005D01*
X129991895Y-108198169D01*
X129959200Y-108033797D01*
X129959200Y-107866203D01*
X129991895Y-107701831D01*
X130056031Y-107546995D01*
X130149140Y-107407646D01*
X130267646Y-107289140D01*
X130406995Y-107196031D01*
X130561831Y-107131895D01*
X130726203Y-107099200D01*
X130893797Y-107099200D01*
X131058169Y-107131895D01*
G37*
G36*
X99860800Y-107480800D02*
G01*
X98259200Y-107480800D01*
X98259200Y-105879200D01*
X99860800Y-105879200D01*
X99860800Y-107480800D01*
G37*
G36*
X113278169Y-105781895D02*
G01*
X113433005Y-105846031D01*
X113572354Y-105939140D01*
X113690860Y-106057646D01*
X113783969Y-106196995D01*
X113848105Y-106351831D01*
X113880800Y-106516203D01*
X113880800Y-106683797D01*
X113848105Y-106848169D01*
X113783969Y-107003005D01*
X113690860Y-107142354D01*
X113572354Y-107260860D01*
X113433005Y-107353969D01*
X113278169Y-107418105D01*
X113113797Y-107450800D01*
X112946203Y-107450800D01*
X112781831Y-107418105D01*
X112626995Y-107353969D01*
X112487646Y-107260860D01*
X112369140Y-107142354D01*
X112276031Y-107003005D01*
X112211895Y-106848169D01*
X112179200Y-106683797D01*
X112179200Y-106516203D01*
X112211895Y-106351831D01*
X112276031Y-106196995D01*
X112369140Y-106057646D01*
X112487646Y-105939140D01*
X112626995Y-105846031D01*
X112781831Y-105781895D01*
X112946203Y-105749200D01*
X113113797Y-105749200D01*
X113278169Y-105781895D01*
G37*
G36*
X99293585Y-103369974D02*
G01*
X99439322Y-103430339D01*
X99570482Y-103517978D01*
X99682022Y-103629518D01*
X99769661Y-103760678D01*
X99830026Y-103906415D01*
X99860800Y-104061128D01*
X99860800Y-104218872D01*
X99830026Y-104373585D01*
X99769661Y-104519322D01*
X99682022Y-104650482D01*
X99570482Y-104762022D01*
X99439322Y-104849661D01*
X99293585Y-104910026D01*
X99138872Y-104940800D01*
X98981128Y-104940800D01*
X98826415Y-104910026D01*
X98680678Y-104849661D01*
X98549518Y-104762022D01*
X98437978Y-104650482D01*
X98350339Y-104519322D01*
X98289974Y-104373585D01*
X98259200Y-104218872D01*
X98259200Y-104061128D01*
X98289974Y-103906415D01*
X98350339Y-103760678D01*
X98437978Y-103629518D01*
X98549518Y-103517978D01*
X98680678Y-103430339D01*
X98826415Y-103369974D01*
X98981128Y-103339200D01*
X99138872Y-103339200D01*
X99293585Y-103369974D01*
G37*
G36*
X132194839Y-103126430D02*
G01*
X132266487Y-103156107D01*
X132330971Y-103199194D01*
X132385806Y-103254029D01*
X132428893Y-103318513D01*
X132458570Y-103390161D01*
X132473700Y-103466224D01*
X132473700Y-103543776D01*
X132458570Y-103619839D01*
X132428893Y-103691487D01*
X132385806Y-103755971D01*
X132330971Y-103810806D01*
X132266487Y-103853893D01*
X132194839Y-103883570D01*
X132118776Y-103898700D01*
X132041224Y-103898700D01*
X131965161Y-103883570D01*
X131893513Y-103853893D01*
X131829029Y-103810806D01*
X131774194Y-103755971D01*
X131731107Y-103691487D01*
X131701430Y-103619839D01*
X131686300Y-103543776D01*
X131686300Y-103466224D01*
X131701430Y-103390161D01*
X131731107Y-103318513D01*
X131774194Y-103254029D01*
X131829029Y-103199194D01*
X131893513Y-103156107D01*
X131965161Y-103126430D01*
X132041224Y-103111300D01*
X132118776Y-103111300D01*
X132194839Y-103126430D01*
G37*
G36*
X113278169Y-100781895D02*
G01*
X113433005Y-100846031D01*
X113572354Y-100939140D01*
X113690860Y-101057646D01*
X113783969Y-101196995D01*
X113848105Y-101351831D01*
X113880800Y-101516203D01*
X113880800Y-101683797D01*
X113848105Y-101848169D01*
X113783969Y-102003005D01*
X113690860Y-102142354D01*
X113572354Y-102260860D01*
X113433005Y-102353969D01*
X113278169Y-102418105D01*
X113113797Y-102450800D01*
X112946203Y-102450800D01*
X112781831Y-102418105D01*
X112626995Y-102353969D01*
X112487646Y-102260860D01*
X112369140Y-102142354D01*
X112276031Y-102003005D01*
X112211895Y-101848169D01*
X112179200Y-101683797D01*
X112179200Y-101516203D01*
X112211895Y-101351831D01*
X112276031Y-101196995D01*
X112369140Y-101057646D01*
X112487646Y-100939140D01*
X112626995Y-100846031D01*
X112781831Y-100781895D01*
X112946203Y-100749200D01*
X113113797Y-100749200D01*
X113278169Y-100781895D01*
G37*
G36*
X99293585Y-100829974D02*
G01*
X99439322Y-100890339D01*
X99570482Y-100977978D01*
X99682022Y-101089518D01*
X99769661Y-101220678D01*
X99830026Y-101366415D01*
X99860800Y-101521128D01*
X99860800Y-101678872D01*
X99830026Y-101833585D01*
X99769661Y-101979322D01*
X99682022Y-102110482D01*
X99570482Y-102222022D01*
X99439322Y-102309661D01*
X99293585Y-102370026D01*
X99138872Y-102400800D01*
X98981128Y-102400800D01*
X98826415Y-102370026D01*
X98680678Y-102309661D01*
X98549518Y-102222022D01*
X98437978Y-102110482D01*
X98350339Y-101979322D01*
X98289974Y-101833585D01*
X98259200Y-101678872D01*
X98259200Y-101521128D01*
X98289974Y-101366415D01*
X98350339Y-101220678D01*
X98437978Y-101089518D01*
X98549518Y-100977978D01*
X98680678Y-100890339D01*
X98826415Y-100829974D01*
X98981128Y-100799200D01*
X99138872Y-100799200D01*
X99293585Y-100829974D01*
G37*
G36*
X155320800Y-102015800D02*
G01*
X152019200Y-102015800D01*
X152019200Y-99914200D01*
X155320800Y-99914200D01*
X155320800Y-102015800D01*
G37*
G36*
X129788169Y-100146895D02*
G01*
X129943005Y-100211031D01*
X130082354Y-100304140D01*
X130200860Y-100422646D01*
X130293969Y-100561995D01*
X130358105Y-100716831D01*
X130390800Y-100881203D01*
X130390800Y-101048797D01*
X130358105Y-101213169D01*
X130293969Y-101368005D01*
X130200860Y-101507354D01*
X130082354Y-101625860D01*
X129943005Y-101718969D01*
X129788169Y-101783105D01*
X129623797Y-101815800D01*
X129456203Y-101815800D01*
X129291831Y-101783105D01*
X129136995Y-101718969D01*
X128997646Y-101625860D01*
X128879140Y-101507354D01*
X128786031Y-101368005D01*
X128721895Y-101213169D01*
X128689200Y-101048797D01*
X128689200Y-100881203D01*
X128721895Y-100716831D01*
X128786031Y-100561995D01*
X128879140Y-100422646D01*
X128997646Y-100304140D01*
X129136995Y-100211031D01*
X129291831Y-100146895D01*
X129456203Y-100114200D01*
X129623797Y-100114200D01*
X129788169Y-100146895D01*
G37*
G36*
X117088169Y-100146895D02*
G01*
X117243005Y-100211031D01*
X117382354Y-100304140D01*
X117500860Y-100422646D01*
X117593969Y-100561995D01*
X117658105Y-100716831D01*
X117690800Y-100881203D01*
X117690800Y-101048797D01*
X117658105Y-101213169D01*
X117593969Y-101368005D01*
X117500860Y-101507354D01*
X117382354Y-101625860D01*
X117243005Y-101718969D01*
X117088169Y-101783105D01*
X116923797Y-101815800D01*
X116756203Y-101815800D01*
X116591831Y-101783105D01*
X116436995Y-101718969D01*
X116297646Y-101625860D01*
X116179140Y-101507354D01*
X116086031Y-101368005D01*
X116021895Y-101213169D01*
X115989200Y-101048797D01*
X115989200Y-100881203D01*
X116021895Y-100716831D01*
X116086031Y-100561995D01*
X116179140Y-100422646D01*
X116297646Y-100304140D01*
X116436995Y-100211031D01*
X116591831Y-100146895D01*
X116756203Y-100114200D01*
X116923797Y-100114200D01*
X117088169Y-100146895D01*
G37*
G36*
X132194839Y-100586430D02*
G01*
X132266487Y-100616107D01*
X132330971Y-100659194D01*
X132385806Y-100714029D01*
X132428893Y-100778513D01*
X132458570Y-100850161D01*
X132473700Y-100926224D01*
X132473700Y-101003776D01*
X132458570Y-101079839D01*
X132428893Y-101151487D01*
X132385806Y-101215971D01*
X132330971Y-101270806D01*
X132266487Y-101313893D01*
X132194839Y-101343570D01*
X132118776Y-101358700D01*
X132041224Y-101358700D01*
X131965161Y-101343570D01*
X131893513Y-101313893D01*
X131829029Y-101270806D01*
X131774194Y-101215971D01*
X131731107Y-101151487D01*
X131701430Y-101079839D01*
X131686300Y-101003776D01*
X131686300Y-100926224D01*
X131701430Y-100850161D01*
X131731107Y-100778513D01*
X131774194Y-100714029D01*
X131829029Y-100659194D01*
X131893513Y-100616107D01*
X131965161Y-100586430D01*
X132041224Y-100571300D01*
X132118776Y-100571300D01*
X132194839Y-100586430D01*
G37*
G36*
X99293585Y-98289974D02*
G01*
X99439322Y-98350339D01*
X99570482Y-98437978D01*
X99682022Y-98549518D01*
X99769661Y-98680678D01*
X99830026Y-98826415D01*
X99860800Y-98981128D01*
X99860800Y-99138872D01*
X99830026Y-99293585D01*
X99769661Y-99439322D01*
X99682022Y-99570482D01*
X99570482Y-99682022D01*
X99439322Y-99769661D01*
X99293585Y-99830026D01*
X99138872Y-99860800D01*
X98981128Y-99860800D01*
X98826415Y-99830026D01*
X98680678Y-99769661D01*
X98549518Y-99682022D01*
X98437978Y-99570482D01*
X98350339Y-99439322D01*
X98289974Y-99293585D01*
X98259200Y-99138872D01*
X98259200Y-98981128D01*
X98289974Y-98826415D01*
X98350339Y-98680678D01*
X98437978Y-98549518D01*
X98549518Y-98437978D01*
X98680678Y-98350339D01*
X98826415Y-98289974D01*
X98981128Y-98259200D01*
X99138872Y-98259200D01*
X99293585Y-98289974D01*
G37*
G36*
X117088169Y-97606895D02*
G01*
X117243005Y-97671031D01*
X117382354Y-97764140D01*
X117500860Y-97882646D01*
X117593969Y-98021995D01*
X117658105Y-98176831D01*
X117690800Y-98341203D01*
X117690800Y-98508797D01*
X117658105Y-98673169D01*
X117593969Y-98828005D01*
X117500860Y-98967354D01*
X117382354Y-99085860D01*
X117243005Y-99178969D01*
X117088169Y-99243105D01*
X116923797Y-99275800D01*
X116756203Y-99275800D01*
X116591831Y-99243105D01*
X116436995Y-99178969D01*
X116297646Y-99085860D01*
X116179140Y-98967354D01*
X116086031Y-98828005D01*
X116021895Y-98673169D01*
X115989200Y-98508797D01*
X115989200Y-98341203D01*
X116021895Y-98176831D01*
X116086031Y-98021995D01*
X116179140Y-97882646D01*
X116297646Y-97764140D01*
X116436995Y-97671031D01*
X116591831Y-97606895D01*
X116756203Y-97574200D01*
X116923797Y-97574200D01*
X117088169Y-97606895D01*
G37*
G36*
X129788169Y-97606895D02*
G01*
X129943005Y-97671031D01*
X130082354Y-97764140D01*
X130200860Y-97882646D01*
X130293969Y-98021995D01*
X130358105Y-98176831D01*
X130390800Y-98341203D01*
X130390800Y-98508797D01*
X130358105Y-98673169D01*
X130293969Y-98828005D01*
X130200860Y-98967354D01*
X130082354Y-99085860D01*
X129943005Y-99178969D01*
X129788169Y-99243105D01*
X129623797Y-99275800D01*
X129456203Y-99275800D01*
X129291831Y-99243105D01*
X129136995Y-99178969D01*
X128997646Y-99085860D01*
X128879140Y-98967354D01*
X128786031Y-98828005D01*
X128721895Y-98673169D01*
X128689200Y-98508797D01*
X128689200Y-98341203D01*
X128721895Y-98176831D01*
X128786031Y-98021995D01*
X128879140Y-97882646D01*
X128997646Y-97764140D01*
X129136995Y-97671031D01*
X129291831Y-97606895D01*
X129456203Y-97574200D01*
X129623797Y-97574200D01*
X129788169Y-97606895D01*
G37*
G36*
X160976508Y-96854582D02*
G01*
X161167741Y-96933793D01*
X161339847Y-97048791D01*
X161486209Y-97195153D01*
X161601207Y-97367259D01*
X161680418Y-97558492D01*
X161720800Y-97761505D01*
X161720800Y-97968495D01*
X161680418Y-98171508D01*
X161601207Y-98362741D01*
X161486209Y-98534847D01*
X161339847Y-98681209D01*
X161167741Y-98796207D01*
X160976508Y-98875418D01*
X160773495Y-98915800D01*
X160566505Y-98915800D01*
X160363492Y-98875418D01*
X160172259Y-98796207D01*
X160000153Y-98681209D01*
X159853791Y-98534847D01*
X159738793Y-98362741D01*
X159659582Y-98171508D01*
X159619200Y-97968495D01*
X159619200Y-97761505D01*
X159659582Y-97558492D01*
X159738793Y-97367259D01*
X159853791Y-97195153D01*
X160000153Y-97048791D01*
X160172259Y-96933793D01*
X160363492Y-96854582D01*
X160566505Y-96814200D01*
X160773495Y-96814200D01*
X160976508Y-96854582D01*
G37*
G36*
X146476508Y-96854582D02*
G01*
X146667741Y-96933793D01*
X146839847Y-97048791D01*
X146986209Y-97195153D01*
X147101207Y-97367259D01*
X147180418Y-97558492D01*
X147220800Y-97761505D01*
X147220800Y-97968495D01*
X147180418Y-98171508D01*
X147101207Y-98362741D01*
X146986209Y-98534847D01*
X146839847Y-98681209D01*
X146667741Y-98796207D01*
X146476508Y-98875418D01*
X146273495Y-98915800D01*
X146066505Y-98915800D01*
X145863492Y-98875418D01*
X145672259Y-98796207D01*
X145500153Y-98681209D01*
X145353791Y-98534847D01*
X145238793Y-98362741D01*
X145159582Y-98171508D01*
X145119200Y-97968495D01*
X145119200Y-97761505D01*
X145159582Y-97558492D01*
X145238793Y-97367259D01*
X145353791Y-97195153D01*
X145500153Y-97048791D01*
X145672259Y-96933793D01*
X145863492Y-96854582D01*
X146066505Y-96814200D01*
X146273495Y-96814200D01*
X146476508Y-96854582D01*
G37*
G36*
X132194839Y-98046430D02*
G01*
X132266487Y-98076107D01*
X132330971Y-98119194D01*
X132385806Y-98174029D01*
X132428893Y-98238513D01*
X132458570Y-98310161D01*
X132473700Y-98386224D01*
X132473700Y-98463776D01*
X132458570Y-98539839D01*
X132428893Y-98611487D01*
X132385806Y-98675971D01*
X132330971Y-98730806D01*
X132266487Y-98773893D01*
X132194839Y-98803570D01*
X132118776Y-98818700D01*
X132041224Y-98818700D01*
X131965161Y-98803570D01*
X131893513Y-98773893D01*
X131829029Y-98730806D01*
X131774194Y-98675971D01*
X131731107Y-98611487D01*
X131701430Y-98539839D01*
X131686300Y-98463776D01*
X131686300Y-98386224D01*
X131701430Y-98310161D01*
X131731107Y-98238513D01*
X131774194Y-98174029D01*
X131829029Y-98119194D01*
X131893513Y-98076107D01*
X131965161Y-98046430D01*
X132041224Y-98031300D01*
X132118776Y-98031300D01*
X132194839Y-98046430D01*
G37*
G36*
X108187086Y-96373435D02*
G01*
X108335003Y-96434704D01*
X108468134Y-96523660D01*
X108581340Y-96636866D01*
X108581342Y-96636869D01*
X108581343Y-96636870D01*
X108610721Y-96680837D01*
X108670296Y-96769997D01*
X108731565Y-96917914D01*
X108762800Y-97074946D01*
X108762800Y-97235054D01*
X108731565Y-97392086D01*
X108670296Y-97540003D01*
X108657941Y-97558493D01*
X108582746Y-97671031D01*
X108581340Y-97673134D01*
X108468134Y-97786340D01*
X108335003Y-97875296D01*
X108187086Y-97936565D01*
X108030054Y-97967800D01*
X107869946Y-97967800D01*
X107712914Y-97936565D01*
X107564997Y-97875296D01*
X107431866Y-97786340D01*
X107318660Y-97673134D01*
X107317255Y-97671031D01*
X107242059Y-97558493D01*
X107229704Y-97540003D01*
X107168435Y-97392086D01*
X107137200Y-97235054D01*
X107137200Y-97074946D01*
X107168435Y-96917914D01*
X107229704Y-96769997D01*
X107289279Y-96680837D01*
X107318657Y-96636870D01*
X107318658Y-96636869D01*
X107318660Y-96636866D01*
X107431866Y-96523660D01*
X107564997Y-96434704D01*
X107712914Y-96373435D01*
X107869946Y-96342200D01*
X108030054Y-96342200D01*
X108187086Y-96373435D01*
G37*
G36*
X132194839Y-96141430D02*
G01*
X132266487Y-96171107D01*
X132330971Y-96214194D01*
X132385806Y-96269029D01*
X132428893Y-96333513D01*
X132458570Y-96405161D01*
X132473700Y-96481224D01*
X132473700Y-96558776D01*
X132458570Y-96634839D01*
X132428893Y-96706487D01*
X132385806Y-96770971D01*
X132330971Y-96825806D01*
X132266487Y-96868893D01*
X132194839Y-96898570D01*
X132118776Y-96913700D01*
X132041224Y-96913700D01*
X131965161Y-96898570D01*
X131893513Y-96868893D01*
X131829029Y-96825806D01*
X131774194Y-96770971D01*
X131731107Y-96706487D01*
X131701430Y-96634839D01*
X131686300Y-96558776D01*
X131686300Y-96481224D01*
X131701430Y-96405161D01*
X131731107Y-96333513D01*
X131774194Y-96269029D01*
X131829029Y-96214194D01*
X131893513Y-96171107D01*
X131965161Y-96141430D01*
X132041224Y-96126300D01*
X132118776Y-96126300D01*
X132194839Y-96141430D01*
G37*
G36*
X129788169Y-95066895D02*
G01*
X129943005Y-95131031D01*
X130082354Y-95224140D01*
X130200860Y-95342646D01*
X130293969Y-95481995D01*
X130358105Y-95636831D01*
X130390800Y-95801203D01*
X130390800Y-95968797D01*
X130358105Y-96133169D01*
X130293969Y-96288005D01*
X130200860Y-96427354D01*
X130082354Y-96545860D01*
X129943005Y-96638969D01*
X129788169Y-96703105D01*
X129623797Y-96735800D01*
X129456203Y-96735800D01*
X129291831Y-96703105D01*
X129136995Y-96638969D01*
X128997646Y-96545860D01*
X128879140Y-96427354D01*
X128786031Y-96288005D01*
X128721895Y-96133169D01*
X128689200Y-95968797D01*
X128689200Y-95801203D01*
X128721895Y-95636831D01*
X128786031Y-95481995D01*
X128879140Y-95342646D01*
X128997646Y-95224140D01*
X129136995Y-95131031D01*
X129291831Y-95066895D01*
X129456203Y-95034200D01*
X129623797Y-95034200D01*
X129788169Y-95066895D01*
G37*
G36*
X117088169Y-95066895D02*
G01*
X117243005Y-95131031D01*
X117382354Y-95224140D01*
X117500860Y-95342646D01*
X117593969Y-95481995D01*
X117658105Y-95636831D01*
X117690800Y-95801203D01*
X117690800Y-95968797D01*
X117658105Y-96133169D01*
X117593969Y-96288005D01*
X117500860Y-96427354D01*
X117382354Y-96545860D01*
X117243005Y-96638969D01*
X117088169Y-96703105D01*
X116923797Y-96735800D01*
X116756203Y-96735800D01*
X116591831Y-96703105D01*
X116436995Y-96638969D01*
X116297646Y-96545860D01*
X116179140Y-96427354D01*
X116086031Y-96288005D01*
X116021895Y-96133169D01*
X115989200Y-95968797D01*
X115989200Y-95801203D01*
X116021895Y-95636831D01*
X116086031Y-95481995D01*
X116179140Y-95342646D01*
X116297646Y-95224140D01*
X116436995Y-95131031D01*
X116591831Y-95066895D01*
X116756203Y-95034200D01*
X116923797Y-95034200D01*
X117088169Y-95066895D01*
G37*
G36*
X139919001Y-95163053D02*
G01*
X140055638Y-95219649D01*
X140178609Y-95301816D01*
X140283184Y-95406391D01*
X140365351Y-95529362D01*
X140421947Y-95665999D01*
X140450800Y-95811052D01*
X140450800Y-95958948D01*
X140421947Y-96104001D01*
X140365351Y-96240638D01*
X140283184Y-96363609D01*
X140178609Y-96468184D01*
X140055638Y-96550351D01*
X139919001Y-96606947D01*
X139773948Y-96635800D01*
X139626052Y-96635800D01*
X139480999Y-96606947D01*
X139344362Y-96550351D01*
X139221391Y-96468184D01*
X139116816Y-96363609D01*
X139034649Y-96240638D01*
X138978053Y-96104001D01*
X138949200Y-95958948D01*
X138949200Y-95811052D01*
X138978053Y-95665999D01*
X139034649Y-95529362D01*
X139116816Y-95406391D01*
X139221391Y-95301816D01*
X139344362Y-95219649D01*
X139480999Y-95163053D01*
X139626052Y-95134200D01*
X139773948Y-95134200D01*
X139919001Y-95163053D01*
G37*
G36*
X136109001Y-95163053D02*
G01*
X136245638Y-95219649D01*
X136368609Y-95301816D01*
X136473184Y-95406391D01*
X136555351Y-95529362D01*
X136611947Y-95665999D01*
X136640800Y-95811052D01*
X136640800Y-95958948D01*
X136611947Y-96104001D01*
X136555351Y-96240638D01*
X136473184Y-96363609D01*
X136368609Y-96468184D01*
X136245638Y-96550351D01*
X136109001Y-96606947D01*
X135963948Y-96635800D01*
X135816052Y-96635800D01*
X135670999Y-96606947D01*
X135534362Y-96550351D01*
X135411391Y-96468184D01*
X135306816Y-96363609D01*
X135224649Y-96240638D01*
X135168053Y-96104001D01*
X135139200Y-95958948D01*
X135139200Y-95811052D01*
X135168053Y-95665999D01*
X135224649Y-95529362D01*
X135306816Y-95406391D01*
X135411391Y-95301816D01*
X135534362Y-95219649D01*
X135670999Y-95163053D01*
X135816052Y-95134200D01*
X135963948Y-95134200D01*
X136109001Y-95163053D01*
G37*
G36*
X146476508Y-94354582D02*
G01*
X146667741Y-94433793D01*
X146839847Y-94548791D01*
X146986209Y-94695153D01*
X147101207Y-94867259D01*
X147180418Y-95058492D01*
X147220800Y-95261505D01*
X147220800Y-95468495D01*
X147180418Y-95671508D01*
X147101207Y-95862741D01*
X146986209Y-96034847D01*
X146839847Y-96181209D01*
X146667741Y-96296207D01*
X146476508Y-96375418D01*
X146273495Y-96415800D01*
X146066505Y-96415800D01*
X145863492Y-96375418D01*
X145672259Y-96296207D01*
X145500153Y-96181209D01*
X145353791Y-96034847D01*
X145238793Y-95862741D01*
X145159582Y-95671508D01*
X145119200Y-95468495D01*
X145119200Y-95261505D01*
X145159582Y-95058492D01*
X145238793Y-94867259D01*
X145353791Y-94695153D01*
X145500153Y-94548791D01*
X145672259Y-94433793D01*
X145863492Y-94354582D01*
X146066505Y-94314200D01*
X146273495Y-94314200D01*
X146476508Y-94354582D01*
G37*
G36*
X143012339Y-94213930D02*
G01*
X143083987Y-94243607D01*
X143148471Y-94286694D01*
X143203306Y-94341529D01*
X143246393Y-94406013D01*
X143276070Y-94477661D01*
X143291200Y-94553724D01*
X143291200Y-94631276D01*
X143276070Y-94707339D01*
X143246393Y-94778987D01*
X143203306Y-94843471D01*
X143148471Y-94898306D01*
X143083987Y-94941393D01*
X143012339Y-94971070D01*
X142936276Y-94986200D01*
X142858724Y-94986200D01*
X142782661Y-94971070D01*
X142711013Y-94941393D01*
X142646529Y-94898306D01*
X142591694Y-94843471D01*
X142548607Y-94778987D01*
X142518930Y-94707339D01*
X142503800Y-94631276D01*
X142503800Y-94553724D01*
X142518930Y-94477661D01*
X142548607Y-94406013D01*
X142591694Y-94341529D01*
X142646529Y-94286694D01*
X142711013Y-94243607D01*
X142782661Y-94213930D01*
X142858724Y-94198800D01*
X142936276Y-94198800D01*
X143012339Y-94213930D01*
G37*
G36*
X129788169Y-92526895D02*
G01*
X129943005Y-92591031D01*
X130082354Y-92684140D01*
X130200860Y-92802646D01*
X130293969Y-92941995D01*
X130358105Y-93096831D01*
X130390800Y-93261203D01*
X130390800Y-93428797D01*
X130358105Y-93593169D01*
X130293969Y-93748005D01*
X130200860Y-93887354D01*
X130082354Y-94005860D01*
X129943005Y-94098969D01*
X129788169Y-94163105D01*
X129623797Y-94195800D01*
X129456203Y-94195800D01*
X129291831Y-94163105D01*
X129136995Y-94098969D01*
X128997646Y-94005860D01*
X128879140Y-93887354D01*
X128786031Y-93748005D01*
X128721895Y-93593169D01*
X128689200Y-93428797D01*
X128689200Y-93261203D01*
X128721895Y-93096831D01*
X128786031Y-92941995D01*
X128879140Y-92802646D01*
X128997646Y-92684140D01*
X129136995Y-92591031D01*
X129291831Y-92526895D01*
X129456203Y-92494200D01*
X129623797Y-92494200D01*
X129788169Y-92526895D01*
G37*
G36*
X117088169Y-92526895D02*
G01*
X117243005Y-92591031D01*
X117382354Y-92684140D01*
X117500860Y-92802646D01*
X117593969Y-92941995D01*
X117658105Y-93096831D01*
X117690800Y-93261203D01*
X117690800Y-93428797D01*
X117658105Y-93593169D01*
X117593969Y-93748005D01*
X117500860Y-93887354D01*
X117382354Y-94005860D01*
X117243005Y-94098969D01*
X117088169Y-94163105D01*
X116923797Y-94195800D01*
X116756203Y-94195800D01*
X116591831Y-94163105D01*
X116436995Y-94098969D01*
X116297646Y-94005860D01*
X116179140Y-93887354D01*
X116086031Y-93748005D01*
X116021895Y-93593169D01*
X115989200Y-93428797D01*
X115989200Y-93261203D01*
X116021895Y-93096831D01*
X116086031Y-92941995D01*
X116179140Y-92802646D01*
X116297646Y-92684140D01*
X116436995Y-92591031D01*
X116591831Y-92526895D01*
X116756203Y-92494200D01*
X116923797Y-92494200D01*
X117088169Y-92526895D01*
G37*
G36*
X160976508Y-91854582D02*
G01*
X161167741Y-91933793D01*
X161339847Y-92048791D01*
X161486209Y-92195153D01*
X161601207Y-92367259D01*
X161680418Y-92558492D01*
X161720800Y-92761505D01*
X161720800Y-92968495D01*
X161680418Y-93171508D01*
X161601207Y-93362741D01*
X161486209Y-93534847D01*
X161339847Y-93681209D01*
X161167741Y-93796207D01*
X160976508Y-93875418D01*
X160773495Y-93915800D01*
X160566505Y-93915800D01*
X160363492Y-93875418D01*
X160172259Y-93796207D01*
X160000153Y-93681209D01*
X159853791Y-93534847D01*
X159738793Y-93362741D01*
X159659582Y-93171508D01*
X159619200Y-92968495D01*
X159619200Y-92761505D01*
X159659582Y-92558492D01*
X159738793Y-92367259D01*
X159853791Y-92195153D01*
X160000153Y-92048791D01*
X160172259Y-91933793D01*
X160363492Y-91854582D01*
X160566505Y-91814200D01*
X160773495Y-91814200D01*
X160976508Y-91854582D01*
G37*
G36*
X147220800Y-93915800D02*
G01*
X145119200Y-93915800D01*
X145119200Y-91814200D01*
X147220800Y-91814200D01*
X147220800Y-93915800D01*
G37*
G36*
X108187086Y-91293435D02*
G01*
X108335003Y-91354704D01*
X108468134Y-91443660D01*
X108581340Y-91556866D01*
X108581342Y-91556869D01*
X108581343Y-91556870D01*
X108610721Y-91600837D01*
X108670296Y-91689997D01*
X108731565Y-91837914D01*
X108762800Y-91994946D01*
X108762800Y-92155054D01*
X108731565Y-92312086D01*
X108670296Y-92460003D01*
X108647446Y-92494200D01*
X108582746Y-92591031D01*
X108581340Y-92593134D01*
X108468134Y-92706340D01*
X108335003Y-92795296D01*
X108187086Y-92856565D01*
X108030054Y-92887800D01*
X107869946Y-92887800D01*
X107712914Y-92856565D01*
X107564997Y-92795296D01*
X107431866Y-92706340D01*
X107318660Y-92593134D01*
X107317255Y-92591031D01*
X107252554Y-92494200D01*
X107229704Y-92460003D01*
X107168435Y-92312086D01*
X107137200Y-92155054D01*
X107137200Y-91994946D01*
X107168435Y-91837914D01*
X107229704Y-91689997D01*
X107289279Y-91600837D01*
X107318657Y-91556870D01*
X107318658Y-91556869D01*
X107318660Y-91556866D01*
X107431866Y-91443660D01*
X107564997Y-91354704D01*
X107712914Y-91293435D01*
X107869946Y-91262200D01*
X108030054Y-91262200D01*
X108187086Y-91293435D01*
G37*
G36*
X98009001Y-90718053D02*
G01*
X98145638Y-90774649D01*
X98268609Y-90856816D01*
X98373184Y-90961391D01*
X98455351Y-91084362D01*
X98511947Y-91220999D01*
X98540800Y-91366052D01*
X98540800Y-91513948D01*
X98511947Y-91659001D01*
X98455351Y-91795638D01*
X98373184Y-91918609D01*
X98268609Y-92023184D01*
X98145638Y-92105351D01*
X98009001Y-92161947D01*
X97863948Y-92190800D01*
X97716052Y-92190800D01*
X97570999Y-92161947D01*
X97434362Y-92105351D01*
X97311391Y-92023184D01*
X97206816Y-91918609D01*
X97124649Y-91795638D01*
X97068053Y-91659001D01*
X97039200Y-91513948D01*
X97039200Y-91366052D01*
X97068053Y-91220999D01*
X97124649Y-91084362D01*
X97206816Y-90961391D01*
X97311391Y-90856816D01*
X97434362Y-90774649D01*
X97570999Y-90718053D01*
X97716052Y-90689200D01*
X97863948Y-90689200D01*
X98009001Y-90718053D01*
G37*
G36*
X101184001Y-90718053D02*
G01*
X101320638Y-90774649D01*
X101443609Y-90856816D01*
X101548184Y-90961391D01*
X101630351Y-91084362D01*
X101686947Y-91220999D01*
X101715800Y-91366052D01*
X101715800Y-91513948D01*
X101686947Y-91659001D01*
X101630351Y-91795638D01*
X101548184Y-91918609D01*
X101443609Y-92023184D01*
X101320638Y-92105351D01*
X101184001Y-92161947D01*
X101038948Y-92190800D01*
X100891052Y-92190800D01*
X100745999Y-92161947D01*
X100609362Y-92105351D01*
X100486391Y-92023184D01*
X100381816Y-91918609D01*
X100299649Y-91795638D01*
X100243053Y-91659001D01*
X100214200Y-91513948D01*
X100214200Y-91366052D01*
X100243053Y-91220999D01*
X100299649Y-91084362D01*
X100381816Y-90961391D01*
X100486391Y-90856816D01*
X100609362Y-90774649D01*
X100745999Y-90718053D01*
X100891052Y-90689200D01*
X101038948Y-90689200D01*
X101184001Y-90718053D01*
G37*
G36*
X129788169Y-89986895D02*
G01*
X129943005Y-90051031D01*
X130082354Y-90144140D01*
X130200860Y-90262646D01*
X130293969Y-90401995D01*
X130358105Y-90556831D01*
X130390800Y-90721203D01*
X130390800Y-90888797D01*
X130358105Y-91053169D01*
X130293969Y-91208005D01*
X130200860Y-91347354D01*
X130082354Y-91465860D01*
X129943005Y-91558969D01*
X129788169Y-91623105D01*
X129623797Y-91655800D01*
X129456203Y-91655800D01*
X129291831Y-91623105D01*
X129136995Y-91558969D01*
X128997646Y-91465860D01*
X128879140Y-91347354D01*
X128786031Y-91208005D01*
X128721895Y-91053169D01*
X128689200Y-90888797D01*
X128689200Y-90721203D01*
X128721895Y-90556831D01*
X128786031Y-90401995D01*
X128879140Y-90262646D01*
X128997646Y-90144140D01*
X129136995Y-90051031D01*
X129291831Y-89986895D01*
X129456203Y-89954200D01*
X129623797Y-89954200D01*
X129788169Y-89986895D01*
G37*
G36*
X117088169Y-89986895D02*
G01*
X117243005Y-90051031D01*
X117382354Y-90144140D01*
X117500860Y-90262646D01*
X117593969Y-90401995D01*
X117658105Y-90556831D01*
X117690800Y-90721203D01*
X117690800Y-90888797D01*
X117658105Y-91053169D01*
X117593969Y-91208005D01*
X117500860Y-91347354D01*
X117382354Y-91465860D01*
X117243005Y-91558969D01*
X117088169Y-91623105D01*
X116923797Y-91655800D01*
X116756203Y-91655800D01*
X116591831Y-91623105D01*
X116436995Y-91558969D01*
X116297646Y-91465860D01*
X116179140Y-91347354D01*
X116086031Y-91208005D01*
X116021895Y-91053169D01*
X115989200Y-90888797D01*
X115989200Y-90721203D01*
X116021895Y-90556831D01*
X116086031Y-90401995D01*
X116179140Y-90262646D01*
X116297646Y-90144140D01*
X116436995Y-90051031D01*
X116591831Y-89986895D01*
X116756203Y-89954200D01*
X116923797Y-89954200D01*
X117088169Y-89986895D01*
G37*
G36*
X155320800Y-90815800D02*
G01*
X152019200Y-90815800D01*
X152019200Y-88714200D01*
X155320800Y-88714200D01*
X155320800Y-90815800D01*
G37*
G36*
X117088169Y-87446895D02*
G01*
X117243005Y-87511031D01*
X117382354Y-87604140D01*
X117500860Y-87722646D01*
X117593969Y-87861995D01*
X117658105Y-88016831D01*
X117690800Y-88181203D01*
X117690800Y-88348797D01*
X117658105Y-88513169D01*
X117593969Y-88668005D01*
X117500860Y-88807354D01*
X117382354Y-88925860D01*
X117243005Y-89018969D01*
X117088169Y-89083105D01*
X116923797Y-89115800D01*
X116756203Y-89115800D01*
X116591831Y-89083105D01*
X116436995Y-89018969D01*
X116297646Y-88925860D01*
X116179140Y-88807354D01*
X116086031Y-88668005D01*
X116021895Y-88513169D01*
X115989200Y-88348797D01*
X115989200Y-88181203D01*
X116021895Y-88016831D01*
X116086031Y-87861995D01*
X116179140Y-87722646D01*
X116297646Y-87604140D01*
X116436995Y-87511031D01*
X116591831Y-87446895D01*
X116756203Y-87414200D01*
X116923797Y-87414200D01*
X117088169Y-87446895D01*
G37*
G36*
X129788169Y-87446895D02*
G01*
X129943005Y-87511031D01*
X130082354Y-87604140D01*
X130200860Y-87722646D01*
X130293969Y-87861995D01*
X130358105Y-88016831D01*
X130390800Y-88181203D01*
X130390800Y-88348797D01*
X130358105Y-88513169D01*
X130293969Y-88668005D01*
X130200860Y-88807354D01*
X130082354Y-88925860D01*
X129943005Y-89018969D01*
X129788169Y-89083105D01*
X129623797Y-89115800D01*
X129456203Y-89115800D01*
X129291831Y-89083105D01*
X129136995Y-89018969D01*
X128997646Y-88925860D01*
X128879140Y-88807354D01*
X128786031Y-88668005D01*
X128721895Y-88513169D01*
X128689200Y-88348797D01*
X128689200Y-88181203D01*
X128721895Y-88016831D01*
X128786031Y-87861995D01*
X128879140Y-87722646D01*
X128997646Y-87604140D01*
X129136995Y-87511031D01*
X129291831Y-87446895D01*
X129456203Y-87414200D01*
X129623797Y-87414200D01*
X129788169Y-87446895D01*
G37*
G36*
X139919001Y-87543053D02*
G01*
X140055638Y-87599649D01*
X140178609Y-87681816D01*
X140283184Y-87786391D01*
X140365351Y-87909362D01*
X140421947Y-88045999D01*
X140450800Y-88191052D01*
X140450800Y-88338948D01*
X140421947Y-88484001D01*
X140365351Y-88620638D01*
X140283184Y-88743609D01*
X140178609Y-88848184D01*
X140055638Y-88930351D01*
X139919001Y-88986947D01*
X139773948Y-89015800D01*
X139626052Y-89015800D01*
X139480999Y-88986947D01*
X139344362Y-88930351D01*
X139221391Y-88848184D01*
X139116816Y-88743609D01*
X139034649Y-88620638D01*
X138978053Y-88484001D01*
X138949200Y-88338948D01*
X138949200Y-88191052D01*
X138978053Y-88045999D01*
X139034649Y-87909362D01*
X139116816Y-87786391D01*
X139221391Y-87681816D01*
X139344362Y-87599649D01*
X139480999Y-87543053D01*
X139626052Y-87514200D01*
X139773948Y-87514200D01*
X139919001Y-87543053D01*
G37*
G36*
X136109001Y-87543053D02*
G01*
X136245638Y-87599649D01*
X136368609Y-87681816D01*
X136473184Y-87786391D01*
X136555351Y-87909362D01*
X136611947Y-88045999D01*
X136640800Y-88191052D01*
X136640800Y-88338948D01*
X136611947Y-88484001D01*
X136555351Y-88620638D01*
X136473184Y-88743609D01*
X136368609Y-88848184D01*
X136245638Y-88930351D01*
X136109001Y-88986947D01*
X135963948Y-89015800D01*
X135816052Y-89015800D01*
X135670999Y-88986947D01*
X135534362Y-88930351D01*
X135411391Y-88848184D01*
X135306816Y-88743609D01*
X135224649Y-88620638D01*
X135168053Y-88484001D01*
X135139200Y-88338948D01*
X135139200Y-88191052D01*
X135168053Y-88045999D01*
X135224649Y-87909362D01*
X135306816Y-87786391D01*
X135411391Y-87681816D01*
X135534362Y-87599649D01*
X135670999Y-87543053D01*
X135816052Y-87514200D01*
X135963948Y-87514200D01*
X136109001Y-87543053D01*
G37*
G36*
X142964339Y-87911930D02*
G01*
X143035987Y-87941607D01*
X143100471Y-87984694D01*
X143155306Y-88039529D01*
X143198393Y-88104013D01*
X143228070Y-88175661D01*
X143243200Y-88251724D01*
X143243200Y-88329276D01*
X143228070Y-88405339D01*
X143198393Y-88476987D01*
X143155306Y-88541471D01*
X143100471Y-88596306D01*
X143035987Y-88639393D01*
X142964339Y-88669070D01*
X142888276Y-88684200D01*
X142810724Y-88684200D01*
X142734661Y-88669070D01*
X142663013Y-88639393D01*
X142598529Y-88596306D01*
X142543694Y-88541471D01*
X142500607Y-88476987D01*
X142470930Y-88405339D01*
X142455800Y-88329276D01*
X142455800Y-88251724D01*
X142470930Y-88175661D01*
X142500607Y-88104013D01*
X142543694Y-88039529D01*
X142598529Y-87984694D01*
X142663013Y-87941607D01*
X142734661Y-87911930D01*
X142810724Y-87896800D01*
X142888276Y-87896800D01*
X142964339Y-87911930D01*
G37*
G36*
X108187086Y-86213435D02*
G01*
X108335003Y-86274704D01*
X108468134Y-86363660D01*
X108581340Y-86476866D01*
X108581342Y-86476869D01*
X108581343Y-86476870D01*
X108610721Y-86520837D01*
X108670296Y-86609997D01*
X108731565Y-86757914D01*
X108762800Y-86914946D01*
X108762800Y-87075054D01*
X108731565Y-87232086D01*
X108670296Y-87380003D01*
X108647446Y-87414200D01*
X108582746Y-87511031D01*
X108581340Y-87513134D01*
X108468134Y-87626340D01*
X108335003Y-87715296D01*
X108187086Y-87776565D01*
X108030054Y-87807800D01*
X107869946Y-87807800D01*
X107712914Y-87776565D01*
X107564997Y-87715296D01*
X107431866Y-87626340D01*
X107318660Y-87513134D01*
X107317255Y-87511031D01*
X107252554Y-87414200D01*
X107229704Y-87380003D01*
X107168435Y-87232086D01*
X107137200Y-87075054D01*
X107137200Y-86914946D01*
X107168435Y-86757914D01*
X107229704Y-86609997D01*
X107289279Y-86520837D01*
X107318657Y-86476870D01*
X107318658Y-86476869D01*
X107318660Y-86476866D01*
X107431866Y-86363660D01*
X107564997Y-86274704D01*
X107712914Y-86213435D01*
X107869946Y-86182200D01*
X108030054Y-86182200D01*
X108187086Y-86213435D01*
G37*
G36*
X158229839Y-86616430D02*
G01*
X158301487Y-86646107D01*
X158365971Y-86689194D01*
X158420806Y-86744029D01*
X158463893Y-86808513D01*
X158493570Y-86880161D01*
X158508700Y-86956224D01*
X158508700Y-87033776D01*
X158493570Y-87109839D01*
X158463893Y-87181487D01*
X158420806Y-87245971D01*
X158365971Y-87300806D01*
X158301487Y-87343893D01*
X158229839Y-87373570D01*
X158153776Y-87388700D01*
X158076224Y-87388700D01*
X158000161Y-87373570D01*
X157928513Y-87343893D01*
X157864029Y-87300806D01*
X157809194Y-87245971D01*
X157766107Y-87181487D01*
X157736430Y-87109839D01*
X157721300Y-87033776D01*
X157721300Y-86956224D01*
X157736430Y-86880161D01*
X157766107Y-86808513D01*
X157809194Y-86744029D01*
X157864029Y-86689194D01*
X157928513Y-86646107D01*
X158000161Y-86616430D01*
X158076224Y-86601300D01*
X158153776Y-86601300D01*
X158229839Y-86616430D01*
G37*
G36*
X117088169Y-84906895D02*
G01*
X117243005Y-84971031D01*
X117382354Y-85064140D01*
X117500860Y-85182646D01*
X117593969Y-85321995D01*
X117658105Y-85476831D01*
X117690800Y-85641203D01*
X117690800Y-85808797D01*
X117658105Y-85973169D01*
X117593969Y-86128005D01*
X117500860Y-86267354D01*
X117382354Y-86385860D01*
X117243005Y-86478969D01*
X117088169Y-86543105D01*
X116923797Y-86575800D01*
X116756203Y-86575800D01*
X116591831Y-86543105D01*
X116436995Y-86478969D01*
X116297646Y-86385860D01*
X116179140Y-86267354D01*
X116086031Y-86128005D01*
X116021895Y-85973169D01*
X115989200Y-85808797D01*
X115989200Y-85641203D01*
X116021895Y-85476831D01*
X116086031Y-85321995D01*
X116179140Y-85182646D01*
X116297646Y-85064140D01*
X116436995Y-84971031D01*
X116591831Y-84906895D01*
X116756203Y-84874200D01*
X116923797Y-84874200D01*
X117088169Y-84906895D01*
G37*
G36*
X129788169Y-84906895D02*
G01*
X129943005Y-84971031D01*
X130082354Y-85064140D01*
X130200860Y-85182646D01*
X130293969Y-85321995D01*
X130358105Y-85476831D01*
X130390800Y-85641203D01*
X130390800Y-85808797D01*
X130358105Y-85973169D01*
X130293969Y-86128005D01*
X130200860Y-86267354D01*
X130082354Y-86385860D01*
X129943005Y-86478969D01*
X129788169Y-86543105D01*
X129623797Y-86575800D01*
X129456203Y-86575800D01*
X129291831Y-86543105D01*
X129136995Y-86478969D01*
X128997646Y-86385860D01*
X128879140Y-86267354D01*
X128786031Y-86128005D01*
X128721895Y-85973169D01*
X128689200Y-85808797D01*
X128689200Y-85641203D01*
X128721895Y-85476831D01*
X128786031Y-85321995D01*
X128879140Y-85182646D01*
X128997646Y-85064140D01*
X129136995Y-84971031D01*
X129291831Y-84906895D01*
X129456203Y-84874200D01*
X129623797Y-84874200D01*
X129788169Y-84906895D01*
G37*
G36*
X136109001Y-85003053D02*
G01*
X136245638Y-85059649D01*
X136368609Y-85141816D01*
X136473184Y-85246391D01*
X136555351Y-85369362D01*
X136611947Y-85505999D01*
X136640800Y-85651052D01*
X136640800Y-85798948D01*
X136611947Y-85944001D01*
X136555351Y-86080638D01*
X136473184Y-86203609D01*
X136368609Y-86308184D01*
X136245638Y-86390351D01*
X136109001Y-86446947D01*
X135963948Y-86475800D01*
X135816052Y-86475800D01*
X135670999Y-86446947D01*
X135534362Y-86390351D01*
X135411391Y-86308184D01*
X135306816Y-86203609D01*
X135224649Y-86080638D01*
X135168053Y-85944001D01*
X135139200Y-85798948D01*
X135139200Y-85651052D01*
X135168053Y-85505999D01*
X135224649Y-85369362D01*
X135306816Y-85246391D01*
X135411391Y-85141816D01*
X135534362Y-85059649D01*
X135670999Y-85003053D01*
X135816052Y-84974200D01*
X135963948Y-84974200D01*
X136109001Y-85003053D01*
G37*
G36*
X139919001Y-85003053D02*
G01*
X140055638Y-85059649D01*
X140178609Y-85141816D01*
X140283184Y-85246391D01*
X140365351Y-85369362D01*
X140421947Y-85505999D01*
X140450800Y-85651052D01*
X140450800Y-85798948D01*
X140421947Y-85944001D01*
X140365351Y-86080638D01*
X140283184Y-86203609D01*
X140178609Y-86308184D01*
X140055638Y-86390351D01*
X139919001Y-86446947D01*
X139773948Y-86475800D01*
X139626052Y-86475800D01*
X139480999Y-86446947D01*
X139344362Y-86390351D01*
X139221391Y-86308184D01*
X139116816Y-86203609D01*
X139034649Y-86080638D01*
X138978053Y-85944001D01*
X138949200Y-85798948D01*
X138949200Y-85651052D01*
X138978053Y-85505999D01*
X139034649Y-85369362D01*
X139116816Y-85246391D01*
X139221391Y-85141816D01*
X139344362Y-85059649D01*
X139480999Y-85003053D01*
X139626052Y-84974200D01*
X139773948Y-84974200D01*
X139919001Y-85003053D01*
G37*
G36*
X158334001Y-84368053D02*
G01*
X158470638Y-84424649D01*
X158593609Y-84506816D01*
X158698184Y-84611391D01*
X158780351Y-84734362D01*
X158836947Y-84870999D01*
X158865800Y-85016052D01*
X158865800Y-85163948D01*
X158836947Y-85309001D01*
X158780351Y-85445638D01*
X158698184Y-85568609D01*
X158593609Y-85673184D01*
X158470638Y-85755351D01*
X158334001Y-85811947D01*
X158188948Y-85840800D01*
X158041052Y-85840800D01*
X157895999Y-85811947D01*
X157759362Y-85755351D01*
X157636391Y-85673184D01*
X157531816Y-85568609D01*
X157449649Y-85445638D01*
X157393053Y-85309001D01*
X157364200Y-85163948D01*
X157364200Y-85016052D01*
X157393053Y-84870999D01*
X157449649Y-84734362D01*
X157531816Y-84611391D01*
X157636391Y-84506816D01*
X157759362Y-84424649D01*
X157895999Y-84368053D01*
X158041052Y-84339200D01*
X158188948Y-84339200D01*
X158334001Y-84368053D01*
G37*
G36*
X150714001Y-84368053D02*
G01*
X150850638Y-84424649D01*
X150973609Y-84506816D01*
X151078184Y-84611391D01*
X151160351Y-84734362D01*
X151216947Y-84870999D01*
X151245800Y-85016052D01*
X151245800Y-85163948D01*
X151216947Y-85309001D01*
X151160351Y-85445638D01*
X151078184Y-85568609D01*
X150973609Y-85673184D01*
X150850638Y-85755351D01*
X150714001Y-85811947D01*
X150568948Y-85840800D01*
X150421052Y-85840800D01*
X150275999Y-85811947D01*
X150139362Y-85755351D01*
X150016391Y-85673184D01*
X149911816Y-85568609D01*
X149829649Y-85445638D01*
X149773053Y-85309001D01*
X149744200Y-85163948D01*
X149744200Y-85016052D01*
X149773053Y-84870999D01*
X149829649Y-84734362D01*
X149911816Y-84611391D01*
X150016391Y-84506816D01*
X150139362Y-84424649D01*
X150275999Y-84368053D01*
X150421052Y-84339200D01*
X150568948Y-84339200D01*
X150714001Y-84368053D01*
G37*
G36*
X98009001Y-83098053D02*
G01*
X98145638Y-83154649D01*
X98268609Y-83236816D01*
X98373184Y-83341391D01*
X98455351Y-83464362D01*
X98511947Y-83600999D01*
X98540800Y-83746052D01*
X98540800Y-83893948D01*
X98511947Y-84039001D01*
X98455351Y-84175638D01*
X98373184Y-84298609D01*
X98268609Y-84403184D01*
X98145638Y-84485351D01*
X98009001Y-84541947D01*
X97863948Y-84570800D01*
X97716052Y-84570800D01*
X97570999Y-84541947D01*
X97434362Y-84485351D01*
X97311391Y-84403184D01*
X97206816Y-84298609D01*
X97124649Y-84175638D01*
X97068053Y-84039001D01*
X97039200Y-83893948D01*
X97039200Y-83746052D01*
X97068053Y-83600999D01*
X97124649Y-83464362D01*
X97206816Y-83341391D01*
X97311391Y-83236816D01*
X97434362Y-83154649D01*
X97570999Y-83098053D01*
X97716052Y-83069200D01*
X97863948Y-83069200D01*
X98009001Y-83098053D01*
G37*
G36*
X101184001Y-83098053D02*
G01*
X101320638Y-83154649D01*
X101443609Y-83236816D01*
X101548184Y-83341391D01*
X101630351Y-83464362D01*
X101686947Y-83600999D01*
X101715800Y-83746052D01*
X101715800Y-83893948D01*
X101686947Y-84039001D01*
X101630351Y-84175638D01*
X101548184Y-84298609D01*
X101443609Y-84403184D01*
X101320638Y-84485351D01*
X101184001Y-84541947D01*
X101038948Y-84570800D01*
X100891052Y-84570800D01*
X100745999Y-84541947D01*
X100609362Y-84485351D01*
X100486391Y-84403184D01*
X100381816Y-84298609D01*
X100299649Y-84175638D01*
X100243053Y-84039001D01*
X100214200Y-83893948D01*
X100214200Y-83746052D01*
X100243053Y-83600999D01*
X100299649Y-83464362D01*
X100381816Y-83341391D01*
X100486391Y-83236816D01*
X100609362Y-83154649D01*
X100745999Y-83098053D01*
X100891052Y-83069200D01*
X101038948Y-83069200D01*
X101184001Y-83098053D01*
G37*
G36*
X117690800Y-84035800D02*
G01*
X115989200Y-84035800D01*
X115989200Y-82334200D01*
X117690800Y-82334200D01*
X117690800Y-84035800D01*
G37*
G36*
X129788169Y-82366895D02*
G01*
X129943005Y-82431031D01*
X130082354Y-82524140D01*
X130200860Y-82642646D01*
X130293969Y-82781995D01*
X130358105Y-82936831D01*
X130390800Y-83101203D01*
X130390800Y-83268797D01*
X130358105Y-83433169D01*
X130293969Y-83588005D01*
X130200860Y-83727354D01*
X130082354Y-83845860D01*
X129943005Y-83938969D01*
X129788169Y-84003105D01*
X129623797Y-84035800D01*
X129456203Y-84035800D01*
X129291831Y-84003105D01*
X129136995Y-83938969D01*
X128997646Y-83845860D01*
X128879140Y-83727354D01*
X128786031Y-83588005D01*
X128721895Y-83433169D01*
X128689200Y-83268797D01*
X128689200Y-83101203D01*
X128721895Y-82936831D01*
X128786031Y-82781995D01*
X128879140Y-82642646D01*
X128997646Y-82524140D01*
X129136995Y-82431031D01*
X129291831Y-82366895D01*
X129456203Y-82334200D01*
X129623797Y-82334200D01*
X129788169Y-82366895D01*
G37*
G36*
X108187086Y-81133435D02*
G01*
X108335003Y-81194704D01*
X108468134Y-81283660D01*
X108581340Y-81396866D01*
X108670296Y-81529997D01*
X108731565Y-81677914D01*
X108762800Y-81834946D01*
X108762800Y-81995054D01*
X108731565Y-82152086D01*
X108670296Y-82300003D01*
X108647446Y-82334200D01*
X108582746Y-82431031D01*
X108581340Y-82433134D01*
X108468134Y-82546340D01*
X108335003Y-82635296D01*
X108187086Y-82696565D01*
X108030054Y-82727800D01*
X107869946Y-82727800D01*
X107712914Y-82696565D01*
X107564997Y-82635296D01*
X107431866Y-82546340D01*
X107318660Y-82433134D01*
X107317255Y-82431031D01*
X107252554Y-82334200D01*
X107229704Y-82300003D01*
X107168435Y-82152086D01*
X107137200Y-81995054D01*
X107137200Y-81834946D01*
X107168435Y-81677914D01*
X107229704Y-81529997D01*
X107318660Y-81396866D01*
X107431866Y-81283660D01*
X107564997Y-81194704D01*
X107712914Y-81133435D01*
X107869946Y-81102200D01*
X108030054Y-81102200D01*
X108187086Y-81133435D01*
G37*
G36*
X158334001Y-80558053D02*
G01*
X158470638Y-80614649D01*
X158593609Y-80696816D01*
X158698184Y-80801391D01*
X158780351Y-80924362D01*
X158836947Y-81060999D01*
X158865800Y-81206052D01*
X158865800Y-81353948D01*
X158836947Y-81499001D01*
X158780351Y-81635638D01*
X158698184Y-81758609D01*
X158593609Y-81863184D01*
X158470638Y-81945351D01*
X158334001Y-82001947D01*
X158188948Y-82030800D01*
X158041052Y-82030800D01*
X157895999Y-82001947D01*
X157759362Y-81945351D01*
X157636391Y-81863184D01*
X157531816Y-81758609D01*
X157449649Y-81635638D01*
X157393053Y-81499001D01*
X157364200Y-81353948D01*
X157364200Y-81206052D01*
X157393053Y-81060999D01*
X157449649Y-80924362D01*
X157531816Y-80801391D01*
X157636391Y-80696816D01*
X157759362Y-80614649D01*
X157895999Y-80558053D01*
X158041052Y-80529200D01*
X158188948Y-80529200D01*
X158334001Y-80558053D01*
G37*
G36*
X150714001Y-80558053D02*
G01*
X150850638Y-80614649D01*
X150973609Y-80696816D01*
X151078184Y-80801391D01*
X151160351Y-80924362D01*
X151216947Y-81060999D01*
X151245800Y-81206052D01*
X151245800Y-81353948D01*
X151216947Y-81499001D01*
X151160351Y-81635638D01*
X151078184Y-81758609D01*
X150973609Y-81863184D01*
X150850638Y-81945351D01*
X150714001Y-82001947D01*
X150568948Y-82030800D01*
X150421052Y-82030800D01*
X150275999Y-82001947D01*
X150139362Y-81945351D01*
X150016391Y-81863184D01*
X149911816Y-81758609D01*
X149829649Y-81635638D01*
X149773053Y-81499001D01*
X149744200Y-81353948D01*
X149744200Y-81206052D01*
X149773053Y-81060999D01*
X149829649Y-80924362D01*
X149911816Y-80801391D01*
X150016391Y-80696816D01*
X150139362Y-80614649D01*
X150275999Y-80558053D01*
X150421052Y-80529200D01*
X150568948Y-80529200D01*
X150714001Y-80558053D01*
G37*
G36*
X124708169Y-77246895D02*
G01*
X124863005Y-77311031D01*
X125002354Y-77404140D01*
X125120860Y-77522646D01*
X125213969Y-77661995D01*
X125278105Y-77816831D01*
X125310800Y-77981203D01*
X125310800Y-78148797D01*
X125278105Y-78313169D01*
X125213969Y-78468005D01*
X125120860Y-78607354D01*
X125002354Y-78725860D01*
X124863005Y-78818969D01*
X124708169Y-78883105D01*
X124543797Y-78915800D01*
X124376203Y-78915800D01*
X124211831Y-78883105D01*
X124056995Y-78818969D01*
X123917646Y-78725860D01*
X123799140Y-78607354D01*
X123706031Y-78468005D01*
X123641895Y-78313169D01*
X123609200Y-78148797D01*
X123609200Y-77981203D01*
X123641895Y-77816831D01*
X123706031Y-77661995D01*
X123799140Y-77522646D01*
X123917646Y-77404140D01*
X124056995Y-77311031D01*
X124211831Y-77246895D01*
X124376203Y-77214200D01*
X124543797Y-77214200D01*
X124708169Y-77246895D01*
G37*
G36*
X129788169Y-77246895D02*
G01*
X129943005Y-77311031D01*
X130082354Y-77404140D01*
X130200860Y-77522646D01*
X130293969Y-77661995D01*
X130358105Y-77816831D01*
X130390800Y-77981203D01*
X130390800Y-78148797D01*
X130358105Y-78313169D01*
X130293969Y-78468005D01*
X130200860Y-78607354D01*
X130082354Y-78725860D01*
X129943005Y-78818969D01*
X129788169Y-78883105D01*
X129623797Y-78915800D01*
X129456203Y-78915800D01*
X129291831Y-78883105D01*
X129136995Y-78818969D01*
X128997646Y-78725860D01*
X128879140Y-78607354D01*
X128786031Y-78468005D01*
X128721895Y-78313169D01*
X128689200Y-78148797D01*
X128689200Y-77981203D01*
X128721895Y-77816831D01*
X128786031Y-77661995D01*
X128879140Y-77522646D01*
X128997646Y-77404140D01*
X129136995Y-77311031D01*
X129291831Y-77246895D01*
X129456203Y-77214200D01*
X129623797Y-77214200D01*
X129788169Y-77246895D01*
G37*
G36*
X119628169Y-77246895D02*
G01*
X119783005Y-77311031D01*
X119922354Y-77404140D01*
X120040860Y-77522646D01*
X120133969Y-77661995D01*
X120198105Y-77816831D01*
X120230800Y-77981203D01*
X120230800Y-78148797D01*
X120198105Y-78313169D01*
X120133969Y-78468005D01*
X120040860Y-78607354D01*
X119922354Y-78725860D01*
X119783005Y-78818969D01*
X119628169Y-78883105D01*
X119463797Y-78915800D01*
X119296203Y-78915800D01*
X119131831Y-78883105D01*
X118976995Y-78818969D01*
X118837646Y-78725860D01*
X118719140Y-78607354D01*
X118626031Y-78468005D01*
X118561895Y-78313169D01*
X118529200Y-78148797D01*
X118529200Y-77981203D01*
X118561895Y-77816831D01*
X118626031Y-77661995D01*
X118719140Y-77522646D01*
X118837646Y-77404140D01*
X118976995Y-77311031D01*
X119131831Y-77246895D01*
X119296203Y-77214200D01*
X119463797Y-77214200D01*
X119628169Y-77246895D01*
G37*
G36*
X136109001Y-77383053D02*
G01*
X136245638Y-77439649D01*
X136368609Y-77521816D01*
X136473184Y-77626391D01*
X136555351Y-77749362D01*
X136611947Y-77885999D01*
X136640800Y-78031052D01*
X136640800Y-78178948D01*
X136611947Y-78324001D01*
X136555351Y-78460638D01*
X136473184Y-78583609D01*
X136368609Y-78688184D01*
X136245638Y-78770351D01*
X136109001Y-78826947D01*
X135963948Y-78855800D01*
X135816052Y-78855800D01*
X135670999Y-78826947D01*
X135534362Y-78770351D01*
X135411391Y-78688184D01*
X135306816Y-78583609D01*
X135224649Y-78460638D01*
X135168053Y-78324001D01*
X135139200Y-78178948D01*
X135139200Y-78031052D01*
X135168053Y-77885999D01*
X135224649Y-77749362D01*
X135306816Y-77626391D01*
X135411391Y-77521816D01*
X135534362Y-77439649D01*
X135670999Y-77383053D01*
X135816052Y-77354200D01*
X135963948Y-77354200D01*
X136109001Y-77383053D01*
G37*
G36*
X139919001Y-77383053D02*
G01*
X140055638Y-77439649D01*
X140178609Y-77521816D01*
X140283184Y-77626391D01*
X140365351Y-77749362D01*
X140421947Y-77885999D01*
X140450800Y-78031052D01*
X140450800Y-78178948D01*
X140421947Y-78324001D01*
X140365351Y-78460638D01*
X140283184Y-78583609D01*
X140178609Y-78688184D01*
X140055638Y-78770351D01*
X139919001Y-78826947D01*
X139773948Y-78855800D01*
X139626052Y-78855800D01*
X139480999Y-78826947D01*
X139344362Y-78770351D01*
X139221391Y-78688184D01*
X139116816Y-78583609D01*
X139034649Y-78460638D01*
X138978053Y-78324001D01*
X138949200Y-78178948D01*
X138949200Y-78031052D01*
X138978053Y-77885999D01*
X139034649Y-77749362D01*
X139116816Y-77626391D01*
X139221391Y-77521816D01*
X139344362Y-77439649D01*
X139480999Y-77383053D01*
X139626052Y-77354200D01*
X139773948Y-77354200D01*
X139919001Y-77383053D01*
G37*
G36*
X108187086Y-76053435D02*
G01*
X108335003Y-76114704D01*
X108468134Y-76203660D01*
X108581340Y-76316866D01*
X108581342Y-76316869D01*
X108581343Y-76316870D01*
X108610721Y-76360837D01*
X108670296Y-76449997D01*
X108731565Y-76597914D01*
X108762800Y-76754946D01*
X108762800Y-76915054D01*
X108731565Y-77072086D01*
X108670296Y-77220003D01*
X108581340Y-77353134D01*
X108468134Y-77466340D01*
X108335003Y-77555296D01*
X108187086Y-77616565D01*
X108030054Y-77647800D01*
X107869946Y-77647800D01*
X107712914Y-77616565D01*
X107564997Y-77555296D01*
X107431866Y-77466340D01*
X107318660Y-77353134D01*
X107229704Y-77220003D01*
X107168435Y-77072086D01*
X107137200Y-76915054D01*
X107137200Y-76754946D01*
X107168435Y-76597914D01*
X107229704Y-76449997D01*
X107289279Y-76360837D01*
X107318657Y-76316870D01*
X107318658Y-76316869D01*
X107318660Y-76316866D01*
X107431866Y-76203660D01*
X107564997Y-76114704D01*
X107712914Y-76053435D01*
X107869946Y-76022200D01*
X108030054Y-76022200D01*
X108187086Y-76053435D01*
G37*
G36*
X129788169Y-74746895D02*
G01*
X129943005Y-74811031D01*
X130082354Y-74904140D01*
X130200860Y-75022646D01*
X130293969Y-75161995D01*
X130358105Y-75316831D01*
X130390800Y-75481203D01*
X130390800Y-75648797D01*
X130358105Y-75813169D01*
X130293969Y-75968005D01*
X130200860Y-76107354D01*
X130082354Y-76225860D01*
X129943005Y-76318969D01*
X129788169Y-76383105D01*
X129623797Y-76415800D01*
X129456203Y-76415800D01*
X129291831Y-76383105D01*
X129136995Y-76318969D01*
X128997646Y-76225860D01*
X128879140Y-76107354D01*
X128786031Y-75968005D01*
X128721895Y-75813169D01*
X128689200Y-75648797D01*
X128689200Y-75481203D01*
X128721895Y-75316831D01*
X128786031Y-75161995D01*
X128879140Y-75022646D01*
X128997646Y-74904140D01*
X129136995Y-74811031D01*
X129291831Y-74746895D01*
X129456203Y-74714200D01*
X129623797Y-74714200D01*
X129788169Y-74746895D01*
G37*
G36*
X124708169Y-74746895D02*
G01*
X124863005Y-74811031D01*
X125002354Y-74904140D01*
X125120860Y-75022646D01*
X125213969Y-75161995D01*
X125278105Y-75316831D01*
X125310800Y-75481203D01*
X125310800Y-75648797D01*
X125278105Y-75813169D01*
X125213969Y-75968005D01*
X125120860Y-76107354D01*
X125002354Y-76225860D01*
X124863005Y-76318969D01*
X124708169Y-76383105D01*
X124543797Y-76415800D01*
X124376203Y-76415800D01*
X124211831Y-76383105D01*
X124056995Y-76318969D01*
X123917646Y-76225860D01*
X123799140Y-76107354D01*
X123706031Y-75968005D01*
X123641895Y-75813169D01*
X123609200Y-75648797D01*
X123609200Y-75481203D01*
X123641895Y-75316831D01*
X123706031Y-75161995D01*
X123799140Y-75022646D01*
X123917646Y-74904140D01*
X124056995Y-74811031D01*
X124211831Y-74746895D01*
X124376203Y-74714200D01*
X124543797Y-74714200D01*
X124708169Y-74746895D01*
G37*
G36*
X119628169Y-74746895D02*
G01*
X119783005Y-74811031D01*
X119922354Y-74904140D01*
X120040860Y-75022646D01*
X120133969Y-75161995D01*
X120198105Y-75316831D01*
X120230800Y-75481203D01*
X120230800Y-75648797D01*
X120198105Y-75813169D01*
X120133969Y-75968005D01*
X120040860Y-76107354D01*
X119922354Y-76225860D01*
X119783005Y-76318969D01*
X119628169Y-76383105D01*
X119463797Y-76415800D01*
X119296203Y-76415800D01*
X119131831Y-76383105D01*
X118976995Y-76318969D01*
X118837646Y-76225860D01*
X118719140Y-76107354D01*
X118626031Y-75968005D01*
X118561895Y-75813169D01*
X118529200Y-75648797D01*
X118529200Y-75481203D01*
X118561895Y-75316831D01*
X118626031Y-75161995D01*
X118719140Y-75022646D01*
X118837646Y-74904140D01*
X118976995Y-74811031D01*
X119131831Y-74746895D01*
X119296203Y-74714200D01*
X119463797Y-74714200D01*
X119628169Y-74746895D01*
G37*
G36*
X115183169Y-71531895D02*
G01*
X115338005Y-71596031D01*
X115477354Y-71689140D01*
X115595860Y-71807646D01*
X115688969Y-71946995D01*
X115753105Y-72101831D01*
X115785800Y-72266203D01*
X115785800Y-72433797D01*
X115753105Y-72598169D01*
X115688969Y-72753005D01*
X115595860Y-72892354D01*
X115477354Y-73010860D01*
X115338005Y-73103969D01*
X115183169Y-73168105D01*
X115018797Y-73200800D01*
X114851203Y-73200800D01*
X114686831Y-73168105D01*
X114531995Y-73103969D01*
X114392646Y-73010860D01*
X114274140Y-72892354D01*
X114181031Y-72753005D01*
X114116895Y-72598169D01*
X114084200Y-72433797D01*
X114084200Y-72266203D01*
X114116895Y-72101831D01*
X114181031Y-71946995D01*
X114274140Y-71807646D01*
X114392646Y-71689140D01*
X114531995Y-71596031D01*
X114686831Y-71531895D01*
X114851203Y-71499200D01*
X115018797Y-71499200D01*
X115183169Y-71531895D01*
G37*
G36*
X122135800Y-72605800D02*
G01*
X120434200Y-72605800D01*
X120434200Y-70904200D01*
X122135800Y-70904200D01*
X122135800Y-72605800D01*
G37*
G36*
X136773169Y-70936895D02*
G01*
X136928005Y-71001031D01*
X137067354Y-71094140D01*
X137185860Y-71212646D01*
X137278969Y-71351995D01*
X137343105Y-71506831D01*
X137375800Y-71671203D01*
X137375800Y-71838797D01*
X137343105Y-72003169D01*
X137278969Y-72158005D01*
X137185860Y-72297354D01*
X137067354Y-72415860D01*
X136928005Y-72508969D01*
X136773169Y-72573105D01*
X136608797Y-72605800D01*
X136441203Y-72605800D01*
X136276831Y-72573105D01*
X136121995Y-72508969D01*
X135982646Y-72415860D01*
X135864140Y-72297354D01*
X135771031Y-72158005D01*
X135706895Y-72003169D01*
X135674200Y-71838797D01*
X135674200Y-71671203D01*
X135706895Y-71506831D01*
X135771031Y-71351995D01*
X135864140Y-71212646D01*
X135982646Y-71094140D01*
X136121995Y-71001031D01*
X136276831Y-70936895D01*
X136441203Y-70904200D01*
X136608797Y-70904200D01*
X136773169Y-70936895D01*
G37*
G36*
X134233169Y-70936895D02*
G01*
X134388005Y-71001031D01*
X134527354Y-71094140D01*
X134645860Y-71212646D01*
X134738969Y-71351995D01*
X134803105Y-71506831D01*
X134835800Y-71671203D01*
X134835800Y-71838797D01*
X134803105Y-72003169D01*
X134738969Y-72158005D01*
X134645860Y-72297354D01*
X134527354Y-72415860D01*
X134388005Y-72508969D01*
X134233169Y-72573105D01*
X134068797Y-72605800D01*
X133901203Y-72605800D01*
X133736831Y-72573105D01*
X133581995Y-72508969D01*
X133442646Y-72415860D01*
X133324140Y-72297354D01*
X133231031Y-72158005D01*
X133166895Y-72003169D01*
X133134200Y-71838797D01*
X133134200Y-71671203D01*
X133166895Y-71506831D01*
X133231031Y-71351995D01*
X133324140Y-71212646D01*
X133442646Y-71094140D01*
X133581995Y-71001031D01*
X133736831Y-70936895D01*
X133901203Y-70904200D01*
X134068797Y-70904200D01*
X134233169Y-70936895D01*
G37*
G36*
X131693169Y-70936895D02*
G01*
X131848005Y-71001031D01*
X131987354Y-71094140D01*
X132105860Y-71212646D01*
X132198969Y-71351995D01*
X132263105Y-71506831D01*
X132295800Y-71671203D01*
X132295800Y-71838797D01*
X132263105Y-72003169D01*
X132198969Y-72158005D01*
X132105860Y-72297354D01*
X131987354Y-72415860D01*
X131848005Y-72508969D01*
X131693169Y-72573105D01*
X131528797Y-72605800D01*
X131361203Y-72605800D01*
X131196831Y-72573105D01*
X131041995Y-72508969D01*
X130902646Y-72415860D01*
X130784140Y-72297354D01*
X130691031Y-72158005D01*
X130626895Y-72003169D01*
X130594200Y-71838797D01*
X130594200Y-71671203D01*
X130626895Y-71506831D01*
X130691031Y-71351995D01*
X130784140Y-71212646D01*
X130902646Y-71094140D01*
X131041995Y-71001031D01*
X131196831Y-70936895D01*
X131361203Y-70904200D01*
X131528797Y-70904200D01*
X131693169Y-70936895D01*
G37*
G36*
X129153169Y-70936895D02*
G01*
X129308005Y-71001031D01*
X129447354Y-71094140D01*
X129565860Y-71212646D01*
X129658969Y-71351995D01*
X129723105Y-71506831D01*
X129755800Y-71671203D01*
X129755800Y-71838797D01*
X129723105Y-72003169D01*
X129658969Y-72158005D01*
X129565860Y-72297354D01*
X129447354Y-72415860D01*
X129308005Y-72508969D01*
X129153169Y-72573105D01*
X128988797Y-72605800D01*
X128821203Y-72605800D01*
X128656831Y-72573105D01*
X128501995Y-72508969D01*
X128362646Y-72415860D01*
X128244140Y-72297354D01*
X128151031Y-72158005D01*
X128086895Y-72003169D01*
X128054200Y-71838797D01*
X128054200Y-71671203D01*
X128086895Y-71506831D01*
X128151031Y-71351995D01*
X128244140Y-71212646D01*
X128362646Y-71094140D01*
X128501995Y-71001031D01*
X128656831Y-70936895D01*
X128821203Y-70904200D01*
X128988797Y-70904200D01*
X129153169Y-70936895D01*
G37*
G36*
X126613169Y-70936895D02*
G01*
X126768005Y-71001031D01*
X126907354Y-71094140D01*
X127025860Y-71212646D01*
X127118969Y-71351995D01*
X127183105Y-71506831D01*
X127215800Y-71671203D01*
X127215800Y-71838797D01*
X127183105Y-72003169D01*
X127118969Y-72158005D01*
X127025860Y-72297354D01*
X126907354Y-72415860D01*
X126768005Y-72508969D01*
X126613169Y-72573105D01*
X126448797Y-72605800D01*
X126281203Y-72605800D01*
X126116831Y-72573105D01*
X125961995Y-72508969D01*
X125822646Y-72415860D01*
X125704140Y-72297354D01*
X125611031Y-72158005D01*
X125546895Y-72003169D01*
X125514200Y-71838797D01*
X125514200Y-71671203D01*
X125546895Y-71506831D01*
X125611031Y-71351995D01*
X125704140Y-71212646D01*
X125822646Y-71094140D01*
X125961995Y-71001031D01*
X126116831Y-70936895D01*
X126281203Y-70904200D01*
X126448797Y-70904200D01*
X126613169Y-70936895D01*
G37*
G36*
X124073169Y-70936895D02*
G01*
X124228005Y-71001031D01*
X124367354Y-71094140D01*
X124485860Y-71212646D01*
X124578969Y-71351995D01*
X124643105Y-71506831D01*
X124675800Y-71671203D01*
X124675800Y-71838797D01*
X124643105Y-72003169D01*
X124578969Y-72158005D01*
X124485860Y-72297354D01*
X124367354Y-72415860D01*
X124228005Y-72508969D01*
X124073169Y-72573105D01*
X123908797Y-72605800D01*
X123741203Y-72605800D01*
X123576831Y-72573105D01*
X123421995Y-72508969D01*
X123282646Y-72415860D01*
X123164140Y-72297354D01*
X123071031Y-72158005D01*
X123006895Y-72003169D01*
X122974200Y-71838797D01*
X122974200Y-71671203D01*
X123006895Y-71506831D01*
X123071031Y-71351995D01*
X123164140Y-71212646D01*
X123282646Y-71094140D01*
X123421995Y-71001031D01*
X123576831Y-70936895D01*
X123741203Y-70904200D01*
X123908797Y-70904200D01*
X124073169Y-70936895D01*
G37*
G36*
X108187086Y-70973435D02*
G01*
X108335003Y-71034704D01*
X108468134Y-71123660D01*
X108581340Y-71236866D01*
X108670296Y-71369997D01*
X108731565Y-71517914D01*
X108762800Y-71674946D01*
X108762800Y-71835054D01*
X108731565Y-71992086D01*
X108670296Y-72140003D01*
X108581340Y-72273134D01*
X108468134Y-72386340D01*
X108335003Y-72475296D01*
X108187086Y-72536565D01*
X108030054Y-72567800D01*
X107869946Y-72567800D01*
X107712914Y-72536565D01*
X107564997Y-72475296D01*
X107431866Y-72386340D01*
X107318660Y-72273134D01*
X107229704Y-72140003D01*
X107168435Y-71992086D01*
X107137200Y-71835054D01*
X107137200Y-71674946D01*
X107168435Y-71517914D01*
X107229704Y-71369997D01*
X107318660Y-71236866D01*
X107431866Y-71123660D01*
X107564997Y-71034704D01*
X107712914Y-70973435D01*
X107869946Y-70942200D01*
X108030054Y-70942200D01*
X108187086Y-70973435D01*
G37*
G36*
X141674961Y-70061552D02*
G01*
X141746609Y-70091229D01*
X141811093Y-70134316D01*
X141865928Y-70189151D01*
X141909015Y-70253635D01*
X141938692Y-70325283D01*
X141953822Y-70401346D01*
X141953822Y-70478898D01*
X141938692Y-70554961D01*
X141909015Y-70626609D01*
X141865928Y-70691093D01*
X141811093Y-70745928D01*
X141746609Y-70789015D01*
X141674961Y-70818692D01*
X141598898Y-70833822D01*
X141521346Y-70833822D01*
X141445283Y-70818692D01*
X141373635Y-70789015D01*
X141309151Y-70745928D01*
X141254316Y-70691093D01*
X141211229Y-70626609D01*
X141181552Y-70554961D01*
X141166422Y-70478898D01*
X141166422Y-70401346D01*
X141181552Y-70325283D01*
X141211229Y-70253635D01*
X141254316Y-70189151D01*
X141309151Y-70134316D01*
X141373635Y-70091229D01*
X141445283Y-70061552D01*
X141521346Y-70046422D01*
X141598898Y-70046422D01*
X141674961Y-70061552D01*
G37*
G36*
X115183169Y-69031895D02*
G01*
X115338005Y-69096031D01*
X115477354Y-69189140D01*
X115595860Y-69307646D01*
X115688969Y-69446995D01*
X115753105Y-69601831D01*
X115785800Y-69766203D01*
X115785800Y-69933797D01*
X115753105Y-70098169D01*
X115688969Y-70253005D01*
X115595860Y-70392354D01*
X115477354Y-70510860D01*
X115338005Y-70603969D01*
X115183169Y-70668105D01*
X115018797Y-70700800D01*
X114851203Y-70700800D01*
X114686831Y-70668105D01*
X114531995Y-70603969D01*
X114392646Y-70510860D01*
X114274140Y-70392354D01*
X114181031Y-70253005D01*
X114116895Y-70098169D01*
X114084200Y-69933797D01*
X114084200Y-69766203D01*
X114116895Y-69601831D01*
X114181031Y-69446995D01*
X114274140Y-69307646D01*
X114392646Y-69189140D01*
X114531995Y-69096031D01*
X114686831Y-69031895D01*
X114851203Y-68999200D01*
X115018797Y-68999200D01*
X115183169Y-69031895D01*
G37*
G36*
X142672339Y-67883930D02*
G01*
X142743987Y-67913607D01*
X142808471Y-67956694D01*
X142863306Y-68011529D01*
X142906393Y-68076013D01*
X142936070Y-68147661D01*
X142951200Y-68223724D01*
X142951200Y-68301276D01*
X142936070Y-68377339D01*
X142906393Y-68448987D01*
X142863306Y-68513471D01*
X142808471Y-68568306D01*
X142743987Y-68611393D01*
X142672339Y-68641070D01*
X142596276Y-68656200D01*
X142518724Y-68656200D01*
X142442661Y-68641070D01*
X142371013Y-68611393D01*
X142306529Y-68568306D01*
X142251694Y-68513471D01*
X142208607Y-68448987D01*
X142178930Y-68377339D01*
X142163800Y-68301276D01*
X142163800Y-68223724D01*
X142178930Y-68147661D01*
X142208607Y-68076013D01*
X142251694Y-68011529D01*
X142306529Y-67956694D01*
X142371013Y-67913607D01*
X142442661Y-67883930D01*
X142518724Y-67868800D01*
X142596276Y-67868800D01*
X142672339Y-67883930D01*
G37*
G36*
X117272339Y-67248930D02*
G01*
X117343987Y-67278607D01*
X117408471Y-67321694D01*
X117463306Y-67376529D01*
X117506393Y-67441013D01*
X117536070Y-67512661D01*
X117551200Y-67588724D01*
X117551200Y-67666276D01*
X117536070Y-67742339D01*
X117506393Y-67813987D01*
X117463306Y-67878471D01*
X117408471Y-67933306D01*
X117343987Y-67976393D01*
X117272339Y-68006070D01*
X117196276Y-68021200D01*
X117118724Y-68021200D01*
X117042661Y-68006070D01*
X116971013Y-67976393D01*
X116906529Y-67933306D01*
X116851694Y-67878471D01*
X116808607Y-67813987D01*
X116778930Y-67742339D01*
X116763800Y-67666276D01*
X116763800Y-67588724D01*
X116778930Y-67512661D01*
X116808607Y-67441013D01*
X116851694Y-67376529D01*
X116906529Y-67321694D01*
X116971013Y-67278607D01*
X117042661Y-67248930D01*
X117118724Y-67233800D01*
X117196276Y-67233800D01*
X117272339Y-67248930D01*
G37*
G36*
X115183169Y-65181895D02*
G01*
X115338005Y-65246031D01*
X115477354Y-65339140D01*
X115595860Y-65457646D01*
X115688969Y-65596995D01*
X115753105Y-65751831D01*
X115785800Y-65916203D01*
X115785800Y-66083797D01*
X115753105Y-66248169D01*
X115688969Y-66403005D01*
X115595860Y-66542354D01*
X115477354Y-66660860D01*
X115338005Y-66753969D01*
X115183169Y-66818105D01*
X115018797Y-66850800D01*
X114851203Y-66850800D01*
X114686831Y-66818105D01*
X114531995Y-66753969D01*
X114392646Y-66660860D01*
X114274140Y-66542354D01*
X114181031Y-66403005D01*
X114116895Y-66248169D01*
X114084200Y-66083797D01*
X114084200Y-65916203D01*
X114116895Y-65751831D01*
X114181031Y-65596995D01*
X114274140Y-65457646D01*
X114392646Y-65339140D01*
X114531995Y-65246031D01*
X114686831Y-65181895D01*
X114851203Y-65149200D01*
X115018797Y-65149200D01*
X115183169Y-65181895D01*
G37*
G36*
X124073169Y-63316895D02*
G01*
X124228005Y-63381031D01*
X124367354Y-63474140D01*
X124485860Y-63592646D01*
X124578969Y-63731995D01*
X124643105Y-63886831D01*
X124675800Y-64051203D01*
X124675800Y-64218797D01*
X124643105Y-64383169D01*
X124578969Y-64538005D01*
X124485860Y-64677354D01*
X124367354Y-64795860D01*
X124228005Y-64888969D01*
X124073169Y-64953105D01*
X123908797Y-64985800D01*
X123741203Y-64985800D01*
X123576831Y-64953105D01*
X123421995Y-64888969D01*
X123282646Y-64795860D01*
X123164140Y-64677354D01*
X123071031Y-64538005D01*
X123006895Y-64383169D01*
X122974200Y-64218797D01*
X122974200Y-64051203D01*
X123006895Y-63886831D01*
X123071031Y-63731995D01*
X123164140Y-63592646D01*
X123282646Y-63474140D01*
X123421995Y-63381031D01*
X123576831Y-63316895D01*
X123741203Y-63284200D01*
X123908797Y-63284200D01*
X124073169Y-63316895D01*
G37*
G36*
X136773169Y-63316895D02*
G01*
X136928005Y-63381031D01*
X137067354Y-63474140D01*
X137185860Y-63592646D01*
X137278969Y-63731995D01*
X137343105Y-63886831D01*
X137375800Y-64051203D01*
X137375800Y-64218797D01*
X137343105Y-64383169D01*
X137278969Y-64538005D01*
X137185860Y-64677354D01*
X137067354Y-64795860D01*
X136928005Y-64888969D01*
X136773169Y-64953105D01*
X136608797Y-64985800D01*
X136441203Y-64985800D01*
X136276831Y-64953105D01*
X136121995Y-64888969D01*
X135982646Y-64795860D01*
X135864140Y-64677354D01*
X135771031Y-64538005D01*
X135706895Y-64383169D01*
X135674200Y-64218797D01*
X135674200Y-64051203D01*
X135706895Y-63886831D01*
X135771031Y-63731995D01*
X135864140Y-63592646D01*
X135982646Y-63474140D01*
X136121995Y-63381031D01*
X136276831Y-63316895D01*
X136441203Y-63284200D01*
X136608797Y-63284200D01*
X136773169Y-63316895D01*
G37*
G36*
X126613169Y-63316895D02*
G01*
X126768005Y-63381031D01*
X126907354Y-63474140D01*
X127025860Y-63592646D01*
X127118969Y-63731995D01*
X127183105Y-63886831D01*
X127215800Y-64051203D01*
X127215800Y-64218797D01*
X127183105Y-64383169D01*
X127118969Y-64538005D01*
X127025860Y-64677354D01*
X126907354Y-64795860D01*
X126768005Y-64888969D01*
X126613169Y-64953105D01*
X126448797Y-64985800D01*
X126281203Y-64985800D01*
X126116831Y-64953105D01*
X125961995Y-64888969D01*
X125822646Y-64795860D01*
X125704140Y-64677354D01*
X125611031Y-64538005D01*
X125546895Y-64383169D01*
X125514200Y-64218797D01*
X125514200Y-64051203D01*
X125546895Y-63886831D01*
X125611031Y-63731995D01*
X125704140Y-63592646D01*
X125822646Y-63474140D01*
X125961995Y-63381031D01*
X126116831Y-63316895D01*
X126281203Y-63284200D01*
X126448797Y-63284200D01*
X126613169Y-63316895D01*
G37*
G36*
X129153169Y-63316895D02*
G01*
X129308005Y-63381031D01*
X129447354Y-63474140D01*
X129565860Y-63592646D01*
X129658969Y-63731995D01*
X129723105Y-63886831D01*
X129755800Y-64051203D01*
X129755800Y-64218797D01*
X129723105Y-64383169D01*
X129658969Y-64538005D01*
X129565860Y-64677354D01*
X129447354Y-64795860D01*
X129308005Y-64888969D01*
X129153169Y-64953105D01*
X128988797Y-64985800D01*
X128821203Y-64985800D01*
X128656831Y-64953105D01*
X128501995Y-64888969D01*
X128362646Y-64795860D01*
X128244140Y-64677354D01*
X128151031Y-64538005D01*
X128086895Y-64383169D01*
X128054200Y-64218797D01*
X128054200Y-64051203D01*
X128086895Y-63886831D01*
X128151031Y-63731995D01*
X128244140Y-63592646D01*
X128362646Y-63474140D01*
X128501995Y-63381031D01*
X128656831Y-63316895D01*
X128821203Y-63284200D01*
X128988797Y-63284200D01*
X129153169Y-63316895D01*
G37*
G36*
X134233169Y-63316895D02*
G01*
X134388005Y-63381031D01*
X134527354Y-63474140D01*
X134645860Y-63592646D01*
X134738969Y-63731995D01*
X134803105Y-63886831D01*
X134835800Y-64051203D01*
X134835800Y-64218797D01*
X134803105Y-64383169D01*
X134738969Y-64538005D01*
X134645860Y-64677354D01*
X134527354Y-64795860D01*
X134388005Y-64888969D01*
X134233169Y-64953105D01*
X134068797Y-64985800D01*
X133901203Y-64985800D01*
X133736831Y-64953105D01*
X133581995Y-64888969D01*
X133442646Y-64795860D01*
X133324140Y-64677354D01*
X133231031Y-64538005D01*
X133166895Y-64383169D01*
X133134200Y-64218797D01*
X133134200Y-64051203D01*
X133166895Y-63886831D01*
X133231031Y-63731995D01*
X133324140Y-63592646D01*
X133442646Y-63474140D01*
X133581995Y-63381031D01*
X133736831Y-63316895D01*
X133901203Y-63284200D01*
X134068797Y-63284200D01*
X134233169Y-63316895D01*
G37*
G36*
X131693169Y-63316895D02*
G01*
X131848005Y-63381031D01*
X131987354Y-63474140D01*
X132105860Y-63592646D01*
X132198969Y-63731995D01*
X132263105Y-63886831D01*
X132295800Y-64051203D01*
X132295800Y-64218797D01*
X132263105Y-64383169D01*
X132198969Y-64538005D01*
X132105860Y-64677354D01*
X131987354Y-64795860D01*
X131848005Y-64888969D01*
X131693169Y-64953105D01*
X131528797Y-64985800D01*
X131361203Y-64985800D01*
X131196831Y-64953105D01*
X131041995Y-64888969D01*
X130902646Y-64795860D01*
X130784140Y-64677354D01*
X130691031Y-64538005D01*
X130626895Y-64383169D01*
X130594200Y-64218797D01*
X130594200Y-64051203D01*
X130626895Y-63886831D01*
X130691031Y-63731995D01*
X130784140Y-63592646D01*
X130902646Y-63474140D01*
X131041995Y-63381031D01*
X131196831Y-63316895D01*
X131361203Y-63284200D01*
X131528797Y-63284200D01*
X131693169Y-63316895D01*
G37*
G36*
X121533169Y-63316895D02*
G01*
X121688005Y-63381031D01*
X121827354Y-63474140D01*
X121945860Y-63592646D01*
X122038969Y-63731995D01*
X122103105Y-63886831D01*
X122135800Y-64051203D01*
X122135800Y-64218797D01*
X122103105Y-64383169D01*
X122038969Y-64538005D01*
X121945860Y-64677354D01*
X121827354Y-64795860D01*
X121688005Y-64888969D01*
X121533169Y-64953105D01*
X121368797Y-64985800D01*
X121201203Y-64985800D01*
X121036831Y-64953105D01*
X120881995Y-64888969D01*
X120742646Y-64795860D01*
X120624140Y-64677354D01*
X120531031Y-64538005D01*
X120466895Y-64383169D01*
X120434200Y-64218797D01*
X120434200Y-64051203D01*
X120466895Y-63886831D01*
X120531031Y-63731995D01*
X120624140Y-63592646D01*
X120742646Y-63474140D01*
X120881995Y-63381031D01*
X121036831Y-63316895D01*
X121201203Y-63284200D01*
X121368797Y-63284200D01*
X121533169Y-63316895D01*
G37*
G36*
X109814568Y-63601161D02*
G01*
X109886216Y-63630838D01*
X109950700Y-63673925D01*
X110005535Y-63728760D01*
X110048622Y-63793244D01*
X110078299Y-63864892D01*
X110093429Y-63940955D01*
X110093429Y-64018507D01*
X110078299Y-64094570D01*
X110048622Y-64166218D01*
X110005535Y-64230702D01*
X109950700Y-64285537D01*
X109886216Y-64328624D01*
X109814568Y-64358301D01*
X109738505Y-64373431D01*
X109660953Y-64373431D01*
X109584890Y-64358301D01*
X109513242Y-64328624D01*
X109448758Y-64285537D01*
X109393923Y-64230702D01*
X109350836Y-64166218D01*
X109321159Y-64094570D01*
X109306029Y-64018507D01*
X109306029Y-63940955D01*
X109321159Y-63864892D01*
X109350836Y-63793244D01*
X109393923Y-63728760D01*
X109448758Y-63673925D01*
X109513242Y-63630838D01*
X109584890Y-63601161D01*
X109660953Y-63586031D01*
X109738505Y-63586031D01*
X109814568Y-63601161D01*
G37*
G36*
X115183169Y-62681895D02*
G01*
X115338005Y-62746031D01*
X115477354Y-62839140D01*
X115595860Y-62957646D01*
X115688969Y-63096995D01*
X115753105Y-63251831D01*
X115785800Y-63416203D01*
X115785800Y-63583797D01*
X115753105Y-63748169D01*
X115688969Y-63903005D01*
X115595860Y-64042354D01*
X115477354Y-64160860D01*
X115338005Y-64253969D01*
X115183169Y-64318105D01*
X115018797Y-64350800D01*
X114851203Y-64350800D01*
X114686831Y-64318105D01*
X114531995Y-64253969D01*
X114392646Y-64160860D01*
X114274140Y-64042354D01*
X114181031Y-63903005D01*
X114116895Y-63748169D01*
X114084200Y-63583797D01*
X114084200Y-63416203D01*
X114116895Y-63251831D01*
X114181031Y-63096995D01*
X114274140Y-62957646D01*
X114392646Y-62839140D01*
X114531995Y-62746031D01*
X114686831Y-62681895D01*
X114851203Y-62649200D01*
X115018797Y-62649200D01*
X115183169Y-62681895D01*
G37*
G36*
X140449839Y-62486430D02*
G01*
X140521487Y-62516107D01*
X140585971Y-62559194D01*
X140640806Y-62614029D01*
X140683893Y-62678513D01*
X140713570Y-62750161D01*
X140728700Y-62826224D01*
X140728700Y-62903776D01*
X140713570Y-62979839D01*
X140683893Y-63051487D01*
X140640806Y-63115971D01*
X140585971Y-63170806D01*
X140521487Y-63213893D01*
X140449839Y-63243570D01*
X140373776Y-63258700D01*
X140296224Y-63258700D01*
X140220161Y-63243570D01*
X140148513Y-63213893D01*
X140084029Y-63170806D01*
X140029194Y-63115971D01*
X139986107Y-63051487D01*
X139956430Y-62979839D01*
X139941300Y-62903776D01*
X139941300Y-62826224D01*
X139956430Y-62750161D01*
X139986107Y-62678513D01*
X140029194Y-62614029D01*
X140084029Y-62559194D01*
X140148513Y-62516107D01*
X140220161Y-62486430D01*
X140296224Y-62471300D01*
X140373776Y-62471300D01*
X140449839Y-62486430D01*
G37*
G36*
X142989839Y-62486430D02*
G01*
X143061487Y-62516107D01*
X143125971Y-62559194D01*
X143180806Y-62614029D01*
X143223893Y-62678513D01*
X143253570Y-62750161D01*
X143268700Y-62826224D01*
X143268700Y-62903776D01*
X143253570Y-62979839D01*
X143223893Y-63051487D01*
X143180806Y-63115971D01*
X143125971Y-63170806D01*
X143061487Y-63213893D01*
X142989839Y-63243570D01*
X142913776Y-63258700D01*
X142836224Y-63258700D01*
X142760161Y-63243570D01*
X142688513Y-63213893D01*
X142624029Y-63170806D01*
X142569194Y-63115971D01*
X142526107Y-63051487D01*
X142496430Y-62979839D01*
X142481300Y-62903776D01*
X142481300Y-62826224D01*
X142496430Y-62750161D01*
X142526107Y-62678513D01*
X142569194Y-62614029D01*
X142624029Y-62559194D01*
X142688513Y-62516107D01*
X142760161Y-62486430D01*
X142836224Y-62471300D01*
X142913776Y-62471300D01*
X142989839Y-62486430D01*
G37*
G36*
X141650524Y-62417115D02*
G01*
X141722172Y-62446792D01*
X141786656Y-62489879D01*
X141841491Y-62544714D01*
X141884578Y-62609198D01*
X141914255Y-62680846D01*
X141929385Y-62756909D01*
X141929385Y-62834461D01*
X141914255Y-62910524D01*
X141884578Y-62982172D01*
X141841491Y-63046656D01*
X141786656Y-63101491D01*
X141722172Y-63144578D01*
X141650524Y-63174255D01*
X141574461Y-63189385D01*
X141496909Y-63189385D01*
X141420846Y-63174255D01*
X141349198Y-63144578D01*
X141284714Y-63101491D01*
X141229879Y-63046656D01*
X141186792Y-62982172D01*
X141157115Y-62910524D01*
X141141985Y-62834461D01*
X141141985Y-62756909D01*
X141157115Y-62680846D01*
X141186792Y-62609198D01*
X141229879Y-62544714D01*
X141284714Y-62489879D01*
X141349198Y-62446792D01*
X141420846Y-62417115D01*
X141496909Y-62401985D01*
X141574461Y-62401985D01*
X141650524Y-62417115D01*
G37*
G36*
X131434839Y-61341430D02*
G01*
X131506487Y-61371107D01*
X131570971Y-61414194D01*
X131625806Y-61469029D01*
X131668893Y-61533513D01*
X131698570Y-61605161D01*
X131713700Y-61681224D01*
X131713700Y-61758776D01*
X131698570Y-61834839D01*
X131668893Y-61906487D01*
X131625806Y-61970971D01*
X131570971Y-62025806D01*
X131506487Y-62068893D01*
X131434839Y-62098570D01*
X131358776Y-62113700D01*
X131281224Y-62113700D01*
X131205161Y-62098570D01*
X131133513Y-62068893D01*
X131069029Y-62025806D01*
X131014194Y-61970971D01*
X130971107Y-61906487D01*
X130941430Y-61834839D01*
X130926300Y-61758776D01*
X130926300Y-61681224D01*
X130941430Y-61605161D01*
X130971107Y-61533513D01*
X131014194Y-61469029D01*
X131069029Y-61414194D01*
X131133513Y-61371107D01*
X131205161Y-61341430D01*
X131281224Y-61326300D01*
X131358776Y-61326300D01*
X131434839Y-61341430D01*
G37*
G36*
X119378169Y-58871895D02*
G01*
X119533005Y-58936031D01*
X119672354Y-59029140D01*
X119790860Y-59147646D01*
X119883969Y-59286995D01*
X119948105Y-59441831D01*
X119980800Y-59606203D01*
X119980800Y-59773797D01*
X119948105Y-59938169D01*
X119883969Y-60093005D01*
X119790860Y-60232354D01*
X119672354Y-60350860D01*
X119533005Y-60443969D01*
X119378169Y-60508105D01*
X119213797Y-60540800D01*
X119046203Y-60540800D01*
X118881831Y-60508105D01*
X118726995Y-60443969D01*
X118587646Y-60350860D01*
X118469140Y-60232354D01*
X118376031Y-60093005D01*
X118311895Y-59938169D01*
X118279200Y-59773797D01*
X118279200Y-59606203D01*
X118311895Y-59441831D01*
X118376031Y-59286995D01*
X118469140Y-59147646D01*
X118587646Y-59029140D01*
X118726995Y-58936031D01*
X118881831Y-58871895D01*
X119046203Y-58839200D01*
X119213797Y-58839200D01*
X119378169Y-58871895D01*
G37*
G36*
X121918169Y-58871895D02*
G01*
X122073005Y-58936031D01*
X122212354Y-59029140D01*
X122330860Y-59147646D01*
X122423969Y-59286995D01*
X122488105Y-59441831D01*
X122520800Y-59606203D01*
X122520800Y-59773797D01*
X122488105Y-59938169D01*
X122423969Y-60093005D01*
X122330860Y-60232354D01*
X122212354Y-60350860D01*
X122073005Y-60443969D01*
X121918169Y-60508105D01*
X121753797Y-60540800D01*
X121586203Y-60540800D01*
X121421831Y-60508105D01*
X121266995Y-60443969D01*
X121127646Y-60350860D01*
X121009140Y-60232354D01*
X120916031Y-60093005D01*
X120851895Y-59938169D01*
X120819200Y-59773797D01*
X120819200Y-59606203D01*
X120851895Y-59441831D01*
X120916031Y-59286995D01*
X121009140Y-59147646D01*
X121127646Y-59029140D01*
X121266995Y-58936031D01*
X121421831Y-58871895D01*
X121586203Y-58839200D01*
X121753797Y-58839200D01*
X121918169Y-58871895D01*
G37*
G36*
X124458169Y-58871895D02*
G01*
X124613005Y-58936031D01*
X124752354Y-59029140D01*
X124870860Y-59147646D01*
X124963969Y-59286995D01*
X125028105Y-59441831D01*
X125060800Y-59606203D01*
X125060800Y-59773797D01*
X125028105Y-59938169D01*
X124963969Y-60093005D01*
X124870860Y-60232354D01*
X124752354Y-60350860D01*
X124613005Y-60443969D01*
X124458169Y-60508105D01*
X124293797Y-60540800D01*
X124126203Y-60540800D01*
X123961831Y-60508105D01*
X123806995Y-60443969D01*
X123667646Y-60350860D01*
X123549140Y-60232354D01*
X123456031Y-60093005D01*
X123391895Y-59938169D01*
X123359200Y-59773797D01*
X123359200Y-59606203D01*
X123391895Y-59441831D01*
X123456031Y-59286995D01*
X123549140Y-59147646D01*
X123667646Y-59029140D01*
X123806995Y-58936031D01*
X123961831Y-58871895D01*
X124126203Y-58839200D01*
X124293797Y-58839200D01*
X124458169Y-58871895D01*
G37*
G36*
X126998169Y-58871895D02*
G01*
X127153005Y-58936031D01*
X127292354Y-59029140D01*
X127410860Y-59147646D01*
X127503969Y-59286995D01*
X127568105Y-59441831D01*
X127600800Y-59606203D01*
X127600800Y-59773797D01*
X127568105Y-59938169D01*
X127503969Y-60093005D01*
X127410860Y-60232354D01*
X127292354Y-60350860D01*
X127153005Y-60443969D01*
X126998169Y-60508105D01*
X126833797Y-60540800D01*
X126666203Y-60540800D01*
X126501831Y-60508105D01*
X126346995Y-60443969D01*
X126207646Y-60350860D01*
X126089140Y-60232354D01*
X125996031Y-60093005D01*
X125931895Y-59938169D01*
X125899200Y-59773797D01*
X125899200Y-59606203D01*
X125931895Y-59441831D01*
X125996031Y-59286995D01*
X126089140Y-59147646D01*
X126207646Y-59029140D01*
X126346995Y-58936031D01*
X126501831Y-58871895D01*
X126666203Y-58839200D01*
X126833797Y-58839200D01*
X126998169Y-58871895D01*
G37*
G36*
X129538169Y-58871895D02*
G01*
X129693005Y-58936031D01*
X129832354Y-59029140D01*
X129950860Y-59147646D01*
X130043969Y-59286995D01*
X130108105Y-59441831D01*
X130140800Y-59606203D01*
X130140800Y-59773797D01*
X130108105Y-59938169D01*
X130043969Y-60093005D01*
X129950860Y-60232354D01*
X129832354Y-60350860D01*
X129693005Y-60443969D01*
X129538169Y-60508105D01*
X129373797Y-60540800D01*
X129206203Y-60540800D01*
X129041831Y-60508105D01*
X128886995Y-60443969D01*
X128747646Y-60350860D01*
X128629140Y-60232354D01*
X128536031Y-60093005D01*
X128471895Y-59938169D01*
X128439200Y-59773797D01*
X128439200Y-59606203D01*
X128471895Y-59441831D01*
X128536031Y-59286995D01*
X128629140Y-59147646D01*
X128747646Y-59029140D01*
X128886995Y-58936031D01*
X129041831Y-58871895D01*
X129206203Y-58839200D01*
X129373797Y-58839200D01*
X129538169Y-58871895D01*
G37*
G36*
X132078169Y-58871895D02*
G01*
X132233005Y-58936031D01*
X132372354Y-59029140D01*
X132490860Y-59147646D01*
X132583969Y-59286995D01*
X132648105Y-59441831D01*
X132680800Y-59606203D01*
X132680800Y-59773797D01*
X132648105Y-59938169D01*
X132583969Y-60093005D01*
X132490860Y-60232354D01*
X132372354Y-60350860D01*
X132233005Y-60443969D01*
X132078169Y-60508105D01*
X131913797Y-60540800D01*
X131746203Y-60540800D01*
X131581831Y-60508105D01*
X131426995Y-60443969D01*
X131287646Y-60350860D01*
X131169140Y-60232354D01*
X131076031Y-60093005D01*
X131011895Y-59938169D01*
X130979200Y-59773797D01*
X130979200Y-59606203D01*
X131011895Y-59441831D01*
X131076031Y-59286995D01*
X131169140Y-59147646D01*
X131287646Y-59029140D01*
X131426995Y-58936031D01*
X131581831Y-58871895D01*
X131746203Y-58839200D01*
X131913797Y-58839200D01*
X132078169Y-58871895D01*
G37*
G36*
X134618169Y-58871895D02*
G01*
X134773005Y-58936031D01*
X134912354Y-59029140D01*
X135030860Y-59147646D01*
X135123969Y-59286995D01*
X135188105Y-59441831D01*
X135220800Y-59606203D01*
X135220800Y-59773797D01*
X135188105Y-59938169D01*
X135123969Y-60093005D01*
X135030860Y-60232354D01*
X134912354Y-60350860D01*
X134773005Y-60443969D01*
X134618169Y-60508105D01*
X134453797Y-60540800D01*
X134286203Y-60540800D01*
X134121831Y-60508105D01*
X133966995Y-60443969D01*
X133827646Y-60350860D01*
X133709140Y-60232354D01*
X133616031Y-60093005D01*
X133551895Y-59938169D01*
X133519200Y-59773797D01*
X133519200Y-59606203D01*
X133551895Y-59441831D01*
X133616031Y-59286995D01*
X133709140Y-59147646D01*
X133827646Y-59029140D01*
X133966995Y-58936031D01*
X134121831Y-58871895D01*
X134286203Y-58839200D01*
X134453797Y-58839200D01*
X134618169Y-58871895D01*
G37*
G36*
X137158169Y-58871895D02*
G01*
X137313005Y-58936031D01*
X137452354Y-59029140D01*
X137570860Y-59147646D01*
X137663969Y-59286995D01*
X137728105Y-59441831D01*
X137760800Y-59606203D01*
X137760800Y-59773797D01*
X137728105Y-59938169D01*
X137663969Y-60093005D01*
X137570860Y-60232354D01*
X137452354Y-60350860D01*
X137313005Y-60443969D01*
X137158169Y-60508105D01*
X136993797Y-60540800D01*
X136826203Y-60540800D01*
X136661831Y-60508105D01*
X136506995Y-60443969D01*
X136367646Y-60350860D01*
X136249140Y-60232354D01*
X136156031Y-60093005D01*
X136091895Y-59938169D01*
X136059200Y-59773797D01*
X136059200Y-59606203D01*
X136091895Y-59441831D01*
X136156031Y-59286995D01*
X136249140Y-59147646D01*
X136367646Y-59029140D01*
X136506995Y-58936031D01*
X136661831Y-58871895D01*
X136826203Y-58839200D01*
X136993797Y-58839200D01*
X137158169Y-58871895D01*
G37*
G36*
X141218169Y-58871895D02*
G01*
X141373005Y-58936031D01*
X141512354Y-59029140D01*
X141630860Y-59147646D01*
X141723969Y-59286995D01*
X141788105Y-59441831D01*
X141820800Y-59606203D01*
X141820800Y-59773797D01*
X141788105Y-59938169D01*
X141723969Y-60093005D01*
X141630860Y-60232354D01*
X141512354Y-60350860D01*
X141373005Y-60443969D01*
X141218169Y-60508105D01*
X141053797Y-60540800D01*
X140886203Y-60540800D01*
X140721831Y-60508105D01*
X140566995Y-60443969D01*
X140427646Y-60350860D01*
X140309140Y-60232354D01*
X140216031Y-60093005D01*
X140151895Y-59938169D01*
X140119200Y-59773797D01*
X140119200Y-59606203D01*
X140151895Y-59441831D01*
X140216031Y-59286995D01*
X140309140Y-59147646D01*
X140427646Y-59029140D01*
X140566995Y-58936031D01*
X140721831Y-58871895D01*
X140886203Y-58839200D01*
X141053797Y-58839200D01*
X141218169Y-58871895D01*
G37*
G36*
X114298169Y-58871895D02*
G01*
X114453005Y-58936031D01*
X114592354Y-59029140D01*
X114710860Y-59147646D01*
X114803969Y-59286995D01*
X114868105Y-59441831D01*
X114900800Y-59606203D01*
X114900800Y-59773797D01*
X114868105Y-59938169D01*
X114803969Y-60093005D01*
X114710860Y-60232354D01*
X114592354Y-60350860D01*
X114453005Y-60443969D01*
X114298169Y-60508105D01*
X114133797Y-60540800D01*
X113966203Y-60540800D01*
X113801831Y-60508105D01*
X113646995Y-60443969D01*
X113507646Y-60350860D01*
X113389140Y-60232354D01*
X113296031Y-60093005D01*
X113231895Y-59938169D01*
X113199200Y-59773797D01*
X113199200Y-59606203D01*
X113231895Y-59441831D01*
X113296031Y-59286995D01*
X113389140Y-59147646D01*
X113507646Y-59029140D01*
X113646995Y-58936031D01*
X113801831Y-58871895D01*
X113966203Y-58839200D01*
X114133797Y-58839200D01*
X114298169Y-58871895D01*
G37*
G36*
X116838169Y-58871895D02*
G01*
X116993005Y-58936031D01*
X117132354Y-59029140D01*
X117250860Y-59147646D01*
X117343969Y-59286995D01*
X117408105Y-59441831D01*
X117440800Y-59606203D01*
X117440800Y-59773797D01*
X117408105Y-59938169D01*
X117343969Y-60093005D01*
X117250860Y-60232354D01*
X117132354Y-60350860D01*
X116993005Y-60443969D01*
X116838169Y-60508105D01*
X116673797Y-60540800D01*
X116506203Y-60540800D01*
X116341831Y-60508105D01*
X116186995Y-60443969D01*
X116047646Y-60350860D01*
X115929140Y-60232354D01*
X115836031Y-60093005D01*
X115771895Y-59938169D01*
X115739200Y-59773797D01*
X115739200Y-59606203D01*
X115771895Y-59441831D01*
X115836031Y-59286995D01*
X115929140Y-59147646D01*
X116047646Y-59029140D01*
X116186995Y-58936031D01*
X116341831Y-58871895D01*
X116506203Y-58839200D01*
X116673797Y-58839200D01*
X116838169Y-58871895D01*
G37*
G36*
X158998169Y-58871895D02*
G01*
X159153005Y-58936031D01*
X159292354Y-59029140D01*
X159410860Y-59147646D01*
X159503969Y-59286995D01*
X159568105Y-59441831D01*
X159600800Y-59606203D01*
X159600800Y-59773797D01*
X159568105Y-59938169D01*
X159503969Y-60093005D01*
X159410860Y-60232354D01*
X159292354Y-60350860D01*
X159153005Y-60443969D01*
X158998169Y-60508105D01*
X158833797Y-60540800D01*
X158666203Y-60540800D01*
X158501831Y-60508105D01*
X158346995Y-60443969D01*
X158207646Y-60350860D01*
X158089140Y-60232354D01*
X157996031Y-60093005D01*
X157931895Y-59938169D01*
X157899200Y-59773797D01*
X157899200Y-59606203D01*
X157931895Y-59441831D01*
X157996031Y-59286995D01*
X158089140Y-59147646D01*
X158207646Y-59029140D01*
X158346995Y-58936031D01*
X158501831Y-58871895D01*
X158666203Y-58839200D01*
X158833797Y-58839200D01*
X158998169Y-58871895D01*
G37*
G36*
X156458169Y-58871895D02*
G01*
X156613005Y-58936031D01*
X156752354Y-59029140D01*
X156870860Y-59147646D01*
X156963969Y-59286995D01*
X157028105Y-59441831D01*
X157060800Y-59606203D01*
X157060800Y-59773797D01*
X157028105Y-59938169D01*
X156963969Y-60093005D01*
X156870860Y-60232354D01*
X156752354Y-60350860D01*
X156613005Y-60443969D01*
X156458169Y-60508105D01*
X156293797Y-60540800D01*
X156126203Y-60540800D01*
X155961831Y-60508105D01*
X155806995Y-60443969D01*
X155667646Y-60350860D01*
X155549140Y-60232354D01*
X155456031Y-60093005D01*
X155391895Y-59938169D01*
X155359200Y-59773797D01*
X155359200Y-59606203D01*
X155391895Y-59441831D01*
X155456031Y-59286995D01*
X155549140Y-59147646D01*
X155667646Y-59029140D01*
X155806995Y-58936031D01*
X155961831Y-58871895D01*
X156126203Y-58839200D01*
X156293797Y-58839200D01*
X156458169Y-58871895D01*
G37*
G36*
X143758169Y-58871895D02*
G01*
X143913005Y-58936031D01*
X144052354Y-59029140D01*
X144170860Y-59147646D01*
X144263969Y-59286995D01*
X144328105Y-59441831D01*
X144360800Y-59606203D01*
X144360800Y-59773797D01*
X144328105Y-59938169D01*
X144263969Y-60093005D01*
X144170860Y-60232354D01*
X144052354Y-60350860D01*
X143913005Y-60443969D01*
X143758169Y-60508105D01*
X143593797Y-60540800D01*
X143426203Y-60540800D01*
X143261831Y-60508105D01*
X143106995Y-60443969D01*
X142967646Y-60350860D01*
X142849140Y-60232354D01*
X142756031Y-60093005D01*
X142691895Y-59938169D01*
X142659200Y-59773797D01*
X142659200Y-59606203D01*
X142691895Y-59441831D01*
X142756031Y-59286995D01*
X142849140Y-59147646D01*
X142967646Y-59029140D01*
X143106995Y-58936031D01*
X143261831Y-58871895D01*
X143426203Y-58839200D01*
X143593797Y-58839200D01*
X143758169Y-58871895D01*
G37*
G36*
X148838169Y-58871895D02*
G01*
X148993005Y-58936031D01*
X149132354Y-59029140D01*
X149250860Y-59147646D01*
X149343969Y-59286995D01*
X149408105Y-59441831D01*
X149440800Y-59606203D01*
X149440800Y-59773797D01*
X149408105Y-59938169D01*
X149343969Y-60093005D01*
X149250860Y-60232354D01*
X149132354Y-60350860D01*
X148993005Y-60443969D01*
X148838169Y-60508105D01*
X148673797Y-60540800D01*
X148506203Y-60540800D01*
X148341831Y-60508105D01*
X148186995Y-60443969D01*
X148047646Y-60350860D01*
X147929140Y-60232354D01*
X147836031Y-60093005D01*
X147771895Y-59938169D01*
X147739200Y-59773797D01*
X147739200Y-59606203D01*
X147771895Y-59441831D01*
X147836031Y-59286995D01*
X147929140Y-59147646D01*
X148047646Y-59029140D01*
X148186995Y-58936031D01*
X148341831Y-58871895D01*
X148506203Y-58839200D01*
X148673797Y-58839200D01*
X148838169Y-58871895D01*
G37*
G36*
X151378169Y-58871895D02*
G01*
X151533005Y-58936031D01*
X151672354Y-59029140D01*
X151790860Y-59147646D01*
X151883969Y-59286995D01*
X151948105Y-59441831D01*
X151980800Y-59606203D01*
X151980800Y-59773797D01*
X151948105Y-59938169D01*
X151883969Y-60093005D01*
X151790860Y-60232354D01*
X151672354Y-60350860D01*
X151533005Y-60443969D01*
X151378169Y-60508105D01*
X151213797Y-60540800D01*
X151046203Y-60540800D01*
X150881831Y-60508105D01*
X150726995Y-60443969D01*
X150587646Y-60350860D01*
X150469140Y-60232354D01*
X150376031Y-60093005D01*
X150311895Y-59938169D01*
X150279200Y-59773797D01*
X150279200Y-59606203D01*
X150311895Y-59441831D01*
X150376031Y-59286995D01*
X150469140Y-59147646D01*
X150587646Y-59029140D01*
X150726995Y-58936031D01*
X150881831Y-58871895D01*
X151046203Y-58839200D01*
X151213797Y-58839200D01*
X151378169Y-58871895D01*
G37*
G36*
X153918169Y-58871895D02*
G01*
X154073005Y-58936031D01*
X154212354Y-59029140D01*
X154330860Y-59147646D01*
X154423969Y-59286995D01*
X154488105Y-59441831D01*
X154520800Y-59606203D01*
X154520800Y-59773797D01*
X154488105Y-59938169D01*
X154423969Y-60093005D01*
X154330860Y-60232354D01*
X154212354Y-60350860D01*
X154073005Y-60443969D01*
X153918169Y-60508105D01*
X153753797Y-60540800D01*
X153586203Y-60540800D01*
X153421831Y-60508105D01*
X153266995Y-60443969D01*
X153127646Y-60350860D01*
X153009140Y-60232354D01*
X152916031Y-60093005D01*
X152851895Y-59938169D01*
X152819200Y-59773797D01*
X152819200Y-59606203D01*
X152851895Y-59441831D01*
X152916031Y-59286995D01*
X153009140Y-59147646D01*
X153127646Y-59029140D01*
X153266995Y-58936031D01*
X153421831Y-58871895D01*
X153586203Y-58839200D01*
X153753797Y-58839200D01*
X153918169Y-58871895D01*
G37*
G36*
X146298169Y-58871895D02*
G01*
X146453005Y-58936031D01*
X146592354Y-59029140D01*
X146710860Y-59147646D01*
X146803969Y-59286995D01*
X146868105Y-59441831D01*
X146900800Y-59606203D01*
X146900800Y-59773797D01*
X146868105Y-59938169D01*
X146803969Y-60093005D01*
X146710860Y-60232354D01*
X146592354Y-60350860D01*
X146453005Y-60443969D01*
X146298169Y-60508105D01*
X146133797Y-60540800D01*
X145966203Y-60540800D01*
X145801831Y-60508105D01*
X145646995Y-60443969D01*
X145507646Y-60350860D01*
X145389140Y-60232354D01*
X145296031Y-60093005D01*
X145231895Y-59938169D01*
X145199200Y-59773797D01*
X145199200Y-59606203D01*
X145231895Y-59441831D01*
X145296031Y-59286995D01*
X145389140Y-59147646D01*
X145507646Y-59029140D01*
X145646995Y-58936031D01*
X145801831Y-58871895D01*
X145966203Y-58839200D01*
X146133797Y-58839200D01*
X146298169Y-58871895D01*
G37*
M02*
