G04 #@! TF.GenerationSoftware,KiCad,Pcbnew,(5.1.5)-3*
G04 #@! TF.CreationDate,2020-02-23T22:46:14-05:00*
G04 #@! TF.ProjectId,StupidDogFocuserPCB,53747570-6964-4446-9f67-466f63757365,1*
G04 #@! TF.SameCoordinates,Original*
G04 #@! TF.FileFunction,Copper,L2,Bot*
G04 #@! TF.FilePolarity,Positive*
%FSLAX46Y46*%
G04 Gerber Fmt 4.6, Leading zero omitted, Abs format (unit mm)*
G04 Created by KiCad (PCBNEW (5.1.5)-3) date 2020-02-23 22:46:14*
%MOMM*%
%LPD*%
G04 APERTURE LIST*
%ADD10C,1.600000*%
%ADD11R,1.600000X1.600000*%
%ADD12O,1.600000X1.600000*%
%ADD13C,1.500000*%
%ADD14R,1.500000X1.500000*%
%ADD15R,2.000000X2.000000*%
%ADD16C,2.000000*%
%ADD17R,3.200000X2.000000*%
%ADD18O,1.400000X1.400000*%
%ADD19C,1.400000*%
%ADD20O,1.700000X1.700000*%
%ADD21R,1.700000X1.700000*%
%ADD22C,0.381000*%
%ADD23C,0.254000*%
G04 APERTURE END LIST*
D10*
X154305000Y-67310000D03*
X154305000Y-69850000D03*
X154305000Y-72390000D03*
X154305000Y-74930000D03*
X154305000Y-77470000D03*
X154305000Y-80010000D03*
X154305000Y-82550000D03*
X146685000Y-82550000D03*
X146685000Y-80010000D03*
X146685000Y-77470000D03*
X146685000Y-74930000D03*
X146685000Y-72390000D03*
X146685000Y-69850000D03*
D11*
X146685000Y-67310000D03*
D12*
X156210000Y-59690000D03*
X158750000Y-59690000D03*
X119130000Y-59690000D03*
X158750000Y-107950000D03*
X121670000Y-59690000D03*
X156210000Y-107950000D03*
X124210000Y-59690000D03*
X153670000Y-107950000D03*
X126750000Y-59690000D03*
X151130000Y-107950000D03*
X129290000Y-59690000D03*
X148590000Y-107950000D03*
X131830000Y-59690000D03*
X146050000Y-107950000D03*
X134370000Y-59690000D03*
X140970000Y-107950000D03*
X136910000Y-59690000D03*
X138430000Y-107950000D03*
X140970000Y-59690000D03*
X135890000Y-107950000D03*
X143510000Y-59690000D03*
X133350000Y-107950000D03*
X146050000Y-59690000D03*
X130810000Y-107950000D03*
X148590000Y-59690000D03*
X128270000Y-107950000D03*
X151130000Y-59690000D03*
X125730000Y-107950000D03*
X153670000Y-59690000D03*
D11*
X123190000Y-107950000D03*
D12*
X116590000Y-59690000D03*
X114050000Y-59690000D03*
D13*
X100330000Y-91440000D03*
X100330000Y-88900000D03*
X100330000Y-86360000D03*
D14*
X100330000Y-83820000D03*
D15*
X123070000Y-76910000D03*
D16*
X123070000Y-74410000D03*
X123070000Y-71910000D03*
D17*
X115570000Y-80010000D03*
X115570000Y-68810000D03*
D16*
X108570000Y-76910000D03*
X108570000Y-71910000D03*
D18*
X127635000Y-74295000D03*
D19*
X132715000Y-74295000D03*
D18*
X132715000Y-71755000D03*
D19*
X127635000Y-71755000D03*
D18*
X127635000Y-66675000D03*
D19*
X132715000Y-66675000D03*
D18*
X127635000Y-76835000D03*
D19*
X132715000Y-76835000D03*
D18*
X132715000Y-69215000D03*
D19*
X127635000Y-69215000D03*
D18*
X132715000Y-79375000D03*
D19*
X127635000Y-79375000D03*
D20*
X115570000Y-93980000D03*
X115570000Y-96520000D03*
X115570000Y-99060000D03*
D21*
X115570000Y-101600000D03*
D10*
X158750000Y-69810000D03*
X158750000Y-67310000D03*
X140335000Y-73660000D03*
X137835000Y-73660000D03*
X137835000Y-68580000D03*
X140335000Y-68580000D03*
X137795000Y-78740000D03*
X140295000Y-78740000D03*
X144780000Y-104100000D03*
X144780000Y-101600000D03*
D12*
X122555000Y-90805000D03*
X140335000Y-103505000D03*
X125095000Y-90805000D03*
X137795000Y-103505000D03*
X127635000Y-90805000D03*
X135255000Y-103505000D03*
X130175000Y-90805000D03*
X132715000Y-103505000D03*
X132715000Y-90805000D03*
X130175000Y-103505000D03*
X135255000Y-90805000D03*
X127635000Y-103505000D03*
X137795000Y-90805000D03*
X125095000Y-103505000D03*
X140335000Y-90805000D03*
D11*
X122555000Y-103505000D03*
D22*
X121670000Y-64770000D02*
X126750000Y-59690000D01*
X119130000Y-64770000D02*
X118745000Y-64770000D01*
X118745000Y-64770000D02*
X121670000Y-64770000D01*
X99580001Y-85610001D02*
X100330000Y-86360000D01*
X99112639Y-85154201D02*
X99124201Y-85154201D01*
X98425000Y-81915000D02*
X98425000Y-84466562D01*
X99060000Y-81280000D02*
X98425000Y-81915000D01*
X111238335Y-64770000D02*
X106680000Y-69328335D01*
X118745000Y-64770000D02*
X111238335Y-64770000D01*
X98425000Y-84466562D02*
X99112639Y-85154201D01*
X106680000Y-69328335D02*
X106680000Y-79375000D01*
X104775000Y-81280000D02*
X99060000Y-81280000D01*
X99124201Y-85154201D02*
X99580001Y-85610001D01*
X106680000Y-79375000D02*
X104775000Y-81280000D01*
X140970000Y-104140000D02*
X140335000Y-103505000D01*
X140970000Y-107950000D02*
X140970000Y-104140000D01*
X144185000Y-103505000D02*
X144780000Y-104100000D01*
X140335000Y-103505000D02*
X144185000Y-103505000D01*
X142082221Y-60489999D02*
X141769999Y-60489999D01*
X148590000Y-67945000D02*
X148590000Y-66997778D01*
X141769999Y-60489999D02*
X140970000Y-59690000D01*
X148590000Y-66997778D02*
X142082221Y-60489999D01*
X146685000Y-69850000D02*
X148590000Y-67945000D01*
X149123411Y-72491589D02*
X149123411Y-65303411D01*
X146685000Y-74930000D02*
X149123411Y-72491589D01*
X144309999Y-60489999D02*
X143510000Y-59690000D01*
X149123411Y-65303411D02*
X144309999Y-60489999D01*
X146849999Y-60489999D02*
X146050000Y-59690000D01*
X149860000Y-63500000D02*
X146849999Y-60489999D01*
X146685000Y-80010000D02*
X149860000Y-76835000D01*
X149860000Y-76835000D02*
X149860000Y-63500000D01*
X141466370Y-90805000D02*
X140335000Y-90805000D01*
X158750000Y-107950000D02*
X141605000Y-90805000D01*
X141605000Y-90805000D02*
X141466370Y-90805000D01*
X122555000Y-90805000D02*
X128270000Y-85090000D01*
X151130000Y-60821370D02*
X151130000Y-59690000D01*
X145836494Y-85090000D02*
X151130000Y-79796494D01*
X151130000Y-79796494D02*
X151130000Y-60821370D01*
X128270000Y-85090000D02*
X145836494Y-85090000D01*
X125095000Y-90805000D02*
X129540000Y-86360000D01*
X152870001Y-60489999D02*
X153670000Y-59690000D01*
X152857299Y-60502701D02*
X152870001Y-60489999D01*
X145320851Y-86360000D02*
X152857299Y-78823552D01*
X152857299Y-78823552D02*
X152857299Y-60502701D01*
X129540000Y-86360000D02*
X145320851Y-86360000D01*
X125730000Y-93980000D02*
X135255000Y-103505000D01*
X115570000Y-93980000D02*
X125730000Y-93980000D01*
X125730000Y-96520000D02*
X132715000Y-103505000D01*
X115570000Y-96520000D02*
X125730000Y-96520000D01*
X125730000Y-99060000D02*
X130175000Y-103505000D01*
X115570000Y-99060000D02*
X125730000Y-99060000D01*
X125730000Y-101600000D02*
X127635000Y-103505000D01*
X115570000Y-101600000D02*
X125730000Y-101600000D01*
X132715000Y-76835000D02*
X132715000Y-79375000D01*
X145415000Y-78740000D02*
X146685000Y-77470000D01*
X140295000Y-78740000D02*
X145415000Y-78740000D01*
X139495001Y-79539999D02*
X140295000Y-78740000D01*
X139025000Y-80010000D02*
X139495001Y-79539999D01*
X134339949Y-80010000D02*
X139025000Y-80010000D01*
X132715000Y-79375000D02*
X133704949Y-79375000D01*
X133704949Y-79375000D02*
X134339949Y-80010000D01*
X132715000Y-66675000D02*
X132715000Y-69215000D01*
X140335000Y-68580000D02*
X145415000Y-68580000D01*
X145415000Y-68580000D02*
X146685000Y-67310000D01*
X138430000Y-70485000D02*
X139535001Y-69379999D01*
X139535001Y-69379999D02*
X140335000Y-68580000D01*
X134974949Y-70485000D02*
X138430000Y-70485000D01*
X132715000Y-69215000D02*
X133704949Y-69215000D01*
X133704949Y-69215000D02*
X134974949Y-70485000D01*
X132715000Y-71755000D02*
X132715000Y-74295000D01*
X145415000Y-73660000D02*
X146685000Y-72390000D01*
X140335000Y-73660000D02*
X145415000Y-73660000D01*
X138430000Y-75565000D02*
X139535001Y-74459999D01*
X132715000Y-74295000D02*
X133985000Y-75565000D01*
X139535001Y-74459999D02*
X140335000Y-73660000D01*
X133985000Y-75565000D02*
X138430000Y-75565000D01*
X127560000Y-76910000D02*
X127635000Y-76835000D01*
X123070000Y-76910000D02*
X127560000Y-76910000D01*
X108570000Y-71910000D02*
X116685000Y-71910000D01*
X121920000Y-66675000D02*
X127635000Y-66675000D01*
X116685000Y-71910000D02*
X121920000Y-66675000D01*
X127480000Y-71910000D02*
X127635000Y-71755000D01*
X123070000Y-71910000D02*
X127480000Y-71910000D01*
X137352806Y-92481312D02*
X134391312Y-92481312D01*
X134391312Y-92481312D02*
X133514999Y-91604999D01*
X133514999Y-91604999D02*
X132715000Y-90805000D01*
X151130000Y-107950000D02*
X151130000Y-106258506D01*
X151130000Y-106258506D02*
X137352806Y-92481312D01*
X136397901Y-91947901D02*
X136054999Y-91604999D01*
X136054999Y-91604999D02*
X135255000Y-90805000D01*
X137667901Y-91947901D02*
X136397901Y-91947901D01*
X153670000Y-107950000D02*
X137667901Y-91947901D01*
X138594999Y-91604999D02*
X137795000Y-90805000D01*
X153797099Y-106807099D02*
X138594999Y-91604999D01*
X156210000Y-107950000D02*
X155067099Y-106807099D01*
X155067099Y-106807099D02*
X153797099Y-106807099D01*
D23*
G36*
X160605000Y-58703737D02*
G01*
X160605001Y-69816351D01*
X160601687Y-69850000D01*
X160614912Y-69984283D01*
X160640823Y-70069698D01*
X160654082Y-70113406D01*
X160717689Y-70232407D01*
X160733738Y-70251962D01*
X160781840Y-70310576D01*
X160781847Y-70310583D01*
X160803290Y-70336711D01*
X160829418Y-70358154D01*
X163145000Y-72673736D01*
X163145001Y-105126263D01*
X160829418Y-107441846D01*
X160803289Y-107463290D01*
X160781846Y-107489418D01*
X160781840Y-107489424D01*
X160747525Y-107531238D01*
X160717688Y-107567594D01*
X160654081Y-107686595D01*
X160626794Y-107776548D01*
X160617052Y-107808665D01*
X160614912Y-107815718D01*
X160605000Y-107916354D01*
X160605000Y-107916361D01*
X160601687Y-107950000D01*
X160605000Y-107983640D01*
X160605001Y-109805000D01*
X108635000Y-109805000D01*
X108635000Y-107150000D01*
X121751928Y-107150000D01*
X121751928Y-108750000D01*
X121764188Y-108874482D01*
X121800498Y-108994180D01*
X121859463Y-109104494D01*
X121938815Y-109201185D01*
X122035506Y-109280537D01*
X122145820Y-109339502D01*
X122265518Y-109375812D01*
X122390000Y-109388072D01*
X123990000Y-109388072D01*
X124114482Y-109375812D01*
X124234180Y-109339502D01*
X124344494Y-109280537D01*
X124441185Y-109201185D01*
X124520537Y-109104494D01*
X124579502Y-108994180D01*
X124615812Y-108874482D01*
X124616643Y-108866039D01*
X124815241Y-109064637D01*
X125050273Y-109221680D01*
X125311426Y-109329853D01*
X125588665Y-109385000D01*
X125871335Y-109385000D01*
X126148574Y-109329853D01*
X126409727Y-109221680D01*
X126644759Y-109064637D01*
X126844637Y-108864759D01*
X127000000Y-108632241D01*
X127155363Y-108864759D01*
X127355241Y-109064637D01*
X127590273Y-109221680D01*
X127851426Y-109329853D01*
X128128665Y-109385000D01*
X128411335Y-109385000D01*
X128688574Y-109329853D01*
X128949727Y-109221680D01*
X129184759Y-109064637D01*
X129384637Y-108864759D01*
X129540000Y-108632241D01*
X129695363Y-108864759D01*
X129895241Y-109064637D01*
X130130273Y-109221680D01*
X130391426Y-109329853D01*
X130668665Y-109385000D01*
X130951335Y-109385000D01*
X131228574Y-109329853D01*
X131489727Y-109221680D01*
X131724759Y-109064637D01*
X131924637Y-108864759D01*
X132080000Y-108632241D01*
X132235363Y-108864759D01*
X132435241Y-109064637D01*
X132670273Y-109221680D01*
X132931426Y-109329853D01*
X133208665Y-109385000D01*
X133491335Y-109385000D01*
X133768574Y-109329853D01*
X134029727Y-109221680D01*
X134264759Y-109064637D01*
X134464637Y-108864759D01*
X134621680Y-108629727D01*
X134626067Y-108619135D01*
X134737615Y-108805131D01*
X134926586Y-109013519D01*
X135152580Y-109181037D01*
X135406913Y-109301246D01*
X135540961Y-109341904D01*
X135763000Y-109219915D01*
X135763000Y-108077000D01*
X136017000Y-108077000D01*
X136017000Y-109219915D01*
X136239039Y-109341904D01*
X136373087Y-109301246D01*
X136627420Y-109181037D01*
X136853414Y-109013519D01*
X137042385Y-108805131D01*
X137160000Y-108609018D01*
X137277615Y-108805131D01*
X137466586Y-109013519D01*
X137692580Y-109181037D01*
X137946913Y-109301246D01*
X138080961Y-109341904D01*
X138303000Y-109219915D01*
X138303000Y-108077000D01*
X136017000Y-108077000D01*
X135763000Y-108077000D01*
X135743000Y-108077000D01*
X135743000Y-107823000D01*
X135763000Y-107823000D01*
X135763000Y-106680085D01*
X136017000Y-106680085D01*
X136017000Y-107823000D01*
X138303000Y-107823000D01*
X138303000Y-106680085D01*
X138080961Y-106558096D01*
X137946913Y-106598754D01*
X137692580Y-106718963D01*
X137466586Y-106886481D01*
X137277615Y-107094869D01*
X137160000Y-107290982D01*
X137042385Y-107094869D01*
X136853414Y-106886481D01*
X136627420Y-106718963D01*
X136373087Y-106598754D01*
X136239039Y-106558096D01*
X136017000Y-106680085D01*
X135763000Y-106680085D01*
X135540961Y-106558096D01*
X135406913Y-106598754D01*
X135152580Y-106718963D01*
X134926586Y-106886481D01*
X134737615Y-107094869D01*
X134626067Y-107280865D01*
X134621680Y-107270273D01*
X134464637Y-107035241D01*
X134264759Y-106835363D01*
X134029727Y-106678320D01*
X133768574Y-106570147D01*
X133491335Y-106515000D01*
X133208665Y-106515000D01*
X132931426Y-106570147D01*
X132670273Y-106678320D01*
X132435241Y-106835363D01*
X132235363Y-107035241D01*
X132080000Y-107267759D01*
X131924637Y-107035241D01*
X131724759Y-106835363D01*
X131489727Y-106678320D01*
X131228574Y-106570147D01*
X130951335Y-106515000D01*
X130668665Y-106515000D01*
X130391426Y-106570147D01*
X130130273Y-106678320D01*
X129895241Y-106835363D01*
X129695363Y-107035241D01*
X129540000Y-107267759D01*
X129384637Y-107035241D01*
X129184759Y-106835363D01*
X128949727Y-106678320D01*
X128688574Y-106570147D01*
X128411335Y-106515000D01*
X128128665Y-106515000D01*
X127851426Y-106570147D01*
X127590273Y-106678320D01*
X127355241Y-106835363D01*
X127155363Y-107035241D01*
X127000000Y-107267759D01*
X126844637Y-107035241D01*
X126644759Y-106835363D01*
X126409727Y-106678320D01*
X126148574Y-106570147D01*
X125871335Y-106515000D01*
X125588665Y-106515000D01*
X125311426Y-106570147D01*
X125050273Y-106678320D01*
X124815241Y-106835363D01*
X124616643Y-107033961D01*
X124615812Y-107025518D01*
X124579502Y-106905820D01*
X124520537Y-106795506D01*
X124441185Y-106698815D01*
X124344494Y-106619463D01*
X124234180Y-106560498D01*
X124114482Y-106524188D01*
X123990000Y-106511928D01*
X122390000Y-106511928D01*
X122265518Y-106524188D01*
X122145820Y-106560498D01*
X122035506Y-106619463D01*
X121938815Y-106698815D01*
X121859463Y-106795506D01*
X121800498Y-106905820D01*
X121764188Y-107025518D01*
X121751928Y-107150000D01*
X108635000Y-107150000D01*
X108635000Y-104305000D01*
X121116928Y-104305000D01*
X121129188Y-104429482D01*
X121165498Y-104549180D01*
X121224463Y-104659494D01*
X121303815Y-104756185D01*
X121400506Y-104835537D01*
X121510820Y-104894502D01*
X121630518Y-104930812D01*
X121755000Y-104943072D01*
X122269250Y-104940000D01*
X122428000Y-104781250D01*
X122428000Y-103632000D01*
X121278750Y-103632000D01*
X121120000Y-103790750D01*
X121116928Y-104305000D01*
X108635000Y-104305000D01*
X108635000Y-100750000D01*
X114081928Y-100750000D01*
X114081928Y-102450000D01*
X114094188Y-102574482D01*
X114130498Y-102694180D01*
X114189463Y-102804494D01*
X114268815Y-102901185D01*
X114365506Y-102980537D01*
X114475820Y-103039502D01*
X114595518Y-103075812D01*
X114720000Y-103088072D01*
X116420000Y-103088072D01*
X116544482Y-103075812D01*
X116664180Y-103039502D01*
X116774494Y-102980537D01*
X116871185Y-102901185D01*
X116950537Y-102804494D01*
X117009502Y-102694180D01*
X117045812Y-102574482D01*
X117058072Y-102450000D01*
X117058072Y-102425500D01*
X121184377Y-102425500D01*
X121165498Y-102460820D01*
X121129188Y-102580518D01*
X121116928Y-102705000D01*
X121120000Y-103219250D01*
X121278750Y-103378000D01*
X122428000Y-103378000D01*
X122428000Y-103358000D01*
X122682000Y-103358000D01*
X122682000Y-103378000D01*
X122702000Y-103378000D01*
X122702000Y-103632000D01*
X122682000Y-103632000D01*
X122682000Y-104781250D01*
X122840750Y-104940000D01*
X123355000Y-104943072D01*
X123479482Y-104930812D01*
X123599180Y-104894502D01*
X123709494Y-104835537D01*
X123806185Y-104756185D01*
X123885537Y-104659494D01*
X123944502Y-104549180D01*
X123980812Y-104429482D01*
X123981643Y-104421039D01*
X124180241Y-104619637D01*
X124415273Y-104776680D01*
X124676426Y-104884853D01*
X124953665Y-104940000D01*
X125236335Y-104940000D01*
X125513574Y-104884853D01*
X125774727Y-104776680D01*
X126009759Y-104619637D01*
X126209637Y-104419759D01*
X126365000Y-104187241D01*
X126520363Y-104419759D01*
X126720241Y-104619637D01*
X126955273Y-104776680D01*
X127216426Y-104884853D01*
X127493665Y-104940000D01*
X127776335Y-104940000D01*
X128053574Y-104884853D01*
X128314727Y-104776680D01*
X128549759Y-104619637D01*
X128749637Y-104419759D01*
X128905000Y-104187241D01*
X129060363Y-104419759D01*
X129260241Y-104619637D01*
X129495273Y-104776680D01*
X129756426Y-104884853D01*
X130033665Y-104940000D01*
X130316335Y-104940000D01*
X130593574Y-104884853D01*
X130854727Y-104776680D01*
X131089759Y-104619637D01*
X131289637Y-104419759D01*
X131445000Y-104187241D01*
X131600363Y-104419759D01*
X131800241Y-104619637D01*
X132035273Y-104776680D01*
X132296426Y-104884853D01*
X132573665Y-104940000D01*
X132856335Y-104940000D01*
X133133574Y-104884853D01*
X133394727Y-104776680D01*
X133629759Y-104619637D01*
X133829637Y-104419759D01*
X133985000Y-104187241D01*
X134140363Y-104419759D01*
X134340241Y-104619637D01*
X134575273Y-104776680D01*
X134836426Y-104884853D01*
X135113665Y-104940000D01*
X135396335Y-104940000D01*
X135673574Y-104884853D01*
X135934727Y-104776680D01*
X136169759Y-104619637D01*
X136369637Y-104419759D01*
X136526680Y-104184727D01*
X136531067Y-104174135D01*
X136642615Y-104360131D01*
X136831586Y-104568519D01*
X137057580Y-104736037D01*
X137311913Y-104856246D01*
X137445961Y-104896904D01*
X137668000Y-104774915D01*
X137668000Y-103632000D01*
X137648000Y-103632000D01*
X137648000Y-103378000D01*
X137668000Y-103378000D01*
X137668000Y-102235085D01*
X137922000Y-102235085D01*
X137922000Y-103378000D01*
X137942000Y-103378000D01*
X137942000Y-103632000D01*
X137922000Y-103632000D01*
X137922000Y-104774915D01*
X138144039Y-104896904D01*
X138278087Y-104856246D01*
X138532420Y-104736037D01*
X138758414Y-104568519D01*
X138947385Y-104360131D01*
X139058933Y-104174135D01*
X139063320Y-104184727D01*
X139220363Y-104419759D01*
X139420241Y-104619637D01*
X139655273Y-104776680D01*
X139916426Y-104884853D01*
X140144501Y-104930220D01*
X140144500Y-106775722D01*
X140055241Y-106835363D01*
X139855363Y-107035241D01*
X139698320Y-107270273D01*
X139693933Y-107280865D01*
X139582385Y-107094869D01*
X139393414Y-106886481D01*
X139167420Y-106718963D01*
X138913087Y-106598754D01*
X138779039Y-106558096D01*
X138557000Y-106680085D01*
X138557000Y-107823000D01*
X138577000Y-107823000D01*
X138577000Y-108077000D01*
X138557000Y-108077000D01*
X138557000Y-109219915D01*
X138779039Y-109341904D01*
X138913087Y-109301246D01*
X139167420Y-109181037D01*
X139393414Y-109013519D01*
X139582385Y-108805131D01*
X139693933Y-108619135D01*
X139698320Y-108629727D01*
X139855363Y-108864759D01*
X140055241Y-109064637D01*
X140290273Y-109221680D01*
X140551426Y-109329853D01*
X140828665Y-109385000D01*
X141111335Y-109385000D01*
X141388574Y-109329853D01*
X141649727Y-109221680D01*
X141884759Y-109064637D01*
X142084637Y-108864759D01*
X142241680Y-108629727D01*
X142349853Y-108368574D01*
X142405000Y-108091335D01*
X142405000Y-107808665D01*
X142349853Y-107531426D01*
X142241680Y-107270273D01*
X142084637Y-107035241D01*
X141884759Y-106835363D01*
X141795500Y-106775722D01*
X141795500Y-104330500D01*
X143362736Y-104330500D01*
X143400147Y-104518574D01*
X143508320Y-104779727D01*
X143665363Y-105014759D01*
X143865241Y-105214637D01*
X144100273Y-105371680D01*
X144361426Y-105479853D01*
X144638665Y-105535000D01*
X144921335Y-105535000D01*
X145198574Y-105479853D01*
X145459727Y-105371680D01*
X145694759Y-105214637D01*
X145894637Y-105014759D01*
X146051680Y-104779727D01*
X146159853Y-104518574D01*
X146215000Y-104241335D01*
X146215000Y-103958665D01*
X146159853Y-103681426D01*
X146051680Y-103420273D01*
X145894637Y-103185241D01*
X145694759Y-102985363D01*
X145494131Y-102851308D01*
X145521514Y-102836671D01*
X145593097Y-102592702D01*
X144780000Y-101779605D01*
X143966903Y-102592702D01*
X143992370Y-102679500D01*
X141509278Y-102679500D01*
X141449637Y-102590241D01*
X141249759Y-102390363D01*
X141014727Y-102233320D01*
X140753574Y-102125147D01*
X140476335Y-102070000D01*
X140193665Y-102070000D01*
X139916426Y-102125147D01*
X139655273Y-102233320D01*
X139420241Y-102390363D01*
X139220363Y-102590241D01*
X139063320Y-102825273D01*
X139058933Y-102835865D01*
X138947385Y-102649869D01*
X138758414Y-102441481D01*
X138532420Y-102273963D01*
X138278087Y-102153754D01*
X138144039Y-102113096D01*
X137922000Y-102235085D01*
X137668000Y-102235085D01*
X137445961Y-102113096D01*
X137311913Y-102153754D01*
X137057580Y-102273963D01*
X136831586Y-102441481D01*
X136642615Y-102649869D01*
X136531067Y-102835865D01*
X136526680Y-102825273D01*
X136369637Y-102590241D01*
X136169759Y-102390363D01*
X135934727Y-102233320D01*
X135673574Y-102125147D01*
X135396335Y-102070000D01*
X135113665Y-102070000D01*
X135008376Y-102090943D01*
X134587945Y-101670512D01*
X143339783Y-101670512D01*
X143381213Y-101950130D01*
X143476397Y-102216292D01*
X143543329Y-102341514D01*
X143787298Y-102413097D01*
X144600395Y-101600000D01*
X143787298Y-100786903D01*
X143543329Y-100858486D01*
X143422429Y-101113996D01*
X143353700Y-101388184D01*
X143339783Y-101670512D01*
X134587945Y-101670512D01*
X126342398Y-93424966D01*
X126316541Y-93393459D01*
X126190842Y-93290301D01*
X126047434Y-93213647D01*
X125891826Y-93166444D01*
X125770553Y-93154500D01*
X125770550Y-93154500D01*
X125730000Y-93150506D01*
X125689450Y-93154500D01*
X116804413Y-93154500D01*
X116723475Y-93033368D01*
X116516632Y-92826525D01*
X116273411Y-92664010D01*
X116003158Y-92552068D01*
X115716260Y-92495000D01*
X115423740Y-92495000D01*
X115136842Y-92552068D01*
X114866589Y-92664010D01*
X114623368Y-92826525D01*
X114416525Y-93033368D01*
X114254010Y-93276589D01*
X114142068Y-93546842D01*
X114085000Y-93833740D01*
X114085000Y-94126260D01*
X114142068Y-94413158D01*
X114254010Y-94683411D01*
X114416525Y-94926632D01*
X114623368Y-95133475D01*
X114797760Y-95250000D01*
X114623368Y-95366525D01*
X114416525Y-95573368D01*
X114254010Y-95816589D01*
X114142068Y-96086842D01*
X114085000Y-96373740D01*
X114085000Y-96666260D01*
X114142068Y-96953158D01*
X114254010Y-97223411D01*
X114416525Y-97466632D01*
X114623368Y-97673475D01*
X114797760Y-97790000D01*
X114623368Y-97906525D01*
X114416525Y-98113368D01*
X114254010Y-98356589D01*
X114142068Y-98626842D01*
X114085000Y-98913740D01*
X114085000Y-99206260D01*
X114142068Y-99493158D01*
X114254010Y-99763411D01*
X114416525Y-100006632D01*
X114548380Y-100138487D01*
X114475820Y-100160498D01*
X114365506Y-100219463D01*
X114268815Y-100298815D01*
X114189463Y-100395506D01*
X114130498Y-100505820D01*
X114094188Y-100625518D01*
X114081928Y-100750000D01*
X108635000Y-100750000D01*
X108635000Y-97823646D01*
X108638314Y-97790000D01*
X108625088Y-97655717D01*
X108585919Y-97526594D01*
X108522312Y-97407593D01*
X108436711Y-97303289D01*
X108332407Y-97217688D01*
X108213406Y-97154081D01*
X108084283Y-97114912D01*
X107983647Y-97105000D01*
X107950000Y-97101686D01*
X107916353Y-97105000D01*
X95935000Y-97105000D01*
X95935000Y-92396993D01*
X99552612Y-92396993D01*
X99618137Y-92635860D01*
X99865116Y-92751760D01*
X100129960Y-92817250D01*
X100402492Y-92829812D01*
X100672238Y-92788965D01*
X100928832Y-92696277D01*
X101041863Y-92635860D01*
X101107388Y-92396993D01*
X100330000Y-91619605D01*
X99552612Y-92396993D01*
X95935000Y-92396993D01*
X95935000Y-91512492D01*
X98940188Y-91512492D01*
X98981035Y-91782238D01*
X99073723Y-92038832D01*
X99134140Y-92151863D01*
X99373007Y-92217388D01*
X100150395Y-91440000D01*
X100509605Y-91440000D01*
X101286993Y-92217388D01*
X101525860Y-92151863D01*
X101641760Y-91904884D01*
X101707250Y-91640040D01*
X101719812Y-91367508D01*
X101678965Y-91097762D01*
X101586277Y-90841168D01*
X101525860Y-90728137D01*
X101290832Y-90663665D01*
X121120000Y-90663665D01*
X121120000Y-90946335D01*
X121175147Y-91223574D01*
X121283320Y-91484727D01*
X121440363Y-91719759D01*
X121640241Y-91919637D01*
X121875273Y-92076680D01*
X122136426Y-92184853D01*
X122413665Y-92240000D01*
X122696335Y-92240000D01*
X122973574Y-92184853D01*
X123234727Y-92076680D01*
X123469759Y-91919637D01*
X123669637Y-91719759D01*
X123825000Y-91487241D01*
X123980363Y-91719759D01*
X124180241Y-91919637D01*
X124415273Y-92076680D01*
X124676426Y-92184853D01*
X124953665Y-92240000D01*
X125236335Y-92240000D01*
X125513574Y-92184853D01*
X125774727Y-92076680D01*
X126009759Y-91919637D01*
X126209637Y-91719759D01*
X126365000Y-91487241D01*
X126520363Y-91719759D01*
X126720241Y-91919637D01*
X126955273Y-92076680D01*
X127216426Y-92184853D01*
X127493665Y-92240000D01*
X127776335Y-92240000D01*
X128053574Y-92184853D01*
X128314727Y-92076680D01*
X128549759Y-91919637D01*
X128749637Y-91719759D01*
X128905000Y-91487241D01*
X129060363Y-91719759D01*
X129260241Y-91919637D01*
X129495273Y-92076680D01*
X129756426Y-92184853D01*
X130033665Y-92240000D01*
X130316335Y-92240000D01*
X130593574Y-92184853D01*
X130854727Y-92076680D01*
X131089759Y-91919637D01*
X131289637Y-91719759D01*
X131445000Y-91487241D01*
X131600363Y-91719759D01*
X131800241Y-91919637D01*
X132035273Y-92076680D01*
X132296426Y-92184853D01*
X132573665Y-92240000D01*
X132856335Y-92240000D01*
X132961624Y-92219056D01*
X133778923Y-93036356D01*
X133804771Y-93067853D01*
X133836267Y-93093701D01*
X133836270Y-93093704D01*
X133930469Y-93171011D01*
X134010235Y-93213647D01*
X134073878Y-93247665D01*
X134229486Y-93294868D01*
X134350759Y-93306812D01*
X134350761Y-93306812D01*
X134391312Y-93310806D01*
X134431862Y-93306812D01*
X137010874Y-93306812D01*
X144057322Y-100353261D01*
X144038486Y-100363329D01*
X143966903Y-100607298D01*
X144780000Y-101420395D01*
X144794143Y-101406253D01*
X144973748Y-101585858D01*
X144959605Y-101600000D01*
X145772702Y-102413097D01*
X146016671Y-102341514D01*
X146025955Y-102321894D01*
X150304501Y-106600441D01*
X150304501Y-106775722D01*
X150215241Y-106835363D01*
X150015363Y-107035241D01*
X149860000Y-107267759D01*
X149704637Y-107035241D01*
X149504759Y-106835363D01*
X149269727Y-106678320D01*
X149008574Y-106570147D01*
X148731335Y-106515000D01*
X148448665Y-106515000D01*
X148171426Y-106570147D01*
X147910273Y-106678320D01*
X147675241Y-106835363D01*
X147475363Y-107035241D01*
X147320000Y-107267759D01*
X147164637Y-107035241D01*
X146964759Y-106835363D01*
X146729727Y-106678320D01*
X146468574Y-106570147D01*
X146191335Y-106515000D01*
X145908665Y-106515000D01*
X145631426Y-106570147D01*
X145370273Y-106678320D01*
X145135241Y-106835363D01*
X144935363Y-107035241D01*
X144778320Y-107270273D01*
X144670147Y-107531426D01*
X144615000Y-107808665D01*
X144615000Y-108091335D01*
X144670147Y-108368574D01*
X144778320Y-108629727D01*
X144935363Y-108864759D01*
X145135241Y-109064637D01*
X145370273Y-109221680D01*
X145631426Y-109329853D01*
X145908665Y-109385000D01*
X146191335Y-109385000D01*
X146468574Y-109329853D01*
X146729727Y-109221680D01*
X146964759Y-109064637D01*
X147164637Y-108864759D01*
X147320000Y-108632241D01*
X147475363Y-108864759D01*
X147675241Y-109064637D01*
X147910273Y-109221680D01*
X148171426Y-109329853D01*
X148448665Y-109385000D01*
X148731335Y-109385000D01*
X149008574Y-109329853D01*
X149269727Y-109221680D01*
X149504759Y-109064637D01*
X149704637Y-108864759D01*
X149860000Y-108632241D01*
X150015363Y-108864759D01*
X150215241Y-109064637D01*
X150450273Y-109221680D01*
X150711426Y-109329853D01*
X150988665Y-109385000D01*
X151271335Y-109385000D01*
X151548574Y-109329853D01*
X151809727Y-109221680D01*
X152044759Y-109064637D01*
X152244637Y-108864759D01*
X152400000Y-108632241D01*
X152555363Y-108864759D01*
X152755241Y-109064637D01*
X152990273Y-109221680D01*
X153251426Y-109329853D01*
X153528665Y-109385000D01*
X153811335Y-109385000D01*
X154088574Y-109329853D01*
X154349727Y-109221680D01*
X154584759Y-109064637D01*
X154784637Y-108864759D01*
X154940000Y-108632241D01*
X155095363Y-108864759D01*
X155295241Y-109064637D01*
X155530273Y-109221680D01*
X155791426Y-109329853D01*
X156068665Y-109385000D01*
X156351335Y-109385000D01*
X156628574Y-109329853D01*
X156889727Y-109221680D01*
X157124759Y-109064637D01*
X157324637Y-108864759D01*
X157480000Y-108632241D01*
X157635363Y-108864759D01*
X157835241Y-109064637D01*
X158070273Y-109221680D01*
X158331426Y-109329853D01*
X158608665Y-109385000D01*
X158891335Y-109385000D01*
X159168574Y-109329853D01*
X159429727Y-109221680D01*
X159664759Y-109064637D01*
X159864637Y-108864759D01*
X160021680Y-108629727D01*
X160129853Y-108368574D01*
X160185000Y-108091335D01*
X160185000Y-107808665D01*
X160129853Y-107531426D01*
X160021680Y-107270273D01*
X159864637Y-107035241D01*
X159664759Y-106835363D01*
X159429727Y-106678320D01*
X159168574Y-106570147D01*
X158891335Y-106515000D01*
X158608665Y-106515000D01*
X158503377Y-106535943D01*
X142217398Y-90249966D01*
X142191541Y-90218459D01*
X142065842Y-90115301D01*
X141922434Y-90038647D01*
X141766826Y-89991444D01*
X141645553Y-89979500D01*
X141645550Y-89979500D01*
X141605000Y-89975506D01*
X141564450Y-89979500D01*
X141509278Y-89979500D01*
X141449637Y-89890241D01*
X141249759Y-89690363D01*
X141014727Y-89533320D01*
X140753574Y-89425147D01*
X140476335Y-89370000D01*
X140193665Y-89370000D01*
X139916426Y-89425147D01*
X139655273Y-89533320D01*
X139420241Y-89690363D01*
X139220363Y-89890241D01*
X139065000Y-90122759D01*
X138909637Y-89890241D01*
X138709759Y-89690363D01*
X138474727Y-89533320D01*
X138213574Y-89425147D01*
X137936335Y-89370000D01*
X137653665Y-89370000D01*
X137376426Y-89425147D01*
X137115273Y-89533320D01*
X136880241Y-89690363D01*
X136680363Y-89890241D01*
X136525000Y-90122759D01*
X136369637Y-89890241D01*
X136169759Y-89690363D01*
X135934727Y-89533320D01*
X135673574Y-89425147D01*
X135396335Y-89370000D01*
X135113665Y-89370000D01*
X134836426Y-89425147D01*
X134575273Y-89533320D01*
X134340241Y-89690363D01*
X134140363Y-89890241D01*
X133985000Y-90122759D01*
X133829637Y-89890241D01*
X133629759Y-89690363D01*
X133394727Y-89533320D01*
X133133574Y-89425147D01*
X132856335Y-89370000D01*
X132573665Y-89370000D01*
X132296426Y-89425147D01*
X132035273Y-89533320D01*
X131800241Y-89690363D01*
X131600363Y-89890241D01*
X131445000Y-90122759D01*
X131289637Y-89890241D01*
X131089759Y-89690363D01*
X130854727Y-89533320D01*
X130593574Y-89425147D01*
X130316335Y-89370000D01*
X130033665Y-89370000D01*
X129756426Y-89425147D01*
X129495273Y-89533320D01*
X129260241Y-89690363D01*
X129060363Y-89890241D01*
X128905000Y-90122759D01*
X128749637Y-89890241D01*
X128549759Y-89690363D01*
X128314727Y-89533320D01*
X128053574Y-89425147D01*
X127776335Y-89370000D01*
X127697432Y-89370000D01*
X129881933Y-87185500D01*
X145280301Y-87185500D01*
X145320851Y-87189494D01*
X145361401Y-87185500D01*
X145361404Y-87185500D01*
X145482677Y-87173556D01*
X145638285Y-87126353D01*
X145781693Y-87049699D01*
X145907392Y-86946541D01*
X145933249Y-86915034D01*
X152870000Y-79978284D01*
X152870000Y-80151335D01*
X152925147Y-80428574D01*
X153033320Y-80689727D01*
X153190363Y-80924759D01*
X153390241Y-81124637D01*
X153622759Y-81280000D01*
X153390241Y-81435363D01*
X153190363Y-81635241D01*
X153033320Y-81870273D01*
X152925147Y-82131426D01*
X152870000Y-82408665D01*
X152870000Y-82691335D01*
X152925147Y-82968574D01*
X153033320Y-83229727D01*
X153190363Y-83464759D01*
X153390241Y-83664637D01*
X153625273Y-83821680D01*
X153886426Y-83929853D01*
X154163665Y-83985000D01*
X154446335Y-83985000D01*
X154723574Y-83929853D01*
X154984727Y-83821680D01*
X155219759Y-83664637D01*
X155419637Y-83464759D01*
X155576680Y-83229727D01*
X155684853Y-82968574D01*
X155740000Y-82691335D01*
X155740000Y-82408665D01*
X155684853Y-82131426D01*
X155576680Y-81870273D01*
X155419637Y-81635241D01*
X155219759Y-81435363D01*
X154987241Y-81280000D01*
X155219759Y-81124637D01*
X155419637Y-80924759D01*
X155576680Y-80689727D01*
X155684853Y-80428574D01*
X155740000Y-80151335D01*
X155740000Y-79868665D01*
X155684853Y-79591426D01*
X155576680Y-79330273D01*
X155419637Y-79095241D01*
X155219759Y-78895363D01*
X154987241Y-78740000D01*
X155219759Y-78584637D01*
X155419637Y-78384759D01*
X155576680Y-78149727D01*
X155684853Y-77888574D01*
X155740000Y-77611335D01*
X155740000Y-77328665D01*
X155684853Y-77051426D01*
X155576680Y-76790273D01*
X155419637Y-76555241D01*
X155219759Y-76355363D01*
X154987241Y-76200000D01*
X155219759Y-76044637D01*
X155419637Y-75844759D01*
X155576680Y-75609727D01*
X155684853Y-75348574D01*
X155740000Y-75071335D01*
X155740000Y-74788665D01*
X155684853Y-74511426D01*
X155576680Y-74250273D01*
X155419637Y-74015241D01*
X155219759Y-73815363D01*
X154987241Y-73660000D01*
X155219759Y-73504637D01*
X155419637Y-73304759D01*
X155576680Y-73069727D01*
X155684853Y-72808574D01*
X155740000Y-72531335D01*
X155740000Y-72248665D01*
X155684853Y-71971426D01*
X155576680Y-71710273D01*
X155419637Y-71475241D01*
X155219759Y-71275363D01*
X154987241Y-71120000D01*
X155219759Y-70964637D01*
X155381694Y-70802702D01*
X157936903Y-70802702D01*
X158008486Y-71046671D01*
X158263996Y-71167571D01*
X158538184Y-71236300D01*
X158820512Y-71250217D01*
X159100130Y-71208787D01*
X159366292Y-71113603D01*
X159491514Y-71046671D01*
X159563097Y-70802702D01*
X158750000Y-69989605D01*
X157936903Y-70802702D01*
X155381694Y-70802702D01*
X155419637Y-70764759D01*
X155576680Y-70529727D01*
X155684853Y-70268574D01*
X155740000Y-69991335D01*
X155740000Y-69880512D01*
X157309783Y-69880512D01*
X157351213Y-70160130D01*
X157446397Y-70426292D01*
X157513329Y-70551514D01*
X157757298Y-70623097D01*
X158570395Y-69810000D01*
X158929605Y-69810000D01*
X159742702Y-70623097D01*
X159986671Y-70551514D01*
X160107571Y-70296004D01*
X160176300Y-70021816D01*
X160190217Y-69739488D01*
X160148787Y-69459870D01*
X160053603Y-69193708D01*
X159986671Y-69068486D01*
X159742702Y-68996903D01*
X158929605Y-69810000D01*
X158570395Y-69810000D01*
X157757298Y-68996903D01*
X157513329Y-69068486D01*
X157392429Y-69323996D01*
X157323700Y-69598184D01*
X157309783Y-69880512D01*
X155740000Y-69880512D01*
X155740000Y-69708665D01*
X155684853Y-69431426D01*
X155576680Y-69170273D01*
X155419637Y-68935241D01*
X155219759Y-68735363D01*
X154987241Y-68580000D01*
X155219759Y-68424637D01*
X155419637Y-68224759D01*
X155576680Y-67989727D01*
X155684853Y-67728574D01*
X155740000Y-67451335D01*
X155740000Y-67168665D01*
X157315000Y-67168665D01*
X157315000Y-67451335D01*
X157370147Y-67728574D01*
X157478320Y-67989727D01*
X157635363Y-68224759D01*
X157835241Y-68424637D01*
X158035869Y-68558692D01*
X158008486Y-68573329D01*
X157936903Y-68817298D01*
X158750000Y-69630395D01*
X159563097Y-68817298D01*
X159491514Y-68573329D01*
X159462659Y-68559676D01*
X159664759Y-68424637D01*
X159864637Y-68224759D01*
X160021680Y-67989727D01*
X160129853Y-67728574D01*
X160185000Y-67451335D01*
X160185000Y-67168665D01*
X160129853Y-66891426D01*
X160021680Y-66630273D01*
X159864637Y-66395241D01*
X159664759Y-66195363D01*
X159429727Y-66038320D01*
X159168574Y-65930147D01*
X158891335Y-65875000D01*
X158608665Y-65875000D01*
X158331426Y-65930147D01*
X158070273Y-66038320D01*
X157835241Y-66195363D01*
X157635363Y-66395241D01*
X157478320Y-66630273D01*
X157370147Y-66891426D01*
X157315000Y-67168665D01*
X155740000Y-67168665D01*
X155684853Y-66891426D01*
X155576680Y-66630273D01*
X155419637Y-66395241D01*
X155219759Y-66195363D01*
X154984727Y-66038320D01*
X154723574Y-65930147D01*
X154446335Y-65875000D01*
X154163665Y-65875000D01*
X153886426Y-65930147D01*
X153682799Y-66014492D01*
X153682799Y-61125000D01*
X153811335Y-61125000D01*
X154088574Y-61069853D01*
X154349727Y-60961680D01*
X154584759Y-60804637D01*
X154784637Y-60604759D01*
X154940000Y-60372241D01*
X155095363Y-60604759D01*
X155295241Y-60804637D01*
X155530273Y-60961680D01*
X155791426Y-61069853D01*
X156068665Y-61125000D01*
X156351335Y-61125000D01*
X156628574Y-61069853D01*
X156889727Y-60961680D01*
X157124759Y-60804637D01*
X157324637Y-60604759D01*
X157480000Y-60372241D01*
X157635363Y-60604759D01*
X157835241Y-60804637D01*
X158070273Y-60961680D01*
X158331426Y-61069853D01*
X158608665Y-61125000D01*
X158891335Y-61125000D01*
X159168574Y-61069853D01*
X159429727Y-60961680D01*
X159664759Y-60804637D01*
X159864637Y-60604759D01*
X160021680Y-60369727D01*
X160129853Y-60108574D01*
X160185000Y-59831335D01*
X160185000Y-59548665D01*
X160129853Y-59271426D01*
X160021680Y-59010273D01*
X159864637Y-58775241D01*
X159664759Y-58575363D01*
X159429727Y-58418320D01*
X159168574Y-58310147D01*
X158891335Y-58255000D01*
X158608665Y-58255000D01*
X158331426Y-58310147D01*
X158070273Y-58418320D01*
X157835241Y-58575363D01*
X157635363Y-58775241D01*
X157480000Y-59007759D01*
X157324637Y-58775241D01*
X157124759Y-58575363D01*
X156889727Y-58418320D01*
X156628574Y-58310147D01*
X156351335Y-58255000D01*
X156068665Y-58255000D01*
X155791426Y-58310147D01*
X155530273Y-58418320D01*
X155295241Y-58575363D01*
X155095363Y-58775241D01*
X154940000Y-59007759D01*
X154784637Y-58775241D01*
X154584759Y-58575363D01*
X154349727Y-58418320D01*
X154088574Y-58310147D01*
X153811335Y-58255000D01*
X153528665Y-58255000D01*
X153251426Y-58310147D01*
X152990273Y-58418320D01*
X152755241Y-58575363D01*
X152555363Y-58775241D01*
X152400000Y-59007759D01*
X152244637Y-58775241D01*
X152044759Y-58575363D01*
X151809727Y-58418320D01*
X151548574Y-58310147D01*
X151271335Y-58255000D01*
X150988665Y-58255000D01*
X150711426Y-58310147D01*
X150450273Y-58418320D01*
X150215241Y-58575363D01*
X150015363Y-58775241D01*
X149860000Y-59007759D01*
X149704637Y-58775241D01*
X149504759Y-58575363D01*
X149269727Y-58418320D01*
X149008574Y-58310147D01*
X148731335Y-58255000D01*
X148448665Y-58255000D01*
X148171426Y-58310147D01*
X147910273Y-58418320D01*
X147675241Y-58575363D01*
X147475363Y-58775241D01*
X147320000Y-59007759D01*
X147164637Y-58775241D01*
X146964759Y-58575363D01*
X146729727Y-58418320D01*
X146468574Y-58310147D01*
X146191335Y-58255000D01*
X145908665Y-58255000D01*
X145631426Y-58310147D01*
X145370273Y-58418320D01*
X145135241Y-58575363D01*
X144935363Y-58775241D01*
X144780000Y-59007759D01*
X144624637Y-58775241D01*
X144424759Y-58575363D01*
X144189727Y-58418320D01*
X143928574Y-58310147D01*
X143651335Y-58255000D01*
X143368665Y-58255000D01*
X143091426Y-58310147D01*
X142830273Y-58418320D01*
X142595241Y-58575363D01*
X142395363Y-58775241D01*
X142240000Y-59007759D01*
X142084637Y-58775241D01*
X141884759Y-58575363D01*
X141649727Y-58418320D01*
X141388574Y-58310147D01*
X141111335Y-58255000D01*
X140828665Y-58255000D01*
X140551426Y-58310147D01*
X140290273Y-58418320D01*
X140055241Y-58575363D01*
X139855363Y-58775241D01*
X139698320Y-59010273D01*
X139590147Y-59271426D01*
X139535000Y-59548665D01*
X139535000Y-59831335D01*
X139590147Y-60108574D01*
X139698320Y-60369727D01*
X139855363Y-60604759D01*
X140055241Y-60804637D01*
X140290273Y-60961680D01*
X140551426Y-61069853D01*
X140828665Y-61125000D01*
X141111335Y-61125000D01*
X141216916Y-61103998D01*
X141230434Y-61115092D01*
X141309155Y-61179697D01*
X141309157Y-61179698D01*
X141452565Y-61256352D01*
X141608173Y-61303555D01*
X141729446Y-61315499D01*
X141729455Y-61315499D01*
X141741473Y-61316683D01*
X146296717Y-65871928D01*
X145885000Y-65871928D01*
X145760518Y-65884188D01*
X145640820Y-65920498D01*
X145530506Y-65979463D01*
X145433815Y-66058815D01*
X145354463Y-66155506D01*
X145295498Y-66265820D01*
X145259188Y-66385518D01*
X145246928Y-66510000D01*
X145246928Y-67580640D01*
X145073068Y-67754500D01*
X141509278Y-67754500D01*
X141449637Y-67665241D01*
X141249759Y-67465363D01*
X141014727Y-67308320D01*
X140753574Y-67200147D01*
X140476335Y-67145000D01*
X140193665Y-67145000D01*
X139916426Y-67200147D01*
X139655273Y-67308320D01*
X139420241Y-67465363D01*
X139220363Y-67665241D01*
X139086308Y-67865869D01*
X139071671Y-67838486D01*
X138827702Y-67766903D01*
X138014605Y-68580000D01*
X138028748Y-68594143D01*
X137849143Y-68773748D01*
X137835000Y-68759605D01*
X137021903Y-69572702D01*
X137047370Y-69659500D01*
X135316882Y-69659500D01*
X134317347Y-68659966D01*
X134309589Y-68650512D01*
X136394783Y-68650512D01*
X136436213Y-68930130D01*
X136531397Y-69196292D01*
X136598329Y-69321514D01*
X136842298Y-69393097D01*
X137655395Y-68580000D01*
X136842298Y-67766903D01*
X136598329Y-67838486D01*
X136477429Y-68093996D01*
X136408700Y-68368184D01*
X136394783Y-68650512D01*
X134309589Y-68650512D01*
X134291490Y-68628459D01*
X134165791Y-68525301D01*
X134022383Y-68448647D01*
X133866775Y-68401444D01*
X133770665Y-68391978D01*
X133751962Y-68363987D01*
X133566013Y-68178038D01*
X133540500Y-68160991D01*
X133540500Y-67729009D01*
X133566013Y-67711962D01*
X133690677Y-67587298D01*
X137021903Y-67587298D01*
X137835000Y-68400395D01*
X138648097Y-67587298D01*
X138576514Y-67343329D01*
X138321004Y-67222429D01*
X138046816Y-67153700D01*
X137764488Y-67139783D01*
X137484870Y-67181213D01*
X137218708Y-67276397D01*
X137093486Y-67343329D01*
X137021903Y-67587298D01*
X133690677Y-67587298D01*
X133751962Y-67526013D01*
X133898061Y-67307359D01*
X133998696Y-67064405D01*
X134050000Y-66806486D01*
X134050000Y-66543514D01*
X133998696Y-66285595D01*
X133898061Y-66042641D01*
X133751962Y-65823987D01*
X133566013Y-65638038D01*
X133347359Y-65491939D01*
X133104405Y-65391304D01*
X132846486Y-65340000D01*
X132583514Y-65340000D01*
X132325595Y-65391304D01*
X132082641Y-65491939D01*
X131863987Y-65638038D01*
X131678038Y-65823987D01*
X131531939Y-66042641D01*
X131431304Y-66285595D01*
X131380000Y-66543514D01*
X131380000Y-66806486D01*
X131431304Y-67064405D01*
X131531939Y-67307359D01*
X131678038Y-67526013D01*
X131863987Y-67711962D01*
X131889500Y-67729009D01*
X131889501Y-68160990D01*
X131863987Y-68178038D01*
X131678038Y-68363987D01*
X131531939Y-68582641D01*
X131431304Y-68825595D01*
X131380000Y-69083514D01*
X131380000Y-69346486D01*
X131431304Y-69604405D01*
X131531939Y-69847359D01*
X131678038Y-70066013D01*
X131863987Y-70251962D01*
X132082641Y-70398061D01*
X132292530Y-70485000D01*
X132082641Y-70571939D01*
X131863987Y-70718038D01*
X131678038Y-70903987D01*
X131531939Y-71122641D01*
X131431304Y-71365595D01*
X131380000Y-71623514D01*
X131380000Y-71886486D01*
X131431304Y-72144405D01*
X131531939Y-72387359D01*
X131678038Y-72606013D01*
X131863987Y-72791962D01*
X131889500Y-72809009D01*
X131889501Y-73240990D01*
X131863987Y-73258038D01*
X131678038Y-73443987D01*
X131531939Y-73662641D01*
X131431304Y-73905595D01*
X131380000Y-74163514D01*
X131380000Y-74426486D01*
X131431304Y-74684405D01*
X131531939Y-74927359D01*
X131678038Y-75146013D01*
X131863987Y-75331962D01*
X132082641Y-75478061D01*
X132292530Y-75565000D01*
X132082641Y-75651939D01*
X131863987Y-75798038D01*
X131678038Y-75983987D01*
X131531939Y-76202641D01*
X131431304Y-76445595D01*
X131380000Y-76703514D01*
X131380000Y-76966486D01*
X131431304Y-77224405D01*
X131531939Y-77467359D01*
X131678038Y-77686013D01*
X131863987Y-77871962D01*
X131889500Y-77889009D01*
X131889501Y-78320990D01*
X131863987Y-78338038D01*
X131678038Y-78523987D01*
X131531939Y-78742641D01*
X131431304Y-78985595D01*
X131380000Y-79243514D01*
X131380000Y-79506486D01*
X131431304Y-79764405D01*
X131531939Y-80007359D01*
X131678038Y-80226013D01*
X131863987Y-80411962D01*
X132082641Y-80558061D01*
X132325595Y-80658696D01*
X132583514Y-80710000D01*
X132846486Y-80710000D01*
X133104405Y-80658696D01*
X133347359Y-80558061D01*
X133566013Y-80411962D01*
X133570245Y-80407730D01*
X133727559Y-80565044D01*
X133753408Y-80596541D01*
X133784904Y-80622389D01*
X133784907Y-80622392D01*
X133879106Y-80699699D01*
X134022515Y-80776353D01*
X134178123Y-80823556D01*
X134299396Y-80835500D01*
X134299398Y-80835500D01*
X134339949Y-80839494D01*
X134380499Y-80835500D01*
X138984450Y-80835500D01*
X139025000Y-80839494D01*
X139065550Y-80835500D01*
X139065553Y-80835500D01*
X139186826Y-80823556D01*
X139342434Y-80776353D01*
X139485842Y-80699699D01*
X139611541Y-80596541D01*
X139637398Y-80565035D01*
X140048376Y-80154057D01*
X140153665Y-80175000D01*
X140436335Y-80175000D01*
X140713574Y-80119853D01*
X140974727Y-80011680D01*
X141209759Y-79854637D01*
X141409637Y-79654759D01*
X141469278Y-79565500D01*
X145315886Y-79565500D01*
X145305147Y-79591426D01*
X145250000Y-79868665D01*
X145250000Y-80151335D01*
X145305147Y-80428574D01*
X145413320Y-80689727D01*
X145570363Y-80924759D01*
X145770241Y-81124637D01*
X146004128Y-81280915D01*
X145943486Y-81313329D01*
X145871903Y-81557298D01*
X146685000Y-82370395D01*
X147498097Y-81557298D01*
X147426514Y-81313329D01*
X147362008Y-81282806D01*
X147364727Y-81281680D01*
X147599759Y-81124637D01*
X147799637Y-80924759D01*
X147956680Y-80689727D01*
X148064853Y-80428574D01*
X148120000Y-80151335D01*
X148120000Y-79868665D01*
X148099056Y-79763376D01*
X150304500Y-77557933D01*
X150304500Y-79454561D01*
X147931739Y-81827322D01*
X147921671Y-81808486D01*
X147677702Y-81736903D01*
X146864605Y-82550000D01*
X146878748Y-82564143D01*
X146699143Y-82743748D01*
X146685000Y-82729605D01*
X145871903Y-83542702D01*
X145943486Y-83786671D01*
X145963107Y-83795955D01*
X145494562Y-84264500D01*
X128310550Y-84264500D01*
X128270000Y-84260506D01*
X128229450Y-84264500D01*
X128229447Y-84264500D01*
X128108174Y-84276444D01*
X127952566Y-84323647D01*
X127809157Y-84400301D01*
X127737342Y-84459239D01*
X127683459Y-84503459D01*
X127657608Y-84534959D01*
X122801624Y-89390944D01*
X122696335Y-89370000D01*
X122413665Y-89370000D01*
X122136426Y-89425147D01*
X121875273Y-89533320D01*
X121640241Y-89690363D01*
X121440363Y-89890241D01*
X121283320Y-90125273D01*
X121175147Y-90386426D01*
X121120000Y-90663665D01*
X101290832Y-90663665D01*
X101286993Y-90662612D01*
X100509605Y-91440000D01*
X100150395Y-91440000D01*
X99373007Y-90662612D01*
X99134140Y-90728137D01*
X99018240Y-90975116D01*
X98952750Y-91239960D01*
X98940188Y-91512492D01*
X95935000Y-91512492D01*
X95935000Y-79425000D01*
X105376353Y-79425000D01*
X105410000Y-79428314D01*
X105443647Y-79425000D01*
X105464634Y-79422933D01*
X104433068Y-80454500D01*
X99100550Y-80454500D01*
X99060000Y-80450506D01*
X99019449Y-80454500D01*
X99019447Y-80454500D01*
X98898174Y-80466444D01*
X98742566Y-80513647D01*
X98599157Y-80590301D01*
X98504958Y-80667608D01*
X98504955Y-80667611D01*
X98473459Y-80693459D01*
X98447610Y-80724956D01*
X97869965Y-81302603D01*
X97838459Y-81328459D01*
X97788075Y-81389853D01*
X97735301Y-81454158D01*
X97731545Y-81461185D01*
X97658647Y-81597567D01*
X97611444Y-81753175D01*
X97605997Y-81808486D01*
X97595506Y-81915000D01*
X97599500Y-81955551D01*
X97599501Y-84426002D01*
X97595506Y-84466562D01*
X97611445Y-84628388D01*
X97658647Y-84783995D01*
X97735301Y-84927404D01*
X97788621Y-84992374D01*
X97838460Y-85053103D01*
X97869961Y-85078955D01*
X98500245Y-85709240D01*
X98526098Y-85740742D01*
X98622079Y-85819511D01*
X98958465Y-86155898D01*
X98945000Y-86223589D01*
X98945000Y-86496411D01*
X98998225Y-86763989D01*
X99102629Y-87016043D01*
X99254201Y-87242886D01*
X99447114Y-87435799D01*
X99673957Y-87587371D01*
X99776873Y-87630000D01*
X99673957Y-87672629D01*
X99447114Y-87824201D01*
X99254201Y-88017114D01*
X99102629Y-88243957D01*
X98998225Y-88496011D01*
X98945000Y-88763589D01*
X98945000Y-89036411D01*
X98998225Y-89303989D01*
X99102629Y-89556043D01*
X99254201Y-89782886D01*
X99447114Y-89975799D01*
X99673957Y-90127371D01*
X99773279Y-90168511D01*
X99731168Y-90183723D01*
X99618137Y-90244140D01*
X99552612Y-90483007D01*
X100330000Y-91260395D01*
X101107388Y-90483007D01*
X101041863Y-90244140D01*
X100883523Y-90169836D01*
X100986043Y-90127371D01*
X101212886Y-89975799D01*
X101405799Y-89782886D01*
X101557371Y-89556043D01*
X101661775Y-89303989D01*
X101715000Y-89036411D01*
X101715000Y-88763589D01*
X101661775Y-88496011D01*
X101557371Y-88243957D01*
X101405799Y-88017114D01*
X101212886Y-87824201D01*
X100986043Y-87672629D01*
X100883127Y-87630000D01*
X100986043Y-87587371D01*
X101212886Y-87435799D01*
X101405799Y-87242886D01*
X101557371Y-87016043D01*
X101661775Y-86763989D01*
X101715000Y-86496411D01*
X101715000Y-86223589D01*
X101661775Y-85956011D01*
X101557371Y-85703957D01*
X101405799Y-85477114D01*
X101212886Y-85284201D01*
X101096517Y-85206445D01*
X101204482Y-85195812D01*
X101324180Y-85159502D01*
X101434494Y-85100537D01*
X101531185Y-85021185D01*
X101610537Y-84924494D01*
X101669502Y-84814180D01*
X101705812Y-84694482D01*
X101718072Y-84570000D01*
X101718072Y-83070000D01*
X101705812Y-82945518D01*
X101669502Y-82825820D01*
X101610537Y-82715506D01*
X101532578Y-82620512D01*
X145244783Y-82620512D01*
X145286213Y-82900130D01*
X145381397Y-83166292D01*
X145448329Y-83291514D01*
X145692298Y-83363097D01*
X146505395Y-82550000D01*
X145692298Y-81736903D01*
X145448329Y-81808486D01*
X145327429Y-82063996D01*
X145258700Y-82338184D01*
X145244783Y-82620512D01*
X101532578Y-82620512D01*
X101531185Y-82618815D01*
X101434494Y-82539463D01*
X101324180Y-82480498D01*
X101204482Y-82444188D01*
X101080000Y-82431928D01*
X99580000Y-82431928D01*
X99455518Y-82444188D01*
X99335820Y-82480498D01*
X99250500Y-82526103D01*
X99250500Y-82256933D01*
X99401933Y-82105500D01*
X104734450Y-82105500D01*
X104775000Y-82109494D01*
X104815550Y-82105500D01*
X104815553Y-82105500D01*
X104936826Y-82093556D01*
X105092434Y-82046353D01*
X105235842Y-81969699D01*
X105361541Y-81866541D01*
X105387398Y-81835034D01*
X107235045Y-79987389D01*
X107266541Y-79961541D01*
X107292389Y-79930045D01*
X107292392Y-79930042D01*
X107369699Y-79835843D01*
X107446353Y-79692434D01*
X107446353Y-79692433D01*
X107493556Y-79536826D01*
X107505500Y-79415553D01*
X107505500Y-79415551D01*
X107509494Y-79375000D01*
X107505500Y-79334450D01*
X107505500Y-79010000D01*
X113331928Y-79010000D01*
X113331928Y-81010000D01*
X113344188Y-81134482D01*
X113380498Y-81254180D01*
X113439463Y-81364494D01*
X113518815Y-81461185D01*
X113615506Y-81540537D01*
X113725820Y-81599502D01*
X113845518Y-81635812D01*
X113970000Y-81648072D01*
X117170000Y-81648072D01*
X117294482Y-81635812D01*
X117414180Y-81599502D01*
X117524494Y-81540537D01*
X117621185Y-81461185D01*
X117700537Y-81364494D01*
X117759502Y-81254180D01*
X117795812Y-81134482D01*
X117808072Y-81010000D01*
X117808072Y-79010000D01*
X117795812Y-78885518D01*
X117759502Y-78765820D01*
X117700537Y-78655506D01*
X117621185Y-78558815D01*
X117524494Y-78479463D01*
X117414180Y-78420498D01*
X117294482Y-78384188D01*
X117170000Y-78371928D01*
X113970000Y-78371928D01*
X113845518Y-78384188D01*
X113725820Y-78420498D01*
X113615506Y-78479463D01*
X113518815Y-78558815D01*
X113439463Y-78655506D01*
X113380498Y-78765820D01*
X113344188Y-78885518D01*
X113331928Y-79010000D01*
X107505500Y-79010000D01*
X107505500Y-78154108D01*
X107614193Y-78045415D01*
X107709956Y-78309814D01*
X107999571Y-78450704D01*
X108311108Y-78532384D01*
X108632595Y-78551718D01*
X108951675Y-78507961D01*
X109256088Y-78402795D01*
X109430044Y-78309814D01*
X109525808Y-78045413D01*
X108570000Y-77089605D01*
X108555858Y-77103748D01*
X108376253Y-76924143D01*
X108390395Y-76910000D01*
X108749605Y-76910000D01*
X109705413Y-77865808D01*
X109969814Y-77770044D01*
X110110704Y-77480429D01*
X110192384Y-77168892D01*
X110211718Y-76847405D01*
X110167961Y-76528325D01*
X110062795Y-76223912D01*
X109969814Y-76049956D01*
X109705413Y-75954192D01*
X108749605Y-76910000D01*
X108390395Y-76910000D01*
X108376253Y-76895858D01*
X108555858Y-76716253D01*
X108570000Y-76730395D01*
X109525808Y-75774587D01*
X109430044Y-75510186D01*
X109140429Y-75369296D01*
X108828892Y-75287616D01*
X108507405Y-75268282D01*
X108188325Y-75312039D01*
X107883912Y-75417205D01*
X107709956Y-75510186D01*
X107614193Y-75774585D01*
X107505500Y-75665892D01*
X107505500Y-73157739D01*
X107527748Y-73179987D01*
X107795537Y-73358918D01*
X108093088Y-73482168D01*
X108408967Y-73545000D01*
X108731033Y-73545000D01*
X109046912Y-73482168D01*
X109344463Y-73358918D01*
X109612252Y-73179987D01*
X109839987Y-72952252D01*
X109984816Y-72735500D01*
X116644450Y-72735500D01*
X116685000Y-72739494D01*
X116725550Y-72735500D01*
X116725553Y-72735500D01*
X116846826Y-72723556D01*
X117002434Y-72676353D01*
X117145842Y-72599699D01*
X117271541Y-72496541D01*
X117297398Y-72465034D01*
X122261933Y-67500500D01*
X126580991Y-67500500D01*
X126598038Y-67526013D01*
X126783987Y-67711962D01*
X127002641Y-67858061D01*
X127212530Y-67945000D01*
X127002641Y-68031939D01*
X126783987Y-68178038D01*
X126598038Y-68363987D01*
X126451939Y-68582641D01*
X126351304Y-68825595D01*
X126300000Y-69083514D01*
X126300000Y-69346486D01*
X126351304Y-69604405D01*
X126451939Y-69847359D01*
X126598038Y-70066013D01*
X126783987Y-70251962D01*
X127002641Y-70398061D01*
X127212530Y-70485000D01*
X127002641Y-70571939D01*
X126783987Y-70718038D01*
X126598038Y-70903987D01*
X126477424Y-71084500D01*
X124484816Y-71084500D01*
X124339987Y-70867748D01*
X124112252Y-70640013D01*
X123844463Y-70461082D01*
X123546912Y-70337832D01*
X123231033Y-70275000D01*
X122908967Y-70275000D01*
X122593088Y-70337832D01*
X122295537Y-70461082D01*
X122027748Y-70640013D01*
X121800013Y-70867748D01*
X121621082Y-71135537D01*
X121497832Y-71433088D01*
X121435000Y-71748967D01*
X121435000Y-72071033D01*
X121497832Y-72386912D01*
X121621082Y-72684463D01*
X121800013Y-72952252D01*
X122027748Y-73179987D01*
X122124935Y-73244925D01*
X122114192Y-73274587D01*
X123070000Y-74230395D01*
X124025808Y-73274587D01*
X124015065Y-73244925D01*
X124112252Y-73179987D01*
X124339987Y-72952252D01*
X124484816Y-72735500D01*
X126727525Y-72735500D01*
X126783987Y-72791962D01*
X127002641Y-72938061D01*
X127212530Y-73025000D01*
X127002641Y-73111939D01*
X126783987Y-73258038D01*
X126598038Y-73443987D01*
X126451939Y-73662641D01*
X126351304Y-73905595D01*
X126300000Y-74163514D01*
X126300000Y-74426486D01*
X126351304Y-74684405D01*
X126451939Y-74927359D01*
X126598038Y-75146013D01*
X126783987Y-75331962D01*
X127002641Y-75478061D01*
X127212530Y-75565000D01*
X127002641Y-75651939D01*
X126783987Y-75798038D01*
X126598038Y-75983987D01*
X126530878Y-76084500D01*
X124708072Y-76084500D01*
X124708072Y-75910000D01*
X124695812Y-75785518D01*
X124659502Y-75665820D01*
X124600537Y-75555506D01*
X124521185Y-75458815D01*
X124424494Y-75379463D01*
X124320777Y-75324024D01*
X124469814Y-75270044D01*
X124610704Y-74980429D01*
X124692384Y-74668892D01*
X124711718Y-74347405D01*
X124667961Y-74028325D01*
X124562795Y-73723912D01*
X124469814Y-73549956D01*
X124205413Y-73454192D01*
X123249605Y-74410000D01*
X123263748Y-74424143D01*
X123084143Y-74603748D01*
X123070000Y-74589605D01*
X123055858Y-74603748D01*
X122876253Y-74424143D01*
X122890395Y-74410000D01*
X121934587Y-73454192D01*
X121670186Y-73549956D01*
X121529296Y-73839571D01*
X121447616Y-74151108D01*
X121428282Y-74472595D01*
X121472039Y-74791675D01*
X121577205Y-75096088D01*
X121670186Y-75270044D01*
X121819223Y-75324024D01*
X121715506Y-75379463D01*
X121618815Y-75458815D01*
X121539463Y-75555506D01*
X121480498Y-75665820D01*
X121444188Y-75785518D01*
X121431928Y-75910000D01*
X121431928Y-77910000D01*
X121444188Y-78034482D01*
X121480498Y-78154180D01*
X121539463Y-78264494D01*
X121618815Y-78361185D01*
X121715506Y-78440537D01*
X121825820Y-78499502D01*
X121945518Y-78535812D01*
X122070000Y-78548072D01*
X124070000Y-78548072D01*
X124194482Y-78535812D01*
X124314180Y-78499502D01*
X124424494Y-78440537D01*
X124521185Y-78361185D01*
X124600537Y-78264494D01*
X124659502Y-78154180D01*
X124695812Y-78034482D01*
X124708072Y-77910000D01*
X124708072Y-77735500D01*
X126647525Y-77735500D01*
X126783987Y-77871962D01*
X127002641Y-78018061D01*
X127212530Y-78105000D01*
X127002641Y-78191939D01*
X126783987Y-78338038D01*
X126598038Y-78523987D01*
X126451939Y-78742641D01*
X126351304Y-78985595D01*
X126300000Y-79243514D01*
X126300000Y-79506486D01*
X126351304Y-79764405D01*
X126451939Y-80007359D01*
X126598038Y-80226013D01*
X126783987Y-80411962D01*
X127002641Y-80558061D01*
X127245595Y-80658696D01*
X127503514Y-80710000D01*
X127766486Y-80710000D01*
X128024405Y-80658696D01*
X128267359Y-80558061D01*
X128486013Y-80411962D01*
X128671962Y-80226013D01*
X128818061Y-80007359D01*
X128918696Y-79764405D01*
X128970000Y-79506486D01*
X128970000Y-79243514D01*
X128918696Y-78985595D01*
X128818061Y-78742641D01*
X128671962Y-78523987D01*
X128486013Y-78338038D01*
X128267359Y-78191939D01*
X128057470Y-78105000D01*
X128267359Y-78018061D01*
X128486013Y-77871962D01*
X128671962Y-77686013D01*
X128818061Y-77467359D01*
X128918696Y-77224405D01*
X128970000Y-76966486D01*
X128970000Y-76703514D01*
X128918696Y-76445595D01*
X128818061Y-76202641D01*
X128671962Y-75983987D01*
X128486013Y-75798038D01*
X128267359Y-75651939D01*
X128057470Y-75565000D01*
X128267359Y-75478061D01*
X128486013Y-75331962D01*
X128671962Y-75146013D01*
X128818061Y-74927359D01*
X128918696Y-74684405D01*
X128970000Y-74426486D01*
X128970000Y-74163514D01*
X128918696Y-73905595D01*
X128818061Y-73662641D01*
X128671962Y-73443987D01*
X128486013Y-73258038D01*
X128267359Y-73111939D01*
X128057470Y-73025000D01*
X128267359Y-72938061D01*
X128486013Y-72791962D01*
X128671962Y-72606013D01*
X128818061Y-72387359D01*
X128918696Y-72144405D01*
X128970000Y-71886486D01*
X128970000Y-71623514D01*
X128918696Y-71365595D01*
X128818061Y-71122641D01*
X128671962Y-70903987D01*
X128486013Y-70718038D01*
X128267359Y-70571939D01*
X128057470Y-70485000D01*
X128267359Y-70398061D01*
X128486013Y-70251962D01*
X128671962Y-70066013D01*
X128818061Y-69847359D01*
X128918696Y-69604405D01*
X128970000Y-69346486D01*
X128970000Y-69083514D01*
X128918696Y-68825595D01*
X128818061Y-68582641D01*
X128671962Y-68363987D01*
X128486013Y-68178038D01*
X128267359Y-68031939D01*
X128057470Y-67945000D01*
X128267359Y-67858061D01*
X128486013Y-67711962D01*
X128671962Y-67526013D01*
X128818061Y-67307359D01*
X128918696Y-67064405D01*
X128970000Y-66806486D01*
X128970000Y-66543514D01*
X128918696Y-66285595D01*
X128818061Y-66042641D01*
X128671962Y-65823987D01*
X128486013Y-65638038D01*
X128267359Y-65491939D01*
X128024405Y-65391304D01*
X127766486Y-65340000D01*
X127503514Y-65340000D01*
X127245595Y-65391304D01*
X127002641Y-65491939D01*
X126783987Y-65638038D01*
X126598038Y-65823987D01*
X126580991Y-65849500D01*
X121960550Y-65849500D01*
X121920000Y-65845506D01*
X121879449Y-65849500D01*
X121879447Y-65849500D01*
X121758174Y-65861444D01*
X121602566Y-65908647D01*
X121459157Y-65985301D01*
X121397596Y-66035823D01*
X121333459Y-66088459D01*
X121307607Y-66119960D01*
X117808072Y-69619496D01*
X117808072Y-67810000D01*
X117795812Y-67685518D01*
X117759502Y-67565820D01*
X117700537Y-67455506D01*
X117621185Y-67358815D01*
X117524494Y-67279463D01*
X117414180Y-67220498D01*
X117294482Y-67184188D01*
X117170000Y-67171928D01*
X113970000Y-67171928D01*
X113845518Y-67184188D01*
X113725820Y-67220498D01*
X113615506Y-67279463D01*
X113518815Y-67358815D01*
X113439463Y-67455506D01*
X113380498Y-67565820D01*
X113344188Y-67685518D01*
X113331928Y-67810000D01*
X113331928Y-69810000D01*
X113344188Y-69934482D01*
X113380498Y-70054180D01*
X113439463Y-70164494D01*
X113518815Y-70261185D01*
X113615506Y-70340537D01*
X113725820Y-70399502D01*
X113845518Y-70435812D01*
X113970000Y-70448072D01*
X116979496Y-70448072D01*
X116343068Y-71084500D01*
X109984816Y-71084500D01*
X109839987Y-70867748D01*
X109612252Y-70640013D01*
X109344463Y-70461082D01*
X109046912Y-70337832D01*
X108731033Y-70275000D01*
X108408967Y-70275000D01*
X108093088Y-70337832D01*
X107795537Y-70461082D01*
X107527748Y-70640013D01*
X107505500Y-70662261D01*
X107505500Y-69670267D01*
X111580268Y-65595500D01*
X121629450Y-65595500D01*
X121670000Y-65599494D01*
X121710550Y-65595500D01*
X121710553Y-65595500D01*
X121831826Y-65583556D01*
X121987434Y-65536353D01*
X122130842Y-65459699D01*
X122256541Y-65356541D01*
X122282398Y-65325034D01*
X126503377Y-61104057D01*
X126608665Y-61125000D01*
X126891335Y-61125000D01*
X127168574Y-61069853D01*
X127429727Y-60961680D01*
X127664759Y-60804637D01*
X127864637Y-60604759D01*
X128020000Y-60372241D01*
X128175363Y-60604759D01*
X128375241Y-60804637D01*
X128610273Y-60961680D01*
X128871426Y-61069853D01*
X129148665Y-61125000D01*
X129431335Y-61125000D01*
X129708574Y-61069853D01*
X129969727Y-60961680D01*
X130204759Y-60804637D01*
X130404637Y-60604759D01*
X130560000Y-60372241D01*
X130715363Y-60604759D01*
X130915241Y-60804637D01*
X131150273Y-60961680D01*
X131411426Y-61069853D01*
X131688665Y-61125000D01*
X131971335Y-61125000D01*
X132248574Y-61069853D01*
X132509727Y-60961680D01*
X132744759Y-60804637D01*
X132944637Y-60604759D01*
X133100000Y-60372241D01*
X133255363Y-60604759D01*
X133455241Y-60804637D01*
X133690273Y-60961680D01*
X133951426Y-61069853D01*
X134228665Y-61125000D01*
X134511335Y-61125000D01*
X134788574Y-61069853D01*
X135049727Y-60961680D01*
X135284759Y-60804637D01*
X135484637Y-60604759D01*
X135640000Y-60372241D01*
X135795363Y-60604759D01*
X135995241Y-60804637D01*
X136230273Y-60961680D01*
X136491426Y-61069853D01*
X136768665Y-61125000D01*
X137051335Y-61125000D01*
X137328574Y-61069853D01*
X137589727Y-60961680D01*
X137824759Y-60804637D01*
X138024637Y-60604759D01*
X138181680Y-60369727D01*
X138289853Y-60108574D01*
X138345000Y-59831335D01*
X138345000Y-59548665D01*
X138289853Y-59271426D01*
X138181680Y-59010273D01*
X138024637Y-58775241D01*
X137824759Y-58575363D01*
X137589727Y-58418320D01*
X137328574Y-58310147D01*
X137051335Y-58255000D01*
X136768665Y-58255000D01*
X136491426Y-58310147D01*
X136230273Y-58418320D01*
X135995241Y-58575363D01*
X135795363Y-58775241D01*
X135640000Y-59007759D01*
X135484637Y-58775241D01*
X135284759Y-58575363D01*
X135049727Y-58418320D01*
X134788574Y-58310147D01*
X134511335Y-58255000D01*
X134228665Y-58255000D01*
X133951426Y-58310147D01*
X133690273Y-58418320D01*
X133455241Y-58575363D01*
X133255363Y-58775241D01*
X133100000Y-59007759D01*
X132944637Y-58775241D01*
X132744759Y-58575363D01*
X132509727Y-58418320D01*
X132248574Y-58310147D01*
X131971335Y-58255000D01*
X131688665Y-58255000D01*
X131411426Y-58310147D01*
X131150273Y-58418320D01*
X130915241Y-58575363D01*
X130715363Y-58775241D01*
X130560000Y-59007759D01*
X130404637Y-58775241D01*
X130204759Y-58575363D01*
X129969727Y-58418320D01*
X129708574Y-58310147D01*
X129431335Y-58255000D01*
X129148665Y-58255000D01*
X128871426Y-58310147D01*
X128610273Y-58418320D01*
X128375241Y-58575363D01*
X128175363Y-58775241D01*
X128020000Y-59007759D01*
X127864637Y-58775241D01*
X127664759Y-58575363D01*
X127429727Y-58418320D01*
X127168574Y-58310147D01*
X126891335Y-58255000D01*
X126608665Y-58255000D01*
X126331426Y-58310147D01*
X126070273Y-58418320D01*
X125835241Y-58575363D01*
X125635363Y-58775241D01*
X125480000Y-59007759D01*
X125324637Y-58775241D01*
X125124759Y-58575363D01*
X124889727Y-58418320D01*
X124628574Y-58310147D01*
X124351335Y-58255000D01*
X124068665Y-58255000D01*
X123791426Y-58310147D01*
X123530273Y-58418320D01*
X123295241Y-58575363D01*
X123095363Y-58775241D01*
X122938320Y-59010273D01*
X122933933Y-59020865D01*
X122822385Y-58834869D01*
X122633414Y-58626481D01*
X122407420Y-58458963D01*
X122153087Y-58338754D01*
X122019039Y-58298096D01*
X121797000Y-58420085D01*
X121797000Y-59563000D01*
X121817000Y-59563000D01*
X121817000Y-59817000D01*
X121797000Y-59817000D01*
X121797000Y-60959915D01*
X122019039Y-61081904D01*
X122153087Y-61041246D01*
X122407420Y-60921037D01*
X122633414Y-60753519D01*
X122822385Y-60545131D01*
X122933933Y-60359135D01*
X122938320Y-60369727D01*
X123095363Y-60604759D01*
X123295241Y-60804637D01*
X123530273Y-60961680D01*
X123791426Y-61069853D01*
X124068665Y-61125000D01*
X124147567Y-61125000D01*
X121328068Y-63944500D01*
X111278885Y-63944500D01*
X111238334Y-63940506D01*
X111197784Y-63944500D01*
X111197782Y-63944500D01*
X111076509Y-63956444D01*
X110920901Y-64003647D01*
X110777492Y-64080301D01*
X110738391Y-64112391D01*
X110651794Y-64183459D01*
X110625943Y-64214959D01*
X106124966Y-68715937D01*
X106095000Y-68740529D01*
X106095000Y-59548665D01*
X112615000Y-59548665D01*
X112615000Y-59831335D01*
X112670147Y-60108574D01*
X112778320Y-60369727D01*
X112935363Y-60604759D01*
X113135241Y-60804637D01*
X113370273Y-60961680D01*
X113631426Y-61069853D01*
X113908665Y-61125000D01*
X114191335Y-61125000D01*
X114468574Y-61069853D01*
X114729727Y-60961680D01*
X114964759Y-60804637D01*
X115164637Y-60604759D01*
X115320000Y-60372241D01*
X115475363Y-60604759D01*
X115675241Y-60804637D01*
X115910273Y-60961680D01*
X116171426Y-61069853D01*
X116448665Y-61125000D01*
X116731335Y-61125000D01*
X117008574Y-61069853D01*
X117269727Y-60961680D01*
X117504759Y-60804637D01*
X117704637Y-60604759D01*
X117860000Y-60372241D01*
X118015363Y-60604759D01*
X118215241Y-60804637D01*
X118450273Y-60961680D01*
X118711426Y-61069853D01*
X118988665Y-61125000D01*
X119271335Y-61125000D01*
X119548574Y-61069853D01*
X119809727Y-60961680D01*
X120044759Y-60804637D01*
X120244637Y-60604759D01*
X120401680Y-60369727D01*
X120406067Y-60359135D01*
X120517615Y-60545131D01*
X120706586Y-60753519D01*
X120932580Y-60921037D01*
X121186913Y-61041246D01*
X121320961Y-61081904D01*
X121543000Y-60959915D01*
X121543000Y-59817000D01*
X121523000Y-59817000D01*
X121523000Y-59563000D01*
X121543000Y-59563000D01*
X121543000Y-58420085D01*
X121320961Y-58298096D01*
X121186913Y-58338754D01*
X120932580Y-58458963D01*
X120706586Y-58626481D01*
X120517615Y-58834869D01*
X120406067Y-59020865D01*
X120401680Y-59010273D01*
X120244637Y-58775241D01*
X120044759Y-58575363D01*
X119809727Y-58418320D01*
X119548574Y-58310147D01*
X119271335Y-58255000D01*
X118988665Y-58255000D01*
X118711426Y-58310147D01*
X118450273Y-58418320D01*
X118215241Y-58575363D01*
X118015363Y-58775241D01*
X117860000Y-59007759D01*
X117704637Y-58775241D01*
X117504759Y-58575363D01*
X117269727Y-58418320D01*
X117008574Y-58310147D01*
X116731335Y-58255000D01*
X116448665Y-58255000D01*
X116171426Y-58310147D01*
X115910273Y-58418320D01*
X115675241Y-58575363D01*
X115475363Y-58775241D01*
X115320000Y-59007759D01*
X115164637Y-58775241D01*
X114964759Y-58575363D01*
X114729727Y-58418320D01*
X114468574Y-58310147D01*
X114191335Y-58255000D01*
X113908665Y-58255000D01*
X113631426Y-58310147D01*
X113370273Y-58418320D01*
X113135241Y-58575363D01*
X112935363Y-58775241D01*
X112778320Y-59010273D01*
X112670147Y-59271426D01*
X112615000Y-59548665D01*
X106095000Y-59548665D01*
X106095000Y-57835000D01*
X159736264Y-57835000D01*
X160605000Y-58703737D01*
G37*
X160605000Y-58703737D02*
X160605001Y-69816351D01*
X160601687Y-69850000D01*
X160614912Y-69984283D01*
X160640823Y-70069698D01*
X160654082Y-70113406D01*
X160717689Y-70232407D01*
X160733738Y-70251962D01*
X160781840Y-70310576D01*
X160781847Y-70310583D01*
X160803290Y-70336711D01*
X160829418Y-70358154D01*
X163145000Y-72673736D01*
X163145001Y-105126263D01*
X160829418Y-107441846D01*
X160803289Y-107463290D01*
X160781846Y-107489418D01*
X160781840Y-107489424D01*
X160747525Y-107531238D01*
X160717688Y-107567594D01*
X160654081Y-107686595D01*
X160626794Y-107776548D01*
X160617052Y-107808665D01*
X160614912Y-107815718D01*
X160605000Y-107916354D01*
X160605000Y-107916361D01*
X160601687Y-107950000D01*
X160605000Y-107983640D01*
X160605001Y-109805000D01*
X108635000Y-109805000D01*
X108635000Y-107150000D01*
X121751928Y-107150000D01*
X121751928Y-108750000D01*
X121764188Y-108874482D01*
X121800498Y-108994180D01*
X121859463Y-109104494D01*
X121938815Y-109201185D01*
X122035506Y-109280537D01*
X122145820Y-109339502D01*
X122265518Y-109375812D01*
X122390000Y-109388072D01*
X123990000Y-109388072D01*
X124114482Y-109375812D01*
X124234180Y-109339502D01*
X124344494Y-109280537D01*
X124441185Y-109201185D01*
X124520537Y-109104494D01*
X124579502Y-108994180D01*
X124615812Y-108874482D01*
X124616643Y-108866039D01*
X124815241Y-109064637D01*
X125050273Y-109221680D01*
X125311426Y-109329853D01*
X125588665Y-109385000D01*
X125871335Y-109385000D01*
X126148574Y-109329853D01*
X126409727Y-109221680D01*
X126644759Y-109064637D01*
X126844637Y-108864759D01*
X127000000Y-108632241D01*
X127155363Y-108864759D01*
X127355241Y-109064637D01*
X127590273Y-109221680D01*
X127851426Y-109329853D01*
X128128665Y-109385000D01*
X128411335Y-109385000D01*
X128688574Y-109329853D01*
X128949727Y-109221680D01*
X129184759Y-109064637D01*
X129384637Y-108864759D01*
X129540000Y-108632241D01*
X129695363Y-108864759D01*
X129895241Y-109064637D01*
X130130273Y-109221680D01*
X130391426Y-109329853D01*
X130668665Y-109385000D01*
X130951335Y-109385000D01*
X131228574Y-109329853D01*
X131489727Y-109221680D01*
X131724759Y-109064637D01*
X131924637Y-108864759D01*
X132080000Y-108632241D01*
X132235363Y-108864759D01*
X132435241Y-109064637D01*
X132670273Y-109221680D01*
X132931426Y-109329853D01*
X133208665Y-109385000D01*
X133491335Y-109385000D01*
X133768574Y-109329853D01*
X134029727Y-109221680D01*
X134264759Y-109064637D01*
X134464637Y-108864759D01*
X134621680Y-108629727D01*
X134626067Y-108619135D01*
X134737615Y-108805131D01*
X134926586Y-109013519D01*
X135152580Y-109181037D01*
X135406913Y-109301246D01*
X135540961Y-109341904D01*
X135763000Y-109219915D01*
X135763000Y-108077000D01*
X136017000Y-108077000D01*
X136017000Y-109219915D01*
X136239039Y-109341904D01*
X136373087Y-109301246D01*
X136627420Y-109181037D01*
X136853414Y-109013519D01*
X137042385Y-108805131D01*
X137160000Y-108609018D01*
X137277615Y-108805131D01*
X137466586Y-109013519D01*
X137692580Y-109181037D01*
X137946913Y-109301246D01*
X138080961Y-109341904D01*
X138303000Y-109219915D01*
X138303000Y-108077000D01*
X136017000Y-108077000D01*
X135763000Y-108077000D01*
X135743000Y-108077000D01*
X135743000Y-107823000D01*
X135763000Y-107823000D01*
X135763000Y-106680085D01*
X136017000Y-106680085D01*
X136017000Y-107823000D01*
X138303000Y-107823000D01*
X138303000Y-106680085D01*
X138080961Y-106558096D01*
X137946913Y-106598754D01*
X137692580Y-106718963D01*
X137466586Y-106886481D01*
X137277615Y-107094869D01*
X137160000Y-107290982D01*
X137042385Y-107094869D01*
X136853414Y-106886481D01*
X136627420Y-106718963D01*
X136373087Y-106598754D01*
X136239039Y-106558096D01*
X136017000Y-106680085D01*
X135763000Y-106680085D01*
X135540961Y-106558096D01*
X135406913Y-106598754D01*
X135152580Y-106718963D01*
X134926586Y-106886481D01*
X134737615Y-107094869D01*
X134626067Y-107280865D01*
X134621680Y-107270273D01*
X134464637Y-107035241D01*
X134264759Y-106835363D01*
X134029727Y-106678320D01*
X133768574Y-106570147D01*
X133491335Y-106515000D01*
X133208665Y-106515000D01*
X132931426Y-106570147D01*
X132670273Y-106678320D01*
X132435241Y-106835363D01*
X132235363Y-107035241D01*
X132080000Y-107267759D01*
X131924637Y-107035241D01*
X131724759Y-106835363D01*
X131489727Y-106678320D01*
X131228574Y-106570147D01*
X130951335Y-106515000D01*
X130668665Y-106515000D01*
X130391426Y-106570147D01*
X130130273Y-106678320D01*
X129895241Y-106835363D01*
X129695363Y-107035241D01*
X129540000Y-107267759D01*
X129384637Y-107035241D01*
X129184759Y-106835363D01*
X128949727Y-106678320D01*
X128688574Y-106570147D01*
X128411335Y-106515000D01*
X128128665Y-106515000D01*
X127851426Y-106570147D01*
X127590273Y-106678320D01*
X127355241Y-106835363D01*
X127155363Y-107035241D01*
X127000000Y-107267759D01*
X126844637Y-107035241D01*
X126644759Y-106835363D01*
X126409727Y-106678320D01*
X126148574Y-106570147D01*
X125871335Y-106515000D01*
X125588665Y-106515000D01*
X125311426Y-106570147D01*
X125050273Y-106678320D01*
X124815241Y-106835363D01*
X124616643Y-107033961D01*
X124615812Y-107025518D01*
X124579502Y-106905820D01*
X124520537Y-106795506D01*
X124441185Y-106698815D01*
X124344494Y-106619463D01*
X124234180Y-106560498D01*
X124114482Y-106524188D01*
X123990000Y-106511928D01*
X122390000Y-106511928D01*
X122265518Y-106524188D01*
X122145820Y-106560498D01*
X122035506Y-106619463D01*
X121938815Y-106698815D01*
X121859463Y-106795506D01*
X121800498Y-106905820D01*
X121764188Y-107025518D01*
X121751928Y-107150000D01*
X108635000Y-107150000D01*
X108635000Y-104305000D01*
X121116928Y-104305000D01*
X121129188Y-104429482D01*
X121165498Y-104549180D01*
X121224463Y-104659494D01*
X121303815Y-104756185D01*
X121400506Y-104835537D01*
X121510820Y-104894502D01*
X121630518Y-104930812D01*
X121755000Y-104943072D01*
X122269250Y-104940000D01*
X122428000Y-104781250D01*
X122428000Y-103632000D01*
X121278750Y-103632000D01*
X121120000Y-103790750D01*
X121116928Y-104305000D01*
X108635000Y-104305000D01*
X108635000Y-100750000D01*
X114081928Y-100750000D01*
X114081928Y-102450000D01*
X114094188Y-102574482D01*
X114130498Y-102694180D01*
X114189463Y-102804494D01*
X114268815Y-102901185D01*
X114365506Y-102980537D01*
X114475820Y-103039502D01*
X114595518Y-103075812D01*
X114720000Y-103088072D01*
X116420000Y-103088072D01*
X116544482Y-103075812D01*
X116664180Y-103039502D01*
X116774494Y-102980537D01*
X116871185Y-102901185D01*
X116950537Y-102804494D01*
X117009502Y-102694180D01*
X117045812Y-102574482D01*
X117058072Y-102450000D01*
X117058072Y-102425500D01*
X121184377Y-102425500D01*
X121165498Y-102460820D01*
X121129188Y-102580518D01*
X121116928Y-102705000D01*
X121120000Y-103219250D01*
X121278750Y-103378000D01*
X122428000Y-103378000D01*
X122428000Y-103358000D01*
X122682000Y-103358000D01*
X122682000Y-103378000D01*
X122702000Y-103378000D01*
X122702000Y-103632000D01*
X122682000Y-103632000D01*
X122682000Y-104781250D01*
X122840750Y-104940000D01*
X123355000Y-104943072D01*
X123479482Y-104930812D01*
X123599180Y-104894502D01*
X123709494Y-104835537D01*
X123806185Y-104756185D01*
X123885537Y-104659494D01*
X123944502Y-104549180D01*
X123980812Y-104429482D01*
X123981643Y-104421039D01*
X124180241Y-104619637D01*
X124415273Y-104776680D01*
X124676426Y-104884853D01*
X124953665Y-104940000D01*
X125236335Y-104940000D01*
X125513574Y-104884853D01*
X125774727Y-104776680D01*
X126009759Y-104619637D01*
X126209637Y-104419759D01*
X126365000Y-104187241D01*
X126520363Y-104419759D01*
X126720241Y-104619637D01*
X126955273Y-104776680D01*
X127216426Y-104884853D01*
X127493665Y-104940000D01*
X127776335Y-104940000D01*
X128053574Y-104884853D01*
X128314727Y-104776680D01*
X128549759Y-104619637D01*
X128749637Y-104419759D01*
X128905000Y-104187241D01*
X129060363Y-104419759D01*
X129260241Y-104619637D01*
X129495273Y-104776680D01*
X129756426Y-104884853D01*
X130033665Y-104940000D01*
X130316335Y-104940000D01*
X130593574Y-104884853D01*
X130854727Y-104776680D01*
X131089759Y-104619637D01*
X131289637Y-104419759D01*
X131445000Y-104187241D01*
X131600363Y-104419759D01*
X131800241Y-104619637D01*
X132035273Y-104776680D01*
X132296426Y-104884853D01*
X132573665Y-104940000D01*
X132856335Y-104940000D01*
X133133574Y-104884853D01*
X133394727Y-104776680D01*
X133629759Y-104619637D01*
X133829637Y-104419759D01*
X133985000Y-104187241D01*
X134140363Y-104419759D01*
X134340241Y-104619637D01*
X134575273Y-104776680D01*
X134836426Y-104884853D01*
X135113665Y-104940000D01*
X135396335Y-104940000D01*
X135673574Y-104884853D01*
X135934727Y-104776680D01*
X136169759Y-104619637D01*
X136369637Y-104419759D01*
X136526680Y-104184727D01*
X136531067Y-104174135D01*
X136642615Y-104360131D01*
X136831586Y-104568519D01*
X137057580Y-104736037D01*
X137311913Y-104856246D01*
X137445961Y-104896904D01*
X137668000Y-104774915D01*
X137668000Y-103632000D01*
X137648000Y-103632000D01*
X137648000Y-103378000D01*
X137668000Y-103378000D01*
X137668000Y-102235085D01*
X137922000Y-102235085D01*
X137922000Y-103378000D01*
X137942000Y-103378000D01*
X137942000Y-103632000D01*
X137922000Y-103632000D01*
X137922000Y-104774915D01*
X138144039Y-104896904D01*
X138278087Y-104856246D01*
X138532420Y-104736037D01*
X138758414Y-104568519D01*
X138947385Y-104360131D01*
X139058933Y-104174135D01*
X139063320Y-104184727D01*
X139220363Y-104419759D01*
X139420241Y-104619637D01*
X139655273Y-104776680D01*
X139916426Y-104884853D01*
X140144501Y-104930220D01*
X140144500Y-106775722D01*
X140055241Y-106835363D01*
X139855363Y-107035241D01*
X139698320Y-107270273D01*
X139693933Y-107280865D01*
X139582385Y-107094869D01*
X139393414Y-106886481D01*
X139167420Y-106718963D01*
X138913087Y-106598754D01*
X138779039Y-106558096D01*
X138557000Y-106680085D01*
X138557000Y-107823000D01*
X138577000Y-107823000D01*
X138577000Y-108077000D01*
X138557000Y-108077000D01*
X138557000Y-109219915D01*
X138779039Y-109341904D01*
X138913087Y-109301246D01*
X139167420Y-109181037D01*
X139393414Y-109013519D01*
X139582385Y-108805131D01*
X139693933Y-108619135D01*
X139698320Y-108629727D01*
X139855363Y-108864759D01*
X140055241Y-109064637D01*
X140290273Y-109221680D01*
X140551426Y-109329853D01*
X140828665Y-109385000D01*
X141111335Y-109385000D01*
X141388574Y-109329853D01*
X141649727Y-109221680D01*
X141884759Y-109064637D01*
X142084637Y-108864759D01*
X142241680Y-108629727D01*
X142349853Y-108368574D01*
X142405000Y-108091335D01*
X142405000Y-107808665D01*
X142349853Y-107531426D01*
X142241680Y-107270273D01*
X142084637Y-107035241D01*
X141884759Y-106835363D01*
X141795500Y-106775722D01*
X141795500Y-104330500D01*
X143362736Y-104330500D01*
X143400147Y-104518574D01*
X143508320Y-104779727D01*
X143665363Y-105014759D01*
X143865241Y-105214637D01*
X144100273Y-105371680D01*
X144361426Y-105479853D01*
X144638665Y-105535000D01*
X144921335Y-105535000D01*
X145198574Y-105479853D01*
X145459727Y-105371680D01*
X145694759Y-105214637D01*
X145894637Y-105014759D01*
X146051680Y-104779727D01*
X146159853Y-104518574D01*
X146215000Y-104241335D01*
X146215000Y-103958665D01*
X146159853Y-103681426D01*
X146051680Y-103420273D01*
X145894637Y-103185241D01*
X145694759Y-102985363D01*
X145494131Y-102851308D01*
X145521514Y-102836671D01*
X145593097Y-102592702D01*
X144780000Y-101779605D01*
X143966903Y-102592702D01*
X143992370Y-102679500D01*
X141509278Y-102679500D01*
X141449637Y-102590241D01*
X141249759Y-102390363D01*
X141014727Y-102233320D01*
X140753574Y-102125147D01*
X140476335Y-102070000D01*
X140193665Y-102070000D01*
X139916426Y-102125147D01*
X139655273Y-102233320D01*
X139420241Y-102390363D01*
X139220363Y-102590241D01*
X139063320Y-102825273D01*
X139058933Y-102835865D01*
X138947385Y-102649869D01*
X138758414Y-102441481D01*
X138532420Y-102273963D01*
X138278087Y-102153754D01*
X138144039Y-102113096D01*
X137922000Y-102235085D01*
X137668000Y-102235085D01*
X137445961Y-102113096D01*
X137311913Y-102153754D01*
X137057580Y-102273963D01*
X136831586Y-102441481D01*
X136642615Y-102649869D01*
X136531067Y-102835865D01*
X136526680Y-102825273D01*
X136369637Y-102590241D01*
X136169759Y-102390363D01*
X135934727Y-102233320D01*
X135673574Y-102125147D01*
X135396335Y-102070000D01*
X135113665Y-102070000D01*
X135008376Y-102090943D01*
X134587945Y-101670512D01*
X143339783Y-101670512D01*
X143381213Y-101950130D01*
X143476397Y-102216292D01*
X143543329Y-102341514D01*
X143787298Y-102413097D01*
X144600395Y-101600000D01*
X143787298Y-100786903D01*
X143543329Y-100858486D01*
X143422429Y-101113996D01*
X143353700Y-101388184D01*
X143339783Y-101670512D01*
X134587945Y-101670512D01*
X126342398Y-93424966D01*
X126316541Y-93393459D01*
X126190842Y-93290301D01*
X126047434Y-93213647D01*
X125891826Y-93166444D01*
X125770553Y-93154500D01*
X125770550Y-93154500D01*
X125730000Y-93150506D01*
X125689450Y-93154500D01*
X116804413Y-93154500D01*
X116723475Y-93033368D01*
X116516632Y-92826525D01*
X116273411Y-92664010D01*
X116003158Y-92552068D01*
X115716260Y-92495000D01*
X115423740Y-92495000D01*
X115136842Y-92552068D01*
X114866589Y-92664010D01*
X114623368Y-92826525D01*
X114416525Y-93033368D01*
X114254010Y-93276589D01*
X114142068Y-93546842D01*
X114085000Y-93833740D01*
X114085000Y-94126260D01*
X114142068Y-94413158D01*
X114254010Y-94683411D01*
X114416525Y-94926632D01*
X114623368Y-95133475D01*
X114797760Y-95250000D01*
X114623368Y-95366525D01*
X114416525Y-95573368D01*
X114254010Y-95816589D01*
X114142068Y-96086842D01*
X114085000Y-96373740D01*
X114085000Y-96666260D01*
X114142068Y-96953158D01*
X114254010Y-97223411D01*
X114416525Y-97466632D01*
X114623368Y-97673475D01*
X114797760Y-97790000D01*
X114623368Y-97906525D01*
X114416525Y-98113368D01*
X114254010Y-98356589D01*
X114142068Y-98626842D01*
X114085000Y-98913740D01*
X114085000Y-99206260D01*
X114142068Y-99493158D01*
X114254010Y-99763411D01*
X114416525Y-100006632D01*
X114548380Y-100138487D01*
X114475820Y-100160498D01*
X114365506Y-100219463D01*
X114268815Y-100298815D01*
X114189463Y-100395506D01*
X114130498Y-100505820D01*
X114094188Y-100625518D01*
X114081928Y-100750000D01*
X108635000Y-100750000D01*
X108635000Y-97823646D01*
X108638314Y-97790000D01*
X108625088Y-97655717D01*
X108585919Y-97526594D01*
X108522312Y-97407593D01*
X108436711Y-97303289D01*
X108332407Y-97217688D01*
X108213406Y-97154081D01*
X108084283Y-97114912D01*
X107983647Y-97105000D01*
X107950000Y-97101686D01*
X107916353Y-97105000D01*
X95935000Y-97105000D01*
X95935000Y-92396993D01*
X99552612Y-92396993D01*
X99618137Y-92635860D01*
X99865116Y-92751760D01*
X100129960Y-92817250D01*
X100402492Y-92829812D01*
X100672238Y-92788965D01*
X100928832Y-92696277D01*
X101041863Y-92635860D01*
X101107388Y-92396993D01*
X100330000Y-91619605D01*
X99552612Y-92396993D01*
X95935000Y-92396993D01*
X95935000Y-91512492D01*
X98940188Y-91512492D01*
X98981035Y-91782238D01*
X99073723Y-92038832D01*
X99134140Y-92151863D01*
X99373007Y-92217388D01*
X100150395Y-91440000D01*
X100509605Y-91440000D01*
X101286993Y-92217388D01*
X101525860Y-92151863D01*
X101641760Y-91904884D01*
X101707250Y-91640040D01*
X101719812Y-91367508D01*
X101678965Y-91097762D01*
X101586277Y-90841168D01*
X101525860Y-90728137D01*
X101290832Y-90663665D01*
X121120000Y-90663665D01*
X121120000Y-90946335D01*
X121175147Y-91223574D01*
X121283320Y-91484727D01*
X121440363Y-91719759D01*
X121640241Y-91919637D01*
X121875273Y-92076680D01*
X122136426Y-92184853D01*
X122413665Y-92240000D01*
X122696335Y-92240000D01*
X122973574Y-92184853D01*
X123234727Y-92076680D01*
X123469759Y-91919637D01*
X123669637Y-91719759D01*
X123825000Y-91487241D01*
X123980363Y-91719759D01*
X124180241Y-91919637D01*
X124415273Y-92076680D01*
X124676426Y-92184853D01*
X124953665Y-92240000D01*
X125236335Y-92240000D01*
X125513574Y-92184853D01*
X125774727Y-92076680D01*
X126009759Y-91919637D01*
X126209637Y-91719759D01*
X126365000Y-91487241D01*
X126520363Y-91719759D01*
X126720241Y-91919637D01*
X126955273Y-92076680D01*
X127216426Y-92184853D01*
X127493665Y-92240000D01*
X127776335Y-92240000D01*
X128053574Y-92184853D01*
X128314727Y-92076680D01*
X128549759Y-91919637D01*
X128749637Y-91719759D01*
X128905000Y-91487241D01*
X129060363Y-91719759D01*
X129260241Y-91919637D01*
X129495273Y-92076680D01*
X129756426Y-92184853D01*
X130033665Y-92240000D01*
X130316335Y-92240000D01*
X130593574Y-92184853D01*
X130854727Y-92076680D01*
X131089759Y-91919637D01*
X131289637Y-91719759D01*
X131445000Y-91487241D01*
X131600363Y-91719759D01*
X131800241Y-91919637D01*
X132035273Y-92076680D01*
X132296426Y-92184853D01*
X132573665Y-92240000D01*
X132856335Y-92240000D01*
X132961624Y-92219056D01*
X133778923Y-93036356D01*
X133804771Y-93067853D01*
X133836267Y-93093701D01*
X133836270Y-93093704D01*
X133930469Y-93171011D01*
X134010235Y-93213647D01*
X134073878Y-93247665D01*
X134229486Y-93294868D01*
X134350759Y-93306812D01*
X134350761Y-93306812D01*
X134391312Y-93310806D01*
X134431862Y-93306812D01*
X137010874Y-93306812D01*
X144057322Y-100353261D01*
X144038486Y-100363329D01*
X143966903Y-100607298D01*
X144780000Y-101420395D01*
X144794143Y-101406253D01*
X144973748Y-101585858D01*
X144959605Y-101600000D01*
X145772702Y-102413097D01*
X146016671Y-102341514D01*
X146025955Y-102321894D01*
X150304501Y-106600441D01*
X150304501Y-106775722D01*
X150215241Y-106835363D01*
X150015363Y-107035241D01*
X149860000Y-107267759D01*
X149704637Y-107035241D01*
X149504759Y-106835363D01*
X149269727Y-106678320D01*
X149008574Y-106570147D01*
X148731335Y-106515000D01*
X148448665Y-106515000D01*
X148171426Y-106570147D01*
X147910273Y-106678320D01*
X147675241Y-106835363D01*
X147475363Y-107035241D01*
X147320000Y-107267759D01*
X147164637Y-107035241D01*
X146964759Y-106835363D01*
X146729727Y-106678320D01*
X146468574Y-106570147D01*
X146191335Y-106515000D01*
X145908665Y-106515000D01*
X145631426Y-106570147D01*
X145370273Y-106678320D01*
X145135241Y-106835363D01*
X144935363Y-107035241D01*
X144778320Y-107270273D01*
X144670147Y-107531426D01*
X144615000Y-107808665D01*
X144615000Y-108091335D01*
X144670147Y-108368574D01*
X144778320Y-108629727D01*
X144935363Y-108864759D01*
X145135241Y-109064637D01*
X145370273Y-109221680D01*
X145631426Y-109329853D01*
X145908665Y-109385000D01*
X146191335Y-109385000D01*
X146468574Y-109329853D01*
X146729727Y-109221680D01*
X146964759Y-109064637D01*
X147164637Y-108864759D01*
X147320000Y-108632241D01*
X147475363Y-108864759D01*
X147675241Y-109064637D01*
X147910273Y-109221680D01*
X148171426Y-109329853D01*
X148448665Y-109385000D01*
X148731335Y-109385000D01*
X149008574Y-109329853D01*
X149269727Y-109221680D01*
X149504759Y-109064637D01*
X149704637Y-108864759D01*
X149860000Y-108632241D01*
X150015363Y-108864759D01*
X150215241Y-109064637D01*
X150450273Y-109221680D01*
X150711426Y-109329853D01*
X150988665Y-109385000D01*
X151271335Y-109385000D01*
X151548574Y-109329853D01*
X151809727Y-109221680D01*
X152044759Y-109064637D01*
X152244637Y-108864759D01*
X152400000Y-108632241D01*
X152555363Y-108864759D01*
X152755241Y-109064637D01*
X152990273Y-109221680D01*
X153251426Y-109329853D01*
X153528665Y-109385000D01*
X153811335Y-109385000D01*
X154088574Y-109329853D01*
X154349727Y-109221680D01*
X154584759Y-109064637D01*
X154784637Y-108864759D01*
X154940000Y-108632241D01*
X155095363Y-108864759D01*
X155295241Y-109064637D01*
X155530273Y-109221680D01*
X155791426Y-109329853D01*
X156068665Y-109385000D01*
X156351335Y-109385000D01*
X156628574Y-109329853D01*
X156889727Y-109221680D01*
X157124759Y-109064637D01*
X157324637Y-108864759D01*
X157480000Y-108632241D01*
X157635363Y-108864759D01*
X157835241Y-109064637D01*
X158070273Y-109221680D01*
X158331426Y-109329853D01*
X158608665Y-109385000D01*
X158891335Y-109385000D01*
X159168574Y-109329853D01*
X159429727Y-109221680D01*
X159664759Y-109064637D01*
X159864637Y-108864759D01*
X160021680Y-108629727D01*
X160129853Y-108368574D01*
X160185000Y-108091335D01*
X160185000Y-107808665D01*
X160129853Y-107531426D01*
X160021680Y-107270273D01*
X159864637Y-107035241D01*
X159664759Y-106835363D01*
X159429727Y-106678320D01*
X159168574Y-106570147D01*
X158891335Y-106515000D01*
X158608665Y-106515000D01*
X158503377Y-106535943D01*
X142217398Y-90249966D01*
X142191541Y-90218459D01*
X142065842Y-90115301D01*
X141922434Y-90038647D01*
X141766826Y-89991444D01*
X141645553Y-89979500D01*
X141645550Y-89979500D01*
X141605000Y-89975506D01*
X141564450Y-89979500D01*
X141509278Y-89979500D01*
X141449637Y-89890241D01*
X141249759Y-89690363D01*
X141014727Y-89533320D01*
X140753574Y-89425147D01*
X140476335Y-89370000D01*
X140193665Y-89370000D01*
X139916426Y-89425147D01*
X139655273Y-89533320D01*
X139420241Y-89690363D01*
X139220363Y-89890241D01*
X139065000Y-90122759D01*
X138909637Y-89890241D01*
X138709759Y-89690363D01*
X138474727Y-89533320D01*
X138213574Y-89425147D01*
X137936335Y-89370000D01*
X137653665Y-89370000D01*
X137376426Y-89425147D01*
X137115273Y-89533320D01*
X136880241Y-89690363D01*
X136680363Y-89890241D01*
X136525000Y-90122759D01*
X136369637Y-89890241D01*
X136169759Y-89690363D01*
X135934727Y-89533320D01*
X135673574Y-89425147D01*
X135396335Y-89370000D01*
X135113665Y-89370000D01*
X134836426Y-89425147D01*
X134575273Y-89533320D01*
X134340241Y-89690363D01*
X134140363Y-89890241D01*
X133985000Y-90122759D01*
X133829637Y-89890241D01*
X133629759Y-89690363D01*
X133394727Y-89533320D01*
X133133574Y-89425147D01*
X132856335Y-89370000D01*
X132573665Y-89370000D01*
X132296426Y-89425147D01*
X132035273Y-89533320D01*
X131800241Y-89690363D01*
X131600363Y-89890241D01*
X131445000Y-90122759D01*
X131289637Y-89890241D01*
X131089759Y-89690363D01*
X130854727Y-89533320D01*
X130593574Y-89425147D01*
X130316335Y-89370000D01*
X130033665Y-89370000D01*
X129756426Y-89425147D01*
X129495273Y-89533320D01*
X129260241Y-89690363D01*
X129060363Y-89890241D01*
X128905000Y-90122759D01*
X128749637Y-89890241D01*
X128549759Y-89690363D01*
X128314727Y-89533320D01*
X128053574Y-89425147D01*
X127776335Y-89370000D01*
X127697432Y-89370000D01*
X129881933Y-87185500D01*
X145280301Y-87185500D01*
X145320851Y-87189494D01*
X145361401Y-87185500D01*
X145361404Y-87185500D01*
X145482677Y-87173556D01*
X145638285Y-87126353D01*
X145781693Y-87049699D01*
X145907392Y-86946541D01*
X145933249Y-86915034D01*
X152870000Y-79978284D01*
X152870000Y-80151335D01*
X152925147Y-80428574D01*
X153033320Y-80689727D01*
X153190363Y-80924759D01*
X153390241Y-81124637D01*
X153622759Y-81280000D01*
X153390241Y-81435363D01*
X153190363Y-81635241D01*
X153033320Y-81870273D01*
X152925147Y-82131426D01*
X152870000Y-82408665D01*
X152870000Y-82691335D01*
X152925147Y-82968574D01*
X153033320Y-83229727D01*
X153190363Y-83464759D01*
X153390241Y-83664637D01*
X153625273Y-83821680D01*
X153886426Y-83929853D01*
X154163665Y-83985000D01*
X154446335Y-83985000D01*
X154723574Y-83929853D01*
X154984727Y-83821680D01*
X155219759Y-83664637D01*
X155419637Y-83464759D01*
X155576680Y-83229727D01*
X155684853Y-82968574D01*
X155740000Y-82691335D01*
X155740000Y-82408665D01*
X155684853Y-82131426D01*
X155576680Y-81870273D01*
X155419637Y-81635241D01*
X155219759Y-81435363D01*
X154987241Y-81280000D01*
X155219759Y-81124637D01*
X155419637Y-80924759D01*
X155576680Y-80689727D01*
X155684853Y-80428574D01*
X155740000Y-80151335D01*
X155740000Y-79868665D01*
X155684853Y-79591426D01*
X155576680Y-79330273D01*
X155419637Y-79095241D01*
X155219759Y-78895363D01*
X154987241Y-78740000D01*
X155219759Y-78584637D01*
X155419637Y-78384759D01*
X155576680Y-78149727D01*
X155684853Y-77888574D01*
X155740000Y-77611335D01*
X155740000Y-77328665D01*
X155684853Y-77051426D01*
X155576680Y-76790273D01*
X155419637Y-76555241D01*
X155219759Y-76355363D01*
X154987241Y-76200000D01*
X155219759Y-76044637D01*
X155419637Y-75844759D01*
X155576680Y-75609727D01*
X155684853Y-75348574D01*
X155740000Y-75071335D01*
X155740000Y-74788665D01*
X155684853Y-74511426D01*
X155576680Y-74250273D01*
X155419637Y-74015241D01*
X155219759Y-73815363D01*
X154987241Y-73660000D01*
X155219759Y-73504637D01*
X155419637Y-73304759D01*
X155576680Y-73069727D01*
X155684853Y-72808574D01*
X155740000Y-72531335D01*
X155740000Y-72248665D01*
X155684853Y-71971426D01*
X155576680Y-71710273D01*
X155419637Y-71475241D01*
X155219759Y-71275363D01*
X154987241Y-71120000D01*
X155219759Y-70964637D01*
X155381694Y-70802702D01*
X157936903Y-70802702D01*
X158008486Y-71046671D01*
X158263996Y-71167571D01*
X158538184Y-71236300D01*
X158820512Y-71250217D01*
X159100130Y-71208787D01*
X159366292Y-71113603D01*
X159491514Y-71046671D01*
X159563097Y-70802702D01*
X158750000Y-69989605D01*
X157936903Y-70802702D01*
X155381694Y-70802702D01*
X155419637Y-70764759D01*
X155576680Y-70529727D01*
X155684853Y-70268574D01*
X155740000Y-69991335D01*
X155740000Y-69880512D01*
X157309783Y-69880512D01*
X157351213Y-70160130D01*
X157446397Y-70426292D01*
X157513329Y-70551514D01*
X157757298Y-70623097D01*
X158570395Y-69810000D01*
X158929605Y-69810000D01*
X159742702Y-70623097D01*
X159986671Y-70551514D01*
X160107571Y-70296004D01*
X160176300Y-70021816D01*
X160190217Y-69739488D01*
X160148787Y-69459870D01*
X160053603Y-69193708D01*
X159986671Y-69068486D01*
X159742702Y-68996903D01*
X158929605Y-69810000D01*
X158570395Y-69810000D01*
X157757298Y-68996903D01*
X157513329Y-69068486D01*
X157392429Y-69323996D01*
X157323700Y-69598184D01*
X157309783Y-69880512D01*
X155740000Y-69880512D01*
X155740000Y-69708665D01*
X155684853Y-69431426D01*
X155576680Y-69170273D01*
X155419637Y-68935241D01*
X155219759Y-68735363D01*
X154987241Y-68580000D01*
X155219759Y-68424637D01*
X155419637Y-68224759D01*
X155576680Y-67989727D01*
X155684853Y-67728574D01*
X155740000Y-67451335D01*
X155740000Y-67168665D01*
X157315000Y-67168665D01*
X157315000Y-67451335D01*
X157370147Y-67728574D01*
X157478320Y-67989727D01*
X157635363Y-68224759D01*
X157835241Y-68424637D01*
X158035869Y-68558692D01*
X158008486Y-68573329D01*
X157936903Y-68817298D01*
X158750000Y-69630395D01*
X159563097Y-68817298D01*
X159491514Y-68573329D01*
X159462659Y-68559676D01*
X159664759Y-68424637D01*
X159864637Y-68224759D01*
X160021680Y-67989727D01*
X160129853Y-67728574D01*
X160185000Y-67451335D01*
X160185000Y-67168665D01*
X160129853Y-66891426D01*
X160021680Y-66630273D01*
X159864637Y-66395241D01*
X159664759Y-66195363D01*
X159429727Y-66038320D01*
X159168574Y-65930147D01*
X158891335Y-65875000D01*
X158608665Y-65875000D01*
X158331426Y-65930147D01*
X158070273Y-66038320D01*
X157835241Y-66195363D01*
X157635363Y-66395241D01*
X157478320Y-66630273D01*
X157370147Y-66891426D01*
X157315000Y-67168665D01*
X155740000Y-67168665D01*
X155684853Y-66891426D01*
X155576680Y-66630273D01*
X155419637Y-66395241D01*
X155219759Y-66195363D01*
X154984727Y-66038320D01*
X154723574Y-65930147D01*
X154446335Y-65875000D01*
X154163665Y-65875000D01*
X153886426Y-65930147D01*
X153682799Y-66014492D01*
X153682799Y-61125000D01*
X153811335Y-61125000D01*
X154088574Y-61069853D01*
X154349727Y-60961680D01*
X154584759Y-60804637D01*
X154784637Y-60604759D01*
X154940000Y-60372241D01*
X155095363Y-60604759D01*
X155295241Y-60804637D01*
X155530273Y-60961680D01*
X155791426Y-61069853D01*
X156068665Y-61125000D01*
X156351335Y-61125000D01*
X156628574Y-61069853D01*
X156889727Y-60961680D01*
X157124759Y-60804637D01*
X157324637Y-60604759D01*
X157480000Y-60372241D01*
X157635363Y-60604759D01*
X157835241Y-60804637D01*
X158070273Y-60961680D01*
X158331426Y-61069853D01*
X158608665Y-61125000D01*
X158891335Y-61125000D01*
X159168574Y-61069853D01*
X159429727Y-60961680D01*
X159664759Y-60804637D01*
X159864637Y-60604759D01*
X160021680Y-60369727D01*
X160129853Y-60108574D01*
X160185000Y-59831335D01*
X160185000Y-59548665D01*
X160129853Y-59271426D01*
X160021680Y-59010273D01*
X159864637Y-58775241D01*
X159664759Y-58575363D01*
X159429727Y-58418320D01*
X159168574Y-58310147D01*
X158891335Y-58255000D01*
X158608665Y-58255000D01*
X158331426Y-58310147D01*
X158070273Y-58418320D01*
X157835241Y-58575363D01*
X157635363Y-58775241D01*
X157480000Y-59007759D01*
X157324637Y-58775241D01*
X157124759Y-58575363D01*
X156889727Y-58418320D01*
X156628574Y-58310147D01*
X156351335Y-58255000D01*
X156068665Y-58255000D01*
X155791426Y-58310147D01*
X155530273Y-58418320D01*
X155295241Y-58575363D01*
X155095363Y-58775241D01*
X154940000Y-59007759D01*
X154784637Y-58775241D01*
X154584759Y-58575363D01*
X154349727Y-58418320D01*
X154088574Y-58310147D01*
X153811335Y-58255000D01*
X153528665Y-58255000D01*
X153251426Y-58310147D01*
X152990273Y-58418320D01*
X152755241Y-58575363D01*
X152555363Y-58775241D01*
X152400000Y-59007759D01*
X152244637Y-58775241D01*
X152044759Y-58575363D01*
X151809727Y-58418320D01*
X151548574Y-58310147D01*
X151271335Y-58255000D01*
X150988665Y-58255000D01*
X150711426Y-58310147D01*
X150450273Y-58418320D01*
X150215241Y-58575363D01*
X150015363Y-58775241D01*
X149860000Y-59007759D01*
X149704637Y-58775241D01*
X149504759Y-58575363D01*
X149269727Y-58418320D01*
X149008574Y-58310147D01*
X148731335Y-58255000D01*
X148448665Y-58255000D01*
X148171426Y-58310147D01*
X147910273Y-58418320D01*
X147675241Y-58575363D01*
X147475363Y-58775241D01*
X147320000Y-59007759D01*
X147164637Y-58775241D01*
X146964759Y-58575363D01*
X146729727Y-58418320D01*
X146468574Y-58310147D01*
X146191335Y-58255000D01*
X145908665Y-58255000D01*
X145631426Y-58310147D01*
X145370273Y-58418320D01*
X145135241Y-58575363D01*
X144935363Y-58775241D01*
X144780000Y-59007759D01*
X144624637Y-58775241D01*
X144424759Y-58575363D01*
X144189727Y-58418320D01*
X143928574Y-58310147D01*
X143651335Y-58255000D01*
X143368665Y-58255000D01*
X143091426Y-58310147D01*
X142830273Y-58418320D01*
X142595241Y-58575363D01*
X142395363Y-58775241D01*
X142240000Y-59007759D01*
X142084637Y-58775241D01*
X141884759Y-58575363D01*
X141649727Y-58418320D01*
X141388574Y-58310147D01*
X141111335Y-58255000D01*
X140828665Y-58255000D01*
X140551426Y-58310147D01*
X140290273Y-58418320D01*
X140055241Y-58575363D01*
X139855363Y-58775241D01*
X139698320Y-59010273D01*
X139590147Y-59271426D01*
X139535000Y-59548665D01*
X139535000Y-59831335D01*
X139590147Y-60108574D01*
X139698320Y-60369727D01*
X139855363Y-60604759D01*
X140055241Y-60804637D01*
X140290273Y-60961680D01*
X140551426Y-61069853D01*
X140828665Y-61125000D01*
X141111335Y-61125000D01*
X141216916Y-61103998D01*
X141230434Y-61115092D01*
X141309155Y-61179697D01*
X141309157Y-61179698D01*
X141452565Y-61256352D01*
X141608173Y-61303555D01*
X141729446Y-61315499D01*
X141729455Y-61315499D01*
X141741473Y-61316683D01*
X146296717Y-65871928D01*
X145885000Y-65871928D01*
X145760518Y-65884188D01*
X145640820Y-65920498D01*
X145530506Y-65979463D01*
X145433815Y-66058815D01*
X145354463Y-66155506D01*
X145295498Y-66265820D01*
X145259188Y-66385518D01*
X145246928Y-66510000D01*
X145246928Y-67580640D01*
X145073068Y-67754500D01*
X141509278Y-67754500D01*
X141449637Y-67665241D01*
X141249759Y-67465363D01*
X141014727Y-67308320D01*
X140753574Y-67200147D01*
X140476335Y-67145000D01*
X140193665Y-67145000D01*
X139916426Y-67200147D01*
X139655273Y-67308320D01*
X139420241Y-67465363D01*
X139220363Y-67665241D01*
X139086308Y-67865869D01*
X139071671Y-67838486D01*
X138827702Y-67766903D01*
X138014605Y-68580000D01*
X138028748Y-68594143D01*
X137849143Y-68773748D01*
X137835000Y-68759605D01*
X137021903Y-69572702D01*
X137047370Y-69659500D01*
X135316882Y-69659500D01*
X134317347Y-68659966D01*
X134309589Y-68650512D01*
X136394783Y-68650512D01*
X136436213Y-68930130D01*
X136531397Y-69196292D01*
X136598329Y-69321514D01*
X136842298Y-69393097D01*
X137655395Y-68580000D01*
X136842298Y-67766903D01*
X136598329Y-67838486D01*
X136477429Y-68093996D01*
X136408700Y-68368184D01*
X136394783Y-68650512D01*
X134309589Y-68650512D01*
X134291490Y-68628459D01*
X134165791Y-68525301D01*
X134022383Y-68448647D01*
X133866775Y-68401444D01*
X133770665Y-68391978D01*
X133751962Y-68363987D01*
X133566013Y-68178038D01*
X133540500Y-68160991D01*
X133540500Y-67729009D01*
X133566013Y-67711962D01*
X133690677Y-67587298D01*
X137021903Y-67587298D01*
X137835000Y-68400395D01*
X138648097Y-67587298D01*
X138576514Y-67343329D01*
X138321004Y-67222429D01*
X138046816Y-67153700D01*
X137764488Y-67139783D01*
X137484870Y-67181213D01*
X137218708Y-67276397D01*
X137093486Y-67343329D01*
X137021903Y-67587298D01*
X133690677Y-67587298D01*
X133751962Y-67526013D01*
X133898061Y-67307359D01*
X133998696Y-67064405D01*
X134050000Y-66806486D01*
X134050000Y-66543514D01*
X133998696Y-66285595D01*
X133898061Y-66042641D01*
X133751962Y-65823987D01*
X133566013Y-65638038D01*
X133347359Y-65491939D01*
X133104405Y-65391304D01*
X132846486Y-65340000D01*
X132583514Y-65340000D01*
X132325595Y-65391304D01*
X132082641Y-65491939D01*
X131863987Y-65638038D01*
X131678038Y-65823987D01*
X131531939Y-66042641D01*
X131431304Y-66285595D01*
X131380000Y-66543514D01*
X131380000Y-66806486D01*
X131431304Y-67064405D01*
X131531939Y-67307359D01*
X131678038Y-67526013D01*
X131863987Y-67711962D01*
X131889500Y-67729009D01*
X131889501Y-68160990D01*
X131863987Y-68178038D01*
X131678038Y-68363987D01*
X131531939Y-68582641D01*
X131431304Y-68825595D01*
X131380000Y-69083514D01*
X131380000Y-69346486D01*
X131431304Y-69604405D01*
X131531939Y-69847359D01*
X131678038Y-70066013D01*
X131863987Y-70251962D01*
X132082641Y-70398061D01*
X132292530Y-70485000D01*
X132082641Y-70571939D01*
X131863987Y-70718038D01*
X131678038Y-70903987D01*
X131531939Y-71122641D01*
X131431304Y-71365595D01*
X131380000Y-71623514D01*
X131380000Y-71886486D01*
X131431304Y-72144405D01*
X131531939Y-72387359D01*
X131678038Y-72606013D01*
X131863987Y-72791962D01*
X131889500Y-72809009D01*
X131889501Y-73240990D01*
X131863987Y-73258038D01*
X131678038Y-73443987D01*
X131531939Y-73662641D01*
X131431304Y-73905595D01*
X131380000Y-74163514D01*
X131380000Y-74426486D01*
X131431304Y-74684405D01*
X131531939Y-74927359D01*
X131678038Y-75146013D01*
X131863987Y-75331962D01*
X132082641Y-75478061D01*
X132292530Y-75565000D01*
X132082641Y-75651939D01*
X131863987Y-75798038D01*
X131678038Y-75983987D01*
X131531939Y-76202641D01*
X131431304Y-76445595D01*
X131380000Y-76703514D01*
X131380000Y-76966486D01*
X131431304Y-77224405D01*
X131531939Y-77467359D01*
X131678038Y-77686013D01*
X131863987Y-77871962D01*
X131889500Y-77889009D01*
X131889501Y-78320990D01*
X131863987Y-78338038D01*
X131678038Y-78523987D01*
X131531939Y-78742641D01*
X131431304Y-78985595D01*
X131380000Y-79243514D01*
X131380000Y-79506486D01*
X131431304Y-79764405D01*
X131531939Y-80007359D01*
X131678038Y-80226013D01*
X131863987Y-80411962D01*
X132082641Y-80558061D01*
X132325595Y-80658696D01*
X132583514Y-80710000D01*
X132846486Y-80710000D01*
X133104405Y-80658696D01*
X133347359Y-80558061D01*
X133566013Y-80411962D01*
X133570245Y-80407730D01*
X133727559Y-80565044D01*
X133753408Y-80596541D01*
X133784904Y-80622389D01*
X133784907Y-80622392D01*
X133879106Y-80699699D01*
X134022515Y-80776353D01*
X134178123Y-80823556D01*
X134299396Y-80835500D01*
X134299398Y-80835500D01*
X134339949Y-80839494D01*
X134380499Y-80835500D01*
X138984450Y-80835500D01*
X139025000Y-80839494D01*
X139065550Y-80835500D01*
X139065553Y-80835500D01*
X139186826Y-80823556D01*
X139342434Y-80776353D01*
X139485842Y-80699699D01*
X139611541Y-80596541D01*
X139637398Y-80565035D01*
X140048376Y-80154057D01*
X140153665Y-80175000D01*
X140436335Y-80175000D01*
X140713574Y-80119853D01*
X140974727Y-80011680D01*
X141209759Y-79854637D01*
X141409637Y-79654759D01*
X141469278Y-79565500D01*
X145315886Y-79565500D01*
X145305147Y-79591426D01*
X145250000Y-79868665D01*
X145250000Y-80151335D01*
X145305147Y-80428574D01*
X145413320Y-80689727D01*
X145570363Y-80924759D01*
X145770241Y-81124637D01*
X146004128Y-81280915D01*
X145943486Y-81313329D01*
X145871903Y-81557298D01*
X146685000Y-82370395D01*
X147498097Y-81557298D01*
X147426514Y-81313329D01*
X147362008Y-81282806D01*
X147364727Y-81281680D01*
X147599759Y-81124637D01*
X147799637Y-80924759D01*
X147956680Y-80689727D01*
X148064853Y-80428574D01*
X148120000Y-80151335D01*
X148120000Y-79868665D01*
X148099056Y-79763376D01*
X150304500Y-77557933D01*
X150304500Y-79454561D01*
X147931739Y-81827322D01*
X147921671Y-81808486D01*
X147677702Y-81736903D01*
X146864605Y-82550000D01*
X146878748Y-82564143D01*
X146699143Y-82743748D01*
X146685000Y-82729605D01*
X145871903Y-83542702D01*
X145943486Y-83786671D01*
X145963107Y-83795955D01*
X145494562Y-84264500D01*
X128310550Y-84264500D01*
X128270000Y-84260506D01*
X128229450Y-84264500D01*
X128229447Y-84264500D01*
X128108174Y-84276444D01*
X127952566Y-84323647D01*
X127809157Y-84400301D01*
X127737342Y-84459239D01*
X127683459Y-84503459D01*
X127657608Y-84534959D01*
X122801624Y-89390944D01*
X122696335Y-89370000D01*
X122413665Y-89370000D01*
X122136426Y-89425147D01*
X121875273Y-89533320D01*
X121640241Y-89690363D01*
X121440363Y-89890241D01*
X121283320Y-90125273D01*
X121175147Y-90386426D01*
X121120000Y-90663665D01*
X101290832Y-90663665D01*
X101286993Y-90662612D01*
X100509605Y-91440000D01*
X100150395Y-91440000D01*
X99373007Y-90662612D01*
X99134140Y-90728137D01*
X99018240Y-90975116D01*
X98952750Y-91239960D01*
X98940188Y-91512492D01*
X95935000Y-91512492D01*
X95935000Y-79425000D01*
X105376353Y-79425000D01*
X105410000Y-79428314D01*
X105443647Y-79425000D01*
X105464634Y-79422933D01*
X104433068Y-80454500D01*
X99100550Y-80454500D01*
X99060000Y-80450506D01*
X99019449Y-80454500D01*
X99019447Y-80454500D01*
X98898174Y-80466444D01*
X98742566Y-80513647D01*
X98599157Y-80590301D01*
X98504958Y-80667608D01*
X98504955Y-80667611D01*
X98473459Y-80693459D01*
X98447610Y-80724956D01*
X97869965Y-81302603D01*
X97838459Y-81328459D01*
X97788075Y-81389853D01*
X97735301Y-81454158D01*
X97731545Y-81461185D01*
X97658647Y-81597567D01*
X97611444Y-81753175D01*
X97605997Y-81808486D01*
X97595506Y-81915000D01*
X97599500Y-81955551D01*
X97599501Y-84426002D01*
X97595506Y-84466562D01*
X97611445Y-84628388D01*
X97658647Y-84783995D01*
X97735301Y-84927404D01*
X97788621Y-84992374D01*
X97838460Y-85053103D01*
X97869961Y-85078955D01*
X98500245Y-85709240D01*
X98526098Y-85740742D01*
X98622079Y-85819511D01*
X98958465Y-86155898D01*
X98945000Y-86223589D01*
X98945000Y-86496411D01*
X98998225Y-86763989D01*
X99102629Y-87016043D01*
X99254201Y-87242886D01*
X99447114Y-87435799D01*
X99673957Y-87587371D01*
X99776873Y-87630000D01*
X99673957Y-87672629D01*
X99447114Y-87824201D01*
X99254201Y-88017114D01*
X99102629Y-88243957D01*
X98998225Y-88496011D01*
X98945000Y-88763589D01*
X98945000Y-89036411D01*
X98998225Y-89303989D01*
X99102629Y-89556043D01*
X99254201Y-89782886D01*
X99447114Y-89975799D01*
X99673957Y-90127371D01*
X99773279Y-90168511D01*
X99731168Y-90183723D01*
X99618137Y-90244140D01*
X99552612Y-90483007D01*
X100330000Y-91260395D01*
X101107388Y-90483007D01*
X101041863Y-90244140D01*
X100883523Y-90169836D01*
X100986043Y-90127371D01*
X101212886Y-89975799D01*
X101405799Y-89782886D01*
X101557371Y-89556043D01*
X101661775Y-89303989D01*
X101715000Y-89036411D01*
X101715000Y-88763589D01*
X101661775Y-88496011D01*
X101557371Y-88243957D01*
X101405799Y-88017114D01*
X101212886Y-87824201D01*
X100986043Y-87672629D01*
X100883127Y-87630000D01*
X100986043Y-87587371D01*
X101212886Y-87435799D01*
X101405799Y-87242886D01*
X101557371Y-87016043D01*
X101661775Y-86763989D01*
X101715000Y-86496411D01*
X101715000Y-86223589D01*
X101661775Y-85956011D01*
X101557371Y-85703957D01*
X101405799Y-85477114D01*
X101212886Y-85284201D01*
X101096517Y-85206445D01*
X101204482Y-85195812D01*
X101324180Y-85159502D01*
X101434494Y-85100537D01*
X101531185Y-85021185D01*
X101610537Y-84924494D01*
X101669502Y-84814180D01*
X101705812Y-84694482D01*
X101718072Y-84570000D01*
X101718072Y-83070000D01*
X101705812Y-82945518D01*
X101669502Y-82825820D01*
X101610537Y-82715506D01*
X101532578Y-82620512D01*
X145244783Y-82620512D01*
X145286213Y-82900130D01*
X145381397Y-83166292D01*
X145448329Y-83291514D01*
X145692298Y-83363097D01*
X146505395Y-82550000D01*
X145692298Y-81736903D01*
X145448329Y-81808486D01*
X145327429Y-82063996D01*
X145258700Y-82338184D01*
X145244783Y-82620512D01*
X101532578Y-82620512D01*
X101531185Y-82618815D01*
X101434494Y-82539463D01*
X101324180Y-82480498D01*
X101204482Y-82444188D01*
X101080000Y-82431928D01*
X99580000Y-82431928D01*
X99455518Y-82444188D01*
X99335820Y-82480498D01*
X99250500Y-82526103D01*
X99250500Y-82256933D01*
X99401933Y-82105500D01*
X104734450Y-82105500D01*
X104775000Y-82109494D01*
X104815550Y-82105500D01*
X104815553Y-82105500D01*
X104936826Y-82093556D01*
X105092434Y-82046353D01*
X105235842Y-81969699D01*
X105361541Y-81866541D01*
X105387398Y-81835034D01*
X107235045Y-79987389D01*
X107266541Y-79961541D01*
X107292389Y-79930045D01*
X107292392Y-79930042D01*
X107369699Y-79835843D01*
X107446353Y-79692434D01*
X107446353Y-79692433D01*
X107493556Y-79536826D01*
X107505500Y-79415553D01*
X107505500Y-79415551D01*
X107509494Y-79375000D01*
X107505500Y-79334450D01*
X107505500Y-79010000D01*
X113331928Y-79010000D01*
X113331928Y-81010000D01*
X113344188Y-81134482D01*
X113380498Y-81254180D01*
X113439463Y-81364494D01*
X113518815Y-81461185D01*
X113615506Y-81540537D01*
X113725820Y-81599502D01*
X113845518Y-81635812D01*
X113970000Y-81648072D01*
X117170000Y-81648072D01*
X117294482Y-81635812D01*
X117414180Y-81599502D01*
X117524494Y-81540537D01*
X117621185Y-81461185D01*
X117700537Y-81364494D01*
X117759502Y-81254180D01*
X117795812Y-81134482D01*
X117808072Y-81010000D01*
X117808072Y-79010000D01*
X117795812Y-78885518D01*
X117759502Y-78765820D01*
X117700537Y-78655506D01*
X117621185Y-78558815D01*
X117524494Y-78479463D01*
X117414180Y-78420498D01*
X117294482Y-78384188D01*
X117170000Y-78371928D01*
X113970000Y-78371928D01*
X113845518Y-78384188D01*
X113725820Y-78420498D01*
X113615506Y-78479463D01*
X113518815Y-78558815D01*
X113439463Y-78655506D01*
X113380498Y-78765820D01*
X113344188Y-78885518D01*
X113331928Y-79010000D01*
X107505500Y-79010000D01*
X107505500Y-78154108D01*
X107614193Y-78045415D01*
X107709956Y-78309814D01*
X107999571Y-78450704D01*
X108311108Y-78532384D01*
X108632595Y-78551718D01*
X108951675Y-78507961D01*
X109256088Y-78402795D01*
X109430044Y-78309814D01*
X109525808Y-78045413D01*
X108570000Y-77089605D01*
X108555858Y-77103748D01*
X108376253Y-76924143D01*
X108390395Y-76910000D01*
X108749605Y-76910000D01*
X109705413Y-77865808D01*
X109969814Y-77770044D01*
X110110704Y-77480429D01*
X110192384Y-77168892D01*
X110211718Y-76847405D01*
X110167961Y-76528325D01*
X110062795Y-76223912D01*
X109969814Y-76049956D01*
X109705413Y-75954192D01*
X108749605Y-76910000D01*
X108390395Y-76910000D01*
X108376253Y-76895858D01*
X108555858Y-76716253D01*
X108570000Y-76730395D01*
X109525808Y-75774587D01*
X109430044Y-75510186D01*
X109140429Y-75369296D01*
X108828892Y-75287616D01*
X108507405Y-75268282D01*
X108188325Y-75312039D01*
X107883912Y-75417205D01*
X107709956Y-75510186D01*
X107614193Y-75774585D01*
X107505500Y-75665892D01*
X107505500Y-73157739D01*
X107527748Y-73179987D01*
X107795537Y-73358918D01*
X108093088Y-73482168D01*
X108408967Y-73545000D01*
X108731033Y-73545000D01*
X109046912Y-73482168D01*
X109344463Y-73358918D01*
X109612252Y-73179987D01*
X109839987Y-72952252D01*
X109984816Y-72735500D01*
X116644450Y-72735500D01*
X116685000Y-72739494D01*
X116725550Y-72735500D01*
X116725553Y-72735500D01*
X116846826Y-72723556D01*
X117002434Y-72676353D01*
X117145842Y-72599699D01*
X117271541Y-72496541D01*
X117297398Y-72465034D01*
X122261933Y-67500500D01*
X126580991Y-67500500D01*
X126598038Y-67526013D01*
X126783987Y-67711962D01*
X127002641Y-67858061D01*
X127212530Y-67945000D01*
X127002641Y-68031939D01*
X126783987Y-68178038D01*
X126598038Y-68363987D01*
X126451939Y-68582641D01*
X126351304Y-68825595D01*
X126300000Y-69083514D01*
X126300000Y-69346486D01*
X126351304Y-69604405D01*
X126451939Y-69847359D01*
X126598038Y-70066013D01*
X126783987Y-70251962D01*
X127002641Y-70398061D01*
X127212530Y-70485000D01*
X127002641Y-70571939D01*
X126783987Y-70718038D01*
X126598038Y-70903987D01*
X126477424Y-71084500D01*
X124484816Y-71084500D01*
X124339987Y-70867748D01*
X124112252Y-70640013D01*
X123844463Y-70461082D01*
X123546912Y-70337832D01*
X123231033Y-70275000D01*
X122908967Y-70275000D01*
X122593088Y-70337832D01*
X122295537Y-70461082D01*
X122027748Y-70640013D01*
X121800013Y-70867748D01*
X121621082Y-71135537D01*
X121497832Y-71433088D01*
X121435000Y-71748967D01*
X121435000Y-72071033D01*
X121497832Y-72386912D01*
X121621082Y-72684463D01*
X121800013Y-72952252D01*
X122027748Y-73179987D01*
X122124935Y-73244925D01*
X122114192Y-73274587D01*
X123070000Y-74230395D01*
X124025808Y-73274587D01*
X124015065Y-73244925D01*
X124112252Y-73179987D01*
X124339987Y-72952252D01*
X124484816Y-72735500D01*
X126727525Y-72735500D01*
X126783987Y-72791962D01*
X127002641Y-72938061D01*
X127212530Y-73025000D01*
X127002641Y-73111939D01*
X126783987Y-73258038D01*
X126598038Y-73443987D01*
X126451939Y-73662641D01*
X126351304Y-73905595D01*
X126300000Y-74163514D01*
X126300000Y-74426486D01*
X126351304Y-74684405D01*
X126451939Y-74927359D01*
X126598038Y-75146013D01*
X126783987Y-75331962D01*
X127002641Y-75478061D01*
X127212530Y-75565000D01*
X127002641Y-75651939D01*
X126783987Y-75798038D01*
X126598038Y-75983987D01*
X126530878Y-76084500D01*
X124708072Y-76084500D01*
X124708072Y-75910000D01*
X124695812Y-75785518D01*
X124659502Y-75665820D01*
X124600537Y-75555506D01*
X124521185Y-75458815D01*
X124424494Y-75379463D01*
X124320777Y-75324024D01*
X124469814Y-75270044D01*
X124610704Y-74980429D01*
X124692384Y-74668892D01*
X124711718Y-74347405D01*
X124667961Y-74028325D01*
X124562795Y-73723912D01*
X124469814Y-73549956D01*
X124205413Y-73454192D01*
X123249605Y-74410000D01*
X123263748Y-74424143D01*
X123084143Y-74603748D01*
X123070000Y-74589605D01*
X123055858Y-74603748D01*
X122876253Y-74424143D01*
X122890395Y-74410000D01*
X121934587Y-73454192D01*
X121670186Y-73549956D01*
X121529296Y-73839571D01*
X121447616Y-74151108D01*
X121428282Y-74472595D01*
X121472039Y-74791675D01*
X121577205Y-75096088D01*
X121670186Y-75270044D01*
X121819223Y-75324024D01*
X121715506Y-75379463D01*
X121618815Y-75458815D01*
X121539463Y-75555506D01*
X121480498Y-75665820D01*
X121444188Y-75785518D01*
X121431928Y-75910000D01*
X121431928Y-77910000D01*
X121444188Y-78034482D01*
X121480498Y-78154180D01*
X121539463Y-78264494D01*
X121618815Y-78361185D01*
X121715506Y-78440537D01*
X121825820Y-78499502D01*
X121945518Y-78535812D01*
X122070000Y-78548072D01*
X124070000Y-78548072D01*
X124194482Y-78535812D01*
X124314180Y-78499502D01*
X124424494Y-78440537D01*
X124521185Y-78361185D01*
X124600537Y-78264494D01*
X124659502Y-78154180D01*
X124695812Y-78034482D01*
X124708072Y-77910000D01*
X124708072Y-77735500D01*
X126647525Y-77735500D01*
X126783987Y-77871962D01*
X127002641Y-78018061D01*
X127212530Y-78105000D01*
X127002641Y-78191939D01*
X126783987Y-78338038D01*
X126598038Y-78523987D01*
X126451939Y-78742641D01*
X126351304Y-78985595D01*
X126300000Y-79243514D01*
X126300000Y-79506486D01*
X126351304Y-79764405D01*
X126451939Y-80007359D01*
X126598038Y-80226013D01*
X126783987Y-80411962D01*
X127002641Y-80558061D01*
X127245595Y-80658696D01*
X127503514Y-80710000D01*
X127766486Y-80710000D01*
X128024405Y-80658696D01*
X128267359Y-80558061D01*
X128486013Y-80411962D01*
X128671962Y-80226013D01*
X128818061Y-80007359D01*
X128918696Y-79764405D01*
X128970000Y-79506486D01*
X128970000Y-79243514D01*
X128918696Y-78985595D01*
X128818061Y-78742641D01*
X128671962Y-78523987D01*
X128486013Y-78338038D01*
X128267359Y-78191939D01*
X128057470Y-78105000D01*
X128267359Y-78018061D01*
X128486013Y-77871962D01*
X128671962Y-77686013D01*
X128818061Y-77467359D01*
X128918696Y-77224405D01*
X128970000Y-76966486D01*
X128970000Y-76703514D01*
X128918696Y-76445595D01*
X128818061Y-76202641D01*
X128671962Y-75983987D01*
X128486013Y-75798038D01*
X128267359Y-75651939D01*
X128057470Y-75565000D01*
X128267359Y-75478061D01*
X128486013Y-75331962D01*
X128671962Y-75146013D01*
X128818061Y-74927359D01*
X128918696Y-74684405D01*
X128970000Y-74426486D01*
X128970000Y-74163514D01*
X128918696Y-73905595D01*
X128818061Y-73662641D01*
X128671962Y-73443987D01*
X128486013Y-73258038D01*
X128267359Y-73111939D01*
X128057470Y-73025000D01*
X128267359Y-72938061D01*
X128486013Y-72791962D01*
X128671962Y-72606013D01*
X128818061Y-72387359D01*
X128918696Y-72144405D01*
X128970000Y-71886486D01*
X128970000Y-71623514D01*
X128918696Y-71365595D01*
X128818061Y-71122641D01*
X128671962Y-70903987D01*
X128486013Y-70718038D01*
X128267359Y-70571939D01*
X128057470Y-70485000D01*
X128267359Y-70398061D01*
X128486013Y-70251962D01*
X128671962Y-70066013D01*
X128818061Y-69847359D01*
X128918696Y-69604405D01*
X128970000Y-69346486D01*
X128970000Y-69083514D01*
X128918696Y-68825595D01*
X128818061Y-68582641D01*
X128671962Y-68363987D01*
X128486013Y-68178038D01*
X128267359Y-68031939D01*
X128057470Y-67945000D01*
X128267359Y-67858061D01*
X128486013Y-67711962D01*
X128671962Y-67526013D01*
X128818061Y-67307359D01*
X128918696Y-67064405D01*
X128970000Y-66806486D01*
X128970000Y-66543514D01*
X128918696Y-66285595D01*
X128818061Y-66042641D01*
X128671962Y-65823987D01*
X128486013Y-65638038D01*
X128267359Y-65491939D01*
X128024405Y-65391304D01*
X127766486Y-65340000D01*
X127503514Y-65340000D01*
X127245595Y-65391304D01*
X127002641Y-65491939D01*
X126783987Y-65638038D01*
X126598038Y-65823987D01*
X126580991Y-65849500D01*
X121960550Y-65849500D01*
X121920000Y-65845506D01*
X121879449Y-65849500D01*
X121879447Y-65849500D01*
X121758174Y-65861444D01*
X121602566Y-65908647D01*
X121459157Y-65985301D01*
X121397596Y-66035823D01*
X121333459Y-66088459D01*
X121307607Y-66119960D01*
X117808072Y-69619496D01*
X117808072Y-67810000D01*
X117795812Y-67685518D01*
X117759502Y-67565820D01*
X117700537Y-67455506D01*
X117621185Y-67358815D01*
X117524494Y-67279463D01*
X117414180Y-67220498D01*
X117294482Y-67184188D01*
X117170000Y-67171928D01*
X113970000Y-67171928D01*
X113845518Y-67184188D01*
X113725820Y-67220498D01*
X113615506Y-67279463D01*
X113518815Y-67358815D01*
X113439463Y-67455506D01*
X113380498Y-67565820D01*
X113344188Y-67685518D01*
X113331928Y-67810000D01*
X113331928Y-69810000D01*
X113344188Y-69934482D01*
X113380498Y-70054180D01*
X113439463Y-70164494D01*
X113518815Y-70261185D01*
X113615506Y-70340537D01*
X113725820Y-70399502D01*
X113845518Y-70435812D01*
X113970000Y-70448072D01*
X116979496Y-70448072D01*
X116343068Y-71084500D01*
X109984816Y-71084500D01*
X109839987Y-70867748D01*
X109612252Y-70640013D01*
X109344463Y-70461082D01*
X109046912Y-70337832D01*
X108731033Y-70275000D01*
X108408967Y-70275000D01*
X108093088Y-70337832D01*
X107795537Y-70461082D01*
X107527748Y-70640013D01*
X107505500Y-70662261D01*
X107505500Y-69670267D01*
X111580268Y-65595500D01*
X121629450Y-65595500D01*
X121670000Y-65599494D01*
X121710550Y-65595500D01*
X121710553Y-65595500D01*
X121831826Y-65583556D01*
X121987434Y-65536353D01*
X122130842Y-65459699D01*
X122256541Y-65356541D01*
X122282398Y-65325034D01*
X126503377Y-61104057D01*
X126608665Y-61125000D01*
X126891335Y-61125000D01*
X127168574Y-61069853D01*
X127429727Y-60961680D01*
X127664759Y-60804637D01*
X127864637Y-60604759D01*
X128020000Y-60372241D01*
X128175363Y-60604759D01*
X128375241Y-60804637D01*
X128610273Y-60961680D01*
X128871426Y-61069853D01*
X129148665Y-61125000D01*
X129431335Y-61125000D01*
X129708574Y-61069853D01*
X129969727Y-60961680D01*
X130204759Y-60804637D01*
X130404637Y-60604759D01*
X130560000Y-60372241D01*
X130715363Y-60604759D01*
X130915241Y-60804637D01*
X131150273Y-60961680D01*
X131411426Y-61069853D01*
X131688665Y-61125000D01*
X131971335Y-61125000D01*
X132248574Y-61069853D01*
X132509727Y-60961680D01*
X132744759Y-60804637D01*
X132944637Y-60604759D01*
X133100000Y-60372241D01*
X133255363Y-60604759D01*
X133455241Y-60804637D01*
X133690273Y-60961680D01*
X133951426Y-61069853D01*
X134228665Y-61125000D01*
X134511335Y-61125000D01*
X134788574Y-61069853D01*
X135049727Y-60961680D01*
X135284759Y-60804637D01*
X135484637Y-60604759D01*
X135640000Y-60372241D01*
X135795363Y-60604759D01*
X135995241Y-60804637D01*
X136230273Y-60961680D01*
X136491426Y-61069853D01*
X136768665Y-61125000D01*
X137051335Y-61125000D01*
X137328574Y-61069853D01*
X137589727Y-60961680D01*
X137824759Y-60804637D01*
X138024637Y-60604759D01*
X138181680Y-60369727D01*
X138289853Y-60108574D01*
X138345000Y-59831335D01*
X138345000Y-59548665D01*
X138289853Y-59271426D01*
X138181680Y-59010273D01*
X138024637Y-58775241D01*
X137824759Y-58575363D01*
X137589727Y-58418320D01*
X137328574Y-58310147D01*
X137051335Y-58255000D01*
X136768665Y-58255000D01*
X136491426Y-58310147D01*
X136230273Y-58418320D01*
X135995241Y-58575363D01*
X135795363Y-58775241D01*
X135640000Y-59007759D01*
X135484637Y-58775241D01*
X135284759Y-58575363D01*
X135049727Y-58418320D01*
X134788574Y-58310147D01*
X134511335Y-58255000D01*
X134228665Y-58255000D01*
X133951426Y-58310147D01*
X133690273Y-58418320D01*
X133455241Y-58575363D01*
X133255363Y-58775241D01*
X133100000Y-59007759D01*
X132944637Y-58775241D01*
X132744759Y-58575363D01*
X132509727Y-58418320D01*
X132248574Y-58310147D01*
X131971335Y-58255000D01*
X131688665Y-58255000D01*
X131411426Y-58310147D01*
X131150273Y-58418320D01*
X130915241Y-58575363D01*
X130715363Y-58775241D01*
X130560000Y-59007759D01*
X130404637Y-58775241D01*
X130204759Y-58575363D01*
X129969727Y-58418320D01*
X129708574Y-58310147D01*
X129431335Y-58255000D01*
X129148665Y-58255000D01*
X128871426Y-58310147D01*
X128610273Y-58418320D01*
X128375241Y-58575363D01*
X128175363Y-58775241D01*
X128020000Y-59007759D01*
X127864637Y-58775241D01*
X127664759Y-58575363D01*
X127429727Y-58418320D01*
X127168574Y-58310147D01*
X126891335Y-58255000D01*
X126608665Y-58255000D01*
X126331426Y-58310147D01*
X126070273Y-58418320D01*
X125835241Y-58575363D01*
X125635363Y-58775241D01*
X125480000Y-59007759D01*
X125324637Y-58775241D01*
X125124759Y-58575363D01*
X124889727Y-58418320D01*
X124628574Y-58310147D01*
X124351335Y-58255000D01*
X124068665Y-58255000D01*
X123791426Y-58310147D01*
X123530273Y-58418320D01*
X123295241Y-58575363D01*
X123095363Y-58775241D01*
X122938320Y-59010273D01*
X122933933Y-59020865D01*
X122822385Y-58834869D01*
X122633414Y-58626481D01*
X122407420Y-58458963D01*
X122153087Y-58338754D01*
X122019039Y-58298096D01*
X121797000Y-58420085D01*
X121797000Y-59563000D01*
X121817000Y-59563000D01*
X121817000Y-59817000D01*
X121797000Y-59817000D01*
X121797000Y-60959915D01*
X122019039Y-61081904D01*
X122153087Y-61041246D01*
X122407420Y-60921037D01*
X122633414Y-60753519D01*
X122822385Y-60545131D01*
X122933933Y-60359135D01*
X122938320Y-60369727D01*
X123095363Y-60604759D01*
X123295241Y-60804637D01*
X123530273Y-60961680D01*
X123791426Y-61069853D01*
X124068665Y-61125000D01*
X124147567Y-61125000D01*
X121328068Y-63944500D01*
X111278885Y-63944500D01*
X111238334Y-63940506D01*
X111197784Y-63944500D01*
X111197782Y-63944500D01*
X111076509Y-63956444D01*
X110920901Y-64003647D01*
X110777492Y-64080301D01*
X110738391Y-64112391D01*
X110651794Y-64183459D01*
X110625943Y-64214959D01*
X106124966Y-68715937D01*
X106095000Y-68740529D01*
X106095000Y-59548665D01*
X112615000Y-59548665D01*
X112615000Y-59831335D01*
X112670147Y-60108574D01*
X112778320Y-60369727D01*
X112935363Y-60604759D01*
X113135241Y-60804637D01*
X113370273Y-60961680D01*
X113631426Y-61069853D01*
X113908665Y-61125000D01*
X114191335Y-61125000D01*
X114468574Y-61069853D01*
X114729727Y-60961680D01*
X114964759Y-60804637D01*
X115164637Y-60604759D01*
X115320000Y-60372241D01*
X115475363Y-60604759D01*
X115675241Y-60804637D01*
X115910273Y-60961680D01*
X116171426Y-61069853D01*
X116448665Y-61125000D01*
X116731335Y-61125000D01*
X117008574Y-61069853D01*
X117269727Y-60961680D01*
X117504759Y-60804637D01*
X117704637Y-60604759D01*
X117860000Y-60372241D01*
X118015363Y-60604759D01*
X118215241Y-60804637D01*
X118450273Y-60961680D01*
X118711426Y-61069853D01*
X118988665Y-61125000D01*
X119271335Y-61125000D01*
X119548574Y-61069853D01*
X119809727Y-60961680D01*
X120044759Y-60804637D01*
X120244637Y-60604759D01*
X120401680Y-60369727D01*
X120406067Y-60359135D01*
X120517615Y-60545131D01*
X120706586Y-60753519D01*
X120932580Y-60921037D01*
X121186913Y-61041246D01*
X121320961Y-61081904D01*
X121543000Y-60959915D01*
X121543000Y-59817000D01*
X121523000Y-59817000D01*
X121523000Y-59563000D01*
X121543000Y-59563000D01*
X121543000Y-58420085D01*
X121320961Y-58298096D01*
X121186913Y-58338754D01*
X120932580Y-58458963D01*
X120706586Y-58626481D01*
X120517615Y-58834869D01*
X120406067Y-59020865D01*
X120401680Y-59010273D01*
X120244637Y-58775241D01*
X120044759Y-58575363D01*
X119809727Y-58418320D01*
X119548574Y-58310147D01*
X119271335Y-58255000D01*
X118988665Y-58255000D01*
X118711426Y-58310147D01*
X118450273Y-58418320D01*
X118215241Y-58575363D01*
X118015363Y-58775241D01*
X117860000Y-59007759D01*
X117704637Y-58775241D01*
X117504759Y-58575363D01*
X117269727Y-58418320D01*
X117008574Y-58310147D01*
X116731335Y-58255000D01*
X116448665Y-58255000D01*
X116171426Y-58310147D01*
X115910273Y-58418320D01*
X115675241Y-58575363D01*
X115475363Y-58775241D01*
X115320000Y-59007759D01*
X115164637Y-58775241D01*
X114964759Y-58575363D01*
X114729727Y-58418320D01*
X114468574Y-58310147D01*
X114191335Y-58255000D01*
X113908665Y-58255000D01*
X113631426Y-58310147D01*
X113370273Y-58418320D01*
X113135241Y-58575363D01*
X112935363Y-58775241D01*
X112778320Y-59010273D01*
X112670147Y-59271426D01*
X112615000Y-59548665D01*
X106095000Y-59548665D01*
X106095000Y-57835000D01*
X159736264Y-57835000D01*
X160605000Y-58703737D01*
G36*
X145305147Y-74511426D02*
G01*
X145250000Y-74788665D01*
X145250000Y-75071335D01*
X145305147Y-75348574D01*
X145413320Y-75609727D01*
X145570363Y-75844759D01*
X145770241Y-76044637D01*
X146002759Y-76200000D01*
X145770241Y-76355363D01*
X145570363Y-76555241D01*
X145413320Y-76790273D01*
X145305147Y-77051426D01*
X145250000Y-77328665D01*
X145250000Y-77611335D01*
X145270944Y-77716624D01*
X145073068Y-77914500D01*
X141469278Y-77914500D01*
X141409637Y-77825241D01*
X141209759Y-77625363D01*
X140974727Y-77468320D01*
X140713574Y-77360147D01*
X140436335Y-77305000D01*
X140153665Y-77305000D01*
X139876426Y-77360147D01*
X139615273Y-77468320D01*
X139380241Y-77625363D01*
X139180363Y-77825241D01*
X139046308Y-78025869D01*
X139031671Y-77998486D01*
X138787702Y-77926903D01*
X137974605Y-78740000D01*
X137988748Y-78754143D01*
X137809143Y-78933748D01*
X137795000Y-78919605D01*
X137780858Y-78933748D01*
X137601253Y-78754143D01*
X137615395Y-78740000D01*
X136802298Y-77926903D01*
X136558329Y-77998486D01*
X136437429Y-78253996D01*
X136368700Y-78528184D01*
X136354783Y-78810512D01*
X136396213Y-79090130D01*
X136429961Y-79184500D01*
X134681882Y-79184500D01*
X134317346Y-78819965D01*
X134291490Y-78788459D01*
X134165791Y-78685301D01*
X134022383Y-78608647D01*
X133866775Y-78561444D01*
X133770665Y-78551978D01*
X133751962Y-78523987D01*
X133566013Y-78338038D01*
X133540500Y-78320991D01*
X133540500Y-77889009D01*
X133566013Y-77871962D01*
X133690677Y-77747298D01*
X136981903Y-77747298D01*
X137795000Y-78560395D01*
X138608097Y-77747298D01*
X138536514Y-77503329D01*
X138281004Y-77382429D01*
X138006816Y-77313700D01*
X137724488Y-77299783D01*
X137444870Y-77341213D01*
X137178708Y-77436397D01*
X137053486Y-77503329D01*
X136981903Y-77747298D01*
X133690677Y-77747298D01*
X133751962Y-77686013D01*
X133898061Y-77467359D01*
X133998696Y-77224405D01*
X134050000Y-76966486D01*
X134050000Y-76703514D01*
X133998696Y-76445595D01*
X133977212Y-76393727D01*
X133984999Y-76394494D01*
X134025550Y-76390500D01*
X138389450Y-76390500D01*
X138430000Y-76394494D01*
X138470550Y-76390500D01*
X138470553Y-76390500D01*
X138591826Y-76378556D01*
X138747434Y-76331353D01*
X138890842Y-76254699D01*
X139016541Y-76151541D01*
X139042398Y-76120034D01*
X140088376Y-75074057D01*
X140193665Y-75095000D01*
X140476335Y-75095000D01*
X140753574Y-75039853D01*
X141014727Y-74931680D01*
X141249759Y-74774637D01*
X141449637Y-74574759D01*
X141509278Y-74485500D01*
X145315886Y-74485500D01*
X145305147Y-74511426D01*
G37*
X145305147Y-74511426D02*
X145250000Y-74788665D01*
X145250000Y-75071335D01*
X145305147Y-75348574D01*
X145413320Y-75609727D01*
X145570363Y-75844759D01*
X145770241Y-76044637D01*
X146002759Y-76200000D01*
X145770241Y-76355363D01*
X145570363Y-76555241D01*
X145413320Y-76790273D01*
X145305147Y-77051426D01*
X145250000Y-77328665D01*
X145250000Y-77611335D01*
X145270944Y-77716624D01*
X145073068Y-77914500D01*
X141469278Y-77914500D01*
X141409637Y-77825241D01*
X141209759Y-77625363D01*
X140974727Y-77468320D01*
X140713574Y-77360147D01*
X140436335Y-77305000D01*
X140153665Y-77305000D01*
X139876426Y-77360147D01*
X139615273Y-77468320D01*
X139380241Y-77625363D01*
X139180363Y-77825241D01*
X139046308Y-78025869D01*
X139031671Y-77998486D01*
X138787702Y-77926903D01*
X137974605Y-78740000D01*
X137988748Y-78754143D01*
X137809143Y-78933748D01*
X137795000Y-78919605D01*
X137780858Y-78933748D01*
X137601253Y-78754143D01*
X137615395Y-78740000D01*
X136802298Y-77926903D01*
X136558329Y-77998486D01*
X136437429Y-78253996D01*
X136368700Y-78528184D01*
X136354783Y-78810512D01*
X136396213Y-79090130D01*
X136429961Y-79184500D01*
X134681882Y-79184500D01*
X134317346Y-78819965D01*
X134291490Y-78788459D01*
X134165791Y-78685301D01*
X134022383Y-78608647D01*
X133866775Y-78561444D01*
X133770665Y-78551978D01*
X133751962Y-78523987D01*
X133566013Y-78338038D01*
X133540500Y-78320991D01*
X133540500Y-77889009D01*
X133566013Y-77871962D01*
X133690677Y-77747298D01*
X136981903Y-77747298D01*
X137795000Y-78560395D01*
X138608097Y-77747298D01*
X138536514Y-77503329D01*
X138281004Y-77382429D01*
X138006816Y-77313700D01*
X137724488Y-77299783D01*
X137444870Y-77341213D01*
X137178708Y-77436397D01*
X137053486Y-77503329D01*
X136981903Y-77747298D01*
X133690677Y-77747298D01*
X133751962Y-77686013D01*
X133898061Y-77467359D01*
X133998696Y-77224405D01*
X134050000Y-76966486D01*
X134050000Y-76703514D01*
X133998696Y-76445595D01*
X133977212Y-76393727D01*
X133984999Y-76394494D01*
X134025550Y-76390500D01*
X138389450Y-76390500D01*
X138430000Y-76394494D01*
X138470550Y-76390500D01*
X138470553Y-76390500D01*
X138591826Y-76378556D01*
X138747434Y-76331353D01*
X138890842Y-76254699D01*
X139016541Y-76151541D01*
X139042398Y-76120034D01*
X140088376Y-75074057D01*
X140193665Y-75095000D01*
X140476335Y-75095000D01*
X140753574Y-75039853D01*
X141014727Y-74931680D01*
X141249759Y-74774637D01*
X141449637Y-74574759D01*
X141509278Y-74485500D01*
X145315886Y-74485500D01*
X145305147Y-74511426D01*
G36*
X145305147Y-69431426D02*
G01*
X145250000Y-69708665D01*
X145250000Y-69991335D01*
X145305147Y-70268574D01*
X145413320Y-70529727D01*
X145570363Y-70764759D01*
X145770241Y-70964637D01*
X146002759Y-71120000D01*
X145770241Y-71275363D01*
X145570363Y-71475241D01*
X145413320Y-71710273D01*
X145305147Y-71971426D01*
X145250000Y-72248665D01*
X145250000Y-72531335D01*
X145270944Y-72636624D01*
X145073068Y-72834500D01*
X141509278Y-72834500D01*
X141449637Y-72745241D01*
X141249759Y-72545363D01*
X141014727Y-72388320D01*
X140753574Y-72280147D01*
X140476335Y-72225000D01*
X140193665Y-72225000D01*
X139916426Y-72280147D01*
X139655273Y-72388320D01*
X139420241Y-72545363D01*
X139220363Y-72745241D01*
X139086308Y-72945869D01*
X139071671Y-72918486D01*
X138827702Y-72846903D01*
X138014605Y-73660000D01*
X138028748Y-73674143D01*
X137849143Y-73853748D01*
X137835000Y-73839605D01*
X137021903Y-74652702D01*
X137047370Y-74739500D01*
X134326933Y-74739500D01*
X134044014Y-74456581D01*
X134050000Y-74426486D01*
X134050000Y-74163514D01*
X133998696Y-73905595D01*
X133926175Y-73730512D01*
X136394783Y-73730512D01*
X136436213Y-74010130D01*
X136531397Y-74276292D01*
X136598329Y-74401514D01*
X136842298Y-74473097D01*
X137655395Y-73660000D01*
X136842298Y-72846903D01*
X136598329Y-72918486D01*
X136477429Y-73173996D01*
X136408700Y-73448184D01*
X136394783Y-73730512D01*
X133926175Y-73730512D01*
X133898061Y-73662641D01*
X133751962Y-73443987D01*
X133566013Y-73258038D01*
X133540500Y-73240991D01*
X133540500Y-72809009D01*
X133566013Y-72791962D01*
X133690677Y-72667298D01*
X137021903Y-72667298D01*
X137835000Y-73480395D01*
X138648097Y-72667298D01*
X138576514Y-72423329D01*
X138321004Y-72302429D01*
X138046816Y-72233700D01*
X137764488Y-72219783D01*
X137484870Y-72261213D01*
X137218708Y-72356397D01*
X137093486Y-72423329D01*
X137021903Y-72667298D01*
X133690677Y-72667298D01*
X133751962Y-72606013D01*
X133898061Y-72387359D01*
X133998696Y-72144405D01*
X134050000Y-71886486D01*
X134050000Y-71623514D01*
X133998696Y-71365595D01*
X133898061Y-71122641D01*
X133751962Y-70903987D01*
X133566013Y-70718038D01*
X133347359Y-70571939D01*
X133137470Y-70485000D01*
X133347359Y-70398061D01*
X133566013Y-70251962D01*
X133570246Y-70247729D01*
X134362555Y-71040039D01*
X134388408Y-71071541D01*
X134439661Y-71113603D01*
X134514106Y-71174699D01*
X134564060Y-71201399D01*
X134657515Y-71251353D01*
X134813123Y-71298556D01*
X134934396Y-71310500D01*
X134934398Y-71310500D01*
X134974948Y-71314494D01*
X135015499Y-71310500D01*
X138389450Y-71310500D01*
X138430000Y-71314494D01*
X138470550Y-71310500D01*
X138470553Y-71310500D01*
X138591826Y-71298556D01*
X138747434Y-71251353D01*
X138890842Y-71174699D01*
X139016541Y-71071541D01*
X139042398Y-71040034D01*
X140088376Y-69994057D01*
X140193665Y-70015000D01*
X140476335Y-70015000D01*
X140753574Y-69959853D01*
X141014727Y-69851680D01*
X141249759Y-69694637D01*
X141449637Y-69494759D01*
X141509278Y-69405500D01*
X145315886Y-69405500D01*
X145305147Y-69431426D01*
G37*
X145305147Y-69431426D02*
X145250000Y-69708665D01*
X145250000Y-69991335D01*
X145305147Y-70268574D01*
X145413320Y-70529727D01*
X145570363Y-70764759D01*
X145770241Y-70964637D01*
X146002759Y-71120000D01*
X145770241Y-71275363D01*
X145570363Y-71475241D01*
X145413320Y-71710273D01*
X145305147Y-71971426D01*
X145250000Y-72248665D01*
X145250000Y-72531335D01*
X145270944Y-72636624D01*
X145073068Y-72834500D01*
X141509278Y-72834500D01*
X141449637Y-72745241D01*
X141249759Y-72545363D01*
X141014727Y-72388320D01*
X140753574Y-72280147D01*
X140476335Y-72225000D01*
X140193665Y-72225000D01*
X139916426Y-72280147D01*
X139655273Y-72388320D01*
X139420241Y-72545363D01*
X139220363Y-72745241D01*
X139086308Y-72945869D01*
X139071671Y-72918486D01*
X138827702Y-72846903D01*
X138014605Y-73660000D01*
X138028748Y-73674143D01*
X137849143Y-73853748D01*
X137835000Y-73839605D01*
X137021903Y-74652702D01*
X137047370Y-74739500D01*
X134326933Y-74739500D01*
X134044014Y-74456581D01*
X134050000Y-74426486D01*
X134050000Y-74163514D01*
X133998696Y-73905595D01*
X133926175Y-73730512D01*
X136394783Y-73730512D01*
X136436213Y-74010130D01*
X136531397Y-74276292D01*
X136598329Y-74401514D01*
X136842298Y-74473097D01*
X137655395Y-73660000D01*
X136842298Y-72846903D01*
X136598329Y-72918486D01*
X136477429Y-73173996D01*
X136408700Y-73448184D01*
X136394783Y-73730512D01*
X133926175Y-73730512D01*
X133898061Y-73662641D01*
X133751962Y-73443987D01*
X133566013Y-73258038D01*
X133540500Y-73240991D01*
X133540500Y-72809009D01*
X133566013Y-72791962D01*
X133690677Y-72667298D01*
X137021903Y-72667298D01*
X137835000Y-73480395D01*
X138648097Y-72667298D01*
X138576514Y-72423329D01*
X138321004Y-72302429D01*
X138046816Y-72233700D01*
X137764488Y-72219783D01*
X137484870Y-72261213D01*
X137218708Y-72356397D01*
X137093486Y-72423329D01*
X137021903Y-72667298D01*
X133690677Y-72667298D01*
X133751962Y-72606013D01*
X133898061Y-72387359D01*
X133998696Y-72144405D01*
X134050000Y-71886486D01*
X134050000Y-71623514D01*
X133998696Y-71365595D01*
X133898061Y-71122641D01*
X133751962Y-70903987D01*
X133566013Y-70718038D01*
X133347359Y-70571939D01*
X133137470Y-70485000D01*
X133347359Y-70398061D01*
X133566013Y-70251962D01*
X133570246Y-70247729D01*
X134362555Y-71040039D01*
X134388408Y-71071541D01*
X134439661Y-71113603D01*
X134514106Y-71174699D01*
X134564060Y-71201399D01*
X134657515Y-71251353D01*
X134813123Y-71298556D01*
X134934396Y-71310500D01*
X134934398Y-71310500D01*
X134974948Y-71314494D01*
X135015499Y-71310500D01*
X138389450Y-71310500D01*
X138430000Y-71314494D01*
X138470550Y-71310500D01*
X138470553Y-71310500D01*
X138591826Y-71298556D01*
X138747434Y-71251353D01*
X138890842Y-71174699D01*
X139016541Y-71071541D01*
X139042398Y-71040034D01*
X140088376Y-69994057D01*
X140193665Y-70015000D01*
X140476335Y-70015000D01*
X140753574Y-69959853D01*
X141014727Y-69851680D01*
X141249759Y-69694637D01*
X141449637Y-69494759D01*
X141509278Y-69405500D01*
X145315886Y-69405500D01*
X145305147Y-69431426D01*
M02*
