G04 #@! TF.GenerationSoftware,KiCad,Pcbnew,(5.1.5)-3*
G04 #@! TF.CreationDate,2020-02-23T22:46:14-05:00*
G04 #@! TF.ProjectId,StupidDogFocuserPCB,53747570-6964-4446-9f67-466f63757365,1*
G04 #@! TF.SameCoordinates,Original*
G04 #@! TF.FileFunction,Legend,Top*
G04 #@! TF.FilePolarity,Positive*
%FSLAX46Y46*%
G04 Gerber Fmt 4.6, Leading zero omitted, Abs format (unit mm)*
G04 Created by KiCad (PCBNEW (5.1.5)-3) date 2020-02-23 22:46:14*
%MOMM*%
%LPD*%
G04 APERTURE LIST*
%ADD10C,0.150000*%
%ADD11C,0.100000*%
%ADD12C,0.010000*%
%ADD13C,0.120000*%
G04 APERTURE END LIST*
D10*
X103648095Y-86812380D02*
X103648095Y-85812380D01*
X103886190Y-85812380D01*
X104029047Y-85860000D01*
X104124285Y-85955238D01*
X104171904Y-86050476D01*
X104219523Y-86240952D01*
X104219523Y-86383809D01*
X104171904Y-86574285D01*
X104124285Y-86669523D01*
X104029047Y-86764761D01*
X103886190Y-86812380D01*
X103648095Y-86812380D01*
X104648095Y-86812380D02*
X104648095Y-85812380D01*
X105076666Y-86812380D02*
X105076666Y-86288571D01*
X105029047Y-86193333D01*
X104933809Y-86145714D01*
X104790952Y-86145714D01*
X104695714Y-86193333D01*
X104648095Y-86240952D01*
X105410000Y-86145714D02*
X105790952Y-86145714D01*
X105552857Y-85812380D02*
X105552857Y-86669523D01*
X105600476Y-86764761D01*
X105695714Y-86812380D01*
X105790952Y-86812380D01*
X106124285Y-86812380D02*
X106124285Y-85812380D01*
X106790952Y-85812380D02*
X106981428Y-85812380D01*
X107076666Y-85860000D01*
X107171904Y-85955238D01*
X107219523Y-86145714D01*
X107219523Y-86479047D01*
X107171904Y-86669523D01*
X107076666Y-86764761D01*
X106981428Y-86812380D01*
X106790952Y-86812380D01*
X106695714Y-86764761D01*
X106600476Y-86669523D01*
X106552857Y-86479047D01*
X106552857Y-86145714D01*
X106600476Y-85955238D01*
X106695714Y-85860000D01*
X106790952Y-85812380D01*
X125499761Y-88447380D02*
X125547380Y-88304523D01*
X125547380Y-88066428D01*
X125499761Y-87971190D01*
X125452142Y-87923571D01*
X125356904Y-87875952D01*
X125261666Y-87875952D01*
X125166428Y-87923571D01*
X125118809Y-87971190D01*
X125071190Y-88066428D01*
X125023571Y-88256904D01*
X124975952Y-88352142D01*
X124928333Y-88399761D01*
X124833095Y-88447380D01*
X124737857Y-88447380D01*
X124642619Y-88399761D01*
X124595000Y-88352142D01*
X124547380Y-88256904D01*
X124547380Y-88018809D01*
X124595000Y-87875952D01*
X124880714Y-87590238D02*
X124880714Y-87209285D01*
X124547380Y-87447380D02*
X125404523Y-87447380D01*
X125499761Y-87399761D01*
X125547380Y-87304523D01*
X125547380Y-87209285D01*
X125499761Y-86495000D02*
X125547380Y-86590238D01*
X125547380Y-86780714D01*
X125499761Y-86875952D01*
X125404523Y-86923571D01*
X125023571Y-86923571D01*
X124928333Y-86875952D01*
X124880714Y-86780714D01*
X124880714Y-86590238D01*
X124928333Y-86495000D01*
X125023571Y-86447380D01*
X125118809Y-86447380D01*
X125214047Y-86923571D01*
X124880714Y-86018809D02*
X125880714Y-86018809D01*
X124928333Y-86018809D02*
X124880714Y-85923571D01*
X124880714Y-85733095D01*
X124928333Y-85637857D01*
X124975952Y-85590238D01*
X125071190Y-85542619D01*
X125356904Y-85542619D01*
X125452142Y-85590238D01*
X125499761Y-85637857D01*
X125547380Y-85733095D01*
X125547380Y-85923571D01*
X125499761Y-86018809D01*
X123007380Y-88439523D02*
X122007380Y-88439523D01*
X122007380Y-88201428D01*
X122055000Y-88058571D01*
X122150238Y-87963333D01*
X122245476Y-87915714D01*
X122435952Y-87868095D01*
X122578809Y-87868095D01*
X122769285Y-87915714D01*
X122864523Y-87963333D01*
X122959761Y-88058571D01*
X123007380Y-88201428D01*
X123007380Y-88439523D01*
X123007380Y-87439523D02*
X122340714Y-87439523D01*
X122007380Y-87439523D02*
X122055000Y-87487142D01*
X122102619Y-87439523D01*
X122055000Y-87391904D01*
X122007380Y-87439523D01*
X122102619Y-87439523D01*
X123007380Y-86963333D02*
X122340714Y-86963333D01*
X122531190Y-86963333D02*
X122435952Y-86915714D01*
X122388333Y-86868095D01*
X122340714Y-86772857D01*
X122340714Y-86677619D01*
X142748095Y-82050000D02*
X142652857Y-82002380D01*
X142510000Y-82002380D01*
X142367142Y-82050000D01*
X142271904Y-82145238D01*
X142224285Y-82240476D01*
X142176666Y-82430952D01*
X142176666Y-82573809D01*
X142224285Y-82764285D01*
X142271904Y-82859523D01*
X142367142Y-82954761D01*
X142510000Y-83002380D01*
X142605238Y-83002380D01*
X142748095Y-82954761D01*
X142795714Y-82907142D01*
X142795714Y-82573809D01*
X142605238Y-82573809D01*
X143224285Y-83002380D02*
X143224285Y-82002380D01*
X143795714Y-83002380D01*
X143795714Y-82002380D01*
X144271904Y-83002380D02*
X144271904Y-82002380D01*
X144510000Y-82002380D01*
X144652857Y-82050000D01*
X144748095Y-82145238D01*
X144795714Y-82240476D01*
X144843333Y-82430952D01*
X144843333Y-82573809D01*
X144795714Y-82764285D01*
X144748095Y-82859523D01*
X144652857Y-82954761D01*
X144510000Y-83002380D01*
X144271904Y-83002380D01*
X155511666Y-65492380D02*
X155845000Y-66492380D01*
X156178333Y-65492380D01*
X157083095Y-66397142D02*
X157035476Y-66444761D01*
X156892619Y-66492380D01*
X156797380Y-66492380D01*
X156654523Y-66444761D01*
X156559285Y-66349523D01*
X156511666Y-66254285D01*
X156464047Y-66063809D01*
X156464047Y-65920952D01*
X156511666Y-65730476D01*
X156559285Y-65635238D01*
X156654523Y-65540000D01*
X156797380Y-65492380D01*
X156892619Y-65492380D01*
X157035476Y-65540000D01*
X157083095Y-65587619D01*
X158083095Y-66397142D02*
X158035476Y-66444761D01*
X157892619Y-66492380D01*
X157797380Y-66492380D01*
X157654523Y-66444761D01*
X157559285Y-66349523D01*
X157511666Y-66254285D01*
X157464047Y-66063809D01*
X157464047Y-65920952D01*
X157511666Y-65730476D01*
X157559285Y-65635238D01*
X157654523Y-65540000D01*
X157797380Y-65492380D01*
X157892619Y-65492380D01*
X158035476Y-65540000D01*
X158083095Y-65587619D01*
X150899761Y-79303095D02*
X150947380Y-79160238D01*
X150947380Y-78922142D01*
X150899761Y-78826904D01*
X150852142Y-78779285D01*
X150756904Y-78731666D01*
X150661666Y-78731666D01*
X150566428Y-78779285D01*
X150518809Y-78826904D01*
X150471190Y-78922142D01*
X150423571Y-79112619D01*
X150375952Y-79207857D01*
X150328333Y-79255476D01*
X150233095Y-79303095D01*
X150137857Y-79303095D01*
X150042619Y-79255476D01*
X149995000Y-79207857D01*
X149947380Y-79112619D01*
X149947380Y-78874523D01*
X149995000Y-78731666D01*
X150947380Y-78303095D02*
X149947380Y-78303095D01*
X150947380Y-77731666D01*
X149947380Y-77731666D01*
X149947380Y-77350714D02*
X149947380Y-76684047D01*
X150947380Y-77112619D01*
X150280714Y-75874523D02*
X150947380Y-75874523D01*
X149899761Y-76112619D02*
X150614047Y-76350714D01*
X150614047Y-75731666D01*
X150947380Y-75350714D02*
X149947380Y-75350714D01*
X150423571Y-75350714D02*
X150423571Y-74779285D01*
X150947380Y-74779285D02*
X149947380Y-74779285D01*
X150852142Y-73731666D02*
X150899761Y-73779285D01*
X150947380Y-73922142D01*
X150947380Y-74017380D01*
X150899761Y-74160238D01*
X150804523Y-74255476D01*
X150709285Y-74303095D01*
X150518809Y-74350714D01*
X150375952Y-74350714D01*
X150185476Y-74303095D01*
X150090238Y-74255476D01*
X149995000Y-74160238D01*
X149947380Y-74017380D01*
X149947380Y-73922142D01*
X149995000Y-73779285D01*
X150042619Y-73731666D01*
X150947380Y-72779285D02*
X150947380Y-73350714D01*
X150947380Y-73065000D02*
X149947380Y-73065000D01*
X150090238Y-73160238D01*
X150185476Y-73255476D01*
X150233095Y-73350714D01*
X150280714Y-71922142D02*
X150947380Y-71922142D01*
X149899761Y-72160238D02*
X150614047Y-72398333D01*
X150614047Y-71779285D01*
X132159761Y-97607380D02*
X132159761Y-96607380D01*
X132397857Y-96607380D01*
X132540714Y-96655000D01*
X132635952Y-96750238D01*
X132683571Y-96845476D01*
X132731190Y-97035952D01*
X132731190Y-97178809D01*
X132683571Y-97369285D01*
X132635952Y-97464523D01*
X132540714Y-97559761D01*
X132397857Y-97607380D01*
X132159761Y-97607380D01*
X133731190Y-97607380D02*
X133397857Y-97131190D01*
X133159761Y-97607380D02*
X133159761Y-96607380D01*
X133540714Y-96607380D01*
X133635952Y-96655000D01*
X133683571Y-96702619D01*
X133731190Y-96797857D01*
X133731190Y-96940714D01*
X133683571Y-97035952D01*
X133635952Y-97083571D01*
X133540714Y-97131190D01*
X133159761Y-97131190D01*
X134016904Y-96607380D02*
X134350238Y-97607380D01*
X134683571Y-96607380D01*
X135159761Y-97035952D02*
X135064523Y-96988333D01*
X135016904Y-96940714D01*
X134969285Y-96845476D01*
X134969285Y-96797857D01*
X135016904Y-96702619D01*
X135064523Y-96655000D01*
X135159761Y-96607380D01*
X135350238Y-96607380D01*
X135445476Y-96655000D01*
X135493095Y-96702619D01*
X135540714Y-96797857D01*
X135540714Y-96845476D01*
X135493095Y-96940714D01*
X135445476Y-96988333D01*
X135350238Y-97035952D01*
X135159761Y-97035952D01*
X135064523Y-97083571D01*
X135016904Y-97131190D01*
X134969285Y-97226428D01*
X134969285Y-97416904D01*
X135016904Y-97512142D01*
X135064523Y-97559761D01*
X135159761Y-97607380D01*
X135350238Y-97607380D01*
X135445476Y-97559761D01*
X135493095Y-97512142D01*
X135540714Y-97416904D01*
X135540714Y-97226428D01*
X135493095Y-97131190D01*
X135445476Y-97083571D01*
X135350238Y-97035952D01*
X136112142Y-97035952D02*
X136016904Y-96988333D01*
X135969285Y-96940714D01*
X135921666Y-96845476D01*
X135921666Y-96797857D01*
X135969285Y-96702619D01*
X136016904Y-96655000D01*
X136112142Y-96607380D01*
X136302619Y-96607380D01*
X136397857Y-96655000D01*
X136445476Y-96702619D01*
X136493095Y-96797857D01*
X136493095Y-96845476D01*
X136445476Y-96940714D01*
X136397857Y-96988333D01*
X136302619Y-97035952D01*
X136112142Y-97035952D01*
X136016904Y-97083571D01*
X135969285Y-97131190D01*
X135921666Y-97226428D01*
X135921666Y-97416904D01*
X135969285Y-97512142D01*
X136016904Y-97559761D01*
X136112142Y-97607380D01*
X136302619Y-97607380D01*
X136397857Y-97559761D01*
X136445476Y-97512142D01*
X136493095Y-97416904D01*
X136493095Y-97226428D01*
X136445476Y-97131190D01*
X136397857Y-97083571D01*
X136302619Y-97035952D01*
X136874047Y-96702619D02*
X136921666Y-96655000D01*
X137016904Y-96607380D01*
X137255000Y-96607380D01*
X137350238Y-96655000D01*
X137397857Y-96702619D01*
X137445476Y-96797857D01*
X137445476Y-96893095D01*
X137397857Y-97035952D01*
X136826428Y-97607380D01*
X137445476Y-97607380D01*
X138350238Y-96607380D02*
X137874047Y-96607380D01*
X137826428Y-97083571D01*
X137874047Y-97035952D01*
X137969285Y-96988333D01*
X138207380Y-96988333D01*
X138302619Y-97035952D01*
X138350238Y-97083571D01*
X138397857Y-97178809D01*
X138397857Y-97416904D01*
X138350238Y-97512142D01*
X138302619Y-97559761D01*
X138207380Y-97607380D01*
X137969285Y-97607380D01*
X137874047Y-97559761D01*
X137826428Y-97512142D01*
X146431904Y-88924761D02*
X146574761Y-88972380D01*
X146812857Y-88972380D01*
X146908095Y-88924761D01*
X146955714Y-88877142D01*
X147003333Y-88781904D01*
X147003333Y-88686666D01*
X146955714Y-88591428D01*
X146908095Y-88543809D01*
X146812857Y-88496190D01*
X146622380Y-88448571D01*
X146527142Y-88400952D01*
X146479523Y-88353333D01*
X146431904Y-88258095D01*
X146431904Y-88162857D01*
X146479523Y-88067619D01*
X146527142Y-88020000D01*
X146622380Y-87972380D01*
X146860476Y-87972380D01*
X147003333Y-88020000D01*
X147289047Y-88305714D02*
X147670000Y-88305714D01*
X147431904Y-87972380D02*
X147431904Y-88829523D01*
X147479523Y-88924761D01*
X147574761Y-88972380D01*
X147670000Y-88972380D01*
X148431904Y-88305714D02*
X148431904Y-88972380D01*
X148003333Y-88305714D02*
X148003333Y-88829523D01*
X148050952Y-88924761D01*
X148146190Y-88972380D01*
X148289047Y-88972380D01*
X148384285Y-88924761D01*
X148431904Y-88877142D01*
X148908095Y-88305714D02*
X148908095Y-89305714D01*
X148908095Y-88353333D02*
X149003333Y-88305714D01*
X149193809Y-88305714D01*
X149289047Y-88353333D01*
X149336666Y-88400952D01*
X149384285Y-88496190D01*
X149384285Y-88781904D01*
X149336666Y-88877142D01*
X149289047Y-88924761D01*
X149193809Y-88972380D01*
X149003333Y-88972380D01*
X148908095Y-88924761D01*
X149812857Y-88972380D02*
X149812857Y-88305714D01*
X149812857Y-87972380D02*
X149765238Y-88020000D01*
X149812857Y-88067619D01*
X149860476Y-88020000D01*
X149812857Y-87972380D01*
X149812857Y-88067619D01*
X150717619Y-88972380D02*
X150717619Y-87972380D01*
X150717619Y-88924761D02*
X150622380Y-88972380D01*
X150431904Y-88972380D01*
X150336666Y-88924761D01*
X150289047Y-88877142D01*
X150241428Y-88781904D01*
X150241428Y-88496190D01*
X150289047Y-88400952D01*
X150336666Y-88353333D01*
X150431904Y-88305714D01*
X150622380Y-88305714D01*
X150717619Y-88353333D01*
X151955714Y-88972380D02*
X151955714Y-87972380D01*
X152193809Y-87972380D01*
X152336666Y-88020000D01*
X152431904Y-88115238D01*
X152479523Y-88210476D01*
X152527142Y-88400952D01*
X152527142Y-88543809D01*
X152479523Y-88734285D01*
X152431904Y-88829523D01*
X152336666Y-88924761D01*
X152193809Y-88972380D01*
X151955714Y-88972380D01*
X153098571Y-88972380D02*
X153003333Y-88924761D01*
X152955714Y-88877142D01*
X152908095Y-88781904D01*
X152908095Y-88496190D01*
X152955714Y-88400952D01*
X153003333Y-88353333D01*
X153098571Y-88305714D01*
X153241428Y-88305714D01*
X153336666Y-88353333D01*
X153384285Y-88400952D01*
X153431904Y-88496190D01*
X153431904Y-88781904D01*
X153384285Y-88877142D01*
X153336666Y-88924761D01*
X153241428Y-88972380D01*
X153098571Y-88972380D01*
X154289047Y-88305714D02*
X154289047Y-89115238D01*
X154241428Y-89210476D01*
X154193809Y-89258095D01*
X154098571Y-89305714D01*
X153955714Y-89305714D01*
X153860476Y-89258095D01*
X154289047Y-88924761D02*
X154193809Y-88972380D01*
X154003333Y-88972380D01*
X153908095Y-88924761D01*
X153860476Y-88877142D01*
X153812857Y-88781904D01*
X153812857Y-88496190D01*
X153860476Y-88400952D01*
X153908095Y-88353333D01*
X154003333Y-88305714D01*
X154193809Y-88305714D01*
X154289047Y-88353333D01*
X155860476Y-88448571D02*
X155527142Y-88448571D01*
X155527142Y-88972380D02*
X155527142Y-87972380D01*
X156003333Y-87972380D01*
X156527142Y-88972380D02*
X156431904Y-88924761D01*
X156384285Y-88877142D01*
X156336666Y-88781904D01*
X156336666Y-88496190D01*
X156384285Y-88400952D01*
X156431904Y-88353333D01*
X156527142Y-88305714D01*
X156670000Y-88305714D01*
X156765238Y-88353333D01*
X156812857Y-88400952D01*
X156860476Y-88496190D01*
X156860476Y-88781904D01*
X156812857Y-88877142D01*
X156765238Y-88924761D01*
X156670000Y-88972380D01*
X156527142Y-88972380D01*
X157717619Y-88924761D02*
X157622380Y-88972380D01*
X157431904Y-88972380D01*
X157336666Y-88924761D01*
X157289047Y-88877142D01*
X157241428Y-88781904D01*
X157241428Y-88496190D01*
X157289047Y-88400952D01*
X157336666Y-88353333D01*
X157431904Y-88305714D01*
X157622380Y-88305714D01*
X157717619Y-88353333D01*
X158574761Y-88305714D02*
X158574761Y-88972380D01*
X158146190Y-88305714D02*
X158146190Y-88829523D01*
X158193809Y-88924761D01*
X158289047Y-88972380D01*
X158431904Y-88972380D01*
X158527142Y-88924761D01*
X158574761Y-88877142D01*
X159003333Y-88924761D02*
X159098571Y-88972380D01*
X159289047Y-88972380D01*
X159384285Y-88924761D01*
X159431904Y-88829523D01*
X159431904Y-88781904D01*
X159384285Y-88686666D01*
X159289047Y-88639047D01*
X159146190Y-88639047D01*
X159050952Y-88591428D01*
X159003333Y-88496190D01*
X159003333Y-88448571D01*
X159050952Y-88353333D01*
X159146190Y-88305714D01*
X159289047Y-88305714D01*
X159384285Y-88353333D01*
X160241428Y-88924761D02*
X160146190Y-88972380D01*
X159955714Y-88972380D01*
X159860476Y-88924761D01*
X159812857Y-88829523D01*
X159812857Y-88448571D01*
X159860476Y-88353333D01*
X159955714Y-88305714D01*
X160146190Y-88305714D01*
X160241428Y-88353333D01*
X160289047Y-88448571D01*
X160289047Y-88543809D01*
X159812857Y-88639047D01*
X160717619Y-88972380D02*
X160717619Y-88305714D01*
X160717619Y-88496190D02*
X160765238Y-88400952D01*
X160812857Y-88353333D01*
X160908095Y-88305714D01*
X161003333Y-88305714D01*
X144955714Y-90574761D02*
X145098571Y-90622380D01*
X145336666Y-90622380D01*
X145431904Y-90574761D01*
X145479523Y-90527142D01*
X145527142Y-90431904D01*
X145527142Y-90336666D01*
X145479523Y-90241428D01*
X145431904Y-90193809D01*
X145336666Y-90146190D01*
X145146190Y-90098571D01*
X145050952Y-90050952D01*
X145003333Y-90003333D01*
X144955714Y-89908095D01*
X144955714Y-89812857D01*
X145003333Y-89717619D01*
X145050952Y-89670000D01*
X145146190Y-89622380D01*
X145384285Y-89622380D01*
X145527142Y-89670000D01*
X145812857Y-89955714D02*
X146193809Y-89955714D01*
X145955714Y-89622380D02*
X145955714Y-90479523D01*
X146003333Y-90574761D01*
X146098571Y-90622380D01*
X146193809Y-90622380D01*
X146955714Y-89955714D02*
X146955714Y-90622380D01*
X146527142Y-89955714D02*
X146527142Y-90479523D01*
X146574761Y-90574761D01*
X146670000Y-90622380D01*
X146812857Y-90622380D01*
X146908095Y-90574761D01*
X146955714Y-90527142D01*
X147431904Y-89955714D02*
X147431904Y-90955714D01*
X147431904Y-90003333D02*
X147527142Y-89955714D01*
X147717619Y-89955714D01*
X147812857Y-90003333D01*
X147860476Y-90050952D01*
X147908095Y-90146190D01*
X147908095Y-90431904D01*
X147860476Y-90527142D01*
X147812857Y-90574761D01*
X147717619Y-90622380D01*
X147527142Y-90622380D01*
X147431904Y-90574761D01*
X148336666Y-90622380D02*
X148336666Y-89955714D01*
X148336666Y-89622380D02*
X148289047Y-89670000D01*
X148336666Y-89717619D01*
X148384285Y-89670000D01*
X148336666Y-89622380D01*
X148336666Y-89717619D01*
X149241428Y-90622380D02*
X149241428Y-89622380D01*
X149241428Y-90574761D02*
X149146190Y-90622380D01*
X148955714Y-90622380D01*
X148860476Y-90574761D01*
X148812857Y-90527142D01*
X148765238Y-90431904D01*
X148765238Y-90146190D01*
X148812857Y-90050952D01*
X148860476Y-90003333D01*
X148955714Y-89955714D01*
X149146190Y-89955714D01*
X149241428Y-90003333D01*
X150479523Y-90622380D02*
X150479523Y-89622380D01*
X150717619Y-89622380D01*
X150860476Y-89670000D01*
X150955714Y-89765238D01*
X151003333Y-89860476D01*
X151050952Y-90050952D01*
X151050952Y-90193809D01*
X151003333Y-90384285D01*
X150955714Y-90479523D01*
X150860476Y-90574761D01*
X150717619Y-90622380D01*
X150479523Y-90622380D01*
X151622380Y-90622380D02*
X151527142Y-90574761D01*
X151479523Y-90527142D01*
X151431904Y-90431904D01*
X151431904Y-90146190D01*
X151479523Y-90050952D01*
X151527142Y-90003333D01*
X151622380Y-89955714D01*
X151765238Y-89955714D01*
X151860476Y-90003333D01*
X151908095Y-90050952D01*
X151955714Y-90146190D01*
X151955714Y-90431904D01*
X151908095Y-90527142D01*
X151860476Y-90574761D01*
X151765238Y-90622380D01*
X151622380Y-90622380D01*
X152812857Y-89955714D02*
X152812857Y-90765238D01*
X152765238Y-90860476D01*
X152717619Y-90908095D01*
X152622380Y-90955714D01*
X152479523Y-90955714D01*
X152384285Y-90908095D01*
X152812857Y-90574761D02*
X152717619Y-90622380D01*
X152527142Y-90622380D01*
X152431904Y-90574761D01*
X152384285Y-90527142D01*
X152336666Y-90431904D01*
X152336666Y-90146190D01*
X152384285Y-90050952D01*
X152431904Y-90003333D01*
X152527142Y-89955714D01*
X152717619Y-89955714D01*
X152812857Y-90003333D01*
X154241428Y-89622380D02*
X154431904Y-89622380D01*
X154527142Y-89670000D01*
X154622380Y-89765238D01*
X154670000Y-89955714D01*
X154670000Y-90289047D01*
X154622380Y-90479523D01*
X154527142Y-90574761D01*
X154431904Y-90622380D01*
X154241428Y-90622380D01*
X154146190Y-90574761D01*
X154050952Y-90479523D01*
X154003333Y-90289047D01*
X154003333Y-89955714D01*
X154050952Y-89765238D01*
X154146190Y-89670000D01*
X154241428Y-89622380D01*
X155098571Y-90622380D02*
X155098571Y-89622380D01*
X155098571Y-90003333D02*
X155193809Y-89955714D01*
X155384285Y-89955714D01*
X155479523Y-90003333D01*
X155527142Y-90050952D01*
X155574761Y-90146190D01*
X155574761Y-90431904D01*
X155527142Y-90527142D01*
X155479523Y-90574761D01*
X155384285Y-90622380D01*
X155193809Y-90622380D01*
X155098571Y-90574761D01*
X155955714Y-90574761D02*
X156050952Y-90622380D01*
X156241428Y-90622380D01*
X156336666Y-90574761D01*
X156384285Y-90479523D01*
X156384285Y-90431904D01*
X156336666Y-90336666D01*
X156241428Y-90289047D01*
X156098571Y-90289047D01*
X156003333Y-90241428D01*
X155955714Y-90146190D01*
X155955714Y-90098571D01*
X156003333Y-90003333D01*
X156098571Y-89955714D01*
X156241428Y-89955714D01*
X156336666Y-90003333D01*
X157193809Y-90574761D02*
X157098571Y-90622380D01*
X156908095Y-90622380D01*
X156812857Y-90574761D01*
X156765238Y-90479523D01*
X156765238Y-90098571D01*
X156812857Y-90003333D01*
X156908095Y-89955714D01*
X157098571Y-89955714D01*
X157193809Y-90003333D01*
X157241428Y-90098571D01*
X157241428Y-90193809D01*
X156765238Y-90289047D01*
X157670000Y-90622380D02*
X157670000Y-89955714D01*
X157670000Y-90146190D02*
X157717619Y-90050952D01*
X157765238Y-90003333D01*
X157860476Y-89955714D01*
X157955714Y-89955714D01*
X158193809Y-89955714D02*
X158431904Y-90622380D01*
X158670000Y-89955714D01*
X159479523Y-90622380D02*
X159479523Y-90098571D01*
X159431904Y-90003333D01*
X159336666Y-89955714D01*
X159146190Y-89955714D01*
X159050952Y-90003333D01*
X159479523Y-90574761D02*
X159384285Y-90622380D01*
X159146190Y-90622380D01*
X159050952Y-90574761D01*
X159003333Y-90479523D01*
X159003333Y-90384285D01*
X159050952Y-90289047D01*
X159146190Y-90241428D01*
X159384285Y-90241428D01*
X159479523Y-90193809D01*
X159812857Y-89955714D02*
X160193809Y-89955714D01*
X159955714Y-89622380D02*
X159955714Y-90479523D01*
X160003333Y-90574761D01*
X160098571Y-90622380D01*
X160193809Y-90622380D01*
X160670000Y-90622380D02*
X160574761Y-90574761D01*
X160527142Y-90527142D01*
X160479523Y-90431904D01*
X160479523Y-90146190D01*
X160527142Y-90050952D01*
X160574761Y-90003333D01*
X160670000Y-89955714D01*
X160812857Y-89955714D01*
X160908095Y-90003333D01*
X160955714Y-90050952D01*
X161003333Y-90146190D01*
X161003333Y-90431904D01*
X160955714Y-90527142D01*
X160908095Y-90574761D01*
X160812857Y-90622380D01*
X160670000Y-90622380D01*
X161431904Y-90622380D02*
X161431904Y-89955714D01*
X161431904Y-90146190D02*
X161479523Y-90050952D01*
X161527142Y-90003333D01*
X161622380Y-89955714D01*
X161717619Y-89955714D01*
X161955714Y-89955714D02*
X162193809Y-90622380D01*
X162431904Y-89955714D02*
X162193809Y-90622380D01*
X162098571Y-90860476D01*
X162050952Y-90908095D01*
X161955714Y-90955714D01*
X146122380Y-91272380D02*
X146122380Y-91986666D01*
X146074761Y-92129523D01*
X145979523Y-92224761D01*
X145836666Y-92272380D01*
X145741428Y-92272380D01*
X146979523Y-92224761D02*
X146884285Y-92272380D01*
X146693809Y-92272380D01*
X146598571Y-92224761D01*
X146550952Y-92129523D01*
X146550952Y-91748571D01*
X146598571Y-91653333D01*
X146693809Y-91605714D01*
X146884285Y-91605714D01*
X146979523Y-91653333D01*
X147027142Y-91748571D01*
X147027142Y-91843809D01*
X146550952Y-91939047D01*
X147312857Y-91605714D02*
X147693809Y-91605714D01*
X147455714Y-92272380D02*
X147455714Y-91415238D01*
X147503333Y-91320000D01*
X147598571Y-91272380D01*
X147693809Y-91272380D01*
X147884285Y-91605714D02*
X148265238Y-91605714D01*
X148027142Y-92272380D02*
X148027142Y-91415238D01*
X148074761Y-91320000D01*
X148170000Y-91272380D01*
X148265238Y-91272380D01*
X149217619Y-91272380D02*
X149550952Y-92272380D01*
X149884285Y-91272380D01*
X150360476Y-92272380D02*
X150265238Y-92224761D01*
X150217619Y-92177142D01*
X150170000Y-92081904D01*
X150170000Y-91796190D01*
X150217619Y-91700952D01*
X150265238Y-91653333D01*
X150360476Y-91605714D01*
X150503333Y-91605714D01*
X150598571Y-91653333D01*
X150646190Y-91700952D01*
X150693809Y-91796190D01*
X150693809Y-92081904D01*
X150646190Y-92177142D01*
X150598571Y-92224761D01*
X150503333Y-92272380D01*
X150360476Y-92272380D01*
X151122380Y-92272380D02*
X151122380Y-91605714D01*
X151122380Y-91272380D02*
X151074761Y-91320000D01*
X151122380Y-91367619D01*
X151170000Y-91320000D01*
X151122380Y-91272380D01*
X151122380Y-91367619D01*
X152027142Y-91605714D02*
X152027142Y-92415238D01*
X151979523Y-92510476D01*
X151931904Y-92558095D01*
X151836666Y-92605714D01*
X151693809Y-92605714D01*
X151598571Y-92558095D01*
X152027142Y-92224761D02*
X151931904Y-92272380D01*
X151741428Y-92272380D01*
X151646190Y-92224761D01*
X151598571Y-92177142D01*
X151550952Y-92081904D01*
X151550952Y-91796190D01*
X151598571Y-91700952D01*
X151646190Y-91653333D01*
X151741428Y-91605714D01*
X151931904Y-91605714D01*
X152027142Y-91653333D01*
X152503333Y-92272380D02*
X152503333Y-91272380D01*
X152931904Y-92272380D02*
X152931904Y-91748571D01*
X152884285Y-91653333D01*
X152789047Y-91605714D01*
X152646190Y-91605714D01*
X152550952Y-91653333D01*
X152503333Y-91700952D01*
X153265238Y-91605714D02*
X153646190Y-91605714D01*
X153408095Y-91272380D02*
X153408095Y-92129523D01*
X153455714Y-92224761D01*
X153550952Y-92272380D01*
X153646190Y-92272380D01*
X154027142Y-92224761D02*
X154027142Y-92272380D01*
X153979523Y-92367619D01*
X153931904Y-92415238D01*
X155503333Y-92653333D02*
X155455714Y-92605714D01*
X155360476Y-92462857D01*
X155312857Y-92367619D01*
X155265238Y-92224761D01*
X155217619Y-91986666D01*
X155217619Y-91796190D01*
X155265238Y-91558095D01*
X155312857Y-91415238D01*
X155360476Y-91320000D01*
X155455714Y-91177142D01*
X155503333Y-91129523D01*
X156312857Y-92224761D02*
X156217619Y-92272380D01*
X156027142Y-92272380D01*
X155931904Y-92224761D01*
X155884285Y-92177142D01*
X155836666Y-92081904D01*
X155836666Y-91796190D01*
X155884285Y-91700952D01*
X155931904Y-91653333D01*
X156027142Y-91605714D01*
X156217619Y-91605714D01*
X156312857Y-91653333D01*
X156646190Y-92653333D02*
X156693809Y-92605714D01*
X156789047Y-92462857D01*
X156836666Y-92367619D01*
X156884285Y-92224761D01*
X156931904Y-91986666D01*
X156931904Y-91796190D01*
X156884285Y-91558095D01*
X156836666Y-91415238D01*
X156789047Y-91320000D01*
X156693809Y-91177142D01*
X156646190Y-91129523D01*
X158122380Y-91367619D02*
X158170000Y-91320000D01*
X158265238Y-91272380D01*
X158503333Y-91272380D01*
X158598571Y-91320000D01*
X158646190Y-91367619D01*
X158693809Y-91462857D01*
X158693809Y-91558095D01*
X158646190Y-91700952D01*
X158074761Y-92272380D01*
X158693809Y-92272380D01*
X159312857Y-91272380D02*
X159408095Y-91272380D01*
X159503333Y-91320000D01*
X159550952Y-91367619D01*
X159598571Y-91462857D01*
X159646190Y-91653333D01*
X159646190Y-91891428D01*
X159598571Y-92081904D01*
X159550952Y-92177142D01*
X159503333Y-92224761D01*
X159408095Y-92272380D01*
X159312857Y-92272380D01*
X159217619Y-92224761D01*
X159170000Y-92177142D01*
X159122380Y-92081904D01*
X159074761Y-91891428D01*
X159074761Y-91653333D01*
X159122380Y-91462857D01*
X159170000Y-91367619D01*
X159217619Y-91320000D01*
X159312857Y-91272380D01*
X160027142Y-91367619D02*
X160074761Y-91320000D01*
X160170000Y-91272380D01*
X160408095Y-91272380D01*
X160503333Y-91320000D01*
X160550952Y-91367619D01*
X160598571Y-91462857D01*
X160598571Y-91558095D01*
X160550952Y-91700952D01*
X159979523Y-92272380D01*
X160598571Y-92272380D01*
X161217619Y-91272380D02*
X161312857Y-91272380D01*
X161408095Y-91320000D01*
X161455714Y-91367619D01*
X161503333Y-91462857D01*
X161550952Y-91653333D01*
X161550952Y-91891428D01*
X161503333Y-92081904D01*
X161455714Y-92177142D01*
X161408095Y-92224761D01*
X161312857Y-92272380D01*
X161217619Y-92272380D01*
X161122380Y-92224761D01*
X161074761Y-92177142D01*
X161027142Y-92081904D01*
X160979523Y-91891428D01*
X160979523Y-91653333D01*
X161027142Y-91462857D01*
X161074761Y-91367619D01*
X161122380Y-91320000D01*
X161217619Y-91272380D01*
X111680714Y-101766666D02*
X112156904Y-101766666D01*
X111585476Y-102052380D02*
X111918809Y-101052380D01*
X112252142Y-102052380D01*
X112537857Y-101147619D02*
X112585476Y-101100000D01*
X112680714Y-101052380D01*
X112918809Y-101052380D01*
X113014047Y-101100000D01*
X113061666Y-101147619D01*
X113109285Y-101242857D01*
X113109285Y-101338095D01*
X113061666Y-101480952D01*
X112490238Y-102052380D01*
X113109285Y-102052380D01*
X111990238Y-93908571D02*
X112133095Y-93956190D01*
X112180714Y-94003809D01*
X112228333Y-94099047D01*
X112228333Y-94241904D01*
X112180714Y-94337142D01*
X112133095Y-94384761D01*
X112037857Y-94432380D01*
X111656904Y-94432380D01*
X111656904Y-93432380D01*
X111990238Y-93432380D01*
X112085476Y-93480000D01*
X112133095Y-93527619D01*
X112180714Y-93622857D01*
X112180714Y-93718095D01*
X112133095Y-93813333D01*
X112085476Y-93860952D01*
X111990238Y-93908571D01*
X111656904Y-93908571D01*
X112609285Y-93527619D02*
X112656904Y-93480000D01*
X112752142Y-93432380D01*
X112990238Y-93432380D01*
X113085476Y-93480000D01*
X113133095Y-93527619D01*
X113180714Y-93622857D01*
X113180714Y-93718095D01*
X113133095Y-93860952D01*
X112561666Y-94432380D01*
X113180714Y-94432380D01*
X111990238Y-96448571D02*
X112133095Y-96496190D01*
X112180714Y-96543809D01*
X112228333Y-96639047D01*
X112228333Y-96781904D01*
X112180714Y-96877142D01*
X112133095Y-96924761D01*
X112037857Y-96972380D01*
X111656904Y-96972380D01*
X111656904Y-95972380D01*
X111990238Y-95972380D01*
X112085476Y-96020000D01*
X112133095Y-96067619D01*
X112180714Y-96162857D01*
X112180714Y-96258095D01*
X112133095Y-96353333D01*
X112085476Y-96400952D01*
X111990238Y-96448571D01*
X111656904Y-96448571D01*
X113180714Y-96972380D02*
X112609285Y-96972380D01*
X112895000Y-96972380D02*
X112895000Y-95972380D01*
X112799761Y-96115238D01*
X112704523Y-96210476D01*
X112609285Y-96258095D01*
X111680714Y-99226666D02*
X112156904Y-99226666D01*
X111585476Y-99512380D02*
X111918809Y-98512380D01*
X112252142Y-99512380D01*
X113109285Y-99512380D02*
X112537857Y-99512380D01*
X112823571Y-99512380D02*
X112823571Y-98512380D01*
X112728333Y-98655238D01*
X112633095Y-98750476D01*
X112537857Y-98798095D01*
X103441666Y-83272380D02*
X103775000Y-84272380D01*
X104108333Y-83272380D01*
X105013095Y-84177142D02*
X104965476Y-84224761D01*
X104822619Y-84272380D01*
X104727380Y-84272380D01*
X104584523Y-84224761D01*
X104489285Y-84129523D01*
X104441666Y-84034285D01*
X104394047Y-83843809D01*
X104394047Y-83700952D01*
X104441666Y-83510476D01*
X104489285Y-83415238D01*
X104584523Y-83320000D01*
X104727380Y-83272380D01*
X104822619Y-83272380D01*
X104965476Y-83320000D01*
X105013095Y-83367619D01*
X106013095Y-84177142D02*
X105965476Y-84224761D01*
X105822619Y-84272380D01*
X105727380Y-84272380D01*
X105584523Y-84224761D01*
X105489285Y-84129523D01*
X105441666Y-84034285D01*
X105394047Y-83843809D01*
X105394047Y-83700952D01*
X105441666Y-83510476D01*
X105489285Y-83415238D01*
X105584523Y-83320000D01*
X105727380Y-83272380D01*
X105822619Y-83272380D01*
X105965476Y-83320000D01*
X106013095Y-83367619D01*
X104013095Y-90940000D02*
X103917857Y-90892380D01*
X103775000Y-90892380D01*
X103632142Y-90940000D01*
X103536904Y-91035238D01*
X103489285Y-91130476D01*
X103441666Y-91320952D01*
X103441666Y-91463809D01*
X103489285Y-91654285D01*
X103536904Y-91749523D01*
X103632142Y-91844761D01*
X103775000Y-91892380D01*
X103870238Y-91892380D01*
X104013095Y-91844761D01*
X104060714Y-91797142D01*
X104060714Y-91463809D01*
X103870238Y-91463809D01*
X104489285Y-91892380D02*
X104489285Y-90892380D01*
X105060714Y-91892380D01*
X105060714Y-90892380D01*
X105536904Y-91892380D02*
X105536904Y-90892380D01*
X105775000Y-90892380D01*
X105917857Y-90940000D01*
X106013095Y-91035238D01*
X106060714Y-91130476D01*
X106108333Y-91320952D01*
X106108333Y-91463809D01*
X106060714Y-91654285D01*
X106013095Y-91749523D01*
X105917857Y-91844761D01*
X105775000Y-91892380D01*
X105536904Y-91892380D01*
D11*
X147085000Y-84710000D02*
X147485000Y-84710000D01*
X147085000Y-84310000D02*
X147085000Y-84710000D01*
X153885000Y-84710000D02*
X153885000Y-84310000D01*
X153385000Y-84710000D02*
X153885000Y-84710000D01*
X153885000Y-65210000D02*
X153485000Y-65210000D01*
X153885000Y-65610000D02*
X153885000Y-65210000D01*
X147985000Y-65110000D02*
X146985000Y-66110000D01*
X148285000Y-65110000D02*
X147985000Y-65110000D01*
X146985000Y-66110000D02*
X146615000Y-66110000D01*
X146605000Y-66110000D02*
X146355000Y-66110000D01*
D12*
G36*
X155747489Y-94595877D02*
G01*
X156000815Y-94612080D01*
X156245456Y-94637432D01*
X156466939Y-94671061D01*
X156618341Y-94703495D01*
X156738740Y-94735808D01*
X156862414Y-94772018D01*
X156979700Y-94808922D01*
X157080936Y-94843315D01*
X157156460Y-94871995D01*
X157196608Y-94891758D01*
X157200600Y-94896533D01*
X157192101Y-94927746D01*
X157171763Y-94981711D01*
X157147319Y-95039845D01*
X157126504Y-95083563D01*
X157117709Y-95095687D01*
X157092698Y-95087107D01*
X157030891Y-95065778D01*
X156943495Y-95035568D01*
X156899099Y-95020210D01*
X156474182Y-94899996D01*
X156030869Y-94826952D01*
X155569768Y-94801135D01*
X155091488Y-94822605D01*
X154967652Y-94835559D01*
X154830204Y-94851557D01*
X154891872Y-94739628D01*
X154933774Y-94671414D01*
X154975149Y-94635343D01*
X155036568Y-94617346D01*
X155080120Y-94610875D01*
X155272669Y-94594403D01*
X155499950Y-94589694D01*
X155747489Y-94595877D01*
G37*
X155747489Y-94595877D02*
X156000815Y-94612080D01*
X156245456Y-94637432D01*
X156466939Y-94671061D01*
X156618341Y-94703495D01*
X156738740Y-94735808D01*
X156862414Y-94772018D01*
X156979700Y-94808922D01*
X157080936Y-94843315D01*
X157156460Y-94871995D01*
X157196608Y-94891758D01*
X157200600Y-94896533D01*
X157192101Y-94927746D01*
X157171763Y-94981711D01*
X157147319Y-95039845D01*
X157126504Y-95083563D01*
X157117709Y-95095687D01*
X157092698Y-95087107D01*
X157030891Y-95065778D01*
X156943495Y-95035568D01*
X156899099Y-95020210D01*
X156474182Y-94899996D01*
X156030869Y-94826952D01*
X155569768Y-94801135D01*
X155091488Y-94822605D01*
X154967652Y-94835559D01*
X154830204Y-94851557D01*
X154891872Y-94739628D01*
X154933774Y-94671414D01*
X154975149Y-94635343D01*
X155036568Y-94617346D01*
X155080120Y-94610875D01*
X155272669Y-94594403D01*
X155499950Y-94589694D01*
X155747489Y-94595877D01*
G36*
X154787600Y-94670979D02*
G01*
X154775846Y-94705420D01*
X154746319Y-94764793D01*
X154732044Y-94790364D01*
X154702597Y-94836335D01*
X154669360Y-94869425D01*
X154620802Y-94896066D01*
X154545391Y-94922688D01*
X154439486Y-94953508D01*
X154148378Y-95050688D01*
X153843523Y-95180015D01*
X153541194Y-95333262D01*
X153257665Y-95502203D01*
X153016840Y-95672633D01*
X152930790Y-95738537D01*
X152861744Y-95788966D01*
X152817878Y-95818105D01*
X152806400Y-95822305D01*
X152817765Y-95794949D01*
X152848220Y-95733897D01*
X152892301Y-95649927D01*
X152917491Y-95603180D01*
X152991976Y-95477915D01*
X153064208Y-95385471D01*
X153146825Y-95310097D01*
X153162089Y-95298391D01*
X153245052Y-95243652D01*
X153363870Y-95175259D01*
X153507358Y-95098743D01*
X153664334Y-95019638D01*
X153823616Y-94943477D01*
X153974020Y-94875793D01*
X154104364Y-94822119D01*
X154178000Y-94795742D01*
X154287558Y-94763014D01*
X154406235Y-94731964D01*
X154524040Y-94704640D01*
X154630983Y-94683084D01*
X154717073Y-94669342D01*
X154772319Y-94665459D01*
X154787600Y-94670979D01*
G37*
X154787600Y-94670979D02*
X154775846Y-94705420D01*
X154746319Y-94764793D01*
X154732044Y-94790364D01*
X154702597Y-94836335D01*
X154669360Y-94869425D01*
X154620802Y-94896066D01*
X154545391Y-94922688D01*
X154439486Y-94953508D01*
X154148378Y-95050688D01*
X153843523Y-95180015D01*
X153541194Y-95333262D01*
X153257665Y-95502203D01*
X153016840Y-95672633D01*
X152930790Y-95738537D01*
X152861744Y-95788966D01*
X152817878Y-95818105D01*
X152806400Y-95822305D01*
X152817765Y-95794949D01*
X152848220Y-95733897D01*
X152892301Y-95649927D01*
X152917491Y-95603180D01*
X152991976Y-95477915D01*
X153064208Y-95385471D01*
X153146825Y-95310097D01*
X153162089Y-95298391D01*
X153245052Y-95243652D01*
X153363870Y-95175259D01*
X153507358Y-95098743D01*
X153664334Y-95019638D01*
X153823616Y-94943477D01*
X153974020Y-94875793D01*
X154104364Y-94822119D01*
X154178000Y-94795742D01*
X154287558Y-94763014D01*
X154406235Y-94731964D01*
X154524040Y-94704640D01*
X154630983Y-94683084D01*
X154717073Y-94669342D01*
X154772319Y-94665459D01*
X154787600Y-94670979D01*
G36*
X156402379Y-95103712D02*
G01*
X156411470Y-95144337D01*
X156390239Y-95200938D01*
X156347819Y-95257491D01*
X156293344Y-95297974D01*
X156291042Y-95299033D01*
X156236774Y-95331189D01*
X156213908Y-95372989D01*
X156218466Y-95438327D01*
X156233891Y-95498739D01*
X156243635Y-95559288D01*
X156235189Y-95627064D01*
X156206018Y-95719482D01*
X156199007Y-95738386D01*
X156140233Y-95894730D01*
X156096324Y-95743815D01*
X156069928Y-95646988D01*
X156048172Y-95556474D01*
X156038826Y-95509380D01*
X156015371Y-95443540D01*
X155977525Y-95400346D01*
X155976377Y-95399712D01*
X155937101Y-95357640D01*
X155940403Y-95304612D01*
X155982932Y-95251377D01*
X156032200Y-95220709D01*
X156124859Y-95180372D01*
X156220803Y-95144567D01*
X156307466Y-95117266D01*
X156372284Y-95102440D01*
X156402379Y-95103712D01*
G37*
X156402379Y-95103712D02*
X156411470Y-95144337D01*
X156390239Y-95200938D01*
X156347819Y-95257491D01*
X156293344Y-95297974D01*
X156291042Y-95299033D01*
X156236774Y-95331189D01*
X156213908Y-95372989D01*
X156218466Y-95438327D01*
X156233891Y-95498739D01*
X156243635Y-95559288D01*
X156235189Y-95627064D01*
X156206018Y-95719482D01*
X156199007Y-95738386D01*
X156140233Y-95894730D01*
X156096324Y-95743815D01*
X156069928Y-95646988D01*
X156048172Y-95556474D01*
X156038826Y-95509380D01*
X156015371Y-95443540D01*
X155977525Y-95400346D01*
X155976377Y-95399712D01*
X155937101Y-95357640D01*
X155940403Y-95304612D01*
X155982932Y-95251377D01*
X156032200Y-95220709D01*
X156124859Y-95180372D01*
X156220803Y-95144567D01*
X156307466Y-95117266D01*
X156372284Y-95102440D01*
X156402379Y-95103712D01*
G36*
X156597198Y-95182308D02*
G01*
X156666180Y-95281641D01*
X156686044Y-95391588D01*
X156657091Y-95510985D01*
X156579619Y-95638671D01*
X156453929Y-95773481D01*
X156442251Y-95784131D01*
X156349108Y-95866065D01*
X156286924Y-95914974D01*
X156250924Y-95933940D01*
X156236332Y-95926043D01*
X156235400Y-95917599D01*
X156248995Y-95856657D01*
X156284093Y-95771906D01*
X156332167Y-95680504D01*
X156384685Y-95599613D01*
X156407642Y-95571049D01*
X156459557Y-95506576D01*
X156482170Y-95455070D01*
X156483238Y-95394751D01*
X156480001Y-95367849D01*
X156478680Y-95272296D01*
X156497126Y-95189732D01*
X156497586Y-95188653D01*
X156529498Y-95114607D01*
X156597198Y-95182308D01*
G37*
X156597198Y-95182308D02*
X156666180Y-95281641D01*
X156686044Y-95391588D01*
X156657091Y-95510985D01*
X156579619Y-95638671D01*
X156453929Y-95773481D01*
X156442251Y-95784131D01*
X156349108Y-95866065D01*
X156286924Y-95914974D01*
X156250924Y-95933940D01*
X156236332Y-95926043D01*
X156235400Y-95917599D01*
X156248995Y-95856657D01*
X156284093Y-95771906D01*
X156332167Y-95680504D01*
X156384685Y-95599613D01*
X156407642Y-95571049D01*
X156459557Y-95506576D01*
X156482170Y-95455070D01*
X156483238Y-95394751D01*
X156480001Y-95367849D01*
X156478680Y-95272296D01*
X156497126Y-95189732D01*
X156497586Y-95188653D01*
X156529498Y-95114607D01*
X156597198Y-95182308D01*
G36*
X155724945Y-95356665D02*
G01*
X155757968Y-95364488D01*
X155781337Y-95385598D01*
X155800256Y-95430320D01*
X155819927Y-95508982D01*
X155833147Y-95571393D01*
X155858723Y-95680105D01*
X155887531Y-95779726D01*
X155914066Y-95851585D01*
X155918450Y-95860663D01*
X155943094Y-95941680D01*
X155933732Y-96007189D01*
X155899115Y-96049412D01*
X155847993Y-96060573D01*
X155789119Y-96032895D01*
X155759438Y-96001970D01*
X155733708Y-95951752D01*
X155702994Y-95865557D01*
X155671898Y-95757296D01*
X155653985Y-95683143D01*
X155626413Y-95546126D01*
X155616099Y-95451072D01*
X155624408Y-95391691D01*
X155652707Y-95361696D01*
X155702365Y-95354798D01*
X155724945Y-95356665D01*
G37*
X155724945Y-95356665D02*
X155757968Y-95364488D01*
X155781337Y-95385598D01*
X155800256Y-95430320D01*
X155819927Y-95508982D01*
X155833147Y-95571393D01*
X155858723Y-95680105D01*
X155887531Y-95779726D01*
X155914066Y-95851585D01*
X155918450Y-95860663D01*
X155943094Y-95941680D01*
X155933732Y-96007189D01*
X155899115Y-96049412D01*
X155847993Y-96060573D01*
X155789119Y-96032895D01*
X155759438Y-96001970D01*
X155733708Y-95951752D01*
X155702994Y-95865557D01*
X155671898Y-95757296D01*
X155653985Y-95683143D01*
X155626413Y-95546126D01*
X155616099Y-95451072D01*
X155624408Y-95391691D01*
X155652707Y-95361696D01*
X155702365Y-95354798D01*
X155724945Y-95356665D01*
G36*
X155190707Y-95534207D02*
G01*
X155190757Y-95559947D01*
X155177175Y-95624278D01*
X155152315Y-95717572D01*
X155118532Y-95830201D01*
X155117589Y-95833196D01*
X155081362Y-95942907D01*
X155049569Y-96029603D01*
X155025527Y-96084890D01*
X155012550Y-96100375D01*
X155012218Y-96099896D01*
X154998001Y-96062479D01*
X154977248Y-95995016D01*
X154966014Y-95954850D01*
X154943121Y-95885243D01*
X154920941Y-95841652D01*
X154911298Y-95834200D01*
X154890160Y-95815088D01*
X154890998Y-95769180D01*
X154910287Y-95713612D01*
X154944503Y-95665523D01*
X154946350Y-95663798D01*
X155004593Y-95619071D01*
X155074417Y-95576692D01*
X155139732Y-95545196D01*
X155184445Y-95533116D01*
X155190707Y-95534207D01*
G37*
X155190707Y-95534207D02*
X155190757Y-95559947D01*
X155177175Y-95624278D01*
X155152315Y-95717572D01*
X155118532Y-95830201D01*
X155117589Y-95833196D01*
X155081362Y-95942907D01*
X155049569Y-96029603D01*
X155025527Y-96084890D01*
X155012550Y-96100375D01*
X155012218Y-96099896D01*
X154998001Y-96062479D01*
X154977248Y-95995016D01*
X154966014Y-95954850D01*
X154943121Y-95885243D01*
X154920941Y-95841652D01*
X154911298Y-95834200D01*
X154890160Y-95815088D01*
X154890998Y-95769180D01*
X154910287Y-95713612D01*
X154944503Y-95665523D01*
X154946350Y-95663798D01*
X155004593Y-95619071D01*
X155074417Y-95576692D01*
X155139732Y-95545196D01*
X155184445Y-95533116D01*
X155190707Y-95534207D01*
G36*
X157369993Y-94956277D02*
G01*
X157433490Y-94986458D01*
X157523216Y-95031167D01*
X157629814Y-95085827D01*
X157632588Y-95087268D01*
X157904013Y-95243130D01*
X158167251Y-95425779D01*
X158430206Y-95641371D01*
X158700784Y-95896061D01*
X158798192Y-95995002D01*
X158909884Y-96110448D01*
X158877441Y-96226324D01*
X158855284Y-96294207D01*
X158835603Y-96335912D01*
X158828491Y-96342200D01*
X158805919Y-96324409D01*
X158757264Y-96276148D01*
X158690005Y-96205082D01*
X158622242Y-96130746D01*
X158345437Y-95855599D01*
X158028935Y-95600641D01*
X157682128Y-95372984D01*
X157460950Y-95251196D01*
X157369691Y-95203314D01*
X157298540Y-95163835D01*
X157257510Y-95138424D01*
X157251400Y-95132604D01*
X157261308Y-95096116D01*
X157284849Y-95040716D01*
X157312751Y-94985568D01*
X157335740Y-94949838D01*
X157342081Y-94945200D01*
X157369993Y-94956277D01*
G37*
X157369993Y-94956277D02*
X157433490Y-94986458D01*
X157523216Y-95031167D01*
X157629814Y-95085827D01*
X157632588Y-95087268D01*
X157904013Y-95243130D01*
X158167251Y-95425779D01*
X158430206Y-95641371D01*
X158700784Y-95896061D01*
X158798192Y-95995002D01*
X158909884Y-96110448D01*
X158877441Y-96226324D01*
X158855284Y-96294207D01*
X158835603Y-96335912D01*
X158828491Y-96342200D01*
X158805919Y-96324409D01*
X158757264Y-96276148D01*
X158690005Y-96205082D01*
X158622242Y-96130746D01*
X158345437Y-95855599D01*
X158028935Y-95600641D01*
X157682128Y-95372984D01*
X157460950Y-95251196D01*
X157369691Y-95203314D01*
X157298540Y-95163835D01*
X157257510Y-95138424D01*
X157251400Y-95132604D01*
X157261308Y-95096116D01*
X157284849Y-95040716D01*
X157312751Y-94985568D01*
X157335740Y-94949838D01*
X157342081Y-94945200D01*
X157369993Y-94956277D01*
G36*
X155366383Y-95508995D02*
G01*
X155425941Y-95534279D01*
X155480682Y-95584525D01*
X155481527Y-95585652D01*
X155515865Y-95670792D01*
X155501531Y-95766710D01*
X155439109Y-95871761D01*
X155344588Y-95970705D01*
X155276611Y-96034148D01*
X155240099Y-96078670D01*
X155227621Y-96118026D01*
X155231745Y-96165971D01*
X155233597Y-96176150D01*
X155234645Y-96254603D01*
X155211290Y-96312853D01*
X155172040Y-96342444D01*
X155125401Y-96334919D01*
X155098505Y-96310450D01*
X155092534Y-96269652D01*
X155103926Y-96195806D01*
X155128548Y-96101890D01*
X155162267Y-96000885D01*
X155200948Y-95905768D01*
X155240459Y-95829520D01*
X155260903Y-95800501D01*
X155308274Y-95735862D01*
X155318269Y-95696808D01*
X155295004Y-95677368D01*
X155280942Y-95648339D01*
X155285449Y-95586521D01*
X155285750Y-95584996D01*
X155303307Y-95527819D01*
X155333284Y-95508062D01*
X155366383Y-95508995D01*
G37*
X155366383Y-95508995D02*
X155425941Y-95534279D01*
X155480682Y-95584525D01*
X155481527Y-95585652D01*
X155515865Y-95670792D01*
X155501531Y-95766710D01*
X155439109Y-95871761D01*
X155344588Y-95970705D01*
X155276611Y-96034148D01*
X155240099Y-96078670D01*
X155227621Y-96118026D01*
X155231745Y-96165971D01*
X155233597Y-96176150D01*
X155234645Y-96254603D01*
X155211290Y-96312853D01*
X155172040Y-96342444D01*
X155125401Y-96334919D01*
X155098505Y-96310450D01*
X155092534Y-96269652D01*
X155103926Y-96195806D01*
X155128548Y-96101890D01*
X155162267Y-96000885D01*
X155200948Y-95905768D01*
X155240459Y-95829520D01*
X155260903Y-95800501D01*
X155308274Y-95735862D01*
X155318269Y-95696808D01*
X155295004Y-95677368D01*
X155280942Y-95648339D01*
X155285449Y-95586521D01*
X155285750Y-95584996D01*
X155303307Y-95527819D01*
X155333284Y-95508062D01*
X155366383Y-95508995D01*
G36*
X154707263Y-95791116D02*
G01*
X154730554Y-95838093D01*
X154757462Y-95920039D01*
X154784511Y-96021939D01*
X154808228Y-96128780D01*
X154825137Y-96225550D01*
X154831764Y-96297235D01*
X154829782Y-96320470D01*
X154792025Y-96397907D01*
X154726530Y-96477100D01*
X154650999Y-96537085D01*
X154643219Y-96541409D01*
X154583815Y-96559520D01*
X154501018Y-96569866D01*
X154469815Y-96570800D01*
X154383743Y-96563566D01*
X154321821Y-96535440D01*
X154279705Y-96498613D01*
X154210712Y-96397425D01*
X154164353Y-96258656D01*
X154143645Y-96091586D01*
X154143230Y-96078912D01*
X154151879Y-95982295D01*
X154179415Y-95927497D01*
X154218677Y-95912725D01*
X154262501Y-95936186D01*
X154303723Y-95996087D01*
X154335180Y-96090635D01*
X154342131Y-96128692D01*
X154368672Y-96253582D01*
X154405795Y-96334415D01*
X154456773Y-96377407D01*
X154476765Y-96384242D01*
X154544567Y-96380374D01*
X154590252Y-96347636D01*
X154642283Y-96295605D01*
X154588239Y-96085390D01*
X154562532Y-95980825D01*
X154550150Y-95912415D01*
X154550355Y-95867500D01*
X154562410Y-95833418D01*
X154572583Y-95816587D01*
X154623331Y-95766567D01*
X154675113Y-95765039D01*
X154707263Y-95791116D01*
G37*
X154707263Y-95791116D02*
X154730554Y-95838093D01*
X154757462Y-95920039D01*
X154784511Y-96021939D01*
X154808228Y-96128780D01*
X154825137Y-96225550D01*
X154831764Y-96297235D01*
X154829782Y-96320470D01*
X154792025Y-96397907D01*
X154726530Y-96477100D01*
X154650999Y-96537085D01*
X154643219Y-96541409D01*
X154583815Y-96559520D01*
X154501018Y-96569866D01*
X154469815Y-96570800D01*
X154383743Y-96563566D01*
X154321821Y-96535440D01*
X154279705Y-96498613D01*
X154210712Y-96397425D01*
X154164353Y-96258656D01*
X154143645Y-96091586D01*
X154143230Y-96078912D01*
X154151879Y-95982295D01*
X154179415Y-95927497D01*
X154218677Y-95912725D01*
X154262501Y-95936186D01*
X154303723Y-95996087D01*
X154335180Y-96090635D01*
X154342131Y-96128692D01*
X154368672Y-96253582D01*
X154405795Y-96334415D01*
X154456773Y-96377407D01*
X154476765Y-96384242D01*
X154544567Y-96380374D01*
X154590252Y-96347636D01*
X154642283Y-96295605D01*
X154588239Y-96085390D01*
X154562532Y-95980825D01*
X154550150Y-95912415D01*
X154550355Y-95867500D01*
X154562410Y-95833418D01*
X154572583Y-95816587D01*
X154623331Y-95766567D01*
X154675113Y-95765039D01*
X154707263Y-95791116D01*
G36*
X154008654Y-96050668D02*
G01*
X154037584Y-96082413D01*
X154046093Y-96117429D01*
X154045577Y-96158395D01*
X154024754Y-96186223D01*
X153972403Y-96211094D01*
X153924481Y-96227740D01*
X153846584Y-96258051D01*
X153810624Y-96285440D01*
X153807531Y-96312810D01*
X153822161Y-96368095D01*
X153837143Y-96431100D01*
X153857516Y-96500738D01*
X153889232Y-96588881D01*
X153904971Y-96627935D01*
X153933730Y-96705289D01*
X153939630Y-96753075D01*
X153924453Y-96786150D01*
X153924011Y-96786685D01*
X153866878Y-96821130D01*
X153800667Y-96813785D01*
X153765045Y-96789216D01*
X153740283Y-96748437D01*
X153708141Y-96674072D01*
X153675142Y-96581398D01*
X153671824Y-96571009D01*
X153641051Y-96478185D01*
X153617728Y-96425278D01*
X153595720Y-96403256D01*
X153568888Y-96403087D01*
X153559543Y-96405767D01*
X153444981Y-96434308D01*
X153368604Y-96433478D01*
X153326528Y-96402379D01*
X153314788Y-96349176D01*
X153336262Y-96327001D01*
X153395223Y-96288688D01*
X153483022Y-96239354D01*
X153591006Y-96184115D01*
X153607398Y-96176125D01*
X153760124Y-96105613D01*
X153874715Y-96061627D01*
X153955962Y-96043525D01*
X154008654Y-96050668D01*
G37*
X154008654Y-96050668D02*
X154037584Y-96082413D01*
X154046093Y-96117429D01*
X154045577Y-96158395D01*
X154024754Y-96186223D01*
X153972403Y-96211094D01*
X153924481Y-96227740D01*
X153846584Y-96258051D01*
X153810624Y-96285440D01*
X153807531Y-96312810D01*
X153822161Y-96368095D01*
X153837143Y-96431100D01*
X153857516Y-96500738D01*
X153889232Y-96588881D01*
X153904971Y-96627935D01*
X153933730Y-96705289D01*
X153939630Y-96753075D01*
X153924453Y-96786150D01*
X153924011Y-96786685D01*
X153866878Y-96821130D01*
X153800667Y-96813785D01*
X153765045Y-96789216D01*
X153740283Y-96748437D01*
X153708141Y-96674072D01*
X153675142Y-96581398D01*
X153671824Y-96571009D01*
X153641051Y-96478185D01*
X153617728Y-96425278D01*
X153595720Y-96403256D01*
X153568888Y-96403087D01*
X153559543Y-96405767D01*
X153444981Y-96434308D01*
X153368604Y-96433478D01*
X153326528Y-96402379D01*
X153314788Y-96349176D01*
X153336262Y-96327001D01*
X153395223Y-96288688D01*
X153483022Y-96239354D01*
X153591006Y-96184115D01*
X153607398Y-96176125D01*
X153760124Y-96105613D01*
X153874715Y-96061627D01*
X153955962Y-96043525D01*
X154008654Y-96050668D01*
G36*
X153094010Y-96120770D02*
G01*
X153126051Y-96142229D01*
X153149631Y-96174040D01*
X153179473Y-96251878D01*
X153170422Y-96322335D01*
X153125885Y-96371697D01*
X153097783Y-96382749D01*
X153034375Y-96383922D01*
X152997789Y-96368337D01*
X152945079Y-96353966D01*
X152876489Y-96370670D01*
X152807503Y-96409567D01*
X152753608Y-96461774D01*
X152730288Y-96518406D01*
X152730200Y-96521843D01*
X152734171Y-96544316D01*
X152752242Y-96558637D01*
X152793645Y-96566617D01*
X152867613Y-96570068D01*
X152979772Y-96570800D01*
X153096449Y-96571813D01*
X153173990Y-96576349D01*
X153224043Y-96586656D01*
X153258256Y-96604980D01*
X153284572Y-96629587D01*
X153335338Y-96710611D01*
X153340260Y-96799421D01*
X153298719Y-96899271D01*
X153211942Y-97011402D01*
X153103963Y-97113042D01*
X152991364Y-97190542D01*
X152882481Y-97240509D01*
X152785647Y-97259549D01*
X152709196Y-97244270D01*
X152684480Y-97226120D01*
X152661547Y-97180264D01*
X152654940Y-97119644D01*
X152664506Y-97066245D01*
X152685750Y-97042803D01*
X152728855Y-97030867D01*
X152798392Y-97011865D01*
X152824305Y-97004824D01*
X152898640Y-96975873D01*
X152975421Y-96932598D01*
X153040588Y-96884668D01*
X153080077Y-96841753D01*
X153085800Y-96824993D01*
X153062232Y-96815292D01*
X152998848Y-96806043D01*
X152906622Y-96798574D01*
X152842064Y-96795501D01*
X152728458Y-96790629D01*
X152653600Y-96783677D01*
X152605456Y-96771306D01*
X152571989Y-96750175D01*
X152541165Y-96716942D01*
X152535855Y-96710500D01*
X152489471Y-96618492D01*
X152485505Y-96516715D01*
X152518603Y-96412666D01*
X152583409Y-96313845D01*
X152674567Y-96227747D01*
X152786721Y-96161872D01*
X152914515Y-96123718D01*
X152958705Y-96118524D01*
X153043573Y-96114423D01*
X153094010Y-96120770D01*
G37*
X153094010Y-96120770D02*
X153126051Y-96142229D01*
X153149631Y-96174040D01*
X153179473Y-96251878D01*
X153170422Y-96322335D01*
X153125885Y-96371697D01*
X153097783Y-96382749D01*
X153034375Y-96383922D01*
X152997789Y-96368337D01*
X152945079Y-96353966D01*
X152876489Y-96370670D01*
X152807503Y-96409567D01*
X152753608Y-96461774D01*
X152730288Y-96518406D01*
X152730200Y-96521843D01*
X152734171Y-96544316D01*
X152752242Y-96558637D01*
X152793645Y-96566617D01*
X152867613Y-96570068D01*
X152979772Y-96570800D01*
X153096449Y-96571813D01*
X153173990Y-96576349D01*
X153224043Y-96586656D01*
X153258256Y-96604980D01*
X153284572Y-96629587D01*
X153335338Y-96710611D01*
X153340260Y-96799421D01*
X153298719Y-96899271D01*
X153211942Y-97011402D01*
X153103963Y-97113042D01*
X152991364Y-97190542D01*
X152882481Y-97240509D01*
X152785647Y-97259549D01*
X152709196Y-97244270D01*
X152684480Y-97226120D01*
X152661547Y-97180264D01*
X152654940Y-97119644D01*
X152664506Y-97066245D01*
X152685750Y-97042803D01*
X152728855Y-97030867D01*
X152798392Y-97011865D01*
X152824305Y-97004824D01*
X152898640Y-96975873D01*
X152975421Y-96932598D01*
X153040588Y-96884668D01*
X153080077Y-96841753D01*
X153085800Y-96824993D01*
X153062232Y-96815292D01*
X152998848Y-96806043D01*
X152906622Y-96798574D01*
X152842064Y-96795501D01*
X152728458Y-96790629D01*
X152653600Y-96783677D01*
X152605456Y-96771306D01*
X152571989Y-96750175D01*
X152541165Y-96716942D01*
X152535855Y-96710500D01*
X152489471Y-96618492D01*
X152485505Y-96516715D01*
X152518603Y-96412666D01*
X152583409Y-96313845D01*
X152674567Y-96227747D01*
X152786721Y-96161872D01*
X152914515Y-96123718D01*
X152958705Y-96118524D01*
X153043573Y-96114423D01*
X153094010Y-96120770D01*
G36*
X155565941Y-97061248D02*
G01*
X155595912Y-97121806D01*
X155590956Y-97189168D01*
X155572933Y-97233393D01*
X155537592Y-97252599D01*
X155473432Y-97256600D01*
X155406040Y-97261708D01*
X155365086Y-97286004D01*
X155329624Y-97342939D01*
X155325120Y-97351850D01*
X155271755Y-97480895D01*
X155251824Y-97585761D01*
X155258185Y-97639760D01*
X155287875Y-97682237D01*
X155334570Y-97677030D01*
X155396500Y-97625644D01*
X155434358Y-97575684D01*
X155434645Y-97539995D01*
X155426645Y-97528174D01*
X155419175Y-97487096D01*
X155447984Y-97442838D01*
X155500493Y-97406139D01*
X155564126Y-97387734D01*
X155590834Y-97388007D01*
X155637151Y-97399568D01*
X155662934Y-97430167D01*
X155679352Y-97494539D01*
X155681662Y-97507807D01*
X155702353Y-97587329D01*
X155731116Y-97650710D01*
X155740707Y-97663671D01*
X155763967Y-97696730D01*
X155755160Y-97724446D01*
X155712599Y-97761714D01*
X155651868Y-97803903D01*
X155613903Y-97811032D01*
X155585834Y-97784246D01*
X155579497Y-97773539D01*
X155560361Y-97750848D01*
X155532836Y-97754386D01*
X155483366Y-97787239D01*
X155467888Y-97798939D01*
X155372409Y-97849952D01*
X155272581Y-97867697D01*
X155183123Y-97851497D01*
X155129638Y-97814448D01*
X155093759Y-97744937D01*
X155073631Y-97643563D01*
X155070188Y-97527055D01*
X155084365Y-97412141D01*
X155103467Y-97346238D01*
X155153687Y-97254616D01*
X155228189Y-97164079D01*
X155312894Y-97088862D01*
X155393725Y-97043197D01*
X155407250Y-97039095D01*
X155501098Y-97032080D01*
X155565941Y-97061248D01*
G37*
X155565941Y-97061248D02*
X155595912Y-97121806D01*
X155590956Y-97189168D01*
X155572933Y-97233393D01*
X155537592Y-97252599D01*
X155473432Y-97256600D01*
X155406040Y-97261708D01*
X155365086Y-97286004D01*
X155329624Y-97342939D01*
X155325120Y-97351850D01*
X155271755Y-97480895D01*
X155251824Y-97585761D01*
X155258185Y-97639760D01*
X155287875Y-97682237D01*
X155334570Y-97677030D01*
X155396500Y-97625644D01*
X155434358Y-97575684D01*
X155434645Y-97539995D01*
X155426645Y-97528174D01*
X155419175Y-97487096D01*
X155447984Y-97442838D01*
X155500493Y-97406139D01*
X155564126Y-97387734D01*
X155590834Y-97388007D01*
X155637151Y-97399568D01*
X155662934Y-97430167D01*
X155679352Y-97494539D01*
X155681662Y-97507807D01*
X155702353Y-97587329D01*
X155731116Y-97650710D01*
X155740707Y-97663671D01*
X155763967Y-97696730D01*
X155755160Y-97724446D01*
X155712599Y-97761714D01*
X155651868Y-97803903D01*
X155613903Y-97811032D01*
X155585834Y-97784246D01*
X155579497Y-97773539D01*
X155560361Y-97750848D01*
X155532836Y-97754386D01*
X155483366Y-97787239D01*
X155467888Y-97798939D01*
X155372409Y-97849952D01*
X155272581Y-97867697D01*
X155183123Y-97851497D01*
X155129638Y-97814448D01*
X155093759Y-97744937D01*
X155073631Y-97643563D01*
X155070188Y-97527055D01*
X155084365Y-97412141D01*
X155103467Y-97346238D01*
X155153687Y-97254616D01*
X155228189Y-97164079D01*
X155312894Y-97088862D01*
X155393725Y-97043197D01*
X155407250Y-97039095D01*
X155501098Y-97032080D01*
X155565941Y-97061248D01*
G36*
X154659647Y-97399269D02*
G01*
X154660600Y-97404171D01*
X154645105Y-97473278D01*
X154607812Y-97548462D01*
X154562511Y-97602352D01*
X154559749Y-97604373D01*
X154512638Y-97661495D01*
X154477750Y-97746903D01*
X154462480Y-97838312D01*
X154465889Y-97887151D01*
X154468329Y-97951654D01*
X154456989Y-98026078D01*
X154436447Y-98093506D01*
X154411278Y-98137021D01*
X154396229Y-98144633D01*
X154357897Y-98126553D01*
X154334263Y-98104944D01*
X154284973Y-98014127D01*
X154265342Y-97897741D01*
X154273055Y-97769689D01*
X154305793Y-97643876D01*
X154361240Y-97534204D01*
X154437079Y-97454578D01*
X154443345Y-97450323D01*
X154508462Y-97416670D01*
X154576294Y-97394803D01*
X154631727Y-97387932D01*
X154659647Y-97399269D01*
G37*
X154659647Y-97399269D02*
X154660600Y-97404171D01*
X154645105Y-97473278D01*
X154607812Y-97548462D01*
X154562511Y-97602352D01*
X154559749Y-97604373D01*
X154512638Y-97661495D01*
X154477750Y-97746903D01*
X154462480Y-97838312D01*
X154465889Y-97887151D01*
X154468329Y-97951654D01*
X154456989Y-98026078D01*
X154436447Y-98093506D01*
X154411278Y-98137021D01*
X154396229Y-98144633D01*
X154357897Y-98126553D01*
X154334263Y-98104944D01*
X154284973Y-98014127D01*
X154265342Y-97897741D01*
X154273055Y-97769689D01*
X154305793Y-97643876D01*
X154361240Y-97534204D01*
X154437079Y-97454578D01*
X154443345Y-97450323D01*
X154508462Y-97416670D01*
X154576294Y-97394803D01*
X154631727Y-97387932D01*
X154659647Y-97399269D01*
G36*
X154828054Y-97440963D02*
G01*
X154871093Y-97489988D01*
X154874954Y-97495093D01*
X154920054Y-97595085D01*
X154929794Y-97715062D01*
X154907847Y-97842493D01*
X154857885Y-97964849D01*
X154783581Y-98069602D01*
X154688606Y-98144220D01*
X154684000Y-98146620D01*
X154595692Y-98184809D01*
X154537623Y-98195254D01*
X154514454Y-98177685D01*
X154518182Y-98156222D01*
X154532146Y-98099148D01*
X154533600Y-98080218D01*
X154551281Y-98041473D01*
X154595145Y-97990162D01*
X154608972Y-97977234D01*
X154686646Y-97878215D01*
X154726954Y-97760515D01*
X154726330Y-97653255D01*
X154723192Y-97583587D01*
X154734382Y-97510694D01*
X154755406Y-97450047D01*
X154781771Y-97417119D01*
X154795291Y-97415797D01*
X154828054Y-97440963D01*
G37*
X154828054Y-97440963D02*
X154871093Y-97489988D01*
X154874954Y-97495093D01*
X154920054Y-97595085D01*
X154929794Y-97715062D01*
X154907847Y-97842493D01*
X154857885Y-97964849D01*
X154783581Y-98069602D01*
X154688606Y-98144220D01*
X154684000Y-98146620D01*
X154595692Y-98184809D01*
X154537623Y-98195254D01*
X154514454Y-98177685D01*
X154518182Y-98156222D01*
X154532146Y-98099148D01*
X154533600Y-98080218D01*
X154551281Y-98041473D01*
X154595145Y-97990162D01*
X154608972Y-97977234D01*
X154686646Y-97878215D01*
X154726954Y-97760515D01*
X154726330Y-97653255D01*
X154723192Y-97583587D01*
X154734382Y-97510694D01*
X154755406Y-97450047D01*
X154781771Y-97417119D01*
X154795291Y-97415797D01*
X154828054Y-97440963D01*
G36*
X153679970Y-97604138D02*
G01*
X153645701Y-97671743D01*
X153598396Y-97711152D01*
X153530117Y-97736512D01*
X153431142Y-97768700D01*
X153374216Y-97800970D01*
X153352008Y-97845342D01*
X153357190Y-97913836D01*
X153375219Y-97990520D01*
X153402715Y-98113182D01*
X153410906Y-98207607D01*
X153398416Y-98293088D01*
X153363867Y-98388919D01*
X153343526Y-98434551D01*
X153274943Y-98583803D01*
X153246386Y-98459951D01*
X153222066Y-98359384D01*
X153193015Y-98245821D01*
X153179825Y-98196400D01*
X153155579Y-98105207D01*
X153134835Y-98023668D01*
X153126451Y-97988542D01*
X153097828Y-97932149D01*
X153060340Y-97904281D01*
X153023414Y-97869713D01*
X153008710Y-97811236D01*
X153018603Y-97751702D01*
X153041350Y-97721705D01*
X153114969Y-97678282D01*
X153220636Y-97629781D01*
X153340956Y-97582786D01*
X153458531Y-97543880D01*
X153555967Y-97519648D01*
X153586262Y-97515466D01*
X153719129Y-97504447D01*
X153679970Y-97604138D01*
G37*
X153679970Y-97604138D02*
X153645701Y-97671743D01*
X153598396Y-97711152D01*
X153530117Y-97736512D01*
X153431142Y-97768700D01*
X153374216Y-97800970D01*
X153352008Y-97845342D01*
X153357190Y-97913836D01*
X153375219Y-97990520D01*
X153402715Y-98113182D01*
X153410906Y-98207607D01*
X153398416Y-98293088D01*
X153363867Y-98388919D01*
X153343526Y-98434551D01*
X153274943Y-98583803D01*
X153246386Y-98459951D01*
X153222066Y-98359384D01*
X153193015Y-98245821D01*
X153179825Y-98196400D01*
X153155579Y-98105207D01*
X153134835Y-98023668D01*
X153126451Y-97988542D01*
X153097828Y-97932149D01*
X153060340Y-97904281D01*
X153023414Y-97869713D01*
X153008710Y-97811236D01*
X153018603Y-97751702D01*
X153041350Y-97721705D01*
X153114969Y-97678282D01*
X153220636Y-97629781D01*
X153340956Y-97582786D01*
X153458531Y-97543880D01*
X153555967Y-97519648D01*
X153586262Y-97515466D01*
X153719129Y-97504447D01*
X153679970Y-97604138D01*
G36*
X152770282Y-95586416D02*
G01*
X152765093Y-95613866D01*
X152738089Y-95675337D01*
X152694378Y-95761770D01*
X152639067Y-95864106D01*
X152577264Y-95973286D01*
X152514076Y-96080251D01*
X152454612Y-96175943D01*
X152403979Y-96251304D01*
X152372787Y-96291400D01*
X152238284Y-96458668D01*
X152097807Y-96663010D01*
X151958085Y-96892310D01*
X151825846Y-97134455D01*
X151707818Y-97377331D01*
X151610730Y-97608823D01*
X151559318Y-97756047D01*
X151513636Y-97888302D01*
X151454898Y-98039147D01*
X151388859Y-98195490D01*
X151321270Y-98344246D01*
X151257886Y-98472323D01*
X151204458Y-98566635D01*
X151200017Y-98573504D01*
X151155734Y-98640900D01*
X151155567Y-98579934D01*
X151162675Y-98490296D01*
X151182574Y-98363763D01*
X151212568Y-98211820D01*
X151249965Y-98045956D01*
X151292069Y-97877657D01*
X151336186Y-97718410D01*
X151379623Y-97579702D01*
X151409283Y-97498193D01*
X151593385Y-97088938D01*
X151811949Y-96697665D01*
X152059486Y-96332696D01*
X152330509Y-96002354D01*
X152531685Y-95795772D01*
X152619410Y-95713620D01*
X152693157Y-95647069D01*
X152745676Y-95602483D01*
X152769712Y-95586226D01*
X152770282Y-95586416D01*
G37*
X152770282Y-95586416D02*
X152765093Y-95613866D01*
X152738089Y-95675337D01*
X152694378Y-95761770D01*
X152639067Y-95864106D01*
X152577264Y-95973286D01*
X152514076Y-96080251D01*
X152454612Y-96175943D01*
X152403979Y-96251304D01*
X152372787Y-96291400D01*
X152238284Y-96458668D01*
X152097807Y-96663010D01*
X151958085Y-96892310D01*
X151825846Y-97134455D01*
X151707818Y-97377331D01*
X151610730Y-97608823D01*
X151559318Y-97756047D01*
X151513636Y-97888302D01*
X151454898Y-98039147D01*
X151388859Y-98195490D01*
X151321270Y-98344246D01*
X151257886Y-98472323D01*
X151204458Y-98566635D01*
X151200017Y-98573504D01*
X151155734Y-98640900D01*
X151155567Y-98579934D01*
X151162675Y-98490296D01*
X151182574Y-98363763D01*
X151212568Y-98211820D01*
X151249965Y-98045956D01*
X151292069Y-97877657D01*
X151336186Y-97718410D01*
X151379623Y-97579702D01*
X151409283Y-97498193D01*
X151593385Y-97088938D01*
X151811949Y-96697665D01*
X152059486Y-96332696D01*
X152330509Y-96002354D01*
X152531685Y-95795772D01*
X152619410Y-95713620D01*
X152693157Y-95647069D01*
X152745676Y-95602483D01*
X152769712Y-95586226D01*
X152770282Y-95586416D01*
G36*
X153929657Y-97631534D02*
G01*
X153977570Y-97687425D01*
X154004199Y-97746347D01*
X154017656Y-97828952D01*
X154020421Y-97862599D01*
X154020794Y-97965536D01*
X154003112Y-98059006D01*
X153963013Y-98149602D01*
X153896136Y-98243919D01*
X153798119Y-98348550D01*
X153664602Y-98470089D01*
X153560246Y-98558350D01*
X153485441Y-98618318D01*
X153441079Y-98647353D01*
X153420285Y-98648991D01*
X153416000Y-98632579D01*
X153428997Y-98574770D01*
X153462538Y-98491128D01*
X153508444Y-98397720D01*
X153558537Y-98310614D01*
X153604639Y-98245879D01*
X153621637Y-98228550D01*
X153705783Y-98137481D01*
X153763940Y-98033626D01*
X153791278Y-97929863D01*
X153782967Y-97839075D01*
X153774838Y-97820080D01*
X153770486Y-97759912D01*
X153800902Y-97665324D01*
X153801254Y-97664504D01*
X153849832Y-97551709D01*
X153929657Y-97631534D01*
G37*
X153929657Y-97631534D02*
X153977570Y-97687425D01*
X154004199Y-97746347D01*
X154017656Y-97828952D01*
X154020421Y-97862599D01*
X154020794Y-97965536D01*
X154003112Y-98059006D01*
X153963013Y-98149602D01*
X153896136Y-98243919D01*
X153798119Y-98348550D01*
X153664602Y-98470089D01*
X153560246Y-98558350D01*
X153485441Y-98618318D01*
X153441079Y-98647353D01*
X153420285Y-98648991D01*
X153416000Y-98632579D01*
X153428997Y-98574770D01*
X153462538Y-98491128D01*
X153508444Y-98397720D01*
X153558537Y-98310614D01*
X153604639Y-98245879D01*
X153621637Y-98228550D01*
X153705783Y-98137481D01*
X153763940Y-98033626D01*
X153791278Y-97929863D01*
X153782967Y-97839075D01*
X153774838Y-97820080D01*
X153770486Y-97759912D01*
X153800902Y-97665324D01*
X153801254Y-97664504D01*
X153849832Y-97551709D01*
X153929657Y-97631534D01*
G36*
X159027222Y-96267060D02*
G01*
X159069817Y-96318151D01*
X159128077Y-96398475D01*
X159197170Y-96500633D01*
X159272265Y-96617222D01*
X159348529Y-96740843D01*
X159421130Y-96864096D01*
X159485236Y-96979579D01*
X159507325Y-97021758D01*
X159665872Y-97375466D01*
X159798157Y-97764934D01*
X159879192Y-98079553D01*
X159945651Y-98375872D01*
X159877001Y-98609986D01*
X159845189Y-98713708D01*
X159816315Y-98799373D01*
X159794587Y-98854891D01*
X159787175Y-98868230D01*
X159776266Y-98858294D01*
X159768621Y-98808610D01*
X159766000Y-98736912D01*
X159758150Y-98622523D01*
X159736350Y-98471631D01*
X159703226Y-98295751D01*
X159661404Y-98106400D01*
X159613508Y-97915093D01*
X159562165Y-97733348D01*
X159509999Y-97572679D01*
X159485528Y-97506655D01*
X159417800Y-97349770D01*
X159329096Y-97168369D01*
X159228170Y-96979129D01*
X159123777Y-96798726D01*
X159062039Y-96699996D01*
X158923524Y-96486292D01*
X158954546Y-96375491D01*
X158977245Y-96306190D01*
X158998344Y-96260529D01*
X159005125Y-96252604D01*
X159027222Y-96267060D01*
G37*
X159027222Y-96267060D02*
X159069817Y-96318151D01*
X159128077Y-96398475D01*
X159197170Y-96500633D01*
X159272265Y-96617222D01*
X159348529Y-96740843D01*
X159421130Y-96864096D01*
X159485236Y-96979579D01*
X159507325Y-97021758D01*
X159665872Y-97375466D01*
X159798157Y-97764934D01*
X159879192Y-98079553D01*
X159945651Y-98375872D01*
X159877001Y-98609986D01*
X159845189Y-98713708D01*
X159816315Y-98799373D01*
X159794587Y-98854891D01*
X159787175Y-98868230D01*
X159776266Y-98858294D01*
X159768621Y-98808610D01*
X159766000Y-98736912D01*
X159758150Y-98622523D01*
X159736350Y-98471631D01*
X159703226Y-98295751D01*
X159661404Y-98106400D01*
X159613508Y-97915093D01*
X159562165Y-97733348D01*
X159509999Y-97572679D01*
X159485528Y-97506655D01*
X159417800Y-97349770D01*
X159329096Y-97168369D01*
X159228170Y-96979129D01*
X159123777Y-96798726D01*
X159062039Y-96699996D01*
X158923524Y-96486292D01*
X158954546Y-96375491D01*
X158977245Y-96306190D01*
X158998344Y-96260529D01*
X159005125Y-96252604D01*
X159027222Y-96267060D01*
G36*
X151367610Y-98573780D02*
G01*
X151360691Y-98627856D01*
X151356531Y-98647250D01*
X151343609Y-98738510D01*
X151336478Y-98867396D01*
X151335096Y-99021067D01*
X151339422Y-99186685D01*
X151349414Y-99351410D01*
X151359126Y-99453700D01*
X151392781Y-99706948D01*
X151436268Y-99936785D01*
X151494531Y-100165252D01*
X151572511Y-100414389D01*
X151578709Y-100432796D01*
X151695011Y-100776893D01*
X151631253Y-100902347D01*
X151567496Y-101027801D01*
X151523994Y-100926550D01*
X151391322Y-100580847D01*
X151282857Y-100221609D01*
X151201383Y-99861219D01*
X151149683Y-99512056D01*
X151130540Y-99186504D01*
X151130495Y-99176235D01*
X151132052Y-99076165D01*
X151140454Y-98999885D01*
X151160432Y-98929238D01*
X151196713Y-98846066D01*
X151237950Y-98763600D01*
X151286473Y-98671779D01*
X151327467Y-98600075D01*
X151355042Y-98558506D01*
X151362275Y-98552114D01*
X151367610Y-98573780D01*
G37*
X151367610Y-98573780D02*
X151360691Y-98627856D01*
X151356531Y-98647250D01*
X151343609Y-98738510D01*
X151336478Y-98867396D01*
X151335096Y-99021067D01*
X151339422Y-99186685D01*
X151349414Y-99351410D01*
X151359126Y-99453700D01*
X151392781Y-99706948D01*
X151436268Y-99936785D01*
X151494531Y-100165252D01*
X151572511Y-100414389D01*
X151578709Y-100432796D01*
X151695011Y-100776893D01*
X151631253Y-100902347D01*
X151567496Y-101027801D01*
X151523994Y-100926550D01*
X151391322Y-100580847D01*
X151282857Y-100221609D01*
X151201383Y-99861219D01*
X151149683Y-99512056D01*
X151130540Y-99186504D01*
X151130495Y-99176235D01*
X151132052Y-99076165D01*
X151140454Y-98999885D01*
X151160432Y-98929238D01*
X151196713Y-98846066D01*
X151237950Y-98763600D01*
X151286473Y-98671779D01*
X151327467Y-98600075D01*
X151355042Y-98558506D01*
X151362275Y-98552114D01*
X151367610Y-98573780D01*
G36*
X157717618Y-97486393D02*
G01*
X157767305Y-97520326D01*
X157805129Y-97560676D01*
X157833128Y-97614914D01*
X157853344Y-97690515D01*
X157867814Y-97794952D01*
X157878580Y-97935701D01*
X157887132Y-98107500D01*
X157895144Y-98256661D01*
X157905339Y-98393484D01*
X157916725Y-98507556D01*
X157928311Y-98588464D01*
X157935919Y-98619557D01*
X157951589Y-98678540D01*
X157944625Y-98732515D01*
X157913485Y-98802695D01*
X157880050Y-98876112D01*
X157865000Y-98939758D01*
X157867629Y-99010771D01*
X157887236Y-99106291D01*
X157899100Y-99152997D01*
X157928453Y-99301895D01*
X157933587Y-99443662D01*
X157913747Y-99595584D01*
X157872644Y-99759683D01*
X157846319Y-99859488D01*
X157829816Y-99940446D01*
X157825327Y-99990679D01*
X157828194Y-100000492D01*
X157855896Y-100020620D01*
X157917416Y-100062885D01*
X158004167Y-100121456D01*
X158107561Y-100190501D01*
X158127700Y-100203872D01*
X158246679Y-100284592D01*
X158363205Y-100366777D01*
X158463785Y-100440726D01*
X158534100Y-100496043D01*
X158669302Y-100599420D01*
X158792875Y-100668882D01*
X158921069Y-100712977D01*
X158965900Y-100723162D01*
X159043529Y-100742633D01*
X159086942Y-100768090D01*
X159112373Y-100811463D01*
X159121457Y-100837454D01*
X159136961Y-100905702D01*
X159126148Y-100954650D01*
X159108757Y-100981768D01*
X159033670Y-101049805D01*
X158940535Y-101087977D01*
X158902157Y-101092000D01*
X158817690Y-101076806D01*
X158704068Y-101034435D01*
X158571594Y-100969703D01*
X158430574Y-100887426D01*
X158348317Y-100833144D01*
X158170887Y-100710963D01*
X158029083Y-100615559D01*
X157916750Y-100544816D01*
X157827732Y-100496615D01*
X157755872Y-100468839D01*
X157695015Y-100459371D01*
X157639005Y-100466095D01*
X157581686Y-100486893D01*
X157516902Y-100519647D01*
X157485870Y-100536523D01*
X157397296Y-100584672D01*
X157316296Y-100628307D01*
X157270365Y-100652725D01*
X157200431Y-100689404D01*
X157333865Y-100780291D01*
X157454116Y-100864812D01*
X157559281Y-100945714D01*
X157664518Y-101035466D01*
X157784985Y-101146538D01*
X157822900Y-101182575D01*
X157917702Y-101269239D01*
X158016362Y-101353154D01*
X158102086Y-101420223D01*
X158126636Y-101437588D01*
X158222099Y-101512113D01*
X158306637Y-101596023D01*
X158371846Y-101679059D01*
X158409323Y-101750961D01*
X158414563Y-101789131D01*
X158403152Y-101819761D01*
X158371701Y-101836380D01*
X158307541Y-101843836D01*
X158267400Y-101845412D01*
X158161496Y-101843338D01*
X158054161Y-101833359D01*
X158013400Y-101826701D01*
X157922784Y-101805820D01*
X157849417Y-101779497D01*
X157781756Y-101740458D01*
X157708259Y-101681433D01*
X157617382Y-101595147D01*
X157568848Y-101546603D01*
X157477680Y-101458501D01*
X157389647Y-101380089D01*
X157316199Y-101321216D01*
X157276800Y-101295402D01*
X157196698Y-101243423D01*
X157122171Y-101179736D01*
X157117537Y-101174951D01*
X157055457Y-101123272D01*
X156968370Y-101066950D01*
X156900025Y-101030519D01*
X156814849Y-100985798D01*
X156763301Y-100944627D01*
X156731171Y-100893459D01*
X156716387Y-100855454D01*
X156671209Y-100768803D01*
X156616400Y-100721776D01*
X156467397Y-100652936D01*
X156356107Y-100598062D01*
X156273592Y-100551012D01*
X156210915Y-100505647D01*
X156159135Y-100455825D01*
X156109317Y-100395404D01*
X156075828Y-100350388D01*
X156009947Y-100263391D01*
X155960427Y-100209584D01*
X155915877Y-100179609D01*
X155864902Y-100164108D01*
X155844764Y-100160579D01*
X155745597Y-100127217D01*
X155658259Y-100055011D01*
X155657550Y-100054240D01*
X155608336Y-100003208D01*
X155583716Y-99987465D01*
X155575515Y-100003485D01*
X155575000Y-100018635D01*
X155561901Y-100053826D01*
X155518950Y-100098892D01*
X155440669Y-100158752D01*
X155352750Y-100218097D01*
X155250220Y-100282381D01*
X155154135Y-100337809D01*
X155078021Y-100376807D01*
X155046712Y-100389439D01*
X154980012Y-100424007D01*
X154905784Y-100482196D01*
X154872819Y-100515218D01*
X154782714Y-100614954D01*
X154880407Y-100715973D01*
X154955358Y-100782244D01*
X155036017Y-100837090D01*
X155072392Y-100855270D01*
X155154547Y-100906453D01*
X155188711Y-100974012D01*
X155181318Y-101041140D01*
X155143346Y-101090903D01*
X155079158Y-101107721D01*
X154999772Y-101093212D01*
X154916202Y-101048993D01*
X154853453Y-100993000D01*
X154794195Y-100952579D01*
X154739213Y-100939253D01*
X154642555Y-100931996D01*
X154586504Y-100907570D01*
X154562134Y-100860098D01*
X154559000Y-100820565D01*
X154559000Y-100732855D01*
X154442367Y-100829877D01*
X154361717Y-100898167D01*
X154265065Y-100981705D01*
X154178848Y-101057528D01*
X154101984Y-101122562D01*
X154034137Y-101174124D01*
X153988407Y-101202355D01*
X153984330Y-101203946D01*
X153945512Y-101231969D01*
X153891223Y-101289512D01*
X153838525Y-101356974D01*
X153775273Y-101436839D01*
X153710253Y-101494638D01*
X153625335Y-101544572D01*
X153559125Y-101575840D01*
X153408053Y-101634735D01*
X153277866Y-101667214D01*
X153175845Y-101671934D01*
X153122180Y-101656439D01*
X153068510Y-101645724D01*
X152995103Y-101669481D01*
X152992351Y-101670784D01*
X152938727Y-101692953D01*
X152895424Y-101695508D01*
X152841446Y-101676634D01*
X152793907Y-101653623D01*
X152720812Y-101614795D01*
X152687822Y-101585198D01*
X152688982Y-101552637D01*
X152718338Y-101504914D01*
X152720090Y-101502409D01*
X152746211Y-101457670D01*
X152741074Y-101430979D01*
X152697744Y-101414702D01*
X152630697Y-101404019D01*
X152556121Y-101400504D01*
X152527318Y-101415859D01*
X152527000Y-101418855D01*
X152508709Y-101444821D01*
X152462226Y-101443137D01*
X152400132Y-101416450D01*
X152351148Y-101381842D01*
X152293229Y-101317522D01*
X152273369Y-101246314D01*
X152272999Y-101232159D01*
X152258679Y-101164600D01*
X152222612Y-101126594D01*
X152175138Y-101128158D01*
X152169107Y-101131516D01*
X152150118Y-101123404D01*
X152146001Y-101099849D01*
X152167833Y-101061808D01*
X152230989Y-101003007D01*
X152331964Y-100926579D01*
X152367915Y-100901500D01*
X152617125Y-100737633D01*
X152838838Y-100608003D01*
X153039700Y-100509232D01*
X153226355Y-100437943D01*
X153347173Y-100403775D01*
X153470935Y-100352565D01*
X153550373Y-100284524D01*
X153617075Y-100213085D01*
X153696647Y-100130538D01*
X153738386Y-100088285D01*
X153844873Y-99981775D01*
X153777200Y-99819337D01*
X153739848Y-99717730D01*
X153718800Y-99622786D01*
X153709953Y-99511795D01*
X153708813Y-99441000D01*
X153721618Y-99260354D01*
X153765105Y-99109987D01*
X153844899Y-98975992D01*
X153939507Y-98870399D01*
X154107255Y-98707651D01*
X154246764Y-98577612D01*
X154364351Y-98475755D01*
X154466333Y-98397552D01*
X154559029Y-98338476D01*
X154648754Y-98294001D01*
X154741827Y-98259598D01*
X154825176Y-98235703D01*
X154888781Y-98221539D01*
X154956671Y-98212602D01*
X155038549Y-98208671D01*
X155144118Y-98209525D01*
X155283080Y-98214943D01*
X155420174Y-98222155D01*
X155581302Y-98232828D01*
X155739204Y-98246235D01*
X155880876Y-98261064D01*
X155993315Y-98276002D01*
X156044900Y-98285219D01*
X156146320Y-98306726D01*
X156238446Y-98325929D01*
X156298900Y-98338185D01*
X156375100Y-98353108D01*
X156376317Y-98027104D01*
X156380675Y-97844823D01*
X156393868Y-97711551D01*
X156418396Y-97625893D01*
X156456760Y-97586454D01*
X156511460Y-97591840D01*
X156584995Y-97640656D01*
X156679868Y-97731507D01*
X156756474Y-97815042D01*
X156959300Y-98043284D01*
X157086300Y-98043253D01*
X157165711Y-98039711D01*
X157225131Y-98030736D01*
X157241718Y-98024561D01*
X157267925Y-97992987D01*
X157306264Y-97930658D01*
X157337858Y-97871638D01*
X157392577Y-97776634D01*
X157456810Y-97683654D01*
X157489924Y-97643038D01*
X157546413Y-97575186D01*
X157591454Y-97513011D01*
X157603665Y-97492601D01*
X157633061Y-97436503D01*
X157717618Y-97486393D01*
G37*
X157717618Y-97486393D02*
X157767305Y-97520326D01*
X157805129Y-97560676D01*
X157833128Y-97614914D01*
X157853344Y-97690515D01*
X157867814Y-97794952D01*
X157878580Y-97935701D01*
X157887132Y-98107500D01*
X157895144Y-98256661D01*
X157905339Y-98393484D01*
X157916725Y-98507556D01*
X157928311Y-98588464D01*
X157935919Y-98619557D01*
X157951589Y-98678540D01*
X157944625Y-98732515D01*
X157913485Y-98802695D01*
X157880050Y-98876112D01*
X157865000Y-98939758D01*
X157867629Y-99010771D01*
X157887236Y-99106291D01*
X157899100Y-99152997D01*
X157928453Y-99301895D01*
X157933587Y-99443662D01*
X157913747Y-99595584D01*
X157872644Y-99759683D01*
X157846319Y-99859488D01*
X157829816Y-99940446D01*
X157825327Y-99990679D01*
X157828194Y-100000492D01*
X157855896Y-100020620D01*
X157917416Y-100062885D01*
X158004167Y-100121456D01*
X158107561Y-100190501D01*
X158127700Y-100203872D01*
X158246679Y-100284592D01*
X158363205Y-100366777D01*
X158463785Y-100440726D01*
X158534100Y-100496043D01*
X158669302Y-100599420D01*
X158792875Y-100668882D01*
X158921069Y-100712977D01*
X158965900Y-100723162D01*
X159043529Y-100742633D01*
X159086942Y-100768090D01*
X159112373Y-100811463D01*
X159121457Y-100837454D01*
X159136961Y-100905702D01*
X159126148Y-100954650D01*
X159108757Y-100981768D01*
X159033670Y-101049805D01*
X158940535Y-101087977D01*
X158902157Y-101092000D01*
X158817690Y-101076806D01*
X158704068Y-101034435D01*
X158571594Y-100969703D01*
X158430574Y-100887426D01*
X158348317Y-100833144D01*
X158170887Y-100710963D01*
X158029083Y-100615559D01*
X157916750Y-100544816D01*
X157827732Y-100496615D01*
X157755872Y-100468839D01*
X157695015Y-100459371D01*
X157639005Y-100466095D01*
X157581686Y-100486893D01*
X157516902Y-100519647D01*
X157485870Y-100536523D01*
X157397296Y-100584672D01*
X157316296Y-100628307D01*
X157270365Y-100652725D01*
X157200431Y-100689404D01*
X157333865Y-100780291D01*
X157454116Y-100864812D01*
X157559281Y-100945714D01*
X157664518Y-101035466D01*
X157784985Y-101146538D01*
X157822900Y-101182575D01*
X157917702Y-101269239D01*
X158016362Y-101353154D01*
X158102086Y-101420223D01*
X158126636Y-101437588D01*
X158222099Y-101512113D01*
X158306637Y-101596023D01*
X158371846Y-101679059D01*
X158409323Y-101750961D01*
X158414563Y-101789131D01*
X158403152Y-101819761D01*
X158371701Y-101836380D01*
X158307541Y-101843836D01*
X158267400Y-101845412D01*
X158161496Y-101843338D01*
X158054161Y-101833359D01*
X158013400Y-101826701D01*
X157922784Y-101805820D01*
X157849417Y-101779497D01*
X157781756Y-101740458D01*
X157708259Y-101681433D01*
X157617382Y-101595147D01*
X157568848Y-101546603D01*
X157477680Y-101458501D01*
X157389647Y-101380089D01*
X157316199Y-101321216D01*
X157276800Y-101295402D01*
X157196698Y-101243423D01*
X157122171Y-101179736D01*
X157117537Y-101174951D01*
X157055457Y-101123272D01*
X156968370Y-101066950D01*
X156900025Y-101030519D01*
X156814849Y-100985798D01*
X156763301Y-100944627D01*
X156731171Y-100893459D01*
X156716387Y-100855454D01*
X156671209Y-100768803D01*
X156616400Y-100721776D01*
X156467397Y-100652936D01*
X156356107Y-100598062D01*
X156273592Y-100551012D01*
X156210915Y-100505647D01*
X156159135Y-100455825D01*
X156109317Y-100395404D01*
X156075828Y-100350388D01*
X156009947Y-100263391D01*
X155960427Y-100209584D01*
X155915877Y-100179609D01*
X155864902Y-100164108D01*
X155844764Y-100160579D01*
X155745597Y-100127217D01*
X155658259Y-100055011D01*
X155657550Y-100054240D01*
X155608336Y-100003208D01*
X155583716Y-99987465D01*
X155575515Y-100003485D01*
X155575000Y-100018635D01*
X155561901Y-100053826D01*
X155518950Y-100098892D01*
X155440669Y-100158752D01*
X155352750Y-100218097D01*
X155250220Y-100282381D01*
X155154135Y-100337809D01*
X155078021Y-100376807D01*
X155046712Y-100389439D01*
X154980012Y-100424007D01*
X154905784Y-100482196D01*
X154872819Y-100515218D01*
X154782714Y-100614954D01*
X154880407Y-100715973D01*
X154955358Y-100782244D01*
X155036017Y-100837090D01*
X155072392Y-100855270D01*
X155154547Y-100906453D01*
X155188711Y-100974012D01*
X155181318Y-101041140D01*
X155143346Y-101090903D01*
X155079158Y-101107721D01*
X154999772Y-101093212D01*
X154916202Y-101048993D01*
X154853453Y-100993000D01*
X154794195Y-100952579D01*
X154739213Y-100939253D01*
X154642555Y-100931996D01*
X154586504Y-100907570D01*
X154562134Y-100860098D01*
X154559000Y-100820565D01*
X154559000Y-100732855D01*
X154442367Y-100829877D01*
X154361717Y-100898167D01*
X154265065Y-100981705D01*
X154178848Y-101057528D01*
X154101984Y-101122562D01*
X154034137Y-101174124D01*
X153988407Y-101202355D01*
X153984330Y-101203946D01*
X153945512Y-101231969D01*
X153891223Y-101289512D01*
X153838525Y-101356974D01*
X153775273Y-101436839D01*
X153710253Y-101494638D01*
X153625335Y-101544572D01*
X153559125Y-101575840D01*
X153408053Y-101634735D01*
X153277866Y-101667214D01*
X153175845Y-101671934D01*
X153122180Y-101656439D01*
X153068510Y-101645724D01*
X152995103Y-101669481D01*
X152992351Y-101670784D01*
X152938727Y-101692953D01*
X152895424Y-101695508D01*
X152841446Y-101676634D01*
X152793907Y-101653623D01*
X152720812Y-101614795D01*
X152687822Y-101585198D01*
X152688982Y-101552637D01*
X152718338Y-101504914D01*
X152720090Y-101502409D01*
X152746211Y-101457670D01*
X152741074Y-101430979D01*
X152697744Y-101414702D01*
X152630697Y-101404019D01*
X152556121Y-101400504D01*
X152527318Y-101415859D01*
X152527000Y-101418855D01*
X152508709Y-101444821D01*
X152462226Y-101443137D01*
X152400132Y-101416450D01*
X152351148Y-101381842D01*
X152293229Y-101317522D01*
X152273369Y-101246314D01*
X152272999Y-101232159D01*
X152258679Y-101164600D01*
X152222612Y-101126594D01*
X152175138Y-101128158D01*
X152169107Y-101131516D01*
X152150118Y-101123404D01*
X152146001Y-101099849D01*
X152167833Y-101061808D01*
X152230989Y-101003007D01*
X152331964Y-100926579D01*
X152367915Y-100901500D01*
X152617125Y-100737633D01*
X152838838Y-100608003D01*
X153039700Y-100509232D01*
X153226355Y-100437943D01*
X153347173Y-100403775D01*
X153470935Y-100352565D01*
X153550373Y-100284524D01*
X153617075Y-100213085D01*
X153696647Y-100130538D01*
X153738386Y-100088285D01*
X153844873Y-99981775D01*
X153777200Y-99819337D01*
X153739848Y-99717730D01*
X153718800Y-99622786D01*
X153709953Y-99511795D01*
X153708813Y-99441000D01*
X153721618Y-99260354D01*
X153765105Y-99109987D01*
X153844899Y-98975992D01*
X153939507Y-98870399D01*
X154107255Y-98707651D01*
X154246764Y-98577612D01*
X154364351Y-98475755D01*
X154466333Y-98397552D01*
X154559029Y-98338476D01*
X154648754Y-98294001D01*
X154741827Y-98259598D01*
X154825176Y-98235703D01*
X154888781Y-98221539D01*
X154956671Y-98212602D01*
X155038549Y-98208671D01*
X155144118Y-98209525D01*
X155283080Y-98214943D01*
X155420174Y-98222155D01*
X155581302Y-98232828D01*
X155739204Y-98246235D01*
X155880876Y-98261064D01*
X155993315Y-98276002D01*
X156044900Y-98285219D01*
X156146320Y-98306726D01*
X156238446Y-98325929D01*
X156298900Y-98338185D01*
X156375100Y-98353108D01*
X156376317Y-98027104D01*
X156380675Y-97844823D01*
X156393868Y-97711551D01*
X156418396Y-97625893D01*
X156456760Y-97586454D01*
X156511460Y-97591840D01*
X156584995Y-97640656D01*
X156679868Y-97731507D01*
X156756474Y-97815042D01*
X156959300Y-98043284D01*
X157086300Y-98043253D01*
X157165711Y-98039711D01*
X157225131Y-98030736D01*
X157241718Y-98024561D01*
X157267925Y-97992987D01*
X157306264Y-97930658D01*
X157337858Y-97871638D01*
X157392577Y-97776634D01*
X157456810Y-97683654D01*
X157489924Y-97643038D01*
X157546413Y-97575186D01*
X157591454Y-97513011D01*
X157603665Y-97492601D01*
X157633061Y-97436503D01*
X157717618Y-97486393D01*
G36*
X159983718Y-98755817D02*
G01*
X159988928Y-98815344D01*
X159992671Y-98908368D01*
X159994495Y-99026236D01*
X159994600Y-99064045D01*
X159970152Y-99550755D01*
X159897233Y-100024766D01*
X159776477Y-100483956D01*
X159608519Y-100926205D01*
X159393995Y-101349391D01*
X159232935Y-101608677D01*
X159163325Y-101711363D01*
X159102732Y-101798121D01*
X159057233Y-101860431D01*
X159032906Y-101889776D01*
X159031769Y-101890635D01*
X159031163Y-101872749D01*
X159043978Y-101814588D01*
X159068126Y-101724249D01*
X159101521Y-101609832D01*
X159118244Y-101555116D01*
X159170306Y-101398432D01*
X159232122Y-101230015D01*
X159295936Y-101070136D01*
X159353738Y-100939600D01*
X159495060Y-100615641D01*
X159605001Y-100296183D01*
X159688741Y-99963738D01*
X159751459Y-99600819D01*
X159752497Y-99593400D01*
X159771406Y-99480272D01*
X159798335Y-99348804D01*
X159830649Y-99209017D01*
X159865708Y-99070933D01*
X159900876Y-98944574D01*
X159933516Y-98839963D01*
X159960988Y-98767122D01*
X159977497Y-98738436D01*
X159983718Y-98755817D01*
G37*
X159983718Y-98755817D02*
X159988928Y-98815344D01*
X159992671Y-98908368D01*
X159994495Y-99026236D01*
X159994600Y-99064045D01*
X159970152Y-99550755D01*
X159897233Y-100024766D01*
X159776477Y-100483956D01*
X159608519Y-100926205D01*
X159393995Y-101349391D01*
X159232935Y-101608677D01*
X159163325Y-101711363D01*
X159102732Y-101798121D01*
X159057233Y-101860431D01*
X159032906Y-101889776D01*
X159031769Y-101890635D01*
X159031163Y-101872749D01*
X159043978Y-101814588D01*
X159068126Y-101724249D01*
X159101521Y-101609832D01*
X159118244Y-101555116D01*
X159170306Y-101398432D01*
X159232122Y-101230015D01*
X159295936Y-101070136D01*
X159353738Y-100939600D01*
X159495060Y-100615641D01*
X159605001Y-100296183D01*
X159688741Y-99963738D01*
X159751459Y-99600819D01*
X159752497Y-99593400D01*
X159771406Y-99480272D01*
X159798335Y-99348804D01*
X159830649Y-99209017D01*
X159865708Y-99070933D01*
X159900876Y-98944574D01*
X159933516Y-98839963D01*
X159960988Y-98767122D01*
X159977497Y-98738436D01*
X159983718Y-98755817D01*
G36*
X151780947Y-100960723D02*
G01*
X151814476Y-101016515D01*
X151857983Y-101096370D01*
X151872263Y-101123858D01*
X152096553Y-101505120D01*
X152363166Y-101859344D01*
X152670267Y-102184604D01*
X153016020Y-102478973D01*
X153398589Y-102740526D01*
X153432743Y-102761181D01*
X153550170Y-102828211D01*
X153674347Y-102893784D01*
X153784651Y-102947174D01*
X153820731Y-102962910D01*
X153903476Y-102997371D01*
X153965065Y-103023215D01*
X153993133Y-103035252D01*
X153993576Y-103035472D01*
X153990519Y-103059057D01*
X153972171Y-103110141D01*
X153946223Y-103170916D01*
X153920363Y-103223576D01*
X153902282Y-103250313D01*
X153900507Y-103251000D01*
X153873123Y-103240151D01*
X153809568Y-103210498D01*
X153718892Y-103166383D01*
X153610145Y-103112146D01*
X153593210Y-103103596D01*
X153174662Y-102865676D01*
X152793846Y-102593952D01*
X152449675Y-102287390D01*
X152141063Y-101944955D01*
X151866923Y-101565613D01*
X151716850Y-101316873D01*
X151636111Y-101173446D01*
X151692917Y-101056523D01*
X151727640Y-100990190D01*
X151754591Y-100947872D01*
X151763711Y-100939708D01*
X151780947Y-100960723D01*
G37*
X151780947Y-100960723D02*
X151814476Y-101016515D01*
X151857983Y-101096370D01*
X151872263Y-101123858D01*
X152096553Y-101505120D01*
X152363166Y-101859344D01*
X152670267Y-102184604D01*
X153016020Y-102478973D01*
X153398589Y-102740526D01*
X153432743Y-102761181D01*
X153550170Y-102828211D01*
X153674347Y-102893784D01*
X153784651Y-102947174D01*
X153820731Y-102962910D01*
X153903476Y-102997371D01*
X153965065Y-103023215D01*
X153993133Y-103035252D01*
X153993576Y-103035472D01*
X153990519Y-103059057D01*
X153972171Y-103110141D01*
X153946223Y-103170916D01*
X153920363Y-103223576D01*
X153902282Y-103250313D01*
X153900507Y-103251000D01*
X153873123Y-103240151D01*
X153809568Y-103210498D01*
X153718892Y-103166383D01*
X153610145Y-103112146D01*
X153593210Y-103103596D01*
X153174662Y-102865676D01*
X152793846Y-102593952D01*
X152449675Y-102287390D01*
X152141063Y-101944955D01*
X151866923Y-101565613D01*
X151716850Y-101316873D01*
X151636111Y-101173446D01*
X151692917Y-101056523D01*
X151727640Y-100990190D01*
X151754591Y-100947872D01*
X151763711Y-100939708D01*
X151780947Y-100960723D01*
G36*
X158944321Y-101658854D02*
G01*
X158941314Y-101685482D01*
X158925782Y-101749997D01*
X158900438Y-101841824D01*
X158877346Y-101919877D01*
X158841042Y-102035563D01*
X158809683Y-102117477D01*
X158774295Y-102180703D01*
X158725906Y-102240327D01*
X158655543Y-102311431D01*
X158629435Y-102336653D01*
X158288808Y-102630686D01*
X157912654Y-102892770D01*
X157508054Y-103118624D01*
X157082086Y-103303962D01*
X156955175Y-103349655D01*
X156825452Y-103392881D01*
X156737768Y-103418707D01*
X156686919Y-103428415D01*
X156667704Y-103423288D01*
X156667200Y-103420624D01*
X156674662Y-103393982D01*
X156693670Y-103335245D01*
X156707197Y-103295064D01*
X156730827Y-103232597D01*
X156757863Y-103192572D01*
X156801575Y-103164059D01*
X156875228Y-103136130D01*
X156916747Y-103122444D01*
X157054327Y-103071108D01*
X157220665Y-102998929D01*
X157401929Y-102912753D01*
X157584284Y-102819429D01*
X157753900Y-102725801D01*
X157896942Y-102638718D01*
X157905882Y-102632860D01*
X158146322Y-102458899D01*
X158384532Y-102257948D01*
X158606130Y-102043201D01*
X158796734Y-101827850D01*
X158831716Y-101783476D01*
X158884956Y-101717295D01*
X158925401Y-101672526D01*
X158944310Y-101658844D01*
X158944321Y-101658854D01*
G37*
X158944321Y-101658854D02*
X158941314Y-101685482D01*
X158925782Y-101749997D01*
X158900438Y-101841824D01*
X158877346Y-101919877D01*
X158841042Y-102035563D01*
X158809683Y-102117477D01*
X158774295Y-102180703D01*
X158725906Y-102240327D01*
X158655543Y-102311431D01*
X158629435Y-102336653D01*
X158288808Y-102630686D01*
X157912654Y-102892770D01*
X157508054Y-103118624D01*
X157082086Y-103303962D01*
X156955175Y-103349655D01*
X156825452Y-103392881D01*
X156737768Y-103418707D01*
X156686919Y-103428415D01*
X156667704Y-103423288D01*
X156667200Y-103420624D01*
X156674662Y-103393982D01*
X156693670Y-103335245D01*
X156707197Y-103295064D01*
X156730827Y-103232597D01*
X156757863Y-103192572D01*
X156801575Y-103164059D01*
X156875228Y-103136130D01*
X156916747Y-103122444D01*
X157054327Y-103071108D01*
X157220665Y-102998929D01*
X157401929Y-102912753D01*
X157584284Y-102819429D01*
X157753900Y-102725801D01*
X157896942Y-102638718D01*
X157905882Y-102632860D01*
X158146322Y-102458899D01*
X158384532Y-102257948D01*
X158606130Y-102043201D01*
X158796734Y-101827850D01*
X158831716Y-101783476D01*
X158884956Y-101717295D01*
X158925401Y-101672526D01*
X158944310Y-101658844D01*
X158944321Y-101658854D01*
G36*
X154138756Y-103108430D02*
G01*
X154203303Y-103124235D01*
X154297545Y-103149407D01*
X154411956Y-103181478D01*
X154421908Y-103184329D01*
X154711739Y-103257050D01*
X155006968Y-103311881D01*
X155291225Y-103346309D01*
X155548139Y-103357821D01*
X155551672Y-103357806D01*
X155698359Y-103352284D01*
X155875136Y-103338317D01*
X156064135Y-103317954D01*
X156247488Y-103293245D01*
X156407324Y-103266239D01*
X156475986Y-103251791D01*
X156541254Y-103239310D01*
X156581785Y-103236529D01*
X156586582Y-103238116D01*
X156585147Y-103265738D01*
X156570322Y-103324408D01*
X156559984Y-103357362D01*
X156523676Y-103466900D01*
X156271588Y-103509944D01*
X155966025Y-103549142D01*
X155644205Y-103567169D01*
X155325814Y-103563674D01*
X155030538Y-103538305D01*
X154990800Y-103532788D01*
X154753441Y-103494281D01*
X154546438Y-103451626D01*
X154349350Y-103400178D01*
X154186247Y-103349946D01*
X154029395Y-103298921D01*
X154068266Y-103205110D01*
X154094245Y-103144301D01*
X154111241Y-103107986D01*
X154113428Y-103104457D01*
X154138756Y-103108430D01*
G37*
X154138756Y-103108430D02*
X154203303Y-103124235D01*
X154297545Y-103149407D01*
X154411956Y-103181478D01*
X154421908Y-103184329D01*
X154711739Y-103257050D01*
X155006968Y-103311881D01*
X155291225Y-103346309D01*
X155548139Y-103357821D01*
X155551672Y-103357806D01*
X155698359Y-103352284D01*
X155875136Y-103338317D01*
X156064135Y-103317954D01*
X156247488Y-103293245D01*
X156407324Y-103266239D01*
X156475986Y-103251791D01*
X156541254Y-103239310D01*
X156581785Y-103236529D01*
X156586582Y-103238116D01*
X156585147Y-103265738D01*
X156570322Y-103324408D01*
X156559984Y-103357362D01*
X156523676Y-103466900D01*
X156271588Y-103509944D01*
X155966025Y-103549142D01*
X155644205Y-103567169D01*
X155325814Y-103563674D01*
X155030538Y-103538305D01*
X154990800Y-103532788D01*
X154753441Y-103494281D01*
X154546438Y-103451626D01*
X154349350Y-103400178D01*
X154186247Y-103349946D01*
X154029395Y-103298921D01*
X154068266Y-103205110D01*
X154094245Y-103144301D01*
X154111241Y-103107986D01*
X154113428Y-103104457D01*
X154138756Y-103108430D01*
D13*
X97170000Y-81220000D02*
X98780000Y-81220000D01*
X97170000Y-81220000D02*
X97170000Y-83220000D01*
X97450000Y-93760000D02*
X97450000Y-81510000D01*
X103210000Y-93760000D02*
X97450000Y-93760000D01*
X103210000Y-81500000D02*
X103210000Y-93760000D01*
X97460000Y-81500000D02*
X103200000Y-81500000D01*
X118570000Y-74410000D02*
G75*
G03X118570000Y-74410000I-3000000J0D01*
G01*
X113570000Y-80310000D02*
X109470000Y-80310000D01*
X109470000Y-68510000D02*
X113570000Y-68510000D01*
X117570000Y-68510000D02*
X121670000Y-68510000D01*
X117570000Y-80310000D02*
X121670000Y-80310000D01*
X121670000Y-80310000D02*
X121670000Y-68510000D01*
X123070000Y-78210000D02*
X123370000Y-78510000D01*
X123370000Y-78510000D02*
X122770000Y-78510000D01*
X122770000Y-78510000D02*
X123070000Y-78210000D01*
X109470000Y-80310000D02*
X109470000Y-77910000D01*
X109470000Y-75710000D02*
X109470000Y-73110000D01*
X109470000Y-70910000D02*
X109470000Y-68510000D01*
X115570000Y-74910000D02*
X115570000Y-73910000D01*
X116070000Y-74410000D02*
X115070000Y-74410000D01*
X132095000Y-73375000D02*
X128255000Y-73375000D01*
X132095000Y-75215000D02*
X128255000Y-75215000D01*
X128255000Y-72675000D02*
X132095000Y-72675000D01*
X128255000Y-70835000D02*
X132095000Y-70835000D01*
X132095000Y-65755000D02*
X128255000Y-65755000D01*
X132095000Y-67595000D02*
X128255000Y-67595000D01*
X132095000Y-75915000D02*
X128255000Y-75915000D01*
X132095000Y-77755000D02*
X128255000Y-77755000D01*
X128255000Y-70135000D02*
X132095000Y-70135000D01*
X128255000Y-68295000D02*
X132095000Y-68295000D01*
X128255000Y-80295000D02*
X132095000Y-80295000D01*
X128255000Y-78455000D02*
X132095000Y-78455000D01*
X116900000Y-102930000D02*
X115570000Y-102930000D01*
X116900000Y-101600000D02*
X116900000Y-102930000D01*
X116900000Y-100330000D02*
X114240000Y-100330000D01*
X114240000Y-100330000D02*
X114240000Y-92650000D01*
X116900000Y-100330000D02*
X116900000Y-92650000D01*
X116900000Y-92650000D02*
X114240000Y-92650000D01*
X157695000Y-70180000D02*
X157630000Y-70180000D01*
X159870000Y-70180000D02*
X159805000Y-70180000D01*
X157695000Y-66940000D02*
X157630000Y-66940000D01*
X159870000Y-66940000D02*
X159805000Y-66940000D01*
X157630000Y-66940000D02*
X157630000Y-70180000D01*
X159870000Y-66940000D02*
X159870000Y-70180000D01*
X140705000Y-74715000D02*
X140705000Y-74780000D01*
X140705000Y-72540000D02*
X140705000Y-72605000D01*
X137465000Y-74715000D02*
X137465000Y-74780000D01*
X137465000Y-72540000D02*
X137465000Y-72605000D01*
X137465000Y-74780000D02*
X140705000Y-74780000D01*
X137465000Y-72540000D02*
X140705000Y-72540000D01*
X137465000Y-67525000D02*
X137465000Y-67460000D01*
X137465000Y-69700000D02*
X137465000Y-69635000D01*
X140705000Y-67525000D02*
X140705000Y-67460000D01*
X140705000Y-69700000D02*
X140705000Y-69635000D01*
X140705000Y-67460000D02*
X137465000Y-67460000D01*
X140705000Y-69700000D02*
X137465000Y-69700000D01*
X137425000Y-77685000D02*
X137425000Y-77620000D01*
X137425000Y-79860000D02*
X137425000Y-79795000D01*
X140665000Y-77685000D02*
X140665000Y-77620000D01*
X140665000Y-79860000D02*
X140665000Y-79795000D01*
X140665000Y-77620000D02*
X137425000Y-77620000D01*
X140665000Y-79860000D02*
X137425000Y-79860000D01*
X143725000Y-104470000D02*
X143660000Y-104470000D01*
X145900000Y-104470000D02*
X145835000Y-104470000D01*
X143725000Y-101230000D02*
X143660000Y-101230000D01*
X145900000Y-101230000D02*
X145835000Y-101230000D01*
X143660000Y-101230000D02*
X143660000Y-104470000D01*
X145900000Y-101230000D02*
X145900000Y-104470000D01*
X121155000Y-89405000D02*
X121155000Y-102235000D01*
X141735000Y-89405000D02*
X121155000Y-89405000D01*
X141735000Y-104905000D02*
X141735000Y-89405000D01*
X123825000Y-104905000D02*
X141735000Y-104905000D01*
X123825000Y-102235000D02*
X123825000Y-104905000D01*
X121155000Y-102235000D02*
X123825000Y-102235000D01*
X121155000Y-104905000D02*
X122555000Y-104905000D01*
X121155000Y-103505000D02*
X121155000Y-104905000D01*
X123825000Y-102235000D02*
X141735000Y-102235000D01*
X121155000Y-92075000D02*
X141735000Y-92075000D01*
D10*
X156297380Y-76326904D02*
X157106904Y-76326904D01*
X157202142Y-76279285D01*
X157249761Y-76231666D01*
X157297380Y-76136428D01*
X157297380Y-75945952D01*
X157249761Y-75850714D01*
X157202142Y-75803095D01*
X157106904Y-75755476D01*
X156297380Y-75755476D01*
X156392619Y-75326904D02*
X156345000Y-75279285D01*
X156297380Y-75184047D01*
X156297380Y-74945952D01*
X156345000Y-74850714D01*
X156392619Y-74803095D01*
X156487857Y-74755476D01*
X156583095Y-74755476D01*
X156725952Y-74803095D01*
X157297380Y-75374523D01*
X157297380Y-74755476D01*
X95972380Y-87756904D02*
X96781904Y-87756904D01*
X96877142Y-87709285D01*
X96924761Y-87661666D01*
X96972380Y-87566428D01*
X96972380Y-87375952D01*
X96924761Y-87280714D01*
X96877142Y-87233095D01*
X96781904Y-87185476D01*
X95972380Y-87185476D01*
X96972380Y-86185476D02*
X96972380Y-86756904D01*
X96972380Y-86471190D02*
X95972380Y-86471190D01*
X96115238Y-86566428D01*
X96210476Y-86661666D01*
X96258095Y-86756904D01*
X118936666Y-82014761D02*
X119079523Y-82062380D01*
X119317619Y-82062380D01*
X119412857Y-82014761D01*
X119460476Y-81967142D01*
X119508095Y-81871904D01*
X119508095Y-81776666D01*
X119460476Y-81681428D01*
X119412857Y-81633809D01*
X119317619Y-81586190D01*
X119127142Y-81538571D01*
X119031904Y-81490952D01*
X118984285Y-81443333D01*
X118936666Y-81348095D01*
X118936666Y-81252857D01*
X118984285Y-81157619D01*
X119031904Y-81110000D01*
X119127142Y-81062380D01*
X119365238Y-81062380D01*
X119508095Y-81110000D01*
X119841428Y-81062380D02*
X120079523Y-82062380D01*
X120270000Y-81348095D01*
X120460476Y-82062380D01*
X120698571Y-81062380D01*
X121603333Y-82062380D02*
X121031904Y-82062380D01*
X121317619Y-82062380D02*
X121317619Y-81062380D01*
X121222380Y-81205238D01*
X121127142Y-81300476D01*
X121031904Y-81348095D01*
X125563333Y-74747380D02*
X125230000Y-74271190D01*
X124991904Y-74747380D02*
X124991904Y-73747380D01*
X125372857Y-73747380D01*
X125468095Y-73795000D01*
X125515714Y-73842619D01*
X125563333Y-73937857D01*
X125563333Y-74080714D01*
X125515714Y-74175952D01*
X125468095Y-74223571D01*
X125372857Y-74271190D01*
X124991904Y-74271190D01*
X126420476Y-73747380D02*
X126230000Y-73747380D01*
X126134761Y-73795000D01*
X126087142Y-73842619D01*
X125991904Y-73985476D01*
X125944285Y-74175952D01*
X125944285Y-74556904D01*
X125991904Y-74652142D01*
X126039523Y-74699761D01*
X126134761Y-74747380D01*
X126325238Y-74747380D01*
X126420476Y-74699761D01*
X126468095Y-74652142D01*
X126515714Y-74556904D01*
X126515714Y-74318809D01*
X126468095Y-74223571D01*
X126420476Y-74175952D01*
X126325238Y-74128333D01*
X126134761Y-74128333D01*
X126039523Y-74175952D01*
X125991904Y-74223571D01*
X125944285Y-74318809D01*
X125563333Y-72207380D02*
X125230000Y-71731190D01*
X124991904Y-72207380D02*
X124991904Y-71207380D01*
X125372857Y-71207380D01*
X125468095Y-71255000D01*
X125515714Y-71302619D01*
X125563333Y-71397857D01*
X125563333Y-71540714D01*
X125515714Y-71635952D01*
X125468095Y-71683571D01*
X125372857Y-71731190D01*
X124991904Y-71731190D01*
X126468095Y-71207380D02*
X125991904Y-71207380D01*
X125944285Y-71683571D01*
X125991904Y-71635952D01*
X126087142Y-71588333D01*
X126325238Y-71588333D01*
X126420476Y-71635952D01*
X126468095Y-71683571D01*
X126515714Y-71778809D01*
X126515714Y-72016904D01*
X126468095Y-72112142D01*
X126420476Y-72159761D01*
X126325238Y-72207380D01*
X126087142Y-72207380D01*
X125991904Y-72159761D01*
X125944285Y-72112142D01*
X125563333Y-67127380D02*
X125230000Y-66651190D01*
X124991904Y-67127380D02*
X124991904Y-66127380D01*
X125372857Y-66127380D01*
X125468095Y-66175000D01*
X125515714Y-66222619D01*
X125563333Y-66317857D01*
X125563333Y-66460714D01*
X125515714Y-66555952D01*
X125468095Y-66603571D01*
X125372857Y-66651190D01*
X124991904Y-66651190D01*
X126420476Y-66460714D02*
X126420476Y-67127380D01*
X126182380Y-66079761D02*
X125944285Y-66794047D01*
X126563333Y-66794047D01*
X125563333Y-77287380D02*
X125230000Y-76811190D01*
X124991904Y-77287380D02*
X124991904Y-76287380D01*
X125372857Y-76287380D01*
X125468095Y-76335000D01*
X125515714Y-76382619D01*
X125563333Y-76477857D01*
X125563333Y-76620714D01*
X125515714Y-76715952D01*
X125468095Y-76763571D01*
X125372857Y-76811190D01*
X124991904Y-76811190D01*
X125896666Y-76287380D02*
X126515714Y-76287380D01*
X126182380Y-76668333D01*
X126325238Y-76668333D01*
X126420476Y-76715952D01*
X126468095Y-76763571D01*
X126515714Y-76858809D01*
X126515714Y-77096904D01*
X126468095Y-77192142D01*
X126420476Y-77239761D01*
X126325238Y-77287380D01*
X126039523Y-77287380D01*
X125944285Y-77239761D01*
X125896666Y-77192142D01*
X125563333Y-69667380D02*
X125230000Y-69191190D01*
X124991904Y-69667380D02*
X124991904Y-68667380D01*
X125372857Y-68667380D01*
X125468095Y-68715000D01*
X125515714Y-68762619D01*
X125563333Y-68857857D01*
X125563333Y-69000714D01*
X125515714Y-69095952D01*
X125468095Y-69143571D01*
X125372857Y-69191190D01*
X124991904Y-69191190D01*
X125944285Y-68762619D02*
X125991904Y-68715000D01*
X126087142Y-68667380D01*
X126325238Y-68667380D01*
X126420476Y-68715000D01*
X126468095Y-68762619D01*
X126515714Y-68857857D01*
X126515714Y-68953095D01*
X126468095Y-69095952D01*
X125896666Y-69667380D01*
X126515714Y-69667380D01*
X125563333Y-79827380D02*
X125230000Y-79351190D01*
X124991904Y-79827380D02*
X124991904Y-78827380D01*
X125372857Y-78827380D01*
X125468095Y-78875000D01*
X125515714Y-78922619D01*
X125563333Y-79017857D01*
X125563333Y-79160714D01*
X125515714Y-79255952D01*
X125468095Y-79303571D01*
X125372857Y-79351190D01*
X124991904Y-79351190D01*
X126515714Y-79827380D02*
X125944285Y-79827380D01*
X126230000Y-79827380D02*
X126230000Y-78827380D01*
X126134761Y-78970238D01*
X126039523Y-79065476D01*
X125944285Y-79113095D01*
X114760476Y-105227380D02*
X114760476Y-104227380D01*
X115093809Y-104941666D01*
X115427142Y-104227380D01*
X115427142Y-105227380D01*
X116427142Y-105227380D02*
X115855714Y-105227380D01*
X116141428Y-105227380D02*
X116141428Y-104227380D01*
X116046190Y-104370238D01*
X115950952Y-104465476D01*
X115855714Y-104513095D01*
X159107142Y-72556666D02*
X159154761Y-72604285D01*
X159202380Y-72747142D01*
X159202380Y-72842380D01*
X159154761Y-72985238D01*
X159059523Y-73080476D01*
X158964285Y-73128095D01*
X158773809Y-73175714D01*
X158630952Y-73175714D01*
X158440476Y-73128095D01*
X158345238Y-73080476D01*
X158250000Y-72985238D01*
X158202380Y-72842380D01*
X158202380Y-72747142D01*
X158250000Y-72604285D01*
X158297619Y-72556666D01*
X158202380Y-71651904D02*
X158202380Y-72128095D01*
X158678571Y-72175714D01*
X158630952Y-72128095D01*
X158583333Y-72032857D01*
X158583333Y-71794761D01*
X158630952Y-71699523D01*
X158678571Y-71651904D01*
X158773809Y-71604285D01*
X159011904Y-71604285D01*
X159107142Y-71651904D01*
X159154761Y-71699523D01*
X159202380Y-71794761D01*
X159202380Y-72032857D01*
X159154761Y-72128095D01*
X159107142Y-72175714D01*
X136993333Y-72112142D02*
X136945714Y-72159761D01*
X136802857Y-72207380D01*
X136707619Y-72207380D01*
X136564761Y-72159761D01*
X136469523Y-72064523D01*
X136421904Y-71969285D01*
X136374285Y-71778809D01*
X136374285Y-71635952D01*
X136421904Y-71445476D01*
X136469523Y-71350238D01*
X136564761Y-71255000D01*
X136707619Y-71207380D01*
X136802857Y-71207380D01*
X136945714Y-71255000D01*
X136993333Y-71302619D01*
X137850476Y-71540714D02*
X137850476Y-72207380D01*
X137612380Y-71159761D02*
X137374285Y-71874047D01*
X137993333Y-71874047D01*
X136993333Y-67032142D02*
X136945714Y-67079761D01*
X136802857Y-67127380D01*
X136707619Y-67127380D01*
X136564761Y-67079761D01*
X136469523Y-66984523D01*
X136421904Y-66889285D01*
X136374285Y-66698809D01*
X136374285Y-66555952D01*
X136421904Y-66365476D01*
X136469523Y-66270238D01*
X136564761Y-66175000D01*
X136707619Y-66127380D01*
X136802857Y-66127380D01*
X136945714Y-66175000D01*
X136993333Y-66222619D01*
X137326666Y-66127380D02*
X137945714Y-66127380D01*
X137612380Y-66508333D01*
X137755238Y-66508333D01*
X137850476Y-66555952D01*
X137898095Y-66603571D01*
X137945714Y-66698809D01*
X137945714Y-66936904D01*
X137898095Y-67032142D01*
X137850476Y-67079761D01*
X137755238Y-67127380D01*
X137469523Y-67127380D01*
X137374285Y-67079761D01*
X137326666Y-67032142D01*
X136993333Y-77192142D02*
X136945714Y-77239761D01*
X136802857Y-77287380D01*
X136707619Y-77287380D01*
X136564761Y-77239761D01*
X136469523Y-77144523D01*
X136421904Y-77049285D01*
X136374285Y-76858809D01*
X136374285Y-76715952D01*
X136421904Y-76525476D01*
X136469523Y-76430238D01*
X136564761Y-76335000D01*
X136707619Y-76287380D01*
X136802857Y-76287380D01*
X136945714Y-76335000D01*
X136993333Y-76382619D01*
X137374285Y-76382619D02*
X137421904Y-76335000D01*
X137517142Y-76287380D01*
X137755238Y-76287380D01*
X137850476Y-76335000D01*
X137898095Y-76382619D01*
X137945714Y-76477857D01*
X137945714Y-76573095D01*
X137898095Y-76715952D01*
X137326666Y-77287380D01*
X137945714Y-77287380D01*
X145137142Y-99821666D02*
X145184761Y-99869285D01*
X145232380Y-100012142D01*
X145232380Y-100107380D01*
X145184761Y-100250238D01*
X145089523Y-100345476D01*
X144994285Y-100393095D01*
X144803809Y-100440714D01*
X144660952Y-100440714D01*
X144470476Y-100393095D01*
X144375238Y-100345476D01*
X144280000Y-100250238D01*
X144232380Y-100107380D01*
X144232380Y-100012142D01*
X144280000Y-99869285D01*
X144327619Y-99821666D01*
X145232380Y-98869285D02*
X145232380Y-99440714D01*
X145232380Y-99155000D02*
X144232380Y-99155000D01*
X144375238Y-99250238D01*
X144470476Y-99345476D01*
X144518095Y-99440714D01*
X120181666Y-97869285D02*
X120181666Y-97393095D01*
X120467380Y-97964523D02*
X119467380Y-97631190D01*
X120467380Y-97297857D01*
X120467380Y-96440714D02*
X120467380Y-97012142D01*
X120467380Y-96726428D02*
X119467380Y-96726428D01*
X119610238Y-96821666D01*
X119705476Y-96916904D01*
X119753095Y-97012142D01*
M02*
