G04 #@! TF.GenerationSoftware,KiCad,Pcbnew,(5.1.5)-3*
G04 #@! TF.CreationDate,2020-03-13T10:57:18-04:00*
G04 #@! TF.ProjectId,StupidDogFocuserPCB,53747570-6964-4446-9f67-466f63757365,1*
G04 #@! TF.SameCoordinates,Original*
G04 #@! TF.FileFunction,Copper,L1,Top*
G04 #@! TF.FilePolarity,Positive*
%FSLAX46Y46*%
G04 Gerber Fmt 4.6, Leading zero omitted, Abs format (unit mm)*
G04 Created by KiCad (PCBNEW (5.1.5)-3) date 2020-03-13 10:57:18*
%MOMM*%
%LPD*%
G04 APERTURE LIST*
%ADD10C,1.600000*%
%ADD11O,1.600000X1.600000*%
%ADD12R,1.600000X1.600000*%
%ADD13O,1.400000X1.400000*%
%ADD14C,1.400000*%
%ADD15C,1.524000*%
%ADD16C,1.500000*%
%ADD17R,1.500000X1.500000*%
%ADD18R,2.000000X2.000000*%
%ADD19C,2.000000*%
%ADD20R,3.200000X2.000000*%
%ADD21C,0.685800*%
%ADD22C,0.635000*%
%ADD23C,0.381000*%
%ADD24C,0.254000*%
G04 APERTURE END LIST*
D10*
X114935000Y-76200000D03*
X114935000Y-71200000D03*
X114935000Y-68500000D03*
X114935000Y-63500000D03*
X124460000Y-75010000D03*
X124460000Y-80010000D03*
X119380000Y-80010000D03*
X119380000Y-75010000D03*
X129540000Y-79930000D03*
X129540000Y-74930000D03*
D11*
X156210000Y-59690000D03*
X158750000Y-59690000D03*
X119130000Y-59690000D03*
X158750000Y-107950000D03*
X121670000Y-59690000D03*
X156210000Y-107950000D03*
X124210000Y-59690000D03*
X153670000Y-107950000D03*
X126750000Y-59690000D03*
X151130000Y-107950000D03*
X129290000Y-59690000D03*
X148590000Y-107950000D03*
X131830000Y-59690000D03*
X146050000Y-107950000D03*
X134370000Y-59690000D03*
X140970000Y-107950000D03*
X136910000Y-59690000D03*
X138430000Y-107950000D03*
X140970000Y-59690000D03*
X135890000Y-107950000D03*
X143510000Y-59690000D03*
X133350000Y-107950000D03*
X146050000Y-59690000D03*
X130810000Y-107950000D03*
X148590000Y-59690000D03*
X128270000Y-107950000D03*
X151130000Y-59690000D03*
X125730000Y-107950000D03*
X153670000Y-59690000D03*
D12*
X123190000Y-107950000D03*
D11*
X116590000Y-59690000D03*
X114050000Y-59690000D03*
D13*
X100965000Y-91440000D03*
D14*
X100965000Y-83820000D03*
D13*
X97790000Y-91440000D03*
D14*
X97790000Y-83820000D03*
D13*
X139700000Y-95885000D03*
D14*
X139700000Y-88265000D03*
D13*
X135890000Y-95885000D03*
D14*
X135890000Y-88265000D03*
D13*
X158115000Y-85090000D03*
D14*
X150495000Y-85090000D03*
D13*
X135890000Y-85725000D03*
D14*
X135890000Y-78105000D03*
D13*
X158115000Y-81280000D03*
D14*
X150495000Y-81280000D03*
D13*
X139700000Y-85725000D03*
D14*
X139700000Y-78105000D03*
D15*
X107950000Y-97155000D03*
X107950000Y-92075000D03*
X107950000Y-86995000D03*
X107950000Y-81915000D03*
X107950000Y-76835000D03*
X107950000Y-71755000D03*
D10*
X113030000Y-101600000D03*
X113030000Y-106600000D03*
X121285000Y-64135000D03*
X123825000Y-64135000D03*
X126365000Y-64135000D03*
X128905000Y-64135000D03*
X131445000Y-64135000D03*
X133985000Y-64135000D03*
X136525000Y-64135000D03*
X136525000Y-71755000D03*
X133985000Y-71755000D03*
X131445000Y-71755000D03*
X128905000Y-71755000D03*
X126365000Y-71755000D03*
X123825000Y-71755000D03*
D12*
X121285000Y-71755000D03*
D16*
X99060000Y-99060000D03*
X99060000Y-101600000D03*
X99060000Y-104140000D03*
D17*
X99060000Y-106680000D03*
D18*
X146170000Y-92865000D03*
D19*
X146170000Y-95365000D03*
X146170000Y-97865000D03*
D20*
X153670000Y-89765000D03*
X153670000Y-100965000D03*
D19*
X160670000Y-92865000D03*
X160670000Y-97865000D03*
D11*
X129540000Y-83185000D03*
X116840000Y-100965000D03*
X129540000Y-85725000D03*
X116840000Y-98425000D03*
X129540000Y-88265000D03*
X116840000Y-95885000D03*
X129540000Y-90805000D03*
X116840000Y-93345000D03*
X129540000Y-93345000D03*
X116840000Y-90805000D03*
X129540000Y-95885000D03*
X116840000Y-88265000D03*
X129540000Y-98425000D03*
X116840000Y-85725000D03*
X129540000Y-100965000D03*
D12*
X116840000Y-83185000D03*
D21*
X109699729Y-63979731D03*
X132080000Y-103505000D03*
X142557500Y-68262500D03*
X142622936Y-69801946D03*
X140335000Y-62865000D03*
X142897500Y-94592500D03*
X132080000Y-96520000D03*
X132080000Y-98425000D03*
X132080000Y-100965000D03*
X142849500Y-88290500D03*
X158115000Y-86995000D03*
X131320000Y-61720000D03*
X141535685Y-62795685D03*
X142875000Y-62865000D03*
X117157500Y-67627500D03*
D22*
X140970000Y-106818630D02*
X139561370Y-105410000D01*
X140970000Y-107950000D02*
X140970000Y-106818630D01*
X121285000Y-105410000D02*
X116840000Y-100965000D01*
X139561370Y-105410000D02*
X121285000Y-105410000D01*
X113665000Y-100965000D02*
X113030000Y-101600000D01*
X116840000Y-100965000D02*
X113665000Y-100965000D01*
D23*
X148590000Y-86995000D02*
X139184357Y-86995000D01*
X126484357Y-73660000D02*
X122009000Y-73660000D01*
X132613411Y-79789054D02*
X126484357Y-73660000D01*
X139184357Y-86995000D02*
X132613411Y-80424054D01*
X121285000Y-72936000D02*
X121285000Y-71755000D01*
X132613411Y-80424054D02*
X132613411Y-79789054D01*
X150495000Y-85090000D02*
X148590000Y-86995000D01*
X122009000Y-73660000D02*
X121285000Y-72936000D01*
X125259999Y-76364999D02*
X124460000Y-75565000D01*
X128434999Y-76364999D02*
X125259999Y-76364999D01*
X132080000Y-80010000D02*
X128434999Y-76364999D01*
X132080000Y-92075000D02*
X132080000Y-80010000D01*
X135890000Y-95885000D02*
X132080000Y-92075000D01*
D22*
X122859701Y-65709701D02*
X121285000Y-64135000D01*
X162444701Y-73544701D02*
X154609701Y-65709701D01*
X133350000Y-107950000D02*
X133350000Y-109081370D01*
X121285000Y-64135000D02*
X114935000Y-64135000D01*
X114935000Y-64135000D02*
X114935000Y-63500000D01*
X157240350Y-73544701D02*
X162444701Y-73544701D01*
X150495000Y-80290051D02*
X157240350Y-73544701D01*
X150495000Y-81280000D02*
X150495000Y-80290051D01*
X139700000Y-78105000D02*
X139700000Y-77115051D01*
X154609701Y-65709701D02*
X153974701Y-65709701D01*
X151105350Y-65709701D02*
X153974701Y-65709701D01*
X139700000Y-77115051D02*
X151105350Y-65709701D01*
X153974701Y-65709701D02*
X122859701Y-65709701D01*
X139700000Y-95885000D02*
X139700000Y-96874949D01*
X143510000Y-100684949D02*
X143510000Y-109220000D01*
X131114701Y-92379701D02*
X129540000Y-90805000D01*
X131114701Y-93292259D02*
X131114701Y-92379701D01*
X135472417Y-97649975D02*
X131114701Y-93292259D01*
X140475025Y-97649975D02*
X135472417Y-97649975D01*
X140475025Y-97649975D02*
X143510000Y-100684949D01*
X139700000Y-96874949D02*
X140475025Y-97649975D01*
X100445000Y-106680000D02*
X103289701Y-109524701D01*
X99060000Y-106680000D02*
X100445000Y-106680000D01*
X143205299Y-109524701D02*
X143510000Y-109220000D01*
X133045299Y-109524701D02*
X143205299Y-109524701D01*
X129540000Y-90805000D02*
X129540000Y-88265000D01*
X97790000Y-77470000D02*
X97790000Y-83820000D01*
X111760000Y-63500000D02*
X97790000Y-77470000D01*
X114935000Y-63500000D02*
X111760000Y-63500000D01*
D24*
X133045299Y-109524701D02*
X133350000Y-109220000D01*
D22*
X103289701Y-109524701D02*
X133045299Y-109524701D01*
D24*
X133350000Y-109220000D02*
X133350000Y-107950000D01*
D22*
X162444701Y-105664339D02*
X162444701Y-73544701D01*
X160324701Y-107784339D02*
X162444701Y-105664339D01*
X143510000Y-109220000D02*
X143980290Y-109690290D01*
X143980290Y-109690290D02*
X159549710Y-109690290D01*
X160324701Y-108915299D02*
X160324701Y-107784339D01*
X159549710Y-109690290D02*
X160324701Y-108915299D01*
D23*
X135890000Y-76200000D02*
X131445000Y-71755000D01*
X135890000Y-78105000D02*
X135890000Y-76200000D01*
D24*
G36*
X160630000Y-58693381D02*
G01*
X160630001Y-69845887D01*
X160629241Y-69906761D01*
X160635953Y-69942854D01*
X160639551Y-69979383D01*
X160647809Y-70006607D01*
X160653011Y-70034577D01*
X160666636Y-70068669D01*
X160677291Y-70103793D01*
X160690698Y-70128876D01*
X160701259Y-70155301D01*
X160721274Y-70186081D01*
X160738576Y-70218450D01*
X160777168Y-70265474D01*
X161835786Y-71588747D01*
X155316308Y-65069270D01*
X155286479Y-65032923D01*
X155141442Y-64913895D01*
X154975970Y-64825449D01*
X154796424Y-64770984D01*
X154656486Y-64757201D01*
X154609701Y-64752593D01*
X154562916Y-64757201D01*
X151152135Y-64757201D01*
X151105350Y-64752593D01*
X151058565Y-64757201D01*
X137820508Y-64757201D01*
X137904853Y-64553574D01*
X137960000Y-64276335D01*
X137960000Y-63993665D01*
X137904853Y-63716426D01*
X137796680Y-63455273D01*
X137639637Y-63220241D01*
X137439759Y-63020363D01*
X137204727Y-62863320D01*
X136976258Y-62768685D01*
X139357100Y-62768685D01*
X139357100Y-62961315D01*
X139394680Y-63150243D01*
X139468396Y-63328210D01*
X139575415Y-63488375D01*
X139711625Y-63624585D01*
X139871790Y-63731604D01*
X140049757Y-63805320D01*
X140238685Y-63842900D01*
X140431315Y-63842900D01*
X140620243Y-63805320D01*
X140798210Y-63731604D01*
X140958375Y-63624585D01*
X140981475Y-63601485D01*
X141072475Y-63662289D01*
X141250442Y-63736005D01*
X141439370Y-63773585D01*
X141632000Y-63773585D01*
X141820928Y-63736005D01*
X141998895Y-63662289D01*
X142159060Y-63555270D01*
X142170685Y-63543645D01*
X142251625Y-63624585D01*
X142411790Y-63731604D01*
X142589757Y-63805320D01*
X142778685Y-63842900D01*
X142971315Y-63842900D01*
X143160243Y-63805320D01*
X143338210Y-63731604D01*
X143498375Y-63624585D01*
X143634585Y-63488375D01*
X143741604Y-63328210D01*
X143815320Y-63150243D01*
X143852900Y-62961315D01*
X143852900Y-62768685D01*
X143815320Y-62579757D01*
X143741604Y-62401790D01*
X143634585Y-62241625D01*
X143498375Y-62105415D01*
X143338210Y-61998396D01*
X143160243Y-61924680D01*
X142971315Y-61887100D01*
X142778685Y-61887100D01*
X142589757Y-61924680D01*
X142411790Y-61998396D01*
X142251625Y-62105415D01*
X142240000Y-62117040D01*
X142159060Y-62036100D01*
X141998895Y-61929081D01*
X141820928Y-61855365D01*
X141632000Y-61817785D01*
X141439370Y-61817785D01*
X141250442Y-61855365D01*
X141072475Y-61929081D01*
X140912310Y-62036100D01*
X140889210Y-62059200D01*
X140798210Y-61998396D01*
X140620243Y-61924680D01*
X140431315Y-61887100D01*
X140238685Y-61887100D01*
X140049757Y-61924680D01*
X139871790Y-61998396D01*
X139711625Y-62105415D01*
X139575415Y-62241625D01*
X139468396Y-62401790D01*
X139394680Y-62579757D01*
X139357100Y-62768685D01*
X136976258Y-62768685D01*
X136943574Y-62755147D01*
X136666335Y-62700000D01*
X136383665Y-62700000D01*
X136106426Y-62755147D01*
X135845273Y-62863320D01*
X135610241Y-63020363D01*
X135410363Y-63220241D01*
X135255000Y-63452759D01*
X135099637Y-63220241D01*
X134899759Y-63020363D01*
X134664727Y-62863320D01*
X134403574Y-62755147D01*
X134126335Y-62700000D01*
X133843665Y-62700000D01*
X133566426Y-62755147D01*
X133305273Y-62863320D01*
X133070241Y-63020363D01*
X132870363Y-63220241D01*
X132715000Y-63452759D01*
X132559637Y-63220241D01*
X132359759Y-63020363D01*
X132124727Y-62863320D01*
X131863574Y-62755147D01*
X131586335Y-62700000D01*
X131303665Y-62700000D01*
X131026426Y-62755147D01*
X130765273Y-62863320D01*
X130530241Y-63020363D01*
X130330363Y-63220241D01*
X130175000Y-63452759D01*
X130019637Y-63220241D01*
X129819759Y-63020363D01*
X129584727Y-62863320D01*
X129323574Y-62755147D01*
X129046335Y-62700000D01*
X128763665Y-62700000D01*
X128486426Y-62755147D01*
X128225273Y-62863320D01*
X127990241Y-63020363D01*
X127790363Y-63220241D01*
X127635000Y-63452759D01*
X127479637Y-63220241D01*
X127279759Y-63020363D01*
X127044727Y-62863320D01*
X126783574Y-62755147D01*
X126506335Y-62700000D01*
X126223665Y-62700000D01*
X125946426Y-62755147D01*
X125685273Y-62863320D01*
X125450241Y-63020363D01*
X125250363Y-63220241D01*
X125095000Y-63452759D01*
X124939637Y-63220241D01*
X124739759Y-63020363D01*
X124504727Y-62863320D01*
X124243574Y-62755147D01*
X123966335Y-62700000D01*
X123683665Y-62700000D01*
X123406426Y-62755147D01*
X123145273Y-62863320D01*
X122910241Y-63020363D01*
X122710363Y-63220241D01*
X122555000Y-63452759D01*
X122399637Y-63220241D01*
X122199759Y-63020363D01*
X121964727Y-62863320D01*
X121703574Y-62755147D01*
X121426335Y-62700000D01*
X121143665Y-62700000D01*
X120866426Y-62755147D01*
X120605273Y-62863320D01*
X120370241Y-63020363D01*
X120208104Y-63182500D01*
X116334958Y-63182500D01*
X116314853Y-63081426D01*
X116206680Y-62820273D01*
X116049637Y-62585241D01*
X115849759Y-62385363D01*
X115614727Y-62228320D01*
X115353574Y-62120147D01*
X115076335Y-62065000D01*
X114793665Y-62065000D01*
X114516426Y-62120147D01*
X114255273Y-62228320D01*
X114020241Y-62385363D01*
X113858104Y-62547500D01*
X111806784Y-62547500D01*
X111759999Y-62542892D01*
X111573277Y-62561283D01*
X111393731Y-62615748D01*
X111228259Y-62704194D01*
X111083222Y-62823222D01*
X111053393Y-62859569D01*
X110498284Y-63414678D01*
X110459314Y-63356356D01*
X110323104Y-63220146D01*
X110162939Y-63113127D01*
X109984972Y-63039411D01*
X109796044Y-63001831D01*
X109603414Y-63001831D01*
X109414486Y-63039411D01*
X109236519Y-63113127D01*
X109076354Y-63220146D01*
X108940144Y-63356356D01*
X108833125Y-63516521D01*
X108759409Y-63694488D01*
X108721829Y-63883416D01*
X108721829Y-64076046D01*
X108759409Y-64264974D01*
X108833125Y-64442941D01*
X108940144Y-64603106D01*
X109076354Y-64739316D01*
X109134676Y-64778286D01*
X97149569Y-76763393D01*
X97113222Y-76793222D01*
X96994194Y-76938259D01*
X96905748Y-77103732D01*
X96878759Y-77192702D01*
X96851283Y-77283278D01*
X96832892Y-77470000D01*
X96837500Y-77516785D01*
X96837501Y-82884524D01*
X96753038Y-82968987D01*
X96606939Y-83187641D01*
X96506304Y-83430595D01*
X96455000Y-83688514D01*
X96455000Y-83951486D01*
X96506304Y-84209405D01*
X96606939Y-84452359D01*
X96753038Y-84671013D01*
X96938987Y-84856962D01*
X97157641Y-85003061D01*
X97400595Y-85103696D01*
X97658514Y-85155000D01*
X97921486Y-85155000D01*
X98179405Y-85103696D01*
X98422359Y-85003061D01*
X98641013Y-84856962D01*
X98826962Y-84671013D01*
X98973061Y-84452359D01*
X99073696Y-84209405D01*
X99125000Y-83951486D01*
X99125000Y-83688514D01*
X99630000Y-83688514D01*
X99630000Y-83951486D01*
X99681304Y-84209405D01*
X99781939Y-84452359D01*
X99928038Y-84671013D01*
X100113987Y-84856962D01*
X100332641Y-85003061D01*
X100575595Y-85103696D01*
X100833514Y-85155000D01*
X101096486Y-85155000D01*
X101354405Y-85103696D01*
X101597359Y-85003061D01*
X101816013Y-84856962D01*
X102001962Y-84671013D01*
X102148061Y-84452359D01*
X102248696Y-84209405D01*
X102293333Y-83985000D01*
X115401928Y-83985000D01*
X115414188Y-84109482D01*
X115450498Y-84229180D01*
X115509463Y-84339494D01*
X115588815Y-84436185D01*
X115685506Y-84515537D01*
X115795820Y-84574502D01*
X115915518Y-84610812D01*
X115923961Y-84611643D01*
X115725363Y-84810241D01*
X115568320Y-85045273D01*
X115460147Y-85306426D01*
X115405000Y-85583665D01*
X115405000Y-85866335D01*
X115460147Y-86143574D01*
X115568320Y-86404727D01*
X115725363Y-86639759D01*
X115925241Y-86839637D01*
X116157759Y-86995000D01*
X115925241Y-87150363D01*
X115725363Y-87350241D01*
X115568320Y-87585273D01*
X115460147Y-87846426D01*
X115405000Y-88123665D01*
X115405000Y-88406335D01*
X115460147Y-88683574D01*
X115568320Y-88944727D01*
X115725363Y-89179759D01*
X115925241Y-89379637D01*
X116157759Y-89535000D01*
X115925241Y-89690363D01*
X115725363Y-89890241D01*
X115568320Y-90125273D01*
X115460147Y-90386426D01*
X115405000Y-90663665D01*
X115405000Y-90946335D01*
X115460147Y-91223574D01*
X115568320Y-91484727D01*
X115725363Y-91719759D01*
X115925241Y-91919637D01*
X116157759Y-92075000D01*
X115925241Y-92230363D01*
X115725363Y-92430241D01*
X115568320Y-92665273D01*
X115460147Y-92926426D01*
X115405000Y-93203665D01*
X115405000Y-93486335D01*
X115460147Y-93763574D01*
X115568320Y-94024727D01*
X115725363Y-94259759D01*
X115925241Y-94459637D01*
X116157759Y-94615000D01*
X115925241Y-94770363D01*
X115725363Y-94970241D01*
X115568320Y-95205273D01*
X115460147Y-95466426D01*
X115405000Y-95743665D01*
X115405000Y-96026335D01*
X115460147Y-96303574D01*
X115568320Y-96564727D01*
X115725363Y-96799759D01*
X115925241Y-96999637D01*
X116160273Y-97156680D01*
X116170865Y-97161067D01*
X115984869Y-97272615D01*
X115776481Y-97461586D01*
X115608963Y-97687580D01*
X115488754Y-97941913D01*
X115448096Y-98075961D01*
X115570085Y-98298000D01*
X116713000Y-98298000D01*
X116713000Y-98278000D01*
X116967000Y-98278000D01*
X116967000Y-98298000D01*
X118109915Y-98298000D01*
X118231904Y-98075961D01*
X118191246Y-97941913D01*
X118071037Y-97687580D01*
X117903519Y-97461586D01*
X117695131Y-97272615D01*
X117509135Y-97161067D01*
X117519727Y-97156680D01*
X117754759Y-96999637D01*
X117954637Y-96799759D01*
X118111680Y-96564727D01*
X118219853Y-96303574D01*
X118275000Y-96026335D01*
X118275000Y-95743665D01*
X118219853Y-95466426D01*
X118111680Y-95205273D01*
X117954637Y-94970241D01*
X117754759Y-94770363D01*
X117522241Y-94615000D01*
X117754759Y-94459637D01*
X117954637Y-94259759D01*
X118111680Y-94024727D01*
X118219853Y-93763574D01*
X118275000Y-93486335D01*
X118275000Y-93203665D01*
X118219853Y-92926426D01*
X118111680Y-92665273D01*
X117954637Y-92430241D01*
X117754759Y-92230363D01*
X117522241Y-92075000D01*
X117754759Y-91919637D01*
X117954637Y-91719759D01*
X118111680Y-91484727D01*
X118219853Y-91223574D01*
X118275000Y-90946335D01*
X118275000Y-90663665D01*
X118219853Y-90386426D01*
X118111680Y-90125273D01*
X117954637Y-89890241D01*
X117754759Y-89690363D01*
X117522241Y-89535000D01*
X117754759Y-89379637D01*
X117954637Y-89179759D01*
X118111680Y-88944727D01*
X118219853Y-88683574D01*
X118275000Y-88406335D01*
X118275000Y-88123665D01*
X118219853Y-87846426D01*
X118111680Y-87585273D01*
X117954637Y-87350241D01*
X117754759Y-87150363D01*
X117522241Y-86995000D01*
X117754759Y-86839637D01*
X117954637Y-86639759D01*
X118111680Y-86404727D01*
X118219853Y-86143574D01*
X118275000Y-85866335D01*
X118275000Y-85583665D01*
X118219853Y-85306426D01*
X118111680Y-85045273D01*
X117954637Y-84810241D01*
X117756039Y-84611643D01*
X117764482Y-84610812D01*
X117884180Y-84574502D01*
X117994494Y-84515537D01*
X118091185Y-84436185D01*
X118170537Y-84339494D01*
X118229502Y-84229180D01*
X118265812Y-84109482D01*
X118278072Y-83985000D01*
X118275000Y-83470750D01*
X118116250Y-83312000D01*
X116967000Y-83312000D01*
X116967000Y-83332000D01*
X116713000Y-83332000D01*
X116713000Y-83312000D01*
X115563750Y-83312000D01*
X115405000Y-83470750D01*
X115401928Y-83985000D01*
X102293333Y-83985000D01*
X102300000Y-83951486D01*
X102300000Y-83688514D01*
X102248696Y-83430595D01*
X102148061Y-83187641D01*
X102001962Y-82968987D01*
X101816013Y-82783038D01*
X101597359Y-82636939D01*
X101354405Y-82536304D01*
X101096486Y-82485000D01*
X100833514Y-82485000D01*
X100575595Y-82536304D01*
X100332641Y-82636939D01*
X100113987Y-82783038D01*
X99928038Y-82968987D01*
X99781939Y-83187641D01*
X99681304Y-83430595D01*
X99630000Y-83688514D01*
X99125000Y-83688514D01*
X99073696Y-83430595D01*
X98973061Y-83187641D01*
X98826962Y-82968987D01*
X98742500Y-82884525D01*
X98742500Y-81777408D01*
X106553000Y-81777408D01*
X106553000Y-82052592D01*
X106606686Y-82322490D01*
X106711995Y-82576727D01*
X106864880Y-82805535D01*
X107059465Y-83000120D01*
X107288273Y-83153005D01*
X107542510Y-83258314D01*
X107812408Y-83312000D01*
X108087592Y-83312000D01*
X108357490Y-83258314D01*
X108611727Y-83153005D01*
X108840535Y-83000120D01*
X109035120Y-82805535D01*
X109188005Y-82576727D01*
X109267421Y-82385000D01*
X115401928Y-82385000D01*
X115405000Y-82899250D01*
X115563750Y-83058000D01*
X116713000Y-83058000D01*
X116713000Y-81908750D01*
X116967000Y-81908750D01*
X116967000Y-83058000D01*
X118116250Y-83058000D01*
X118275000Y-82899250D01*
X118278072Y-82385000D01*
X118265812Y-82260518D01*
X118229502Y-82140820D01*
X118170537Y-82030506D01*
X118091185Y-81933815D01*
X117994494Y-81854463D01*
X117884180Y-81795498D01*
X117764482Y-81759188D01*
X117640000Y-81746928D01*
X117125750Y-81750000D01*
X116967000Y-81908750D01*
X116713000Y-81908750D01*
X116554250Y-81750000D01*
X116040000Y-81746928D01*
X115915518Y-81759188D01*
X115795820Y-81795498D01*
X115685506Y-81854463D01*
X115588815Y-81933815D01*
X115509463Y-82030506D01*
X115450498Y-82140820D01*
X115414188Y-82260518D01*
X115401928Y-82385000D01*
X109267421Y-82385000D01*
X109293314Y-82322490D01*
X109347000Y-82052592D01*
X109347000Y-81777408D01*
X109293314Y-81507510D01*
X109188005Y-81253273D01*
X109035120Y-81024465D01*
X109013357Y-81002702D01*
X118566903Y-81002702D01*
X118638486Y-81246671D01*
X118893996Y-81367571D01*
X119168184Y-81436300D01*
X119450512Y-81450217D01*
X119730130Y-81408787D01*
X119996292Y-81313603D01*
X120121514Y-81246671D01*
X120193097Y-81002702D01*
X123646903Y-81002702D01*
X123718486Y-81246671D01*
X123973996Y-81367571D01*
X124248184Y-81436300D01*
X124530512Y-81450217D01*
X124810130Y-81408787D01*
X125076292Y-81313603D01*
X125201514Y-81246671D01*
X125273097Y-81002702D01*
X125193097Y-80922702D01*
X128726903Y-80922702D01*
X128798486Y-81166671D01*
X129053996Y-81287571D01*
X129328184Y-81356300D01*
X129610512Y-81370217D01*
X129890130Y-81328787D01*
X130156292Y-81233603D01*
X130281514Y-81166671D01*
X130353097Y-80922702D01*
X129540000Y-80109605D01*
X128726903Y-80922702D01*
X125193097Y-80922702D01*
X124460000Y-80189605D01*
X123646903Y-81002702D01*
X120193097Y-81002702D01*
X119380000Y-80189605D01*
X118566903Y-81002702D01*
X109013357Y-81002702D01*
X108840535Y-80829880D01*
X108611727Y-80676995D01*
X108357490Y-80571686D01*
X108087592Y-80518000D01*
X107812408Y-80518000D01*
X107542510Y-80571686D01*
X107288273Y-80676995D01*
X107059465Y-80829880D01*
X106864880Y-81024465D01*
X106711995Y-81253273D01*
X106606686Y-81507510D01*
X106553000Y-81777408D01*
X98742500Y-81777408D01*
X98742500Y-80080512D01*
X117939783Y-80080512D01*
X117981213Y-80360130D01*
X118076397Y-80626292D01*
X118143329Y-80751514D01*
X118387298Y-80823097D01*
X119200395Y-80010000D01*
X119559605Y-80010000D01*
X120372702Y-80823097D01*
X120616671Y-80751514D01*
X120737571Y-80496004D01*
X120806300Y-80221816D01*
X120813265Y-80080512D01*
X123019783Y-80080512D01*
X123061213Y-80360130D01*
X123156397Y-80626292D01*
X123223329Y-80751514D01*
X123467298Y-80823097D01*
X124280395Y-80010000D01*
X124639605Y-80010000D01*
X125452702Y-80823097D01*
X125696671Y-80751514D01*
X125817571Y-80496004D01*
X125886300Y-80221816D01*
X125897208Y-80000512D01*
X128099783Y-80000512D01*
X128141213Y-80280130D01*
X128236397Y-80546292D01*
X128303329Y-80671514D01*
X128547298Y-80743097D01*
X129360395Y-79930000D01*
X128547298Y-79116903D01*
X128303329Y-79188486D01*
X128182429Y-79443996D01*
X128113700Y-79718184D01*
X128099783Y-80000512D01*
X125897208Y-80000512D01*
X125900217Y-79939488D01*
X125858787Y-79659870D01*
X125763603Y-79393708D01*
X125696671Y-79268486D01*
X125452702Y-79196903D01*
X124639605Y-80010000D01*
X124280395Y-80010000D01*
X123467298Y-79196903D01*
X123223329Y-79268486D01*
X123102429Y-79523996D01*
X123033700Y-79798184D01*
X123019783Y-80080512D01*
X120813265Y-80080512D01*
X120820217Y-79939488D01*
X120778787Y-79659870D01*
X120683603Y-79393708D01*
X120616671Y-79268486D01*
X120372702Y-79196903D01*
X119559605Y-80010000D01*
X119200395Y-80010000D01*
X118387298Y-79196903D01*
X118143329Y-79268486D01*
X118022429Y-79523996D01*
X117953700Y-79798184D01*
X117939783Y-80080512D01*
X98742500Y-80080512D01*
X98742500Y-79017298D01*
X118566903Y-79017298D01*
X119380000Y-79830395D01*
X120193097Y-79017298D01*
X123646903Y-79017298D01*
X124460000Y-79830395D01*
X125273097Y-79017298D01*
X125201514Y-78773329D01*
X124946004Y-78652429D01*
X124671816Y-78583700D01*
X124389488Y-78569783D01*
X124109870Y-78611213D01*
X123843708Y-78706397D01*
X123718486Y-78773329D01*
X123646903Y-79017298D01*
X120193097Y-79017298D01*
X120121514Y-78773329D01*
X119866004Y-78652429D01*
X119591816Y-78583700D01*
X119309488Y-78569783D01*
X119029870Y-78611213D01*
X118763708Y-78706397D01*
X118638486Y-78773329D01*
X118566903Y-79017298D01*
X98742500Y-79017298D01*
X98742500Y-77864538D01*
X99909630Y-76697408D01*
X106553000Y-76697408D01*
X106553000Y-76972592D01*
X106606686Y-77242490D01*
X106711995Y-77496727D01*
X106864880Y-77725535D01*
X107059465Y-77920120D01*
X107288273Y-78073005D01*
X107542510Y-78178314D01*
X107812408Y-78232000D01*
X108087592Y-78232000D01*
X108357490Y-78178314D01*
X108611727Y-78073005D01*
X108840535Y-77920120D01*
X109035120Y-77725535D01*
X109188005Y-77496727D01*
X109293314Y-77242490D01*
X109303217Y-77192702D01*
X114121903Y-77192702D01*
X114193486Y-77436671D01*
X114448996Y-77557571D01*
X114723184Y-77626300D01*
X115005512Y-77640217D01*
X115285130Y-77598787D01*
X115551292Y-77503603D01*
X115676514Y-77436671D01*
X115748097Y-77192702D01*
X114935000Y-76379605D01*
X114121903Y-77192702D01*
X109303217Y-77192702D01*
X109347000Y-76972592D01*
X109347000Y-76697408D01*
X109293314Y-76427510D01*
X109228283Y-76270512D01*
X113494783Y-76270512D01*
X113536213Y-76550130D01*
X113631397Y-76816292D01*
X113698329Y-76941514D01*
X113942298Y-77013097D01*
X114755395Y-76200000D01*
X115114605Y-76200000D01*
X115927702Y-77013097D01*
X116171671Y-76941514D01*
X116292571Y-76686004D01*
X116361300Y-76411816D01*
X116375217Y-76129488D01*
X116333787Y-75849870D01*
X116238603Y-75583708D01*
X116171671Y-75458486D01*
X115927702Y-75386903D01*
X115114605Y-76200000D01*
X114755395Y-76200000D01*
X113942298Y-75386903D01*
X113698329Y-75458486D01*
X113577429Y-75713996D01*
X113508700Y-75988184D01*
X113494783Y-76270512D01*
X109228283Y-76270512D01*
X109188005Y-76173273D01*
X109035120Y-75944465D01*
X108840535Y-75749880D01*
X108611727Y-75596995D01*
X108357490Y-75491686D01*
X108087592Y-75438000D01*
X107812408Y-75438000D01*
X107542510Y-75491686D01*
X107288273Y-75596995D01*
X107059465Y-75749880D01*
X106864880Y-75944465D01*
X106711995Y-76173273D01*
X106606686Y-76427510D01*
X106553000Y-76697408D01*
X99909630Y-76697408D01*
X101399740Y-75207298D01*
X114121903Y-75207298D01*
X114935000Y-76020395D01*
X115748097Y-75207298D01*
X115676514Y-74963329D01*
X115476452Y-74868665D01*
X117945000Y-74868665D01*
X117945000Y-75151335D01*
X118000147Y-75428574D01*
X118108320Y-75689727D01*
X118265363Y-75924759D01*
X118465241Y-76124637D01*
X118700273Y-76281680D01*
X118961426Y-76389853D01*
X119238665Y-76445000D01*
X119521335Y-76445000D01*
X119798574Y-76389853D01*
X120059727Y-76281680D01*
X120294759Y-76124637D01*
X120494637Y-75924759D01*
X120651680Y-75689727D01*
X120759853Y-75428574D01*
X120815000Y-75151335D01*
X120815000Y-74868665D01*
X120759853Y-74591426D01*
X120651680Y-74330273D01*
X120494637Y-74095241D01*
X120294759Y-73895363D01*
X120059727Y-73738320D01*
X119798574Y-73630147D01*
X119521335Y-73575000D01*
X119238665Y-73575000D01*
X118961426Y-73630147D01*
X118700273Y-73738320D01*
X118465241Y-73895363D01*
X118265363Y-74095241D01*
X118108320Y-74330273D01*
X118000147Y-74591426D01*
X117945000Y-74868665D01*
X115476452Y-74868665D01*
X115421004Y-74842429D01*
X115146816Y-74773700D01*
X114864488Y-74759783D01*
X114584870Y-74801213D01*
X114318708Y-74896397D01*
X114193486Y-74963329D01*
X114121903Y-75207298D01*
X101399740Y-75207298D01*
X104989630Y-71617408D01*
X106553000Y-71617408D01*
X106553000Y-71892592D01*
X106606686Y-72162490D01*
X106711995Y-72416727D01*
X106864880Y-72645535D01*
X107059465Y-72840120D01*
X107288273Y-72993005D01*
X107542510Y-73098314D01*
X107812408Y-73152000D01*
X108087592Y-73152000D01*
X108357490Y-73098314D01*
X108611727Y-72993005D01*
X108840535Y-72840120D01*
X109035120Y-72645535D01*
X109188005Y-72416727D01*
X109293314Y-72162490D01*
X109347000Y-71892592D01*
X109347000Y-71617408D01*
X109293314Y-71347510D01*
X109188005Y-71093273D01*
X109164881Y-71058665D01*
X113500000Y-71058665D01*
X113500000Y-71341335D01*
X113555147Y-71618574D01*
X113663320Y-71879727D01*
X113820363Y-72114759D01*
X114020241Y-72314637D01*
X114255273Y-72471680D01*
X114516426Y-72579853D01*
X114793665Y-72635000D01*
X115076335Y-72635000D01*
X115353574Y-72579853D01*
X115614727Y-72471680D01*
X115849759Y-72314637D01*
X116049637Y-72114759D01*
X116206680Y-71879727D01*
X116314853Y-71618574D01*
X116370000Y-71341335D01*
X116370000Y-71058665D01*
X116314853Y-70781426D01*
X116206680Y-70520273D01*
X116049637Y-70285241D01*
X115849759Y-70085363D01*
X115614727Y-69928320D01*
X115423749Y-69849214D01*
X115551292Y-69803603D01*
X115676514Y-69736671D01*
X115748097Y-69492702D01*
X114935000Y-68679605D01*
X114121903Y-69492702D01*
X114193486Y-69736671D01*
X114438298Y-69852509D01*
X114255273Y-69928320D01*
X114020241Y-70085363D01*
X113820363Y-70285241D01*
X113663320Y-70520273D01*
X113555147Y-70781426D01*
X113500000Y-71058665D01*
X109164881Y-71058665D01*
X109035120Y-70864465D01*
X108840535Y-70669880D01*
X108611727Y-70516995D01*
X108357490Y-70411686D01*
X108087592Y-70358000D01*
X107812408Y-70358000D01*
X107542510Y-70411686D01*
X107288273Y-70516995D01*
X107059465Y-70669880D01*
X106864880Y-70864465D01*
X106711995Y-71093273D01*
X106606686Y-71347510D01*
X106553000Y-71617408D01*
X104989630Y-71617408D01*
X108036526Y-68570512D01*
X113494783Y-68570512D01*
X113536213Y-68850130D01*
X113631397Y-69116292D01*
X113698329Y-69241514D01*
X113942298Y-69313097D01*
X114755395Y-68500000D01*
X115114605Y-68500000D01*
X115927702Y-69313097D01*
X116171671Y-69241514D01*
X116292571Y-68986004D01*
X116361300Y-68711816D01*
X116375217Y-68429488D01*
X116334745Y-68156334D01*
X116397915Y-68250875D01*
X116534125Y-68387085D01*
X116694290Y-68494104D01*
X116872257Y-68567820D01*
X117061185Y-68605400D01*
X117253815Y-68605400D01*
X117442743Y-68567820D01*
X117620710Y-68494104D01*
X117780875Y-68387085D01*
X117917085Y-68250875D01*
X117973673Y-68166185D01*
X141579600Y-68166185D01*
X141579600Y-68358815D01*
X141617180Y-68547743D01*
X141690896Y-68725710D01*
X141797915Y-68885875D01*
X141934125Y-69022085D01*
X141985506Y-69056416D01*
X141863351Y-69178571D01*
X141756332Y-69338736D01*
X141682616Y-69516703D01*
X141645036Y-69705631D01*
X141645036Y-69898261D01*
X141682616Y-70087189D01*
X141756332Y-70265156D01*
X141863351Y-70425321D01*
X141999561Y-70561531D01*
X142159726Y-70668550D01*
X142337693Y-70742266D01*
X142526621Y-70779846D01*
X142719251Y-70779846D01*
X142908179Y-70742266D01*
X143086146Y-70668550D01*
X143246311Y-70561531D01*
X143382521Y-70425321D01*
X143489540Y-70265156D01*
X143563256Y-70087189D01*
X143600836Y-69898261D01*
X143600836Y-69705631D01*
X143563256Y-69516703D01*
X143489540Y-69338736D01*
X143382521Y-69178571D01*
X143246311Y-69042361D01*
X143194930Y-69008030D01*
X143317085Y-68885875D01*
X143424104Y-68725710D01*
X143497820Y-68547743D01*
X143535400Y-68358815D01*
X143535400Y-68166185D01*
X143497820Y-67977257D01*
X143424104Y-67799290D01*
X143317085Y-67639125D01*
X143180875Y-67502915D01*
X143020710Y-67395896D01*
X142842743Y-67322180D01*
X142653815Y-67284600D01*
X142461185Y-67284600D01*
X142272257Y-67322180D01*
X142094290Y-67395896D01*
X141934125Y-67502915D01*
X141797915Y-67639125D01*
X141690896Y-67799290D01*
X141617180Y-67977257D01*
X141579600Y-68166185D01*
X117973673Y-68166185D01*
X118024104Y-68090710D01*
X118097820Y-67912743D01*
X118135400Y-67723815D01*
X118135400Y-67531185D01*
X118097820Y-67342257D01*
X118024104Y-67164290D01*
X117917085Y-67004125D01*
X117780875Y-66867915D01*
X117620710Y-66760896D01*
X117442743Y-66687180D01*
X117253815Y-66649600D01*
X117061185Y-66649600D01*
X116872257Y-66687180D01*
X116694290Y-66760896D01*
X116534125Y-66867915D01*
X116397915Y-67004125D01*
X116290896Y-67164290D01*
X116217180Y-67342257D01*
X116179600Y-67531185D01*
X116179600Y-67723815D01*
X116195284Y-67802663D01*
X116171671Y-67758486D01*
X115927702Y-67686903D01*
X115114605Y-68500000D01*
X114755395Y-68500000D01*
X113942298Y-67686903D01*
X113698329Y-67758486D01*
X113577429Y-68013996D01*
X113508700Y-68288184D01*
X113494783Y-68570512D01*
X108036526Y-68570512D01*
X109099740Y-67507298D01*
X114121903Y-67507298D01*
X114935000Y-68320395D01*
X115748097Y-67507298D01*
X115676514Y-67263329D01*
X115421004Y-67142429D01*
X115146816Y-67073700D01*
X114864488Y-67059783D01*
X114584870Y-67101213D01*
X114318708Y-67196397D01*
X114193486Y-67263329D01*
X114121903Y-67507298D01*
X109099740Y-67507298D01*
X112154538Y-64452500D01*
X113858104Y-64452500D01*
X114020241Y-64614637D01*
X114188941Y-64727359D01*
X114258222Y-64811778D01*
X114403259Y-64930806D01*
X114568731Y-65019252D01*
X114748277Y-65073717D01*
X114935000Y-65092108D01*
X114981785Y-65087500D01*
X120208104Y-65087500D01*
X120370241Y-65249637D01*
X120605273Y-65406680D01*
X120866426Y-65514853D01*
X121143665Y-65570000D01*
X121372962Y-65570000D01*
X122153094Y-66350132D01*
X122182923Y-66386479D01*
X122327960Y-66505507D01*
X122493432Y-66593953D01*
X122672978Y-66648418D01*
X122812916Y-66662201D01*
X122859701Y-66666809D01*
X122906486Y-66662201D01*
X148805812Y-66662201D01*
X139059565Y-76408448D01*
X139023223Y-76438273D01*
X138993399Y-76474614D01*
X138904194Y-76583311D01*
X138815749Y-76748782D01*
X138761283Y-76928329D01*
X138742892Y-77115051D01*
X138747501Y-77161845D01*
X138747501Y-77169524D01*
X138663038Y-77253987D01*
X138516939Y-77472641D01*
X138416304Y-77715595D01*
X138365000Y-77973514D01*
X138365000Y-78236486D01*
X138416304Y-78494405D01*
X138516939Y-78737359D01*
X138663038Y-78956013D01*
X138848987Y-79141962D01*
X139067641Y-79288061D01*
X139310595Y-79388696D01*
X139568514Y-79440000D01*
X139831486Y-79440000D01*
X140089405Y-79388696D01*
X140332359Y-79288061D01*
X140551013Y-79141962D01*
X140736962Y-78956013D01*
X140883061Y-78737359D01*
X140983696Y-78494405D01*
X141035000Y-78236486D01*
X141035000Y-77973514D01*
X140983696Y-77715595D01*
X140883061Y-77472641D01*
X140805511Y-77356578D01*
X151499888Y-66662201D01*
X154215163Y-66662201D01*
X160145162Y-72592201D01*
X157287134Y-72592201D01*
X157240349Y-72587593D01*
X157053627Y-72605984D01*
X156874081Y-72660449D01*
X156708609Y-72748895D01*
X156563572Y-72867923D01*
X156533743Y-72904270D01*
X149854565Y-79583448D01*
X149818223Y-79613273D01*
X149788399Y-79649614D01*
X149699194Y-79758311D01*
X149610749Y-79923782D01*
X149556283Y-80103329D01*
X149537892Y-80290051D01*
X149542501Y-80336845D01*
X149542501Y-80344524D01*
X149458038Y-80428987D01*
X149311939Y-80647641D01*
X149211304Y-80890595D01*
X149160000Y-81148514D01*
X149160000Y-81411486D01*
X149211304Y-81669405D01*
X149311939Y-81912359D01*
X149458038Y-82131013D01*
X149643987Y-82316962D01*
X149862641Y-82463061D01*
X150105595Y-82563696D01*
X150363514Y-82615000D01*
X150626486Y-82615000D01*
X150884405Y-82563696D01*
X151127359Y-82463061D01*
X151346013Y-82316962D01*
X151531962Y-82131013D01*
X151678061Y-81912359D01*
X151778696Y-81669405D01*
X151830000Y-81411486D01*
X151830000Y-81148514D01*
X156780000Y-81148514D01*
X156780000Y-81411486D01*
X156831304Y-81669405D01*
X156931939Y-81912359D01*
X157078038Y-82131013D01*
X157263987Y-82316962D01*
X157482641Y-82463061D01*
X157725595Y-82563696D01*
X157983514Y-82615000D01*
X158246486Y-82615000D01*
X158504405Y-82563696D01*
X158747359Y-82463061D01*
X158966013Y-82316962D01*
X159151962Y-82131013D01*
X159298061Y-81912359D01*
X159398696Y-81669405D01*
X159450000Y-81411486D01*
X159450000Y-81148514D01*
X159398696Y-80890595D01*
X159298061Y-80647641D01*
X159151962Y-80428987D01*
X158966013Y-80243038D01*
X158747359Y-80096939D01*
X158504405Y-79996304D01*
X158246486Y-79945000D01*
X157983514Y-79945000D01*
X157725595Y-79996304D01*
X157482641Y-80096939D01*
X157263987Y-80243038D01*
X157078038Y-80428987D01*
X156931939Y-80647641D01*
X156831304Y-80890595D01*
X156780000Y-81148514D01*
X151830000Y-81148514D01*
X151778696Y-80890595D01*
X151678061Y-80647641D01*
X151600511Y-80531578D01*
X157634888Y-74497201D01*
X161492202Y-74497201D01*
X161492201Y-91446777D01*
X161240429Y-91324296D01*
X160928892Y-91242616D01*
X160607405Y-91223282D01*
X160288325Y-91267039D01*
X159983912Y-91372205D01*
X159809956Y-91465186D01*
X159714192Y-91729587D01*
X160670000Y-92685395D01*
X160684143Y-92671253D01*
X160863748Y-92850858D01*
X160849605Y-92865000D01*
X160863748Y-92879143D01*
X160684143Y-93058748D01*
X160670000Y-93044605D01*
X159714192Y-94000413D01*
X159809956Y-94264814D01*
X160099571Y-94405704D01*
X160411108Y-94487384D01*
X160732595Y-94506718D01*
X161051675Y-94462961D01*
X161356088Y-94357795D01*
X161492201Y-94285041D01*
X161492201Y-96447980D01*
X161444463Y-96416082D01*
X161146912Y-96292832D01*
X160831033Y-96230000D01*
X160508967Y-96230000D01*
X160193088Y-96292832D01*
X159895537Y-96416082D01*
X159627748Y-96595013D01*
X159400013Y-96822748D01*
X159221082Y-97090537D01*
X159097832Y-97388088D01*
X159035000Y-97703967D01*
X159035000Y-98026033D01*
X159097832Y-98341912D01*
X159221082Y-98639463D01*
X159400013Y-98907252D01*
X159627748Y-99134987D01*
X159895537Y-99313918D01*
X160193088Y-99437168D01*
X160508967Y-99500000D01*
X160831033Y-99500000D01*
X161146912Y-99437168D01*
X161444463Y-99313918D01*
X161492201Y-99282020D01*
X161492201Y-105269800D01*
X159795699Y-106966303D01*
X159664759Y-106835363D01*
X159429727Y-106678320D01*
X159168574Y-106570147D01*
X158891335Y-106515000D01*
X158608665Y-106515000D01*
X158331426Y-106570147D01*
X158070273Y-106678320D01*
X157835241Y-106835363D01*
X157635363Y-107035241D01*
X157480000Y-107267759D01*
X157324637Y-107035241D01*
X157124759Y-106835363D01*
X156889727Y-106678320D01*
X156628574Y-106570147D01*
X156351335Y-106515000D01*
X156068665Y-106515000D01*
X155791426Y-106570147D01*
X155530273Y-106678320D01*
X155295241Y-106835363D01*
X155095363Y-107035241D01*
X154940000Y-107267759D01*
X154784637Y-107035241D01*
X154584759Y-106835363D01*
X154349727Y-106678320D01*
X154088574Y-106570147D01*
X153811335Y-106515000D01*
X153528665Y-106515000D01*
X153251426Y-106570147D01*
X152990273Y-106678320D01*
X152755241Y-106835363D01*
X152555363Y-107035241D01*
X152400000Y-107267759D01*
X152244637Y-107035241D01*
X152044759Y-106835363D01*
X151809727Y-106678320D01*
X151548574Y-106570147D01*
X151271335Y-106515000D01*
X150988665Y-106515000D01*
X150711426Y-106570147D01*
X150450273Y-106678320D01*
X150215241Y-106835363D01*
X150015363Y-107035241D01*
X149860000Y-107267759D01*
X149704637Y-107035241D01*
X149504759Y-106835363D01*
X149269727Y-106678320D01*
X149008574Y-106570147D01*
X148731335Y-106515000D01*
X148448665Y-106515000D01*
X148171426Y-106570147D01*
X147910273Y-106678320D01*
X147675241Y-106835363D01*
X147475363Y-107035241D01*
X147320000Y-107267759D01*
X147164637Y-107035241D01*
X146964759Y-106835363D01*
X146729727Y-106678320D01*
X146468574Y-106570147D01*
X146191335Y-106515000D01*
X145908665Y-106515000D01*
X145631426Y-106570147D01*
X145370273Y-106678320D01*
X145135241Y-106835363D01*
X144935363Y-107035241D01*
X144778320Y-107270273D01*
X144670147Y-107531426D01*
X144615000Y-107808665D01*
X144615000Y-108091335D01*
X144670147Y-108368574D01*
X144778320Y-108629727D01*
X144850525Y-108737790D01*
X144462500Y-108737790D01*
X144462500Y-100731733D01*
X144467108Y-100684948D01*
X144448717Y-100498226D01*
X144430220Y-100437250D01*
X144394252Y-100318680D01*
X144305806Y-100153208D01*
X144186778Y-100008171D01*
X144150436Y-99978346D01*
X144137090Y-99965000D01*
X151431928Y-99965000D01*
X151431928Y-101965000D01*
X151444188Y-102089482D01*
X151480498Y-102209180D01*
X151539463Y-102319494D01*
X151618815Y-102416185D01*
X151715506Y-102495537D01*
X151825820Y-102554502D01*
X151945518Y-102590812D01*
X152070000Y-102603072D01*
X155270000Y-102603072D01*
X155394482Y-102590812D01*
X155514180Y-102554502D01*
X155624494Y-102495537D01*
X155721185Y-102416185D01*
X155800537Y-102319494D01*
X155859502Y-102209180D01*
X155895812Y-102089482D01*
X155908072Y-101965000D01*
X155908072Y-99965000D01*
X155895812Y-99840518D01*
X155859502Y-99720820D01*
X155800537Y-99610506D01*
X155721185Y-99513815D01*
X155624494Y-99434463D01*
X155514180Y-99375498D01*
X155394482Y-99339188D01*
X155270000Y-99326928D01*
X152070000Y-99326928D01*
X151945518Y-99339188D01*
X151825820Y-99375498D01*
X151715506Y-99434463D01*
X151618815Y-99513815D01*
X151539463Y-99610506D01*
X151480498Y-99720820D01*
X151444188Y-99840518D01*
X151431928Y-99965000D01*
X144137090Y-99965000D01*
X141876056Y-97703967D01*
X144535000Y-97703967D01*
X144535000Y-98026033D01*
X144597832Y-98341912D01*
X144721082Y-98639463D01*
X144900013Y-98907252D01*
X145127748Y-99134987D01*
X145395537Y-99313918D01*
X145693088Y-99437168D01*
X146008967Y-99500000D01*
X146331033Y-99500000D01*
X146646912Y-99437168D01*
X146944463Y-99313918D01*
X147212252Y-99134987D01*
X147439987Y-98907252D01*
X147618918Y-98639463D01*
X147742168Y-98341912D01*
X147805000Y-98026033D01*
X147805000Y-97703967D01*
X147742168Y-97388088D01*
X147618918Y-97090537D01*
X147439987Y-96822748D01*
X147212252Y-96595013D01*
X147115065Y-96530075D01*
X147125808Y-96500413D01*
X146170000Y-95544605D01*
X145214192Y-96500413D01*
X145224935Y-96530075D01*
X145127748Y-96595013D01*
X144900013Y-96822748D01*
X144721082Y-97090537D01*
X144597832Y-97388088D01*
X144535000Y-97703967D01*
X141876056Y-97703967D01*
X141181632Y-97009544D01*
X141151803Y-96973197D01*
X141115456Y-96943368D01*
X140805510Y-96633422D01*
X140883061Y-96517359D01*
X140983696Y-96274405D01*
X141035000Y-96016486D01*
X141035000Y-95753514D01*
X140983696Y-95495595D01*
X140883061Y-95252641D01*
X140736962Y-95033987D01*
X140551013Y-94848038D01*
X140332359Y-94701939D01*
X140089405Y-94601304D01*
X139831486Y-94550000D01*
X139568514Y-94550000D01*
X139310595Y-94601304D01*
X139067641Y-94701939D01*
X138848987Y-94848038D01*
X138663038Y-95033987D01*
X138516939Y-95252641D01*
X138416304Y-95495595D01*
X138365000Y-95753514D01*
X138365000Y-96016486D01*
X138416304Y-96274405D01*
X138516939Y-96517359D01*
X138637288Y-96697475D01*
X136952712Y-96697475D01*
X137073061Y-96517359D01*
X137173696Y-96274405D01*
X137225000Y-96016486D01*
X137225000Y-95753514D01*
X137173696Y-95495595D01*
X137073061Y-95252641D01*
X136926962Y-95033987D01*
X136741013Y-94848038D01*
X136522359Y-94701939D01*
X136279405Y-94601304D01*
X136021486Y-94550000D01*
X135758514Y-94550000D01*
X135728420Y-94555986D01*
X135668619Y-94496185D01*
X141919600Y-94496185D01*
X141919600Y-94688815D01*
X141957180Y-94877743D01*
X142030896Y-95055710D01*
X142137915Y-95215875D01*
X142274125Y-95352085D01*
X142434290Y-95459104D01*
X142612257Y-95532820D01*
X142801185Y-95570400D01*
X142993815Y-95570400D01*
X143182743Y-95532820D01*
X143360710Y-95459104D01*
X143407866Y-95427595D01*
X144528282Y-95427595D01*
X144572039Y-95746675D01*
X144677205Y-96051088D01*
X144770186Y-96225044D01*
X145034587Y-96320808D01*
X145990395Y-95365000D01*
X145976253Y-95350858D01*
X146155858Y-95171253D01*
X146170000Y-95185395D01*
X146184143Y-95171253D01*
X146363748Y-95350858D01*
X146349605Y-95365000D01*
X147305413Y-96320808D01*
X147569814Y-96225044D01*
X147710704Y-95935429D01*
X147792384Y-95623892D01*
X147811718Y-95302405D01*
X147767961Y-94983325D01*
X147662795Y-94678912D01*
X147569814Y-94504956D01*
X147420777Y-94450976D01*
X147524494Y-94395537D01*
X147621185Y-94316185D01*
X147700537Y-94219494D01*
X147759502Y-94109180D01*
X147795812Y-93989482D01*
X147808072Y-93865000D01*
X147808072Y-92927595D01*
X159028282Y-92927595D01*
X159072039Y-93246675D01*
X159177205Y-93551088D01*
X159270186Y-93725044D01*
X159534587Y-93820808D01*
X160490395Y-92865000D01*
X159534587Y-91909192D01*
X159270186Y-92004956D01*
X159129296Y-92294571D01*
X159047616Y-92606108D01*
X159028282Y-92927595D01*
X147808072Y-92927595D01*
X147808072Y-91865000D01*
X147795812Y-91740518D01*
X147759502Y-91620820D01*
X147700537Y-91510506D01*
X147621185Y-91413815D01*
X147524494Y-91334463D01*
X147414180Y-91275498D01*
X147294482Y-91239188D01*
X147170000Y-91226928D01*
X145170000Y-91226928D01*
X145045518Y-91239188D01*
X144925820Y-91275498D01*
X144815506Y-91334463D01*
X144718815Y-91413815D01*
X144639463Y-91510506D01*
X144580498Y-91620820D01*
X144544188Y-91740518D01*
X144531928Y-91865000D01*
X144531928Y-93865000D01*
X144544188Y-93989482D01*
X144580498Y-94109180D01*
X144639463Y-94219494D01*
X144718815Y-94316185D01*
X144815506Y-94395537D01*
X144919223Y-94450976D01*
X144770186Y-94504956D01*
X144629296Y-94794571D01*
X144547616Y-95106108D01*
X144528282Y-95427595D01*
X143407866Y-95427595D01*
X143520875Y-95352085D01*
X143657085Y-95215875D01*
X143764104Y-95055710D01*
X143837820Y-94877743D01*
X143875400Y-94688815D01*
X143875400Y-94496185D01*
X143837820Y-94307257D01*
X143764104Y-94129290D01*
X143657085Y-93969125D01*
X143520875Y-93832915D01*
X143360710Y-93725896D01*
X143182743Y-93652180D01*
X142993815Y-93614600D01*
X142801185Y-93614600D01*
X142612257Y-93652180D01*
X142434290Y-93725896D01*
X142274125Y-93832915D01*
X142137915Y-93969125D01*
X142030896Y-94129290D01*
X141957180Y-94307257D01*
X141919600Y-94496185D01*
X135668619Y-94496185D01*
X132905500Y-91733068D01*
X132905500Y-81883575D01*
X135474173Y-84452248D01*
X135257641Y-84541939D01*
X135038987Y-84688038D01*
X134853038Y-84873987D01*
X134706939Y-85092641D01*
X134606304Y-85335595D01*
X134555000Y-85593514D01*
X134555000Y-85856486D01*
X134606304Y-86114405D01*
X134706939Y-86357359D01*
X134853038Y-86576013D01*
X135038987Y-86761962D01*
X135257641Y-86908061D01*
X135467530Y-86995000D01*
X135257641Y-87081939D01*
X135038987Y-87228038D01*
X134853038Y-87413987D01*
X134706939Y-87632641D01*
X134606304Y-87875595D01*
X134555000Y-88133514D01*
X134555000Y-88396486D01*
X134606304Y-88654405D01*
X134706939Y-88897359D01*
X134853038Y-89116013D01*
X135038987Y-89301962D01*
X135257641Y-89448061D01*
X135500595Y-89548696D01*
X135758514Y-89600000D01*
X136021486Y-89600000D01*
X136279405Y-89548696D01*
X136522359Y-89448061D01*
X136741013Y-89301962D01*
X136926962Y-89116013D01*
X137073061Y-88897359D01*
X137173696Y-88654405D01*
X137225000Y-88396486D01*
X137225000Y-88133514D01*
X137173696Y-87875595D01*
X137073061Y-87632641D01*
X136926962Y-87413987D01*
X136741013Y-87228038D01*
X136522359Y-87081939D01*
X136312470Y-86995000D01*
X136522359Y-86908061D01*
X136741013Y-86761962D01*
X136926962Y-86576013D01*
X137073061Y-86357359D01*
X137162752Y-86140827D01*
X138571964Y-87550040D01*
X138572056Y-87550152D01*
X138516939Y-87632641D01*
X138416304Y-87875595D01*
X138365000Y-88133514D01*
X138365000Y-88396486D01*
X138416304Y-88654405D01*
X138516939Y-88897359D01*
X138663038Y-89116013D01*
X138848987Y-89301962D01*
X139067641Y-89448061D01*
X139310595Y-89548696D01*
X139568514Y-89600000D01*
X139831486Y-89600000D01*
X140089405Y-89548696D01*
X140332359Y-89448061D01*
X140551013Y-89301962D01*
X140736962Y-89116013D01*
X140883061Y-88897359D01*
X140983696Y-88654405D01*
X141035000Y-88396486D01*
X141035000Y-88133514D01*
X140983696Y-87875595D01*
X140960875Y-87820500D01*
X141987433Y-87820500D01*
X141982896Y-87827290D01*
X141909180Y-88005257D01*
X141871600Y-88194185D01*
X141871600Y-88386815D01*
X141909180Y-88575743D01*
X141982896Y-88753710D01*
X142089915Y-88913875D01*
X142226125Y-89050085D01*
X142386290Y-89157104D01*
X142564257Y-89230820D01*
X142753185Y-89268400D01*
X142945815Y-89268400D01*
X143134743Y-89230820D01*
X143312710Y-89157104D01*
X143472875Y-89050085D01*
X143609085Y-88913875D01*
X143708560Y-88765000D01*
X151431928Y-88765000D01*
X151431928Y-90765000D01*
X151444188Y-90889482D01*
X151480498Y-91009180D01*
X151539463Y-91119494D01*
X151618815Y-91216185D01*
X151715506Y-91295537D01*
X151825820Y-91354502D01*
X151945518Y-91390812D01*
X152070000Y-91403072D01*
X155270000Y-91403072D01*
X155394482Y-91390812D01*
X155514180Y-91354502D01*
X155624494Y-91295537D01*
X155721185Y-91216185D01*
X155800537Y-91119494D01*
X155859502Y-91009180D01*
X155895812Y-90889482D01*
X155908072Y-90765000D01*
X155908072Y-88765000D01*
X155895812Y-88640518D01*
X155859502Y-88520820D01*
X155800537Y-88410506D01*
X155721185Y-88313815D01*
X155624494Y-88234463D01*
X155514180Y-88175498D01*
X155394482Y-88139188D01*
X155270000Y-88126928D01*
X152070000Y-88126928D01*
X151945518Y-88139188D01*
X151825820Y-88175498D01*
X151715506Y-88234463D01*
X151618815Y-88313815D01*
X151539463Y-88410506D01*
X151480498Y-88520820D01*
X151444188Y-88640518D01*
X151431928Y-88765000D01*
X143708560Y-88765000D01*
X143716104Y-88753710D01*
X143789820Y-88575743D01*
X143827400Y-88386815D01*
X143827400Y-88194185D01*
X143789820Y-88005257D01*
X143716104Y-87827290D01*
X143711567Y-87820500D01*
X148549450Y-87820500D01*
X148590000Y-87824494D01*
X148630550Y-87820500D01*
X148630553Y-87820500D01*
X148751826Y-87808556D01*
X148907434Y-87761353D01*
X149050842Y-87684699D01*
X149176541Y-87581541D01*
X149202398Y-87550034D01*
X150333419Y-86419014D01*
X150363514Y-86425000D01*
X150626486Y-86425000D01*
X150884405Y-86373696D01*
X151127359Y-86273061D01*
X151346013Y-86126962D01*
X151531962Y-85941013D01*
X151678061Y-85722359D01*
X151778696Y-85479405D01*
X151830000Y-85221486D01*
X151830000Y-84958514D01*
X156780000Y-84958514D01*
X156780000Y-85221486D01*
X156831304Y-85479405D01*
X156931939Y-85722359D01*
X157078038Y-85941013D01*
X157263987Y-86126962D01*
X157465459Y-86261581D01*
X157355415Y-86371625D01*
X157248396Y-86531790D01*
X157174680Y-86709757D01*
X157137100Y-86898685D01*
X157137100Y-87091315D01*
X157174680Y-87280243D01*
X157248396Y-87458210D01*
X157355415Y-87618375D01*
X157491625Y-87754585D01*
X157651790Y-87861604D01*
X157829757Y-87935320D01*
X158018685Y-87972900D01*
X158211315Y-87972900D01*
X158400243Y-87935320D01*
X158578210Y-87861604D01*
X158738375Y-87754585D01*
X158874585Y-87618375D01*
X158981604Y-87458210D01*
X159055320Y-87280243D01*
X159092900Y-87091315D01*
X159092900Y-86898685D01*
X159055320Y-86709757D01*
X158981604Y-86531790D01*
X158874585Y-86371625D01*
X158764541Y-86261581D01*
X158966013Y-86126962D01*
X159151962Y-85941013D01*
X159298061Y-85722359D01*
X159398696Y-85479405D01*
X159450000Y-85221486D01*
X159450000Y-84958514D01*
X159398696Y-84700595D01*
X159298061Y-84457641D01*
X159151962Y-84238987D01*
X158966013Y-84053038D01*
X158747359Y-83906939D01*
X158504405Y-83806304D01*
X158246486Y-83755000D01*
X157983514Y-83755000D01*
X157725595Y-83806304D01*
X157482641Y-83906939D01*
X157263987Y-84053038D01*
X157078038Y-84238987D01*
X156931939Y-84457641D01*
X156831304Y-84700595D01*
X156780000Y-84958514D01*
X151830000Y-84958514D01*
X151778696Y-84700595D01*
X151678061Y-84457641D01*
X151531962Y-84238987D01*
X151346013Y-84053038D01*
X151127359Y-83906939D01*
X150884405Y-83806304D01*
X150626486Y-83755000D01*
X150363514Y-83755000D01*
X150105595Y-83806304D01*
X149862641Y-83906939D01*
X149643987Y-84053038D01*
X149458038Y-84238987D01*
X149311939Y-84457641D01*
X149211304Y-84700595D01*
X149160000Y-84958514D01*
X149160000Y-85221486D01*
X149165986Y-85251581D01*
X148248068Y-86169500D01*
X140960875Y-86169500D01*
X140983696Y-86114405D01*
X141035000Y-85856486D01*
X141035000Y-85593514D01*
X140983696Y-85335595D01*
X140883061Y-85092641D01*
X140736962Y-84873987D01*
X140551013Y-84688038D01*
X140332359Y-84541939D01*
X140089405Y-84441304D01*
X139831486Y-84390000D01*
X139568514Y-84390000D01*
X139310595Y-84441304D01*
X139067641Y-84541939D01*
X138848987Y-84688038D01*
X138663038Y-84873987D01*
X138516939Y-85092641D01*
X138497166Y-85140376D01*
X133438911Y-80082122D01*
X133438911Y-79829604D01*
X133442905Y-79789053D01*
X133433402Y-79692566D01*
X133426967Y-79627228D01*
X133379764Y-79471620D01*
X133305639Y-79332943D01*
X133303110Y-79328211D01*
X133252588Y-79266650D01*
X133199952Y-79202513D01*
X133168451Y-79176661D01*
X130201160Y-76209371D01*
X130219727Y-76201680D01*
X130454759Y-76044637D01*
X130654637Y-75844759D01*
X130811680Y-75609727D01*
X130919853Y-75348574D01*
X130975000Y-75071335D01*
X130975000Y-74788665D01*
X130919853Y-74511426D01*
X130811680Y-74250273D01*
X130654637Y-74015241D01*
X130454759Y-73815363D01*
X130219727Y-73658320D01*
X129958574Y-73550147D01*
X129681335Y-73495000D01*
X129398665Y-73495000D01*
X129121426Y-73550147D01*
X128860273Y-73658320D01*
X128625241Y-73815363D01*
X128425363Y-74015241D01*
X128268320Y-74250273D01*
X128260629Y-74268840D01*
X127096755Y-73104966D01*
X127070898Y-73073459D01*
X127024238Y-73035167D01*
X127044727Y-73026680D01*
X127279759Y-72869637D01*
X127479637Y-72669759D01*
X127635000Y-72437241D01*
X127790363Y-72669759D01*
X127990241Y-72869637D01*
X128225273Y-73026680D01*
X128486426Y-73134853D01*
X128763665Y-73190000D01*
X129046335Y-73190000D01*
X129323574Y-73134853D01*
X129584727Y-73026680D01*
X129819759Y-72869637D01*
X130019637Y-72669759D01*
X130175000Y-72437241D01*
X130330363Y-72669759D01*
X130530241Y-72869637D01*
X130765273Y-73026680D01*
X131026426Y-73134853D01*
X131303665Y-73190000D01*
X131586335Y-73190000D01*
X131691624Y-73169056D01*
X135064501Y-76541934D01*
X135064501Y-77050990D01*
X135038987Y-77068038D01*
X134853038Y-77253987D01*
X134706939Y-77472641D01*
X134606304Y-77715595D01*
X134555000Y-77973514D01*
X134555000Y-78236486D01*
X134606304Y-78494405D01*
X134706939Y-78737359D01*
X134853038Y-78956013D01*
X135038987Y-79141962D01*
X135257641Y-79288061D01*
X135500595Y-79388696D01*
X135758514Y-79440000D01*
X136021486Y-79440000D01*
X136279405Y-79388696D01*
X136522359Y-79288061D01*
X136741013Y-79141962D01*
X136926962Y-78956013D01*
X137073061Y-78737359D01*
X137173696Y-78494405D01*
X137225000Y-78236486D01*
X137225000Y-77973514D01*
X137173696Y-77715595D01*
X137073061Y-77472641D01*
X136926962Y-77253987D01*
X136741013Y-77068038D01*
X136715500Y-77050991D01*
X136715500Y-76240550D01*
X136719494Y-76199999D01*
X136712549Y-76129488D01*
X136703556Y-76038174D01*
X136656353Y-75882566D01*
X136600706Y-75778458D01*
X136579699Y-75739157D01*
X136502391Y-75644958D01*
X136476541Y-75613459D01*
X136445040Y-75587607D01*
X134047432Y-73190000D01*
X134126335Y-73190000D01*
X134403574Y-73134853D01*
X134664727Y-73026680D01*
X134899759Y-72869637D01*
X135021694Y-72747702D01*
X135711903Y-72747702D01*
X135783486Y-72991671D01*
X136038996Y-73112571D01*
X136313184Y-73181300D01*
X136595512Y-73195217D01*
X136875130Y-73153787D01*
X137141292Y-73058603D01*
X137266514Y-72991671D01*
X137338097Y-72747702D01*
X136525000Y-71934605D01*
X135711903Y-72747702D01*
X135021694Y-72747702D01*
X135099637Y-72669759D01*
X135255915Y-72435872D01*
X135288329Y-72496514D01*
X135532298Y-72568097D01*
X136345395Y-71755000D01*
X136704605Y-71755000D01*
X137517702Y-72568097D01*
X137761671Y-72496514D01*
X137882571Y-72241004D01*
X137951300Y-71966816D01*
X137965217Y-71684488D01*
X137923787Y-71404870D01*
X137828603Y-71138708D01*
X137761671Y-71013486D01*
X137517702Y-70941903D01*
X136704605Y-71755000D01*
X136345395Y-71755000D01*
X135532298Y-70941903D01*
X135288329Y-71013486D01*
X135257806Y-71077992D01*
X135256680Y-71075273D01*
X135099637Y-70840241D01*
X135021694Y-70762298D01*
X135711903Y-70762298D01*
X136525000Y-71575395D01*
X137338097Y-70762298D01*
X137266514Y-70518329D01*
X137011004Y-70397429D01*
X136736816Y-70328700D01*
X136454488Y-70314783D01*
X136174870Y-70356213D01*
X135908708Y-70451397D01*
X135783486Y-70518329D01*
X135711903Y-70762298D01*
X135021694Y-70762298D01*
X134899759Y-70640363D01*
X134664727Y-70483320D01*
X134403574Y-70375147D01*
X134126335Y-70320000D01*
X133843665Y-70320000D01*
X133566426Y-70375147D01*
X133305273Y-70483320D01*
X133070241Y-70640363D01*
X132870363Y-70840241D01*
X132715000Y-71072759D01*
X132559637Y-70840241D01*
X132359759Y-70640363D01*
X132124727Y-70483320D01*
X131863574Y-70375147D01*
X131586335Y-70320000D01*
X131303665Y-70320000D01*
X131026426Y-70375147D01*
X130765273Y-70483320D01*
X130530241Y-70640363D01*
X130330363Y-70840241D01*
X130175000Y-71072759D01*
X130019637Y-70840241D01*
X129819759Y-70640363D01*
X129584727Y-70483320D01*
X129323574Y-70375147D01*
X129046335Y-70320000D01*
X128763665Y-70320000D01*
X128486426Y-70375147D01*
X128225273Y-70483320D01*
X127990241Y-70640363D01*
X127790363Y-70840241D01*
X127635000Y-71072759D01*
X127479637Y-70840241D01*
X127279759Y-70640363D01*
X127044727Y-70483320D01*
X126783574Y-70375147D01*
X126506335Y-70320000D01*
X126223665Y-70320000D01*
X125946426Y-70375147D01*
X125685273Y-70483320D01*
X125450241Y-70640363D01*
X125250363Y-70840241D01*
X125095000Y-71072759D01*
X124939637Y-70840241D01*
X124739759Y-70640363D01*
X124504727Y-70483320D01*
X124243574Y-70375147D01*
X123966335Y-70320000D01*
X123683665Y-70320000D01*
X123406426Y-70375147D01*
X123145273Y-70483320D01*
X122910241Y-70640363D01*
X122711643Y-70838961D01*
X122710812Y-70830518D01*
X122674502Y-70710820D01*
X122615537Y-70600506D01*
X122536185Y-70503815D01*
X122439494Y-70424463D01*
X122329180Y-70365498D01*
X122209482Y-70329188D01*
X122085000Y-70316928D01*
X120485000Y-70316928D01*
X120360518Y-70329188D01*
X120240820Y-70365498D01*
X120130506Y-70424463D01*
X120033815Y-70503815D01*
X119954463Y-70600506D01*
X119895498Y-70710820D01*
X119859188Y-70830518D01*
X119846928Y-70955000D01*
X119846928Y-72555000D01*
X119859188Y-72679482D01*
X119895498Y-72799180D01*
X119954463Y-72909494D01*
X120033815Y-73006185D01*
X120130506Y-73085537D01*
X120240820Y-73144502D01*
X120360518Y-73180812D01*
X120485000Y-73193072D01*
X120500337Y-73193072D01*
X120502183Y-73199157D01*
X120518647Y-73253433D01*
X120595301Y-73396842D01*
X120629214Y-73438165D01*
X120698459Y-73522541D01*
X120729965Y-73548397D01*
X121396610Y-74215044D01*
X121422459Y-74246541D01*
X121453955Y-74272389D01*
X121453958Y-74272392D01*
X121548157Y-74349699D01*
X121691566Y-74426353D01*
X121847174Y-74473556D01*
X121968447Y-74485500D01*
X121968449Y-74485500D01*
X122009000Y-74489494D01*
X122049550Y-74485500D01*
X123124023Y-74485500D01*
X123080147Y-74591426D01*
X123025000Y-74868665D01*
X123025000Y-75151335D01*
X123080147Y-75428574D01*
X123188320Y-75689727D01*
X123345363Y-75924759D01*
X123545241Y-76124637D01*
X123780273Y-76281680D01*
X124041426Y-76389853D01*
X124136291Y-76408723D01*
X124647605Y-76920038D01*
X124673458Y-76951540D01*
X124743032Y-77008638D01*
X124799155Y-77054697D01*
X124799157Y-77054698D01*
X124942565Y-77131352D01*
X125098173Y-77178555D01*
X125219446Y-77190499D01*
X125219455Y-77190499D01*
X125259998Y-77194492D01*
X125300541Y-77190499D01*
X128093067Y-77190499D01*
X129402304Y-78499737D01*
X129189870Y-78531213D01*
X128923708Y-78626397D01*
X128798486Y-78693329D01*
X128726903Y-78937298D01*
X129540000Y-79750395D01*
X129554143Y-79736253D01*
X129733748Y-79915858D01*
X129719605Y-79930000D01*
X130532702Y-80743097D01*
X130776671Y-80671514D01*
X130897571Y-80416004D01*
X130966300Y-80141816D01*
X130969968Y-80067402D01*
X131254501Y-80351935D01*
X131254500Y-91172462D01*
X130975000Y-90892962D01*
X130975000Y-90663665D01*
X130919853Y-90386426D01*
X130811680Y-90125273D01*
X130654637Y-89890241D01*
X130492500Y-89728104D01*
X130492500Y-89341896D01*
X130654637Y-89179759D01*
X130811680Y-88944727D01*
X130919853Y-88683574D01*
X130975000Y-88406335D01*
X130975000Y-88123665D01*
X130919853Y-87846426D01*
X130811680Y-87585273D01*
X130654637Y-87350241D01*
X130454759Y-87150363D01*
X130222241Y-86995000D01*
X130454759Y-86839637D01*
X130654637Y-86639759D01*
X130811680Y-86404727D01*
X130919853Y-86143574D01*
X130975000Y-85866335D01*
X130975000Y-85583665D01*
X130919853Y-85306426D01*
X130811680Y-85045273D01*
X130654637Y-84810241D01*
X130454759Y-84610363D01*
X130222241Y-84455000D01*
X130454759Y-84299637D01*
X130654637Y-84099759D01*
X130811680Y-83864727D01*
X130919853Y-83603574D01*
X130975000Y-83326335D01*
X130975000Y-83043665D01*
X130919853Y-82766426D01*
X130811680Y-82505273D01*
X130654637Y-82270241D01*
X130454759Y-82070363D01*
X130219727Y-81913320D01*
X129958574Y-81805147D01*
X129681335Y-81750000D01*
X129398665Y-81750000D01*
X129121426Y-81805147D01*
X128860273Y-81913320D01*
X128625241Y-82070363D01*
X128425363Y-82270241D01*
X128268320Y-82505273D01*
X128160147Y-82766426D01*
X128105000Y-83043665D01*
X128105000Y-83326335D01*
X128160147Y-83603574D01*
X128268320Y-83864727D01*
X128425363Y-84099759D01*
X128625241Y-84299637D01*
X128857759Y-84455000D01*
X128625241Y-84610363D01*
X128425363Y-84810241D01*
X128268320Y-85045273D01*
X128160147Y-85306426D01*
X128105000Y-85583665D01*
X128105000Y-85866335D01*
X128160147Y-86143574D01*
X128268320Y-86404727D01*
X128425363Y-86639759D01*
X128625241Y-86839637D01*
X128857759Y-86995000D01*
X128625241Y-87150363D01*
X128425363Y-87350241D01*
X128268320Y-87585273D01*
X128160147Y-87846426D01*
X128105000Y-88123665D01*
X128105000Y-88406335D01*
X128160147Y-88683574D01*
X128268320Y-88944727D01*
X128425363Y-89179759D01*
X128587501Y-89341897D01*
X128587500Y-89728104D01*
X128425363Y-89890241D01*
X128268320Y-90125273D01*
X128160147Y-90386426D01*
X128105000Y-90663665D01*
X128105000Y-90946335D01*
X128160147Y-91223574D01*
X128268320Y-91484727D01*
X128425363Y-91719759D01*
X128625241Y-91919637D01*
X128857759Y-92075000D01*
X128625241Y-92230363D01*
X128425363Y-92430241D01*
X128268320Y-92665273D01*
X128160147Y-92926426D01*
X128105000Y-93203665D01*
X128105000Y-93486335D01*
X128160147Y-93763574D01*
X128268320Y-94024727D01*
X128425363Y-94259759D01*
X128625241Y-94459637D01*
X128857759Y-94615000D01*
X128625241Y-94770363D01*
X128425363Y-94970241D01*
X128268320Y-95205273D01*
X128160147Y-95466426D01*
X128105000Y-95743665D01*
X128105000Y-96026335D01*
X128160147Y-96303574D01*
X128268320Y-96564727D01*
X128425363Y-96799759D01*
X128625241Y-96999637D01*
X128857759Y-97155000D01*
X128625241Y-97310363D01*
X128425363Y-97510241D01*
X128268320Y-97745273D01*
X128160147Y-98006426D01*
X128105000Y-98283665D01*
X128105000Y-98566335D01*
X128160147Y-98843574D01*
X128268320Y-99104727D01*
X128425363Y-99339759D01*
X128625241Y-99539637D01*
X128857759Y-99695000D01*
X128625241Y-99850363D01*
X128425363Y-100050241D01*
X128268320Y-100285273D01*
X128160147Y-100546426D01*
X128105000Y-100823665D01*
X128105000Y-101106335D01*
X128160147Y-101383574D01*
X128268320Y-101644727D01*
X128425363Y-101879759D01*
X128625241Y-102079637D01*
X128860273Y-102236680D01*
X129121426Y-102344853D01*
X129398665Y-102400000D01*
X129681335Y-102400000D01*
X129958574Y-102344853D01*
X130219727Y-102236680D01*
X130454759Y-102079637D01*
X130654637Y-101879759D01*
X130811680Y-101644727D01*
X130919853Y-101383574D01*
X130975000Y-101106335D01*
X130975000Y-100868685D01*
X131102100Y-100868685D01*
X131102100Y-101061315D01*
X131139680Y-101250243D01*
X131213396Y-101428210D01*
X131320415Y-101588375D01*
X131456625Y-101724585D01*
X131616790Y-101831604D01*
X131794757Y-101905320D01*
X131983685Y-101942900D01*
X132176315Y-101942900D01*
X132365243Y-101905320D01*
X132543210Y-101831604D01*
X132703375Y-101724585D01*
X132839585Y-101588375D01*
X132946604Y-101428210D01*
X133020320Y-101250243D01*
X133057900Y-101061315D01*
X133057900Y-100868685D01*
X133020320Y-100679757D01*
X132946604Y-100501790D01*
X132839585Y-100341625D01*
X132703375Y-100205415D01*
X132543210Y-100098396D01*
X132365243Y-100024680D01*
X132176315Y-99987100D01*
X131983685Y-99987100D01*
X131794757Y-100024680D01*
X131616790Y-100098396D01*
X131456625Y-100205415D01*
X131320415Y-100341625D01*
X131213396Y-100501790D01*
X131139680Y-100679757D01*
X131102100Y-100868685D01*
X130975000Y-100868685D01*
X130975000Y-100823665D01*
X130919853Y-100546426D01*
X130811680Y-100285273D01*
X130654637Y-100050241D01*
X130454759Y-99850363D01*
X130222241Y-99695000D01*
X130454759Y-99539637D01*
X130654637Y-99339759D01*
X130811680Y-99104727D01*
X130919853Y-98843574D01*
X130975000Y-98566335D01*
X130975000Y-98283665D01*
X130919853Y-98006426D01*
X130811680Y-97745273D01*
X130654637Y-97510241D01*
X130454759Y-97310363D01*
X130222241Y-97155000D01*
X130454759Y-96999637D01*
X130654637Y-96799759D01*
X130811680Y-96564727D01*
X130919853Y-96303574D01*
X130975000Y-96026335D01*
X130975000Y-95743665D01*
X130919853Y-95466426D01*
X130811680Y-95205273D01*
X130654637Y-94970241D01*
X130454759Y-94770363D01*
X130222241Y-94615000D01*
X130454759Y-94459637D01*
X130654637Y-94259759D01*
X130686891Y-94211487D01*
X132017504Y-95542100D01*
X131983685Y-95542100D01*
X131794757Y-95579680D01*
X131616790Y-95653396D01*
X131456625Y-95760415D01*
X131320415Y-95896625D01*
X131213396Y-96056790D01*
X131139680Y-96234757D01*
X131102100Y-96423685D01*
X131102100Y-96616315D01*
X131139680Y-96805243D01*
X131213396Y-96983210D01*
X131320415Y-97143375D01*
X131456625Y-97279585D01*
X131616790Y-97386604D01*
X131794757Y-97460320D01*
X131855990Y-97472500D01*
X131794757Y-97484680D01*
X131616790Y-97558396D01*
X131456625Y-97665415D01*
X131320415Y-97801625D01*
X131213396Y-97961790D01*
X131139680Y-98139757D01*
X131102100Y-98328685D01*
X131102100Y-98521315D01*
X131139680Y-98710243D01*
X131213396Y-98888210D01*
X131320415Y-99048375D01*
X131456625Y-99184585D01*
X131616790Y-99291604D01*
X131794757Y-99365320D01*
X131983685Y-99402900D01*
X132176315Y-99402900D01*
X132365243Y-99365320D01*
X132543210Y-99291604D01*
X132703375Y-99184585D01*
X132839585Y-99048375D01*
X132946604Y-98888210D01*
X133020320Y-98710243D01*
X133057900Y-98521315D01*
X133057900Y-98328685D01*
X133020320Y-98139757D01*
X132946604Y-97961790D01*
X132839585Y-97801625D01*
X132703375Y-97665415D01*
X132543210Y-97558396D01*
X132365243Y-97484680D01*
X132304010Y-97472500D01*
X132365243Y-97460320D01*
X132543210Y-97386604D01*
X132703375Y-97279585D01*
X132839585Y-97143375D01*
X132946604Y-96983210D01*
X133020320Y-96805243D01*
X133057900Y-96616315D01*
X133057900Y-96582497D01*
X134765814Y-98290411D01*
X134795639Y-98326753D01*
X134940676Y-98445781D01*
X135106148Y-98534227D01*
X135285694Y-98588692D01*
X135472416Y-98607083D01*
X135519201Y-98602475D01*
X140080487Y-98602475D01*
X142557500Y-101079488D01*
X142557501Y-108572201D01*
X142265508Y-108572201D01*
X142349853Y-108368574D01*
X142405000Y-108091335D01*
X142405000Y-107808665D01*
X142349853Y-107531426D01*
X142241680Y-107270273D01*
X142084637Y-107035241D01*
X141922500Y-106873104D01*
X141922500Y-106865415D01*
X141927108Y-106818630D01*
X141908717Y-106631908D01*
X141886327Y-106558096D01*
X141876041Y-106524188D01*
X141854252Y-106452360D01*
X141806221Y-106362500D01*
X141765806Y-106286889D01*
X141646778Y-106141852D01*
X141610431Y-106112023D01*
X140267977Y-104769569D01*
X140238148Y-104733222D01*
X140093111Y-104614194D01*
X139927639Y-104525748D01*
X139748093Y-104471283D01*
X139608155Y-104457500D01*
X139561370Y-104452892D01*
X139514585Y-104457500D01*
X132304010Y-104457500D01*
X132365243Y-104445320D01*
X132543210Y-104371604D01*
X132703375Y-104264585D01*
X132839585Y-104128375D01*
X132946604Y-103968210D01*
X133020320Y-103790243D01*
X133057900Y-103601315D01*
X133057900Y-103408685D01*
X133020320Y-103219757D01*
X132946604Y-103041790D01*
X132839585Y-102881625D01*
X132703375Y-102745415D01*
X132543210Y-102638396D01*
X132365243Y-102564680D01*
X132176315Y-102527100D01*
X131983685Y-102527100D01*
X131794757Y-102564680D01*
X131616790Y-102638396D01*
X131456625Y-102745415D01*
X131320415Y-102881625D01*
X131213396Y-103041790D01*
X131139680Y-103219757D01*
X131102100Y-103408685D01*
X131102100Y-103601315D01*
X131139680Y-103790243D01*
X131213396Y-103968210D01*
X131320415Y-104128375D01*
X131456625Y-104264585D01*
X131616790Y-104371604D01*
X131794757Y-104445320D01*
X131855990Y-104457500D01*
X121679538Y-104457500D01*
X118275000Y-101052962D01*
X118275000Y-100823665D01*
X118219853Y-100546426D01*
X118111680Y-100285273D01*
X117954637Y-100050241D01*
X117754759Y-99850363D01*
X117519727Y-99693320D01*
X117509135Y-99688933D01*
X117695131Y-99577385D01*
X117903519Y-99388414D01*
X118071037Y-99162420D01*
X118191246Y-98908087D01*
X118231904Y-98774039D01*
X118109915Y-98552000D01*
X116967000Y-98552000D01*
X116967000Y-98572000D01*
X116713000Y-98572000D01*
X116713000Y-98552000D01*
X115570085Y-98552000D01*
X115448096Y-98774039D01*
X115488754Y-98908087D01*
X115608963Y-99162420D01*
X115776481Y-99388414D01*
X115984869Y-99577385D01*
X116170865Y-99688933D01*
X116160273Y-99693320D01*
X115925241Y-99850363D01*
X115763104Y-100012500D01*
X113711785Y-100012500D01*
X113665000Y-100007892D01*
X113618215Y-100012500D01*
X113478277Y-100026283D01*
X113418188Y-100044511D01*
X113298730Y-100080748D01*
X113215995Y-100124971D01*
X113141105Y-100165000D01*
X112888665Y-100165000D01*
X112611426Y-100220147D01*
X112350273Y-100328320D01*
X112115241Y-100485363D01*
X111915363Y-100685241D01*
X111758320Y-100920273D01*
X111650147Y-101181426D01*
X111595000Y-101458665D01*
X111595000Y-101741335D01*
X111650147Y-102018574D01*
X111758320Y-102279727D01*
X111915363Y-102514759D01*
X112115241Y-102714637D01*
X112350273Y-102871680D01*
X112611426Y-102979853D01*
X112888665Y-103035000D01*
X113171335Y-103035000D01*
X113448574Y-102979853D01*
X113709727Y-102871680D01*
X113944759Y-102714637D01*
X114144637Y-102514759D01*
X114301680Y-102279727D01*
X114409853Y-102018574D01*
X114429958Y-101917500D01*
X115763104Y-101917500D01*
X115925241Y-102079637D01*
X116160273Y-102236680D01*
X116421426Y-102344853D01*
X116698665Y-102400000D01*
X116927962Y-102400000D01*
X120578393Y-106050431D01*
X120608222Y-106086778D01*
X120753259Y-106205806D01*
X120918731Y-106294252D01*
X121098277Y-106348717D01*
X121284999Y-106367108D01*
X121331784Y-106362500D01*
X139166832Y-106362500D01*
X139849038Y-107044706D01*
X139698320Y-107270273D01*
X139693933Y-107280865D01*
X139582385Y-107094869D01*
X139393414Y-106886481D01*
X139167420Y-106718963D01*
X138913087Y-106598754D01*
X138779039Y-106558096D01*
X138557000Y-106680085D01*
X138557000Y-107823000D01*
X138577000Y-107823000D01*
X138577000Y-108077000D01*
X138557000Y-108077000D01*
X138557000Y-108097000D01*
X138303000Y-108097000D01*
X138303000Y-108077000D01*
X136017000Y-108077000D01*
X136017000Y-108097000D01*
X135763000Y-108097000D01*
X135763000Y-108077000D01*
X135743000Y-108077000D01*
X135743000Y-107823000D01*
X135763000Y-107823000D01*
X135763000Y-106680085D01*
X136017000Y-106680085D01*
X136017000Y-107823000D01*
X138303000Y-107823000D01*
X138303000Y-106680085D01*
X138080961Y-106558096D01*
X137946913Y-106598754D01*
X137692580Y-106718963D01*
X137466586Y-106886481D01*
X137277615Y-107094869D01*
X137160000Y-107290982D01*
X137042385Y-107094869D01*
X136853414Y-106886481D01*
X136627420Y-106718963D01*
X136373087Y-106598754D01*
X136239039Y-106558096D01*
X136017000Y-106680085D01*
X135763000Y-106680085D01*
X135540961Y-106558096D01*
X135406913Y-106598754D01*
X135152580Y-106718963D01*
X134926586Y-106886481D01*
X134737615Y-107094869D01*
X134626067Y-107280865D01*
X134621680Y-107270273D01*
X134464637Y-107035241D01*
X134264759Y-106835363D01*
X134029727Y-106678320D01*
X133768574Y-106570147D01*
X133491335Y-106515000D01*
X133208665Y-106515000D01*
X132931426Y-106570147D01*
X132670273Y-106678320D01*
X132435241Y-106835363D01*
X132235363Y-107035241D01*
X132080000Y-107267759D01*
X131924637Y-107035241D01*
X131724759Y-106835363D01*
X131489727Y-106678320D01*
X131228574Y-106570147D01*
X130951335Y-106515000D01*
X130668665Y-106515000D01*
X130391426Y-106570147D01*
X130130273Y-106678320D01*
X129895241Y-106835363D01*
X129695363Y-107035241D01*
X129540000Y-107267759D01*
X129384637Y-107035241D01*
X129184759Y-106835363D01*
X128949727Y-106678320D01*
X128688574Y-106570147D01*
X128411335Y-106515000D01*
X128128665Y-106515000D01*
X127851426Y-106570147D01*
X127590273Y-106678320D01*
X127355241Y-106835363D01*
X127155363Y-107035241D01*
X127000000Y-107267759D01*
X126844637Y-107035241D01*
X126644759Y-106835363D01*
X126409727Y-106678320D01*
X126148574Y-106570147D01*
X125871335Y-106515000D01*
X125588665Y-106515000D01*
X125311426Y-106570147D01*
X125050273Y-106678320D01*
X124815241Y-106835363D01*
X124616643Y-107033961D01*
X124615812Y-107025518D01*
X124579502Y-106905820D01*
X124520537Y-106795506D01*
X124441185Y-106698815D01*
X124344494Y-106619463D01*
X124234180Y-106560498D01*
X124114482Y-106524188D01*
X123990000Y-106511928D01*
X122390000Y-106511928D01*
X122265518Y-106524188D01*
X122145820Y-106560498D01*
X122035506Y-106619463D01*
X121938815Y-106698815D01*
X121859463Y-106795506D01*
X121800498Y-106905820D01*
X121764188Y-107025518D01*
X121751928Y-107150000D01*
X121751928Y-108572201D01*
X103684240Y-108572201D01*
X102704741Y-107592702D01*
X112216903Y-107592702D01*
X112288486Y-107836671D01*
X112543996Y-107957571D01*
X112818184Y-108026300D01*
X113100512Y-108040217D01*
X113380130Y-107998787D01*
X113646292Y-107903603D01*
X113771514Y-107836671D01*
X113843097Y-107592702D01*
X113030000Y-106779605D01*
X112216903Y-107592702D01*
X102704741Y-107592702D01*
X101782551Y-106670512D01*
X111589783Y-106670512D01*
X111631213Y-106950130D01*
X111726397Y-107216292D01*
X111793329Y-107341514D01*
X112037298Y-107413097D01*
X112850395Y-106600000D01*
X113209605Y-106600000D01*
X114022702Y-107413097D01*
X114266671Y-107341514D01*
X114387571Y-107086004D01*
X114456300Y-106811816D01*
X114470217Y-106529488D01*
X114428787Y-106249870D01*
X114333603Y-105983708D01*
X114266671Y-105858486D01*
X114022702Y-105786903D01*
X113209605Y-106600000D01*
X112850395Y-106600000D01*
X112037298Y-105786903D01*
X111793329Y-105858486D01*
X111672429Y-106113996D01*
X111603700Y-106388184D01*
X111589783Y-106670512D01*
X101782551Y-106670512D01*
X101151607Y-106039569D01*
X101121778Y-106003222D01*
X100976741Y-105884194D01*
X100811269Y-105795748D01*
X100631723Y-105741283D01*
X100491785Y-105727500D01*
X100445000Y-105722892D01*
X100411741Y-105726168D01*
X100399502Y-105685820D01*
X100357531Y-105607298D01*
X112216903Y-105607298D01*
X113030000Y-106420395D01*
X113843097Y-105607298D01*
X113771514Y-105363329D01*
X113516004Y-105242429D01*
X113241816Y-105173700D01*
X112959488Y-105159783D01*
X112679870Y-105201213D01*
X112413708Y-105296397D01*
X112288486Y-105363329D01*
X112216903Y-105607298D01*
X100357531Y-105607298D01*
X100340537Y-105575506D01*
X100261185Y-105478815D01*
X100164494Y-105399463D01*
X100054180Y-105340498D01*
X99934482Y-105304188D01*
X99826517Y-105293555D01*
X99942886Y-105215799D01*
X100135799Y-105022886D01*
X100287371Y-104796043D01*
X100391775Y-104543989D01*
X100445000Y-104276411D01*
X100445000Y-104003589D01*
X100391775Y-103736011D01*
X100287371Y-103483957D01*
X100135799Y-103257114D01*
X99942886Y-103064201D01*
X99716043Y-102912629D01*
X99613127Y-102870000D01*
X99716043Y-102827371D01*
X99942886Y-102675799D01*
X100135799Y-102482886D01*
X100287371Y-102256043D01*
X100391775Y-102003989D01*
X100445000Y-101736411D01*
X100445000Y-101463589D01*
X100391775Y-101196011D01*
X100287371Y-100943957D01*
X100135799Y-100717114D01*
X99942886Y-100524201D01*
X99716043Y-100372629D01*
X99616721Y-100331489D01*
X99658832Y-100316277D01*
X99771863Y-100255860D01*
X99837388Y-100016993D01*
X99060000Y-99239605D01*
X98282612Y-100016993D01*
X98348137Y-100255860D01*
X98506477Y-100330164D01*
X98403957Y-100372629D01*
X98177114Y-100524201D01*
X97984201Y-100717114D01*
X97832629Y-100943957D01*
X97728225Y-101196011D01*
X97675000Y-101463589D01*
X97675000Y-101736411D01*
X97728225Y-102003989D01*
X97832629Y-102256043D01*
X97984201Y-102482886D01*
X98177114Y-102675799D01*
X98403957Y-102827371D01*
X98506873Y-102870000D01*
X98403957Y-102912629D01*
X98177114Y-103064201D01*
X97984201Y-103257114D01*
X97832629Y-103483957D01*
X97728225Y-103736011D01*
X97675000Y-104003589D01*
X97675000Y-104276411D01*
X97728225Y-104543989D01*
X97832629Y-104796043D01*
X97984201Y-105022886D01*
X98177114Y-105215799D01*
X98293483Y-105293555D01*
X98185518Y-105304188D01*
X98065820Y-105340498D01*
X97955506Y-105399463D01*
X97858815Y-105478815D01*
X97779463Y-105575506D01*
X97720498Y-105685820D01*
X97684188Y-105805518D01*
X97671928Y-105930000D01*
X97671928Y-107430000D01*
X97684188Y-107554482D01*
X97720498Y-107674180D01*
X97779463Y-107784494D01*
X97858815Y-107881185D01*
X97955506Y-107960537D01*
X98065820Y-108019502D01*
X98185518Y-108055812D01*
X98310000Y-108068072D01*
X99810000Y-108068072D01*
X99934482Y-108055812D01*
X100054180Y-108019502D01*
X100164494Y-107960537D01*
X100261185Y-107881185D01*
X100278296Y-107860335D01*
X102247961Y-109830000D01*
X95910000Y-109830000D01*
X95910000Y-99132492D01*
X97670188Y-99132492D01*
X97711035Y-99402238D01*
X97803723Y-99658832D01*
X97864140Y-99771863D01*
X98103007Y-99837388D01*
X98880395Y-99060000D01*
X99239605Y-99060000D01*
X100016993Y-99837388D01*
X100255860Y-99771863D01*
X100371760Y-99524884D01*
X100437250Y-99260040D01*
X100449812Y-98987508D01*
X100408965Y-98717762D01*
X100316277Y-98461168D01*
X100255860Y-98348137D01*
X100016993Y-98282612D01*
X99239605Y-99060000D01*
X98880395Y-99060000D01*
X98103007Y-98282612D01*
X97864140Y-98348137D01*
X97748240Y-98595116D01*
X97682750Y-98859960D01*
X97670188Y-99132492D01*
X95910000Y-99132492D01*
X95910000Y-98103007D01*
X98282612Y-98103007D01*
X99060000Y-98880395D01*
X99819830Y-98120565D01*
X107164040Y-98120565D01*
X107231020Y-98360656D01*
X107480048Y-98477756D01*
X107747135Y-98544023D01*
X108022017Y-98556910D01*
X108294133Y-98515922D01*
X108553023Y-98422636D01*
X108668980Y-98360656D01*
X108735960Y-98120565D01*
X107950000Y-97334605D01*
X107164040Y-98120565D01*
X99819830Y-98120565D01*
X99837388Y-98103007D01*
X99771863Y-97864140D01*
X99524884Y-97748240D01*
X99260040Y-97682750D01*
X98987508Y-97670188D01*
X98717762Y-97711035D01*
X98461168Y-97803723D01*
X98348137Y-97864140D01*
X98282612Y-98103007D01*
X95910000Y-98103007D01*
X95910000Y-97227017D01*
X106548090Y-97227017D01*
X106589078Y-97499133D01*
X106682364Y-97758023D01*
X106744344Y-97873980D01*
X106984435Y-97940960D01*
X107770395Y-97155000D01*
X108129605Y-97155000D01*
X108915565Y-97940960D01*
X109155656Y-97873980D01*
X109272756Y-97624952D01*
X109339023Y-97357865D01*
X109351910Y-97082983D01*
X109310922Y-96810867D01*
X109217636Y-96551977D01*
X109155656Y-96436020D01*
X108915565Y-96369040D01*
X108129605Y-97155000D01*
X107770395Y-97155000D01*
X106984435Y-96369040D01*
X106744344Y-96436020D01*
X106627244Y-96685048D01*
X106560977Y-96952135D01*
X106548090Y-97227017D01*
X95910000Y-97227017D01*
X95910000Y-96189435D01*
X107164040Y-96189435D01*
X107950000Y-96975395D01*
X108735960Y-96189435D01*
X108668980Y-95949344D01*
X108419952Y-95832244D01*
X108152865Y-95765977D01*
X107877983Y-95753090D01*
X107605867Y-95794078D01*
X107346977Y-95887364D01*
X107231020Y-95949344D01*
X107164040Y-96189435D01*
X95910000Y-96189435D01*
X95910000Y-91308514D01*
X96455000Y-91308514D01*
X96455000Y-91571486D01*
X96506304Y-91829405D01*
X96606939Y-92072359D01*
X96753038Y-92291013D01*
X96938987Y-92476962D01*
X97157641Y-92623061D01*
X97400595Y-92723696D01*
X97658514Y-92775000D01*
X97921486Y-92775000D01*
X98179405Y-92723696D01*
X98422359Y-92623061D01*
X98641013Y-92476962D01*
X98826962Y-92291013D01*
X98973061Y-92072359D01*
X99073696Y-91829405D01*
X99125000Y-91571486D01*
X99125000Y-91308514D01*
X99630000Y-91308514D01*
X99630000Y-91571486D01*
X99681304Y-91829405D01*
X99781939Y-92072359D01*
X99928038Y-92291013D01*
X100113987Y-92476962D01*
X100332641Y-92623061D01*
X100575595Y-92723696D01*
X100833514Y-92775000D01*
X101096486Y-92775000D01*
X101354405Y-92723696D01*
X101597359Y-92623061D01*
X101816013Y-92476962D01*
X102001962Y-92291013D01*
X102148061Y-92072359D01*
X102203959Y-91937408D01*
X106553000Y-91937408D01*
X106553000Y-92212592D01*
X106606686Y-92482490D01*
X106711995Y-92736727D01*
X106864880Y-92965535D01*
X107059465Y-93160120D01*
X107288273Y-93313005D01*
X107542510Y-93418314D01*
X107812408Y-93472000D01*
X108087592Y-93472000D01*
X108357490Y-93418314D01*
X108611727Y-93313005D01*
X108840535Y-93160120D01*
X109035120Y-92965535D01*
X109188005Y-92736727D01*
X109293314Y-92482490D01*
X109347000Y-92212592D01*
X109347000Y-91937408D01*
X109293314Y-91667510D01*
X109188005Y-91413273D01*
X109035120Y-91184465D01*
X108840535Y-90989880D01*
X108611727Y-90836995D01*
X108357490Y-90731686D01*
X108087592Y-90678000D01*
X107812408Y-90678000D01*
X107542510Y-90731686D01*
X107288273Y-90836995D01*
X107059465Y-90989880D01*
X106864880Y-91184465D01*
X106711995Y-91413273D01*
X106606686Y-91667510D01*
X106553000Y-91937408D01*
X102203959Y-91937408D01*
X102248696Y-91829405D01*
X102300000Y-91571486D01*
X102300000Y-91308514D01*
X102248696Y-91050595D01*
X102148061Y-90807641D01*
X102001962Y-90588987D01*
X101816013Y-90403038D01*
X101597359Y-90256939D01*
X101354405Y-90156304D01*
X101096486Y-90105000D01*
X100833514Y-90105000D01*
X100575595Y-90156304D01*
X100332641Y-90256939D01*
X100113987Y-90403038D01*
X99928038Y-90588987D01*
X99781939Y-90807641D01*
X99681304Y-91050595D01*
X99630000Y-91308514D01*
X99125000Y-91308514D01*
X99073696Y-91050595D01*
X98973061Y-90807641D01*
X98826962Y-90588987D01*
X98641013Y-90403038D01*
X98422359Y-90256939D01*
X98179405Y-90156304D01*
X97921486Y-90105000D01*
X97658514Y-90105000D01*
X97400595Y-90156304D01*
X97157641Y-90256939D01*
X96938987Y-90403038D01*
X96753038Y-90588987D01*
X96606939Y-90807641D01*
X96506304Y-91050595D01*
X96455000Y-91308514D01*
X95910000Y-91308514D01*
X95910000Y-86857408D01*
X106553000Y-86857408D01*
X106553000Y-87132592D01*
X106606686Y-87402490D01*
X106711995Y-87656727D01*
X106864880Y-87885535D01*
X107059465Y-88080120D01*
X107288273Y-88233005D01*
X107542510Y-88338314D01*
X107812408Y-88392000D01*
X108087592Y-88392000D01*
X108357490Y-88338314D01*
X108611727Y-88233005D01*
X108840535Y-88080120D01*
X109035120Y-87885535D01*
X109188005Y-87656727D01*
X109293314Y-87402490D01*
X109347000Y-87132592D01*
X109347000Y-86857408D01*
X109293314Y-86587510D01*
X109188005Y-86333273D01*
X109035120Y-86104465D01*
X108840535Y-85909880D01*
X108611727Y-85756995D01*
X108357490Y-85651686D01*
X108087592Y-85598000D01*
X107812408Y-85598000D01*
X107542510Y-85651686D01*
X107288273Y-85756995D01*
X107059465Y-85909880D01*
X106864880Y-86104465D01*
X106711995Y-86333273D01*
X106606686Y-86587510D01*
X106553000Y-86857408D01*
X95910000Y-86857408D01*
X95910000Y-59548665D01*
X112615000Y-59548665D01*
X112615000Y-59831335D01*
X112670147Y-60108574D01*
X112778320Y-60369727D01*
X112935363Y-60604759D01*
X113135241Y-60804637D01*
X113370273Y-60961680D01*
X113631426Y-61069853D01*
X113908665Y-61125000D01*
X114191335Y-61125000D01*
X114468574Y-61069853D01*
X114729727Y-60961680D01*
X114964759Y-60804637D01*
X115164637Y-60604759D01*
X115320000Y-60372241D01*
X115475363Y-60604759D01*
X115675241Y-60804637D01*
X115910273Y-60961680D01*
X116171426Y-61069853D01*
X116448665Y-61125000D01*
X116731335Y-61125000D01*
X117008574Y-61069853D01*
X117269727Y-60961680D01*
X117504759Y-60804637D01*
X117704637Y-60604759D01*
X117860000Y-60372241D01*
X118015363Y-60604759D01*
X118215241Y-60804637D01*
X118450273Y-60961680D01*
X118711426Y-61069853D01*
X118988665Y-61125000D01*
X119271335Y-61125000D01*
X119548574Y-61069853D01*
X119809727Y-60961680D01*
X120044759Y-60804637D01*
X120244637Y-60604759D01*
X120401680Y-60369727D01*
X120406067Y-60359135D01*
X120517615Y-60545131D01*
X120706586Y-60753519D01*
X120932580Y-60921037D01*
X121186913Y-61041246D01*
X121320961Y-61081904D01*
X121543000Y-60959915D01*
X121543000Y-59817000D01*
X121523000Y-59817000D01*
X121523000Y-59563000D01*
X121543000Y-59563000D01*
X121543000Y-58420085D01*
X121797000Y-58420085D01*
X121797000Y-59563000D01*
X121817000Y-59563000D01*
X121817000Y-59817000D01*
X121797000Y-59817000D01*
X121797000Y-60959915D01*
X122019039Y-61081904D01*
X122153087Y-61041246D01*
X122407420Y-60921037D01*
X122633414Y-60753519D01*
X122822385Y-60545131D01*
X122933933Y-60359135D01*
X122938320Y-60369727D01*
X123095363Y-60604759D01*
X123295241Y-60804637D01*
X123530273Y-60961680D01*
X123791426Y-61069853D01*
X124068665Y-61125000D01*
X124351335Y-61125000D01*
X124628574Y-61069853D01*
X124889727Y-60961680D01*
X125124759Y-60804637D01*
X125324637Y-60604759D01*
X125480000Y-60372241D01*
X125635363Y-60604759D01*
X125835241Y-60804637D01*
X126070273Y-60961680D01*
X126331426Y-61069853D01*
X126608665Y-61125000D01*
X126891335Y-61125000D01*
X127168574Y-61069853D01*
X127429727Y-60961680D01*
X127664759Y-60804637D01*
X127864637Y-60604759D01*
X128020000Y-60372241D01*
X128175363Y-60604759D01*
X128375241Y-60804637D01*
X128610273Y-60961680D01*
X128871426Y-61069853D01*
X129148665Y-61125000D01*
X129431335Y-61125000D01*
X129708574Y-61069853D01*
X129969727Y-60961680D01*
X130204759Y-60804637D01*
X130404637Y-60604759D01*
X130560000Y-60372241D01*
X130715363Y-60604759D01*
X130915241Y-60804637D01*
X130937920Y-60819791D01*
X130856790Y-60853396D01*
X130696625Y-60960415D01*
X130560415Y-61096625D01*
X130453396Y-61256790D01*
X130379680Y-61434757D01*
X130342100Y-61623685D01*
X130342100Y-61816315D01*
X130379680Y-62005243D01*
X130453396Y-62183210D01*
X130560415Y-62343375D01*
X130696625Y-62479585D01*
X130856790Y-62586604D01*
X131034757Y-62660320D01*
X131223685Y-62697900D01*
X131416315Y-62697900D01*
X131605243Y-62660320D01*
X131783210Y-62586604D01*
X131943375Y-62479585D01*
X132079585Y-62343375D01*
X132186604Y-62183210D01*
X132260320Y-62005243D01*
X132297900Y-61816315D01*
X132297900Y-61623685D01*
X132260320Y-61434757D01*
X132186604Y-61256790D01*
X132083621Y-61102665D01*
X132248574Y-61069853D01*
X132509727Y-60961680D01*
X132744759Y-60804637D01*
X132944637Y-60604759D01*
X133100000Y-60372241D01*
X133255363Y-60604759D01*
X133455241Y-60804637D01*
X133690273Y-60961680D01*
X133951426Y-61069853D01*
X134228665Y-61125000D01*
X134511335Y-61125000D01*
X134788574Y-61069853D01*
X135049727Y-60961680D01*
X135284759Y-60804637D01*
X135484637Y-60604759D01*
X135640000Y-60372241D01*
X135795363Y-60604759D01*
X135995241Y-60804637D01*
X136230273Y-60961680D01*
X136491426Y-61069853D01*
X136768665Y-61125000D01*
X137051335Y-61125000D01*
X137328574Y-61069853D01*
X137589727Y-60961680D01*
X137824759Y-60804637D01*
X138024637Y-60604759D01*
X138181680Y-60369727D01*
X138289853Y-60108574D01*
X138345000Y-59831335D01*
X138345000Y-59548665D01*
X139535000Y-59548665D01*
X139535000Y-59831335D01*
X139590147Y-60108574D01*
X139698320Y-60369727D01*
X139855363Y-60604759D01*
X140055241Y-60804637D01*
X140290273Y-60961680D01*
X140551426Y-61069853D01*
X140828665Y-61125000D01*
X141111335Y-61125000D01*
X141388574Y-61069853D01*
X141649727Y-60961680D01*
X141884759Y-60804637D01*
X142084637Y-60604759D01*
X142240000Y-60372241D01*
X142395363Y-60604759D01*
X142595241Y-60804637D01*
X142830273Y-60961680D01*
X143091426Y-61069853D01*
X143368665Y-61125000D01*
X143651335Y-61125000D01*
X143928574Y-61069853D01*
X144189727Y-60961680D01*
X144424759Y-60804637D01*
X144624637Y-60604759D01*
X144780000Y-60372241D01*
X144935363Y-60604759D01*
X145135241Y-60804637D01*
X145370273Y-60961680D01*
X145631426Y-61069853D01*
X145908665Y-61125000D01*
X146191335Y-61125000D01*
X146468574Y-61069853D01*
X146729727Y-60961680D01*
X146964759Y-60804637D01*
X147164637Y-60604759D01*
X147320000Y-60372241D01*
X147475363Y-60604759D01*
X147675241Y-60804637D01*
X147910273Y-60961680D01*
X148171426Y-61069853D01*
X148448665Y-61125000D01*
X148731335Y-61125000D01*
X149008574Y-61069853D01*
X149269727Y-60961680D01*
X149504759Y-60804637D01*
X149704637Y-60604759D01*
X149860000Y-60372241D01*
X150015363Y-60604759D01*
X150215241Y-60804637D01*
X150450273Y-60961680D01*
X150711426Y-61069853D01*
X150988665Y-61125000D01*
X151271335Y-61125000D01*
X151548574Y-61069853D01*
X151809727Y-60961680D01*
X152044759Y-60804637D01*
X152244637Y-60604759D01*
X152400000Y-60372241D01*
X152555363Y-60604759D01*
X152755241Y-60804637D01*
X152990273Y-60961680D01*
X153251426Y-61069853D01*
X153528665Y-61125000D01*
X153811335Y-61125000D01*
X154088574Y-61069853D01*
X154349727Y-60961680D01*
X154584759Y-60804637D01*
X154784637Y-60604759D01*
X154940000Y-60372241D01*
X155095363Y-60604759D01*
X155295241Y-60804637D01*
X155530273Y-60961680D01*
X155791426Y-61069853D01*
X156068665Y-61125000D01*
X156351335Y-61125000D01*
X156628574Y-61069853D01*
X156889727Y-60961680D01*
X157124759Y-60804637D01*
X157324637Y-60604759D01*
X157480000Y-60372241D01*
X157635363Y-60604759D01*
X157835241Y-60804637D01*
X158070273Y-60961680D01*
X158331426Y-61069853D01*
X158608665Y-61125000D01*
X158891335Y-61125000D01*
X159168574Y-61069853D01*
X159429727Y-60961680D01*
X159664759Y-60804637D01*
X159864637Y-60604759D01*
X160021680Y-60369727D01*
X160129853Y-60108574D01*
X160185000Y-59831335D01*
X160185000Y-59548665D01*
X160129853Y-59271426D01*
X160021680Y-59010273D01*
X159864637Y-58775241D01*
X159664759Y-58575363D01*
X159429727Y-58418320D01*
X159168574Y-58310147D01*
X158891335Y-58255000D01*
X158608665Y-58255000D01*
X158331426Y-58310147D01*
X158070273Y-58418320D01*
X157835241Y-58575363D01*
X157635363Y-58775241D01*
X157480000Y-59007759D01*
X157324637Y-58775241D01*
X157124759Y-58575363D01*
X156889727Y-58418320D01*
X156628574Y-58310147D01*
X156351335Y-58255000D01*
X156068665Y-58255000D01*
X155791426Y-58310147D01*
X155530273Y-58418320D01*
X155295241Y-58575363D01*
X155095363Y-58775241D01*
X154940000Y-59007759D01*
X154784637Y-58775241D01*
X154584759Y-58575363D01*
X154349727Y-58418320D01*
X154088574Y-58310147D01*
X153811335Y-58255000D01*
X153528665Y-58255000D01*
X153251426Y-58310147D01*
X152990273Y-58418320D01*
X152755241Y-58575363D01*
X152555363Y-58775241D01*
X152400000Y-59007759D01*
X152244637Y-58775241D01*
X152044759Y-58575363D01*
X151809727Y-58418320D01*
X151548574Y-58310147D01*
X151271335Y-58255000D01*
X150988665Y-58255000D01*
X150711426Y-58310147D01*
X150450273Y-58418320D01*
X150215241Y-58575363D01*
X150015363Y-58775241D01*
X149860000Y-59007759D01*
X149704637Y-58775241D01*
X149504759Y-58575363D01*
X149269727Y-58418320D01*
X149008574Y-58310147D01*
X148731335Y-58255000D01*
X148448665Y-58255000D01*
X148171426Y-58310147D01*
X147910273Y-58418320D01*
X147675241Y-58575363D01*
X147475363Y-58775241D01*
X147320000Y-59007759D01*
X147164637Y-58775241D01*
X146964759Y-58575363D01*
X146729727Y-58418320D01*
X146468574Y-58310147D01*
X146191335Y-58255000D01*
X145908665Y-58255000D01*
X145631426Y-58310147D01*
X145370273Y-58418320D01*
X145135241Y-58575363D01*
X144935363Y-58775241D01*
X144780000Y-59007759D01*
X144624637Y-58775241D01*
X144424759Y-58575363D01*
X144189727Y-58418320D01*
X143928574Y-58310147D01*
X143651335Y-58255000D01*
X143368665Y-58255000D01*
X143091426Y-58310147D01*
X142830273Y-58418320D01*
X142595241Y-58575363D01*
X142395363Y-58775241D01*
X142240000Y-59007759D01*
X142084637Y-58775241D01*
X141884759Y-58575363D01*
X141649727Y-58418320D01*
X141388574Y-58310147D01*
X141111335Y-58255000D01*
X140828665Y-58255000D01*
X140551426Y-58310147D01*
X140290273Y-58418320D01*
X140055241Y-58575363D01*
X139855363Y-58775241D01*
X139698320Y-59010273D01*
X139590147Y-59271426D01*
X139535000Y-59548665D01*
X138345000Y-59548665D01*
X138289853Y-59271426D01*
X138181680Y-59010273D01*
X138024637Y-58775241D01*
X137824759Y-58575363D01*
X137589727Y-58418320D01*
X137328574Y-58310147D01*
X137051335Y-58255000D01*
X136768665Y-58255000D01*
X136491426Y-58310147D01*
X136230273Y-58418320D01*
X135995241Y-58575363D01*
X135795363Y-58775241D01*
X135640000Y-59007759D01*
X135484637Y-58775241D01*
X135284759Y-58575363D01*
X135049727Y-58418320D01*
X134788574Y-58310147D01*
X134511335Y-58255000D01*
X134228665Y-58255000D01*
X133951426Y-58310147D01*
X133690273Y-58418320D01*
X133455241Y-58575363D01*
X133255363Y-58775241D01*
X133100000Y-59007759D01*
X132944637Y-58775241D01*
X132744759Y-58575363D01*
X132509727Y-58418320D01*
X132248574Y-58310147D01*
X131971335Y-58255000D01*
X131688665Y-58255000D01*
X131411426Y-58310147D01*
X131150273Y-58418320D01*
X130915241Y-58575363D01*
X130715363Y-58775241D01*
X130560000Y-59007759D01*
X130404637Y-58775241D01*
X130204759Y-58575363D01*
X129969727Y-58418320D01*
X129708574Y-58310147D01*
X129431335Y-58255000D01*
X129148665Y-58255000D01*
X128871426Y-58310147D01*
X128610273Y-58418320D01*
X128375241Y-58575363D01*
X128175363Y-58775241D01*
X128020000Y-59007759D01*
X127864637Y-58775241D01*
X127664759Y-58575363D01*
X127429727Y-58418320D01*
X127168574Y-58310147D01*
X126891335Y-58255000D01*
X126608665Y-58255000D01*
X126331426Y-58310147D01*
X126070273Y-58418320D01*
X125835241Y-58575363D01*
X125635363Y-58775241D01*
X125480000Y-59007759D01*
X125324637Y-58775241D01*
X125124759Y-58575363D01*
X124889727Y-58418320D01*
X124628574Y-58310147D01*
X124351335Y-58255000D01*
X124068665Y-58255000D01*
X123791426Y-58310147D01*
X123530273Y-58418320D01*
X123295241Y-58575363D01*
X123095363Y-58775241D01*
X122938320Y-59010273D01*
X122933933Y-59020865D01*
X122822385Y-58834869D01*
X122633414Y-58626481D01*
X122407420Y-58458963D01*
X122153087Y-58338754D01*
X122019039Y-58298096D01*
X121797000Y-58420085D01*
X121543000Y-58420085D01*
X121320961Y-58298096D01*
X121186913Y-58338754D01*
X120932580Y-58458963D01*
X120706586Y-58626481D01*
X120517615Y-58834869D01*
X120406067Y-59020865D01*
X120401680Y-59010273D01*
X120244637Y-58775241D01*
X120044759Y-58575363D01*
X119809727Y-58418320D01*
X119548574Y-58310147D01*
X119271335Y-58255000D01*
X118988665Y-58255000D01*
X118711426Y-58310147D01*
X118450273Y-58418320D01*
X118215241Y-58575363D01*
X118015363Y-58775241D01*
X117860000Y-59007759D01*
X117704637Y-58775241D01*
X117504759Y-58575363D01*
X117269727Y-58418320D01*
X117008574Y-58310147D01*
X116731335Y-58255000D01*
X116448665Y-58255000D01*
X116171426Y-58310147D01*
X115910273Y-58418320D01*
X115675241Y-58575363D01*
X115475363Y-58775241D01*
X115320000Y-59007759D01*
X115164637Y-58775241D01*
X114964759Y-58575363D01*
X114729727Y-58418320D01*
X114468574Y-58310147D01*
X114191335Y-58255000D01*
X113908665Y-58255000D01*
X113631426Y-58310147D01*
X113370273Y-58418320D01*
X113135241Y-58575363D01*
X112935363Y-58775241D01*
X112778320Y-59010273D01*
X112670147Y-59271426D01*
X112615000Y-59548665D01*
X95910000Y-59548665D01*
X95910000Y-57810000D01*
X159746620Y-57810000D01*
X160630000Y-58693381D01*
G37*
X160630000Y-58693381D02*
X160630001Y-69845887D01*
X160629241Y-69906761D01*
X160635953Y-69942854D01*
X160639551Y-69979383D01*
X160647809Y-70006607D01*
X160653011Y-70034577D01*
X160666636Y-70068669D01*
X160677291Y-70103793D01*
X160690698Y-70128876D01*
X160701259Y-70155301D01*
X160721274Y-70186081D01*
X160738576Y-70218450D01*
X160777168Y-70265474D01*
X161835786Y-71588747D01*
X155316308Y-65069270D01*
X155286479Y-65032923D01*
X155141442Y-64913895D01*
X154975970Y-64825449D01*
X154796424Y-64770984D01*
X154656486Y-64757201D01*
X154609701Y-64752593D01*
X154562916Y-64757201D01*
X151152135Y-64757201D01*
X151105350Y-64752593D01*
X151058565Y-64757201D01*
X137820508Y-64757201D01*
X137904853Y-64553574D01*
X137960000Y-64276335D01*
X137960000Y-63993665D01*
X137904853Y-63716426D01*
X137796680Y-63455273D01*
X137639637Y-63220241D01*
X137439759Y-63020363D01*
X137204727Y-62863320D01*
X136976258Y-62768685D01*
X139357100Y-62768685D01*
X139357100Y-62961315D01*
X139394680Y-63150243D01*
X139468396Y-63328210D01*
X139575415Y-63488375D01*
X139711625Y-63624585D01*
X139871790Y-63731604D01*
X140049757Y-63805320D01*
X140238685Y-63842900D01*
X140431315Y-63842900D01*
X140620243Y-63805320D01*
X140798210Y-63731604D01*
X140958375Y-63624585D01*
X140981475Y-63601485D01*
X141072475Y-63662289D01*
X141250442Y-63736005D01*
X141439370Y-63773585D01*
X141632000Y-63773585D01*
X141820928Y-63736005D01*
X141998895Y-63662289D01*
X142159060Y-63555270D01*
X142170685Y-63543645D01*
X142251625Y-63624585D01*
X142411790Y-63731604D01*
X142589757Y-63805320D01*
X142778685Y-63842900D01*
X142971315Y-63842900D01*
X143160243Y-63805320D01*
X143338210Y-63731604D01*
X143498375Y-63624585D01*
X143634585Y-63488375D01*
X143741604Y-63328210D01*
X143815320Y-63150243D01*
X143852900Y-62961315D01*
X143852900Y-62768685D01*
X143815320Y-62579757D01*
X143741604Y-62401790D01*
X143634585Y-62241625D01*
X143498375Y-62105415D01*
X143338210Y-61998396D01*
X143160243Y-61924680D01*
X142971315Y-61887100D01*
X142778685Y-61887100D01*
X142589757Y-61924680D01*
X142411790Y-61998396D01*
X142251625Y-62105415D01*
X142240000Y-62117040D01*
X142159060Y-62036100D01*
X141998895Y-61929081D01*
X141820928Y-61855365D01*
X141632000Y-61817785D01*
X141439370Y-61817785D01*
X141250442Y-61855365D01*
X141072475Y-61929081D01*
X140912310Y-62036100D01*
X140889210Y-62059200D01*
X140798210Y-61998396D01*
X140620243Y-61924680D01*
X140431315Y-61887100D01*
X140238685Y-61887100D01*
X140049757Y-61924680D01*
X139871790Y-61998396D01*
X139711625Y-62105415D01*
X139575415Y-62241625D01*
X139468396Y-62401790D01*
X139394680Y-62579757D01*
X139357100Y-62768685D01*
X136976258Y-62768685D01*
X136943574Y-62755147D01*
X136666335Y-62700000D01*
X136383665Y-62700000D01*
X136106426Y-62755147D01*
X135845273Y-62863320D01*
X135610241Y-63020363D01*
X135410363Y-63220241D01*
X135255000Y-63452759D01*
X135099637Y-63220241D01*
X134899759Y-63020363D01*
X134664727Y-62863320D01*
X134403574Y-62755147D01*
X134126335Y-62700000D01*
X133843665Y-62700000D01*
X133566426Y-62755147D01*
X133305273Y-62863320D01*
X133070241Y-63020363D01*
X132870363Y-63220241D01*
X132715000Y-63452759D01*
X132559637Y-63220241D01*
X132359759Y-63020363D01*
X132124727Y-62863320D01*
X131863574Y-62755147D01*
X131586335Y-62700000D01*
X131303665Y-62700000D01*
X131026426Y-62755147D01*
X130765273Y-62863320D01*
X130530241Y-63020363D01*
X130330363Y-63220241D01*
X130175000Y-63452759D01*
X130019637Y-63220241D01*
X129819759Y-63020363D01*
X129584727Y-62863320D01*
X129323574Y-62755147D01*
X129046335Y-62700000D01*
X128763665Y-62700000D01*
X128486426Y-62755147D01*
X128225273Y-62863320D01*
X127990241Y-63020363D01*
X127790363Y-63220241D01*
X127635000Y-63452759D01*
X127479637Y-63220241D01*
X127279759Y-63020363D01*
X127044727Y-62863320D01*
X126783574Y-62755147D01*
X126506335Y-62700000D01*
X126223665Y-62700000D01*
X125946426Y-62755147D01*
X125685273Y-62863320D01*
X125450241Y-63020363D01*
X125250363Y-63220241D01*
X125095000Y-63452759D01*
X124939637Y-63220241D01*
X124739759Y-63020363D01*
X124504727Y-62863320D01*
X124243574Y-62755147D01*
X123966335Y-62700000D01*
X123683665Y-62700000D01*
X123406426Y-62755147D01*
X123145273Y-62863320D01*
X122910241Y-63020363D01*
X122710363Y-63220241D01*
X122555000Y-63452759D01*
X122399637Y-63220241D01*
X122199759Y-63020363D01*
X121964727Y-62863320D01*
X121703574Y-62755147D01*
X121426335Y-62700000D01*
X121143665Y-62700000D01*
X120866426Y-62755147D01*
X120605273Y-62863320D01*
X120370241Y-63020363D01*
X120208104Y-63182500D01*
X116334958Y-63182500D01*
X116314853Y-63081426D01*
X116206680Y-62820273D01*
X116049637Y-62585241D01*
X115849759Y-62385363D01*
X115614727Y-62228320D01*
X115353574Y-62120147D01*
X115076335Y-62065000D01*
X114793665Y-62065000D01*
X114516426Y-62120147D01*
X114255273Y-62228320D01*
X114020241Y-62385363D01*
X113858104Y-62547500D01*
X111806784Y-62547500D01*
X111759999Y-62542892D01*
X111573277Y-62561283D01*
X111393731Y-62615748D01*
X111228259Y-62704194D01*
X111083222Y-62823222D01*
X111053393Y-62859569D01*
X110498284Y-63414678D01*
X110459314Y-63356356D01*
X110323104Y-63220146D01*
X110162939Y-63113127D01*
X109984972Y-63039411D01*
X109796044Y-63001831D01*
X109603414Y-63001831D01*
X109414486Y-63039411D01*
X109236519Y-63113127D01*
X109076354Y-63220146D01*
X108940144Y-63356356D01*
X108833125Y-63516521D01*
X108759409Y-63694488D01*
X108721829Y-63883416D01*
X108721829Y-64076046D01*
X108759409Y-64264974D01*
X108833125Y-64442941D01*
X108940144Y-64603106D01*
X109076354Y-64739316D01*
X109134676Y-64778286D01*
X97149569Y-76763393D01*
X97113222Y-76793222D01*
X96994194Y-76938259D01*
X96905748Y-77103732D01*
X96878759Y-77192702D01*
X96851283Y-77283278D01*
X96832892Y-77470000D01*
X96837500Y-77516785D01*
X96837501Y-82884524D01*
X96753038Y-82968987D01*
X96606939Y-83187641D01*
X96506304Y-83430595D01*
X96455000Y-83688514D01*
X96455000Y-83951486D01*
X96506304Y-84209405D01*
X96606939Y-84452359D01*
X96753038Y-84671013D01*
X96938987Y-84856962D01*
X97157641Y-85003061D01*
X97400595Y-85103696D01*
X97658514Y-85155000D01*
X97921486Y-85155000D01*
X98179405Y-85103696D01*
X98422359Y-85003061D01*
X98641013Y-84856962D01*
X98826962Y-84671013D01*
X98973061Y-84452359D01*
X99073696Y-84209405D01*
X99125000Y-83951486D01*
X99125000Y-83688514D01*
X99630000Y-83688514D01*
X99630000Y-83951486D01*
X99681304Y-84209405D01*
X99781939Y-84452359D01*
X99928038Y-84671013D01*
X100113987Y-84856962D01*
X100332641Y-85003061D01*
X100575595Y-85103696D01*
X100833514Y-85155000D01*
X101096486Y-85155000D01*
X101354405Y-85103696D01*
X101597359Y-85003061D01*
X101816013Y-84856962D01*
X102001962Y-84671013D01*
X102148061Y-84452359D01*
X102248696Y-84209405D01*
X102293333Y-83985000D01*
X115401928Y-83985000D01*
X115414188Y-84109482D01*
X115450498Y-84229180D01*
X115509463Y-84339494D01*
X115588815Y-84436185D01*
X115685506Y-84515537D01*
X115795820Y-84574502D01*
X115915518Y-84610812D01*
X115923961Y-84611643D01*
X115725363Y-84810241D01*
X115568320Y-85045273D01*
X115460147Y-85306426D01*
X115405000Y-85583665D01*
X115405000Y-85866335D01*
X115460147Y-86143574D01*
X115568320Y-86404727D01*
X115725363Y-86639759D01*
X115925241Y-86839637D01*
X116157759Y-86995000D01*
X115925241Y-87150363D01*
X115725363Y-87350241D01*
X115568320Y-87585273D01*
X115460147Y-87846426D01*
X115405000Y-88123665D01*
X115405000Y-88406335D01*
X115460147Y-88683574D01*
X115568320Y-88944727D01*
X115725363Y-89179759D01*
X115925241Y-89379637D01*
X116157759Y-89535000D01*
X115925241Y-89690363D01*
X115725363Y-89890241D01*
X115568320Y-90125273D01*
X115460147Y-90386426D01*
X115405000Y-90663665D01*
X115405000Y-90946335D01*
X115460147Y-91223574D01*
X115568320Y-91484727D01*
X115725363Y-91719759D01*
X115925241Y-91919637D01*
X116157759Y-92075000D01*
X115925241Y-92230363D01*
X115725363Y-92430241D01*
X115568320Y-92665273D01*
X115460147Y-92926426D01*
X115405000Y-93203665D01*
X115405000Y-93486335D01*
X115460147Y-93763574D01*
X115568320Y-94024727D01*
X115725363Y-94259759D01*
X115925241Y-94459637D01*
X116157759Y-94615000D01*
X115925241Y-94770363D01*
X115725363Y-94970241D01*
X115568320Y-95205273D01*
X115460147Y-95466426D01*
X115405000Y-95743665D01*
X115405000Y-96026335D01*
X115460147Y-96303574D01*
X115568320Y-96564727D01*
X115725363Y-96799759D01*
X115925241Y-96999637D01*
X116160273Y-97156680D01*
X116170865Y-97161067D01*
X115984869Y-97272615D01*
X115776481Y-97461586D01*
X115608963Y-97687580D01*
X115488754Y-97941913D01*
X115448096Y-98075961D01*
X115570085Y-98298000D01*
X116713000Y-98298000D01*
X116713000Y-98278000D01*
X116967000Y-98278000D01*
X116967000Y-98298000D01*
X118109915Y-98298000D01*
X118231904Y-98075961D01*
X118191246Y-97941913D01*
X118071037Y-97687580D01*
X117903519Y-97461586D01*
X117695131Y-97272615D01*
X117509135Y-97161067D01*
X117519727Y-97156680D01*
X117754759Y-96999637D01*
X117954637Y-96799759D01*
X118111680Y-96564727D01*
X118219853Y-96303574D01*
X118275000Y-96026335D01*
X118275000Y-95743665D01*
X118219853Y-95466426D01*
X118111680Y-95205273D01*
X117954637Y-94970241D01*
X117754759Y-94770363D01*
X117522241Y-94615000D01*
X117754759Y-94459637D01*
X117954637Y-94259759D01*
X118111680Y-94024727D01*
X118219853Y-93763574D01*
X118275000Y-93486335D01*
X118275000Y-93203665D01*
X118219853Y-92926426D01*
X118111680Y-92665273D01*
X117954637Y-92430241D01*
X117754759Y-92230363D01*
X117522241Y-92075000D01*
X117754759Y-91919637D01*
X117954637Y-91719759D01*
X118111680Y-91484727D01*
X118219853Y-91223574D01*
X118275000Y-90946335D01*
X118275000Y-90663665D01*
X118219853Y-90386426D01*
X118111680Y-90125273D01*
X117954637Y-89890241D01*
X117754759Y-89690363D01*
X117522241Y-89535000D01*
X117754759Y-89379637D01*
X117954637Y-89179759D01*
X118111680Y-88944727D01*
X118219853Y-88683574D01*
X118275000Y-88406335D01*
X118275000Y-88123665D01*
X118219853Y-87846426D01*
X118111680Y-87585273D01*
X117954637Y-87350241D01*
X117754759Y-87150363D01*
X117522241Y-86995000D01*
X117754759Y-86839637D01*
X117954637Y-86639759D01*
X118111680Y-86404727D01*
X118219853Y-86143574D01*
X118275000Y-85866335D01*
X118275000Y-85583665D01*
X118219853Y-85306426D01*
X118111680Y-85045273D01*
X117954637Y-84810241D01*
X117756039Y-84611643D01*
X117764482Y-84610812D01*
X117884180Y-84574502D01*
X117994494Y-84515537D01*
X118091185Y-84436185D01*
X118170537Y-84339494D01*
X118229502Y-84229180D01*
X118265812Y-84109482D01*
X118278072Y-83985000D01*
X118275000Y-83470750D01*
X118116250Y-83312000D01*
X116967000Y-83312000D01*
X116967000Y-83332000D01*
X116713000Y-83332000D01*
X116713000Y-83312000D01*
X115563750Y-83312000D01*
X115405000Y-83470750D01*
X115401928Y-83985000D01*
X102293333Y-83985000D01*
X102300000Y-83951486D01*
X102300000Y-83688514D01*
X102248696Y-83430595D01*
X102148061Y-83187641D01*
X102001962Y-82968987D01*
X101816013Y-82783038D01*
X101597359Y-82636939D01*
X101354405Y-82536304D01*
X101096486Y-82485000D01*
X100833514Y-82485000D01*
X100575595Y-82536304D01*
X100332641Y-82636939D01*
X100113987Y-82783038D01*
X99928038Y-82968987D01*
X99781939Y-83187641D01*
X99681304Y-83430595D01*
X99630000Y-83688514D01*
X99125000Y-83688514D01*
X99073696Y-83430595D01*
X98973061Y-83187641D01*
X98826962Y-82968987D01*
X98742500Y-82884525D01*
X98742500Y-81777408D01*
X106553000Y-81777408D01*
X106553000Y-82052592D01*
X106606686Y-82322490D01*
X106711995Y-82576727D01*
X106864880Y-82805535D01*
X107059465Y-83000120D01*
X107288273Y-83153005D01*
X107542510Y-83258314D01*
X107812408Y-83312000D01*
X108087592Y-83312000D01*
X108357490Y-83258314D01*
X108611727Y-83153005D01*
X108840535Y-83000120D01*
X109035120Y-82805535D01*
X109188005Y-82576727D01*
X109267421Y-82385000D01*
X115401928Y-82385000D01*
X115405000Y-82899250D01*
X115563750Y-83058000D01*
X116713000Y-83058000D01*
X116713000Y-81908750D01*
X116967000Y-81908750D01*
X116967000Y-83058000D01*
X118116250Y-83058000D01*
X118275000Y-82899250D01*
X118278072Y-82385000D01*
X118265812Y-82260518D01*
X118229502Y-82140820D01*
X118170537Y-82030506D01*
X118091185Y-81933815D01*
X117994494Y-81854463D01*
X117884180Y-81795498D01*
X117764482Y-81759188D01*
X117640000Y-81746928D01*
X117125750Y-81750000D01*
X116967000Y-81908750D01*
X116713000Y-81908750D01*
X116554250Y-81750000D01*
X116040000Y-81746928D01*
X115915518Y-81759188D01*
X115795820Y-81795498D01*
X115685506Y-81854463D01*
X115588815Y-81933815D01*
X115509463Y-82030506D01*
X115450498Y-82140820D01*
X115414188Y-82260518D01*
X115401928Y-82385000D01*
X109267421Y-82385000D01*
X109293314Y-82322490D01*
X109347000Y-82052592D01*
X109347000Y-81777408D01*
X109293314Y-81507510D01*
X109188005Y-81253273D01*
X109035120Y-81024465D01*
X109013357Y-81002702D01*
X118566903Y-81002702D01*
X118638486Y-81246671D01*
X118893996Y-81367571D01*
X119168184Y-81436300D01*
X119450512Y-81450217D01*
X119730130Y-81408787D01*
X119996292Y-81313603D01*
X120121514Y-81246671D01*
X120193097Y-81002702D01*
X123646903Y-81002702D01*
X123718486Y-81246671D01*
X123973996Y-81367571D01*
X124248184Y-81436300D01*
X124530512Y-81450217D01*
X124810130Y-81408787D01*
X125076292Y-81313603D01*
X125201514Y-81246671D01*
X125273097Y-81002702D01*
X125193097Y-80922702D01*
X128726903Y-80922702D01*
X128798486Y-81166671D01*
X129053996Y-81287571D01*
X129328184Y-81356300D01*
X129610512Y-81370217D01*
X129890130Y-81328787D01*
X130156292Y-81233603D01*
X130281514Y-81166671D01*
X130353097Y-80922702D01*
X129540000Y-80109605D01*
X128726903Y-80922702D01*
X125193097Y-80922702D01*
X124460000Y-80189605D01*
X123646903Y-81002702D01*
X120193097Y-81002702D01*
X119380000Y-80189605D01*
X118566903Y-81002702D01*
X109013357Y-81002702D01*
X108840535Y-80829880D01*
X108611727Y-80676995D01*
X108357490Y-80571686D01*
X108087592Y-80518000D01*
X107812408Y-80518000D01*
X107542510Y-80571686D01*
X107288273Y-80676995D01*
X107059465Y-80829880D01*
X106864880Y-81024465D01*
X106711995Y-81253273D01*
X106606686Y-81507510D01*
X106553000Y-81777408D01*
X98742500Y-81777408D01*
X98742500Y-80080512D01*
X117939783Y-80080512D01*
X117981213Y-80360130D01*
X118076397Y-80626292D01*
X118143329Y-80751514D01*
X118387298Y-80823097D01*
X119200395Y-80010000D01*
X119559605Y-80010000D01*
X120372702Y-80823097D01*
X120616671Y-80751514D01*
X120737571Y-80496004D01*
X120806300Y-80221816D01*
X120813265Y-80080512D01*
X123019783Y-80080512D01*
X123061213Y-80360130D01*
X123156397Y-80626292D01*
X123223329Y-80751514D01*
X123467298Y-80823097D01*
X124280395Y-80010000D01*
X124639605Y-80010000D01*
X125452702Y-80823097D01*
X125696671Y-80751514D01*
X125817571Y-80496004D01*
X125886300Y-80221816D01*
X125897208Y-80000512D01*
X128099783Y-80000512D01*
X128141213Y-80280130D01*
X128236397Y-80546292D01*
X128303329Y-80671514D01*
X128547298Y-80743097D01*
X129360395Y-79930000D01*
X128547298Y-79116903D01*
X128303329Y-79188486D01*
X128182429Y-79443996D01*
X128113700Y-79718184D01*
X128099783Y-80000512D01*
X125897208Y-80000512D01*
X125900217Y-79939488D01*
X125858787Y-79659870D01*
X125763603Y-79393708D01*
X125696671Y-79268486D01*
X125452702Y-79196903D01*
X124639605Y-80010000D01*
X124280395Y-80010000D01*
X123467298Y-79196903D01*
X123223329Y-79268486D01*
X123102429Y-79523996D01*
X123033700Y-79798184D01*
X123019783Y-80080512D01*
X120813265Y-80080512D01*
X120820217Y-79939488D01*
X120778787Y-79659870D01*
X120683603Y-79393708D01*
X120616671Y-79268486D01*
X120372702Y-79196903D01*
X119559605Y-80010000D01*
X119200395Y-80010000D01*
X118387298Y-79196903D01*
X118143329Y-79268486D01*
X118022429Y-79523996D01*
X117953700Y-79798184D01*
X117939783Y-80080512D01*
X98742500Y-80080512D01*
X98742500Y-79017298D01*
X118566903Y-79017298D01*
X119380000Y-79830395D01*
X120193097Y-79017298D01*
X123646903Y-79017298D01*
X124460000Y-79830395D01*
X125273097Y-79017298D01*
X125201514Y-78773329D01*
X124946004Y-78652429D01*
X124671816Y-78583700D01*
X124389488Y-78569783D01*
X124109870Y-78611213D01*
X123843708Y-78706397D01*
X123718486Y-78773329D01*
X123646903Y-79017298D01*
X120193097Y-79017298D01*
X120121514Y-78773329D01*
X119866004Y-78652429D01*
X119591816Y-78583700D01*
X119309488Y-78569783D01*
X119029870Y-78611213D01*
X118763708Y-78706397D01*
X118638486Y-78773329D01*
X118566903Y-79017298D01*
X98742500Y-79017298D01*
X98742500Y-77864538D01*
X99909630Y-76697408D01*
X106553000Y-76697408D01*
X106553000Y-76972592D01*
X106606686Y-77242490D01*
X106711995Y-77496727D01*
X106864880Y-77725535D01*
X107059465Y-77920120D01*
X107288273Y-78073005D01*
X107542510Y-78178314D01*
X107812408Y-78232000D01*
X108087592Y-78232000D01*
X108357490Y-78178314D01*
X108611727Y-78073005D01*
X108840535Y-77920120D01*
X109035120Y-77725535D01*
X109188005Y-77496727D01*
X109293314Y-77242490D01*
X109303217Y-77192702D01*
X114121903Y-77192702D01*
X114193486Y-77436671D01*
X114448996Y-77557571D01*
X114723184Y-77626300D01*
X115005512Y-77640217D01*
X115285130Y-77598787D01*
X115551292Y-77503603D01*
X115676514Y-77436671D01*
X115748097Y-77192702D01*
X114935000Y-76379605D01*
X114121903Y-77192702D01*
X109303217Y-77192702D01*
X109347000Y-76972592D01*
X109347000Y-76697408D01*
X109293314Y-76427510D01*
X109228283Y-76270512D01*
X113494783Y-76270512D01*
X113536213Y-76550130D01*
X113631397Y-76816292D01*
X113698329Y-76941514D01*
X113942298Y-77013097D01*
X114755395Y-76200000D01*
X115114605Y-76200000D01*
X115927702Y-77013097D01*
X116171671Y-76941514D01*
X116292571Y-76686004D01*
X116361300Y-76411816D01*
X116375217Y-76129488D01*
X116333787Y-75849870D01*
X116238603Y-75583708D01*
X116171671Y-75458486D01*
X115927702Y-75386903D01*
X115114605Y-76200000D01*
X114755395Y-76200000D01*
X113942298Y-75386903D01*
X113698329Y-75458486D01*
X113577429Y-75713996D01*
X113508700Y-75988184D01*
X113494783Y-76270512D01*
X109228283Y-76270512D01*
X109188005Y-76173273D01*
X109035120Y-75944465D01*
X108840535Y-75749880D01*
X108611727Y-75596995D01*
X108357490Y-75491686D01*
X108087592Y-75438000D01*
X107812408Y-75438000D01*
X107542510Y-75491686D01*
X107288273Y-75596995D01*
X107059465Y-75749880D01*
X106864880Y-75944465D01*
X106711995Y-76173273D01*
X106606686Y-76427510D01*
X106553000Y-76697408D01*
X99909630Y-76697408D01*
X101399740Y-75207298D01*
X114121903Y-75207298D01*
X114935000Y-76020395D01*
X115748097Y-75207298D01*
X115676514Y-74963329D01*
X115476452Y-74868665D01*
X117945000Y-74868665D01*
X117945000Y-75151335D01*
X118000147Y-75428574D01*
X118108320Y-75689727D01*
X118265363Y-75924759D01*
X118465241Y-76124637D01*
X118700273Y-76281680D01*
X118961426Y-76389853D01*
X119238665Y-76445000D01*
X119521335Y-76445000D01*
X119798574Y-76389853D01*
X120059727Y-76281680D01*
X120294759Y-76124637D01*
X120494637Y-75924759D01*
X120651680Y-75689727D01*
X120759853Y-75428574D01*
X120815000Y-75151335D01*
X120815000Y-74868665D01*
X120759853Y-74591426D01*
X120651680Y-74330273D01*
X120494637Y-74095241D01*
X120294759Y-73895363D01*
X120059727Y-73738320D01*
X119798574Y-73630147D01*
X119521335Y-73575000D01*
X119238665Y-73575000D01*
X118961426Y-73630147D01*
X118700273Y-73738320D01*
X118465241Y-73895363D01*
X118265363Y-74095241D01*
X118108320Y-74330273D01*
X118000147Y-74591426D01*
X117945000Y-74868665D01*
X115476452Y-74868665D01*
X115421004Y-74842429D01*
X115146816Y-74773700D01*
X114864488Y-74759783D01*
X114584870Y-74801213D01*
X114318708Y-74896397D01*
X114193486Y-74963329D01*
X114121903Y-75207298D01*
X101399740Y-75207298D01*
X104989630Y-71617408D01*
X106553000Y-71617408D01*
X106553000Y-71892592D01*
X106606686Y-72162490D01*
X106711995Y-72416727D01*
X106864880Y-72645535D01*
X107059465Y-72840120D01*
X107288273Y-72993005D01*
X107542510Y-73098314D01*
X107812408Y-73152000D01*
X108087592Y-73152000D01*
X108357490Y-73098314D01*
X108611727Y-72993005D01*
X108840535Y-72840120D01*
X109035120Y-72645535D01*
X109188005Y-72416727D01*
X109293314Y-72162490D01*
X109347000Y-71892592D01*
X109347000Y-71617408D01*
X109293314Y-71347510D01*
X109188005Y-71093273D01*
X109164881Y-71058665D01*
X113500000Y-71058665D01*
X113500000Y-71341335D01*
X113555147Y-71618574D01*
X113663320Y-71879727D01*
X113820363Y-72114759D01*
X114020241Y-72314637D01*
X114255273Y-72471680D01*
X114516426Y-72579853D01*
X114793665Y-72635000D01*
X115076335Y-72635000D01*
X115353574Y-72579853D01*
X115614727Y-72471680D01*
X115849759Y-72314637D01*
X116049637Y-72114759D01*
X116206680Y-71879727D01*
X116314853Y-71618574D01*
X116370000Y-71341335D01*
X116370000Y-71058665D01*
X116314853Y-70781426D01*
X116206680Y-70520273D01*
X116049637Y-70285241D01*
X115849759Y-70085363D01*
X115614727Y-69928320D01*
X115423749Y-69849214D01*
X115551292Y-69803603D01*
X115676514Y-69736671D01*
X115748097Y-69492702D01*
X114935000Y-68679605D01*
X114121903Y-69492702D01*
X114193486Y-69736671D01*
X114438298Y-69852509D01*
X114255273Y-69928320D01*
X114020241Y-70085363D01*
X113820363Y-70285241D01*
X113663320Y-70520273D01*
X113555147Y-70781426D01*
X113500000Y-71058665D01*
X109164881Y-71058665D01*
X109035120Y-70864465D01*
X108840535Y-70669880D01*
X108611727Y-70516995D01*
X108357490Y-70411686D01*
X108087592Y-70358000D01*
X107812408Y-70358000D01*
X107542510Y-70411686D01*
X107288273Y-70516995D01*
X107059465Y-70669880D01*
X106864880Y-70864465D01*
X106711995Y-71093273D01*
X106606686Y-71347510D01*
X106553000Y-71617408D01*
X104989630Y-71617408D01*
X108036526Y-68570512D01*
X113494783Y-68570512D01*
X113536213Y-68850130D01*
X113631397Y-69116292D01*
X113698329Y-69241514D01*
X113942298Y-69313097D01*
X114755395Y-68500000D01*
X115114605Y-68500000D01*
X115927702Y-69313097D01*
X116171671Y-69241514D01*
X116292571Y-68986004D01*
X116361300Y-68711816D01*
X116375217Y-68429488D01*
X116334745Y-68156334D01*
X116397915Y-68250875D01*
X116534125Y-68387085D01*
X116694290Y-68494104D01*
X116872257Y-68567820D01*
X117061185Y-68605400D01*
X117253815Y-68605400D01*
X117442743Y-68567820D01*
X117620710Y-68494104D01*
X117780875Y-68387085D01*
X117917085Y-68250875D01*
X117973673Y-68166185D01*
X141579600Y-68166185D01*
X141579600Y-68358815D01*
X141617180Y-68547743D01*
X141690896Y-68725710D01*
X141797915Y-68885875D01*
X141934125Y-69022085D01*
X141985506Y-69056416D01*
X141863351Y-69178571D01*
X141756332Y-69338736D01*
X141682616Y-69516703D01*
X141645036Y-69705631D01*
X141645036Y-69898261D01*
X141682616Y-70087189D01*
X141756332Y-70265156D01*
X141863351Y-70425321D01*
X141999561Y-70561531D01*
X142159726Y-70668550D01*
X142337693Y-70742266D01*
X142526621Y-70779846D01*
X142719251Y-70779846D01*
X142908179Y-70742266D01*
X143086146Y-70668550D01*
X143246311Y-70561531D01*
X143382521Y-70425321D01*
X143489540Y-70265156D01*
X143563256Y-70087189D01*
X143600836Y-69898261D01*
X143600836Y-69705631D01*
X143563256Y-69516703D01*
X143489540Y-69338736D01*
X143382521Y-69178571D01*
X143246311Y-69042361D01*
X143194930Y-69008030D01*
X143317085Y-68885875D01*
X143424104Y-68725710D01*
X143497820Y-68547743D01*
X143535400Y-68358815D01*
X143535400Y-68166185D01*
X143497820Y-67977257D01*
X143424104Y-67799290D01*
X143317085Y-67639125D01*
X143180875Y-67502915D01*
X143020710Y-67395896D01*
X142842743Y-67322180D01*
X142653815Y-67284600D01*
X142461185Y-67284600D01*
X142272257Y-67322180D01*
X142094290Y-67395896D01*
X141934125Y-67502915D01*
X141797915Y-67639125D01*
X141690896Y-67799290D01*
X141617180Y-67977257D01*
X141579600Y-68166185D01*
X117973673Y-68166185D01*
X118024104Y-68090710D01*
X118097820Y-67912743D01*
X118135400Y-67723815D01*
X118135400Y-67531185D01*
X118097820Y-67342257D01*
X118024104Y-67164290D01*
X117917085Y-67004125D01*
X117780875Y-66867915D01*
X117620710Y-66760896D01*
X117442743Y-66687180D01*
X117253815Y-66649600D01*
X117061185Y-66649600D01*
X116872257Y-66687180D01*
X116694290Y-66760896D01*
X116534125Y-66867915D01*
X116397915Y-67004125D01*
X116290896Y-67164290D01*
X116217180Y-67342257D01*
X116179600Y-67531185D01*
X116179600Y-67723815D01*
X116195284Y-67802663D01*
X116171671Y-67758486D01*
X115927702Y-67686903D01*
X115114605Y-68500000D01*
X114755395Y-68500000D01*
X113942298Y-67686903D01*
X113698329Y-67758486D01*
X113577429Y-68013996D01*
X113508700Y-68288184D01*
X113494783Y-68570512D01*
X108036526Y-68570512D01*
X109099740Y-67507298D01*
X114121903Y-67507298D01*
X114935000Y-68320395D01*
X115748097Y-67507298D01*
X115676514Y-67263329D01*
X115421004Y-67142429D01*
X115146816Y-67073700D01*
X114864488Y-67059783D01*
X114584870Y-67101213D01*
X114318708Y-67196397D01*
X114193486Y-67263329D01*
X114121903Y-67507298D01*
X109099740Y-67507298D01*
X112154538Y-64452500D01*
X113858104Y-64452500D01*
X114020241Y-64614637D01*
X114188941Y-64727359D01*
X114258222Y-64811778D01*
X114403259Y-64930806D01*
X114568731Y-65019252D01*
X114748277Y-65073717D01*
X114935000Y-65092108D01*
X114981785Y-65087500D01*
X120208104Y-65087500D01*
X120370241Y-65249637D01*
X120605273Y-65406680D01*
X120866426Y-65514853D01*
X121143665Y-65570000D01*
X121372962Y-65570000D01*
X122153094Y-66350132D01*
X122182923Y-66386479D01*
X122327960Y-66505507D01*
X122493432Y-66593953D01*
X122672978Y-66648418D01*
X122812916Y-66662201D01*
X122859701Y-66666809D01*
X122906486Y-66662201D01*
X148805812Y-66662201D01*
X139059565Y-76408448D01*
X139023223Y-76438273D01*
X138993399Y-76474614D01*
X138904194Y-76583311D01*
X138815749Y-76748782D01*
X138761283Y-76928329D01*
X138742892Y-77115051D01*
X138747501Y-77161845D01*
X138747501Y-77169524D01*
X138663038Y-77253987D01*
X138516939Y-77472641D01*
X138416304Y-77715595D01*
X138365000Y-77973514D01*
X138365000Y-78236486D01*
X138416304Y-78494405D01*
X138516939Y-78737359D01*
X138663038Y-78956013D01*
X138848987Y-79141962D01*
X139067641Y-79288061D01*
X139310595Y-79388696D01*
X139568514Y-79440000D01*
X139831486Y-79440000D01*
X140089405Y-79388696D01*
X140332359Y-79288061D01*
X140551013Y-79141962D01*
X140736962Y-78956013D01*
X140883061Y-78737359D01*
X140983696Y-78494405D01*
X141035000Y-78236486D01*
X141035000Y-77973514D01*
X140983696Y-77715595D01*
X140883061Y-77472641D01*
X140805511Y-77356578D01*
X151499888Y-66662201D01*
X154215163Y-66662201D01*
X160145162Y-72592201D01*
X157287134Y-72592201D01*
X157240349Y-72587593D01*
X157053627Y-72605984D01*
X156874081Y-72660449D01*
X156708609Y-72748895D01*
X156563572Y-72867923D01*
X156533743Y-72904270D01*
X149854565Y-79583448D01*
X149818223Y-79613273D01*
X149788399Y-79649614D01*
X149699194Y-79758311D01*
X149610749Y-79923782D01*
X149556283Y-80103329D01*
X149537892Y-80290051D01*
X149542501Y-80336845D01*
X149542501Y-80344524D01*
X149458038Y-80428987D01*
X149311939Y-80647641D01*
X149211304Y-80890595D01*
X149160000Y-81148514D01*
X149160000Y-81411486D01*
X149211304Y-81669405D01*
X149311939Y-81912359D01*
X149458038Y-82131013D01*
X149643987Y-82316962D01*
X149862641Y-82463061D01*
X150105595Y-82563696D01*
X150363514Y-82615000D01*
X150626486Y-82615000D01*
X150884405Y-82563696D01*
X151127359Y-82463061D01*
X151346013Y-82316962D01*
X151531962Y-82131013D01*
X151678061Y-81912359D01*
X151778696Y-81669405D01*
X151830000Y-81411486D01*
X151830000Y-81148514D01*
X156780000Y-81148514D01*
X156780000Y-81411486D01*
X156831304Y-81669405D01*
X156931939Y-81912359D01*
X157078038Y-82131013D01*
X157263987Y-82316962D01*
X157482641Y-82463061D01*
X157725595Y-82563696D01*
X157983514Y-82615000D01*
X158246486Y-82615000D01*
X158504405Y-82563696D01*
X158747359Y-82463061D01*
X158966013Y-82316962D01*
X159151962Y-82131013D01*
X159298061Y-81912359D01*
X159398696Y-81669405D01*
X159450000Y-81411486D01*
X159450000Y-81148514D01*
X159398696Y-80890595D01*
X159298061Y-80647641D01*
X159151962Y-80428987D01*
X158966013Y-80243038D01*
X158747359Y-80096939D01*
X158504405Y-79996304D01*
X158246486Y-79945000D01*
X157983514Y-79945000D01*
X157725595Y-79996304D01*
X157482641Y-80096939D01*
X157263987Y-80243038D01*
X157078038Y-80428987D01*
X156931939Y-80647641D01*
X156831304Y-80890595D01*
X156780000Y-81148514D01*
X151830000Y-81148514D01*
X151778696Y-80890595D01*
X151678061Y-80647641D01*
X151600511Y-80531578D01*
X157634888Y-74497201D01*
X161492202Y-74497201D01*
X161492201Y-91446777D01*
X161240429Y-91324296D01*
X160928892Y-91242616D01*
X160607405Y-91223282D01*
X160288325Y-91267039D01*
X159983912Y-91372205D01*
X159809956Y-91465186D01*
X159714192Y-91729587D01*
X160670000Y-92685395D01*
X160684143Y-92671253D01*
X160863748Y-92850858D01*
X160849605Y-92865000D01*
X160863748Y-92879143D01*
X160684143Y-93058748D01*
X160670000Y-93044605D01*
X159714192Y-94000413D01*
X159809956Y-94264814D01*
X160099571Y-94405704D01*
X160411108Y-94487384D01*
X160732595Y-94506718D01*
X161051675Y-94462961D01*
X161356088Y-94357795D01*
X161492201Y-94285041D01*
X161492201Y-96447980D01*
X161444463Y-96416082D01*
X161146912Y-96292832D01*
X160831033Y-96230000D01*
X160508967Y-96230000D01*
X160193088Y-96292832D01*
X159895537Y-96416082D01*
X159627748Y-96595013D01*
X159400013Y-96822748D01*
X159221082Y-97090537D01*
X159097832Y-97388088D01*
X159035000Y-97703967D01*
X159035000Y-98026033D01*
X159097832Y-98341912D01*
X159221082Y-98639463D01*
X159400013Y-98907252D01*
X159627748Y-99134987D01*
X159895537Y-99313918D01*
X160193088Y-99437168D01*
X160508967Y-99500000D01*
X160831033Y-99500000D01*
X161146912Y-99437168D01*
X161444463Y-99313918D01*
X161492201Y-99282020D01*
X161492201Y-105269800D01*
X159795699Y-106966303D01*
X159664759Y-106835363D01*
X159429727Y-106678320D01*
X159168574Y-106570147D01*
X158891335Y-106515000D01*
X158608665Y-106515000D01*
X158331426Y-106570147D01*
X158070273Y-106678320D01*
X157835241Y-106835363D01*
X157635363Y-107035241D01*
X157480000Y-107267759D01*
X157324637Y-107035241D01*
X157124759Y-106835363D01*
X156889727Y-106678320D01*
X156628574Y-106570147D01*
X156351335Y-106515000D01*
X156068665Y-106515000D01*
X155791426Y-106570147D01*
X155530273Y-106678320D01*
X155295241Y-106835363D01*
X155095363Y-107035241D01*
X154940000Y-107267759D01*
X154784637Y-107035241D01*
X154584759Y-106835363D01*
X154349727Y-106678320D01*
X154088574Y-106570147D01*
X153811335Y-106515000D01*
X153528665Y-106515000D01*
X153251426Y-106570147D01*
X152990273Y-106678320D01*
X152755241Y-106835363D01*
X152555363Y-107035241D01*
X152400000Y-107267759D01*
X152244637Y-107035241D01*
X152044759Y-106835363D01*
X151809727Y-106678320D01*
X151548574Y-106570147D01*
X151271335Y-106515000D01*
X150988665Y-106515000D01*
X150711426Y-106570147D01*
X150450273Y-106678320D01*
X150215241Y-106835363D01*
X150015363Y-107035241D01*
X149860000Y-107267759D01*
X149704637Y-107035241D01*
X149504759Y-106835363D01*
X149269727Y-106678320D01*
X149008574Y-106570147D01*
X148731335Y-106515000D01*
X148448665Y-106515000D01*
X148171426Y-106570147D01*
X147910273Y-106678320D01*
X147675241Y-106835363D01*
X147475363Y-107035241D01*
X147320000Y-107267759D01*
X147164637Y-107035241D01*
X146964759Y-106835363D01*
X146729727Y-106678320D01*
X146468574Y-106570147D01*
X146191335Y-106515000D01*
X145908665Y-106515000D01*
X145631426Y-106570147D01*
X145370273Y-106678320D01*
X145135241Y-106835363D01*
X144935363Y-107035241D01*
X144778320Y-107270273D01*
X144670147Y-107531426D01*
X144615000Y-107808665D01*
X144615000Y-108091335D01*
X144670147Y-108368574D01*
X144778320Y-108629727D01*
X144850525Y-108737790D01*
X144462500Y-108737790D01*
X144462500Y-100731733D01*
X144467108Y-100684948D01*
X144448717Y-100498226D01*
X144430220Y-100437250D01*
X144394252Y-100318680D01*
X144305806Y-100153208D01*
X144186778Y-100008171D01*
X144150436Y-99978346D01*
X144137090Y-99965000D01*
X151431928Y-99965000D01*
X151431928Y-101965000D01*
X151444188Y-102089482D01*
X151480498Y-102209180D01*
X151539463Y-102319494D01*
X151618815Y-102416185D01*
X151715506Y-102495537D01*
X151825820Y-102554502D01*
X151945518Y-102590812D01*
X152070000Y-102603072D01*
X155270000Y-102603072D01*
X155394482Y-102590812D01*
X155514180Y-102554502D01*
X155624494Y-102495537D01*
X155721185Y-102416185D01*
X155800537Y-102319494D01*
X155859502Y-102209180D01*
X155895812Y-102089482D01*
X155908072Y-101965000D01*
X155908072Y-99965000D01*
X155895812Y-99840518D01*
X155859502Y-99720820D01*
X155800537Y-99610506D01*
X155721185Y-99513815D01*
X155624494Y-99434463D01*
X155514180Y-99375498D01*
X155394482Y-99339188D01*
X155270000Y-99326928D01*
X152070000Y-99326928D01*
X151945518Y-99339188D01*
X151825820Y-99375498D01*
X151715506Y-99434463D01*
X151618815Y-99513815D01*
X151539463Y-99610506D01*
X151480498Y-99720820D01*
X151444188Y-99840518D01*
X151431928Y-99965000D01*
X144137090Y-99965000D01*
X141876056Y-97703967D01*
X144535000Y-97703967D01*
X144535000Y-98026033D01*
X144597832Y-98341912D01*
X144721082Y-98639463D01*
X144900013Y-98907252D01*
X145127748Y-99134987D01*
X145395537Y-99313918D01*
X145693088Y-99437168D01*
X146008967Y-99500000D01*
X146331033Y-99500000D01*
X146646912Y-99437168D01*
X146944463Y-99313918D01*
X147212252Y-99134987D01*
X147439987Y-98907252D01*
X147618918Y-98639463D01*
X147742168Y-98341912D01*
X147805000Y-98026033D01*
X147805000Y-97703967D01*
X147742168Y-97388088D01*
X147618918Y-97090537D01*
X147439987Y-96822748D01*
X147212252Y-96595013D01*
X147115065Y-96530075D01*
X147125808Y-96500413D01*
X146170000Y-95544605D01*
X145214192Y-96500413D01*
X145224935Y-96530075D01*
X145127748Y-96595013D01*
X144900013Y-96822748D01*
X144721082Y-97090537D01*
X144597832Y-97388088D01*
X144535000Y-97703967D01*
X141876056Y-97703967D01*
X141181632Y-97009544D01*
X141151803Y-96973197D01*
X141115456Y-96943368D01*
X140805510Y-96633422D01*
X140883061Y-96517359D01*
X140983696Y-96274405D01*
X141035000Y-96016486D01*
X141035000Y-95753514D01*
X140983696Y-95495595D01*
X140883061Y-95252641D01*
X140736962Y-95033987D01*
X140551013Y-94848038D01*
X140332359Y-94701939D01*
X140089405Y-94601304D01*
X139831486Y-94550000D01*
X139568514Y-94550000D01*
X139310595Y-94601304D01*
X139067641Y-94701939D01*
X138848987Y-94848038D01*
X138663038Y-95033987D01*
X138516939Y-95252641D01*
X138416304Y-95495595D01*
X138365000Y-95753514D01*
X138365000Y-96016486D01*
X138416304Y-96274405D01*
X138516939Y-96517359D01*
X138637288Y-96697475D01*
X136952712Y-96697475D01*
X137073061Y-96517359D01*
X137173696Y-96274405D01*
X137225000Y-96016486D01*
X137225000Y-95753514D01*
X137173696Y-95495595D01*
X137073061Y-95252641D01*
X136926962Y-95033987D01*
X136741013Y-94848038D01*
X136522359Y-94701939D01*
X136279405Y-94601304D01*
X136021486Y-94550000D01*
X135758514Y-94550000D01*
X135728420Y-94555986D01*
X135668619Y-94496185D01*
X141919600Y-94496185D01*
X141919600Y-94688815D01*
X141957180Y-94877743D01*
X142030896Y-95055710D01*
X142137915Y-95215875D01*
X142274125Y-95352085D01*
X142434290Y-95459104D01*
X142612257Y-95532820D01*
X142801185Y-95570400D01*
X142993815Y-95570400D01*
X143182743Y-95532820D01*
X143360710Y-95459104D01*
X143407866Y-95427595D01*
X144528282Y-95427595D01*
X144572039Y-95746675D01*
X144677205Y-96051088D01*
X144770186Y-96225044D01*
X145034587Y-96320808D01*
X145990395Y-95365000D01*
X145976253Y-95350858D01*
X146155858Y-95171253D01*
X146170000Y-95185395D01*
X146184143Y-95171253D01*
X146363748Y-95350858D01*
X146349605Y-95365000D01*
X147305413Y-96320808D01*
X147569814Y-96225044D01*
X147710704Y-95935429D01*
X147792384Y-95623892D01*
X147811718Y-95302405D01*
X147767961Y-94983325D01*
X147662795Y-94678912D01*
X147569814Y-94504956D01*
X147420777Y-94450976D01*
X147524494Y-94395537D01*
X147621185Y-94316185D01*
X147700537Y-94219494D01*
X147759502Y-94109180D01*
X147795812Y-93989482D01*
X147808072Y-93865000D01*
X147808072Y-92927595D01*
X159028282Y-92927595D01*
X159072039Y-93246675D01*
X159177205Y-93551088D01*
X159270186Y-93725044D01*
X159534587Y-93820808D01*
X160490395Y-92865000D01*
X159534587Y-91909192D01*
X159270186Y-92004956D01*
X159129296Y-92294571D01*
X159047616Y-92606108D01*
X159028282Y-92927595D01*
X147808072Y-92927595D01*
X147808072Y-91865000D01*
X147795812Y-91740518D01*
X147759502Y-91620820D01*
X147700537Y-91510506D01*
X147621185Y-91413815D01*
X147524494Y-91334463D01*
X147414180Y-91275498D01*
X147294482Y-91239188D01*
X147170000Y-91226928D01*
X145170000Y-91226928D01*
X145045518Y-91239188D01*
X144925820Y-91275498D01*
X144815506Y-91334463D01*
X144718815Y-91413815D01*
X144639463Y-91510506D01*
X144580498Y-91620820D01*
X144544188Y-91740518D01*
X144531928Y-91865000D01*
X144531928Y-93865000D01*
X144544188Y-93989482D01*
X144580498Y-94109180D01*
X144639463Y-94219494D01*
X144718815Y-94316185D01*
X144815506Y-94395537D01*
X144919223Y-94450976D01*
X144770186Y-94504956D01*
X144629296Y-94794571D01*
X144547616Y-95106108D01*
X144528282Y-95427595D01*
X143407866Y-95427595D01*
X143520875Y-95352085D01*
X143657085Y-95215875D01*
X143764104Y-95055710D01*
X143837820Y-94877743D01*
X143875400Y-94688815D01*
X143875400Y-94496185D01*
X143837820Y-94307257D01*
X143764104Y-94129290D01*
X143657085Y-93969125D01*
X143520875Y-93832915D01*
X143360710Y-93725896D01*
X143182743Y-93652180D01*
X142993815Y-93614600D01*
X142801185Y-93614600D01*
X142612257Y-93652180D01*
X142434290Y-93725896D01*
X142274125Y-93832915D01*
X142137915Y-93969125D01*
X142030896Y-94129290D01*
X141957180Y-94307257D01*
X141919600Y-94496185D01*
X135668619Y-94496185D01*
X132905500Y-91733068D01*
X132905500Y-81883575D01*
X135474173Y-84452248D01*
X135257641Y-84541939D01*
X135038987Y-84688038D01*
X134853038Y-84873987D01*
X134706939Y-85092641D01*
X134606304Y-85335595D01*
X134555000Y-85593514D01*
X134555000Y-85856486D01*
X134606304Y-86114405D01*
X134706939Y-86357359D01*
X134853038Y-86576013D01*
X135038987Y-86761962D01*
X135257641Y-86908061D01*
X135467530Y-86995000D01*
X135257641Y-87081939D01*
X135038987Y-87228038D01*
X134853038Y-87413987D01*
X134706939Y-87632641D01*
X134606304Y-87875595D01*
X134555000Y-88133514D01*
X134555000Y-88396486D01*
X134606304Y-88654405D01*
X134706939Y-88897359D01*
X134853038Y-89116013D01*
X135038987Y-89301962D01*
X135257641Y-89448061D01*
X135500595Y-89548696D01*
X135758514Y-89600000D01*
X136021486Y-89600000D01*
X136279405Y-89548696D01*
X136522359Y-89448061D01*
X136741013Y-89301962D01*
X136926962Y-89116013D01*
X137073061Y-88897359D01*
X137173696Y-88654405D01*
X137225000Y-88396486D01*
X137225000Y-88133514D01*
X137173696Y-87875595D01*
X137073061Y-87632641D01*
X136926962Y-87413987D01*
X136741013Y-87228038D01*
X136522359Y-87081939D01*
X136312470Y-86995000D01*
X136522359Y-86908061D01*
X136741013Y-86761962D01*
X136926962Y-86576013D01*
X137073061Y-86357359D01*
X137162752Y-86140827D01*
X138571964Y-87550040D01*
X138572056Y-87550152D01*
X138516939Y-87632641D01*
X138416304Y-87875595D01*
X138365000Y-88133514D01*
X138365000Y-88396486D01*
X138416304Y-88654405D01*
X138516939Y-88897359D01*
X138663038Y-89116013D01*
X138848987Y-89301962D01*
X139067641Y-89448061D01*
X139310595Y-89548696D01*
X139568514Y-89600000D01*
X139831486Y-89600000D01*
X140089405Y-89548696D01*
X140332359Y-89448061D01*
X140551013Y-89301962D01*
X140736962Y-89116013D01*
X140883061Y-88897359D01*
X140983696Y-88654405D01*
X141035000Y-88396486D01*
X141035000Y-88133514D01*
X140983696Y-87875595D01*
X140960875Y-87820500D01*
X141987433Y-87820500D01*
X141982896Y-87827290D01*
X141909180Y-88005257D01*
X141871600Y-88194185D01*
X141871600Y-88386815D01*
X141909180Y-88575743D01*
X141982896Y-88753710D01*
X142089915Y-88913875D01*
X142226125Y-89050085D01*
X142386290Y-89157104D01*
X142564257Y-89230820D01*
X142753185Y-89268400D01*
X142945815Y-89268400D01*
X143134743Y-89230820D01*
X143312710Y-89157104D01*
X143472875Y-89050085D01*
X143609085Y-88913875D01*
X143708560Y-88765000D01*
X151431928Y-88765000D01*
X151431928Y-90765000D01*
X151444188Y-90889482D01*
X151480498Y-91009180D01*
X151539463Y-91119494D01*
X151618815Y-91216185D01*
X151715506Y-91295537D01*
X151825820Y-91354502D01*
X151945518Y-91390812D01*
X152070000Y-91403072D01*
X155270000Y-91403072D01*
X155394482Y-91390812D01*
X155514180Y-91354502D01*
X155624494Y-91295537D01*
X155721185Y-91216185D01*
X155800537Y-91119494D01*
X155859502Y-91009180D01*
X155895812Y-90889482D01*
X155908072Y-90765000D01*
X155908072Y-88765000D01*
X155895812Y-88640518D01*
X155859502Y-88520820D01*
X155800537Y-88410506D01*
X155721185Y-88313815D01*
X155624494Y-88234463D01*
X155514180Y-88175498D01*
X155394482Y-88139188D01*
X155270000Y-88126928D01*
X152070000Y-88126928D01*
X151945518Y-88139188D01*
X151825820Y-88175498D01*
X151715506Y-88234463D01*
X151618815Y-88313815D01*
X151539463Y-88410506D01*
X151480498Y-88520820D01*
X151444188Y-88640518D01*
X151431928Y-88765000D01*
X143708560Y-88765000D01*
X143716104Y-88753710D01*
X143789820Y-88575743D01*
X143827400Y-88386815D01*
X143827400Y-88194185D01*
X143789820Y-88005257D01*
X143716104Y-87827290D01*
X143711567Y-87820500D01*
X148549450Y-87820500D01*
X148590000Y-87824494D01*
X148630550Y-87820500D01*
X148630553Y-87820500D01*
X148751826Y-87808556D01*
X148907434Y-87761353D01*
X149050842Y-87684699D01*
X149176541Y-87581541D01*
X149202398Y-87550034D01*
X150333419Y-86419014D01*
X150363514Y-86425000D01*
X150626486Y-86425000D01*
X150884405Y-86373696D01*
X151127359Y-86273061D01*
X151346013Y-86126962D01*
X151531962Y-85941013D01*
X151678061Y-85722359D01*
X151778696Y-85479405D01*
X151830000Y-85221486D01*
X151830000Y-84958514D01*
X156780000Y-84958514D01*
X156780000Y-85221486D01*
X156831304Y-85479405D01*
X156931939Y-85722359D01*
X157078038Y-85941013D01*
X157263987Y-86126962D01*
X157465459Y-86261581D01*
X157355415Y-86371625D01*
X157248396Y-86531790D01*
X157174680Y-86709757D01*
X157137100Y-86898685D01*
X157137100Y-87091315D01*
X157174680Y-87280243D01*
X157248396Y-87458210D01*
X157355415Y-87618375D01*
X157491625Y-87754585D01*
X157651790Y-87861604D01*
X157829757Y-87935320D01*
X158018685Y-87972900D01*
X158211315Y-87972900D01*
X158400243Y-87935320D01*
X158578210Y-87861604D01*
X158738375Y-87754585D01*
X158874585Y-87618375D01*
X158981604Y-87458210D01*
X159055320Y-87280243D01*
X159092900Y-87091315D01*
X159092900Y-86898685D01*
X159055320Y-86709757D01*
X158981604Y-86531790D01*
X158874585Y-86371625D01*
X158764541Y-86261581D01*
X158966013Y-86126962D01*
X159151962Y-85941013D01*
X159298061Y-85722359D01*
X159398696Y-85479405D01*
X159450000Y-85221486D01*
X159450000Y-84958514D01*
X159398696Y-84700595D01*
X159298061Y-84457641D01*
X159151962Y-84238987D01*
X158966013Y-84053038D01*
X158747359Y-83906939D01*
X158504405Y-83806304D01*
X158246486Y-83755000D01*
X157983514Y-83755000D01*
X157725595Y-83806304D01*
X157482641Y-83906939D01*
X157263987Y-84053038D01*
X157078038Y-84238987D01*
X156931939Y-84457641D01*
X156831304Y-84700595D01*
X156780000Y-84958514D01*
X151830000Y-84958514D01*
X151778696Y-84700595D01*
X151678061Y-84457641D01*
X151531962Y-84238987D01*
X151346013Y-84053038D01*
X151127359Y-83906939D01*
X150884405Y-83806304D01*
X150626486Y-83755000D01*
X150363514Y-83755000D01*
X150105595Y-83806304D01*
X149862641Y-83906939D01*
X149643987Y-84053038D01*
X149458038Y-84238987D01*
X149311939Y-84457641D01*
X149211304Y-84700595D01*
X149160000Y-84958514D01*
X149160000Y-85221486D01*
X149165986Y-85251581D01*
X148248068Y-86169500D01*
X140960875Y-86169500D01*
X140983696Y-86114405D01*
X141035000Y-85856486D01*
X141035000Y-85593514D01*
X140983696Y-85335595D01*
X140883061Y-85092641D01*
X140736962Y-84873987D01*
X140551013Y-84688038D01*
X140332359Y-84541939D01*
X140089405Y-84441304D01*
X139831486Y-84390000D01*
X139568514Y-84390000D01*
X139310595Y-84441304D01*
X139067641Y-84541939D01*
X138848987Y-84688038D01*
X138663038Y-84873987D01*
X138516939Y-85092641D01*
X138497166Y-85140376D01*
X133438911Y-80082122D01*
X133438911Y-79829604D01*
X133442905Y-79789053D01*
X133433402Y-79692566D01*
X133426967Y-79627228D01*
X133379764Y-79471620D01*
X133305639Y-79332943D01*
X133303110Y-79328211D01*
X133252588Y-79266650D01*
X133199952Y-79202513D01*
X133168451Y-79176661D01*
X130201160Y-76209371D01*
X130219727Y-76201680D01*
X130454759Y-76044637D01*
X130654637Y-75844759D01*
X130811680Y-75609727D01*
X130919853Y-75348574D01*
X130975000Y-75071335D01*
X130975000Y-74788665D01*
X130919853Y-74511426D01*
X130811680Y-74250273D01*
X130654637Y-74015241D01*
X130454759Y-73815363D01*
X130219727Y-73658320D01*
X129958574Y-73550147D01*
X129681335Y-73495000D01*
X129398665Y-73495000D01*
X129121426Y-73550147D01*
X128860273Y-73658320D01*
X128625241Y-73815363D01*
X128425363Y-74015241D01*
X128268320Y-74250273D01*
X128260629Y-74268840D01*
X127096755Y-73104966D01*
X127070898Y-73073459D01*
X127024238Y-73035167D01*
X127044727Y-73026680D01*
X127279759Y-72869637D01*
X127479637Y-72669759D01*
X127635000Y-72437241D01*
X127790363Y-72669759D01*
X127990241Y-72869637D01*
X128225273Y-73026680D01*
X128486426Y-73134853D01*
X128763665Y-73190000D01*
X129046335Y-73190000D01*
X129323574Y-73134853D01*
X129584727Y-73026680D01*
X129819759Y-72869637D01*
X130019637Y-72669759D01*
X130175000Y-72437241D01*
X130330363Y-72669759D01*
X130530241Y-72869637D01*
X130765273Y-73026680D01*
X131026426Y-73134853D01*
X131303665Y-73190000D01*
X131586335Y-73190000D01*
X131691624Y-73169056D01*
X135064501Y-76541934D01*
X135064501Y-77050990D01*
X135038987Y-77068038D01*
X134853038Y-77253987D01*
X134706939Y-77472641D01*
X134606304Y-77715595D01*
X134555000Y-77973514D01*
X134555000Y-78236486D01*
X134606304Y-78494405D01*
X134706939Y-78737359D01*
X134853038Y-78956013D01*
X135038987Y-79141962D01*
X135257641Y-79288061D01*
X135500595Y-79388696D01*
X135758514Y-79440000D01*
X136021486Y-79440000D01*
X136279405Y-79388696D01*
X136522359Y-79288061D01*
X136741013Y-79141962D01*
X136926962Y-78956013D01*
X137073061Y-78737359D01*
X137173696Y-78494405D01*
X137225000Y-78236486D01*
X137225000Y-77973514D01*
X137173696Y-77715595D01*
X137073061Y-77472641D01*
X136926962Y-77253987D01*
X136741013Y-77068038D01*
X136715500Y-77050991D01*
X136715500Y-76240550D01*
X136719494Y-76199999D01*
X136712549Y-76129488D01*
X136703556Y-76038174D01*
X136656353Y-75882566D01*
X136600706Y-75778458D01*
X136579699Y-75739157D01*
X136502391Y-75644958D01*
X136476541Y-75613459D01*
X136445040Y-75587607D01*
X134047432Y-73190000D01*
X134126335Y-73190000D01*
X134403574Y-73134853D01*
X134664727Y-73026680D01*
X134899759Y-72869637D01*
X135021694Y-72747702D01*
X135711903Y-72747702D01*
X135783486Y-72991671D01*
X136038996Y-73112571D01*
X136313184Y-73181300D01*
X136595512Y-73195217D01*
X136875130Y-73153787D01*
X137141292Y-73058603D01*
X137266514Y-72991671D01*
X137338097Y-72747702D01*
X136525000Y-71934605D01*
X135711903Y-72747702D01*
X135021694Y-72747702D01*
X135099637Y-72669759D01*
X135255915Y-72435872D01*
X135288329Y-72496514D01*
X135532298Y-72568097D01*
X136345395Y-71755000D01*
X136704605Y-71755000D01*
X137517702Y-72568097D01*
X137761671Y-72496514D01*
X137882571Y-72241004D01*
X137951300Y-71966816D01*
X137965217Y-71684488D01*
X137923787Y-71404870D01*
X137828603Y-71138708D01*
X137761671Y-71013486D01*
X137517702Y-70941903D01*
X136704605Y-71755000D01*
X136345395Y-71755000D01*
X135532298Y-70941903D01*
X135288329Y-71013486D01*
X135257806Y-71077992D01*
X135256680Y-71075273D01*
X135099637Y-70840241D01*
X135021694Y-70762298D01*
X135711903Y-70762298D01*
X136525000Y-71575395D01*
X137338097Y-70762298D01*
X137266514Y-70518329D01*
X137011004Y-70397429D01*
X136736816Y-70328700D01*
X136454488Y-70314783D01*
X136174870Y-70356213D01*
X135908708Y-70451397D01*
X135783486Y-70518329D01*
X135711903Y-70762298D01*
X135021694Y-70762298D01*
X134899759Y-70640363D01*
X134664727Y-70483320D01*
X134403574Y-70375147D01*
X134126335Y-70320000D01*
X133843665Y-70320000D01*
X133566426Y-70375147D01*
X133305273Y-70483320D01*
X133070241Y-70640363D01*
X132870363Y-70840241D01*
X132715000Y-71072759D01*
X132559637Y-70840241D01*
X132359759Y-70640363D01*
X132124727Y-70483320D01*
X131863574Y-70375147D01*
X131586335Y-70320000D01*
X131303665Y-70320000D01*
X131026426Y-70375147D01*
X130765273Y-70483320D01*
X130530241Y-70640363D01*
X130330363Y-70840241D01*
X130175000Y-71072759D01*
X130019637Y-70840241D01*
X129819759Y-70640363D01*
X129584727Y-70483320D01*
X129323574Y-70375147D01*
X129046335Y-70320000D01*
X128763665Y-70320000D01*
X128486426Y-70375147D01*
X128225273Y-70483320D01*
X127990241Y-70640363D01*
X127790363Y-70840241D01*
X127635000Y-71072759D01*
X127479637Y-70840241D01*
X127279759Y-70640363D01*
X127044727Y-70483320D01*
X126783574Y-70375147D01*
X126506335Y-70320000D01*
X126223665Y-70320000D01*
X125946426Y-70375147D01*
X125685273Y-70483320D01*
X125450241Y-70640363D01*
X125250363Y-70840241D01*
X125095000Y-71072759D01*
X124939637Y-70840241D01*
X124739759Y-70640363D01*
X124504727Y-70483320D01*
X124243574Y-70375147D01*
X123966335Y-70320000D01*
X123683665Y-70320000D01*
X123406426Y-70375147D01*
X123145273Y-70483320D01*
X122910241Y-70640363D01*
X122711643Y-70838961D01*
X122710812Y-70830518D01*
X122674502Y-70710820D01*
X122615537Y-70600506D01*
X122536185Y-70503815D01*
X122439494Y-70424463D01*
X122329180Y-70365498D01*
X122209482Y-70329188D01*
X122085000Y-70316928D01*
X120485000Y-70316928D01*
X120360518Y-70329188D01*
X120240820Y-70365498D01*
X120130506Y-70424463D01*
X120033815Y-70503815D01*
X119954463Y-70600506D01*
X119895498Y-70710820D01*
X119859188Y-70830518D01*
X119846928Y-70955000D01*
X119846928Y-72555000D01*
X119859188Y-72679482D01*
X119895498Y-72799180D01*
X119954463Y-72909494D01*
X120033815Y-73006185D01*
X120130506Y-73085537D01*
X120240820Y-73144502D01*
X120360518Y-73180812D01*
X120485000Y-73193072D01*
X120500337Y-73193072D01*
X120502183Y-73199157D01*
X120518647Y-73253433D01*
X120595301Y-73396842D01*
X120629214Y-73438165D01*
X120698459Y-73522541D01*
X120729965Y-73548397D01*
X121396610Y-74215044D01*
X121422459Y-74246541D01*
X121453955Y-74272389D01*
X121453958Y-74272392D01*
X121548157Y-74349699D01*
X121691566Y-74426353D01*
X121847174Y-74473556D01*
X121968447Y-74485500D01*
X121968449Y-74485500D01*
X122009000Y-74489494D01*
X122049550Y-74485500D01*
X123124023Y-74485500D01*
X123080147Y-74591426D01*
X123025000Y-74868665D01*
X123025000Y-75151335D01*
X123080147Y-75428574D01*
X123188320Y-75689727D01*
X123345363Y-75924759D01*
X123545241Y-76124637D01*
X123780273Y-76281680D01*
X124041426Y-76389853D01*
X124136291Y-76408723D01*
X124647605Y-76920038D01*
X124673458Y-76951540D01*
X124743032Y-77008638D01*
X124799155Y-77054697D01*
X124799157Y-77054698D01*
X124942565Y-77131352D01*
X125098173Y-77178555D01*
X125219446Y-77190499D01*
X125219455Y-77190499D01*
X125259998Y-77194492D01*
X125300541Y-77190499D01*
X128093067Y-77190499D01*
X129402304Y-78499737D01*
X129189870Y-78531213D01*
X128923708Y-78626397D01*
X128798486Y-78693329D01*
X128726903Y-78937298D01*
X129540000Y-79750395D01*
X129554143Y-79736253D01*
X129733748Y-79915858D01*
X129719605Y-79930000D01*
X130532702Y-80743097D01*
X130776671Y-80671514D01*
X130897571Y-80416004D01*
X130966300Y-80141816D01*
X130969968Y-80067402D01*
X131254501Y-80351935D01*
X131254500Y-91172462D01*
X130975000Y-90892962D01*
X130975000Y-90663665D01*
X130919853Y-90386426D01*
X130811680Y-90125273D01*
X130654637Y-89890241D01*
X130492500Y-89728104D01*
X130492500Y-89341896D01*
X130654637Y-89179759D01*
X130811680Y-88944727D01*
X130919853Y-88683574D01*
X130975000Y-88406335D01*
X130975000Y-88123665D01*
X130919853Y-87846426D01*
X130811680Y-87585273D01*
X130654637Y-87350241D01*
X130454759Y-87150363D01*
X130222241Y-86995000D01*
X130454759Y-86839637D01*
X130654637Y-86639759D01*
X130811680Y-86404727D01*
X130919853Y-86143574D01*
X130975000Y-85866335D01*
X130975000Y-85583665D01*
X130919853Y-85306426D01*
X130811680Y-85045273D01*
X130654637Y-84810241D01*
X130454759Y-84610363D01*
X130222241Y-84455000D01*
X130454759Y-84299637D01*
X130654637Y-84099759D01*
X130811680Y-83864727D01*
X130919853Y-83603574D01*
X130975000Y-83326335D01*
X130975000Y-83043665D01*
X130919853Y-82766426D01*
X130811680Y-82505273D01*
X130654637Y-82270241D01*
X130454759Y-82070363D01*
X130219727Y-81913320D01*
X129958574Y-81805147D01*
X129681335Y-81750000D01*
X129398665Y-81750000D01*
X129121426Y-81805147D01*
X128860273Y-81913320D01*
X128625241Y-82070363D01*
X128425363Y-82270241D01*
X128268320Y-82505273D01*
X128160147Y-82766426D01*
X128105000Y-83043665D01*
X128105000Y-83326335D01*
X128160147Y-83603574D01*
X128268320Y-83864727D01*
X128425363Y-84099759D01*
X128625241Y-84299637D01*
X128857759Y-84455000D01*
X128625241Y-84610363D01*
X128425363Y-84810241D01*
X128268320Y-85045273D01*
X128160147Y-85306426D01*
X128105000Y-85583665D01*
X128105000Y-85866335D01*
X128160147Y-86143574D01*
X128268320Y-86404727D01*
X128425363Y-86639759D01*
X128625241Y-86839637D01*
X128857759Y-86995000D01*
X128625241Y-87150363D01*
X128425363Y-87350241D01*
X128268320Y-87585273D01*
X128160147Y-87846426D01*
X128105000Y-88123665D01*
X128105000Y-88406335D01*
X128160147Y-88683574D01*
X128268320Y-88944727D01*
X128425363Y-89179759D01*
X128587501Y-89341897D01*
X128587500Y-89728104D01*
X128425363Y-89890241D01*
X128268320Y-90125273D01*
X128160147Y-90386426D01*
X128105000Y-90663665D01*
X128105000Y-90946335D01*
X128160147Y-91223574D01*
X128268320Y-91484727D01*
X128425363Y-91719759D01*
X128625241Y-91919637D01*
X128857759Y-92075000D01*
X128625241Y-92230363D01*
X128425363Y-92430241D01*
X128268320Y-92665273D01*
X128160147Y-92926426D01*
X128105000Y-93203665D01*
X128105000Y-93486335D01*
X128160147Y-93763574D01*
X128268320Y-94024727D01*
X128425363Y-94259759D01*
X128625241Y-94459637D01*
X128857759Y-94615000D01*
X128625241Y-94770363D01*
X128425363Y-94970241D01*
X128268320Y-95205273D01*
X128160147Y-95466426D01*
X128105000Y-95743665D01*
X128105000Y-96026335D01*
X128160147Y-96303574D01*
X128268320Y-96564727D01*
X128425363Y-96799759D01*
X128625241Y-96999637D01*
X128857759Y-97155000D01*
X128625241Y-97310363D01*
X128425363Y-97510241D01*
X128268320Y-97745273D01*
X128160147Y-98006426D01*
X128105000Y-98283665D01*
X128105000Y-98566335D01*
X128160147Y-98843574D01*
X128268320Y-99104727D01*
X128425363Y-99339759D01*
X128625241Y-99539637D01*
X128857759Y-99695000D01*
X128625241Y-99850363D01*
X128425363Y-100050241D01*
X128268320Y-100285273D01*
X128160147Y-100546426D01*
X128105000Y-100823665D01*
X128105000Y-101106335D01*
X128160147Y-101383574D01*
X128268320Y-101644727D01*
X128425363Y-101879759D01*
X128625241Y-102079637D01*
X128860273Y-102236680D01*
X129121426Y-102344853D01*
X129398665Y-102400000D01*
X129681335Y-102400000D01*
X129958574Y-102344853D01*
X130219727Y-102236680D01*
X130454759Y-102079637D01*
X130654637Y-101879759D01*
X130811680Y-101644727D01*
X130919853Y-101383574D01*
X130975000Y-101106335D01*
X130975000Y-100868685D01*
X131102100Y-100868685D01*
X131102100Y-101061315D01*
X131139680Y-101250243D01*
X131213396Y-101428210D01*
X131320415Y-101588375D01*
X131456625Y-101724585D01*
X131616790Y-101831604D01*
X131794757Y-101905320D01*
X131983685Y-101942900D01*
X132176315Y-101942900D01*
X132365243Y-101905320D01*
X132543210Y-101831604D01*
X132703375Y-101724585D01*
X132839585Y-101588375D01*
X132946604Y-101428210D01*
X133020320Y-101250243D01*
X133057900Y-101061315D01*
X133057900Y-100868685D01*
X133020320Y-100679757D01*
X132946604Y-100501790D01*
X132839585Y-100341625D01*
X132703375Y-100205415D01*
X132543210Y-100098396D01*
X132365243Y-100024680D01*
X132176315Y-99987100D01*
X131983685Y-99987100D01*
X131794757Y-100024680D01*
X131616790Y-100098396D01*
X131456625Y-100205415D01*
X131320415Y-100341625D01*
X131213396Y-100501790D01*
X131139680Y-100679757D01*
X131102100Y-100868685D01*
X130975000Y-100868685D01*
X130975000Y-100823665D01*
X130919853Y-100546426D01*
X130811680Y-100285273D01*
X130654637Y-100050241D01*
X130454759Y-99850363D01*
X130222241Y-99695000D01*
X130454759Y-99539637D01*
X130654637Y-99339759D01*
X130811680Y-99104727D01*
X130919853Y-98843574D01*
X130975000Y-98566335D01*
X130975000Y-98283665D01*
X130919853Y-98006426D01*
X130811680Y-97745273D01*
X130654637Y-97510241D01*
X130454759Y-97310363D01*
X130222241Y-97155000D01*
X130454759Y-96999637D01*
X130654637Y-96799759D01*
X130811680Y-96564727D01*
X130919853Y-96303574D01*
X130975000Y-96026335D01*
X130975000Y-95743665D01*
X130919853Y-95466426D01*
X130811680Y-95205273D01*
X130654637Y-94970241D01*
X130454759Y-94770363D01*
X130222241Y-94615000D01*
X130454759Y-94459637D01*
X130654637Y-94259759D01*
X130686891Y-94211487D01*
X132017504Y-95542100D01*
X131983685Y-95542100D01*
X131794757Y-95579680D01*
X131616790Y-95653396D01*
X131456625Y-95760415D01*
X131320415Y-95896625D01*
X131213396Y-96056790D01*
X131139680Y-96234757D01*
X131102100Y-96423685D01*
X131102100Y-96616315D01*
X131139680Y-96805243D01*
X131213396Y-96983210D01*
X131320415Y-97143375D01*
X131456625Y-97279585D01*
X131616790Y-97386604D01*
X131794757Y-97460320D01*
X131855990Y-97472500D01*
X131794757Y-97484680D01*
X131616790Y-97558396D01*
X131456625Y-97665415D01*
X131320415Y-97801625D01*
X131213396Y-97961790D01*
X131139680Y-98139757D01*
X131102100Y-98328685D01*
X131102100Y-98521315D01*
X131139680Y-98710243D01*
X131213396Y-98888210D01*
X131320415Y-99048375D01*
X131456625Y-99184585D01*
X131616790Y-99291604D01*
X131794757Y-99365320D01*
X131983685Y-99402900D01*
X132176315Y-99402900D01*
X132365243Y-99365320D01*
X132543210Y-99291604D01*
X132703375Y-99184585D01*
X132839585Y-99048375D01*
X132946604Y-98888210D01*
X133020320Y-98710243D01*
X133057900Y-98521315D01*
X133057900Y-98328685D01*
X133020320Y-98139757D01*
X132946604Y-97961790D01*
X132839585Y-97801625D01*
X132703375Y-97665415D01*
X132543210Y-97558396D01*
X132365243Y-97484680D01*
X132304010Y-97472500D01*
X132365243Y-97460320D01*
X132543210Y-97386604D01*
X132703375Y-97279585D01*
X132839585Y-97143375D01*
X132946604Y-96983210D01*
X133020320Y-96805243D01*
X133057900Y-96616315D01*
X133057900Y-96582497D01*
X134765814Y-98290411D01*
X134795639Y-98326753D01*
X134940676Y-98445781D01*
X135106148Y-98534227D01*
X135285694Y-98588692D01*
X135472416Y-98607083D01*
X135519201Y-98602475D01*
X140080487Y-98602475D01*
X142557500Y-101079488D01*
X142557501Y-108572201D01*
X142265508Y-108572201D01*
X142349853Y-108368574D01*
X142405000Y-108091335D01*
X142405000Y-107808665D01*
X142349853Y-107531426D01*
X142241680Y-107270273D01*
X142084637Y-107035241D01*
X141922500Y-106873104D01*
X141922500Y-106865415D01*
X141927108Y-106818630D01*
X141908717Y-106631908D01*
X141886327Y-106558096D01*
X141876041Y-106524188D01*
X141854252Y-106452360D01*
X141806221Y-106362500D01*
X141765806Y-106286889D01*
X141646778Y-106141852D01*
X141610431Y-106112023D01*
X140267977Y-104769569D01*
X140238148Y-104733222D01*
X140093111Y-104614194D01*
X139927639Y-104525748D01*
X139748093Y-104471283D01*
X139608155Y-104457500D01*
X139561370Y-104452892D01*
X139514585Y-104457500D01*
X132304010Y-104457500D01*
X132365243Y-104445320D01*
X132543210Y-104371604D01*
X132703375Y-104264585D01*
X132839585Y-104128375D01*
X132946604Y-103968210D01*
X133020320Y-103790243D01*
X133057900Y-103601315D01*
X133057900Y-103408685D01*
X133020320Y-103219757D01*
X132946604Y-103041790D01*
X132839585Y-102881625D01*
X132703375Y-102745415D01*
X132543210Y-102638396D01*
X132365243Y-102564680D01*
X132176315Y-102527100D01*
X131983685Y-102527100D01*
X131794757Y-102564680D01*
X131616790Y-102638396D01*
X131456625Y-102745415D01*
X131320415Y-102881625D01*
X131213396Y-103041790D01*
X131139680Y-103219757D01*
X131102100Y-103408685D01*
X131102100Y-103601315D01*
X131139680Y-103790243D01*
X131213396Y-103968210D01*
X131320415Y-104128375D01*
X131456625Y-104264585D01*
X131616790Y-104371604D01*
X131794757Y-104445320D01*
X131855990Y-104457500D01*
X121679538Y-104457500D01*
X118275000Y-101052962D01*
X118275000Y-100823665D01*
X118219853Y-100546426D01*
X118111680Y-100285273D01*
X117954637Y-100050241D01*
X117754759Y-99850363D01*
X117519727Y-99693320D01*
X117509135Y-99688933D01*
X117695131Y-99577385D01*
X117903519Y-99388414D01*
X118071037Y-99162420D01*
X118191246Y-98908087D01*
X118231904Y-98774039D01*
X118109915Y-98552000D01*
X116967000Y-98552000D01*
X116967000Y-98572000D01*
X116713000Y-98572000D01*
X116713000Y-98552000D01*
X115570085Y-98552000D01*
X115448096Y-98774039D01*
X115488754Y-98908087D01*
X115608963Y-99162420D01*
X115776481Y-99388414D01*
X115984869Y-99577385D01*
X116170865Y-99688933D01*
X116160273Y-99693320D01*
X115925241Y-99850363D01*
X115763104Y-100012500D01*
X113711785Y-100012500D01*
X113665000Y-100007892D01*
X113618215Y-100012500D01*
X113478277Y-100026283D01*
X113418188Y-100044511D01*
X113298730Y-100080748D01*
X113215995Y-100124971D01*
X113141105Y-100165000D01*
X112888665Y-100165000D01*
X112611426Y-100220147D01*
X112350273Y-100328320D01*
X112115241Y-100485363D01*
X111915363Y-100685241D01*
X111758320Y-100920273D01*
X111650147Y-101181426D01*
X111595000Y-101458665D01*
X111595000Y-101741335D01*
X111650147Y-102018574D01*
X111758320Y-102279727D01*
X111915363Y-102514759D01*
X112115241Y-102714637D01*
X112350273Y-102871680D01*
X112611426Y-102979853D01*
X112888665Y-103035000D01*
X113171335Y-103035000D01*
X113448574Y-102979853D01*
X113709727Y-102871680D01*
X113944759Y-102714637D01*
X114144637Y-102514759D01*
X114301680Y-102279727D01*
X114409853Y-102018574D01*
X114429958Y-101917500D01*
X115763104Y-101917500D01*
X115925241Y-102079637D01*
X116160273Y-102236680D01*
X116421426Y-102344853D01*
X116698665Y-102400000D01*
X116927962Y-102400000D01*
X120578393Y-106050431D01*
X120608222Y-106086778D01*
X120753259Y-106205806D01*
X120918731Y-106294252D01*
X121098277Y-106348717D01*
X121284999Y-106367108D01*
X121331784Y-106362500D01*
X139166832Y-106362500D01*
X139849038Y-107044706D01*
X139698320Y-107270273D01*
X139693933Y-107280865D01*
X139582385Y-107094869D01*
X139393414Y-106886481D01*
X139167420Y-106718963D01*
X138913087Y-106598754D01*
X138779039Y-106558096D01*
X138557000Y-106680085D01*
X138557000Y-107823000D01*
X138577000Y-107823000D01*
X138577000Y-108077000D01*
X138557000Y-108077000D01*
X138557000Y-108097000D01*
X138303000Y-108097000D01*
X138303000Y-108077000D01*
X136017000Y-108077000D01*
X136017000Y-108097000D01*
X135763000Y-108097000D01*
X135763000Y-108077000D01*
X135743000Y-108077000D01*
X135743000Y-107823000D01*
X135763000Y-107823000D01*
X135763000Y-106680085D01*
X136017000Y-106680085D01*
X136017000Y-107823000D01*
X138303000Y-107823000D01*
X138303000Y-106680085D01*
X138080961Y-106558096D01*
X137946913Y-106598754D01*
X137692580Y-106718963D01*
X137466586Y-106886481D01*
X137277615Y-107094869D01*
X137160000Y-107290982D01*
X137042385Y-107094869D01*
X136853414Y-106886481D01*
X136627420Y-106718963D01*
X136373087Y-106598754D01*
X136239039Y-106558096D01*
X136017000Y-106680085D01*
X135763000Y-106680085D01*
X135540961Y-106558096D01*
X135406913Y-106598754D01*
X135152580Y-106718963D01*
X134926586Y-106886481D01*
X134737615Y-107094869D01*
X134626067Y-107280865D01*
X134621680Y-107270273D01*
X134464637Y-107035241D01*
X134264759Y-106835363D01*
X134029727Y-106678320D01*
X133768574Y-106570147D01*
X133491335Y-106515000D01*
X133208665Y-106515000D01*
X132931426Y-106570147D01*
X132670273Y-106678320D01*
X132435241Y-106835363D01*
X132235363Y-107035241D01*
X132080000Y-107267759D01*
X131924637Y-107035241D01*
X131724759Y-106835363D01*
X131489727Y-106678320D01*
X131228574Y-106570147D01*
X130951335Y-106515000D01*
X130668665Y-106515000D01*
X130391426Y-106570147D01*
X130130273Y-106678320D01*
X129895241Y-106835363D01*
X129695363Y-107035241D01*
X129540000Y-107267759D01*
X129384637Y-107035241D01*
X129184759Y-106835363D01*
X128949727Y-106678320D01*
X128688574Y-106570147D01*
X128411335Y-106515000D01*
X128128665Y-106515000D01*
X127851426Y-106570147D01*
X127590273Y-106678320D01*
X127355241Y-106835363D01*
X127155363Y-107035241D01*
X127000000Y-107267759D01*
X126844637Y-107035241D01*
X126644759Y-106835363D01*
X126409727Y-106678320D01*
X126148574Y-106570147D01*
X125871335Y-106515000D01*
X125588665Y-106515000D01*
X125311426Y-106570147D01*
X125050273Y-106678320D01*
X124815241Y-106835363D01*
X124616643Y-107033961D01*
X124615812Y-107025518D01*
X124579502Y-106905820D01*
X124520537Y-106795506D01*
X124441185Y-106698815D01*
X124344494Y-106619463D01*
X124234180Y-106560498D01*
X124114482Y-106524188D01*
X123990000Y-106511928D01*
X122390000Y-106511928D01*
X122265518Y-106524188D01*
X122145820Y-106560498D01*
X122035506Y-106619463D01*
X121938815Y-106698815D01*
X121859463Y-106795506D01*
X121800498Y-106905820D01*
X121764188Y-107025518D01*
X121751928Y-107150000D01*
X121751928Y-108572201D01*
X103684240Y-108572201D01*
X102704741Y-107592702D01*
X112216903Y-107592702D01*
X112288486Y-107836671D01*
X112543996Y-107957571D01*
X112818184Y-108026300D01*
X113100512Y-108040217D01*
X113380130Y-107998787D01*
X113646292Y-107903603D01*
X113771514Y-107836671D01*
X113843097Y-107592702D01*
X113030000Y-106779605D01*
X112216903Y-107592702D01*
X102704741Y-107592702D01*
X101782551Y-106670512D01*
X111589783Y-106670512D01*
X111631213Y-106950130D01*
X111726397Y-107216292D01*
X111793329Y-107341514D01*
X112037298Y-107413097D01*
X112850395Y-106600000D01*
X113209605Y-106600000D01*
X114022702Y-107413097D01*
X114266671Y-107341514D01*
X114387571Y-107086004D01*
X114456300Y-106811816D01*
X114470217Y-106529488D01*
X114428787Y-106249870D01*
X114333603Y-105983708D01*
X114266671Y-105858486D01*
X114022702Y-105786903D01*
X113209605Y-106600000D01*
X112850395Y-106600000D01*
X112037298Y-105786903D01*
X111793329Y-105858486D01*
X111672429Y-106113996D01*
X111603700Y-106388184D01*
X111589783Y-106670512D01*
X101782551Y-106670512D01*
X101151607Y-106039569D01*
X101121778Y-106003222D01*
X100976741Y-105884194D01*
X100811269Y-105795748D01*
X100631723Y-105741283D01*
X100491785Y-105727500D01*
X100445000Y-105722892D01*
X100411741Y-105726168D01*
X100399502Y-105685820D01*
X100357531Y-105607298D01*
X112216903Y-105607298D01*
X113030000Y-106420395D01*
X113843097Y-105607298D01*
X113771514Y-105363329D01*
X113516004Y-105242429D01*
X113241816Y-105173700D01*
X112959488Y-105159783D01*
X112679870Y-105201213D01*
X112413708Y-105296397D01*
X112288486Y-105363329D01*
X112216903Y-105607298D01*
X100357531Y-105607298D01*
X100340537Y-105575506D01*
X100261185Y-105478815D01*
X100164494Y-105399463D01*
X100054180Y-105340498D01*
X99934482Y-105304188D01*
X99826517Y-105293555D01*
X99942886Y-105215799D01*
X100135799Y-105022886D01*
X100287371Y-104796043D01*
X100391775Y-104543989D01*
X100445000Y-104276411D01*
X100445000Y-104003589D01*
X100391775Y-103736011D01*
X100287371Y-103483957D01*
X100135799Y-103257114D01*
X99942886Y-103064201D01*
X99716043Y-102912629D01*
X99613127Y-102870000D01*
X99716043Y-102827371D01*
X99942886Y-102675799D01*
X100135799Y-102482886D01*
X100287371Y-102256043D01*
X100391775Y-102003989D01*
X100445000Y-101736411D01*
X100445000Y-101463589D01*
X100391775Y-101196011D01*
X100287371Y-100943957D01*
X100135799Y-100717114D01*
X99942886Y-100524201D01*
X99716043Y-100372629D01*
X99616721Y-100331489D01*
X99658832Y-100316277D01*
X99771863Y-100255860D01*
X99837388Y-100016993D01*
X99060000Y-99239605D01*
X98282612Y-100016993D01*
X98348137Y-100255860D01*
X98506477Y-100330164D01*
X98403957Y-100372629D01*
X98177114Y-100524201D01*
X97984201Y-100717114D01*
X97832629Y-100943957D01*
X97728225Y-101196011D01*
X97675000Y-101463589D01*
X97675000Y-101736411D01*
X97728225Y-102003989D01*
X97832629Y-102256043D01*
X97984201Y-102482886D01*
X98177114Y-102675799D01*
X98403957Y-102827371D01*
X98506873Y-102870000D01*
X98403957Y-102912629D01*
X98177114Y-103064201D01*
X97984201Y-103257114D01*
X97832629Y-103483957D01*
X97728225Y-103736011D01*
X97675000Y-104003589D01*
X97675000Y-104276411D01*
X97728225Y-104543989D01*
X97832629Y-104796043D01*
X97984201Y-105022886D01*
X98177114Y-105215799D01*
X98293483Y-105293555D01*
X98185518Y-105304188D01*
X98065820Y-105340498D01*
X97955506Y-105399463D01*
X97858815Y-105478815D01*
X97779463Y-105575506D01*
X97720498Y-105685820D01*
X97684188Y-105805518D01*
X97671928Y-105930000D01*
X97671928Y-107430000D01*
X97684188Y-107554482D01*
X97720498Y-107674180D01*
X97779463Y-107784494D01*
X97858815Y-107881185D01*
X97955506Y-107960537D01*
X98065820Y-108019502D01*
X98185518Y-108055812D01*
X98310000Y-108068072D01*
X99810000Y-108068072D01*
X99934482Y-108055812D01*
X100054180Y-108019502D01*
X100164494Y-107960537D01*
X100261185Y-107881185D01*
X100278296Y-107860335D01*
X102247961Y-109830000D01*
X95910000Y-109830000D01*
X95910000Y-99132492D01*
X97670188Y-99132492D01*
X97711035Y-99402238D01*
X97803723Y-99658832D01*
X97864140Y-99771863D01*
X98103007Y-99837388D01*
X98880395Y-99060000D01*
X99239605Y-99060000D01*
X100016993Y-99837388D01*
X100255860Y-99771863D01*
X100371760Y-99524884D01*
X100437250Y-99260040D01*
X100449812Y-98987508D01*
X100408965Y-98717762D01*
X100316277Y-98461168D01*
X100255860Y-98348137D01*
X100016993Y-98282612D01*
X99239605Y-99060000D01*
X98880395Y-99060000D01*
X98103007Y-98282612D01*
X97864140Y-98348137D01*
X97748240Y-98595116D01*
X97682750Y-98859960D01*
X97670188Y-99132492D01*
X95910000Y-99132492D01*
X95910000Y-98103007D01*
X98282612Y-98103007D01*
X99060000Y-98880395D01*
X99819830Y-98120565D01*
X107164040Y-98120565D01*
X107231020Y-98360656D01*
X107480048Y-98477756D01*
X107747135Y-98544023D01*
X108022017Y-98556910D01*
X108294133Y-98515922D01*
X108553023Y-98422636D01*
X108668980Y-98360656D01*
X108735960Y-98120565D01*
X107950000Y-97334605D01*
X107164040Y-98120565D01*
X99819830Y-98120565D01*
X99837388Y-98103007D01*
X99771863Y-97864140D01*
X99524884Y-97748240D01*
X99260040Y-97682750D01*
X98987508Y-97670188D01*
X98717762Y-97711035D01*
X98461168Y-97803723D01*
X98348137Y-97864140D01*
X98282612Y-98103007D01*
X95910000Y-98103007D01*
X95910000Y-97227017D01*
X106548090Y-97227017D01*
X106589078Y-97499133D01*
X106682364Y-97758023D01*
X106744344Y-97873980D01*
X106984435Y-97940960D01*
X107770395Y-97155000D01*
X108129605Y-97155000D01*
X108915565Y-97940960D01*
X109155656Y-97873980D01*
X109272756Y-97624952D01*
X109339023Y-97357865D01*
X109351910Y-97082983D01*
X109310922Y-96810867D01*
X109217636Y-96551977D01*
X109155656Y-96436020D01*
X108915565Y-96369040D01*
X108129605Y-97155000D01*
X107770395Y-97155000D01*
X106984435Y-96369040D01*
X106744344Y-96436020D01*
X106627244Y-96685048D01*
X106560977Y-96952135D01*
X106548090Y-97227017D01*
X95910000Y-97227017D01*
X95910000Y-96189435D01*
X107164040Y-96189435D01*
X107950000Y-96975395D01*
X108735960Y-96189435D01*
X108668980Y-95949344D01*
X108419952Y-95832244D01*
X108152865Y-95765977D01*
X107877983Y-95753090D01*
X107605867Y-95794078D01*
X107346977Y-95887364D01*
X107231020Y-95949344D01*
X107164040Y-96189435D01*
X95910000Y-96189435D01*
X95910000Y-91308514D01*
X96455000Y-91308514D01*
X96455000Y-91571486D01*
X96506304Y-91829405D01*
X96606939Y-92072359D01*
X96753038Y-92291013D01*
X96938987Y-92476962D01*
X97157641Y-92623061D01*
X97400595Y-92723696D01*
X97658514Y-92775000D01*
X97921486Y-92775000D01*
X98179405Y-92723696D01*
X98422359Y-92623061D01*
X98641013Y-92476962D01*
X98826962Y-92291013D01*
X98973061Y-92072359D01*
X99073696Y-91829405D01*
X99125000Y-91571486D01*
X99125000Y-91308514D01*
X99630000Y-91308514D01*
X99630000Y-91571486D01*
X99681304Y-91829405D01*
X99781939Y-92072359D01*
X99928038Y-92291013D01*
X100113987Y-92476962D01*
X100332641Y-92623061D01*
X100575595Y-92723696D01*
X100833514Y-92775000D01*
X101096486Y-92775000D01*
X101354405Y-92723696D01*
X101597359Y-92623061D01*
X101816013Y-92476962D01*
X102001962Y-92291013D01*
X102148061Y-92072359D01*
X102203959Y-91937408D01*
X106553000Y-91937408D01*
X106553000Y-92212592D01*
X106606686Y-92482490D01*
X106711995Y-92736727D01*
X106864880Y-92965535D01*
X107059465Y-93160120D01*
X107288273Y-93313005D01*
X107542510Y-93418314D01*
X107812408Y-93472000D01*
X108087592Y-93472000D01*
X108357490Y-93418314D01*
X108611727Y-93313005D01*
X108840535Y-93160120D01*
X109035120Y-92965535D01*
X109188005Y-92736727D01*
X109293314Y-92482490D01*
X109347000Y-92212592D01*
X109347000Y-91937408D01*
X109293314Y-91667510D01*
X109188005Y-91413273D01*
X109035120Y-91184465D01*
X108840535Y-90989880D01*
X108611727Y-90836995D01*
X108357490Y-90731686D01*
X108087592Y-90678000D01*
X107812408Y-90678000D01*
X107542510Y-90731686D01*
X107288273Y-90836995D01*
X107059465Y-90989880D01*
X106864880Y-91184465D01*
X106711995Y-91413273D01*
X106606686Y-91667510D01*
X106553000Y-91937408D01*
X102203959Y-91937408D01*
X102248696Y-91829405D01*
X102300000Y-91571486D01*
X102300000Y-91308514D01*
X102248696Y-91050595D01*
X102148061Y-90807641D01*
X102001962Y-90588987D01*
X101816013Y-90403038D01*
X101597359Y-90256939D01*
X101354405Y-90156304D01*
X101096486Y-90105000D01*
X100833514Y-90105000D01*
X100575595Y-90156304D01*
X100332641Y-90256939D01*
X100113987Y-90403038D01*
X99928038Y-90588987D01*
X99781939Y-90807641D01*
X99681304Y-91050595D01*
X99630000Y-91308514D01*
X99125000Y-91308514D01*
X99073696Y-91050595D01*
X98973061Y-90807641D01*
X98826962Y-90588987D01*
X98641013Y-90403038D01*
X98422359Y-90256939D01*
X98179405Y-90156304D01*
X97921486Y-90105000D01*
X97658514Y-90105000D01*
X97400595Y-90156304D01*
X97157641Y-90256939D01*
X96938987Y-90403038D01*
X96753038Y-90588987D01*
X96606939Y-90807641D01*
X96506304Y-91050595D01*
X96455000Y-91308514D01*
X95910000Y-91308514D01*
X95910000Y-86857408D01*
X106553000Y-86857408D01*
X106553000Y-87132592D01*
X106606686Y-87402490D01*
X106711995Y-87656727D01*
X106864880Y-87885535D01*
X107059465Y-88080120D01*
X107288273Y-88233005D01*
X107542510Y-88338314D01*
X107812408Y-88392000D01*
X108087592Y-88392000D01*
X108357490Y-88338314D01*
X108611727Y-88233005D01*
X108840535Y-88080120D01*
X109035120Y-87885535D01*
X109188005Y-87656727D01*
X109293314Y-87402490D01*
X109347000Y-87132592D01*
X109347000Y-86857408D01*
X109293314Y-86587510D01*
X109188005Y-86333273D01*
X109035120Y-86104465D01*
X108840535Y-85909880D01*
X108611727Y-85756995D01*
X108357490Y-85651686D01*
X108087592Y-85598000D01*
X107812408Y-85598000D01*
X107542510Y-85651686D01*
X107288273Y-85756995D01*
X107059465Y-85909880D01*
X106864880Y-86104465D01*
X106711995Y-86333273D01*
X106606686Y-86587510D01*
X106553000Y-86857408D01*
X95910000Y-86857408D01*
X95910000Y-59548665D01*
X112615000Y-59548665D01*
X112615000Y-59831335D01*
X112670147Y-60108574D01*
X112778320Y-60369727D01*
X112935363Y-60604759D01*
X113135241Y-60804637D01*
X113370273Y-60961680D01*
X113631426Y-61069853D01*
X113908665Y-61125000D01*
X114191335Y-61125000D01*
X114468574Y-61069853D01*
X114729727Y-60961680D01*
X114964759Y-60804637D01*
X115164637Y-60604759D01*
X115320000Y-60372241D01*
X115475363Y-60604759D01*
X115675241Y-60804637D01*
X115910273Y-60961680D01*
X116171426Y-61069853D01*
X116448665Y-61125000D01*
X116731335Y-61125000D01*
X117008574Y-61069853D01*
X117269727Y-60961680D01*
X117504759Y-60804637D01*
X117704637Y-60604759D01*
X117860000Y-60372241D01*
X118015363Y-60604759D01*
X118215241Y-60804637D01*
X118450273Y-60961680D01*
X118711426Y-61069853D01*
X118988665Y-61125000D01*
X119271335Y-61125000D01*
X119548574Y-61069853D01*
X119809727Y-60961680D01*
X120044759Y-60804637D01*
X120244637Y-60604759D01*
X120401680Y-60369727D01*
X120406067Y-60359135D01*
X120517615Y-60545131D01*
X120706586Y-60753519D01*
X120932580Y-60921037D01*
X121186913Y-61041246D01*
X121320961Y-61081904D01*
X121543000Y-60959915D01*
X121543000Y-59817000D01*
X121523000Y-59817000D01*
X121523000Y-59563000D01*
X121543000Y-59563000D01*
X121543000Y-58420085D01*
X121797000Y-58420085D01*
X121797000Y-59563000D01*
X121817000Y-59563000D01*
X121817000Y-59817000D01*
X121797000Y-59817000D01*
X121797000Y-60959915D01*
X122019039Y-61081904D01*
X122153087Y-61041246D01*
X122407420Y-60921037D01*
X122633414Y-60753519D01*
X122822385Y-60545131D01*
X122933933Y-60359135D01*
X122938320Y-60369727D01*
X123095363Y-60604759D01*
X123295241Y-60804637D01*
X123530273Y-60961680D01*
X123791426Y-61069853D01*
X124068665Y-61125000D01*
X124351335Y-61125000D01*
X124628574Y-61069853D01*
X124889727Y-60961680D01*
X125124759Y-60804637D01*
X125324637Y-60604759D01*
X125480000Y-60372241D01*
X125635363Y-60604759D01*
X125835241Y-60804637D01*
X126070273Y-60961680D01*
X126331426Y-61069853D01*
X126608665Y-61125000D01*
X126891335Y-61125000D01*
X127168574Y-61069853D01*
X127429727Y-60961680D01*
X127664759Y-60804637D01*
X127864637Y-60604759D01*
X128020000Y-60372241D01*
X128175363Y-60604759D01*
X128375241Y-60804637D01*
X128610273Y-60961680D01*
X128871426Y-61069853D01*
X129148665Y-61125000D01*
X129431335Y-61125000D01*
X129708574Y-61069853D01*
X129969727Y-60961680D01*
X130204759Y-60804637D01*
X130404637Y-60604759D01*
X130560000Y-60372241D01*
X130715363Y-60604759D01*
X130915241Y-60804637D01*
X130937920Y-60819791D01*
X130856790Y-60853396D01*
X130696625Y-60960415D01*
X130560415Y-61096625D01*
X130453396Y-61256790D01*
X130379680Y-61434757D01*
X130342100Y-61623685D01*
X130342100Y-61816315D01*
X130379680Y-62005243D01*
X130453396Y-62183210D01*
X130560415Y-62343375D01*
X130696625Y-62479585D01*
X130856790Y-62586604D01*
X131034757Y-62660320D01*
X131223685Y-62697900D01*
X131416315Y-62697900D01*
X131605243Y-62660320D01*
X131783210Y-62586604D01*
X131943375Y-62479585D01*
X132079585Y-62343375D01*
X132186604Y-62183210D01*
X132260320Y-62005243D01*
X132297900Y-61816315D01*
X132297900Y-61623685D01*
X132260320Y-61434757D01*
X132186604Y-61256790D01*
X132083621Y-61102665D01*
X132248574Y-61069853D01*
X132509727Y-60961680D01*
X132744759Y-60804637D01*
X132944637Y-60604759D01*
X133100000Y-60372241D01*
X133255363Y-60604759D01*
X133455241Y-60804637D01*
X133690273Y-60961680D01*
X133951426Y-61069853D01*
X134228665Y-61125000D01*
X134511335Y-61125000D01*
X134788574Y-61069853D01*
X135049727Y-60961680D01*
X135284759Y-60804637D01*
X135484637Y-60604759D01*
X135640000Y-60372241D01*
X135795363Y-60604759D01*
X135995241Y-60804637D01*
X136230273Y-60961680D01*
X136491426Y-61069853D01*
X136768665Y-61125000D01*
X137051335Y-61125000D01*
X137328574Y-61069853D01*
X137589727Y-60961680D01*
X137824759Y-60804637D01*
X138024637Y-60604759D01*
X138181680Y-60369727D01*
X138289853Y-60108574D01*
X138345000Y-59831335D01*
X138345000Y-59548665D01*
X139535000Y-59548665D01*
X139535000Y-59831335D01*
X139590147Y-60108574D01*
X139698320Y-60369727D01*
X139855363Y-60604759D01*
X140055241Y-60804637D01*
X140290273Y-60961680D01*
X140551426Y-61069853D01*
X140828665Y-61125000D01*
X141111335Y-61125000D01*
X141388574Y-61069853D01*
X141649727Y-60961680D01*
X141884759Y-60804637D01*
X142084637Y-60604759D01*
X142240000Y-60372241D01*
X142395363Y-60604759D01*
X142595241Y-60804637D01*
X142830273Y-60961680D01*
X143091426Y-61069853D01*
X143368665Y-61125000D01*
X143651335Y-61125000D01*
X143928574Y-61069853D01*
X144189727Y-60961680D01*
X144424759Y-60804637D01*
X144624637Y-60604759D01*
X144780000Y-60372241D01*
X144935363Y-60604759D01*
X145135241Y-60804637D01*
X145370273Y-60961680D01*
X145631426Y-61069853D01*
X145908665Y-61125000D01*
X146191335Y-61125000D01*
X146468574Y-61069853D01*
X146729727Y-60961680D01*
X146964759Y-60804637D01*
X147164637Y-60604759D01*
X147320000Y-60372241D01*
X147475363Y-60604759D01*
X147675241Y-60804637D01*
X147910273Y-60961680D01*
X148171426Y-61069853D01*
X148448665Y-61125000D01*
X148731335Y-61125000D01*
X149008574Y-61069853D01*
X149269727Y-60961680D01*
X149504759Y-60804637D01*
X149704637Y-60604759D01*
X149860000Y-60372241D01*
X150015363Y-60604759D01*
X150215241Y-60804637D01*
X150450273Y-60961680D01*
X150711426Y-61069853D01*
X150988665Y-61125000D01*
X151271335Y-61125000D01*
X151548574Y-61069853D01*
X151809727Y-60961680D01*
X152044759Y-60804637D01*
X152244637Y-60604759D01*
X152400000Y-60372241D01*
X152555363Y-60604759D01*
X152755241Y-60804637D01*
X152990273Y-60961680D01*
X153251426Y-61069853D01*
X153528665Y-61125000D01*
X153811335Y-61125000D01*
X154088574Y-61069853D01*
X154349727Y-60961680D01*
X154584759Y-60804637D01*
X154784637Y-60604759D01*
X154940000Y-60372241D01*
X155095363Y-60604759D01*
X155295241Y-60804637D01*
X155530273Y-60961680D01*
X155791426Y-61069853D01*
X156068665Y-61125000D01*
X156351335Y-61125000D01*
X156628574Y-61069853D01*
X156889727Y-60961680D01*
X157124759Y-60804637D01*
X157324637Y-60604759D01*
X157480000Y-60372241D01*
X157635363Y-60604759D01*
X157835241Y-60804637D01*
X158070273Y-60961680D01*
X158331426Y-61069853D01*
X158608665Y-61125000D01*
X158891335Y-61125000D01*
X159168574Y-61069853D01*
X159429727Y-60961680D01*
X159664759Y-60804637D01*
X159864637Y-60604759D01*
X160021680Y-60369727D01*
X160129853Y-60108574D01*
X160185000Y-59831335D01*
X160185000Y-59548665D01*
X160129853Y-59271426D01*
X160021680Y-59010273D01*
X159864637Y-58775241D01*
X159664759Y-58575363D01*
X159429727Y-58418320D01*
X159168574Y-58310147D01*
X158891335Y-58255000D01*
X158608665Y-58255000D01*
X158331426Y-58310147D01*
X158070273Y-58418320D01*
X157835241Y-58575363D01*
X157635363Y-58775241D01*
X157480000Y-59007759D01*
X157324637Y-58775241D01*
X157124759Y-58575363D01*
X156889727Y-58418320D01*
X156628574Y-58310147D01*
X156351335Y-58255000D01*
X156068665Y-58255000D01*
X155791426Y-58310147D01*
X155530273Y-58418320D01*
X155295241Y-58575363D01*
X155095363Y-58775241D01*
X154940000Y-59007759D01*
X154784637Y-58775241D01*
X154584759Y-58575363D01*
X154349727Y-58418320D01*
X154088574Y-58310147D01*
X153811335Y-58255000D01*
X153528665Y-58255000D01*
X153251426Y-58310147D01*
X152990273Y-58418320D01*
X152755241Y-58575363D01*
X152555363Y-58775241D01*
X152400000Y-59007759D01*
X152244637Y-58775241D01*
X152044759Y-58575363D01*
X151809727Y-58418320D01*
X151548574Y-58310147D01*
X151271335Y-58255000D01*
X150988665Y-58255000D01*
X150711426Y-58310147D01*
X150450273Y-58418320D01*
X150215241Y-58575363D01*
X150015363Y-58775241D01*
X149860000Y-59007759D01*
X149704637Y-58775241D01*
X149504759Y-58575363D01*
X149269727Y-58418320D01*
X149008574Y-58310147D01*
X148731335Y-58255000D01*
X148448665Y-58255000D01*
X148171426Y-58310147D01*
X147910273Y-58418320D01*
X147675241Y-58575363D01*
X147475363Y-58775241D01*
X147320000Y-59007759D01*
X147164637Y-58775241D01*
X146964759Y-58575363D01*
X146729727Y-58418320D01*
X146468574Y-58310147D01*
X146191335Y-58255000D01*
X145908665Y-58255000D01*
X145631426Y-58310147D01*
X145370273Y-58418320D01*
X145135241Y-58575363D01*
X144935363Y-58775241D01*
X144780000Y-59007759D01*
X144624637Y-58775241D01*
X144424759Y-58575363D01*
X144189727Y-58418320D01*
X143928574Y-58310147D01*
X143651335Y-58255000D01*
X143368665Y-58255000D01*
X143091426Y-58310147D01*
X142830273Y-58418320D01*
X142595241Y-58575363D01*
X142395363Y-58775241D01*
X142240000Y-59007759D01*
X142084637Y-58775241D01*
X141884759Y-58575363D01*
X141649727Y-58418320D01*
X141388574Y-58310147D01*
X141111335Y-58255000D01*
X140828665Y-58255000D01*
X140551426Y-58310147D01*
X140290273Y-58418320D01*
X140055241Y-58575363D01*
X139855363Y-58775241D01*
X139698320Y-59010273D01*
X139590147Y-59271426D01*
X139535000Y-59548665D01*
X138345000Y-59548665D01*
X138289853Y-59271426D01*
X138181680Y-59010273D01*
X138024637Y-58775241D01*
X137824759Y-58575363D01*
X137589727Y-58418320D01*
X137328574Y-58310147D01*
X137051335Y-58255000D01*
X136768665Y-58255000D01*
X136491426Y-58310147D01*
X136230273Y-58418320D01*
X135995241Y-58575363D01*
X135795363Y-58775241D01*
X135640000Y-59007759D01*
X135484637Y-58775241D01*
X135284759Y-58575363D01*
X135049727Y-58418320D01*
X134788574Y-58310147D01*
X134511335Y-58255000D01*
X134228665Y-58255000D01*
X133951426Y-58310147D01*
X133690273Y-58418320D01*
X133455241Y-58575363D01*
X133255363Y-58775241D01*
X133100000Y-59007759D01*
X132944637Y-58775241D01*
X132744759Y-58575363D01*
X132509727Y-58418320D01*
X132248574Y-58310147D01*
X131971335Y-58255000D01*
X131688665Y-58255000D01*
X131411426Y-58310147D01*
X131150273Y-58418320D01*
X130915241Y-58575363D01*
X130715363Y-58775241D01*
X130560000Y-59007759D01*
X130404637Y-58775241D01*
X130204759Y-58575363D01*
X129969727Y-58418320D01*
X129708574Y-58310147D01*
X129431335Y-58255000D01*
X129148665Y-58255000D01*
X128871426Y-58310147D01*
X128610273Y-58418320D01*
X128375241Y-58575363D01*
X128175363Y-58775241D01*
X128020000Y-59007759D01*
X127864637Y-58775241D01*
X127664759Y-58575363D01*
X127429727Y-58418320D01*
X127168574Y-58310147D01*
X126891335Y-58255000D01*
X126608665Y-58255000D01*
X126331426Y-58310147D01*
X126070273Y-58418320D01*
X125835241Y-58575363D01*
X125635363Y-58775241D01*
X125480000Y-59007759D01*
X125324637Y-58775241D01*
X125124759Y-58575363D01*
X124889727Y-58418320D01*
X124628574Y-58310147D01*
X124351335Y-58255000D01*
X124068665Y-58255000D01*
X123791426Y-58310147D01*
X123530273Y-58418320D01*
X123295241Y-58575363D01*
X123095363Y-58775241D01*
X122938320Y-59010273D01*
X122933933Y-59020865D01*
X122822385Y-58834869D01*
X122633414Y-58626481D01*
X122407420Y-58458963D01*
X122153087Y-58338754D01*
X122019039Y-58298096D01*
X121797000Y-58420085D01*
X121543000Y-58420085D01*
X121320961Y-58298096D01*
X121186913Y-58338754D01*
X120932580Y-58458963D01*
X120706586Y-58626481D01*
X120517615Y-58834869D01*
X120406067Y-59020865D01*
X120401680Y-59010273D01*
X120244637Y-58775241D01*
X120044759Y-58575363D01*
X119809727Y-58418320D01*
X119548574Y-58310147D01*
X119271335Y-58255000D01*
X118988665Y-58255000D01*
X118711426Y-58310147D01*
X118450273Y-58418320D01*
X118215241Y-58575363D01*
X118015363Y-58775241D01*
X117860000Y-59007759D01*
X117704637Y-58775241D01*
X117504759Y-58575363D01*
X117269727Y-58418320D01*
X117008574Y-58310147D01*
X116731335Y-58255000D01*
X116448665Y-58255000D01*
X116171426Y-58310147D01*
X115910273Y-58418320D01*
X115675241Y-58575363D01*
X115475363Y-58775241D01*
X115320000Y-59007759D01*
X115164637Y-58775241D01*
X114964759Y-58575363D01*
X114729727Y-58418320D01*
X114468574Y-58310147D01*
X114191335Y-58255000D01*
X113908665Y-58255000D01*
X113631426Y-58310147D01*
X113370273Y-58418320D01*
X113135241Y-58575363D01*
X112935363Y-58775241D01*
X112778320Y-59010273D01*
X112670147Y-59271426D01*
X112615000Y-59548665D01*
X95910000Y-59548665D01*
X95910000Y-57810000D01*
X159746620Y-57810000D01*
X160630000Y-58693381D01*
M02*
