M48
; DRILL file {KiCad (5.1.5)-3} date 3/5/2020 10:37:37 PM
; FORMAT={-:-/ absolute / metric / decimal}
; #@! TF.CreationDate,2020-03-05T22:37:37-05:00
; #@! TF.GenerationSoftware,Kicad,Pcbnew,(5.1.5)-3
; #@! TF.FileFunction,Plated,1,2,PTH
FMAT,2
METRIC
T1C0.330
T2C0.700
T3C0.762
T4C0.800
T5C1.000
T6C1.500
%
G90
G05
T1
X109.7Y-63.98
X117.157Y-67.627
X131.32Y-61.72
X132.08Y-96.52
X132.08Y-98.425
X132.08Y-100.965
X132.08Y-103.505
X140.335Y-62.865
X141.536Y-62.796
X141.56Y-70.44
X142.558Y-68.263
X142.85Y-88.29
X142.875Y-62.865
X142.897Y-94.593
X158.115Y-86.995
T2
X100.965Y-83.82
X100.965Y-91.44
X150.495Y-85.09
X158.115Y-85.09
X135.89Y-78.105
X135.89Y-85.725
X139.7Y-78.105
X139.7Y-85.725
X139.7Y-88.265
X139.7Y-95.885
X135.89Y-88.265
X135.89Y-95.885
X150.495Y-81.28
X158.115Y-81.28
X97.79Y-83.82
X97.79Y-91.44
T3
X107.95Y-71.755
X107.95Y-76.835
X107.95Y-81.915
X107.95Y-86.995
X107.95Y-92.075
X107.95Y-97.155
T4
X114.935Y-69.85
X114.935Y-72.35
X99.06Y-99.06
X99.06Y-101.6
X99.06Y-104.14
X99.06Y-106.68
X116.84Y-83.185
X116.84Y-85.725
X116.84Y-88.265
X116.84Y-90.805
X116.84Y-93.345
X116.84Y-95.885
X116.84Y-98.425
X116.84Y-100.965
X129.54Y-83.185
X129.54Y-85.725
X129.54Y-88.265
X129.54Y-90.805
X129.54Y-93.345
X129.54Y-95.885
X129.54Y-98.425
X129.54Y-100.965
X114.05Y-59.69
X116.59Y-59.69
X119.13Y-59.69
X121.67Y-59.69
X123.19Y-107.95
X124.21Y-59.69
X125.73Y-107.95
X126.75Y-59.69
X128.27Y-107.95
X129.29Y-59.69
X130.81Y-107.95
X131.83Y-59.69
X133.35Y-107.95
X134.37Y-59.69
X135.89Y-107.95
X136.91Y-59.69
X138.43Y-107.95
X140.97Y-59.69
X140.97Y-107.95
X143.51Y-59.69
X146.05Y-59.69
X146.05Y-107.95
X148.59Y-59.69
X148.59Y-107.95
X151.13Y-59.69
X151.13Y-107.95
X153.67Y-59.69
X153.67Y-107.95
X156.21Y-59.69
X156.21Y-107.95
X158.75Y-59.69
X158.75Y-107.95
X119.38Y-75.565
X119.38Y-78.065
X113.03Y-101.6
X113.03Y-106.6
X129.54Y-75.565
X129.54Y-78.065
X124.46Y-75.565
X124.46Y-78.065
X114.935Y-63.5
X114.935Y-66.0
T5
X146.17Y-92.865
X146.17Y-95.365
X146.17Y-97.865
X160.67Y-92.865
X160.67Y-97.865
X121.285Y-64.135
X121.285Y-71.755
X123.825Y-64.135
X123.825Y-71.755
X126.365Y-64.135
X126.365Y-71.755
X128.905Y-64.135
X128.905Y-71.755
X131.445Y-64.135
X131.445Y-71.755
X133.985Y-64.135
X133.985Y-71.755
X136.525Y-64.135
X136.525Y-71.755
T6
G00X153.02Y-89.765
M15
G01X154.32Y-89.765
M16
G05
G00X153.02Y-100.965
M15
G01X154.32Y-100.965
M16
G05
T0
M30
