G04 #@! TF.GenerationSoftware,KiCad,Pcbnew,(5.1.5)-3*
G04 #@! TF.CreationDate,2020-03-13T10:57:18-04:00*
G04 #@! TF.ProjectId,StupidDogFocuserPCB,53747570-6964-4446-9f67-466f63757365,1*
G04 #@! TF.SameCoordinates,Original*
G04 #@! TF.FileFunction,Copper,L2,Bot*
G04 #@! TF.FilePolarity,Positive*
%FSLAX46Y46*%
G04 Gerber Fmt 4.6, Leading zero omitted, Abs format (unit mm)*
G04 Created by KiCad (PCBNEW (5.1.5)-3) date 2020-03-13 10:57:18*
%MOMM*%
%LPD*%
G04 APERTURE LIST*
%ADD10C,1.600000*%
%ADD11O,1.600000X1.600000*%
%ADD12R,1.600000X1.600000*%
%ADD13O,1.400000X1.400000*%
%ADD14C,1.400000*%
%ADD15C,1.524000*%
%ADD16C,1.500000*%
%ADD17R,1.500000X1.500000*%
%ADD18R,2.000000X2.000000*%
%ADD19C,2.000000*%
%ADD20R,3.200000X2.000000*%
%ADD21C,0.685800*%
%ADD22C,0.254000*%
%ADD23C,0.381000*%
%ADD24C,0.635000*%
G04 APERTURE END LIST*
D10*
X114935000Y-76200000D03*
X114935000Y-71200000D03*
X114935000Y-68500000D03*
X114935000Y-63500000D03*
X124460000Y-75010000D03*
X124460000Y-80010000D03*
X119380000Y-80010000D03*
X119380000Y-75010000D03*
X129540000Y-79930000D03*
X129540000Y-74930000D03*
D11*
X156210000Y-59690000D03*
X158750000Y-59690000D03*
X119130000Y-59690000D03*
X158750000Y-107950000D03*
X121670000Y-59690000D03*
X156210000Y-107950000D03*
X124210000Y-59690000D03*
X153670000Y-107950000D03*
X126750000Y-59690000D03*
X151130000Y-107950000D03*
X129290000Y-59690000D03*
X148590000Y-107950000D03*
X131830000Y-59690000D03*
X146050000Y-107950000D03*
X134370000Y-59690000D03*
X140970000Y-107950000D03*
X136910000Y-59690000D03*
X138430000Y-107950000D03*
X140970000Y-59690000D03*
X135890000Y-107950000D03*
X143510000Y-59690000D03*
X133350000Y-107950000D03*
X146050000Y-59690000D03*
X130810000Y-107950000D03*
X148590000Y-59690000D03*
X128270000Y-107950000D03*
X151130000Y-59690000D03*
X125730000Y-107950000D03*
X153670000Y-59690000D03*
D12*
X123190000Y-107950000D03*
D11*
X116590000Y-59690000D03*
X114050000Y-59690000D03*
D13*
X100965000Y-91440000D03*
D14*
X100965000Y-83820000D03*
D13*
X97790000Y-91440000D03*
D14*
X97790000Y-83820000D03*
D13*
X139700000Y-95885000D03*
D14*
X139700000Y-88265000D03*
D13*
X135890000Y-95885000D03*
D14*
X135890000Y-88265000D03*
D13*
X158115000Y-85090000D03*
D14*
X150495000Y-85090000D03*
D13*
X135890000Y-85725000D03*
D14*
X135890000Y-78105000D03*
D13*
X158115000Y-81280000D03*
D14*
X150495000Y-81280000D03*
D13*
X139700000Y-85725000D03*
D14*
X139700000Y-78105000D03*
D15*
X107950000Y-97155000D03*
X107950000Y-92075000D03*
X107950000Y-86995000D03*
X107950000Y-81915000D03*
X107950000Y-76835000D03*
X107950000Y-71755000D03*
D10*
X113030000Y-101600000D03*
X113030000Y-106600000D03*
X121285000Y-64135000D03*
X123825000Y-64135000D03*
X126365000Y-64135000D03*
X128905000Y-64135000D03*
X131445000Y-64135000D03*
X133985000Y-64135000D03*
X136525000Y-64135000D03*
X136525000Y-71755000D03*
X133985000Y-71755000D03*
X131445000Y-71755000D03*
X128905000Y-71755000D03*
X126365000Y-71755000D03*
X123825000Y-71755000D03*
D12*
X121285000Y-71755000D03*
D16*
X99060000Y-99060000D03*
X99060000Y-101600000D03*
X99060000Y-104140000D03*
D17*
X99060000Y-106680000D03*
D18*
X146170000Y-92865000D03*
D19*
X146170000Y-95365000D03*
X146170000Y-97865000D03*
D20*
X153670000Y-89765000D03*
X153670000Y-100965000D03*
D19*
X160670000Y-92865000D03*
X160670000Y-97865000D03*
D11*
X129540000Y-83185000D03*
X116840000Y-100965000D03*
X129540000Y-85725000D03*
X116840000Y-98425000D03*
X129540000Y-88265000D03*
X116840000Y-95885000D03*
X129540000Y-90805000D03*
X116840000Y-93345000D03*
X129540000Y-93345000D03*
X116840000Y-90805000D03*
X129540000Y-95885000D03*
X116840000Y-88265000D03*
X129540000Y-98425000D03*
X116840000Y-85725000D03*
X129540000Y-100965000D03*
D12*
X116840000Y-83185000D03*
D21*
X109699729Y-63979731D03*
X132080000Y-103505000D03*
X142557500Y-68262500D03*
X142622936Y-69801946D03*
X140335000Y-62865000D03*
X142897500Y-94592500D03*
X132080000Y-96520000D03*
X132080000Y-98425000D03*
X132080000Y-100965000D03*
X142849500Y-88290500D03*
X158115000Y-86995000D03*
X131320000Y-61720000D03*
X141535685Y-62795685D03*
X142875000Y-62865000D03*
X117157500Y-67627500D03*
D22*
X96505799Y-77173661D02*
X109699729Y-63979731D01*
X96505799Y-101585799D02*
X96505799Y-77173661D01*
X99060000Y-104140000D02*
X96505799Y-101585799D01*
X112084460Y-61595000D02*
X109699729Y-63979731D01*
X126750000Y-59690000D02*
X124845000Y-61595000D01*
X124845000Y-61595000D02*
X112084460Y-61595000D01*
D23*
X120231000Y-71755000D02*
X121285000Y-71755000D01*
X119380000Y-72606000D02*
X120231000Y-71755000D01*
X119380000Y-75565000D02*
X119380000Y-72606000D01*
X124460000Y-73660000D02*
X126365000Y-71755000D01*
X124460000Y-75565000D02*
X124460000Y-73660000D01*
X129540000Y-73660000D02*
X131445000Y-71755000D01*
X129540000Y-75565000D02*
X129540000Y-73660000D01*
D22*
X134620000Y-106045000D02*
X132397500Y-103822500D01*
X151130000Y-107950000D02*
X149225000Y-106045000D01*
X149225000Y-106045000D02*
X134620000Y-106045000D01*
X132397500Y-103822500D02*
X129540000Y-100965000D01*
D23*
X142557500Y-68262500D02*
X151130000Y-59690000D01*
X142557500Y-68897500D02*
X142557500Y-68262500D01*
X129540000Y-81915000D02*
X142557500Y-68897500D01*
X129540000Y-83185000D02*
X129540000Y-81915000D01*
X153670000Y-59690000D02*
X143558054Y-69801946D01*
X142280037Y-70144845D02*
X142622936Y-69801946D01*
X134847099Y-80417901D02*
X134847099Y-77577783D01*
X134847099Y-77577783D02*
X142280037Y-70144845D01*
X143558054Y-69801946D02*
X142622936Y-69801946D01*
X129540000Y-85725000D02*
X134847099Y-80417901D01*
X140970000Y-62230000D02*
X140970000Y-59690000D01*
X140335000Y-62865000D02*
X140970000Y-62230000D01*
X135255000Y-67945000D02*
X140335000Y-62865000D01*
X123825000Y-71755000D02*
X127635000Y-67945000D01*
X127635000Y-67945000D02*
X135255000Y-67945000D01*
X139700000Y-91395000D02*
X139700000Y-88265000D01*
X146170000Y-97865000D02*
X142897500Y-94592500D01*
X139700000Y-88265000D02*
X135890000Y-88265000D01*
X142897500Y-94592500D02*
X139700000Y-91395000D01*
D22*
X129540000Y-93980000D02*
X129540000Y-93345000D01*
X139065000Y-103505000D02*
X129540000Y-93980000D01*
X139700000Y-104140000D02*
X139065000Y-103505000D01*
X158750000Y-107950000D02*
X154940000Y-104140000D01*
X154940000Y-104140000D02*
X139700000Y-104140000D01*
X137160000Y-103505000D02*
X129540000Y-95885000D01*
X138430000Y-104775000D02*
X137160000Y-103505000D01*
X156210000Y-107950000D02*
X156196538Y-107950000D01*
X153021538Y-104775000D02*
X138430000Y-104775000D01*
X156196538Y-107950000D02*
X153021538Y-104775000D01*
X130339999Y-99224999D02*
X129540000Y-98425000D01*
X134411019Y-103713981D02*
X130339999Y-99224999D01*
X136107038Y-105410000D02*
X134411019Y-103713981D01*
X153670000Y-107950000D02*
X151130000Y-105410000D01*
X151130000Y-105410000D02*
X136107038Y-105410000D01*
D23*
X140284000Y-85725000D02*
X139700000Y-85725000D01*
X146170000Y-91611000D02*
X142849500Y-88290500D01*
X146170000Y-92865000D02*
X146170000Y-91611000D01*
X139700000Y-85725000D02*
X135890000Y-85725000D01*
X142849500Y-88290500D02*
X140284000Y-85725000D01*
D22*
X158115000Y-95310000D02*
X158115000Y-86995000D01*
X160670000Y-97865000D02*
X158115000Y-95310000D01*
X158115000Y-85090000D02*
X158115000Y-81280000D01*
X158115000Y-86995000D02*
X158115000Y-85090000D01*
D24*
X116840000Y-95885000D02*
X107950000Y-86995000D01*
X107950000Y-84455000D02*
X107950000Y-81915000D01*
X116840000Y-93345000D02*
X107950000Y-84455000D01*
X116840000Y-90805000D02*
X109855000Y-83820000D01*
X109855000Y-78740000D02*
X107950000Y-76835000D01*
X109855000Y-83820000D02*
X109855000Y-78740000D01*
X111125000Y-74930000D02*
X107950000Y-71755000D01*
X116840000Y-88265000D02*
X111125000Y-82550000D01*
X111125000Y-82550000D02*
X111125000Y-74930000D01*
D23*
X131320000Y-61720000D02*
X129290000Y-59690000D01*
X131445000Y-61595000D02*
X131320000Y-61720000D01*
X136525000Y-64135000D02*
X133985000Y-61595000D01*
X133985000Y-61595000D02*
X131445000Y-61595000D01*
X143510000Y-60821370D02*
X143510000Y-59690000D01*
X141535685Y-62795685D02*
X143510000Y-60821370D01*
X135751370Y-68580000D02*
X141535685Y-62795685D01*
X128905000Y-71755000D02*
X132080000Y-68580000D01*
X132080000Y-68580000D02*
X135751370Y-68580000D01*
X133985000Y-71755000D02*
X142875000Y-62865000D01*
X142875000Y-62865000D02*
X146050000Y-59690000D01*
X131445000Y-66675000D02*
X133985000Y-64135000D01*
X118110000Y-66675000D02*
X131445000Y-66675000D01*
X117157500Y-67627500D02*
X118110000Y-66675000D01*
X116840000Y-67945000D02*
X117157500Y-67627500D01*
X116840000Y-69215000D02*
X116840000Y-67945000D01*
X116205000Y-69930000D02*
X114935000Y-71200000D01*
X116205000Y-69850000D02*
X116205000Y-69930000D01*
X107315000Y-69850000D02*
X116205000Y-69850000D01*
X100965000Y-83820000D02*
X100965000Y-76200000D01*
X100965000Y-76200000D02*
X107315000Y-69850000D01*
X116205000Y-69850000D02*
X116840000Y-69215000D01*
D22*
X101600000Y-92075000D02*
X100965000Y-91440000D01*
X107950000Y-92075000D02*
X101600000Y-92075000D01*
X100965000Y-91440000D02*
X97790000Y-91440000D01*
G36*
X160630000Y-58693381D02*
G01*
X160630001Y-69845887D01*
X160629241Y-69906761D01*
X160635953Y-69942854D01*
X160639551Y-69979383D01*
X160647809Y-70006607D01*
X160653011Y-70034577D01*
X160666636Y-70068669D01*
X160677291Y-70103793D01*
X160690698Y-70128876D01*
X160701259Y-70155301D01*
X160721274Y-70186081D01*
X160738576Y-70218450D01*
X160777168Y-70265474D01*
X163170000Y-73256515D01*
X163170001Y-105136618D01*
X160846232Y-107460388D01*
X160821053Y-107481052D01*
X160800389Y-107506231D01*
X160800386Y-107506234D01*
X160738575Y-107581550D01*
X160677290Y-107696208D01*
X160639551Y-107820618D01*
X160626808Y-107950000D01*
X160630001Y-107982419D01*
X160630000Y-109822578D01*
X160629269Y-109830000D01*
X95910000Y-109830000D01*
X95910000Y-102060962D01*
X95964377Y-102127221D01*
X95993453Y-102151083D01*
X97703364Y-103860994D01*
X97675000Y-104003589D01*
X97675000Y-104276411D01*
X97728225Y-104543989D01*
X97832629Y-104796043D01*
X97984201Y-105022886D01*
X98177114Y-105215799D01*
X98293483Y-105293555D01*
X98185518Y-105304188D01*
X98065820Y-105340498D01*
X97955506Y-105399463D01*
X97858815Y-105478815D01*
X97779463Y-105575506D01*
X97720498Y-105685820D01*
X97684188Y-105805518D01*
X97671928Y-105930000D01*
X97671928Y-107430000D01*
X97684188Y-107554482D01*
X97720498Y-107674180D01*
X97779463Y-107784494D01*
X97858815Y-107881185D01*
X97955506Y-107960537D01*
X98065820Y-108019502D01*
X98185518Y-108055812D01*
X98310000Y-108068072D01*
X99810000Y-108068072D01*
X99934482Y-108055812D01*
X100054180Y-108019502D01*
X100164494Y-107960537D01*
X100261185Y-107881185D01*
X100340537Y-107784494D01*
X100399502Y-107674180D01*
X100424218Y-107592702D01*
X112216903Y-107592702D01*
X112288486Y-107836671D01*
X112543996Y-107957571D01*
X112818184Y-108026300D01*
X113100512Y-108040217D01*
X113380130Y-107998787D01*
X113646292Y-107903603D01*
X113771514Y-107836671D01*
X113843097Y-107592702D01*
X113030000Y-106779605D01*
X112216903Y-107592702D01*
X100424218Y-107592702D01*
X100435812Y-107554482D01*
X100448072Y-107430000D01*
X100448072Y-106670512D01*
X111589783Y-106670512D01*
X111631213Y-106950130D01*
X111726397Y-107216292D01*
X111793329Y-107341514D01*
X112037298Y-107413097D01*
X112850395Y-106600000D01*
X113209605Y-106600000D01*
X114022702Y-107413097D01*
X114266671Y-107341514D01*
X114387571Y-107086004D01*
X114456300Y-106811816D01*
X114470217Y-106529488D01*
X114428787Y-106249870D01*
X114333603Y-105983708D01*
X114266671Y-105858486D01*
X114022702Y-105786903D01*
X113209605Y-106600000D01*
X112850395Y-106600000D01*
X112037298Y-105786903D01*
X111793329Y-105858486D01*
X111672429Y-106113996D01*
X111603700Y-106388184D01*
X111589783Y-106670512D01*
X100448072Y-106670512D01*
X100448072Y-105930000D01*
X100435812Y-105805518D01*
X100399502Y-105685820D01*
X100357531Y-105607298D01*
X112216903Y-105607298D01*
X113030000Y-106420395D01*
X113843097Y-105607298D01*
X113771514Y-105363329D01*
X113516004Y-105242429D01*
X113241816Y-105173700D01*
X112959488Y-105159783D01*
X112679870Y-105201213D01*
X112413708Y-105296397D01*
X112288486Y-105363329D01*
X112216903Y-105607298D01*
X100357531Y-105607298D01*
X100340537Y-105575506D01*
X100261185Y-105478815D01*
X100164494Y-105399463D01*
X100054180Y-105340498D01*
X99934482Y-105304188D01*
X99826517Y-105293555D01*
X99942886Y-105215799D01*
X100135799Y-105022886D01*
X100287371Y-104796043D01*
X100391775Y-104543989D01*
X100445000Y-104276411D01*
X100445000Y-104003589D01*
X100391775Y-103736011D01*
X100287371Y-103483957D01*
X100135799Y-103257114D01*
X99942886Y-103064201D01*
X99716043Y-102912629D01*
X99613127Y-102870000D01*
X99716043Y-102827371D01*
X99942886Y-102675799D01*
X100135799Y-102482886D01*
X100287371Y-102256043D01*
X100391775Y-102003989D01*
X100445000Y-101736411D01*
X100445000Y-101463589D01*
X100444021Y-101458665D01*
X111595000Y-101458665D01*
X111595000Y-101741335D01*
X111650147Y-102018574D01*
X111758320Y-102279727D01*
X111915363Y-102514759D01*
X112115241Y-102714637D01*
X112350273Y-102871680D01*
X112611426Y-102979853D01*
X112888665Y-103035000D01*
X113171335Y-103035000D01*
X113448574Y-102979853D01*
X113709727Y-102871680D01*
X113944759Y-102714637D01*
X114144637Y-102514759D01*
X114301680Y-102279727D01*
X114409853Y-102018574D01*
X114465000Y-101741335D01*
X114465000Y-101458665D01*
X114409853Y-101181426D01*
X114301680Y-100920273D01*
X114237129Y-100823665D01*
X115405000Y-100823665D01*
X115405000Y-101106335D01*
X115460147Y-101383574D01*
X115568320Y-101644727D01*
X115725363Y-101879759D01*
X115925241Y-102079637D01*
X116160273Y-102236680D01*
X116421426Y-102344853D01*
X116698665Y-102400000D01*
X116981335Y-102400000D01*
X117258574Y-102344853D01*
X117519727Y-102236680D01*
X117754759Y-102079637D01*
X117954637Y-101879759D01*
X118111680Y-101644727D01*
X118219853Y-101383574D01*
X118275000Y-101106335D01*
X118275000Y-100823665D01*
X118219853Y-100546426D01*
X118111680Y-100285273D01*
X117954637Y-100050241D01*
X117754759Y-99850363D01*
X117519727Y-99693320D01*
X117509135Y-99688933D01*
X117695131Y-99577385D01*
X117903519Y-99388414D01*
X118071037Y-99162420D01*
X118191246Y-98908087D01*
X118231904Y-98774039D01*
X118109915Y-98552000D01*
X116967000Y-98552000D01*
X116967000Y-98572000D01*
X116713000Y-98572000D01*
X116713000Y-98552000D01*
X115570085Y-98552000D01*
X115448096Y-98774039D01*
X115488754Y-98908087D01*
X115608963Y-99162420D01*
X115776481Y-99388414D01*
X115984869Y-99577385D01*
X116170865Y-99688933D01*
X116160273Y-99693320D01*
X115925241Y-99850363D01*
X115725363Y-100050241D01*
X115568320Y-100285273D01*
X115460147Y-100546426D01*
X115405000Y-100823665D01*
X114237129Y-100823665D01*
X114144637Y-100685241D01*
X113944759Y-100485363D01*
X113709727Y-100328320D01*
X113448574Y-100220147D01*
X113171335Y-100165000D01*
X112888665Y-100165000D01*
X112611426Y-100220147D01*
X112350273Y-100328320D01*
X112115241Y-100485363D01*
X111915363Y-100685241D01*
X111758320Y-100920273D01*
X111650147Y-101181426D01*
X111595000Y-101458665D01*
X100444021Y-101458665D01*
X100391775Y-101196011D01*
X100287371Y-100943957D01*
X100135799Y-100717114D01*
X99942886Y-100524201D01*
X99716043Y-100372629D01*
X99616721Y-100331489D01*
X99658832Y-100316277D01*
X99771863Y-100255860D01*
X99837388Y-100016993D01*
X99060000Y-99239605D01*
X98282612Y-100016993D01*
X98348137Y-100255860D01*
X98506477Y-100330164D01*
X98403957Y-100372629D01*
X98177114Y-100524201D01*
X97984201Y-100717114D01*
X97832629Y-100943957D01*
X97728225Y-101196011D01*
X97675000Y-101463589D01*
X97675000Y-101677370D01*
X97267799Y-101270169D01*
X97267799Y-99132492D01*
X97670188Y-99132492D01*
X97711035Y-99402238D01*
X97803723Y-99658832D01*
X97864140Y-99771863D01*
X98103007Y-99837388D01*
X98880395Y-99060000D01*
X99239605Y-99060000D01*
X100016993Y-99837388D01*
X100255860Y-99771863D01*
X100371760Y-99524884D01*
X100437250Y-99260040D01*
X100449812Y-98987508D01*
X100408965Y-98717762D01*
X100316277Y-98461168D01*
X100255860Y-98348137D01*
X100016993Y-98282612D01*
X99239605Y-99060000D01*
X98880395Y-99060000D01*
X98103007Y-98282612D01*
X97864140Y-98348137D01*
X97748240Y-98595116D01*
X97682750Y-98859960D01*
X97670188Y-99132492D01*
X97267799Y-99132492D01*
X97267799Y-98103007D01*
X98282612Y-98103007D01*
X99060000Y-98880395D01*
X99819830Y-98120565D01*
X107164040Y-98120565D01*
X107231020Y-98360656D01*
X107480048Y-98477756D01*
X107747135Y-98544023D01*
X108022017Y-98556910D01*
X108294133Y-98515922D01*
X108553023Y-98422636D01*
X108668980Y-98360656D01*
X108735960Y-98120565D01*
X107950000Y-97334605D01*
X107164040Y-98120565D01*
X99819830Y-98120565D01*
X99837388Y-98103007D01*
X99771863Y-97864140D01*
X99524884Y-97748240D01*
X99260040Y-97682750D01*
X98987508Y-97670188D01*
X98717762Y-97711035D01*
X98461168Y-97803723D01*
X98348137Y-97864140D01*
X98282612Y-98103007D01*
X97267799Y-98103007D01*
X97267799Y-97227017D01*
X106548090Y-97227017D01*
X106589078Y-97499133D01*
X106682364Y-97758023D01*
X106744344Y-97873980D01*
X106984435Y-97940960D01*
X107770395Y-97155000D01*
X108129605Y-97155000D01*
X108915565Y-97940960D01*
X109155656Y-97873980D01*
X109272756Y-97624952D01*
X109339023Y-97357865D01*
X109351910Y-97082983D01*
X109310922Y-96810867D01*
X109217636Y-96551977D01*
X109155656Y-96436020D01*
X108915565Y-96369040D01*
X108129605Y-97155000D01*
X107770395Y-97155000D01*
X106984435Y-96369040D01*
X106744344Y-96436020D01*
X106627244Y-96685048D01*
X106560977Y-96952135D01*
X106548090Y-97227017D01*
X97267799Y-97227017D01*
X97267799Y-96189435D01*
X107164040Y-96189435D01*
X107950000Y-96975395D01*
X108735960Y-96189435D01*
X108668980Y-95949344D01*
X108419952Y-95832244D01*
X108152865Y-95765977D01*
X107877983Y-95753090D01*
X107605867Y-95794078D01*
X107346977Y-95887364D01*
X107231020Y-95949344D01*
X107164040Y-96189435D01*
X97267799Y-96189435D01*
X97267799Y-92668690D01*
X97400595Y-92723696D01*
X97658514Y-92775000D01*
X97921486Y-92775000D01*
X98179405Y-92723696D01*
X98422359Y-92623061D01*
X98641013Y-92476962D01*
X98826962Y-92291013D01*
X98886438Y-92202000D01*
X99868562Y-92202000D01*
X99928038Y-92291013D01*
X100113987Y-92476962D01*
X100332641Y-92623061D01*
X100575595Y-92723696D01*
X100833514Y-92775000D01*
X101096486Y-92775000D01*
X101239802Y-92746492D01*
X101306985Y-92782402D01*
X101450622Y-92825974D01*
X101562574Y-92837000D01*
X101562577Y-92837000D01*
X101600000Y-92840686D01*
X101637423Y-92837000D01*
X106778995Y-92837000D01*
X106864880Y-92965535D01*
X107059465Y-93160120D01*
X107288273Y-93313005D01*
X107542510Y-93418314D01*
X107812408Y-93472000D01*
X108087592Y-93472000D01*
X108357490Y-93418314D01*
X108611727Y-93313005D01*
X108840535Y-93160120D01*
X109035120Y-92965535D01*
X109188005Y-92736727D01*
X109293314Y-92482490D01*
X109347000Y-92212592D01*
X109347000Y-91937408D01*
X109293314Y-91667510D01*
X109188005Y-91413273D01*
X109035120Y-91184465D01*
X108840535Y-90989880D01*
X108611727Y-90836995D01*
X108357490Y-90731686D01*
X108087592Y-90678000D01*
X107812408Y-90678000D01*
X107542510Y-90731686D01*
X107288273Y-90836995D01*
X107059465Y-90989880D01*
X106864880Y-91184465D01*
X106778995Y-91313000D01*
X102300000Y-91313000D01*
X102300000Y-91308514D01*
X102248696Y-91050595D01*
X102148061Y-90807641D01*
X102001962Y-90588987D01*
X101816013Y-90403038D01*
X101597359Y-90256939D01*
X101354405Y-90156304D01*
X101096486Y-90105000D01*
X100833514Y-90105000D01*
X100575595Y-90156304D01*
X100332641Y-90256939D01*
X100113987Y-90403038D01*
X99928038Y-90588987D01*
X99868562Y-90678000D01*
X98886438Y-90678000D01*
X98826962Y-90588987D01*
X98641013Y-90403038D01*
X98422359Y-90256939D01*
X98179405Y-90156304D01*
X97921486Y-90105000D01*
X97658514Y-90105000D01*
X97400595Y-90156304D01*
X97267799Y-90211310D01*
X97267799Y-85048690D01*
X97400595Y-85103696D01*
X97658514Y-85155000D01*
X97921486Y-85155000D01*
X98179405Y-85103696D01*
X98422359Y-85003061D01*
X98641013Y-84856962D01*
X98826962Y-84671013D01*
X98973061Y-84452359D01*
X99073696Y-84209405D01*
X99125000Y-83951486D01*
X99125000Y-83688514D01*
X99073696Y-83430595D01*
X98973061Y-83187641D01*
X98826962Y-82968987D01*
X98641013Y-82783038D01*
X98422359Y-82636939D01*
X98179405Y-82536304D01*
X97921486Y-82485000D01*
X97658514Y-82485000D01*
X97400595Y-82536304D01*
X97267799Y-82591310D01*
X97267799Y-77489291D01*
X107249792Y-67507298D01*
X114121903Y-67507298D01*
X114935000Y-68320395D01*
X115748097Y-67507298D01*
X115676514Y-67263329D01*
X115421004Y-67142429D01*
X115146816Y-67073700D01*
X114864488Y-67059783D01*
X114584870Y-67101213D01*
X114318708Y-67196397D01*
X114193486Y-67263329D01*
X114121903Y-67507298D01*
X107249792Y-67507298D01*
X109800308Y-64956783D01*
X109984972Y-64920051D01*
X110162939Y-64846335D01*
X110323104Y-64739316D01*
X110459314Y-64603106D01*
X110566333Y-64442941D01*
X110640049Y-64264974D01*
X110676781Y-64080309D01*
X112400091Y-62357000D01*
X114062689Y-62357000D01*
X114020241Y-62385363D01*
X113820363Y-62585241D01*
X113663320Y-62820273D01*
X113555147Y-63081426D01*
X113500000Y-63358665D01*
X113500000Y-63641335D01*
X113555147Y-63918574D01*
X113663320Y-64179727D01*
X113820363Y-64414759D01*
X114020241Y-64614637D01*
X114255273Y-64771680D01*
X114516426Y-64879853D01*
X114793665Y-64935000D01*
X115076335Y-64935000D01*
X115353574Y-64879853D01*
X115614727Y-64771680D01*
X115849759Y-64614637D01*
X116049637Y-64414759D01*
X116206680Y-64179727D01*
X116314853Y-63918574D01*
X116370000Y-63641335D01*
X116370000Y-63358665D01*
X116314853Y-63081426D01*
X116206680Y-62820273D01*
X116049637Y-62585241D01*
X115849759Y-62385363D01*
X115807311Y-62357000D01*
X124807577Y-62357000D01*
X124845000Y-62360686D01*
X124882423Y-62357000D01*
X124882426Y-62357000D01*
X124994378Y-62345974D01*
X125138015Y-62302402D01*
X125270392Y-62231645D01*
X125386422Y-62136422D01*
X125410284Y-62107346D01*
X126428473Y-61089157D01*
X126608665Y-61125000D01*
X126891335Y-61125000D01*
X127168574Y-61069853D01*
X127429727Y-60961680D01*
X127664759Y-60804637D01*
X127864637Y-60604759D01*
X128020000Y-60372241D01*
X128175363Y-60604759D01*
X128375241Y-60804637D01*
X128610273Y-60961680D01*
X128871426Y-61069853D01*
X129148665Y-61125000D01*
X129431335Y-61125000D01*
X129536624Y-61104057D01*
X130365246Y-61932680D01*
X130379680Y-62005243D01*
X130453396Y-62183210D01*
X130560415Y-62343375D01*
X130696625Y-62479585D01*
X130856790Y-62586604D01*
X131034757Y-62660320D01*
X131223685Y-62697900D01*
X131416315Y-62697900D01*
X131605243Y-62660320D01*
X131783210Y-62586604D01*
X131943375Y-62479585D01*
X132002460Y-62420500D01*
X133643068Y-62420500D01*
X133922568Y-62700000D01*
X133843665Y-62700000D01*
X133566426Y-62755147D01*
X133305273Y-62863320D01*
X133070241Y-63020363D01*
X132870363Y-63220241D01*
X132715000Y-63452759D01*
X132559637Y-63220241D01*
X132359759Y-63020363D01*
X132124727Y-62863320D01*
X131863574Y-62755147D01*
X131586335Y-62700000D01*
X131303665Y-62700000D01*
X131026426Y-62755147D01*
X130765273Y-62863320D01*
X130530241Y-63020363D01*
X130330363Y-63220241D01*
X130175000Y-63452759D01*
X130019637Y-63220241D01*
X129819759Y-63020363D01*
X129584727Y-62863320D01*
X129323574Y-62755147D01*
X129046335Y-62700000D01*
X128763665Y-62700000D01*
X128486426Y-62755147D01*
X128225273Y-62863320D01*
X127990241Y-63020363D01*
X127790363Y-63220241D01*
X127635000Y-63452759D01*
X127479637Y-63220241D01*
X127279759Y-63020363D01*
X127044727Y-62863320D01*
X126783574Y-62755147D01*
X126506335Y-62700000D01*
X126223665Y-62700000D01*
X125946426Y-62755147D01*
X125685273Y-62863320D01*
X125450241Y-63020363D01*
X125250363Y-63220241D01*
X125095000Y-63452759D01*
X124939637Y-63220241D01*
X124739759Y-63020363D01*
X124504727Y-62863320D01*
X124243574Y-62755147D01*
X123966335Y-62700000D01*
X123683665Y-62700000D01*
X123406426Y-62755147D01*
X123145273Y-62863320D01*
X122910241Y-63020363D01*
X122710363Y-63220241D01*
X122555000Y-63452759D01*
X122399637Y-63220241D01*
X122199759Y-63020363D01*
X121964727Y-62863320D01*
X121703574Y-62755147D01*
X121426335Y-62700000D01*
X121143665Y-62700000D01*
X120866426Y-62755147D01*
X120605273Y-62863320D01*
X120370241Y-63020363D01*
X120170363Y-63220241D01*
X120013320Y-63455273D01*
X119905147Y-63716426D01*
X119850000Y-63993665D01*
X119850000Y-64276335D01*
X119905147Y-64553574D01*
X120013320Y-64814727D01*
X120170363Y-65049759D01*
X120370241Y-65249637D01*
X120605273Y-65406680D01*
X120866426Y-65514853D01*
X121143665Y-65570000D01*
X121426335Y-65570000D01*
X121703574Y-65514853D01*
X121964727Y-65406680D01*
X122199759Y-65249637D01*
X122399637Y-65049759D01*
X122555000Y-64817241D01*
X122710363Y-65049759D01*
X122910241Y-65249637D01*
X123145273Y-65406680D01*
X123406426Y-65514853D01*
X123683665Y-65570000D01*
X123966335Y-65570000D01*
X124243574Y-65514853D01*
X124504727Y-65406680D01*
X124739759Y-65249637D01*
X124939637Y-65049759D01*
X125095000Y-64817241D01*
X125250363Y-65049759D01*
X125450241Y-65249637D01*
X125685273Y-65406680D01*
X125946426Y-65514853D01*
X126223665Y-65570000D01*
X126506335Y-65570000D01*
X126783574Y-65514853D01*
X127044727Y-65406680D01*
X127279759Y-65249637D01*
X127479637Y-65049759D01*
X127635000Y-64817241D01*
X127790363Y-65049759D01*
X127990241Y-65249637D01*
X128225273Y-65406680D01*
X128486426Y-65514853D01*
X128763665Y-65570000D01*
X129046335Y-65570000D01*
X129323574Y-65514853D01*
X129584727Y-65406680D01*
X129819759Y-65249637D01*
X130019637Y-65049759D01*
X130175000Y-64817241D01*
X130330363Y-65049759D01*
X130530241Y-65249637D01*
X130765273Y-65406680D01*
X131026426Y-65514853D01*
X131303665Y-65570000D01*
X131382568Y-65570000D01*
X131103068Y-65849500D01*
X118150542Y-65849500D01*
X118109999Y-65845507D01*
X118069456Y-65849500D01*
X118069447Y-65849500D01*
X117948174Y-65861444D01*
X117792566Y-65908647D01*
X117649158Y-65985301D01*
X117523459Y-66088459D01*
X117497608Y-66119959D01*
X116944822Y-66672746D01*
X116872257Y-66687180D01*
X116694290Y-66760896D01*
X116534125Y-66867915D01*
X116397915Y-67004125D01*
X116290896Y-67164290D01*
X116217180Y-67342257D01*
X116201320Y-67421992D01*
X116150301Y-67484158D01*
X116073647Y-67627567D01*
X116045191Y-67721375D01*
X115927702Y-67686903D01*
X115114605Y-68500000D01*
X115128748Y-68514143D01*
X114949143Y-68693748D01*
X114935000Y-68679605D01*
X114920858Y-68693748D01*
X114741253Y-68514143D01*
X114755395Y-68500000D01*
X113942298Y-67686903D01*
X113698329Y-67758486D01*
X113577429Y-68013996D01*
X113508700Y-68288184D01*
X113494783Y-68570512D01*
X113536213Y-68850130D01*
X113598571Y-69024500D01*
X107355550Y-69024500D01*
X107314999Y-69020506D01*
X107274449Y-69024500D01*
X107274447Y-69024500D01*
X107153174Y-69036444D01*
X107022594Y-69076055D01*
X106997566Y-69083647D01*
X106854157Y-69160301D01*
X106815056Y-69192391D01*
X106728459Y-69263459D01*
X106702608Y-69294959D01*
X100409961Y-75587607D01*
X100378460Y-75613459D01*
X100352609Y-75644959D01*
X100275301Y-75739158D01*
X100198647Y-75882567D01*
X100151445Y-76038174D01*
X100135506Y-76200000D01*
X100139501Y-76240560D01*
X100139500Y-82765991D01*
X100113987Y-82783038D01*
X99928038Y-82968987D01*
X99781939Y-83187641D01*
X99681304Y-83430595D01*
X99630000Y-83688514D01*
X99630000Y-83951486D01*
X99681304Y-84209405D01*
X99781939Y-84452359D01*
X99928038Y-84671013D01*
X100113987Y-84856962D01*
X100332641Y-85003061D01*
X100575595Y-85103696D01*
X100833514Y-85155000D01*
X101096486Y-85155000D01*
X101354405Y-85103696D01*
X101597359Y-85003061D01*
X101816013Y-84856962D01*
X102001962Y-84671013D01*
X102148061Y-84452359D01*
X102248696Y-84209405D01*
X102300000Y-83951486D01*
X102300000Y-83688514D01*
X102248696Y-83430595D01*
X102148061Y-83187641D01*
X102001962Y-82968987D01*
X101816013Y-82783038D01*
X101790500Y-82765991D01*
X101790500Y-76541932D01*
X106553000Y-71779433D01*
X106553000Y-71892592D01*
X106606686Y-72162490D01*
X106711995Y-72416727D01*
X106864880Y-72645535D01*
X107059465Y-72840120D01*
X107288273Y-72993005D01*
X107542510Y-73098314D01*
X107812408Y-73152000D01*
X107999962Y-73152000D01*
X110172501Y-75324540D01*
X110172501Y-77710462D01*
X109347000Y-76884962D01*
X109347000Y-76697408D01*
X109293314Y-76427510D01*
X109188005Y-76173273D01*
X109035120Y-75944465D01*
X108840535Y-75749880D01*
X108611727Y-75596995D01*
X108357490Y-75491686D01*
X108087592Y-75438000D01*
X107812408Y-75438000D01*
X107542510Y-75491686D01*
X107288273Y-75596995D01*
X107059465Y-75749880D01*
X106864880Y-75944465D01*
X106711995Y-76173273D01*
X106606686Y-76427510D01*
X106553000Y-76697408D01*
X106553000Y-76972592D01*
X106606686Y-77242490D01*
X106711995Y-77496727D01*
X106864880Y-77725535D01*
X107059465Y-77920120D01*
X107288273Y-78073005D01*
X107542510Y-78178314D01*
X107812408Y-78232000D01*
X107999962Y-78232000D01*
X108902501Y-79134540D01*
X108902501Y-80891846D01*
X108840535Y-80829880D01*
X108611727Y-80676995D01*
X108357490Y-80571686D01*
X108087592Y-80518000D01*
X107812408Y-80518000D01*
X107542510Y-80571686D01*
X107288273Y-80676995D01*
X107059465Y-80829880D01*
X106864880Y-81024465D01*
X106711995Y-81253273D01*
X106606686Y-81507510D01*
X106553000Y-81777408D01*
X106553000Y-82052592D01*
X106606686Y-82322490D01*
X106711995Y-82576727D01*
X106864880Y-82805535D01*
X106997501Y-82938156D01*
X106997500Y-84408215D01*
X106992892Y-84455000D01*
X107008194Y-84610363D01*
X107011283Y-84641722D01*
X107065748Y-84821268D01*
X107154194Y-84986741D01*
X107273222Y-85131778D01*
X107309569Y-85161607D01*
X107756986Y-85609024D01*
X107542510Y-85651686D01*
X107288273Y-85756995D01*
X107059465Y-85909880D01*
X106864880Y-86104465D01*
X106711995Y-86333273D01*
X106606686Y-86587510D01*
X106553000Y-86857408D01*
X106553000Y-87132592D01*
X106606686Y-87402490D01*
X106711995Y-87656727D01*
X106864880Y-87885535D01*
X107059465Y-88080120D01*
X107288273Y-88233005D01*
X107542510Y-88338314D01*
X107812408Y-88392000D01*
X107999962Y-88392000D01*
X115405000Y-95797038D01*
X115405000Y-96026335D01*
X115460147Y-96303574D01*
X115568320Y-96564727D01*
X115725363Y-96799759D01*
X115925241Y-96999637D01*
X116160273Y-97156680D01*
X116170865Y-97161067D01*
X115984869Y-97272615D01*
X115776481Y-97461586D01*
X115608963Y-97687580D01*
X115488754Y-97941913D01*
X115448096Y-98075961D01*
X115570085Y-98298000D01*
X116713000Y-98298000D01*
X116713000Y-98278000D01*
X116967000Y-98278000D01*
X116967000Y-98298000D01*
X118109915Y-98298000D01*
X118231904Y-98075961D01*
X118191246Y-97941913D01*
X118071037Y-97687580D01*
X117903519Y-97461586D01*
X117695131Y-97272615D01*
X117509135Y-97161067D01*
X117519727Y-97156680D01*
X117754759Y-96999637D01*
X117954637Y-96799759D01*
X118111680Y-96564727D01*
X118219853Y-96303574D01*
X118275000Y-96026335D01*
X118275000Y-95743665D01*
X118219853Y-95466426D01*
X118111680Y-95205273D01*
X117954637Y-94970241D01*
X117754759Y-94770363D01*
X117522241Y-94615000D01*
X117754759Y-94459637D01*
X117954637Y-94259759D01*
X118111680Y-94024727D01*
X118219853Y-93763574D01*
X118275000Y-93486335D01*
X118275000Y-93203665D01*
X118219853Y-92926426D01*
X118111680Y-92665273D01*
X117954637Y-92430241D01*
X117754759Y-92230363D01*
X117522241Y-92075000D01*
X117754759Y-91919637D01*
X117954637Y-91719759D01*
X118111680Y-91484727D01*
X118219853Y-91223574D01*
X118275000Y-90946335D01*
X118275000Y-90663665D01*
X118219853Y-90386426D01*
X118111680Y-90125273D01*
X117954637Y-89890241D01*
X117754759Y-89690363D01*
X117522241Y-89535000D01*
X117754759Y-89379637D01*
X117954637Y-89179759D01*
X118111680Y-88944727D01*
X118219853Y-88683574D01*
X118275000Y-88406335D01*
X118275000Y-88123665D01*
X118219853Y-87846426D01*
X118111680Y-87585273D01*
X117954637Y-87350241D01*
X117754759Y-87150363D01*
X117522241Y-86995000D01*
X117754759Y-86839637D01*
X117954637Y-86639759D01*
X118111680Y-86404727D01*
X118219853Y-86143574D01*
X118275000Y-85866335D01*
X118275000Y-85583665D01*
X118219853Y-85306426D01*
X118111680Y-85045273D01*
X117954637Y-84810241D01*
X117756039Y-84611643D01*
X117764482Y-84610812D01*
X117884180Y-84574502D01*
X117994494Y-84515537D01*
X118091185Y-84436185D01*
X118170537Y-84339494D01*
X118229502Y-84229180D01*
X118265812Y-84109482D01*
X118278072Y-83985000D01*
X118275000Y-83470750D01*
X118116250Y-83312000D01*
X116967000Y-83312000D01*
X116967000Y-83332000D01*
X116713000Y-83332000D01*
X116713000Y-83312000D01*
X115563750Y-83312000D01*
X115405000Y-83470750D01*
X115401928Y-83985000D01*
X115414188Y-84109482D01*
X115450498Y-84229180D01*
X115509463Y-84339494D01*
X115588815Y-84436185D01*
X115685506Y-84515537D01*
X115795820Y-84574502D01*
X115915518Y-84610812D01*
X115923961Y-84611643D01*
X115725363Y-84810241D01*
X115568320Y-85045273D01*
X115460147Y-85306426D01*
X115421708Y-85499670D01*
X112307038Y-82385000D01*
X115401928Y-82385000D01*
X115405000Y-82899250D01*
X115563750Y-83058000D01*
X116713000Y-83058000D01*
X116713000Y-81908750D01*
X116967000Y-81908750D01*
X116967000Y-83058000D01*
X118116250Y-83058000D01*
X118275000Y-82899250D01*
X118278072Y-82385000D01*
X118265812Y-82260518D01*
X118229502Y-82140820D01*
X118170537Y-82030506D01*
X118091185Y-81933815D01*
X117994494Y-81854463D01*
X117884180Y-81795498D01*
X117764482Y-81759188D01*
X117640000Y-81746928D01*
X117125750Y-81750000D01*
X116967000Y-81908750D01*
X116713000Y-81908750D01*
X116554250Y-81750000D01*
X116040000Y-81746928D01*
X115915518Y-81759188D01*
X115795820Y-81795498D01*
X115685506Y-81854463D01*
X115588815Y-81933815D01*
X115509463Y-82030506D01*
X115450498Y-82140820D01*
X115414188Y-82260518D01*
X115401928Y-82385000D01*
X112307038Y-82385000D01*
X112077500Y-82155462D01*
X112077500Y-81002702D01*
X118566903Y-81002702D01*
X118638486Y-81246671D01*
X118893996Y-81367571D01*
X119168184Y-81436300D01*
X119450512Y-81450217D01*
X119730130Y-81408787D01*
X119996292Y-81313603D01*
X120121514Y-81246671D01*
X120193097Y-81002702D01*
X123646903Y-81002702D01*
X123718486Y-81246671D01*
X123973996Y-81367571D01*
X124248184Y-81436300D01*
X124530512Y-81450217D01*
X124810130Y-81408787D01*
X125076292Y-81313603D01*
X125201514Y-81246671D01*
X125273097Y-81002702D01*
X124460000Y-80189605D01*
X123646903Y-81002702D01*
X120193097Y-81002702D01*
X119380000Y-80189605D01*
X118566903Y-81002702D01*
X112077500Y-81002702D01*
X112077500Y-80080512D01*
X117939783Y-80080512D01*
X117981213Y-80360130D01*
X118076397Y-80626292D01*
X118143329Y-80751514D01*
X118387298Y-80823097D01*
X119200395Y-80010000D01*
X119559605Y-80010000D01*
X120372702Y-80823097D01*
X120616671Y-80751514D01*
X120737571Y-80496004D01*
X120806300Y-80221816D01*
X120813265Y-80080512D01*
X123019783Y-80080512D01*
X123061213Y-80360130D01*
X123156397Y-80626292D01*
X123223329Y-80751514D01*
X123467298Y-80823097D01*
X124280395Y-80010000D01*
X124639605Y-80010000D01*
X125452702Y-80823097D01*
X125696671Y-80751514D01*
X125817571Y-80496004D01*
X125886300Y-80221816D01*
X125897208Y-80000512D01*
X128099783Y-80000512D01*
X128141213Y-80280130D01*
X128236397Y-80546292D01*
X128303329Y-80671514D01*
X128547298Y-80743097D01*
X129360395Y-79930000D01*
X128547298Y-79116903D01*
X128303329Y-79188486D01*
X128182429Y-79443996D01*
X128113700Y-79718184D01*
X128099783Y-80000512D01*
X125897208Y-80000512D01*
X125900217Y-79939488D01*
X125858787Y-79659870D01*
X125763603Y-79393708D01*
X125696671Y-79268486D01*
X125452702Y-79196903D01*
X124639605Y-80010000D01*
X124280395Y-80010000D01*
X123467298Y-79196903D01*
X123223329Y-79268486D01*
X123102429Y-79523996D01*
X123033700Y-79798184D01*
X123019783Y-80080512D01*
X120813265Y-80080512D01*
X120820217Y-79939488D01*
X120778787Y-79659870D01*
X120683603Y-79393708D01*
X120616671Y-79268486D01*
X120372702Y-79196903D01*
X119559605Y-80010000D01*
X119200395Y-80010000D01*
X118387298Y-79196903D01*
X118143329Y-79268486D01*
X118022429Y-79523996D01*
X117953700Y-79798184D01*
X117939783Y-80080512D01*
X112077500Y-80080512D01*
X112077500Y-79017298D01*
X118566903Y-79017298D01*
X119380000Y-79830395D01*
X120193097Y-79017298D01*
X123646903Y-79017298D01*
X124460000Y-79830395D01*
X125273097Y-79017298D01*
X125249625Y-78937298D01*
X128726903Y-78937298D01*
X129540000Y-79750395D01*
X130353097Y-78937298D01*
X130281514Y-78693329D01*
X130026004Y-78572429D01*
X129751816Y-78503700D01*
X129469488Y-78489783D01*
X129189870Y-78531213D01*
X128923708Y-78626397D01*
X128798486Y-78693329D01*
X128726903Y-78937298D01*
X125249625Y-78937298D01*
X125201514Y-78773329D01*
X124946004Y-78652429D01*
X124671816Y-78583700D01*
X124389488Y-78569783D01*
X124109870Y-78611213D01*
X123843708Y-78706397D01*
X123718486Y-78773329D01*
X123646903Y-79017298D01*
X120193097Y-79017298D01*
X120121514Y-78773329D01*
X119866004Y-78652429D01*
X119591816Y-78583700D01*
X119309488Y-78569783D01*
X119029870Y-78611213D01*
X118763708Y-78706397D01*
X118638486Y-78773329D01*
X118566903Y-79017298D01*
X112077500Y-79017298D01*
X112077500Y-77192702D01*
X114121903Y-77192702D01*
X114193486Y-77436671D01*
X114448996Y-77557571D01*
X114723184Y-77626300D01*
X115005512Y-77640217D01*
X115285130Y-77598787D01*
X115551292Y-77503603D01*
X115676514Y-77436671D01*
X115748097Y-77192702D01*
X114935000Y-76379605D01*
X114121903Y-77192702D01*
X112077500Y-77192702D01*
X112077500Y-76270512D01*
X113494783Y-76270512D01*
X113536213Y-76550130D01*
X113631397Y-76816292D01*
X113698329Y-76941514D01*
X113942298Y-77013097D01*
X114755395Y-76200000D01*
X115114605Y-76200000D01*
X115927702Y-77013097D01*
X116171671Y-76941514D01*
X116292571Y-76686004D01*
X116361300Y-76411816D01*
X116375217Y-76129488D01*
X116333787Y-75849870D01*
X116238603Y-75583708D01*
X116171671Y-75458486D01*
X115927702Y-75386903D01*
X115114605Y-76200000D01*
X114755395Y-76200000D01*
X113942298Y-75386903D01*
X113698329Y-75458486D01*
X113577429Y-75713996D01*
X113508700Y-75988184D01*
X113494783Y-76270512D01*
X112077500Y-76270512D01*
X112077500Y-75207298D01*
X114121903Y-75207298D01*
X114935000Y-76020395D01*
X115748097Y-75207298D01*
X115676514Y-74963329D01*
X115421004Y-74842429D01*
X115146816Y-74773700D01*
X114864488Y-74759783D01*
X114584870Y-74801213D01*
X114318708Y-74896397D01*
X114193486Y-74963329D01*
X114121903Y-75207298D01*
X112077500Y-75207298D01*
X112077500Y-74976784D01*
X112082108Y-74929999D01*
X112063717Y-74743277D01*
X112017653Y-74591426D01*
X112009252Y-74563731D01*
X111920806Y-74398259D01*
X111801778Y-74253222D01*
X111765436Y-74223397D01*
X109347000Y-71804962D01*
X109347000Y-71617408D01*
X109293314Y-71347510D01*
X109188005Y-71093273D01*
X109035120Y-70864465D01*
X108846155Y-70675500D01*
X113599023Y-70675500D01*
X113555147Y-70781426D01*
X113500000Y-71058665D01*
X113500000Y-71341335D01*
X113555147Y-71618574D01*
X113663320Y-71879727D01*
X113820363Y-72114759D01*
X114020241Y-72314637D01*
X114255273Y-72471680D01*
X114516426Y-72579853D01*
X114793665Y-72635000D01*
X115076335Y-72635000D01*
X115353574Y-72579853D01*
X115614727Y-72471680D01*
X115849759Y-72314637D01*
X116049637Y-72114759D01*
X116206680Y-71879727D01*
X116314853Y-71618574D01*
X116370000Y-71341335D01*
X116370000Y-71058665D01*
X116349056Y-70953376D01*
X116760039Y-70542394D01*
X116791541Y-70516541D01*
X116867107Y-70424463D01*
X116894699Y-70390843D01*
X116935671Y-70314189D01*
X116967166Y-70255267D01*
X117395045Y-69827388D01*
X117426541Y-69801541D01*
X117452389Y-69770045D01*
X117452392Y-69770042D01*
X117529699Y-69675843D01*
X117606353Y-69532434D01*
X117611125Y-69516703D01*
X117653556Y-69376826D01*
X117665500Y-69255553D01*
X117665500Y-69255551D01*
X117669494Y-69215000D01*
X117665500Y-69174450D01*
X117665500Y-68464176D01*
X117780875Y-68387085D01*
X117917085Y-68250875D01*
X118024104Y-68090710D01*
X118097820Y-67912743D01*
X118112254Y-67840178D01*
X118451933Y-67500500D01*
X126912066Y-67500500D01*
X124071624Y-70340944D01*
X123966335Y-70320000D01*
X123683665Y-70320000D01*
X123406426Y-70375147D01*
X123145273Y-70483320D01*
X122910241Y-70640363D01*
X122711643Y-70838961D01*
X122710812Y-70830518D01*
X122674502Y-70710820D01*
X122615537Y-70600506D01*
X122536185Y-70503815D01*
X122439494Y-70424463D01*
X122329180Y-70365498D01*
X122209482Y-70329188D01*
X122085000Y-70316928D01*
X120485000Y-70316928D01*
X120360518Y-70329188D01*
X120240820Y-70365498D01*
X120130506Y-70424463D01*
X120033815Y-70503815D01*
X119954463Y-70600506D01*
X119895498Y-70710820D01*
X119859188Y-70830518D01*
X119846928Y-70955000D01*
X119846928Y-71024266D01*
X119770157Y-71065301D01*
X119675958Y-71142608D01*
X119675955Y-71142611D01*
X119644459Y-71168459D01*
X119618611Y-71199956D01*
X118824961Y-71993607D01*
X118793460Y-72019459D01*
X118767609Y-72050959D01*
X118690301Y-72145158D01*
X118613647Y-72288567D01*
X118566445Y-72444174D01*
X118550506Y-72606000D01*
X118554501Y-72646560D01*
X118554501Y-73835722D01*
X118465241Y-73895363D01*
X118265363Y-74095241D01*
X118108320Y-74330273D01*
X118000147Y-74591426D01*
X117945000Y-74868665D01*
X117945000Y-75151335D01*
X118000147Y-75428574D01*
X118108320Y-75689727D01*
X118265363Y-75924759D01*
X118465241Y-76124637D01*
X118700273Y-76281680D01*
X118961426Y-76389853D01*
X119238665Y-76445000D01*
X119521335Y-76445000D01*
X119798574Y-76389853D01*
X120059727Y-76281680D01*
X120294759Y-76124637D01*
X120494637Y-75924759D01*
X120651680Y-75689727D01*
X120759853Y-75428574D01*
X120815000Y-75151335D01*
X120815000Y-74868665D01*
X120759853Y-74591426D01*
X120651680Y-74330273D01*
X120494637Y-74095241D01*
X120294759Y-73895363D01*
X120205500Y-73835722D01*
X120205500Y-73125623D01*
X120240820Y-73144502D01*
X120360518Y-73180812D01*
X120485000Y-73193072D01*
X122085000Y-73193072D01*
X122209482Y-73180812D01*
X122329180Y-73144502D01*
X122439494Y-73085537D01*
X122536185Y-73006185D01*
X122615537Y-72909494D01*
X122674502Y-72799180D01*
X122710812Y-72679482D01*
X122711643Y-72671039D01*
X122910241Y-72869637D01*
X123145273Y-73026680D01*
X123406426Y-73134853D01*
X123683665Y-73190000D01*
X123777817Y-73190000D01*
X123770301Y-73199158D01*
X123693647Y-73342567D01*
X123646445Y-73498174D01*
X123630506Y-73660000D01*
X123634501Y-73700560D01*
X123634501Y-73835722D01*
X123545241Y-73895363D01*
X123345363Y-74095241D01*
X123188320Y-74330273D01*
X123080147Y-74591426D01*
X123025000Y-74868665D01*
X123025000Y-75151335D01*
X123080147Y-75428574D01*
X123188320Y-75689727D01*
X123345363Y-75924759D01*
X123545241Y-76124637D01*
X123780273Y-76281680D01*
X124041426Y-76389853D01*
X124318665Y-76445000D01*
X124601335Y-76445000D01*
X124878574Y-76389853D01*
X125139727Y-76281680D01*
X125374759Y-76124637D01*
X125574637Y-75924759D01*
X125731680Y-75689727D01*
X125839853Y-75428574D01*
X125895000Y-75151335D01*
X125895000Y-74868665D01*
X125839853Y-74591426D01*
X125731680Y-74330273D01*
X125574637Y-74095241D01*
X125383414Y-73904018D01*
X126118377Y-73169057D01*
X126223665Y-73190000D01*
X126506335Y-73190000D01*
X126783574Y-73134853D01*
X127044727Y-73026680D01*
X127279759Y-72869637D01*
X127479637Y-72669759D01*
X127635000Y-72437241D01*
X127790363Y-72669759D01*
X127990241Y-72869637D01*
X128225273Y-73026680D01*
X128486426Y-73134853D01*
X128763665Y-73190000D01*
X128857817Y-73190000D01*
X128850301Y-73199158D01*
X128773647Y-73342567D01*
X128726445Y-73498174D01*
X128710506Y-73660000D01*
X128714501Y-73700560D01*
X128714501Y-73755722D01*
X128625241Y-73815363D01*
X128425363Y-74015241D01*
X128268320Y-74250273D01*
X128160147Y-74511426D01*
X128105000Y-74788665D01*
X128105000Y-75071335D01*
X128160147Y-75348574D01*
X128268320Y-75609727D01*
X128425363Y-75844759D01*
X128625241Y-76044637D01*
X128860273Y-76201680D01*
X129121426Y-76309853D01*
X129218449Y-76329152D01*
X129222566Y-76331353D01*
X129378174Y-76378556D01*
X129540000Y-76394494D01*
X129701825Y-76378556D01*
X129857433Y-76331353D01*
X129861550Y-76329153D01*
X129958574Y-76309853D01*
X130219727Y-76201680D01*
X130454759Y-76044637D01*
X130654637Y-75844759D01*
X130811680Y-75609727D01*
X130919853Y-75348574D01*
X130975000Y-75071335D01*
X130975000Y-74788665D01*
X130919853Y-74511426D01*
X130811680Y-74250273D01*
X130654637Y-74015241D01*
X130503414Y-73864018D01*
X131198377Y-73169057D01*
X131303665Y-73190000D01*
X131586335Y-73190000D01*
X131863574Y-73134853D01*
X132124727Y-73026680D01*
X132359759Y-72869637D01*
X132559637Y-72669759D01*
X132715000Y-72437241D01*
X132870363Y-72669759D01*
X133070241Y-72869637D01*
X133305273Y-73026680D01*
X133566426Y-73134853D01*
X133843665Y-73190000D01*
X134126335Y-73190000D01*
X134403574Y-73134853D01*
X134664727Y-73026680D01*
X134899759Y-72869637D01*
X135099637Y-72669759D01*
X135255915Y-72435872D01*
X135288329Y-72496514D01*
X135532298Y-72568097D01*
X136345395Y-71755000D01*
X136331253Y-71740858D01*
X136510858Y-71561253D01*
X136525000Y-71575395D01*
X137338097Y-70762298D01*
X137266514Y-70518329D01*
X137011004Y-70397429D01*
X136736816Y-70328700D01*
X136586159Y-70321274D01*
X143087680Y-63819754D01*
X143160243Y-63805320D01*
X143338210Y-63731604D01*
X143498375Y-63624585D01*
X143634585Y-63488375D01*
X143741604Y-63328210D01*
X143815320Y-63150243D01*
X143829754Y-63077678D01*
X145803376Y-61104056D01*
X145908665Y-61125000D01*
X146191335Y-61125000D01*
X146468574Y-61069853D01*
X146729727Y-60961680D01*
X146964759Y-60804637D01*
X147164637Y-60604759D01*
X147320000Y-60372241D01*
X147475363Y-60604759D01*
X147675241Y-60804637D01*
X147910273Y-60961680D01*
X148171426Y-61069853D01*
X148448665Y-61125000D01*
X148527566Y-61125000D01*
X142344822Y-67307746D01*
X142272257Y-67322180D01*
X142094290Y-67395896D01*
X141934125Y-67502915D01*
X141797915Y-67639125D01*
X141690896Y-67799290D01*
X141617180Y-67977257D01*
X141579600Y-68166185D01*
X141579600Y-68358815D01*
X141617180Y-68547743D01*
X141653101Y-68634466D01*
X137618587Y-72668980D01*
X137517704Y-72568097D01*
X137761671Y-72496514D01*
X137882571Y-72241004D01*
X137951300Y-71966816D01*
X137965217Y-71684488D01*
X137923787Y-71404870D01*
X137828603Y-71138708D01*
X137761671Y-71013486D01*
X137517702Y-70941903D01*
X136704605Y-71755000D01*
X136718748Y-71769143D01*
X136539143Y-71948748D01*
X136525000Y-71934605D01*
X135711903Y-72747702D01*
X135783486Y-72991671D01*
X136038996Y-73112571D01*
X136313184Y-73181300D01*
X136595512Y-73195217D01*
X136875130Y-73153787D01*
X137141292Y-73058603D01*
X137266514Y-72991671D01*
X137338097Y-72747704D01*
X137438980Y-72848587D01*
X130877915Y-79409653D01*
X130843603Y-79313708D01*
X130776671Y-79188486D01*
X130532702Y-79116903D01*
X129719605Y-79930000D01*
X129733748Y-79944143D01*
X129554143Y-80123748D01*
X129540000Y-80109605D01*
X128726903Y-80922702D01*
X128798486Y-81166671D01*
X129017341Y-81270227D01*
X128984961Y-81302607D01*
X128953460Y-81328459D01*
X128927609Y-81359959D01*
X128850301Y-81454158D01*
X128773647Y-81597567D01*
X128726445Y-81753174D01*
X128710506Y-81915000D01*
X128714501Y-81955560D01*
X128714501Y-82010722D01*
X128625241Y-82070363D01*
X128425363Y-82270241D01*
X128268320Y-82505273D01*
X128160147Y-82766426D01*
X128105000Y-83043665D01*
X128105000Y-83326335D01*
X128160147Y-83603574D01*
X128268320Y-83864727D01*
X128425363Y-84099759D01*
X128625241Y-84299637D01*
X128857759Y-84455000D01*
X128625241Y-84610363D01*
X128425363Y-84810241D01*
X128268320Y-85045273D01*
X128160147Y-85306426D01*
X128105000Y-85583665D01*
X128105000Y-85866335D01*
X128160147Y-86143574D01*
X128268320Y-86404727D01*
X128425363Y-86639759D01*
X128625241Y-86839637D01*
X128857759Y-86995000D01*
X128625241Y-87150363D01*
X128425363Y-87350241D01*
X128268320Y-87585273D01*
X128160147Y-87846426D01*
X128105000Y-88123665D01*
X128105000Y-88406335D01*
X128160147Y-88683574D01*
X128268320Y-88944727D01*
X128425363Y-89179759D01*
X128625241Y-89379637D01*
X128857759Y-89535000D01*
X128625241Y-89690363D01*
X128425363Y-89890241D01*
X128268320Y-90125273D01*
X128160147Y-90386426D01*
X128105000Y-90663665D01*
X128105000Y-90946335D01*
X128160147Y-91223574D01*
X128268320Y-91484727D01*
X128425363Y-91719759D01*
X128625241Y-91919637D01*
X128857759Y-92075000D01*
X128625241Y-92230363D01*
X128425363Y-92430241D01*
X128268320Y-92665273D01*
X128160147Y-92926426D01*
X128105000Y-93203665D01*
X128105000Y-93486335D01*
X128160147Y-93763574D01*
X128268320Y-94024727D01*
X128425363Y-94259759D01*
X128625241Y-94459637D01*
X128857759Y-94615000D01*
X128625241Y-94770363D01*
X128425363Y-94970241D01*
X128268320Y-95205273D01*
X128160147Y-95466426D01*
X128105000Y-95743665D01*
X128105000Y-96026335D01*
X128160147Y-96303574D01*
X128268320Y-96564727D01*
X128425363Y-96799759D01*
X128625241Y-96999637D01*
X128857759Y-97155000D01*
X128625241Y-97310363D01*
X128425363Y-97510241D01*
X128268320Y-97745273D01*
X128160147Y-98006426D01*
X128105000Y-98283665D01*
X128105000Y-98566335D01*
X128160147Y-98843574D01*
X128268320Y-99104727D01*
X128425363Y-99339759D01*
X128625241Y-99539637D01*
X128857759Y-99695000D01*
X128625241Y-99850363D01*
X128425363Y-100050241D01*
X128268320Y-100285273D01*
X128160147Y-100546426D01*
X128105000Y-100823665D01*
X128105000Y-101106335D01*
X128160147Y-101383574D01*
X128268320Y-101644727D01*
X128425363Y-101879759D01*
X128625241Y-102079637D01*
X128860273Y-102236680D01*
X129121426Y-102344853D01*
X129398665Y-102400000D01*
X129681335Y-102400000D01*
X129861527Y-102364157D01*
X131102948Y-103605579D01*
X131139680Y-103790243D01*
X131213396Y-103968210D01*
X131320415Y-104128375D01*
X131456625Y-104264585D01*
X131616790Y-104371604D01*
X131794757Y-104445320D01*
X131979422Y-104482052D01*
X134054716Y-106557346D01*
X134078578Y-106586422D01*
X134152219Y-106646857D01*
X134194607Y-106681645D01*
X134264425Y-106718963D01*
X134326985Y-106752402D01*
X134470622Y-106795974D01*
X134582574Y-106807000D01*
X134582577Y-106807000D01*
X134620000Y-106810686D01*
X134657423Y-106807000D01*
X135033812Y-106807000D01*
X134926586Y-106886481D01*
X134737615Y-107094869D01*
X134626067Y-107280865D01*
X134621680Y-107270273D01*
X134464637Y-107035241D01*
X134264759Y-106835363D01*
X134029727Y-106678320D01*
X133768574Y-106570147D01*
X133491335Y-106515000D01*
X133208665Y-106515000D01*
X132931426Y-106570147D01*
X132670273Y-106678320D01*
X132435241Y-106835363D01*
X132235363Y-107035241D01*
X132080000Y-107267759D01*
X131924637Y-107035241D01*
X131724759Y-106835363D01*
X131489727Y-106678320D01*
X131228574Y-106570147D01*
X130951335Y-106515000D01*
X130668665Y-106515000D01*
X130391426Y-106570147D01*
X130130273Y-106678320D01*
X129895241Y-106835363D01*
X129695363Y-107035241D01*
X129540000Y-107267759D01*
X129384637Y-107035241D01*
X129184759Y-106835363D01*
X128949727Y-106678320D01*
X128688574Y-106570147D01*
X128411335Y-106515000D01*
X128128665Y-106515000D01*
X127851426Y-106570147D01*
X127590273Y-106678320D01*
X127355241Y-106835363D01*
X127155363Y-107035241D01*
X127000000Y-107267759D01*
X126844637Y-107035241D01*
X126644759Y-106835363D01*
X126409727Y-106678320D01*
X126148574Y-106570147D01*
X125871335Y-106515000D01*
X125588665Y-106515000D01*
X125311426Y-106570147D01*
X125050273Y-106678320D01*
X124815241Y-106835363D01*
X124616643Y-107033961D01*
X124615812Y-107025518D01*
X124579502Y-106905820D01*
X124520537Y-106795506D01*
X124441185Y-106698815D01*
X124344494Y-106619463D01*
X124234180Y-106560498D01*
X124114482Y-106524188D01*
X123990000Y-106511928D01*
X122390000Y-106511928D01*
X122265518Y-106524188D01*
X122145820Y-106560498D01*
X122035506Y-106619463D01*
X121938815Y-106698815D01*
X121859463Y-106795506D01*
X121800498Y-106905820D01*
X121764188Y-107025518D01*
X121751928Y-107150000D01*
X121751928Y-108750000D01*
X121764188Y-108874482D01*
X121800498Y-108994180D01*
X121859463Y-109104494D01*
X121938815Y-109201185D01*
X122035506Y-109280537D01*
X122145820Y-109339502D01*
X122265518Y-109375812D01*
X122390000Y-109388072D01*
X123990000Y-109388072D01*
X124114482Y-109375812D01*
X124234180Y-109339502D01*
X124344494Y-109280537D01*
X124441185Y-109201185D01*
X124520537Y-109104494D01*
X124579502Y-108994180D01*
X124615812Y-108874482D01*
X124616643Y-108866039D01*
X124815241Y-109064637D01*
X125050273Y-109221680D01*
X125311426Y-109329853D01*
X125588665Y-109385000D01*
X125871335Y-109385000D01*
X126148574Y-109329853D01*
X126409727Y-109221680D01*
X126644759Y-109064637D01*
X126844637Y-108864759D01*
X127000000Y-108632241D01*
X127155363Y-108864759D01*
X127355241Y-109064637D01*
X127590273Y-109221680D01*
X127851426Y-109329853D01*
X128128665Y-109385000D01*
X128411335Y-109385000D01*
X128688574Y-109329853D01*
X128949727Y-109221680D01*
X129184759Y-109064637D01*
X129384637Y-108864759D01*
X129540000Y-108632241D01*
X129695363Y-108864759D01*
X129895241Y-109064637D01*
X130130273Y-109221680D01*
X130391426Y-109329853D01*
X130668665Y-109385000D01*
X130951335Y-109385000D01*
X131228574Y-109329853D01*
X131489727Y-109221680D01*
X131724759Y-109064637D01*
X131924637Y-108864759D01*
X132080000Y-108632241D01*
X132235363Y-108864759D01*
X132435241Y-109064637D01*
X132670273Y-109221680D01*
X132931426Y-109329853D01*
X133208665Y-109385000D01*
X133491335Y-109385000D01*
X133768574Y-109329853D01*
X134029727Y-109221680D01*
X134264759Y-109064637D01*
X134464637Y-108864759D01*
X134621680Y-108629727D01*
X134626067Y-108619135D01*
X134737615Y-108805131D01*
X134926586Y-109013519D01*
X135152580Y-109181037D01*
X135406913Y-109301246D01*
X135540961Y-109341904D01*
X135763000Y-109219915D01*
X135763000Y-108077000D01*
X136017000Y-108077000D01*
X136017000Y-109219915D01*
X136239039Y-109341904D01*
X136373087Y-109301246D01*
X136627420Y-109181037D01*
X136853414Y-109013519D01*
X137042385Y-108805131D01*
X137160000Y-108609018D01*
X137277615Y-108805131D01*
X137466586Y-109013519D01*
X137692580Y-109181037D01*
X137946913Y-109301246D01*
X138080961Y-109341904D01*
X138303000Y-109219915D01*
X138303000Y-108077000D01*
X136017000Y-108077000D01*
X135763000Y-108077000D01*
X135743000Y-108077000D01*
X135743000Y-107823000D01*
X135763000Y-107823000D01*
X135763000Y-107803000D01*
X136017000Y-107803000D01*
X136017000Y-107823000D01*
X138303000Y-107823000D01*
X138303000Y-107803000D01*
X138557000Y-107803000D01*
X138557000Y-107823000D01*
X138577000Y-107823000D01*
X138577000Y-108077000D01*
X138557000Y-108077000D01*
X138557000Y-109219915D01*
X138779039Y-109341904D01*
X138913087Y-109301246D01*
X139167420Y-109181037D01*
X139393414Y-109013519D01*
X139582385Y-108805131D01*
X139693933Y-108619135D01*
X139698320Y-108629727D01*
X139855363Y-108864759D01*
X140055241Y-109064637D01*
X140290273Y-109221680D01*
X140551426Y-109329853D01*
X140828665Y-109385000D01*
X141111335Y-109385000D01*
X141388574Y-109329853D01*
X141649727Y-109221680D01*
X141884759Y-109064637D01*
X142084637Y-108864759D01*
X142241680Y-108629727D01*
X142349853Y-108368574D01*
X142405000Y-108091335D01*
X142405000Y-107808665D01*
X142349853Y-107531426D01*
X142241680Y-107270273D01*
X142084637Y-107035241D01*
X141884759Y-106835363D01*
X141842311Y-106807000D01*
X145177689Y-106807000D01*
X145135241Y-106835363D01*
X144935363Y-107035241D01*
X144778320Y-107270273D01*
X144670147Y-107531426D01*
X144615000Y-107808665D01*
X144615000Y-108091335D01*
X144670147Y-108368574D01*
X144778320Y-108629727D01*
X144935363Y-108864759D01*
X145135241Y-109064637D01*
X145370273Y-109221680D01*
X145631426Y-109329853D01*
X145908665Y-109385000D01*
X146191335Y-109385000D01*
X146468574Y-109329853D01*
X146729727Y-109221680D01*
X146964759Y-109064637D01*
X147164637Y-108864759D01*
X147320000Y-108632241D01*
X147475363Y-108864759D01*
X147675241Y-109064637D01*
X147910273Y-109221680D01*
X148171426Y-109329853D01*
X148448665Y-109385000D01*
X148731335Y-109385000D01*
X149008574Y-109329853D01*
X149269727Y-109221680D01*
X149504759Y-109064637D01*
X149704637Y-108864759D01*
X149860000Y-108632241D01*
X150015363Y-108864759D01*
X150215241Y-109064637D01*
X150450273Y-109221680D01*
X150711426Y-109329853D01*
X150988665Y-109385000D01*
X151271335Y-109385000D01*
X151548574Y-109329853D01*
X151809727Y-109221680D01*
X152044759Y-109064637D01*
X152244637Y-108864759D01*
X152400000Y-108632241D01*
X152555363Y-108864759D01*
X152755241Y-109064637D01*
X152990273Y-109221680D01*
X153251426Y-109329853D01*
X153528665Y-109385000D01*
X153811335Y-109385000D01*
X154088574Y-109329853D01*
X154349727Y-109221680D01*
X154584759Y-109064637D01*
X154784637Y-108864759D01*
X154940000Y-108632241D01*
X155095363Y-108864759D01*
X155295241Y-109064637D01*
X155530273Y-109221680D01*
X155791426Y-109329853D01*
X156068665Y-109385000D01*
X156351335Y-109385000D01*
X156628574Y-109329853D01*
X156889727Y-109221680D01*
X157124759Y-109064637D01*
X157324637Y-108864759D01*
X157480000Y-108632241D01*
X157635363Y-108864759D01*
X157835241Y-109064637D01*
X158070273Y-109221680D01*
X158331426Y-109329853D01*
X158608665Y-109385000D01*
X158891335Y-109385000D01*
X159168574Y-109329853D01*
X159429727Y-109221680D01*
X159664759Y-109064637D01*
X159864637Y-108864759D01*
X160021680Y-108629727D01*
X160129853Y-108368574D01*
X160185000Y-108091335D01*
X160185000Y-107808665D01*
X160129853Y-107531426D01*
X160021680Y-107270273D01*
X159864637Y-107035241D01*
X159664759Y-106835363D01*
X159429727Y-106678320D01*
X159168574Y-106570147D01*
X158891335Y-106515000D01*
X158608665Y-106515000D01*
X158428473Y-106550843D01*
X155505284Y-103627654D01*
X155481422Y-103598578D01*
X155365392Y-103503355D01*
X155233015Y-103432598D01*
X155089378Y-103389026D01*
X154977426Y-103378000D01*
X154977423Y-103378000D01*
X154940000Y-103374314D01*
X154902577Y-103378000D01*
X140015630Y-103378000D01*
X139630284Y-102992654D01*
X139630279Y-102992648D01*
X136602631Y-99965000D01*
X151431928Y-99965000D01*
X151431928Y-101965000D01*
X151444188Y-102089482D01*
X151480498Y-102209180D01*
X151539463Y-102319494D01*
X151618815Y-102416185D01*
X151715506Y-102495537D01*
X151825820Y-102554502D01*
X151945518Y-102590812D01*
X152070000Y-102603072D01*
X155270000Y-102603072D01*
X155394482Y-102590812D01*
X155514180Y-102554502D01*
X155624494Y-102495537D01*
X155721185Y-102416185D01*
X155800537Y-102319494D01*
X155859502Y-102209180D01*
X155895812Y-102089482D01*
X155908072Y-101965000D01*
X155908072Y-99965000D01*
X155895812Y-99840518D01*
X155859502Y-99720820D01*
X155800537Y-99610506D01*
X155721185Y-99513815D01*
X155624494Y-99434463D01*
X155514180Y-99375498D01*
X155394482Y-99339188D01*
X155270000Y-99326928D01*
X152070000Y-99326928D01*
X151945518Y-99339188D01*
X151825820Y-99375498D01*
X151715506Y-99434463D01*
X151618815Y-99513815D01*
X151539463Y-99610506D01*
X151480498Y-99720820D01*
X151444188Y-99840518D01*
X151431928Y-99965000D01*
X136602631Y-99965000D01*
X133057052Y-96419422D01*
X133020320Y-96234757D01*
X132946604Y-96056790D01*
X132839585Y-95896625D01*
X132703375Y-95760415D01*
X132693047Y-95753514D01*
X134555000Y-95753514D01*
X134555000Y-96016486D01*
X134606304Y-96274405D01*
X134706939Y-96517359D01*
X134853038Y-96736013D01*
X135038987Y-96921962D01*
X135257641Y-97068061D01*
X135500595Y-97168696D01*
X135758514Y-97220000D01*
X136021486Y-97220000D01*
X136279405Y-97168696D01*
X136522359Y-97068061D01*
X136741013Y-96921962D01*
X136926962Y-96736013D01*
X137073061Y-96517359D01*
X137173696Y-96274405D01*
X137225000Y-96016486D01*
X137225000Y-95753514D01*
X138365000Y-95753514D01*
X138365000Y-96016486D01*
X138416304Y-96274405D01*
X138516939Y-96517359D01*
X138663038Y-96736013D01*
X138848987Y-96921962D01*
X139067641Y-97068061D01*
X139310595Y-97168696D01*
X139568514Y-97220000D01*
X139831486Y-97220000D01*
X140089405Y-97168696D01*
X140332359Y-97068061D01*
X140551013Y-96921962D01*
X140736962Y-96736013D01*
X140883061Y-96517359D01*
X140983696Y-96274405D01*
X141035000Y-96016486D01*
X141035000Y-95753514D01*
X140983696Y-95495595D01*
X140883061Y-95252641D01*
X140736962Y-95033987D01*
X140551013Y-94848038D01*
X140332359Y-94701939D01*
X140089405Y-94601304D01*
X139831486Y-94550000D01*
X139568514Y-94550000D01*
X139310595Y-94601304D01*
X139067641Y-94701939D01*
X138848987Y-94848038D01*
X138663038Y-95033987D01*
X138516939Y-95252641D01*
X138416304Y-95495595D01*
X138365000Y-95753514D01*
X137225000Y-95753514D01*
X137173696Y-95495595D01*
X137073061Y-95252641D01*
X136926962Y-95033987D01*
X136741013Y-94848038D01*
X136522359Y-94701939D01*
X136279405Y-94601304D01*
X136021486Y-94550000D01*
X135758514Y-94550000D01*
X135500595Y-94601304D01*
X135257641Y-94701939D01*
X135038987Y-94848038D01*
X134853038Y-95033987D01*
X134706939Y-95252641D01*
X134606304Y-95495595D01*
X134555000Y-95753514D01*
X132693047Y-95753514D01*
X132543210Y-95653396D01*
X132365243Y-95579680D01*
X132180578Y-95542948D01*
X130751870Y-94114240D01*
X130811680Y-94024727D01*
X130919853Y-93763574D01*
X130975000Y-93486335D01*
X130975000Y-93203665D01*
X130919853Y-92926426D01*
X130811680Y-92665273D01*
X130654637Y-92430241D01*
X130454759Y-92230363D01*
X130222241Y-92075000D01*
X130454759Y-91919637D01*
X130654637Y-91719759D01*
X130811680Y-91484727D01*
X130919853Y-91223574D01*
X130975000Y-90946335D01*
X130975000Y-90663665D01*
X130919853Y-90386426D01*
X130811680Y-90125273D01*
X130654637Y-89890241D01*
X130454759Y-89690363D01*
X130222241Y-89535000D01*
X130454759Y-89379637D01*
X130654637Y-89179759D01*
X130811680Y-88944727D01*
X130919853Y-88683574D01*
X130975000Y-88406335D01*
X130975000Y-88123665D01*
X130919853Y-87846426D01*
X130811680Y-87585273D01*
X130654637Y-87350241D01*
X130454759Y-87150363D01*
X130222241Y-86995000D01*
X130454759Y-86839637D01*
X130654637Y-86639759D01*
X130811680Y-86404727D01*
X130919853Y-86143574D01*
X130975000Y-85866335D01*
X130975000Y-85593514D01*
X134555000Y-85593514D01*
X134555000Y-85856486D01*
X134606304Y-86114405D01*
X134706939Y-86357359D01*
X134853038Y-86576013D01*
X135038987Y-86761962D01*
X135257641Y-86908061D01*
X135467530Y-86995000D01*
X135257641Y-87081939D01*
X135038987Y-87228038D01*
X134853038Y-87413987D01*
X134706939Y-87632641D01*
X134606304Y-87875595D01*
X134555000Y-88133514D01*
X134555000Y-88396486D01*
X134606304Y-88654405D01*
X134706939Y-88897359D01*
X134853038Y-89116013D01*
X135038987Y-89301962D01*
X135257641Y-89448061D01*
X135500595Y-89548696D01*
X135758514Y-89600000D01*
X136021486Y-89600000D01*
X136279405Y-89548696D01*
X136522359Y-89448061D01*
X136741013Y-89301962D01*
X136926962Y-89116013D01*
X136944009Y-89090500D01*
X138645991Y-89090500D01*
X138663038Y-89116013D01*
X138848987Y-89301962D01*
X138874501Y-89319010D01*
X138874500Y-91354449D01*
X138870506Y-91395000D01*
X138874500Y-91435550D01*
X138874500Y-91435552D01*
X138886444Y-91556825D01*
X138920020Y-91667510D01*
X138933647Y-91712433D01*
X139010301Y-91855842D01*
X139018139Y-91865392D01*
X139113459Y-91981541D01*
X139144966Y-92007398D01*
X141942746Y-94805180D01*
X141957180Y-94877743D01*
X142030896Y-95055710D01*
X142137915Y-95215875D01*
X142274125Y-95352085D01*
X142434290Y-95459104D01*
X142612257Y-95532820D01*
X142684822Y-95547254D01*
X144585857Y-97448290D01*
X144535000Y-97703967D01*
X144535000Y-98026033D01*
X144597832Y-98341912D01*
X144721082Y-98639463D01*
X144900013Y-98907252D01*
X145127748Y-99134987D01*
X145395537Y-99313918D01*
X145693088Y-99437168D01*
X146008967Y-99500000D01*
X146331033Y-99500000D01*
X146646912Y-99437168D01*
X146944463Y-99313918D01*
X147212252Y-99134987D01*
X147439987Y-98907252D01*
X147618918Y-98639463D01*
X147742168Y-98341912D01*
X147805000Y-98026033D01*
X147805000Y-97703967D01*
X147742168Y-97388088D01*
X147618918Y-97090537D01*
X147439987Y-96822748D01*
X147212252Y-96595013D01*
X147115065Y-96530075D01*
X147125808Y-96500413D01*
X146170000Y-95544605D01*
X146155858Y-95558748D01*
X145976253Y-95379143D01*
X145990395Y-95365000D01*
X145976253Y-95350858D01*
X146155858Y-95171253D01*
X146170000Y-95185395D01*
X146184143Y-95171253D01*
X146363748Y-95350858D01*
X146349605Y-95365000D01*
X147305413Y-96320808D01*
X147569814Y-96225044D01*
X147710704Y-95935429D01*
X147792384Y-95623892D01*
X147811718Y-95302405D01*
X147767961Y-94983325D01*
X147662795Y-94678912D01*
X147569814Y-94504956D01*
X147420777Y-94450976D01*
X147524494Y-94395537D01*
X147621185Y-94316185D01*
X147700537Y-94219494D01*
X147759502Y-94109180D01*
X147795812Y-93989482D01*
X147808072Y-93865000D01*
X147808072Y-91865000D01*
X147795812Y-91740518D01*
X147759502Y-91620820D01*
X147700537Y-91510506D01*
X147621185Y-91413815D01*
X147524494Y-91334463D01*
X147414180Y-91275498D01*
X147294482Y-91239188D01*
X147170000Y-91226928D01*
X146900734Y-91226928D01*
X146859699Y-91150157D01*
X146782391Y-91055958D01*
X146756541Y-91024459D01*
X146725039Y-90998606D01*
X144491433Y-88765000D01*
X151431928Y-88765000D01*
X151431928Y-90765000D01*
X151444188Y-90889482D01*
X151480498Y-91009180D01*
X151539463Y-91119494D01*
X151618815Y-91216185D01*
X151715506Y-91295537D01*
X151825820Y-91354502D01*
X151945518Y-91390812D01*
X152070000Y-91403072D01*
X155270000Y-91403072D01*
X155394482Y-91390812D01*
X155514180Y-91354502D01*
X155624494Y-91295537D01*
X155721185Y-91216185D01*
X155800537Y-91119494D01*
X155859502Y-91009180D01*
X155895812Y-90889482D01*
X155908072Y-90765000D01*
X155908072Y-88765000D01*
X155895812Y-88640518D01*
X155859502Y-88520820D01*
X155800537Y-88410506D01*
X155721185Y-88313815D01*
X155624494Y-88234463D01*
X155514180Y-88175498D01*
X155394482Y-88139188D01*
X155270000Y-88126928D01*
X152070000Y-88126928D01*
X151945518Y-88139188D01*
X151825820Y-88175498D01*
X151715506Y-88234463D01*
X151618815Y-88313815D01*
X151539463Y-88410506D01*
X151480498Y-88520820D01*
X151444188Y-88640518D01*
X151431928Y-88765000D01*
X144491433Y-88765000D01*
X143804254Y-88077822D01*
X143789820Y-88005257D01*
X143716104Y-87827290D01*
X143609085Y-87667125D01*
X143472875Y-87530915D01*
X143312710Y-87423896D01*
X143134743Y-87350180D01*
X143062180Y-87335746D01*
X140928307Y-85201875D01*
X140883061Y-85092641D01*
X140793441Y-84958514D01*
X149160000Y-84958514D01*
X149160000Y-85221486D01*
X149211304Y-85479405D01*
X149311939Y-85722359D01*
X149458038Y-85941013D01*
X149643987Y-86126962D01*
X149862641Y-86273061D01*
X150105595Y-86373696D01*
X150363514Y-86425000D01*
X150626486Y-86425000D01*
X150884405Y-86373696D01*
X151127359Y-86273061D01*
X151346013Y-86126962D01*
X151531962Y-85941013D01*
X151678061Y-85722359D01*
X151778696Y-85479405D01*
X151830000Y-85221486D01*
X151830000Y-84958514D01*
X151778696Y-84700595D01*
X151678061Y-84457641D01*
X151531962Y-84238987D01*
X151346013Y-84053038D01*
X151127359Y-83906939D01*
X150884405Y-83806304D01*
X150626486Y-83755000D01*
X150363514Y-83755000D01*
X150105595Y-83806304D01*
X149862641Y-83906939D01*
X149643987Y-84053038D01*
X149458038Y-84238987D01*
X149311939Y-84457641D01*
X149211304Y-84700595D01*
X149160000Y-84958514D01*
X140793441Y-84958514D01*
X140736962Y-84873987D01*
X140551013Y-84688038D01*
X140332359Y-84541939D01*
X140089405Y-84441304D01*
X139831486Y-84390000D01*
X139568514Y-84390000D01*
X139310595Y-84441304D01*
X139067641Y-84541939D01*
X138848987Y-84688038D01*
X138663038Y-84873987D01*
X138645991Y-84899500D01*
X136944009Y-84899500D01*
X136926962Y-84873987D01*
X136741013Y-84688038D01*
X136522359Y-84541939D01*
X136279405Y-84441304D01*
X136021486Y-84390000D01*
X135758514Y-84390000D01*
X135500595Y-84441304D01*
X135257641Y-84541939D01*
X135038987Y-84688038D01*
X134853038Y-84873987D01*
X134706939Y-85092641D01*
X134606304Y-85335595D01*
X134555000Y-85593514D01*
X130975000Y-85593514D01*
X130975000Y-85583665D01*
X130954056Y-85478376D01*
X135283918Y-81148514D01*
X149160000Y-81148514D01*
X149160000Y-81411486D01*
X149211304Y-81669405D01*
X149311939Y-81912359D01*
X149458038Y-82131013D01*
X149643987Y-82316962D01*
X149862641Y-82463061D01*
X150105595Y-82563696D01*
X150363514Y-82615000D01*
X150626486Y-82615000D01*
X150884405Y-82563696D01*
X151127359Y-82463061D01*
X151346013Y-82316962D01*
X151531962Y-82131013D01*
X151678061Y-81912359D01*
X151778696Y-81669405D01*
X151830000Y-81411486D01*
X151830000Y-81148514D01*
X156780000Y-81148514D01*
X156780000Y-81411486D01*
X156831304Y-81669405D01*
X156931939Y-81912359D01*
X157078038Y-82131013D01*
X157263987Y-82316962D01*
X157353001Y-82376439D01*
X157353000Y-83993562D01*
X157263987Y-84053038D01*
X157078038Y-84238987D01*
X156931939Y-84457641D01*
X156831304Y-84700595D01*
X156780000Y-84958514D01*
X156780000Y-85221486D01*
X156831304Y-85479405D01*
X156931939Y-85722359D01*
X157078038Y-85941013D01*
X157263987Y-86126962D01*
X157353000Y-86186438D01*
X157353000Y-86375239D01*
X157248396Y-86531790D01*
X157174680Y-86709757D01*
X157137100Y-86898685D01*
X157137100Y-87091315D01*
X157174680Y-87280243D01*
X157248396Y-87458210D01*
X157353001Y-87614762D01*
X157353000Y-95272577D01*
X157349314Y-95310000D01*
X157353000Y-95347423D01*
X157353000Y-95347425D01*
X157364026Y-95459377D01*
X157407598Y-95603014D01*
X157407599Y-95603015D01*
X157478355Y-95735392D01*
X157498891Y-95760415D01*
X157573578Y-95851422D01*
X157602654Y-95875284D01*
X159102995Y-97375625D01*
X159097832Y-97388088D01*
X159035000Y-97703967D01*
X159035000Y-98026033D01*
X159097832Y-98341912D01*
X159221082Y-98639463D01*
X159400013Y-98907252D01*
X159627748Y-99134987D01*
X159895537Y-99313918D01*
X160193088Y-99437168D01*
X160508967Y-99500000D01*
X160831033Y-99500000D01*
X161146912Y-99437168D01*
X161444463Y-99313918D01*
X161712252Y-99134987D01*
X161939987Y-98907252D01*
X162118918Y-98639463D01*
X162242168Y-98341912D01*
X162305000Y-98026033D01*
X162305000Y-97703967D01*
X162242168Y-97388088D01*
X162118918Y-97090537D01*
X161939987Y-96822748D01*
X161712252Y-96595013D01*
X161444463Y-96416082D01*
X161146912Y-96292832D01*
X160831033Y-96230000D01*
X160508967Y-96230000D01*
X160193088Y-96292832D01*
X160180625Y-96297995D01*
X158877000Y-94994370D01*
X158877000Y-94000413D01*
X159714192Y-94000413D01*
X159809956Y-94264814D01*
X160099571Y-94405704D01*
X160411108Y-94487384D01*
X160732595Y-94506718D01*
X161051675Y-94462961D01*
X161356088Y-94357795D01*
X161530044Y-94264814D01*
X161625808Y-94000413D01*
X160670000Y-93044605D01*
X159714192Y-94000413D01*
X158877000Y-94000413D01*
X158877000Y-92927595D01*
X159028282Y-92927595D01*
X159072039Y-93246675D01*
X159177205Y-93551088D01*
X159270186Y-93725044D01*
X159534587Y-93820808D01*
X160490395Y-92865000D01*
X160849605Y-92865000D01*
X161805413Y-93820808D01*
X162069814Y-93725044D01*
X162210704Y-93435429D01*
X162292384Y-93123892D01*
X162311718Y-92802405D01*
X162267961Y-92483325D01*
X162162795Y-92178912D01*
X162069814Y-92004956D01*
X161805413Y-91909192D01*
X160849605Y-92865000D01*
X160490395Y-92865000D01*
X159534587Y-91909192D01*
X159270186Y-92004956D01*
X159129296Y-92294571D01*
X159047616Y-92606108D01*
X159028282Y-92927595D01*
X158877000Y-92927595D01*
X158877000Y-91729587D01*
X159714192Y-91729587D01*
X160670000Y-92685395D01*
X161625808Y-91729587D01*
X161530044Y-91465186D01*
X161240429Y-91324296D01*
X160928892Y-91242616D01*
X160607405Y-91223282D01*
X160288325Y-91267039D01*
X159983912Y-91372205D01*
X159809956Y-91465186D01*
X159714192Y-91729587D01*
X158877000Y-91729587D01*
X158877000Y-87614761D01*
X158981604Y-87458210D01*
X159055320Y-87280243D01*
X159092900Y-87091315D01*
X159092900Y-86898685D01*
X159055320Y-86709757D01*
X158981604Y-86531790D01*
X158877000Y-86375239D01*
X158877000Y-86186438D01*
X158966013Y-86126962D01*
X159151962Y-85941013D01*
X159298061Y-85722359D01*
X159398696Y-85479405D01*
X159450000Y-85221486D01*
X159450000Y-84958514D01*
X159398696Y-84700595D01*
X159298061Y-84457641D01*
X159151962Y-84238987D01*
X158966013Y-84053038D01*
X158877000Y-83993562D01*
X158877000Y-82376438D01*
X158966013Y-82316962D01*
X159151962Y-82131013D01*
X159298061Y-81912359D01*
X159398696Y-81669405D01*
X159450000Y-81411486D01*
X159450000Y-81148514D01*
X159398696Y-80890595D01*
X159298061Y-80647641D01*
X159151962Y-80428987D01*
X158966013Y-80243038D01*
X158747359Y-80096939D01*
X158504405Y-79996304D01*
X158246486Y-79945000D01*
X157983514Y-79945000D01*
X157725595Y-79996304D01*
X157482641Y-80096939D01*
X157263987Y-80243038D01*
X157078038Y-80428987D01*
X156931939Y-80647641D01*
X156831304Y-80890595D01*
X156780000Y-81148514D01*
X151830000Y-81148514D01*
X151778696Y-80890595D01*
X151678061Y-80647641D01*
X151531962Y-80428987D01*
X151346013Y-80243038D01*
X151127359Y-80096939D01*
X150884405Y-79996304D01*
X150626486Y-79945000D01*
X150363514Y-79945000D01*
X150105595Y-79996304D01*
X149862641Y-80096939D01*
X149643987Y-80243038D01*
X149458038Y-80428987D01*
X149311939Y-80647641D01*
X149211304Y-80890595D01*
X149160000Y-81148514D01*
X135283918Y-81148514D01*
X135402140Y-81030293D01*
X135433640Y-81004442D01*
X135536798Y-80878743D01*
X135613452Y-80735335D01*
X135660655Y-80579727D01*
X135672599Y-80458454D01*
X135672599Y-80458445D01*
X135676592Y-80417902D01*
X135672599Y-80377359D01*
X135672599Y-79422910D01*
X135758514Y-79440000D01*
X136021486Y-79440000D01*
X136279405Y-79388696D01*
X136522359Y-79288061D01*
X136741013Y-79141962D01*
X136926962Y-78956013D01*
X137073061Y-78737359D01*
X137173696Y-78494405D01*
X137225000Y-78236486D01*
X137225000Y-77973514D01*
X138365000Y-77973514D01*
X138365000Y-78236486D01*
X138416304Y-78494405D01*
X138516939Y-78737359D01*
X138663038Y-78956013D01*
X138848987Y-79141962D01*
X139067641Y-79288061D01*
X139310595Y-79388696D01*
X139568514Y-79440000D01*
X139831486Y-79440000D01*
X140089405Y-79388696D01*
X140332359Y-79288061D01*
X140551013Y-79141962D01*
X140736962Y-78956013D01*
X140883061Y-78737359D01*
X140983696Y-78494405D01*
X141035000Y-78236486D01*
X141035000Y-77973514D01*
X140983696Y-77715595D01*
X140883061Y-77472641D01*
X140736962Y-77253987D01*
X140551013Y-77068038D01*
X140332359Y-76921939D01*
X140089405Y-76821304D01*
X139831486Y-76770000D01*
X139568514Y-76770000D01*
X139310595Y-76821304D01*
X139067641Y-76921939D01*
X138848987Y-77068038D01*
X138663038Y-77253987D01*
X138516939Y-77472641D01*
X138416304Y-77715595D01*
X138365000Y-77973514D01*
X137225000Y-77973514D01*
X137173696Y-77715595D01*
X137073061Y-77472641D01*
X136926962Y-77253987D01*
X136741013Y-77068038D01*
X136611089Y-76981226D01*
X142835616Y-70756700D01*
X142908179Y-70742266D01*
X143086146Y-70668550D01*
X143147662Y-70627446D01*
X143517504Y-70627446D01*
X143558054Y-70631440D01*
X143598604Y-70627446D01*
X143598607Y-70627446D01*
X143719880Y-70615502D01*
X143875488Y-70568299D01*
X144018896Y-70491645D01*
X144144595Y-70388487D01*
X144170452Y-70356980D01*
X153423376Y-61104057D01*
X153528665Y-61125000D01*
X153811335Y-61125000D01*
X154088574Y-61069853D01*
X154349727Y-60961680D01*
X154584759Y-60804637D01*
X154784637Y-60604759D01*
X154940000Y-60372241D01*
X155095363Y-60604759D01*
X155295241Y-60804637D01*
X155530273Y-60961680D01*
X155791426Y-61069853D01*
X156068665Y-61125000D01*
X156351335Y-61125000D01*
X156628574Y-61069853D01*
X156889727Y-60961680D01*
X157124759Y-60804637D01*
X157324637Y-60604759D01*
X157480000Y-60372241D01*
X157635363Y-60604759D01*
X157835241Y-60804637D01*
X158070273Y-60961680D01*
X158331426Y-61069853D01*
X158608665Y-61125000D01*
X158891335Y-61125000D01*
X159168574Y-61069853D01*
X159429727Y-60961680D01*
X159664759Y-60804637D01*
X159864637Y-60604759D01*
X160021680Y-60369727D01*
X160129853Y-60108574D01*
X160185000Y-59831335D01*
X160185000Y-59548665D01*
X160129853Y-59271426D01*
X160021680Y-59010273D01*
X159864637Y-58775241D01*
X159664759Y-58575363D01*
X159429727Y-58418320D01*
X159168574Y-58310147D01*
X158891335Y-58255000D01*
X158608665Y-58255000D01*
X158331426Y-58310147D01*
X158070273Y-58418320D01*
X157835241Y-58575363D01*
X157635363Y-58775241D01*
X157480000Y-59007759D01*
X157324637Y-58775241D01*
X157124759Y-58575363D01*
X156889727Y-58418320D01*
X156628574Y-58310147D01*
X156351335Y-58255000D01*
X156068665Y-58255000D01*
X155791426Y-58310147D01*
X155530273Y-58418320D01*
X155295241Y-58575363D01*
X155095363Y-58775241D01*
X154940000Y-59007759D01*
X154784637Y-58775241D01*
X154584759Y-58575363D01*
X154349727Y-58418320D01*
X154088574Y-58310147D01*
X153811335Y-58255000D01*
X153528665Y-58255000D01*
X153251426Y-58310147D01*
X152990273Y-58418320D01*
X152755241Y-58575363D01*
X152555363Y-58775241D01*
X152400000Y-59007759D01*
X152244637Y-58775241D01*
X152044759Y-58575363D01*
X151809727Y-58418320D01*
X151548574Y-58310147D01*
X151271335Y-58255000D01*
X150988665Y-58255000D01*
X150711426Y-58310147D01*
X150450273Y-58418320D01*
X150215241Y-58575363D01*
X150015363Y-58775241D01*
X149860000Y-59007759D01*
X149704637Y-58775241D01*
X149504759Y-58575363D01*
X149269727Y-58418320D01*
X149008574Y-58310147D01*
X148731335Y-58255000D01*
X148448665Y-58255000D01*
X148171426Y-58310147D01*
X147910273Y-58418320D01*
X147675241Y-58575363D01*
X147475363Y-58775241D01*
X147320000Y-59007759D01*
X147164637Y-58775241D01*
X146964759Y-58575363D01*
X146729727Y-58418320D01*
X146468574Y-58310147D01*
X146191335Y-58255000D01*
X145908665Y-58255000D01*
X145631426Y-58310147D01*
X145370273Y-58418320D01*
X145135241Y-58575363D01*
X144935363Y-58775241D01*
X144780000Y-59007759D01*
X144624637Y-58775241D01*
X144424759Y-58575363D01*
X144189727Y-58418320D01*
X143928574Y-58310147D01*
X143651335Y-58255000D01*
X143368665Y-58255000D01*
X143091426Y-58310147D01*
X142830273Y-58418320D01*
X142595241Y-58575363D01*
X142395363Y-58775241D01*
X142240000Y-59007759D01*
X142084637Y-58775241D01*
X141884759Y-58575363D01*
X141649727Y-58418320D01*
X141388574Y-58310147D01*
X141111335Y-58255000D01*
X140828665Y-58255000D01*
X140551426Y-58310147D01*
X140290273Y-58418320D01*
X140055241Y-58575363D01*
X139855363Y-58775241D01*
X139698320Y-59010273D01*
X139590147Y-59271426D01*
X139535000Y-59548665D01*
X139535000Y-59831335D01*
X139590147Y-60108574D01*
X139698320Y-60369727D01*
X139855363Y-60604759D01*
X140055241Y-60804637D01*
X140144501Y-60864278D01*
X140144500Y-61888067D01*
X140122321Y-61910246D01*
X140049757Y-61924680D01*
X139871790Y-61998396D01*
X139711625Y-62105415D01*
X139575415Y-62241625D01*
X139468396Y-62401790D01*
X139394680Y-62579757D01*
X139380246Y-62652320D01*
X137960000Y-64072567D01*
X137960000Y-63993665D01*
X137904853Y-63716426D01*
X137796680Y-63455273D01*
X137639637Y-63220241D01*
X137439759Y-63020363D01*
X137204727Y-62863320D01*
X136943574Y-62755147D01*
X136666335Y-62700000D01*
X136383665Y-62700000D01*
X136278376Y-62720944D01*
X134654045Y-61096613D01*
X134788574Y-61069853D01*
X135049727Y-60961680D01*
X135284759Y-60804637D01*
X135484637Y-60604759D01*
X135640000Y-60372241D01*
X135795363Y-60604759D01*
X135995241Y-60804637D01*
X136230273Y-60961680D01*
X136491426Y-61069853D01*
X136768665Y-61125000D01*
X137051335Y-61125000D01*
X137328574Y-61069853D01*
X137589727Y-60961680D01*
X137824759Y-60804637D01*
X138024637Y-60604759D01*
X138181680Y-60369727D01*
X138289853Y-60108574D01*
X138345000Y-59831335D01*
X138345000Y-59548665D01*
X138289853Y-59271426D01*
X138181680Y-59010273D01*
X138024637Y-58775241D01*
X137824759Y-58575363D01*
X137589727Y-58418320D01*
X137328574Y-58310147D01*
X137051335Y-58255000D01*
X136768665Y-58255000D01*
X136491426Y-58310147D01*
X136230273Y-58418320D01*
X135995241Y-58575363D01*
X135795363Y-58775241D01*
X135640000Y-59007759D01*
X135484637Y-58775241D01*
X135284759Y-58575363D01*
X135049727Y-58418320D01*
X134788574Y-58310147D01*
X134511335Y-58255000D01*
X134228665Y-58255000D01*
X133951426Y-58310147D01*
X133690273Y-58418320D01*
X133455241Y-58575363D01*
X133255363Y-58775241D01*
X133100000Y-59007759D01*
X132944637Y-58775241D01*
X132744759Y-58575363D01*
X132509727Y-58418320D01*
X132248574Y-58310147D01*
X131971335Y-58255000D01*
X131688665Y-58255000D01*
X131411426Y-58310147D01*
X131150273Y-58418320D01*
X130915241Y-58575363D01*
X130715363Y-58775241D01*
X130560000Y-59007759D01*
X130404637Y-58775241D01*
X130204759Y-58575363D01*
X129969727Y-58418320D01*
X129708574Y-58310147D01*
X129431335Y-58255000D01*
X129148665Y-58255000D01*
X128871426Y-58310147D01*
X128610273Y-58418320D01*
X128375241Y-58575363D01*
X128175363Y-58775241D01*
X128020000Y-59007759D01*
X127864637Y-58775241D01*
X127664759Y-58575363D01*
X127429727Y-58418320D01*
X127168574Y-58310147D01*
X126891335Y-58255000D01*
X126608665Y-58255000D01*
X126331426Y-58310147D01*
X126070273Y-58418320D01*
X125835241Y-58575363D01*
X125635363Y-58775241D01*
X125480000Y-59007759D01*
X125324637Y-58775241D01*
X125124759Y-58575363D01*
X124889727Y-58418320D01*
X124628574Y-58310147D01*
X124351335Y-58255000D01*
X124068665Y-58255000D01*
X123791426Y-58310147D01*
X123530273Y-58418320D01*
X123295241Y-58575363D01*
X123095363Y-58775241D01*
X122938320Y-59010273D01*
X122933933Y-59020865D01*
X122822385Y-58834869D01*
X122633414Y-58626481D01*
X122407420Y-58458963D01*
X122153087Y-58338754D01*
X122019039Y-58298096D01*
X121797000Y-58420085D01*
X121797000Y-59563000D01*
X121817000Y-59563000D01*
X121817000Y-59817000D01*
X121797000Y-59817000D01*
X121797000Y-59837000D01*
X121543000Y-59837000D01*
X121543000Y-59817000D01*
X121523000Y-59817000D01*
X121523000Y-59563000D01*
X121543000Y-59563000D01*
X121543000Y-58420085D01*
X121320961Y-58298096D01*
X121186913Y-58338754D01*
X120932580Y-58458963D01*
X120706586Y-58626481D01*
X120517615Y-58834869D01*
X120406067Y-59020865D01*
X120401680Y-59010273D01*
X120244637Y-58775241D01*
X120044759Y-58575363D01*
X119809727Y-58418320D01*
X119548574Y-58310147D01*
X119271335Y-58255000D01*
X118988665Y-58255000D01*
X118711426Y-58310147D01*
X118450273Y-58418320D01*
X118215241Y-58575363D01*
X118015363Y-58775241D01*
X117860000Y-59007759D01*
X117704637Y-58775241D01*
X117504759Y-58575363D01*
X117269727Y-58418320D01*
X117008574Y-58310147D01*
X116731335Y-58255000D01*
X116448665Y-58255000D01*
X116171426Y-58310147D01*
X115910273Y-58418320D01*
X115675241Y-58575363D01*
X115475363Y-58775241D01*
X115320000Y-59007759D01*
X115164637Y-58775241D01*
X114964759Y-58575363D01*
X114729727Y-58418320D01*
X114468574Y-58310147D01*
X114191335Y-58255000D01*
X113908665Y-58255000D01*
X113631426Y-58310147D01*
X113370273Y-58418320D01*
X113135241Y-58575363D01*
X112935363Y-58775241D01*
X112778320Y-59010273D01*
X112670147Y-59271426D01*
X112615000Y-59548665D01*
X112615000Y-59831335D01*
X112670147Y-60108574D01*
X112778320Y-60369727D01*
X112935363Y-60604759D01*
X113135241Y-60804637D01*
X113177689Y-60833000D01*
X112121883Y-60833000D01*
X112084460Y-60829314D01*
X112047037Y-60833000D01*
X112047034Y-60833000D01*
X111935082Y-60844026D01*
X111791445Y-60887598D01*
X111758325Y-60905301D01*
X111659067Y-60958355D01*
X111576364Y-61026228D01*
X111543038Y-61053578D01*
X111519181Y-61082648D01*
X109599151Y-63002679D01*
X109414486Y-63039411D01*
X109236519Y-63113127D01*
X109076354Y-63220146D01*
X108940144Y-63356356D01*
X108833125Y-63516521D01*
X108759409Y-63694488D01*
X108722677Y-63879152D01*
X95993448Y-76608382D01*
X95964378Y-76632239D01*
X95940521Y-76661309D01*
X95940520Y-76661310D01*
X95910000Y-76698498D01*
X95910000Y-57810000D01*
X159746620Y-57810000D01*
X160630000Y-58693381D01*
G37*
X160630000Y-58693381D02*
X160630001Y-69845887D01*
X160629241Y-69906761D01*
X160635953Y-69942854D01*
X160639551Y-69979383D01*
X160647809Y-70006607D01*
X160653011Y-70034577D01*
X160666636Y-70068669D01*
X160677291Y-70103793D01*
X160690698Y-70128876D01*
X160701259Y-70155301D01*
X160721274Y-70186081D01*
X160738576Y-70218450D01*
X160777168Y-70265474D01*
X163170000Y-73256515D01*
X163170001Y-105136618D01*
X160846232Y-107460388D01*
X160821053Y-107481052D01*
X160800389Y-107506231D01*
X160800386Y-107506234D01*
X160738575Y-107581550D01*
X160677290Y-107696208D01*
X160639551Y-107820618D01*
X160626808Y-107950000D01*
X160630001Y-107982419D01*
X160630000Y-109822578D01*
X160629269Y-109830000D01*
X95910000Y-109830000D01*
X95910000Y-102060962D01*
X95964377Y-102127221D01*
X95993453Y-102151083D01*
X97703364Y-103860994D01*
X97675000Y-104003589D01*
X97675000Y-104276411D01*
X97728225Y-104543989D01*
X97832629Y-104796043D01*
X97984201Y-105022886D01*
X98177114Y-105215799D01*
X98293483Y-105293555D01*
X98185518Y-105304188D01*
X98065820Y-105340498D01*
X97955506Y-105399463D01*
X97858815Y-105478815D01*
X97779463Y-105575506D01*
X97720498Y-105685820D01*
X97684188Y-105805518D01*
X97671928Y-105930000D01*
X97671928Y-107430000D01*
X97684188Y-107554482D01*
X97720498Y-107674180D01*
X97779463Y-107784494D01*
X97858815Y-107881185D01*
X97955506Y-107960537D01*
X98065820Y-108019502D01*
X98185518Y-108055812D01*
X98310000Y-108068072D01*
X99810000Y-108068072D01*
X99934482Y-108055812D01*
X100054180Y-108019502D01*
X100164494Y-107960537D01*
X100261185Y-107881185D01*
X100340537Y-107784494D01*
X100399502Y-107674180D01*
X100424218Y-107592702D01*
X112216903Y-107592702D01*
X112288486Y-107836671D01*
X112543996Y-107957571D01*
X112818184Y-108026300D01*
X113100512Y-108040217D01*
X113380130Y-107998787D01*
X113646292Y-107903603D01*
X113771514Y-107836671D01*
X113843097Y-107592702D01*
X113030000Y-106779605D01*
X112216903Y-107592702D01*
X100424218Y-107592702D01*
X100435812Y-107554482D01*
X100448072Y-107430000D01*
X100448072Y-106670512D01*
X111589783Y-106670512D01*
X111631213Y-106950130D01*
X111726397Y-107216292D01*
X111793329Y-107341514D01*
X112037298Y-107413097D01*
X112850395Y-106600000D01*
X113209605Y-106600000D01*
X114022702Y-107413097D01*
X114266671Y-107341514D01*
X114387571Y-107086004D01*
X114456300Y-106811816D01*
X114470217Y-106529488D01*
X114428787Y-106249870D01*
X114333603Y-105983708D01*
X114266671Y-105858486D01*
X114022702Y-105786903D01*
X113209605Y-106600000D01*
X112850395Y-106600000D01*
X112037298Y-105786903D01*
X111793329Y-105858486D01*
X111672429Y-106113996D01*
X111603700Y-106388184D01*
X111589783Y-106670512D01*
X100448072Y-106670512D01*
X100448072Y-105930000D01*
X100435812Y-105805518D01*
X100399502Y-105685820D01*
X100357531Y-105607298D01*
X112216903Y-105607298D01*
X113030000Y-106420395D01*
X113843097Y-105607298D01*
X113771514Y-105363329D01*
X113516004Y-105242429D01*
X113241816Y-105173700D01*
X112959488Y-105159783D01*
X112679870Y-105201213D01*
X112413708Y-105296397D01*
X112288486Y-105363329D01*
X112216903Y-105607298D01*
X100357531Y-105607298D01*
X100340537Y-105575506D01*
X100261185Y-105478815D01*
X100164494Y-105399463D01*
X100054180Y-105340498D01*
X99934482Y-105304188D01*
X99826517Y-105293555D01*
X99942886Y-105215799D01*
X100135799Y-105022886D01*
X100287371Y-104796043D01*
X100391775Y-104543989D01*
X100445000Y-104276411D01*
X100445000Y-104003589D01*
X100391775Y-103736011D01*
X100287371Y-103483957D01*
X100135799Y-103257114D01*
X99942886Y-103064201D01*
X99716043Y-102912629D01*
X99613127Y-102870000D01*
X99716043Y-102827371D01*
X99942886Y-102675799D01*
X100135799Y-102482886D01*
X100287371Y-102256043D01*
X100391775Y-102003989D01*
X100445000Y-101736411D01*
X100445000Y-101463589D01*
X100444021Y-101458665D01*
X111595000Y-101458665D01*
X111595000Y-101741335D01*
X111650147Y-102018574D01*
X111758320Y-102279727D01*
X111915363Y-102514759D01*
X112115241Y-102714637D01*
X112350273Y-102871680D01*
X112611426Y-102979853D01*
X112888665Y-103035000D01*
X113171335Y-103035000D01*
X113448574Y-102979853D01*
X113709727Y-102871680D01*
X113944759Y-102714637D01*
X114144637Y-102514759D01*
X114301680Y-102279727D01*
X114409853Y-102018574D01*
X114465000Y-101741335D01*
X114465000Y-101458665D01*
X114409853Y-101181426D01*
X114301680Y-100920273D01*
X114237129Y-100823665D01*
X115405000Y-100823665D01*
X115405000Y-101106335D01*
X115460147Y-101383574D01*
X115568320Y-101644727D01*
X115725363Y-101879759D01*
X115925241Y-102079637D01*
X116160273Y-102236680D01*
X116421426Y-102344853D01*
X116698665Y-102400000D01*
X116981335Y-102400000D01*
X117258574Y-102344853D01*
X117519727Y-102236680D01*
X117754759Y-102079637D01*
X117954637Y-101879759D01*
X118111680Y-101644727D01*
X118219853Y-101383574D01*
X118275000Y-101106335D01*
X118275000Y-100823665D01*
X118219853Y-100546426D01*
X118111680Y-100285273D01*
X117954637Y-100050241D01*
X117754759Y-99850363D01*
X117519727Y-99693320D01*
X117509135Y-99688933D01*
X117695131Y-99577385D01*
X117903519Y-99388414D01*
X118071037Y-99162420D01*
X118191246Y-98908087D01*
X118231904Y-98774039D01*
X118109915Y-98552000D01*
X116967000Y-98552000D01*
X116967000Y-98572000D01*
X116713000Y-98572000D01*
X116713000Y-98552000D01*
X115570085Y-98552000D01*
X115448096Y-98774039D01*
X115488754Y-98908087D01*
X115608963Y-99162420D01*
X115776481Y-99388414D01*
X115984869Y-99577385D01*
X116170865Y-99688933D01*
X116160273Y-99693320D01*
X115925241Y-99850363D01*
X115725363Y-100050241D01*
X115568320Y-100285273D01*
X115460147Y-100546426D01*
X115405000Y-100823665D01*
X114237129Y-100823665D01*
X114144637Y-100685241D01*
X113944759Y-100485363D01*
X113709727Y-100328320D01*
X113448574Y-100220147D01*
X113171335Y-100165000D01*
X112888665Y-100165000D01*
X112611426Y-100220147D01*
X112350273Y-100328320D01*
X112115241Y-100485363D01*
X111915363Y-100685241D01*
X111758320Y-100920273D01*
X111650147Y-101181426D01*
X111595000Y-101458665D01*
X100444021Y-101458665D01*
X100391775Y-101196011D01*
X100287371Y-100943957D01*
X100135799Y-100717114D01*
X99942886Y-100524201D01*
X99716043Y-100372629D01*
X99616721Y-100331489D01*
X99658832Y-100316277D01*
X99771863Y-100255860D01*
X99837388Y-100016993D01*
X99060000Y-99239605D01*
X98282612Y-100016993D01*
X98348137Y-100255860D01*
X98506477Y-100330164D01*
X98403957Y-100372629D01*
X98177114Y-100524201D01*
X97984201Y-100717114D01*
X97832629Y-100943957D01*
X97728225Y-101196011D01*
X97675000Y-101463589D01*
X97675000Y-101677370D01*
X97267799Y-101270169D01*
X97267799Y-99132492D01*
X97670188Y-99132492D01*
X97711035Y-99402238D01*
X97803723Y-99658832D01*
X97864140Y-99771863D01*
X98103007Y-99837388D01*
X98880395Y-99060000D01*
X99239605Y-99060000D01*
X100016993Y-99837388D01*
X100255860Y-99771863D01*
X100371760Y-99524884D01*
X100437250Y-99260040D01*
X100449812Y-98987508D01*
X100408965Y-98717762D01*
X100316277Y-98461168D01*
X100255860Y-98348137D01*
X100016993Y-98282612D01*
X99239605Y-99060000D01*
X98880395Y-99060000D01*
X98103007Y-98282612D01*
X97864140Y-98348137D01*
X97748240Y-98595116D01*
X97682750Y-98859960D01*
X97670188Y-99132492D01*
X97267799Y-99132492D01*
X97267799Y-98103007D01*
X98282612Y-98103007D01*
X99060000Y-98880395D01*
X99819830Y-98120565D01*
X107164040Y-98120565D01*
X107231020Y-98360656D01*
X107480048Y-98477756D01*
X107747135Y-98544023D01*
X108022017Y-98556910D01*
X108294133Y-98515922D01*
X108553023Y-98422636D01*
X108668980Y-98360656D01*
X108735960Y-98120565D01*
X107950000Y-97334605D01*
X107164040Y-98120565D01*
X99819830Y-98120565D01*
X99837388Y-98103007D01*
X99771863Y-97864140D01*
X99524884Y-97748240D01*
X99260040Y-97682750D01*
X98987508Y-97670188D01*
X98717762Y-97711035D01*
X98461168Y-97803723D01*
X98348137Y-97864140D01*
X98282612Y-98103007D01*
X97267799Y-98103007D01*
X97267799Y-97227017D01*
X106548090Y-97227017D01*
X106589078Y-97499133D01*
X106682364Y-97758023D01*
X106744344Y-97873980D01*
X106984435Y-97940960D01*
X107770395Y-97155000D01*
X108129605Y-97155000D01*
X108915565Y-97940960D01*
X109155656Y-97873980D01*
X109272756Y-97624952D01*
X109339023Y-97357865D01*
X109351910Y-97082983D01*
X109310922Y-96810867D01*
X109217636Y-96551977D01*
X109155656Y-96436020D01*
X108915565Y-96369040D01*
X108129605Y-97155000D01*
X107770395Y-97155000D01*
X106984435Y-96369040D01*
X106744344Y-96436020D01*
X106627244Y-96685048D01*
X106560977Y-96952135D01*
X106548090Y-97227017D01*
X97267799Y-97227017D01*
X97267799Y-96189435D01*
X107164040Y-96189435D01*
X107950000Y-96975395D01*
X108735960Y-96189435D01*
X108668980Y-95949344D01*
X108419952Y-95832244D01*
X108152865Y-95765977D01*
X107877983Y-95753090D01*
X107605867Y-95794078D01*
X107346977Y-95887364D01*
X107231020Y-95949344D01*
X107164040Y-96189435D01*
X97267799Y-96189435D01*
X97267799Y-92668690D01*
X97400595Y-92723696D01*
X97658514Y-92775000D01*
X97921486Y-92775000D01*
X98179405Y-92723696D01*
X98422359Y-92623061D01*
X98641013Y-92476962D01*
X98826962Y-92291013D01*
X98886438Y-92202000D01*
X99868562Y-92202000D01*
X99928038Y-92291013D01*
X100113987Y-92476962D01*
X100332641Y-92623061D01*
X100575595Y-92723696D01*
X100833514Y-92775000D01*
X101096486Y-92775000D01*
X101239802Y-92746492D01*
X101306985Y-92782402D01*
X101450622Y-92825974D01*
X101562574Y-92837000D01*
X101562577Y-92837000D01*
X101600000Y-92840686D01*
X101637423Y-92837000D01*
X106778995Y-92837000D01*
X106864880Y-92965535D01*
X107059465Y-93160120D01*
X107288273Y-93313005D01*
X107542510Y-93418314D01*
X107812408Y-93472000D01*
X108087592Y-93472000D01*
X108357490Y-93418314D01*
X108611727Y-93313005D01*
X108840535Y-93160120D01*
X109035120Y-92965535D01*
X109188005Y-92736727D01*
X109293314Y-92482490D01*
X109347000Y-92212592D01*
X109347000Y-91937408D01*
X109293314Y-91667510D01*
X109188005Y-91413273D01*
X109035120Y-91184465D01*
X108840535Y-90989880D01*
X108611727Y-90836995D01*
X108357490Y-90731686D01*
X108087592Y-90678000D01*
X107812408Y-90678000D01*
X107542510Y-90731686D01*
X107288273Y-90836995D01*
X107059465Y-90989880D01*
X106864880Y-91184465D01*
X106778995Y-91313000D01*
X102300000Y-91313000D01*
X102300000Y-91308514D01*
X102248696Y-91050595D01*
X102148061Y-90807641D01*
X102001962Y-90588987D01*
X101816013Y-90403038D01*
X101597359Y-90256939D01*
X101354405Y-90156304D01*
X101096486Y-90105000D01*
X100833514Y-90105000D01*
X100575595Y-90156304D01*
X100332641Y-90256939D01*
X100113987Y-90403038D01*
X99928038Y-90588987D01*
X99868562Y-90678000D01*
X98886438Y-90678000D01*
X98826962Y-90588987D01*
X98641013Y-90403038D01*
X98422359Y-90256939D01*
X98179405Y-90156304D01*
X97921486Y-90105000D01*
X97658514Y-90105000D01*
X97400595Y-90156304D01*
X97267799Y-90211310D01*
X97267799Y-85048690D01*
X97400595Y-85103696D01*
X97658514Y-85155000D01*
X97921486Y-85155000D01*
X98179405Y-85103696D01*
X98422359Y-85003061D01*
X98641013Y-84856962D01*
X98826962Y-84671013D01*
X98973061Y-84452359D01*
X99073696Y-84209405D01*
X99125000Y-83951486D01*
X99125000Y-83688514D01*
X99073696Y-83430595D01*
X98973061Y-83187641D01*
X98826962Y-82968987D01*
X98641013Y-82783038D01*
X98422359Y-82636939D01*
X98179405Y-82536304D01*
X97921486Y-82485000D01*
X97658514Y-82485000D01*
X97400595Y-82536304D01*
X97267799Y-82591310D01*
X97267799Y-77489291D01*
X107249792Y-67507298D01*
X114121903Y-67507298D01*
X114935000Y-68320395D01*
X115748097Y-67507298D01*
X115676514Y-67263329D01*
X115421004Y-67142429D01*
X115146816Y-67073700D01*
X114864488Y-67059783D01*
X114584870Y-67101213D01*
X114318708Y-67196397D01*
X114193486Y-67263329D01*
X114121903Y-67507298D01*
X107249792Y-67507298D01*
X109800308Y-64956783D01*
X109984972Y-64920051D01*
X110162939Y-64846335D01*
X110323104Y-64739316D01*
X110459314Y-64603106D01*
X110566333Y-64442941D01*
X110640049Y-64264974D01*
X110676781Y-64080309D01*
X112400091Y-62357000D01*
X114062689Y-62357000D01*
X114020241Y-62385363D01*
X113820363Y-62585241D01*
X113663320Y-62820273D01*
X113555147Y-63081426D01*
X113500000Y-63358665D01*
X113500000Y-63641335D01*
X113555147Y-63918574D01*
X113663320Y-64179727D01*
X113820363Y-64414759D01*
X114020241Y-64614637D01*
X114255273Y-64771680D01*
X114516426Y-64879853D01*
X114793665Y-64935000D01*
X115076335Y-64935000D01*
X115353574Y-64879853D01*
X115614727Y-64771680D01*
X115849759Y-64614637D01*
X116049637Y-64414759D01*
X116206680Y-64179727D01*
X116314853Y-63918574D01*
X116370000Y-63641335D01*
X116370000Y-63358665D01*
X116314853Y-63081426D01*
X116206680Y-62820273D01*
X116049637Y-62585241D01*
X115849759Y-62385363D01*
X115807311Y-62357000D01*
X124807577Y-62357000D01*
X124845000Y-62360686D01*
X124882423Y-62357000D01*
X124882426Y-62357000D01*
X124994378Y-62345974D01*
X125138015Y-62302402D01*
X125270392Y-62231645D01*
X125386422Y-62136422D01*
X125410284Y-62107346D01*
X126428473Y-61089157D01*
X126608665Y-61125000D01*
X126891335Y-61125000D01*
X127168574Y-61069853D01*
X127429727Y-60961680D01*
X127664759Y-60804637D01*
X127864637Y-60604759D01*
X128020000Y-60372241D01*
X128175363Y-60604759D01*
X128375241Y-60804637D01*
X128610273Y-60961680D01*
X128871426Y-61069853D01*
X129148665Y-61125000D01*
X129431335Y-61125000D01*
X129536624Y-61104057D01*
X130365246Y-61932680D01*
X130379680Y-62005243D01*
X130453396Y-62183210D01*
X130560415Y-62343375D01*
X130696625Y-62479585D01*
X130856790Y-62586604D01*
X131034757Y-62660320D01*
X131223685Y-62697900D01*
X131416315Y-62697900D01*
X131605243Y-62660320D01*
X131783210Y-62586604D01*
X131943375Y-62479585D01*
X132002460Y-62420500D01*
X133643068Y-62420500D01*
X133922568Y-62700000D01*
X133843665Y-62700000D01*
X133566426Y-62755147D01*
X133305273Y-62863320D01*
X133070241Y-63020363D01*
X132870363Y-63220241D01*
X132715000Y-63452759D01*
X132559637Y-63220241D01*
X132359759Y-63020363D01*
X132124727Y-62863320D01*
X131863574Y-62755147D01*
X131586335Y-62700000D01*
X131303665Y-62700000D01*
X131026426Y-62755147D01*
X130765273Y-62863320D01*
X130530241Y-63020363D01*
X130330363Y-63220241D01*
X130175000Y-63452759D01*
X130019637Y-63220241D01*
X129819759Y-63020363D01*
X129584727Y-62863320D01*
X129323574Y-62755147D01*
X129046335Y-62700000D01*
X128763665Y-62700000D01*
X128486426Y-62755147D01*
X128225273Y-62863320D01*
X127990241Y-63020363D01*
X127790363Y-63220241D01*
X127635000Y-63452759D01*
X127479637Y-63220241D01*
X127279759Y-63020363D01*
X127044727Y-62863320D01*
X126783574Y-62755147D01*
X126506335Y-62700000D01*
X126223665Y-62700000D01*
X125946426Y-62755147D01*
X125685273Y-62863320D01*
X125450241Y-63020363D01*
X125250363Y-63220241D01*
X125095000Y-63452759D01*
X124939637Y-63220241D01*
X124739759Y-63020363D01*
X124504727Y-62863320D01*
X124243574Y-62755147D01*
X123966335Y-62700000D01*
X123683665Y-62700000D01*
X123406426Y-62755147D01*
X123145273Y-62863320D01*
X122910241Y-63020363D01*
X122710363Y-63220241D01*
X122555000Y-63452759D01*
X122399637Y-63220241D01*
X122199759Y-63020363D01*
X121964727Y-62863320D01*
X121703574Y-62755147D01*
X121426335Y-62700000D01*
X121143665Y-62700000D01*
X120866426Y-62755147D01*
X120605273Y-62863320D01*
X120370241Y-63020363D01*
X120170363Y-63220241D01*
X120013320Y-63455273D01*
X119905147Y-63716426D01*
X119850000Y-63993665D01*
X119850000Y-64276335D01*
X119905147Y-64553574D01*
X120013320Y-64814727D01*
X120170363Y-65049759D01*
X120370241Y-65249637D01*
X120605273Y-65406680D01*
X120866426Y-65514853D01*
X121143665Y-65570000D01*
X121426335Y-65570000D01*
X121703574Y-65514853D01*
X121964727Y-65406680D01*
X122199759Y-65249637D01*
X122399637Y-65049759D01*
X122555000Y-64817241D01*
X122710363Y-65049759D01*
X122910241Y-65249637D01*
X123145273Y-65406680D01*
X123406426Y-65514853D01*
X123683665Y-65570000D01*
X123966335Y-65570000D01*
X124243574Y-65514853D01*
X124504727Y-65406680D01*
X124739759Y-65249637D01*
X124939637Y-65049759D01*
X125095000Y-64817241D01*
X125250363Y-65049759D01*
X125450241Y-65249637D01*
X125685273Y-65406680D01*
X125946426Y-65514853D01*
X126223665Y-65570000D01*
X126506335Y-65570000D01*
X126783574Y-65514853D01*
X127044727Y-65406680D01*
X127279759Y-65249637D01*
X127479637Y-65049759D01*
X127635000Y-64817241D01*
X127790363Y-65049759D01*
X127990241Y-65249637D01*
X128225273Y-65406680D01*
X128486426Y-65514853D01*
X128763665Y-65570000D01*
X129046335Y-65570000D01*
X129323574Y-65514853D01*
X129584727Y-65406680D01*
X129819759Y-65249637D01*
X130019637Y-65049759D01*
X130175000Y-64817241D01*
X130330363Y-65049759D01*
X130530241Y-65249637D01*
X130765273Y-65406680D01*
X131026426Y-65514853D01*
X131303665Y-65570000D01*
X131382568Y-65570000D01*
X131103068Y-65849500D01*
X118150542Y-65849500D01*
X118109999Y-65845507D01*
X118069456Y-65849500D01*
X118069447Y-65849500D01*
X117948174Y-65861444D01*
X117792566Y-65908647D01*
X117649158Y-65985301D01*
X117523459Y-66088459D01*
X117497608Y-66119959D01*
X116944822Y-66672746D01*
X116872257Y-66687180D01*
X116694290Y-66760896D01*
X116534125Y-66867915D01*
X116397915Y-67004125D01*
X116290896Y-67164290D01*
X116217180Y-67342257D01*
X116201320Y-67421992D01*
X116150301Y-67484158D01*
X116073647Y-67627567D01*
X116045191Y-67721375D01*
X115927702Y-67686903D01*
X115114605Y-68500000D01*
X115128748Y-68514143D01*
X114949143Y-68693748D01*
X114935000Y-68679605D01*
X114920858Y-68693748D01*
X114741253Y-68514143D01*
X114755395Y-68500000D01*
X113942298Y-67686903D01*
X113698329Y-67758486D01*
X113577429Y-68013996D01*
X113508700Y-68288184D01*
X113494783Y-68570512D01*
X113536213Y-68850130D01*
X113598571Y-69024500D01*
X107355550Y-69024500D01*
X107314999Y-69020506D01*
X107274449Y-69024500D01*
X107274447Y-69024500D01*
X107153174Y-69036444D01*
X107022594Y-69076055D01*
X106997566Y-69083647D01*
X106854157Y-69160301D01*
X106815056Y-69192391D01*
X106728459Y-69263459D01*
X106702608Y-69294959D01*
X100409961Y-75587607D01*
X100378460Y-75613459D01*
X100352609Y-75644959D01*
X100275301Y-75739158D01*
X100198647Y-75882567D01*
X100151445Y-76038174D01*
X100135506Y-76200000D01*
X100139501Y-76240560D01*
X100139500Y-82765991D01*
X100113987Y-82783038D01*
X99928038Y-82968987D01*
X99781939Y-83187641D01*
X99681304Y-83430595D01*
X99630000Y-83688514D01*
X99630000Y-83951486D01*
X99681304Y-84209405D01*
X99781939Y-84452359D01*
X99928038Y-84671013D01*
X100113987Y-84856962D01*
X100332641Y-85003061D01*
X100575595Y-85103696D01*
X100833514Y-85155000D01*
X101096486Y-85155000D01*
X101354405Y-85103696D01*
X101597359Y-85003061D01*
X101816013Y-84856962D01*
X102001962Y-84671013D01*
X102148061Y-84452359D01*
X102248696Y-84209405D01*
X102300000Y-83951486D01*
X102300000Y-83688514D01*
X102248696Y-83430595D01*
X102148061Y-83187641D01*
X102001962Y-82968987D01*
X101816013Y-82783038D01*
X101790500Y-82765991D01*
X101790500Y-76541932D01*
X106553000Y-71779433D01*
X106553000Y-71892592D01*
X106606686Y-72162490D01*
X106711995Y-72416727D01*
X106864880Y-72645535D01*
X107059465Y-72840120D01*
X107288273Y-72993005D01*
X107542510Y-73098314D01*
X107812408Y-73152000D01*
X107999962Y-73152000D01*
X110172501Y-75324540D01*
X110172501Y-77710462D01*
X109347000Y-76884962D01*
X109347000Y-76697408D01*
X109293314Y-76427510D01*
X109188005Y-76173273D01*
X109035120Y-75944465D01*
X108840535Y-75749880D01*
X108611727Y-75596995D01*
X108357490Y-75491686D01*
X108087592Y-75438000D01*
X107812408Y-75438000D01*
X107542510Y-75491686D01*
X107288273Y-75596995D01*
X107059465Y-75749880D01*
X106864880Y-75944465D01*
X106711995Y-76173273D01*
X106606686Y-76427510D01*
X106553000Y-76697408D01*
X106553000Y-76972592D01*
X106606686Y-77242490D01*
X106711995Y-77496727D01*
X106864880Y-77725535D01*
X107059465Y-77920120D01*
X107288273Y-78073005D01*
X107542510Y-78178314D01*
X107812408Y-78232000D01*
X107999962Y-78232000D01*
X108902501Y-79134540D01*
X108902501Y-80891846D01*
X108840535Y-80829880D01*
X108611727Y-80676995D01*
X108357490Y-80571686D01*
X108087592Y-80518000D01*
X107812408Y-80518000D01*
X107542510Y-80571686D01*
X107288273Y-80676995D01*
X107059465Y-80829880D01*
X106864880Y-81024465D01*
X106711995Y-81253273D01*
X106606686Y-81507510D01*
X106553000Y-81777408D01*
X106553000Y-82052592D01*
X106606686Y-82322490D01*
X106711995Y-82576727D01*
X106864880Y-82805535D01*
X106997501Y-82938156D01*
X106997500Y-84408215D01*
X106992892Y-84455000D01*
X107008194Y-84610363D01*
X107011283Y-84641722D01*
X107065748Y-84821268D01*
X107154194Y-84986741D01*
X107273222Y-85131778D01*
X107309569Y-85161607D01*
X107756986Y-85609024D01*
X107542510Y-85651686D01*
X107288273Y-85756995D01*
X107059465Y-85909880D01*
X106864880Y-86104465D01*
X106711995Y-86333273D01*
X106606686Y-86587510D01*
X106553000Y-86857408D01*
X106553000Y-87132592D01*
X106606686Y-87402490D01*
X106711995Y-87656727D01*
X106864880Y-87885535D01*
X107059465Y-88080120D01*
X107288273Y-88233005D01*
X107542510Y-88338314D01*
X107812408Y-88392000D01*
X107999962Y-88392000D01*
X115405000Y-95797038D01*
X115405000Y-96026335D01*
X115460147Y-96303574D01*
X115568320Y-96564727D01*
X115725363Y-96799759D01*
X115925241Y-96999637D01*
X116160273Y-97156680D01*
X116170865Y-97161067D01*
X115984869Y-97272615D01*
X115776481Y-97461586D01*
X115608963Y-97687580D01*
X115488754Y-97941913D01*
X115448096Y-98075961D01*
X115570085Y-98298000D01*
X116713000Y-98298000D01*
X116713000Y-98278000D01*
X116967000Y-98278000D01*
X116967000Y-98298000D01*
X118109915Y-98298000D01*
X118231904Y-98075961D01*
X118191246Y-97941913D01*
X118071037Y-97687580D01*
X117903519Y-97461586D01*
X117695131Y-97272615D01*
X117509135Y-97161067D01*
X117519727Y-97156680D01*
X117754759Y-96999637D01*
X117954637Y-96799759D01*
X118111680Y-96564727D01*
X118219853Y-96303574D01*
X118275000Y-96026335D01*
X118275000Y-95743665D01*
X118219853Y-95466426D01*
X118111680Y-95205273D01*
X117954637Y-94970241D01*
X117754759Y-94770363D01*
X117522241Y-94615000D01*
X117754759Y-94459637D01*
X117954637Y-94259759D01*
X118111680Y-94024727D01*
X118219853Y-93763574D01*
X118275000Y-93486335D01*
X118275000Y-93203665D01*
X118219853Y-92926426D01*
X118111680Y-92665273D01*
X117954637Y-92430241D01*
X117754759Y-92230363D01*
X117522241Y-92075000D01*
X117754759Y-91919637D01*
X117954637Y-91719759D01*
X118111680Y-91484727D01*
X118219853Y-91223574D01*
X118275000Y-90946335D01*
X118275000Y-90663665D01*
X118219853Y-90386426D01*
X118111680Y-90125273D01*
X117954637Y-89890241D01*
X117754759Y-89690363D01*
X117522241Y-89535000D01*
X117754759Y-89379637D01*
X117954637Y-89179759D01*
X118111680Y-88944727D01*
X118219853Y-88683574D01*
X118275000Y-88406335D01*
X118275000Y-88123665D01*
X118219853Y-87846426D01*
X118111680Y-87585273D01*
X117954637Y-87350241D01*
X117754759Y-87150363D01*
X117522241Y-86995000D01*
X117754759Y-86839637D01*
X117954637Y-86639759D01*
X118111680Y-86404727D01*
X118219853Y-86143574D01*
X118275000Y-85866335D01*
X118275000Y-85583665D01*
X118219853Y-85306426D01*
X118111680Y-85045273D01*
X117954637Y-84810241D01*
X117756039Y-84611643D01*
X117764482Y-84610812D01*
X117884180Y-84574502D01*
X117994494Y-84515537D01*
X118091185Y-84436185D01*
X118170537Y-84339494D01*
X118229502Y-84229180D01*
X118265812Y-84109482D01*
X118278072Y-83985000D01*
X118275000Y-83470750D01*
X118116250Y-83312000D01*
X116967000Y-83312000D01*
X116967000Y-83332000D01*
X116713000Y-83332000D01*
X116713000Y-83312000D01*
X115563750Y-83312000D01*
X115405000Y-83470750D01*
X115401928Y-83985000D01*
X115414188Y-84109482D01*
X115450498Y-84229180D01*
X115509463Y-84339494D01*
X115588815Y-84436185D01*
X115685506Y-84515537D01*
X115795820Y-84574502D01*
X115915518Y-84610812D01*
X115923961Y-84611643D01*
X115725363Y-84810241D01*
X115568320Y-85045273D01*
X115460147Y-85306426D01*
X115421708Y-85499670D01*
X112307038Y-82385000D01*
X115401928Y-82385000D01*
X115405000Y-82899250D01*
X115563750Y-83058000D01*
X116713000Y-83058000D01*
X116713000Y-81908750D01*
X116967000Y-81908750D01*
X116967000Y-83058000D01*
X118116250Y-83058000D01*
X118275000Y-82899250D01*
X118278072Y-82385000D01*
X118265812Y-82260518D01*
X118229502Y-82140820D01*
X118170537Y-82030506D01*
X118091185Y-81933815D01*
X117994494Y-81854463D01*
X117884180Y-81795498D01*
X117764482Y-81759188D01*
X117640000Y-81746928D01*
X117125750Y-81750000D01*
X116967000Y-81908750D01*
X116713000Y-81908750D01*
X116554250Y-81750000D01*
X116040000Y-81746928D01*
X115915518Y-81759188D01*
X115795820Y-81795498D01*
X115685506Y-81854463D01*
X115588815Y-81933815D01*
X115509463Y-82030506D01*
X115450498Y-82140820D01*
X115414188Y-82260518D01*
X115401928Y-82385000D01*
X112307038Y-82385000D01*
X112077500Y-82155462D01*
X112077500Y-81002702D01*
X118566903Y-81002702D01*
X118638486Y-81246671D01*
X118893996Y-81367571D01*
X119168184Y-81436300D01*
X119450512Y-81450217D01*
X119730130Y-81408787D01*
X119996292Y-81313603D01*
X120121514Y-81246671D01*
X120193097Y-81002702D01*
X123646903Y-81002702D01*
X123718486Y-81246671D01*
X123973996Y-81367571D01*
X124248184Y-81436300D01*
X124530512Y-81450217D01*
X124810130Y-81408787D01*
X125076292Y-81313603D01*
X125201514Y-81246671D01*
X125273097Y-81002702D01*
X124460000Y-80189605D01*
X123646903Y-81002702D01*
X120193097Y-81002702D01*
X119380000Y-80189605D01*
X118566903Y-81002702D01*
X112077500Y-81002702D01*
X112077500Y-80080512D01*
X117939783Y-80080512D01*
X117981213Y-80360130D01*
X118076397Y-80626292D01*
X118143329Y-80751514D01*
X118387298Y-80823097D01*
X119200395Y-80010000D01*
X119559605Y-80010000D01*
X120372702Y-80823097D01*
X120616671Y-80751514D01*
X120737571Y-80496004D01*
X120806300Y-80221816D01*
X120813265Y-80080512D01*
X123019783Y-80080512D01*
X123061213Y-80360130D01*
X123156397Y-80626292D01*
X123223329Y-80751514D01*
X123467298Y-80823097D01*
X124280395Y-80010000D01*
X124639605Y-80010000D01*
X125452702Y-80823097D01*
X125696671Y-80751514D01*
X125817571Y-80496004D01*
X125886300Y-80221816D01*
X125897208Y-80000512D01*
X128099783Y-80000512D01*
X128141213Y-80280130D01*
X128236397Y-80546292D01*
X128303329Y-80671514D01*
X128547298Y-80743097D01*
X129360395Y-79930000D01*
X128547298Y-79116903D01*
X128303329Y-79188486D01*
X128182429Y-79443996D01*
X128113700Y-79718184D01*
X128099783Y-80000512D01*
X125897208Y-80000512D01*
X125900217Y-79939488D01*
X125858787Y-79659870D01*
X125763603Y-79393708D01*
X125696671Y-79268486D01*
X125452702Y-79196903D01*
X124639605Y-80010000D01*
X124280395Y-80010000D01*
X123467298Y-79196903D01*
X123223329Y-79268486D01*
X123102429Y-79523996D01*
X123033700Y-79798184D01*
X123019783Y-80080512D01*
X120813265Y-80080512D01*
X120820217Y-79939488D01*
X120778787Y-79659870D01*
X120683603Y-79393708D01*
X120616671Y-79268486D01*
X120372702Y-79196903D01*
X119559605Y-80010000D01*
X119200395Y-80010000D01*
X118387298Y-79196903D01*
X118143329Y-79268486D01*
X118022429Y-79523996D01*
X117953700Y-79798184D01*
X117939783Y-80080512D01*
X112077500Y-80080512D01*
X112077500Y-79017298D01*
X118566903Y-79017298D01*
X119380000Y-79830395D01*
X120193097Y-79017298D01*
X123646903Y-79017298D01*
X124460000Y-79830395D01*
X125273097Y-79017298D01*
X125249625Y-78937298D01*
X128726903Y-78937298D01*
X129540000Y-79750395D01*
X130353097Y-78937298D01*
X130281514Y-78693329D01*
X130026004Y-78572429D01*
X129751816Y-78503700D01*
X129469488Y-78489783D01*
X129189870Y-78531213D01*
X128923708Y-78626397D01*
X128798486Y-78693329D01*
X128726903Y-78937298D01*
X125249625Y-78937298D01*
X125201514Y-78773329D01*
X124946004Y-78652429D01*
X124671816Y-78583700D01*
X124389488Y-78569783D01*
X124109870Y-78611213D01*
X123843708Y-78706397D01*
X123718486Y-78773329D01*
X123646903Y-79017298D01*
X120193097Y-79017298D01*
X120121514Y-78773329D01*
X119866004Y-78652429D01*
X119591816Y-78583700D01*
X119309488Y-78569783D01*
X119029870Y-78611213D01*
X118763708Y-78706397D01*
X118638486Y-78773329D01*
X118566903Y-79017298D01*
X112077500Y-79017298D01*
X112077500Y-77192702D01*
X114121903Y-77192702D01*
X114193486Y-77436671D01*
X114448996Y-77557571D01*
X114723184Y-77626300D01*
X115005512Y-77640217D01*
X115285130Y-77598787D01*
X115551292Y-77503603D01*
X115676514Y-77436671D01*
X115748097Y-77192702D01*
X114935000Y-76379605D01*
X114121903Y-77192702D01*
X112077500Y-77192702D01*
X112077500Y-76270512D01*
X113494783Y-76270512D01*
X113536213Y-76550130D01*
X113631397Y-76816292D01*
X113698329Y-76941514D01*
X113942298Y-77013097D01*
X114755395Y-76200000D01*
X115114605Y-76200000D01*
X115927702Y-77013097D01*
X116171671Y-76941514D01*
X116292571Y-76686004D01*
X116361300Y-76411816D01*
X116375217Y-76129488D01*
X116333787Y-75849870D01*
X116238603Y-75583708D01*
X116171671Y-75458486D01*
X115927702Y-75386903D01*
X115114605Y-76200000D01*
X114755395Y-76200000D01*
X113942298Y-75386903D01*
X113698329Y-75458486D01*
X113577429Y-75713996D01*
X113508700Y-75988184D01*
X113494783Y-76270512D01*
X112077500Y-76270512D01*
X112077500Y-75207298D01*
X114121903Y-75207298D01*
X114935000Y-76020395D01*
X115748097Y-75207298D01*
X115676514Y-74963329D01*
X115421004Y-74842429D01*
X115146816Y-74773700D01*
X114864488Y-74759783D01*
X114584870Y-74801213D01*
X114318708Y-74896397D01*
X114193486Y-74963329D01*
X114121903Y-75207298D01*
X112077500Y-75207298D01*
X112077500Y-74976784D01*
X112082108Y-74929999D01*
X112063717Y-74743277D01*
X112017653Y-74591426D01*
X112009252Y-74563731D01*
X111920806Y-74398259D01*
X111801778Y-74253222D01*
X111765436Y-74223397D01*
X109347000Y-71804962D01*
X109347000Y-71617408D01*
X109293314Y-71347510D01*
X109188005Y-71093273D01*
X109035120Y-70864465D01*
X108846155Y-70675500D01*
X113599023Y-70675500D01*
X113555147Y-70781426D01*
X113500000Y-71058665D01*
X113500000Y-71341335D01*
X113555147Y-71618574D01*
X113663320Y-71879727D01*
X113820363Y-72114759D01*
X114020241Y-72314637D01*
X114255273Y-72471680D01*
X114516426Y-72579853D01*
X114793665Y-72635000D01*
X115076335Y-72635000D01*
X115353574Y-72579853D01*
X115614727Y-72471680D01*
X115849759Y-72314637D01*
X116049637Y-72114759D01*
X116206680Y-71879727D01*
X116314853Y-71618574D01*
X116370000Y-71341335D01*
X116370000Y-71058665D01*
X116349056Y-70953376D01*
X116760039Y-70542394D01*
X116791541Y-70516541D01*
X116867107Y-70424463D01*
X116894699Y-70390843D01*
X116935671Y-70314189D01*
X116967166Y-70255267D01*
X117395045Y-69827388D01*
X117426541Y-69801541D01*
X117452389Y-69770045D01*
X117452392Y-69770042D01*
X117529699Y-69675843D01*
X117606353Y-69532434D01*
X117611125Y-69516703D01*
X117653556Y-69376826D01*
X117665500Y-69255553D01*
X117665500Y-69255551D01*
X117669494Y-69215000D01*
X117665500Y-69174450D01*
X117665500Y-68464176D01*
X117780875Y-68387085D01*
X117917085Y-68250875D01*
X118024104Y-68090710D01*
X118097820Y-67912743D01*
X118112254Y-67840178D01*
X118451933Y-67500500D01*
X126912066Y-67500500D01*
X124071624Y-70340944D01*
X123966335Y-70320000D01*
X123683665Y-70320000D01*
X123406426Y-70375147D01*
X123145273Y-70483320D01*
X122910241Y-70640363D01*
X122711643Y-70838961D01*
X122710812Y-70830518D01*
X122674502Y-70710820D01*
X122615537Y-70600506D01*
X122536185Y-70503815D01*
X122439494Y-70424463D01*
X122329180Y-70365498D01*
X122209482Y-70329188D01*
X122085000Y-70316928D01*
X120485000Y-70316928D01*
X120360518Y-70329188D01*
X120240820Y-70365498D01*
X120130506Y-70424463D01*
X120033815Y-70503815D01*
X119954463Y-70600506D01*
X119895498Y-70710820D01*
X119859188Y-70830518D01*
X119846928Y-70955000D01*
X119846928Y-71024266D01*
X119770157Y-71065301D01*
X119675958Y-71142608D01*
X119675955Y-71142611D01*
X119644459Y-71168459D01*
X119618611Y-71199956D01*
X118824961Y-71993607D01*
X118793460Y-72019459D01*
X118767609Y-72050959D01*
X118690301Y-72145158D01*
X118613647Y-72288567D01*
X118566445Y-72444174D01*
X118550506Y-72606000D01*
X118554501Y-72646560D01*
X118554501Y-73835722D01*
X118465241Y-73895363D01*
X118265363Y-74095241D01*
X118108320Y-74330273D01*
X118000147Y-74591426D01*
X117945000Y-74868665D01*
X117945000Y-75151335D01*
X118000147Y-75428574D01*
X118108320Y-75689727D01*
X118265363Y-75924759D01*
X118465241Y-76124637D01*
X118700273Y-76281680D01*
X118961426Y-76389853D01*
X119238665Y-76445000D01*
X119521335Y-76445000D01*
X119798574Y-76389853D01*
X120059727Y-76281680D01*
X120294759Y-76124637D01*
X120494637Y-75924759D01*
X120651680Y-75689727D01*
X120759853Y-75428574D01*
X120815000Y-75151335D01*
X120815000Y-74868665D01*
X120759853Y-74591426D01*
X120651680Y-74330273D01*
X120494637Y-74095241D01*
X120294759Y-73895363D01*
X120205500Y-73835722D01*
X120205500Y-73125623D01*
X120240820Y-73144502D01*
X120360518Y-73180812D01*
X120485000Y-73193072D01*
X122085000Y-73193072D01*
X122209482Y-73180812D01*
X122329180Y-73144502D01*
X122439494Y-73085537D01*
X122536185Y-73006185D01*
X122615537Y-72909494D01*
X122674502Y-72799180D01*
X122710812Y-72679482D01*
X122711643Y-72671039D01*
X122910241Y-72869637D01*
X123145273Y-73026680D01*
X123406426Y-73134853D01*
X123683665Y-73190000D01*
X123777817Y-73190000D01*
X123770301Y-73199158D01*
X123693647Y-73342567D01*
X123646445Y-73498174D01*
X123630506Y-73660000D01*
X123634501Y-73700560D01*
X123634501Y-73835722D01*
X123545241Y-73895363D01*
X123345363Y-74095241D01*
X123188320Y-74330273D01*
X123080147Y-74591426D01*
X123025000Y-74868665D01*
X123025000Y-75151335D01*
X123080147Y-75428574D01*
X123188320Y-75689727D01*
X123345363Y-75924759D01*
X123545241Y-76124637D01*
X123780273Y-76281680D01*
X124041426Y-76389853D01*
X124318665Y-76445000D01*
X124601335Y-76445000D01*
X124878574Y-76389853D01*
X125139727Y-76281680D01*
X125374759Y-76124637D01*
X125574637Y-75924759D01*
X125731680Y-75689727D01*
X125839853Y-75428574D01*
X125895000Y-75151335D01*
X125895000Y-74868665D01*
X125839853Y-74591426D01*
X125731680Y-74330273D01*
X125574637Y-74095241D01*
X125383414Y-73904018D01*
X126118377Y-73169057D01*
X126223665Y-73190000D01*
X126506335Y-73190000D01*
X126783574Y-73134853D01*
X127044727Y-73026680D01*
X127279759Y-72869637D01*
X127479637Y-72669759D01*
X127635000Y-72437241D01*
X127790363Y-72669759D01*
X127990241Y-72869637D01*
X128225273Y-73026680D01*
X128486426Y-73134853D01*
X128763665Y-73190000D01*
X128857817Y-73190000D01*
X128850301Y-73199158D01*
X128773647Y-73342567D01*
X128726445Y-73498174D01*
X128710506Y-73660000D01*
X128714501Y-73700560D01*
X128714501Y-73755722D01*
X128625241Y-73815363D01*
X128425363Y-74015241D01*
X128268320Y-74250273D01*
X128160147Y-74511426D01*
X128105000Y-74788665D01*
X128105000Y-75071335D01*
X128160147Y-75348574D01*
X128268320Y-75609727D01*
X128425363Y-75844759D01*
X128625241Y-76044637D01*
X128860273Y-76201680D01*
X129121426Y-76309853D01*
X129218449Y-76329152D01*
X129222566Y-76331353D01*
X129378174Y-76378556D01*
X129540000Y-76394494D01*
X129701825Y-76378556D01*
X129857433Y-76331353D01*
X129861550Y-76329153D01*
X129958574Y-76309853D01*
X130219727Y-76201680D01*
X130454759Y-76044637D01*
X130654637Y-75844759D01*
X130811680Y-75609727D01*
X130919853Y-75348574D01*
X130975000Y-75071335D01*
X130975000Y-74788665D01*
X130919853Y-74511426D01*
X130811680Y-74250273D01*
X130654637Y-74015241D01*
X130503414Y-73864018D01*
X131198377Y-73169057D01*
X131303665Y-73190000D01*
X131586335Y-73190000D01*
X131863574Y-73134853D01*
X132124727Y-73026680D01*
X132359759Y-72869637D01*
X132559637Y-72669759D01*
X132715000Y-72437241D01*
X132870363Y-72669759D01*
X133070241Y-72869637D01*
X133305273Y-73026680D01*
X133566426Y-73134853D01*
X133843665Y-73190000D01*
X134126335Y-73190000D01*
X134403574Y-73134853D01*
X134664727Y-73026680D01*
X134899759Y-72869637D01*
X135099637Y-72669759D01*
X135255915Y-72435872D01*
X135288329Y-72496514D01*
X135532298Y-72568097D01*
X136345395Y-71755000D01*
X136331253Y-71740858D01*
X136510858Y-71561253D01*
X136525000Y-71575395D01*
X137338097Y-70762298D01*
X137266514Y-70518329D01*
X137011004Y-70397429D01*
X136736816Y-70328700D01*
X136586159Y-70321274D01*
X143087680Y-63819754D01*
X143160243Y-63805320D01*
X143338210Y-63731604D01*
X143498375Y-63624585D01*
X143634585Y-63488375D01*
X143741604Y-63328210D01*
X143815320Y-63150243D01*
X143829754Y-63077678D01*
X145803376Y-61104056D01*
X145908665Y-61125000D01*
X146191335Y-61125000D01*
X146468574Y-61069853D01*
X146729727Y-60961680D01*
X146964759Y-60804637D01*
X147164637Y-60604759D01*
X147320000Y-60372241D01*
X147475363Y-60604759D01*
X147675241Y-60804637D01*
X147910273Y-60961680D01*
X148171426Y-61069853D01*
X148448665Y-61125000D01*
X148527566Y-61125000D01*
X142344822Y-67307746D01*
X142272257Y-67322180D01*
X142094290Y-67395896D01*
X141934125Y-67502915D01*
X141797915Y-67639125D01*
X141690896Y-67799290D01*
X141617180Y-67977257D01*
X141579600Y-68166185D01*
X141579600Y-68358815D01*
X141617180Y-68547743D01*
X141653101Y-68634466D01*
X137618587Y-72668980D01*
X137517704Y-72568097D01*
X137761671Y-72496514D01*
X137882571Y-72241004D01*
X137951300Y-71966816D01*
X137965217Y-71684488D01*
X137923787Y-71404870D01*
X137828603Y-71138708D01*
X137761671Y-71013486D01*
X137517702Y-70941903D01*
X136704605Y-71755000D01*
X136718748Y-71769143D01*
X136539143Y-71948748D01*
X136525000Y-71934605D01*
X135711903Y-72747702D01*
X135783486Y-72991671D01*
X136038996Y-73112571D01*
X136313184Y-73181300D01*
X136595512Y-73195217D01*
X136875130Y-73153787D01*
X137141292Y-73058603D01*
X137266514Y-72991671D01*
X137338097Y-72747704D01*
X137438980Y-72848587D01*
X130877915Y-79409653D01*
X130843603Y-79313708D01*
X130776671Y-79188486D01*
X130532702Y-79116903D01*
X129719605Y-79930000D01*
X129733748Y-79944143D01*
X129554143Y-80123748D01*
X129540000Y-80109605D01*
X128726903Y-80922702D01*
X128798486Y-81166671D01*
X129017341Y-81270227D01*
X128984961Y-81302607D01*
X128953460Y-81328459D01*
X128927609Y-81359959D01*
X128850301Y-81454158D01*
X128773647Y-81597567D01*
X128726445Y-81753174D01*
X128710506Y-81915000D01*
X128714501Y-81955560D01*
X128714501Y-82010722D01*
X128625241Y-82070363D01*
X128425363Y-82270241D01*
X128268320Y-82505273D01*
X128160147Y-82766426D01*
X128105000Y-83043665D01*
X128105000Y-83326335D01*
X128160147Y-83603574D01*
X128268320Y-83864727D01*
X128425363Y-84099759D01*
X128625241Y-84299637D01*
X128857759Y-84455000D01*
X128625241Y-84610363D01*
X128425363Y-84810241D01*
X128268320Y-85045273D01*
X128160147Y-85306426D01*
X128105000Y-85583665D01*
X128105000Y-85866335D01*
X128160147Y-86143574D01*
X128268320Y-86404727D01*
X128425363Y-86639759D01*
X128625241Y-86839637D01*
X128857759Y-86995000D01*
X128625241Y-87150363D01*
X128425363Y-87350241D01*
X128268320Y-87585273D01*
X128160147Y-87846426D01*
X128105000Y-88123665D01*
X128105000Y-88406335D01*
X128160147Y-88683574D01*
X128268320Y-88944727D01*
X128425363Y-89179759D01*
X128625241Y-89379637D01*
X128857759Y-89535000D01*
X128625241Y-89690363D01*
X128425363Y-89890241D01*
X128268320Y-90125273D01*
X128160147Y-90386426D01*
X128105000Y-90663665D01*
X128105000Y-90946335D01*
X128160147Y-91223574D01*
X128268320Y-91484727D01*
X128425363Y-91719759D01*
X128625241Y-91919637D01*
X128857759Y-92075000D01*
X128625241Y-92230363D01*
X128425363Y-92430241D01*
X128268320Y-92665273D01*
X128160147Y-92926426D01*
X128105000Y-93203665D01*
X128105000Y-93486335D01*
X128160147Y-93763574D01*
X128268320Y-94024727D01*
X128425363Y-94259759D01*
X128625241Y-94459637D01*
X128857759Y-94615000D01*
X128625241Y-94770363D01*
X128425363Y-94970241D01*
X128268320Y-95205273D01*
X128160147Y-95466426D01*
X128105000Y-95743665D01*
X128105000Y-96026335D01*
X128160147Y-96303574D01*
X128268320Y-96564727D01*
X128425363Y-96799759D01*
X128625241Y-96999637D01*
X128857759Y-97155000D01*
X128625241Y-97310363D01*
X128425363Y-97510241D01*
X128268320Y-97745273D01*
X128160147Y-98006426D01*
X128105000Y-98283665D01*
X128105000Y-98566335D01*
X128160147Y-98843574D01*
X128268320Y-99104727D01*
X128425363Y-99339759D01*
X128625241Y-99539637D01*
X128857759Y-99695000D01*
X128625241Y-99850363D01*
X128425363Y-100050241D01*
X128268320Y-100285273D01*
X128160147Y-100546426D01*
X128105000Y-100823665D01*
X128105000Y-101106335D01*
X128160147Y-101383574D01*
X128268320Y-101644727D01*
X128425363Y-101879759D01*
X128625241Y-102079637D01*
X128860273Y-102236680D01*
X129121426Y-102344853D01*
X129398665Y-102400000D01*
X129681335Y-102400000D01*
X129861527Y-102364157D01*
X131102948Y-103605579D01*
X131139680Y-103790243D01*
X131213396Y-103968210D01*
X131320415Y-104128375D01*
X131456625Y-104264585D01*
X131616790Y-104371604D01*
X131794757Y-104445320D01*
X131979422Y-104482052D01*
X134054716Y-106557346D01*
X134078578Y-106586422D01*
X134152219Y-106646857D01*
X134194607Y-106681645D01*
X134264425Y-106718963D01*
X134326985Y-106752402D01*
X134470622Y-106795974D01*
X134582574Y-106807000D01*
X134582577Y-106807000D01*
X134620000Y-106810686D01*
X134657423Y-106807000D01*
X135033812Y-106807000D01*
X134926586Y-106886481D01*
X134737615Y-107094869D01*
X134626067Y-107280865D01*
X134621680Y-107270273D01*
X134464637Y-107035241D01*
X134264759Y-106835363D01*
X134029727Y-106678320D01*
X133768574Y-106570147D01*
X133491335Y-106515000D01*
X133208665Y-106515000D01*
X132931426Y-106570147D01*
X132670273Y-106678320D01*
X132435241Y-106835363D01*
X132235363Y-107035241D01*
X132080000Y-107267759D01*
X131924637Y-107035241D01*
X131724759Y-106835363D01*
X131489727Y-106678320D01*
X131228574Y-106570147D01*
X130951335Y-106515000D01*
X130668665Y-106515000D01*
X130391426Y-106570147D01*
X130130273Y-106678320D01*
X129895241Y-106835363D01*
X129695363Y-107035241D01*
X129540000Y-107267759D01*
X129384637Y-107035241D01*
X129184759Y-106835363D01*
X128949727Y-106678320D01*
X128688574Y-106570147D01*
X128411335Y-106515000D01*
X128128665Y-106515000D01*
X127851426Y-106570147D01*
X127590273Y-106678320D01*
X127355241Y-106835363D01*
X127155363Y-107035241D01*
X127000000Y-107267759D01*
X126844637Y-107035241D01*
X126644759Y-106835363D01*
X126409727Y-106678320D01*
X126148574Y-106570147D01*
X125871335Y-106515000D01*
X125588665Y-106515000D01*
X125311426Y-106570147D01*
X125050273Y-106678320D01*
X124815241Y-106835363D01*
X124616643Y-107033961D01*
X124615812Y-107025518D01*
X124579502Y-106905820D01*
X124520537Y-106795506D01*
X124441185Y-106698815D01*
X124344494Y-106619463D01*
X124234180Y-106560498D01*
X124114482Y-106524188D01*
X123990000Y-106511928D01*
X122390000Y-106511928D01*
X122265518Y-106524188D01*
X122145820Y-106560498D01*
X122035506Y-106619463D01*
X121938815Y-106698815D01*
X121859463Y-106795506D01*
X121800498Y-106905820D01*
X121764188Y-107025518D01*
X121751928Y-107150000D01*
X121751928Y-108750000D01*
X121764188Y-108874482D01*
X121800498Y-108994180D01*
X121859463Y-109104494D01*
X121938815Y-109201185D01*
X122035506Y-109280537D01*
X122145820Y-109339502D01*
X122265518Y-109375812D01*
X122390000Y-109388072D01*
X123990000Y-109388072D01*
X124114482Y-109375812D01*
X124234180Y-109339502D01*
X124344494Y-109280537D01*
X124441185Y-109201185D01*
X124520537Y-109104494D01*
X124579502Y-108994180D01*
X124615812Y-108874482D01*
X124616643Y-108866039D01*
X124815241Y-109064637D01*
X125050273Y-109221680D01*
X125311426Y-109329853D01*
X125588665Y-109385000D01*
X125871335Y-109385000D01*
X126148574Y-109329853D01*
X126409727Y-109221680D01*
X126644759Y-109064637D01*
X126844637Y-108864759D01*
X127000000Y-108632241D01*
X127155363Y-108864759D01*
X127355241Y-109064637D01*
X127590273Y-109221680D01*
X127851426Y-109329853D01*
X128128665Y-109385000D01*
X128411335Y-109385000D01*
X128688574Y-109329853D01*
X128949727Y-109221680D01*
X129184759Y-109064637D01*
X129384637Y-108864759D01*
X129540000Y-108632241D01*
X129695363Y-108864759D01*
X129895241Y-109064637D01*
X130130273Y-109221680D01*
X130391426Y-109329853D01*
X130668665Y-109385000D01*
X130951335Y-109385000D01*
X131228574Y-109329853D01*
X131489727Y-109221680D01*
X131724759Y-109064637D01*
X131924637Y-108864759D01*
X132080000Y-108632241D01*
X132235363Y-108864759D01*
X132435241Y-109064637D01*
X132670273Y-109221680D01*
X132931426Y-109329853D01*
X133208665Y-109385000D01*
X133491335Y-109385000D01*
X133768574Y-109329853D01*
X134029727Y-109221680D01*
X134264759Y-109064637D01*
X134464637Y-108864759D01*
X134621680Y-108629727D01*
X134626067Y-108619135D01*
X134737615Y-108805131D01*
X134926586Y-109013519D01*
X135152580Y-109181037D01*
X135406913Y-109301246D01*
X135540961Y-109341904D01*
X135763000Y-109219915D01*
X135763000Y-108077000D01*
X136017000Y-108077000D01*
X136017000Y-109219915D01*
X136239039Y-109341904D01*
X136373087Y-109301246D01*
X136627420Y-109181037D01*
X136853414Y-109013519D01*
X137042385Y-108805131D01*
X137160000Y-108609018D01*
X137277615Y-108805131D01*
X137466586Y-109013519D01*
X137692580Y-109181037D01*
X137946913Y-109301246D01*
X138080961Y-109341904D01*
X138303000Y-109219915D01*
X138303000Y-108077000D01*
X136017000Y-108077000D01*
X135763000Y-108077000D01*
X135743000Y-108077000D01*
X135743000Y-107823000D01*
X135763000Y-107823000D01*
X135763000Y-107803000D01*
X136017000Y-107803000D01*
X136017000Y-107823000D01*
X138303000Y-107823000D01*
X138303000Y-107803000D01*
X138557000Y-107803000D01*
X138557000Y-107823000D01*
X138577000Y-107823000D01*
X138577000Y-108077000D01*
X138557000Y-108077000D01*
X138557000Y-109219915D01*
X138779039Y-109341904D01*
X138913087Y-109301246D01*
X139167420Y-109181037D01*
X139393414Y-109013519D01*
X139582385Y-108805131D01*
X139693933Y-108619135D01*
X139698320Y-108629727D01*
X139855363Y-108864759D01*
X140055241Y-109064637D01*
X140290273Y-109221680D01*
X140551426Y-109329853D01*
X140828665Y-109385000D01*
X141111335Y-109385000D01*
X141388574Y-109329853D01*
X141649727Y-109221680D01*
X141884759Y-109064637D01*
X142084637Y-108864759D01*
X142241680Y-108629727D01*
X142349853Y-108368574D01*
X142405000Y-108091335D01*
X142405000Y-107808665D01*
X142349853Y-107531426D01*
X142241680Y-107270273D01*
X142084637Y-107035241D01*
X141884759Y-106835363D01*
X141842311Y-106807000D01*
X145177689Y-106807000D01*
X145135241Y-106835363D01*
X144935363Y-107035241D01*
X144778320Y-107270273D01*
X144670147Y-107531426D01*
X144615000Y-107808665D01*
X144615000Y-108091335D01*
X144670147Y-108368574D01*
X144778320Y-108629727D01*
X144935363Y-108864759D01*
X145135241Y-109064637D01*
X145370273Y-109221680D01*
X145631426Y-109329853D01*
X145908665Y-109385000D01*
X146191335Y-109385000D01*
X146468574Y-109329853D01*
X146729727Y-109221680D01*
X146964759Y-109064637D01*
X147164637Y-108864759D01*
X147320000Y-108632241D01*
X147475363Y-108864759D01*
X147675241Y-109064637D01*
X147910273Y-109221680D01*
X148171426Y-109329853D01*
X148448665Y-109385000D01*
X148731335Y-109385000D01*
X149008574Y-109329853D01*
X149269727Y-109221680D01*
X149504759Y-109064637D01*
X149704637Y-108864759D01*
X149860000Y-108632241D01*
X150015363Y-108864759D01*
X150215241Y-109064637D01*
X150450273Y-109221680D01*
X150711426Y-109329853D01*
X150988665Y-109385000D01*
X151271335Y-109385000D01*
X151548574Y-109329853D01*
X151809727Y-109221680D01*
X152044759Y-109064637D01*
X152244637Y-108864759D01*
X152400000Y-108632241D01*
X152555363Y-108864759D01*
X152755241Y-109064637D01*
X152990273Y-109221680D01*
X153251426Y-109329853D01*
X153528665Y-109385000D01*
X153811335Y-109385000D01*
X154088574Y-109329853D01*
X154349727Y-109221680D01*
X154584759Y-109064637D01*
X154784637Y-108864759D01*
X154940000Y-108632241D01*
X155095363Y-108864759D01*
X155295241Y-109064637D01*
X155530273Y-109221680D01*
X155791426Y-109329853D01*
X156068665Y-109385000D01*
X156351335Y-109385000D01*
X156628574Y-109329853D01*
X156889727Y-109221680D01*
X157124759Y-109064637D01*
X157324637Y-108864759D01*
X157480000Y-108632241D01*
X157635363Y-108864759D01*
X157835241Y-109064637D01*
X158070273Y-109221680D01*
X158331426Y-109329853D01*
X158608665Y-109385000D01*
X158891335Y-109385000D01*
X159168574Y-109329853D01*
X159429727Y-109221680D01*
X159664759Y-109064637D01*
X159864637Y-108864759D01*
X160021680Y-108629727D01*
X160129853Y-108368574D01*
X160185000Y-108091335D01*
X160185000Y-107808665D01*
X160129853Y-107531426D01*
X160021680Y-107270273D01*
X159864637Y-107035241D01*
X159664759Y-106835363D01*
X159429727Y-106678320D01*
X159168574Y-106570147D01*
X158891335Y-106515000D01*
X158608665Y-106515000D01*
X158428473Y-106550843D01*
X155505284Y-103627654D01*
X155481422Y-103598578D01*
X155365392Y-103503355D01*
X155233015Y-103432598D01*
X155089378Y-103389026D01*
X154977426Y-103378000D01*
X154977423Y-103378000D01*
X154940000Y-103374314D01*
X154902577Y-103378000D01*
X140015630Y-103378000D01*
X139630284Y-102992654D01*
X139630279Y-102992648D01*
X136602631Y-99965000D01*
X151431928Y-99965000D01*
X151431928Y-101965000D01*
X151444188Y-102089482D01*
X151480498Y-102209180D01*
X151539463Y-102319494D01*
X151618815Y-102416185D01*
X151715506Y-102495537D01*
X151825820Y-102554502D01*
X151945518Y-102590812D01*
X152070000Y-102603072D01*
X155270000Y-102603072D01*
X155394482Y-102590812D01*
X155514180Y-102554502D01*
X155624494Y-102495537D01*
X155721185Y-102416185D01*
X155800537Y-102319494D01*
X155859502Y-102209180D01*
X155895812Y-102089482D01*
X155908072Y-101965000D01*
X155908072Y-99965000D01*
X155895812Y-99840518D01*
X155859502Y-99720820D01*
X155800537Y-99610506D01*
X155721185Y-99513815D01*
X155624494Y-99434463D01*
X155514180Y-99375498D01*
X155394482Y-99339188D01*
X155270000Y-99326928D01*
X152070000Y-99326928D01*
X151945518Y-99339188D01*
X151825820Y-99375498D01*
X151715506Y-99434463D01*
X151618815Y-99513815D01*
X151539463Y-99610506D01*
X151480498Y-99720820D01*
X151444188Y-99840518D01*
X151431928Y-99965000D01*
X136602631Y-99965000D01*
X133057052Y-96419422D01*
X133020320Y-96234757D01*
X132946604Y-96056790D01*
X132839585Y-95896625D01*
X132703375Y-95760415D01*
X132693047Y-95753514D01*
X134555000Y-95753514D01*
X134555000Y-96016486D01*
X134606304Y-96274405D01*
X134706939Y-96517359D01*
X134853038Y-96736013D01*
X135038987Y-96921962D01*
X135257641Y-97068061D01*
X135500595Y-97168696D01*
X135758514Y-97220000D01*
X136021486Y-97220000D01*
X136279405Y-97168696D01*
X136522359Y-97068061D01*
X136741013Y-96921962D01*
X136926962Y-96736013D01*
X137073061Y-96517359D01*
X137173696Y-96274405D01*
X137225000Y-96016486D01*
X137225000Y-95753514D01*
X138365000Y-95753514D01*
X138365000Y-96016486D01*
X138416304Y-96274405D01*
X138516939Y-96517359D01*
X138663038Y-96736013D01*
X138848987Y-96921962D01*
X139067641Y-97068061D01*
X139310595Y-97168696D01*
X139568514Y-97220000D01*
X139831486Y-97220000D01*
X140089405Y-97168696D01*
X140332359Y-97068061D01*
X140551013Y-96921962D01*
X140736962Y-96736013D01*
X140883061Y-96517359D01*
X140983696Y-96274405D01*
X141035000Y-96016486D01*
X141035000Y-95753514D01*
X140983696Y-95495595D01*
X140883061Y-95252641D01*
X140736962Y-95033987D01*
X140551013Y-94848038D01*
X140332359Y-94701939D01*
X140089405Y-94601304D01*
X139831486Y-94550000D01*
X139568514Y-94550000D01*
X139310595Y-94601304D01*
X139067641Y-94701939D01*
X138848987Y-94848038D01*
X138663038Y-95033987D01*
X138516939Y-95252641D01*
X138416304Y-95495595D01*
X138365000Y-95753514D01*
X137225000Y-95753514D01*
X137173696Y-95495595D01*
X137073061Y-95252641D01*
X136926962Y-95033987D01*
X136741013Y-94848038D01*
X136522359Y-94701939D01*
X136279405Y-94601304D01*
X136021486Y-94550000D01*
X135758514Y-94550000D01*
X135500595Y-94601304D01*
X135257641Y-94701939D01*
X135038987Y-94848038D01*
X134853038Y-95033987D01*
X134706939Y-95252641D01*
X134606304Y-95495595D01*
X134555000Y-95753514D01*
X132693047Y-95753514D01*
X132543210Y-95653396D01*
X132365243Y-95579680D01*
X132180578Y-95542948D01*
X130751870Y-94114240D01*
X130811680Y-94024727D01*
X130919853Y-93763574D01*
X130975000Y-93486335D01*
X130975000Y-93203665D01*
X130919853Y-92926426D01*
X130811680Y-92665273D01*
X130654637Y-92430241D01*
X130454759Y-92230363D01*
X130222241Y-92075000D01*
X130454759Y-91919637D01*
X130654637Y-91719759D01*
X130811680Y-91484727D01*
X130919853Y-91223574D01*
X130975000Y-90946335D01*
X130975000Y-90663665D01*
X130919853Y-90386426D01*
X130811680Y-90125273D01*
X130654637Y-89890241D01*
X130454759Y-89690363D01*
X130222241Y-89535000D01*
X130454759Y-89379637D01*
X130654637Y-89179759D01*
X130811680Y-88944727D01*
X130919853Y-88683574D01*
X130975000Y-88406335D01*
X130975000Y-88123665D01*
X130919853Y-87846426D01*
X130811680Y-87585273D01*
X130654637Y-87350241D01*
X130454759Y-87150363D01*
X130222241Y-86995000D01*
X130454759Y-86839637D01*
X130654637Y-86639759D01*
X130811680Y-86404727D01*
X130919853Y-86143574D01*
X130975000Y-85866335D01*
X130975000Y-85593514D01*
X134555000Y-85593514D01*
X134555000Y-85856486D01*
X134606304Y-86114405D01*
X134706939Y-86357359D01*
X134853038Y-86576013D01*
X135038987Y-86761962D01*
X135257641Y-86908061D01*
X135467530Y-86995000D01*
X135257641Y-87081939D01*
X135038987Y-87228038D01*
X134853038Y-87413987D01*
X134706939Y-87632641D01*
X134606304Y-87875595D01*
X134555000Y-88133514D01*
X134555000Y-88396486D01*
X134606304Y-88654405D01*
X134706939Y-88897359D01*
X134853038Y-89116013D01*
X135038987Y-89301962D01*
X135257641Y-89448061D01*
X135500595Y-89548696D01*
X135758514Y-89600000D01*
X136021486Y-89600000D01*
X136279405Y-89548696D01*
X136522359Y-89448061D01*
X136741013Y-89301962D01*
X136926962Y-89116013D01*
X136944009Y-89090500D01*
X138645991Y-89090500D01*
X138663038Y-89116013D01*
X138848987Y-89301962D01*
X138874501Y-89319010D01*
X138874500Y-91354449D01*
X138870506Y-91395000D01*
X138874500Y-91435550D01*
X138874500Y-91435552D01*
X138886444Y-91556825D01*
X138920020Y-91667510D01*
X138933647Y-91712433D01*
X139010301Y-91855842D01*
X139018139Y-91865392D01*
X139113459Y-91981541D01*
X139144966Y-92007398D01*
X141942746Y-94805180D01*
X141957180Y-94877743D01*
X142030896Y-95055710D01*
X142137915Y-95215875D01*
X142274125Y-95352085D01*
X142434290Y-95459104D01*
X142612257Y-95532820D01*
X142684822Y-95547254D01*
X144585857Y-97448290D01*
X144535000Y-97703967D01*
X144535000Y-98026033D01*
X144597832Y-98341912D01*
X144721082Y-98639463D01*
X144900013Y-98907252D01*
X145127748Y-99134987D01*
X145395537Y-99313918D01*
X145693088Y-99437168D01*
X146008967Y-99500000D01*
X146331033Y-99500000D01*
X146646912Y-99437168D01*
X146944463Y-99313918D01*
X147212252Y-99134987D01*
X147439987Y-98907252D01*
X147618918Y-98639463D01*
X147742168Y-98341912D01*
X147805000Y-98026033D01*
X147805000Y-97703967D01*
X147742168Y-97388088D01*
X147618918Y-97090537D01*
X147439987Y-96822748D01*
X147212252Y-96595013D01*
X147115065Y-96530075D01*
X147125808Y-96500413D01*
X146170000Y-95544605D01*
X146155858Y-95558748D01*
X145976253Y-95379143D01*
X145990395Y-95365000D01*
X145976253Y-95350858D01*
X146155858Y-95171253D01*
X146170000Y-95185395D01*
X146184143Y-95171253D01*
X146363748Y-95350858D01*
X146349605Y-95365000D01*
X147305413Y-96320808D01*
X147569814Y-96225044D01*
X147710704Y-95935429D01*
X147792384Y-95623892D01*
X147811718Y-95302405D01*
X147767961Y-94983325D01*
X147662795Y-94678912D01*
X147569814Y-94504956D01*
X147420777Y-94450976D01*
X147524494Y-94395537D01*
X147621185Y-94316185D01*
X147700537Y-94219494D01*
X147759502Y-94109180D01*
X147795812Y-93989482D01*
X147808072Y-93865000D01*
X147808072Y-91865000D01*
X147795812Y-91740518D01*
X147759502Y-91620820D01*
X147700537Y-91510506D01*
X147621185Y-91413815D01*
X147524494Y-91334463D01*
X147414180Y-91275498D01*
X147294482Y-91239188D01*
X147170000Y-91226928D01*
X146900734Y-91226928D01*
X146859699Y-91150157D01*
X146782391Y-91055958D01*
X146756541Y-91024459D01*
X146725039Y-90998606D01*
X144491433Y-88765000D01*
X151431928Y-88765000D01*
X151431928Y-90765000D01*
X151444188Y-90889482D01*
X151480498Y-91009180D01*
X151539463Y-91119494D01*
X151618815Y-91216185D01*
X151715506Y-91295537D01*
X151825820Y-91354502D01*
X151945518Y-91390812D01*
X152070000Y-91403072D01*
X155270000Y-91403072D01*
X155394482Y-91390812D01*
X155514180Y-91354502D01*
X155624494Y-91295537D01*
X155721185Y-91216185D01*
X155800537Y-91119494D01*
X155859502Y-91009180D01*
X155895812Y-90889482D01*
X155908072Y-90765000D01*
X155908072Y-88765000D01*
X155895812Y-88640518D01*
X155859502Y-88520820D01*
X155800537Y-88410506D01*
X155721185Y-88313815D01*
X155624494Y-88234463D01*
X155514180Y-88175498D01*
X155394482Y-88139188D01*
X155270000Y-88126928D01*
X152070000Y-88126928D01*
X151945518Y-88139188D01*
X151825820Y-88175498D01*
X151715506Y-88234463D01*
X151618815Y-88313815D01*
X151539463Y-88410506D01*
X151480498Y-88520820D01*
X151444188Y-88640518D01*
X151431928Y-88765000D01*
X144491433Y-88765000D01*
X143804254Y-88077822D01*
X143789820Y-88005257D01*
X143716104Y-87827290D01*
X143609085Y-87667125D01*
X143472875Y-87530915D01*
X143312710Y-87423896D01*
X143134743Y-87350180D01*
X143062180Y-87335746D01*
X140928307Y-85201875D01*
X140883061Y-85092641D01*
X140793441Y-84958514D01*
X149160000Y-84958514D01*
X149160000Y-85221486D01*
X149211304Y-85479405D01*
X149311939Y-85722359D01*
X149458038Y-85941013D01*
X149643987Y-86126962D01*
X149862641Y-86273061D01*
X150105595Y-86373696D01*
X150363514Y-86425000D01*
X150626486Y-86425000D01*
X150884405Y-86373696D01*
X151127359Y-86273061D01*
X151346013Y-86126962D01*
X151531962Y-85941013D01*
X151678061Y-85722359D01*
X151778696Y-85479405D01*
X151830000Y-85221486D01*
X151830000Y-84958514D01*
X151778696Y-84700595D01*
X151678061Y-84457641D01*
X151531962Y-84238987D01*
X151346013Y-84053038D01*
X151127359Y-83906939D01*
X150884405Y-83806304D01*
X150626486Y-83755000D01*
X150363514Y-83755000D01*
X150105595Y-83806304D01*
X149862641Y-83906939D01*
X149643987Y-84053038D01*
X149458038Y-84238987D01*
X149311939Y-84457641D01*
X149211304Y-84700595D01*
X149160000Y-84958514D01*
X140793441Y-84958514D01*
X140736962Y-84873987D01*
X140551013Y-84688038D01*
X140332359Y-84541939D01*
X140089405Y-84441304D01*
X139831486Y-84390000D01*
X139568514Y-84390000D01*
X139310595Y-84441304D01*
X139067641Y-84541939D01*
X138848987Y-84688038D01*
X138663038Y-84873987D01*
X138645991Y-84899500D01*
X136944009Y-84899500D01*
X136926962Y-84873987D01*
X136741013Y-84688038D01*
X136522359Y-84541939D01*
X136279405Y-84441304D01*
X136021486Y-84390000D01*
X135758514Y-84390000D01*
X135500595Y-84441304D01*
X135257641Y-84541939D01*
X135038987Y-84688038D01*
X134853038Y-84873987D01*
X134706939Y-85092641D01*
X134606304Y-85335595D01*
X134555000Y-85593514D01*
X130975000Y-85593514D01*
X130975000Y-85583665D01*
X130954056Y-85478376D01*
X135283918Y-81148514D01*
X149160000Y-81148514D01*
X149160000Y-81411486D01*
X149211304Y-81669405D01*
X149311939Y-81912359D01*
X149458038Y-82131013D01*
X149643987Y-82316962D01*
X149862641Y-82463061D01*
X150105595Y-82563696D01*
X150363514Y-82615000D01*
X150626486Y-82615000D01*
X150884405Y-82563696D01*
X151127359Y-82463061D01*
X151346013Y-82316962D01*
X151531962Y-82131013D01*
X151678061Y-81912359D01*
X151778696Y-81669405D01*
X151830000Y-81411486D01*
X151830000Y-81148514D01*
X156780000Y-81148514D01*
X156780000Y-81411486D01*
X156831304Y-81669405D01*
X156931939Y-81912359D01*
X157078038Y-82131013D01*
X157263987Y-82316962D01*
X157353001Y-82376439D01*
X157353000Y-83993562D01*
X157263987Y-84053038D01*
X157078038Y-84238987D01*
X156931939Y-84457641D01*
X156831304Y-84700595D01*
X156780000Y-84958514D01*
X156780000Y-85221486D01*
X156831304Y-85479405D01*
X156931939Y-85722359D01*
X157078038Y-85941013D01*
X157263987Y-86126962D01*
X157353000Y-86186438D01*
X157353000Y-86375239D01*
X157248396Y-86531790D01*
X157174680Y-86709757D01*
X157137100Y-86898685D01*
X157137100Y-87091315D01*
X157174680Y-87280243D01*
X157248396Y-87458210D01*
X157353001Y-87614762D01*
X157353000Y-95272577D01*
X157349314Y-95310000D01*
X157353000Y-95347423D01*
X157353000Y-95347425D01*
X157364026Y-95459377D01*
X157407598Y-95603014D01*
X157407599Y-95603015D01*
X157478355Y-95735392D01*
X157498891Y-95760415D01*
X157573578Y-95851422D01*
X157602654Y-95875284D01*
X159102995Y-97375625D01*
X159097832Y-97388088D01*
X159035000Y-97703967D01*
X159035000Y-98026033D01*
X159097832Y-98341912D01*
X159221082Y-98639463D01*
X159400013Y-98907252D01*
X159627748Y-99134987D01*
X159895537Y-99313918D01*
X160193088Y-99437168D01*
X160508967Y-99500000D01*
X160831033Y-99500000D01*
X161146912Y-99437168D01*
X161444463Y-99313918D01*
X161712252Y-99134987D01*
X161939987Y-98907252D01*
X162118918Y-98639463D01*
X162242168Y-98341912D01*
X162305000Y-98026033D01*
X162305000Y-97703967D01*
X162242168Y-97388088D01*
X162118918Y-97090537D01*
X161939987Y-96822748D01*
X161712252Y-96595013D01*
X161444463Y-96416082D01*
X161146912Y-96292832D01*
X160831033Y-96230000D01*
X160508967Y-96230000D01*
X160193088Y-96292832D01*
X160180625Y-96297995D01*
X158877000Y-94994370D01*
X158877000Y-94000413D01*
X159714192Y-94000413D01*
X159809956Y-94264814D01*
X160099571Y-94405704D01*
X160411108Y-94487384D01*
X160732595Y-94506718D01*
X161051675Y-94462961D01*
X161356088Y-94357795D01*
X161530044Y-94264814D01*
X161625808Y-94000413D01*
X160670000Y-93044605D01*
X159714192Y-94000413D01*
X158877000Y-94000413D01*
X158877000Y-92927595D01*
X159028282Y-92927595D01*
X159072039Y-93246675D01*
X159177205Y-93551088D01*
X159270186Y-93725044D01*
X159534587Y-93820808D01*
X160490395Y-92865000D01*
X160849605Y-92865000D01*
X161805413Y-93820808D01*
X162069814Y-93725044D01*
X162210704Y-93435429D01*
X162292384Y-93123892D01*
X162311718Y-92802405D01*
X162267961Y-92483325D01*
X162162795Y-92178912D01*
X162069814Y-92004956D01*
X161805413Y-91909192D01*
X160849605Y-92865000D01*
X160490395Y-92865000D01*
X159534587Y-91909192D01*
X159270186Y-92004956D01*
X159129296Y-92294571D01*
X159047616Y-92606108D01*
X159028282Y-92927595D01*
X158877000Y-92927595D01*
X158877000Y-91729587D01*
X159714192Y-91729587D01*
X160670000Y-92685395D01*
X161625808Y-91729587D01*
X161530044Y-91465186D01*
X161240429Y-91324296D01*
X160928892Y-91242616D01*
X160607405Y-91223282D01*
X160288325Y-91267039D01*
X159983912Y-91372205D01*
X159809956Y-91465186D01*
X159714192Y-91729587D01*
X158877000Y-91729587D01*
X158877000Y-87614761D01*
X158981604Y-87458210D01*
X159055320Y-87280243D01*
X159092900Y-87091315D01*
X159092900Y-86898685D01*
X159055320Y-86709757D01*
X158981604Y-86531790D01*
X158877000Y-86375239D01*
X158877000Y-86186438D01*
X158966013Y-86126962D01*
X159151962Y-85941013D01*
X159298061Y-85722359D01*
X159398696Y-85479405D01*
X159450000Y-85221486D01*
X159450000Y-84958514D01*
X159398696Y-84700595D01*
X159298061Y-84457641D01*
X159151962Y-84238987D01*
X158966013Y-84053038D01*
X158877000Y-83993562D01*
X158877000Y-82376438D01*
X158966013Y-82316962D01*
X159151962Y-82131013D01*
X159298061Y-81912359D01*
X159398696Y-81669405D01*
X159450000Y-81411486D01*
X159450000Y-81148514D01*
X159398696Y-80890595D01*
X159298061Y-80647641D01*
X159151962Y-80428987D01*
X158966013Y-80243038D01*
X158747359Y-80096939D01*
X158504405Y-79996304D01*
X158246486Y-79945000D01*
X157983514Y-79945000D01*
X157725595Y-79996304D01*
X157482641Y-80096939D01*
X157263987Y-80243038D01*
X157078038Y-80428987D01*
X156931939Y-80647641D01*
X156831304Y-80890595D01*
X156780000Y-81148514D01*
X151830000Y-81148514D01*
X151778696Y-80890595D01*
X151678061Y-80647641D01*
X151531962Y-80428987D01*
X151346013Y-80243038D01*
X151127359Y-80096939D01*
X150884405Y-79996304D01*
X150626486Y-79945000D01*
X150363514Y-79945000D01*
X150105595Y-79996304D01*
X149862641Y-80096939D01*
X149643987Y-80243038D01*
X149458038Y-80428987D01*
X149311939Y-80647641D01*
X149211304Y-80890595D01*
X149160000Y-81148514D01*
X135283918Y-81148514D01*
X135402140Y-81030293D01*
X135433640Y-81004442D01*
X135536798Y-80878743D01*
X135613452Y-80735335D01*
X135660655Y-80579727D01*
X135672599Y-80458454D01*
X135672599Y-80458445D01*
X135676592Y-80417902D01*
X135672599Y-80377359D01*
X135672599Y-79422910D01*
X135758514Y-79440000D01*
X136021486Y-79440000D01*
X136279405Y-79388696D01*
X136522359Y-79288061D01*
X136741013Y-79141962D01*
X136926962Y-78956013D01*
X137073061Y-78737359D01*
X137173696Y-78494405D01*
X137225000Y-78236486D01*
X137225000Y-77973514D01*
X138365000Y-77973514D01*
X138365000Y-78236486D01*
X138416304Y-78494405D01*
X138516939Y-78737359D01*
X138663038Y-78956013D01*
X138848987Y-79141962D01*
X139067641Y-79288061D01*
X139310595Y-79388696D01*
X139568514Y-79440000D01*
X139831486Y-79440000D01*
X140089405Y-79388696D01*
X140332359Y-79288061D01*
X140551013Y-79141962D01*
X140736962Y-78956013D01*
X140883061Y-78737359D01*
X140983696Y-78494405D01*
X141035000Y-78236486D01*
X141035000Y-77973514D01*
X140983696Y-77715595D01*
X140883061Y-77472641D01*
X140736962Y-77253987D01*
X140551013Y-77068038D01*
X140332359Y-76921939D01*
X140089405Y-76821304D01*
X139831486Y-76770000D01*
X139568514Y-76770000D01*
X139310595Y-76821304D01*
X139067641Y-76921939D01*
X138848987Y-77068038D01*
X138663038Y-77253987D01*
X138516939Y-77472641D01*
X138416304Y-77715595D01*
X138365000Y-77973514D01*
X137225000Y-77973514D01*
X137173696Y-77715595D01*
X137073061Y-77472641D01*
X136926962Y-77253987D01*
X136741013Y-77068038D01*
X136611089Y-76981226D01*
X142835616Y-70756700D01*
X142908179Y-70742266D01*
X143086146Y-70668550D01*
X143147662Y-70627446D01*
X143517504Y-70627446D01*
X143558054Y-70631440D01*
X143598604Y-70627446D01*
X143598607Y-70627446D01*
X143719880Y-70615502D01*
X143875488Y-70568299D01*
X144018896Y-70491645D01*
X144144595Y-70388487D01*
X144170452Y-70356980D01*
X153423376Y-61104057D01*
X153528665Y-61125000D01*
X153811335Y-61125000D01*
X154088574Y-61069853D01*
X154349727Y-60961680D01*
X154584759Y-60804637D01*
X154784637Y-60604759D01*
X154940000Y-60372241D01*
X155095363Y-60604759D01*
X155295241Y-60804637D01*
X155530273Y-60961680D01*
X155791426Y-61069853D01*
X156068665Y-61125000D01*
X156351335Y-61125000D01*
X156628574Y-61069853D01*
X156889727Y-60961680D01*
X157124759Y-60804637D01*
X157324637Y-60604759D01*
X157480000Y-60372241D01*
X157635363Y-60604759D01*
X157835241Y-60804637D01*
X158070273Y-60961680D01*
X158331426Y-61069853D01*
X158608665Y-61125000D01*
X158891335Y-61125000D01*
X159168574Y-61069853D01*
X159429727Y-60961680D01*
X159664759Y-60804637D01*
X159864637Y-60604759D01*
X160021680Y-60369727D01*
X160129853Y-60108574D01*
X160185000Y-59831335D01*
X160185000Y-59548665D01*
X160129853Y-59271426D01*
X160021680Y-59010273D01*
X159864637Y-58775241D01*
X159664759Y-58575363D01*
X159429727Y-58418320D01*
X159168574Y-58310147D01*
X158891335Y-58255000D01*
X158608665Y-58255000D01*
X158331426Y-58310147D01*
X158070273Y-58418320D01*
X157835241Y-58575363D01*
X157635363Y-58775241D01*
X157480000Y-59007759D01*
X157324637Y-58775241D01*
X157124759Y-58575363D01*
X156889727Y-58418320D01*
X156628574Y-58310147D01*
X156351335Y-58255000D01*
X156068665Y-58255000D01*
X155791426Y-58310147D01*
X155530273Y-58418320D01*
X155295241Y-58575363D01*
X155095363Y-58775241D01*
X154940000Y-59007759D01*
X154784637Y-58775241D01*
X154584759Y-58575363D01*
X154349727Y-58418320D01*
X154088574Y-58310147D01*
X153811335Y-58255000D01*
X153528665Y-58255000D01*
X153251426Y-58310147D01*
X152990273Y-58418320D01*
X152755241Y-58575363D01*
X152555363Y-58775241D01*
X152400000Y-59007759D01*
X152244637Y-58775241D01*
X152044759Y-58575363D01*
X151809727Y-58418320D01*
X151548574Y-58310147D01*
X151271335Y-58255000D01*
X150988665Y-58255000D01*
X150711426Y-58310147D01*
X150450273Y-58418320D01*
X150215241Y-58575363D01*
X150015363Y-58775241D01*
X149860000Y-59007759D01*
X149704637Y-58775241D01*
X149504759Y-58575363D01*
X149269727Y-58418320D01*
X149008574Y-58310147D01*
X148731335Y-58255000D01*
X148448665Y-58255000D01*
X148171426Y-58310147D01*
X147910273Y-58418320D01*
X147675241Y-58575363D01*
X147475363Y-58775241D01*
X147320000Y-59007759D01*
X147164637Y-58775241D01*
X146964759Y-58575363D01*
X146729727Y-58418320D01*
X146468574Y-58310147D01*
X146191335Y-58255000D01*
X145908665Y-58255000D01*
X145631426Y-58310147D01*
X145370273Y-58418320D01*
X145135241Y-58575363D01*
X144935363Y-58775241D01*
X144780000Y-59007759D01*
X144624637Y-58775241D01*
X144424759Y-58575363D01*
X144189727Y-58418320D01*
X143928574Y-58310147D01*
X143651335Y-58255000D01*
X143368665Y-58255000D01*
X143091426Y-58310147D01*
X142830273Y-58418320D01*
X142595241Y-58575363D01*
X142395363Y-58775241D01*
X142240000Y-59007759D01*
X142084637Y-58775241D01*
X141884759Y-58575363D01*
X141649727Y-58418320D01*
X141388574Y-58310147D01*
X141111335Y-58255000D01*
X140828665Y-58255000D01*
X140551426Y-58310147D01*
X140290273Y-58418320D01*
X140055241Y-58575363D01*
X139855363Y-58775241D01*
X139698320Y-59010273D01*
X139590147Y-59271426D01*
X139535000Y-59548665D01*
X139535000Y-59831335D01*
X139590147Y-60108574D01*
X139698320Y-60369727D01*
X139855363Y-60604759D01*
X140055241Y-60804637D01*
X140144501Y-60864278D01*
X140144500Y-61888067D01*
X140122321Y-61910246D01*
X140049757Y-61924680D01*
X139871790Y-61998396D01*
X139711625Y-62105415D01*
X139575415Y-62241625D01*
X139468396Y-62401790D01*
X139394680Y-62579757D01*
X139380246Y-62652320D01*
X137960000Y-64072567D01*
X137960000Y-63993665D01*
X137904853Y-63716426D01*
X137796680Y-63455273D01*
X137639637Y-63220241D01*
X137439759Y-63020363D01*
X137204727Y-62863320D01*
X136943574Y-62755147D01*
X136666335Y-62700000D01*
X136383665Y-62700000D01*
X136278376Y-62720944D01*
X134654045Y-61096613D01*
X134788574Y-61069853D01*
X135049727Y-60961680D01*
X135284759Y-60804637D01*
X135484637Y-60604759D01*
X135640000Y-60372241D01*
X135795363Y-60604759D01*
X135995241Y-60804637D01*
X136230273Y-60961680D01*
X136491426Y-61069853D01*
X136768665Y-61125000D01*
X137051335Y-61125000D01*
X137328574Y-61069853D01*
X137589727Y-60961680D01*
X137824759Y-60804637D01*
X138024637Y-60604759D01*
X138181680Y-60369727D01*
X138289853Y-60108574D01*
X138345000Y-59831335D01*
X138345000Y-59548665D01*
X138289853Y-59271426D01*
X138181680Y-59010273D01*
X138024637Y-58775241D01*
X137824759Y-58575363D01*
X137589727Y-58418320D01*
X137328574Y-58310147D01*
X137051335Y-58255000D01*
X136768665Y-58255000D01*
X136491426Y-58310147D01*
X136230273Y-58418320D01*
X135995241Y-58575363D01*
X135795363Y-58775241D01*
X135640000Y-59007759D01*
X135484637Y-58775241D01*
X135284759Y-58575363D01*
X135049727Y-58418320D01*
X134788574Y-58310147D01*
X134511335Y-58255000D01*
X134228665Y-58255000D01*
X133951426Y-58310147D01*
X133690273Y-58418320D01*
X133455241Y-58575363D01*
X133255363Y-58775241D01*
X133100000Y-59007759D01*
X132944637Y-58775241D01*
X132744759Y-58575363D01*
X132509727Y-58418320D01*
X132248574Y-58310147D01*
X131971335Y-58255000D01*
X131688665Y-58255000D01*
X131411426Y-58310147D01*
X131150273Y-58418320D01*
X130915241Y-58575363D01*
X130715363Y-58775241D01*
X130560000Y-59007759D01*
X130404637Y-58775241D01*
X130204759Y-58575363D01*
X129969727Y-58418320D01*
X129708574Y-58310147D01*
X129431335Y-58255000D01*
X129148665Y-58255000D01*
X128871426Y-58310147D01*
X128610273Y-58418320D01*
X128375241Y-58575363D01*
X128175363Y-58775241D01*
X128020000Y-59007759D01*
X127864637Y-58775241D01*
X127664759Y-58575363D01*
X127429727Y-58418320D01*
X127168574Y-58310147D01*
X126891335Y-58255000D01*
X126608665Y-58255000D01*
X126331426Y-58310147D01*
X126070273Y-58418320D01*
X125835241Y-58575363D01*
X125635363Y-58775241D01*
X125480000Y-59007759D01*
X125324637Y-58775241D01*
X125124759Y-58575363D01*
X124889727Y-58418320D01*
X124628574Y-58310147D01*
X124351335Y-58255000D01*
X124068665Y-58255000D01*
X123791426Y-58310147D01*
X123530273Y-58418320D01*
X123295241Y-58575363D01*
X123095363Y-58775241D01*
X122938320Y-59010273D01*
X122933933Y-59020865D01*
X122822385Y-58834869D01*
X122633414Y-58626481D01*
X122407420Y-58458963D01*
X122153087Y-58338754D01*
X122019039Y-58298096D01*
X121797000Y-58420085D01*
X121797000Y-59563000D01*
X121817000Y-59563000D01*
X121817000Y-59817000D01*
X121797000Y-59817000D01*
X121797000Y-59837000D01*
X121543000Y-59837000D01*
X121543000Y-59817000D01*
X121523000Y-59817000D01*
X121523000Y-59563000D01*
X121543000Y-59563000D01*
X121543000Y-58420085D01*
X121320961Y-58298096D01*
X121186913Y-58338754D01*
X120932580Y-58458963D01*
X120706586Y-58626481D01*
X120517615Y-58834869D01*
X120406067Y-59020865D01*
X120401680Y-59010273D01*
X120244637Y-58775241D01*
X120044759Y-58575363D01*
X119809727Y-58418320D01*
X119548574Y-58310147D01*
X119271335Y-58255000D01*
X118988665Y-58255000D01*
X118711426Y-58310147D01*
X118450273Y-58418320D01*
X118215241Y-58575363D01*
X118015363Y-58775241D01*
X117860000Y-59007759D01*
X117704637Y-58775241D01*
X117504759Y-58575363D01*
X117269727Y-58418320D01*
X117008574Y-58310147D01*
X116731335Y-58255000D01*
X116448665Y-58255000D01*
X116171426Y-58310147D01*
X115910273Y-58418320D01*
X115675241Y-58575363D01*
X115475363Y-58775241D01*
X115320000Y-59007759D01*
X115164637Y-58775241D01*
X114964759Y-58575363D01*
X114729727Y-58418320D01*
X114468574Y-58310147D01*
X114191335Y-58255000D01*
X113908665Y-58255000D01*
X113631426Y-58310147D01*
X113370273Y-58418320D01*
X113135241Y-58575363D01*
X112935363Y-58775241D01*
X112778320Y-59010273D01*
X112670147Y-59271426D01*
X112615000Y-59548665D01*
X112615000Y-59831335D01*
X112670147Y-60108574D01*
X112778320Y-60369727D01*
X112935363Y-60604759D01*
X113135241Y-60804637D01*
X113177689Y-60833000D01*
X112121883Y-60833000D01*
X112084460Y-60829314D01*
X112047037Y-60833000D01*
X112047034Y-60833000D01*
X111935082Y-60844026D01*
X111791445Y-60887598D01*
X111758325Y-60905301D01*
X111659067Y-60958355D01*
X111576364Y-61026228D01*
X111543038Y-61053578D01*
X111519181Y-61082648D01*
X109599151Y-63002679D01*
X109414486Y-63039411D01*
X109236519Y-63113127D01*
X109076354Y-63220146D01*
X108940144Y-63356356D01*
X108833125Y-63516521D01*
X108759409Y-63694488D01*
X108722677Y-63879152D01*
X95993448Y-76608382D01*
X95964378Y-76632239D01*
X95940521Y-76661309D01*
X95940520Y-76661310D01*
X95910000Y-76698498D01*
X95910000Y-57810000D01*
X159746620Y-57810000D01*
X160630000Y-58693381D01*
M02*
