G04 #@! TF.GenerationSoftware,KiCad,Pcbnew,(5.1.5)-3*
G04 #@! TF.CreationDate,2020-02-23T22:46:14-05:00*
G04 #@! TF.ProjectId,StupidDogFocuserPCB,53747570-6964-4446-9f67-466f63757365,1*
G04 #@! TF.SameCoordinates,Original*
G04 #@! TF.FileFunction,Soldermask,Top*
G04 #@! TF.FilePolarity,Negative*
%FSLAX46Y46*%
G04 Gerber Fmt 4.6, Leading zero omitted, Abs format (unit mm)*
G04 Created by KiCad (PCBNEW (5.1.5)-3) date 2020-02-23 22:46:14*
%MOMM*%
%LPD*%
G04 APERTURE LIST*
%ADD10C,0.100000*%
G04 APERTURE END LIST*
D10*
G36*
X158998169Y-107131895D02*
G01*
X159153005Y-107196031D01*
X159292354Y-107289140D01*
X159410860Y-107407646D01*
X159503969Y-107546995D01*
X159568105Y-107701831D01*
X159600800Y-107866203D01*
X159600800Y-108033797D01*
X159568105Y-108198169D01*
X159503969Y-108353005D01*
X159410860Y-108492354D01*
X159292354Y-108610860D01*
X159153005Y-108703969D01*
X158998169Y-108768105D01*
X158833797Y-108800800D01*
X158666203Y-108800800D01*
X158501831Y-108768105D01*
X158346995Y-108703969D01*
X158207646Y-108610860D01*
X158089140Y-108492354D01*
X157996031Y-108353005D01*
X157931895Y-108198169D01*
X157899200Y-108033797D01*
X157899200Y-107866203D01*
X157931895Y-107701831D01*
X157996031Y-107546995D01*
X158089140Y-107407646D01*
X158207646Y-107289140D01*
X158346995Y-107196031D01*
X158501831Y-107131895D01*
X158666203Y-107099200D01*
X158833797Y-107099200D01*
X158998169Y-107131895D01*
G37*
G36*
X156458169Y-107131895D02*
G01*
X156613005Y-107196031D01*
X156752354Y-107289140D01*
X156870860Y-107407646D01*
X156963969Y-107546995D01*
X157028105Y-107701831D01*
X157060800Y-107866203D01*
X157060800Y-108033797D01*
X157028105Y-108198169D01*
X156963969Y-108353005D01*
X156870860Y-108492354D01*
X156752354Y-108610860D01*
X156613005Y-108703969D01*
X156458169Y-108768105D01*
X156293797Y-108800800D01*
X156126203Y-108800800D01*
X155961831Y-108768105D01*
X155806995Y-108703969D01*
X155667646Y-108610860D01*
X155549140Y-108492354D01*
X155456031Y-108353005D01*
X155391895Y-108198169D01*
X155359200Y-108033797D01*
X155359200Y-107866203D01*
X155391895Y-107701831D01*
X155456031Y-107546995D01*
X155549140Y-107407646D01*
X155667646Y-107289140D01*
X155806995Y-107196031D01*
X155961831Y-107131895D01*
X156126203Y-107099200D01*
X156293797Y-107099200D01*
X156458169Y-107131895D01*
G37*
G36*
X124040800Y-108800800D02*
G01*
X122339200Y-108800800D01*
X122339200Y-107099200D01*
X124040800Y-107099200D01*
X124040800Y-108800800D01*
G37*
G36*
X125978169Y-107131895D02*
G01*
X126133005Y-107196031D01*
X126272354Y-107289140D01*
X126390860Y-107407646D01*
X126483969Y-107546995D01*
X126548105Y-107701831D01*
X126580800Y-107866203D01*
X126580800Y-108033797D01*
X126548105Y-108198169D01*
X126483969Y-108353005D01*
X126390860Y-108492354D01*
X126272354Y-108610860D01*
X126133005Y-108703969D01*
X125978169Y-108768105D01*
X125813797Y-108800800D01*
X125646203Y-108800800D01*
X125481831Y-108768105D01*
X125326995Y-108703969D01*
X125187646Y-108610860D01*
X125069140Y-108492354D01*
X124976031Y-108353005D01*
X124911895Y-108198169D01*
X124879200Y-108033797D01*
X124879200Y-107866203D01*
X124911895Y-107701831D01*
X124976031Y-107546995D01*
X125069140Y-107407646D01*
X125187646Y-107289140D01*
X125326995Y-107196031D01*
X125481831Y-107131895D01*
X125646203Y-107099200D01*
X125813797Y-107099200D01*
X125978169Y-107131895D01*
G37*
G36*
X128518169Y-107131895D02*
G01*
X128673005Y-107196031D01*
X128812354Y-107289140D01*
X128930860Y-107407646D01*
X129023969Y-107546995D01*
X129088105Y-107701831D01*
X129120800Y-107866203D01*
X129120800Y-108033797D01*
X129088105Y-108198169D01*
X129023969Y-108353005D01*
X128930860Y-108492354D01*
X128812354Y-108610860D01*
X128673005Y-108703969D01*
X128518169Y-108768105D01*
X128353797Y-108800800D01*
X128186203Y-108800800D01*
X128021831Y-108768105D01*
X127866995Y-108703969D01*
X127727646Y-108610860D01*
X127609140Y-108492354D01*
X127516031Y-108353005D01*
X127451895Y-108198169D01*
X127419200Y-108033797D01*
X127419200Y-107866203D01*
X127451895Y-107701831D01*
X127516031Y-107546995D01*
X127609140Y-107407646D01*
X127727646Y-107289140D01*
X127866995Y-107196031D01*
X128021831Y-107131895D01*
X128186203Y-107099200D01*
X128353797Y-107099200D01*
X128518169Y-107131895D01*
G37*
G36*
X131058169Y-107131895D02*
G01*
X131213005Y-107196031D01*
X131352354Y-107289140D01*
X131470860Y-107407646D01*
X131563969Y-107546995D01*
X131628105Y-107701831D01*
X131660800Y-107866203D01*
X131660800Y-108033797D01*
X131628105Y-108198169D01*
X131563969Y-108353005D01*
X131470860Y-108492354D01*
X131352354Y-108610860D01*
X131213005Y-108703969D01*
X131058169Y-108768105D01*
X130893797Y-108800800D01*
X130726203Y-108800800D01*
X130561831Y-108768105D01*
X130406995Y-108703969D01*
X130267646Y-108610860D01*
X130149140Y-108492354D01*
X130056031Y-108353005D01*
X129991895Y-108198169D01*
X129959200Y-108033797D01*
X129959200Y-107866203D01*
X129991895Y-107701831D01*
X130056031Y-107546995D01*
X130149140Y-107407646D01*
X130267646Y-107289140D01*
X130406995Y-107196031D01*
X130561831Y-107131895D01*
X130726203Y-107099200D01*
X130893797Y-107099200D01*
X131058169Y-107131895D01*
G37*
G36*
X133598169Y-107131895D02*
G01*
X133753005Y-107196031D01*
X133892354Y-107289140D01*
X134010860Y-107407646D01*
X134103969Y-107546995D01*
X134168105Y-107701831D01*
X134200800Y-107866203D01*
X134200800Y-108033797D01*
X134168105Y-108198169D01*
X134103969Y-108353005D01*
X134010860Y-108492354D01*
X133892354Y-108610860D01*
X133753005Y-108703969D01*
X133598169Y-108768105D01*
X133433797Y-108800800D01*
X133266203Y-108800800D01*
X133101831Y-108768105D01*
X132946995Y-108703969D01*
X132807646Y-108610860D01*
X132689140Y-108492354D01*
X132596031Y-108353005D01*
X132531895Y-108198169D01*
X132499200Y-108033797D01*
X132499200Y-107866203D01*
X132531895Y-107701831D01*
X132596031Y-107546995D01*
X132689140Y-107407646D01*
X132807646Y-107289140D01*
X132946995Y-107196031D01*
X133101831Y-107131895D01*
X133266203Y-107099200D01*
X133433797Y-107099200D01*
X133598169Y-107131895D01*
G37*
G36*
X136138169Y-107131895D02*
G01*
X136293005Y-107196031D01*
X136432354Y-107289140D01*
X136550860Y-107407646D01*
X136643969Y-107546995D01*
X136708105Y-107701831D01*
X136740800Y-107866203D01*
X136740800Y-108033797D01*
X136708105Y-108198169D01*
X136643969Y-108353005D01*
X136550860Y-108492354D01*
X136432354Y-108610860D01*
X136293005Y-108703969D01*
X136138169Y-108768105D01*
X135973797Y-108800800D01*
X135806203Y-108800800D01*
X135641831Y-108768105D01*
X135486995Y-108703969D01*
X135347646Y-108610860D01*
X135229140Y-108492354D01*
X135136031Y-108353005D01*
X135071895Y-108198169D01*
X135039200Y-108033797D01*
X135039200Y-107866203D01*
X135071895Y-107701831D01*
X135136031Y-107546995D01*
X135229140Y-107407646D01*
X135347646Y-107289140D01*
X135486995Y-107196031D01*
X135641831Y-107131895D01*
X135806203Y-107099200D01*
X135973797Y-107099200D01*
X136138169Y-107131895D01*
G37*
G36*
X141218169Y-107131895D02*
G01*
X141373005Y-107196031D01*
X141512354Y-107289140D01*
X141630860Y-107407646D01*
X141723969Y-107546995D01*
X141788105Y-107701831D01*
X141820800Y-107866203D01*
X141820800Y-108033797D01*
X141788105Y-108198169D01*
X141723969Y-108353005D01*
X141630860Y-108492354D01*
X141512354Y-108610860D01*
X141373005Y-108703969D01*
X141218169Y-108768105D01*
X141053797Y-108800800D01*
X140886203Y-108800800D01*
X140721831Y-108768105D01*
X140566995Y-108703969D01*
X140427646Y-108610860D01*
X140309140Y-108492354D01*
X140216031Y-108353005D01*
X140151895Y-108198169D01*
X140119200Y-108033797D01*
X140119200Y-107866203D01*
X140151895Y-107701831D01*
X140216031Y-107546995D01*
X140309140Y-107407646D01*
X140427646Y-107289140D01*
X140566995Y-107196031D01*
X140721831Y-107131895D01*
X140886203Y-107099200D01*
X141053797Y-107099200D01*
X141218169Y-107131895D01*
G37*
G36*
X146298169Y-107131895D02*
G01*
X146453005Y-107196031D01*
X146592354Y-107289140D01*
X146710860Y-107407646D01*
X146803969Y-107546995D01*
X146868105Y-107701831D01*
X146900800Y-107866203D01*
X146900800Y-108033797D01*
X146868105Y-108198169D01*
X146803969Y-108353005D01*
X146710860Y-108492354D01*
X146592354Y-108610860D01*
X146453005Y-108703969D01*
X146298169Y-108768105D01*
X146133797Y-108800800D01*
X145966203Y-108800800D01*
X145801831Y-108768105D01*
X145646995Y-108703969D01*
X145507646Y-108610860D01*
X145389140Y-108492354D01*
X145296031Y-108353005D01*
X145231895Y-108198169D01*
X145199200Y-108033797D01*
X145199200Y-107866203D01*
X145231895Y-107701831D01*
X145296031Y-107546995D01*
X145389140Y-107407646D01*
X145507646Y-107289140D01*
X145646995Y-107196031D01*
X145801831Y-107131895D01*
X145966203Y-107099200D01*
X146133797Y-107099200D01*
X146298169Y-107131895D01*
G37*
G36*
X148838169Y-107131895D02*
G01*
X148993005Y-107196031D01*
X149132354Y-107289140D01*
X149250860Y-107407646D01*
X149343969Y-107546995D01*
X149408105Y-107701831D01*
X149440800Y-107866203D01*
X149440800Y-108033797D01*
X149408105Y-108198169D01*
X149343969Y-108353005D01*
X149250860Y-108492354D01*
X149132354Y-108610860D01*
X148993005Y-108703969D01*
X148838169Y-108768105D01*
X148673797Y-108800800D01*
X148506203Y-108800800D01*
X148341831Y-108768105D01*
X148186995Y-108703969D01*
X148047646Y-108610860D01*
X147929140Y-108492354D01*
X147836031Y-108353005D01*
X147771895Y-108198169D01*
X147739200Y-108033797D01*
X147739200Y-107866203D01*
X147771895Y-107701831D01*
X147836031Y-107546995D01*
X147929140Y-107407646D01*
X148047646Y-107289140D01*
X148186995Y-107196031D01*
X148341831Y-107131895D01*
X148506203Y-107099200D01*
X148673797Y-107099200D01*
X148838169Y-107131895D01*
G37*
G36*
X151378169Y-107131895D02*
G01*
X151533005Y-107196031D01*
X151672354Y-107289140D01*
X151790860Y-107407646D01*
X151883969Y-107546995D01*
X151948105Y-107701831D01*
X151980800Y-107866203D01*
X151980800Y-108033797D01*
X151948105Y-108198169D01*
X151883969Y-108353005D01*
X151790860Y-108492354D01*
X151672354Y-108610860D01*
X151533005Y-108703969D01*
X151378169Y-108768105D01*
X151213797Y-108800800D01*
X151046203Y-108800800D01*
X150881831Y-108768105D01*
X150726995Y-108703969D01*
X150587646Y-108610860D01*
X150469140Y-108492354D01*
X150376031Y-108353005D01*
X150311895Y-108198169D01*
X150279200Y-108033797D01*
X150279200Y-107866203D01*
X150311895Y-107701831D01*
X150376031Y-107546995D01*
X150469140Y-107407646D01*
X150587646Y-107289140D01*
X150726995Y-107196031D01*
X150881831Y-107131895D01*
X151046203Y-107099200D01*
X151213797Y-107099200D01*
X151378169Y-107131895D01*
G37*
G36*
X153918169Y-107131895D02*
G01*
X154073005Y-107196031D01*
X154212354Y-107289140D01*
X154330860Y-107407646D01*
X154423969Y-107546995D01*
X154488105Y-107701831D01*
X154520800Y-107866203D01*
X154520800Y-108033797D01*
X154488105Y-108198169D01*
X154423969Y-108353005D01*
X154330860Y-108492354D01*
X154212354Y-108610860D01*
X154073005Y-108703969D01*
X153918169Y-108768105D01*
X153753797Y-108800800D01*
X153586203Y-108800800D01*
X153421831Y-108768105D01*
X153266995Y-108703969D01*
X153127646Y-108610860D01*
X153009140Y-108492354D01*
X152916031Y-108353005D01*
X152851895Y-108198169D01*
X152819200Y-108033797D01*
X152819200Y-107866203D01*
X152851895Y-107701831D01*
X152916031Y-107546995D01*
X153009140Y-107407646D01*
X153127646Y-107289140D01*
X153266995Y-107196031D01*
X153421831Y-107131895D01*
X153586203Y-107099200D01*
X153753797Y-107099200D01*
X153918169Y-107131895D01*
G37*
G36*
X138678169Y-107131895D02*
G01*
X138833005Y-107196031D01*
X138972354Y-107289140D01*
X139090860Y-107407646D01*
X139183969Y-107546995D01*
X139248105Y-107701831D01*
X139280800Y-107866203D01*
X139280800Y-108033797D01*
X139248105Y-108198169D01*
X139183969Y-108353005D01*
X139090860Y-108492354D01*
X138972354Y-108610860D01*
X138833005Y-108703969D01*
X138678169Y-108768105D01*
X138513797Y-108800800D01*
X138346203Y-108800800D01*
X138181831Y-108768105D01*
X138026995Y-108703969D01*
X137887646Y-108610860D01*
X137769140Y-108492354D01*
X137676031Y-108353005D01*
X137611895Y-108198169D01*
X137579200Y-108033797D01*
X137579200Y-107866203D01*
X137611895Y-107701831D01*
X137676031Y-107546995D01*
X137769140Y-107407646D01*
X137887646Y-107289140D01*
X138026995Y-107196031D01*
X138181831Y-107131895D01*
X138346203Y-107099200D01*
X138513797Y-107099200D01*
X138678169Y-107131895D01*
G37*
G36*
X145028169Y-103281895D02*
G01*
X145183005Y-103346031D01*
X145322354Y-103439140D01*
X145440860Y-103557646D01*
X145533969Y-103696995D01*
X145598105Y-103851831D01*
X145630800Y-104016203D01*
X145630800Y-104183797D01*
X145598105Y-104348169D01*
X145533969Y-104503005D01*
X145440860Y-104642354D01*
X145322354Y-104760860D01*
X145183005Y-104853969D01*
X145028169Y-104918105D01*
X144863797Y-104950800D01*
X144696203Y-104950800D01*
X144531831Y-104918105D01*
X144376995Y-104853969D01*
X144237646Y-104760860D01*
X144119140Y-104642354D01*
X144026031Y-104503005D01*
X143961895Y-104348169D01*
X143929200Y-104183797D01*
X143929200Y-104016203D01*
X143961895Y-103851831D01*
X144026031Y-103696995D01*
X144119140Y-103557646D01*
X144237646Y-103439140D01*
X144376995Y-103346031D01*
X144531831Y-103281895D01*
X144696203Y-103249200D01*
X144863797Y-103249200D01*
X145028169Y-103281895D01*
G37*
G36*
X130423169Y-102686895D02*
G01*
X130578005Y-102751031D01*
X130717354Y-102844140D01*
X130835860Y-102962646D01*
X130928969Y-103101995D01*
X130993105Y-103256831D01*
X131025800Y-103421203D01*
X131025800Y-103588797D01*
X130993105Y-103753169D01*
X130928969Y-103908005D01*
X130835860Y-104047354D01*
X130717354Y-104165860D01*
X130578005Y-104258969D01*
X130423169Y-104323105D01*
X130258797Y-104355800D01*
X130091203Y-104355800D01*
X129926831Y-104323105D01*
X129771995Y-104258969D01*
X129632646Y-104165860D01*
X129514140Y-104047354D01*
X129421031Y-103908005D01*
X129356895Y-103753169D01*
X129324200Y-103588797D01*
X129324200Y-103421203D01*
X129356895Y-103256831D01*
X129421031Y-103101995D01*
X129514140Y-102962646D01*
X129632646Y-102844140D01*
X129771995Y-102751031D01*
X129926831Y-102686895D01*
X130091203Y-102654200D01*
X130258797Y-102654200D01*
X130423169Y-102686895D01*
G37*
G36*
X125343169Y-102686895D02*
G01*
X125498005Y-102751031D01*
X125637354Y-102844140D01*
X125755860Y-102962646D01*
X125848969Y-103101995D01*
X125913105Y-103256831D01*
X125945800Y-103421203D01*
X125945800Y-103588797D01*
X125913105Y-103753169D01*
X125848969Y-103908005D01*
X125755860Y-104047354D01*
X125637354Y-104165860D01*
X125498005Y-104258969D01*
X125343169Y-104323105D01*
X125178797Y-104355800D01*
X125011203Y-104355800D01*
X124846831Y-104323105D01*
X124691995Y-104258969D01*
X124552646Y-104165860D01*
X124434140Y-104047354D01*
X124341031Y-103908005D01*
X124276895Y-103753169D01*
X124244200Y-103588797D01*
X124244200Y-103421203D01*
X124276895Y-103256831D01*
X124341031Y-103101995D01*
X124434140Y-102962646D01*
X124552646Y-102844140D01*
X124691995Y-102751031D01*
X124846831Y-102686895D01*
X125011203Y-102654200D01*
X125178797Y-102654200D01*
X125343169Y-102686895D01*
G37*
G36*
X127883169Y-102686895D02*
G01*
X128038005Y-102751031D01*
X128177354Y-102844140D01*
X128295860Y-102962646D01*
X128388969Y-103101995D01*
X128453105Y-103256831D01*
X128485800Y-103421203D01*
X128485800Y-103588797D01*
X128453105Y-103753169D01*
X128388969Y-103908005D01*
X128295860Y-104047354D01*
X128177354Y-104165860D01*
X128038005Y-104258969D01*
X127883169Y-104323105D01*
X127718797Y-104355800D01*
X127551203Y-104355800D01*
X127386831Y-104323105D01*
X127231995Y-104258969D01*
X127092646Y-104165860D01*
X126974140Y-104047354D01*
X126881031Y-103908005D01*
X126816895Y-103753169D01*
X126784200Y-103588797D01*
X126784200Y-103421203D01*
X126816895Y-103256831D01*
X126881031Y-103101995D01*
X126974140Y-102962646D01*
X127092646Y-102844140D01*
X127231995Y-102751031D01*
X127386831Y-102686895D01*
X127551203Y-102654200D01*
X127718797Y-102654200D01*
X127883169Y-102686895D01*
G37*
G36*
X132963169Y-102686895D02*
G01*
X133118005Y-102751031D01*
X133257354Y-102844140D01*
X133375860Y-102962646D01*
X133468969Y-103101995D01*
X133533105Y-103256831D01*
X133565800Y-103421203D01*
X133565800Y-103588797D01*
X133533105Y-103753169D01*
X133468969Y-103908005D01*
X133375860Y-104047354D01*
X133257354Y-104165860D01*
X133118005Y-104258969D01*
X132963169Y-104323105D01*
X132798797Y-104355800D01*
X132631203Y-104355800D01*
X132466831Y-104323105D01*
X132311995Y-104258969D01*
X132172646Y-104165860D01*
X132054140Y-104047354D01*
X131961031Y-103908005D01*
X131896895Y-103753169D01*
X131864200Y-103588797D01*
X131864200Y-103421203D01*
X131896895Y-103256831D01*
X131961031Y-103101995D01*
X132054140Y-102962646D01*
X132172646Y-102844140D01*
X132311995Y-102751031D01*
X132466831Y-102686895D01*
X132631203Y-102654200D01*
X132798797Y-102654200D01*
X132963169Y-102686895D01*
G37*
G36*
X135503169Y-102686895D02*
G01*
X135658005Y-102751031D01*
X135797354Y-102844140D01*
X135915860Y-102962646D01*
X136008969Y-103101995D01*
X136073105Y-103256831D01*
X136105800Y-103421203D01*
X136105800Y-103588797D01*
X136073105Y-103753169D01*
X136008969Y-103908005D01*
X135915860Y-104047354D01*
X135797354Y-104165860D01*
X135658005Y-104258969D01*
X135503169Y-104323105D01*
X135338797Y-104355800D01*
X135171203Y-104355800D01*
X135006831Y-104323105D01*
X134851995Y-104258969D01*
X134712646Y-104165860D01*
X134594140Y-104047354D01*
X134501031Y-103908005D01*
X134436895Y-103753169D01*
X134404200Y-103588797D01*
X134404200Y-103421203D01*
X134436895Y-103256831D01*
X134501031Y-103101995D01*
X134594140Y-102962646D01*
X134712646Y-102844140D01*
X134851995Y-102751031D01*
X135006831Y-102686895D01*
X135171203Y-102654200D01*
X135338797Y-102654200D01*
X135503169Y-102686895D01*
G37*
G36*
X138043169Y-102686895D02*
G01*
X138198005Y-102751031D01*
X138337354Y-102844140D01*
X138455860Y-102962646D01*
X138548969Y-103101995D01*
X138613105Y-103256831D01*
X138645800Y-103421203D01*
X138645800Y-103588797D01*
X138613105Y-103753169D01*
X138548969Y-103908005D01*
X138455860Y-104047354D01*
X138337354Y-104165860D01*
X138198005Y-104258969D01*
X138043169Y-104323105D01*
X137878797Y-104355800D01*
X137711203Y-104355800D01*
X137546831Y-104323105D01*
X137391995Y-104258969D01*
X137252646Y-104165860D01*
X137134140Y-104047354D01*
X137041031Y-103908005D01*
X136976895Y-103753169D01*
X136944200Y-103588797D01*
X136944200Y-103421203D01*
X136976895Y-103256831D01*
X137041031Y-103101995D01*
X137134140Y-102962646D01*
X137252646Y-102844140D01*
X137391995Y-102751031D01*
X137546831Y-102686895D01*
X137711203Y-102654200D01*
X137878797Y-102654200D01*
X138043169Y-102686895D01*
G37*
G36*
X140583169Y-102686895D02*
G01*
X140738005Y-102751031D01*
X140877354Y-102844140D01*
X140995860Y-102962646D01*
X141088969Y-103101995D01*
X141153105Y-103256831D01*
X141185800Y-103421203D01*
X141185800Y-103588797D01*
X141153105Y-103753169D01*
X141088969Y-103908005D01*
X140995860Y-104047354D01*
X140877354Y-104165860D01*
X140738005Y-104258969D01*
X140583169Y-104323105D01*
X140418797Y-104355800D01*
X140251203Y-104355800D01*
X140086831Y-104323105D01*
X139931995Y-104258969D01*
X139792646Y-104165860D01*
X139674140Y-104047354D01*
X139581031Y-103908005D01*
X139516895Y-103753169D01*
X139484200Y-103588797D01*
X139484200Y-103421203D01*
X139516895Y-103256831D01*
X139581031Y-103101995D01*
X139674140Y-102962646D01*
X139792646Y-102844140D01*
X139931995Y-102751031D01*
X140086831Y-102686895D01*
X140251203Y-102654200D01*
X140418797Y-102654200D01*
X140583169Y-102686895D01*
G37*
G36*
X123405800Y-104355800D02*
G01*
X121704200Y-104355800D01*
X121704200Y-102654200D01*
X123405800Y-102654200D01*
X123405800Y-104355800D01*
G37*
G36*
X116470800Y-102500800D02*
G01*
X114669200Y-102500800D01*
X114669200Y-100699200D01*
X116470800Y-100699200D01*
X116470800Y-102500800D01*
G37*
G36*
X145028169Y-100781895D02*
G01*
X145183005Y-100846031D01*
X145322354Y-100939140D01*
X145440860Y-101057646D01*
X145533969Y-101196995D01*
X145598105Y-101351831D01*
X145630800Y-101516203D01*
X145630800Y-101683797D01*
X145598105Y-101848169D01*
X145533969Y-102003005D01*
X145440860Y-102142354D01*
X145322354Y-102260860D01*
X145183005Y-102353969D01*
X145028169Y-102418105D01*
X144863797Y-102450800D01*
X144696203Y-102450800D01*
X144531831Y-102418105D01*
X144376995Y-102353969D01*
X144237646Y-102260860D01*
X144119140Y-102142354D01*
X144026031Y-102003005D01*
X143961895Y-101848169D01*
X143929200Y-101683797D01*
X143929200Y-101516203D01*
X143961895Y-101351831D01*
X144026031Y-101196995D01*
X144119140Y-101057646D01*
X144237646Y-100939140D01*
X144376995Y-100846031D01*
X144531831Y-100781895D01*
X144696203Y-100749200D01*
X144863797Y-100749200D01*
X145028169Y-100781895D01*
G37*
G36*
X115832754Y-98193817D02*
G01*
X115996689Y-98261721D01*
X116144227Y-98360303D01*
X116269697Y-98485773D01*
X116368279Y-98633311D01*
X116436183Y-98797246D01*
X116470800Y-98971279D01*
X116470800Y-99148721D01*
X116436183Y-99322754D01*
X116368279Y-99486689D01*
X116269697Y-99634227D01*
X116144227Y-99759697D01*
X115996689Y-99858279D01*
X115832754Y-99926183D01*
X115658721Y-99960800D01*
X115481279Y-99960800D01*
X115307246Y-99926183D01*
X115143311Y-99858279D01*
X114995773Y-99759697D01*
X114870303Y-99634227D01*
X114771721Y-99486689D01*
X114703817Y-99322754D01*
X114669200Y-99148721D01*
X114669200Y-98971279D01*
X114703817Y-98797246D01*
X114771721Y-98633311D01*
X114870303Y-98485773D01*
X114995773Y-98360303D01*
X115143311Y-98261721D01*
X115307246Y-98193817D01*
X115481279Y-98159200D01*
X115658721Y-98159200D01*
X115832754Y-98193817D01*
G37*
G36*
X115832754Y-95653817D02*
G01*
X115996689Y-95721721D01*
X116144227Y-95820303D01*
X116269697Y-95945773D01*
X116368279Y-96093311D01*
X116436183Y-96257246D01*
X116470800Y-96431279D01*
X116470800Y-96608721D01*
X116436183Y-96782754D01*
X116368279Y-96946689D01*
X116269697Y-97094227D01*
X116144227Y-97219697D01*
X115996689Y-97318279D01*
X115832754Y-97386183D01*
X115658721Y-97420800D01*
X115481279Y-97420800D01*
X115307246Y-97386183D01*
X115143311Y-97318279D01*
X114995773Y-97219697D01*
X114870303Y-97094227D01*
X114771721Y-96946689D01*
X114703817Y-96782754D01*
X114669200Y-96608721D01*
X114669200Y-96431279D01*
X114703817Y-96257246D01*
X114771721Y-96093311D01*
X114870303Y-95945773D01*
X114995773Y-95820303D01*
X115143311Y-95721721D01*
X115307246Y-95653817D01*
X115481279Y-95619200D01*
X115658721Y-95619200D01*
X115832754Y-95653817D01*
G37*
G36*
X115832754Y-93113817D02*
G01*
X115996689Y-93181721D01*
X116144227Y-93280303D01*
X116269697Y-93405773D01*
X116368279Y-93553311D01*
X116436183Y-93717246D01*
X116470800Y-93891279D01*
X116470800Y-94068721D01*
X116436183Y-94242754D01*
X116368279Y-94406689D01*
X116269697Y-94554227D01*
X116144227Y-94679697D01*
X115996689Y-94778279D01*
X115832754Y-94846183D01*
X115658721Y-94880800D01*
X115481279Y-94880800D01*
X115307246Y-94846183D01*
X115143311Y-94778279D01*
X114995773Y-94679697D01*
X114870303Y-94554227D01*
X114771721Y-94406689D01*
X114703817Y-94242754D01*
X114669200Y-94068721D01*
X114669200Y-93891279D01*
X114703817Y-93717246D01*
X114771721Y-93553311D01*
X114870303Y-93405773D01*
X114995773Y-93280303D01*
X115143311Y-93181721D01*
X115307246Y-93113817D01*
X115481279Y-93079200D01*
X115658721Y-93079200D01*
X115832754Y-93113817D01*
G37*
G36*
X100563585Y-90669974D02*
G01*
X100709322Y-90730339D01*
X100840482Y-90817978D01*
X100952022Y-90929518D01*
X101039661Y-91060678D01*
X101100026Y-91206415D01*
X101130800Y-91361128D01*
X101130800Y-91518872D01*
X101100026Y-91673585D01*
X101039661Y-91819322D01*
X100952022Y-91950482D01*
X100840482Y-92062022D01*
X100709322Y-92149661D01*
X100563585Y-92210026D01*
X100408872Y-92240800D01*
X100251128Y-92240800D01*
X100096415Y-92210026D01*
X99950678Y-92149661D01*
X99819518Y-92062022D01*
X99707978Y-91950482D01*
X99620339Y-91819322D01*
X99559974Y-91673585D01*
X99529200Y-91518872D01*
X99529200Y-91361128D01*
X99559974Y-91206415D01*
X99620339Y-91060678D01*
X99707978Y-90929518D01*
X99819518Y-90817978D01*
X99950678Y-90730339D01*
X100096415Y-90669974D01*
X100251128Y-90639200D01*
X100408872Y-90639200D01*
X100563585Y-90669974D01*
G37*
G36*
X125343169Y-89986895D02*
G01*
X125498005Y-90051031D01*
X125637354Y-90144140D01*
X125755860Y-90262646D01*
X125848969Y-90401995D01*
X125913105Y-90556831D01*
X125945800Y-90721203D01*
X125945800Y-90888797D01*
X125913105Y-91053169D01*
X125848969Y-91208005D01*
X125755860Y-91347354D01*
X125637354Y-91465860D01*
X125498005Y-91558969D01*
X125343169Y-91623105D01*
X125178797Y-91655800D01*
X125011203Y-91655800D01*
X124846831Y-91623105D01*
X124691995Y-91558969D01*
X124552646Y-91465860D01*
X124434140Y-91347354D01*
X124341031Y-91208005D01*
X124276895Y-91053169D01*
X124244200Y-90888797D01*
X124244200Y-90721203D01*
X124276895Y-90556831D01*
X124341031Y-90401995D01*
X124434140Y-90262646D01*
X124552646Y-90144140D01*
X124691995Y-90051031D01*
X124846831Y-89986895D01*
X125011203Y-89954200D01*
X125178797Y-89954200D01*
X125343169Y-89986895D01*
G37*
G36*
X122803169Y-89986895D02*
G01*
X122958005Y-90051031D01*
X123097354Y-90144140D01*
X123215860Y-90262646D01*
X123308969Y-90401995D01*
X123373105Y-90556831D01*
X123405800Y-90721203D01*
X123405800Y-90888797D01*
X123373105Y-91053169D01*
X123308969Y-91208005D01*
X123215860Y-91347354D01*
X123097354Y-91465860D01*
X122958005Y-91558969D01*
X122803169Y-91623105D01*
X122638797Y-91655800D01*
X122471203Y-91655800D01*
X122306831Y-91623105D01*
X122151995Y-91558969D01*
X122012646Y-91465860D01*
X121894140Y-91347354D01*
X121801031Y-91208005D01*
X121736895Y-91053169D01*
X121704200Y-90888797D01*
X121704200Y-90721203D01*
X121736895Y-90556831D01*
X121801031Y-90401995D01*
X121894140Y-90262646D01*
X122012646Y-90144140D01*
X122151995Y-90051031D01*
X122306831Y-89986895D01*
X122471203Y-89954200D01*
X122638797Y-89954200D01*
X122803169Y-89986895D01*
G37*
G36*
X127883169Y-89986895D02*
G01*
X128038005Y-90051031D01*
X128177354Y-90144140D01*
X128295860Y-90262646D01*
X128388969Y-90401995D01*
X128453105Y-90556831D01*
X128485800Y-90721203D01*
X128485800Y-90888797D01*
X128453105Y-91053169D01*
X128388969Y-91208005D01*
X128295860Y-91347354D01*
X128177354Y-91465860D01*
X128038005Y-91558969D01*
X127883169Y-91623105D01*
X127718797Y-91655800D01*
X127551203Y-91655800D01*
X127386831Y-91623105D01*
X127231995Y-91558969D01*
X127092646Y-91465860D01*
X126974140Y-91347354D01*
X126881031Y-91208005D01*
X126816895Y-91053169D01*
X126784200Y-90888797D01*
X126784200Y-90721203D01*
X126816895Y-90556831D01*
X126881031Y-90401995D01*
X126974140Y-90262646D01*
X127092646Y-90144140D01*
X127231995Y-90051031D01*
X127386831Y-89986895D01*
X127551203Y-89954200D01*
X127718797Y-89954200D01*
X127883169Y-89986895D01*
G37*
G36*
X130423169Y-89986895D02*
G01*
X130578005Y-90051031D01*
X130717354Y-90144140D01*
X130835860Y-90262646D01*
X130928969Y-90401995D01*
X130993105Y-90556831D01*
X131025800Y-90721203D01*
X131025800Y-90888797D01*
X130993105Y-91053169D01*
X130928969Y-91208005D01*
X130835860Y-91347354D01*
X130717354Y-91465860D01*
X130578005Y-91558969D01*
X130423169Y-91623105D01*
X130258797Y-91655800D01*
X130091203Y-91655800D01*
X129926831Y-91623105D01*
X129771995Y-91558969D01*
X129632646Y-91465860D01*
X129514140Y-91347354D01*
X129421031Y-91208005D01*
X129356895Y-91053169D01*
X129324200Y-90888797D01*
X129324200Y-90721203D01*
X129356895Y-90556831D01*
X129421031Y-90401995D01*
X129514140Y-90262646D01*
X129632646Y-90144140D01*
X129771995Y-90051031D01*
X129926831Y-89986895D01*
X130091203Y-89954200D01*
X130258797Y-89954200D01*
X130423169Y-89986895D01*
G37*
G36*
X135503169Y-89986895D02*
G01*
X135658005Y-90051031D01*
X135797354Y-90144140D01*
X135915860Y-90262646D01*
X136008969Y-90401995D01*
X136073105Y-90556831D01*
X136105800Y-90721203D01*
X136105800Y-90888797D01*
X136073105Y-91053169D01*
X136008969Y-91208005D01*
X135915860Y-91347354D01*
X135797354Y-91465860D01*
X135658005Y-91558969D01*
X135503169Y-91623105D01*
X135338797Y-91655800D01*
X135171203Y-91655800D01*
X135006831Y-91623105D01*
X134851995Y-91558969D01*
X134712646Y-91465860D01*
X134594140Y-91347354D01*
X134501031Y-91208005D01*
X134436895Y-91053169D01*
X134404200Y-90888797D01*
X134404200Y-90721203D01*
X134436895Y-90556831D01*
X134501031Y-90401995D01*
X134594140Y-90262646D01*
X134712646Y-90144140D01*
X134851995Y-90051031D01*
X135006831Y-89986895D01*
X135171203Y-89954200D01*
X135338797Y-89954200D01*
X135503169Y-89986895D01*
G37*
G36*
X138043169Y-89986895D02*
G01*
X138198005Y-90051031D01*
X138337354Y-90144140D01*
X138455860Y-90262646D01*
X138548969Y-90401995D01*
X138613105Y-90556831D01*
X138645800Y-90721203D01*
X138645800Y-90888797D01*
X138613105Y-91053169D01*
X138548969Y-91208005D01*
X138455860Y-91347354D01*
X138337354Y-91465860D01*
X138198005Y-91558969D01*
X138043169Y-91623105D01*
X137878797Y-91655800D01*
X137711203Y-91655800D01*
X137546831Y-91623105D01*
X137391995Y-91558969D01*
X137252646Y-91465860D01*
X137134140Y-91347354D01*
X137041031Y-91208005D01*
X136976895Y-91053169D01*
X136944200Y-90888797D01*
X136944200Y-90721203D01*
X136976895Y-90556831D01*
X137041031Y-90401995D01*
X137134140Y-90262646D01*
X137252646Y-90144140D01*
X137391995Y-90051031D01*
X137546831Y-89986895D01*
X137711203Y-89954200D01*
X137878797Y-89954200D01*
X138043169Y-89986895D01*
G37*
G36*
X140583169Y-89986895D02*
G01*
X140738005Y-90051031D01*
X140877354Y-90144140D01*
X140995860Y-90262646D01*
X141088969Y-90401995D01*
X141153105Y-90556831D01*
X141185800Y-90721203D01*
X141185800Y-90888797D01*
X141153105Y-91053169D01*
X141088969Y-91208005D01*
X140995860Y-91347354D01*
X140877354Y-91465860D01*
X140738005Y-91558969D01*
X140583169Y-91623105D01*
X140418797Y-91655800D01*
X140251203Y-91655800D01*
X140086831Y-91623105D01*
X139931995Y-91558969D01*
X139792646Y-91465860D01*
X139674140Y-91347354D01*
X139581031Y-91208005D01*
X139516895Y-91053169D01*
X139484200Y-90888797D01*
X139484200Y-90721203D01*
X139516895Y-90556831D01*
X139581031Y-90401995D01*
X139674140Y-90262646D01*
X139792646Y-90144140D01*
X139931995Y-90051031D01*
X140086831Y-89986895D01*
X140251203Y-89954200D01*
X140418797Y-89954200D01*
X140583169Y-89986895D01*
G37*
G36*
X132963169Y-89986895D02*
G01*
X133118005Y-90051031D01*
X133257354Y-90144140D01*
X133375860Y-90262646D01*
X133468969Y-90401995D01*
X133533105Y-90556831D01*
X133565800Y-90721203D01*
X133565800Y-90888797D01*
X133533105Y-91053169D01*
X133468969Y-91208005D01*
X133375860Y-91347354D01*
X133257354Y-91465860D01*
X133118005Y-91558969D01*
X132963169Y-91623105D01*
X132798797Y-91655800D01*
X132631203Y-91655800D01*
X132466831Y-91623105D01*
X132311995Y-91558969D01*
X132172646Y-91465860D01*
X132054140Y-91347354D01*
X131961031Y-91208005D01*
X131896895Y-91053169D01*
X131864200Y-90888797D01*
X131864200Y-90721203D01*
X131896895Y-90556831D01*
X131961031Y-90401995D01*
X132054140Y-90262646D01*
X132172646Y-90144140D01*
X132311995Y-90051031D01*
X132466831Y-89986895D01*
X132631203Y-89954200D01*
X132798797Y-89954200D01*
X132963169Y-89986895D01*
G37*
G36*
X100563585Y-88129974D02*
G01*
X100709322Y-88190339D01*
X100840482Y-88277978D01*
X100952022Y-88389518D01*
X101039661Y-88520678D01*
X101100026Y-88666415D01*
X101130800Y-88821128D01*
X101130800Y-88978872D01*
X101100026Y-89133585D01*
X101039661Y-89279322D01*
X100952022Y-89410482D01*
X100840482Y-89522022D01*
X100709322Y-89609661D01*
X100563585Y-89670026D01*
X100408872Y-89700800D01*
X100251128Y-89700800D01*
X100096415Y-89670026D01*
X99950678Y-89609661D01*
X99819518Y-89522022D01*
X99707978Y-89410482D01*
X99620339Y-89279322D01*
X99559974Y-89133585D01*
X99529200Y-88978872D01*
X99529200Y-88821128D01*
X99559974Y-88666415D01*
X99620339Y-88520678D01*
X99707978Y-88389518D01*
X99819518Y-88277978D01*
X99950678Y-88190339D01*
X100096415Y-88129974D01*
X100251128Y-88099200D01*
X100408872Y-88099200D01*
X100563585Y-88129974D01*
G37*
G36*
X100563585Y-85589974D02*
G01*
X100709322Y-85650339D01*
X100840482Y-85737978D01*
X100952022Y-85849518D01*
X101039661Y-85980678D01*
X101100026Y-86126415D01*
X101130800Y-86281128D01*
X101130800Y-86438872D01*
X101100026Y-86593585D01*
X101039661Y-86739322D01*
X100952022Y-86870482D01*
X100840482Y-86982022D01*
X100709322Y-87069661D01*
X100563585Y-87130026D01*
X100408872Y-87160800D01*
X100251128Y-87160800D01*
X100096415Y-87130026D01*
X99950678Y-87069661D01*
X99819518Y-86982022D01*
X99707978Y-86870482D01*
X99620339Y-86739322D01*
X99559974Y-86593585D01*
X99529200Y-86438872D01*
X99529200Y-86281128D01*
X99559974Y-86126415D01*
X99620339Y-85980678D01*
X99707978Y-85849518D01*
X99819518Y-85737978D01*
X99950678Y-85650339D01*
X100096415Y-85589974D01*
X100251128Y-85559200D01*
X100408872Y-85559200D01*
X100563585Y-85589974D01*
G37*
G36*
X101130800Y-84620800D02*
G01*
X99529200Y-84620800D01*
X99529200Y-83019200D01*
X101130800Y-83019200D01*
X101130800Y-84620800D01*
G37*
G36*
X146933169Y-81731895D02*
G01*
X147088005Y-81796031D01*
X147227354Y-81889140D01*
X147345860Y-82007646D01*
X147438969Y-82146995D01*
X147503105Y-82301831D01*
X147535800Y-82466203D01*
X147535800Y-82633797D01*
X147503105Y-82798169D01*
X147438969Y-82953005D01*
X147345860Y-83092354D01*
X147227354Y-83210860D01*
X147088005Y-83303969D01*
X146933169Y-83368105D01*
X146768797Y-83400800D01*
X146601203Y-83400800D01*
X146436831Y-83368105D01*
X146281995Y-83303969D01*
X146142646Y-83210860D01*
X146024140Y-83092354D01*
X145931031Y-82953005D01*
X145866895Y-82798169D01*
X145834200Y-82633797D01*
X145834200Y-82466203D01*
X145866895Y-82301831D01*
X145931031Y-82146995D01*
X146024140Y-82007646D01*
X146142646Y-81889140D01*
X146281995Y-81796031D01*
X146436831Y-81731895D01*
X146601203Y-81699200D01*
X146768797Y-81699200D01*
X146933169Y-81731895D01*
G37*
G36*
X154553169Y-81731895D02*
G01*
X154708005Y-81796031D01*
X154847354Y-81889140D01*
X154965860Y-82007646D01*
X155058969Y-82146995D01*
X155123105Y-82301831D01*
X155155800Y-82466203D01*
X155155800Y-82633797D01*
X155123105Y-82798169D01*
X155058969Y-82953005D01*
X154965860Y-83092354D01*
X154847354Y-83210860D01*
X154708005Y-83303969D01*
X154553169Y-83368105D01*
X154388797Y-83400800D01*
X154221203Y-83400800D01*
X154056831Y-83368105D01*
X153901995Y-83303969D01*
X153762646Y-83210860D01*
X153644140Y-83092354D01*
X153551031Y-82953005D01*
X153486895Y-82798169D01*
X153454200Y-82633797D01*
X153454200Y-82466203D01*
X153486895Y-82301831D01*
X153551031Y-82146995D01*
X153644140Y-82007646D01*
X153762646Y-81889140D01*
X153901995Y-81796031D01*
X154056831Y-81731895D01*
X154221203Y-81699200D01*
X154388797Y-81699200D01*
X154553169Y-81731895D01*
G37*
G36*
X117220800Y-81060800D02*
G01*
X113919200Y-81060800D01*
X113919200Y-78959200D01*
X117220800Y-78959200D01*
X117220800Y-81060800D01*
G37*
G36*
X146933169Y-79191895D02*
G01*
X147088005Y-79256031D01*
X147227354Y-79349140D01*
X147345860Y-79467646D01*
X147438969Y-79606995D01*
X147503105Y-79761831D01*
X147535800Y-79926203D01*
X147535800Y-80093797D01*
X147503105Y-80258169D01*
X147438969Y-80413005D01*
X147345860Y-80552354D01*
X147227354Y-80670860D01*
X147088005Y-80763969D01*
X146933169Y-80828105D01*
X146768797Y-80860800D01*
X146601203Y-80860800D01*
X146436831Y-80828105D01*
X146281995Y-80763969D01*
X146142646Y-80670860D01*
X146024140Y-80552354D01*
X145931031Y-80413005D01*
X145866895Y-80258169D01*
X145834200Y-80093797D01*
X145834200Y-79926203D01*
X145866895Y-79761831D01*
X145931031Y-79606995D01*
X146024140Y-79467646D01*
X146142646Y-79349140D01*
X146281995Y-79256031D01*
X146436831Y-79191895D01*
X146601203Y-79159200D01*
X146768797Y-79159200D01*
X146933169Y-79191895D01*
G37*
G36*
X154553169Y-79191895D02*
G01*
X154708005Y-79256031D01*
X154847354Y-79349140D01*
X154965860Y-79467646D01*
X155058969Y-79606995D01*
X155123105Y-79761831D01*
X155155800Y-79926203D01*
X155155800Y-80093797D01*
X155123105Y-80258169D01*
X155058969Y-80413005D01*
X154965860Y-80552354D01*
X154847354Y-80670860D01*
X154708005Y-80763969D01*
X154553169Y-80828105D01*
X154388797Y-80860800D01*
X154221203Y-80860800D01*
X154056831Y-80828105D01*
X153901995Y-80763969D01*
X153762646Y-80670860D01*
X153644140Y-80552354D01*
X153551031Y-80413005D01*
X153486895Y-80258169D01*
X153454200Y-80093797D01*
X153454200Y-79926203D01*
X153486895Y-79761831D01*
X153551031Y-79606995D01*
X153644140Y-79467646D01*
X153762646Y-79349140D01*
X153901995Y-79256031D01*
X154056831Y-79191895D01*
X154221203Y-79159200D01*
X154388797Y-79159200D01*
X154553169Y-79191895D01*
G37*
G36*
X132934001Y-78653053D02*
G01*
X133070638Y-78709649D01*
X133193609Y-78791816D01*
X133298184Y-78896391D01*
X133380351Y-79019362D01*
X133436947Y-79155999D01*
X133465800Y-79301052D01*
X133465800Y-79448948D01*
X133436947Y-79594001D01*
X133380351Y-79730638D01*
X133298184Y-79853609D01*
X133193609Y-79958184D01*
X133070638Y-80040351D01*
X132934001Y-80096947D01*
X132788948Y-80125800D01*
X132641052Y-80125800D01*
X132495999Y-80096947D01*
X132359362Y-80040351D01*
X132236391Y-79958184D01*
X132131816Y-79853609D01*
X132049649Y-79730638D01*
X131993053Y-79594001D01*
X131964200Y-79448948D01*
X131964200Y-79301052D01*
X131993053Y-79155999D01*
X132049649Y-79019362D01*
X132131816Y-78896391D01*
X132236391Y-78791816D01*
X132359362Y-78709649D01*
X132495999Y-78653053D01*
X132641052Y-78624200D01*
X132788948Y-78624200D01*
X132934001Y-78653053D01*
G37*
G36*
X127854001Y-78653053D02*
G01*
X127990638Y-78709649D01*
X128113609Y-78791816D01*
X128218184Y-78896391D01*
X128300351Y-79019362D01*
X128356947Y-79155999D01*
X128385800Y-79301052D01*
X128385800Y-79448948D01*
X128356947Y-79594001D01*
X128300351Y-79730638D01*
X128218184Y-79853609D01*
X128113609Y-79958184D01*
X127990638Y-80040351D01*
X127854001Y-80096947D01*
X127708948Y-80125800D01*
X127561052Y-80125800D01*
X127415999Y-80096947D01*
X127279362Y-80040351D01*
X127156391Y-79958184D01*
X127051816Y-79853609D01*
X126969649Y-79730638D01*
X126913053Y-79594001D01*
X126884200Y-79448948D01*
X126884200Y-79301052D01*
X126913053Y-79155999D01*
X126969649Y-79019362D01*
X127051816Y-78896391D01*
X127156391Y-78791816D01*
X127279362Y-78709649D01*
X127415999Y-78653053D01*
X127561052Y-78624200D01*
X127708948Y-78624200D01*
X127854001Y-78653053D01*
G37*
G36*
X140543169Y-77921895D02*
G01*
X140698005Y-77986031D01*
X140837354Y-78079140D01*
X140955860Y-78197646D01*
X141048969Y-78336995D01*
X141113105Y-78491831D01*
X141145800Y-78656203D01*
X141145800Y-78823797D01*
X141113105Y-78988169D01*
X141048969Y-79143005D01*
X140955860Y-79282354D01*
X140837354Y-79400860D01*
X140698005Y-79493969D01*
X140543169Y-79558105D01*
X140378797Y-79590800D01*
X140211203Y-79590800D01*
X140046831Y-79558105D01*
X139891995Y-79493969D01*
X139752646Y-79400860D01*
X139634140Y-79282354D01*
X139541031Y-79143005D01*
X139476895Y-78988169D01*
X139444200Y-78823797D01*
X139444200Y-78656203D01*
X139476895Y-78491831D01*
X139541031Y-78336995D01*
X139634140Y-78197646D01*
X139752646Y-78079140D01*
X139891995Y-77986031D01*
X140046831Y-77921895D01*
X140211203Y-77889200D01*
X140378797Y-77889200D01*
X140543169Y-77921895D01*
G37*
G36*
X138043169Y-77921895D02*
G01*
X138198005Y-77986031D01*
X138337354Y-78079140D01*
X138455860Y-78197646D01*
X138548969Y-78336995D01*
X138613105Y-78491831D01*
X138645800Y-78656203D01*
X138645800Y-78823797D01*
X138613105Y-78988169D01*
X138548969Y-79143005D01*
X138455860Y-79282354D01*
X138337354Y-79400860D01*
X138198005Y-79493969D01*
X138043169Y-79558105D01*
X137878797Y-79590800D01*
X137711203Y-79590800D01*
X137546831Y-79558105D01*
X137391995Y-79493969D01*
X137252646Y-79400860D01*
X137134140Y-79282354D01*
X137041031Y-79143005D01*
X136976895Y-78988169D01*
X136944200Y-78823797D01*
X136944200Y-78656203D01*
X136976895Y-78491831D01*
X137041031Y-78336995D01*
X137134140Y-78197646D01*
X137252646Y-78079140D01*
X137391995Y-77986031D01*
X137546831Y-77921895D01*
X137711203Y-77889200D01*
X137878797Y-77889200D01*
X138043169Y-77921895D01*
G37*
G36*
X146933169Y-76651895D02*
G01*
X147088005Y-76716031D01*
X147227354Y-76809140D01*
X147345860Y-76927646D01*
X147438969Y-77066995D01*
X147503105Y-77221831D01*
X147535800Y-77386203D01*
X147535800Y-77553797D01*
X147503105Y-77718169D01*
X147438969Y-77873005D01*
X147345860Y-78012354D01*
X147227354Y-78130860D01*
X147088005Y-78223969D01*
X146933169Y-78288105D01*
X146768797Y-78320800D01*
X146601203Y-78320800D01*
X146436831Y-78288105D01*
X146281995Y-78223969D01*
X146142646Y-78130860D01*
X146024140Y-78012354D01*
X145931031Y-77873005D01*
X145866895Y-77718169D01*
X145834200Y-77553797D01*
X145834200Y-77386203D01*
X145866895Y-77221831D01*
X145931031Y-77066995D01*
X146024140Y-76927646D01*
X146142646Y-76809140D01*
X146281995Y-76716031D01*
X146436831Y-76651895D01*
X146601203Y-76619200D01*
X146768797Y-76619200D01*
X146933169Y-76651895D01*
G37*
G36*
X154553169Y-76651895D02*
G01*
X154708005Y-76716031D01*
X154847354Y-76809140D01*
X154965860Y-76927646D01*
X155058969Y-77066995D01*
X155123105Y-77221831D01*
X155155800Y-77386203D01*
X155155800Y-77553797D01*
X155123105Y-77718169D01*
X155058969Y-77873005D01*
X154965860Y-78012354D01*
X154847354Y-78130860D01*
X154708005Y-78223969D01*
X154553169Y-78288105D01*
X154388797Y-78320800D01*
X154221203Y-78320800D01*
X154056831Y-78288105D01*
X153901995Y-78223969D01*
X153762646Y-78130860D01*
X153644140Y-78012354D01*
X153551031Y-77873005D01*
X153486895Y-77718169D01*
X153454200Y-77553797D01*
X153454200Y-77386203D01*
X153486895Y-77221831D01*
X153551031Y-77066995D01*
X153644140Y-76927646D01*
X153762646Y-76809140D01*
X153901995Y-76716031D01*
X154056831Y-76651895D01*
X154221203Y-76619200D01*
X154388797Y-76619200D01*
X154553169Y-76651895D01*
G37*
G36*
X124120800Y-77960800D02*
G01*
X122019200Y-77960800D01*
X122019200Y-75859200D01*
X124120800Y-75859200D01*
X124120800Y-77960800D01*
G37*
G36*
X108876508Y-75899582D02*
G01*
X109067741Y-75978793D01*
X109239847Y-76093791D01*
X109386209Y-76240153D01*
X109501207Y-76412259D01*
X109580418Y-76603492D01*
X109620800Y-76806505D01*
X109620800Y-77013495D01*
X109580418Y-77216508D01*
X109501207Y-77407741D01*
X109386209Y-77579847D01*
X109239847Y-77726209D01*
X109067741Y-77841207D01*
X108876508Y-77920418D01*
X108673495Y-77960800D01*
X108466505Y-77960800D01*
X108263492Y-77920418D01*
X108072259Y-77841207D01*
X107900153Y-77726209D01*
X107753791Y-77579847D01*
X107638793Y-77407741D01*
X107559582Y-77216508D01*
X107519200Y-77013495D01*
X107519200Y-76806505D01*
X107559582Y-76603492D01*
X107638793Y-76412259D01*
X107753791Y-76240153D01*
X107900153Y-76093791D01*
X108072259Y-75978793D01*
X108263492Y-75899582D01*
X108466505Y-75859200D01*
X108673495Y-75859200D01*
X108876508Y-75899582D01*
G37*
G36*
X132934001Y-76113053D02*
G01*
X133070638Y-76169649D01*
X133193609Y-76251816D01*
X133298184Y-76356391D01*
X133380351Y-76479362D01*
X133436947Y-76615999D01*
X133465800Y-76761052D01*
X133465800Y-76908948D01*
X133436947Y-77054001D01*
X133380351Y-77190638D01*
X133298184Y-77313609D01*
X133193609Y-77418184D01*
X133070638Y-77500351D01*
X132934001Y-77556947D01*
X132788948Y-77585800D01*
X132641052Y-77585800D01*
X132495999Y-77556947D01*
X132359362Y-77500351D01*
X132236391Y-77418184D01*
X132131816Y-77313609D01*
X132049649Y-77190638D01*
X131993053Y-77054001D01*
X131964200Y-76908948D01*
X131964200Y-76761052D01*
X131993053Y-76615999D01*
X132049649Y-76479362D01*
X132131816Y-76356391D01*
X132236391Y-76251816D01*
X132359362Y-76169649D01*
X132495999Y-76113053D01*
X132641052Y-76084200D01*
X132788948Y-76084200D01*
X132934001Y-76113053D01*
G37*
G36*
X127854001Y-76113053D02*
G01*
X127990638Y-76169649D01*
X128113609Y-76251816D01*
X128218184Y-76356391D01*
X128300351Y-76479362D01*
X128356947Y-76615999D01*
X128385800Y-76761052D01*
X128385800Y-76908948D01*
X128356947Y-77054001D01*
X128300351Y-77190638D01*
X128218184Y-77313609D01*
X128113609Y-77418184D01*
X127990638Y-77500351D01*
X127854001Y-77556947D01*
X127708948Y-77585800D01*
X127561052Y-77585800D01*
X127415999Y-77556947D01*
X127279362Y-77500351D01*
X127156391Y-77418184D01*
X127051816Y-77313609D01*
X126969649Y-77190638D01*
X126913053Y-77054001D01*
X126884200Y-76908948D01*
X126884200Y-76761052D01*
X126913053Y-76615999D01*
X126969649Y-76479362D01*
X127051816Y-76356391D01*
X127156391Y-76251816D01*
X127279362Y-76169649D01*
X127415999Y-76113053D01*
X127561052Y-76084200D01*
X127708948Y-76084200D01*
X127854001Y-76113053D01*
G37*
G36*
X146933169Y-74111895D02*
G01*
X147088005Y-74176031D01*
X147227354Y-74269140D01*
X147345860Y-74387646D01*
X147438969Y-74526995D01*
X147503105Y-74681831D01*
X147535800Y-74846203D01*
X147535800Y-75013797D01*
X147503105Y-75178169D01*
X147438969Y-75333005D01*
X147345860Y-75472354D01*
X147227354Y-75590860D01*
X147088005Y-75683969D01*
X146933169Y-75748105D01*
X146768797Y-75780800D01*
X146601203Y-75780800D01*
X146436831Y-75748105D01*
X146281995Y-75683969D01*
X146142646Y-75590860D01*
X146024140Y-75472354D01*
X145931031Y-75333005D01*
X145866895Y-75178169D01*
X145834200Y-75013797D01*
X145834200Y-74846203D01*
X145866895Y-74681831D01*
X145931031Y-74526995D01*
X146024140Y-74387646D01*
X146142646Y-74269140D01*
X146281995Y-74176031D01*
X146436831Y-74111895D01*
X146601203Y-74079200D01*
X146768797Y-74079200D01*
X146933169Y-74111895D01*
G37*
G36*
X154553169Y-74111895D02*
G01*
X154708005Y-74176031D01*
X154847354Y-74269140D01*
X154965860Y-74387646D01*
X155058969Y-74526995D01*
X155123105Y-74681831D01*
X155155800Y-74846203D01*
X155155800Y-75013797D01*
X155123105Y-75178169D01*
X155058969Y-75333005D01*
X154965860Y-75472354D01*
X154847354Y-75590860D01*
X154708005Y-75683969D01*
X154553169Y-75748105D01*
X154388797Y-75780800D01*
X154221203Y-75780800D01*
X154056831Y-75748105D01*
X153901995Y-75683969D01*
X153762646Y-75590860D01*
X153644140Y-75472354D01*
X153551031Y-75333005D01*
X153486895Y-75178169D01*
X153454200Y-75013797D01*
X153454200Y-74846203D01*
X153486895Y-74681831D01*
X153551031Y-74526995D01*
X153644140Y-74387646D01*
X153762646Y-74269140D01*
X153901995Y-74176031D01*
X154056831Y-74111895D01*
X154221203Y-74079200D01*
X154388797Y-74079200D01*
X154553169Y-74111895D01*
G37*
G36*
X123376508Y-73399582D02*
G01*
X123567741Y-73478793D01*
X123739847Y-73593791D01*
X123886209Y-73740153D01*
X124001207Y-73912259D01*
X124080418Y-74103492D01*
X124120800Y-74306505D01*
X124120800Y-74513495D01*
X124080418Y-74716508D01*
X124001207Y-74907741D01*
X123886209Y-75079847D01*
X123739847Y-75226209D01*
X123567741Y-75341207D01*
X123376508Y-75420418D01*
X123173495Y-75460800D01*
X122966505Y-75460800D01*
X122763492Y-75420418D01*
X122572259Y-75341207D01*
X122400153Y-75226209D01*
X122253791Y-75079847D01*
X122138793Y-74907741D01*
X122059582Y-74716508D01*
X122019200Y-74513495D01*
X122019200Y-74306505D01*
X122059582Y-74103492D01*
X122138793Y-73912259D01*
X122253791Y-73740153D01*
X122400153Y-73593791D01*
X122572259Y-73478793D01*
X122763492Y-73399582D01*
X122966505Y-73359200D01*
X123173495Y-73359200D01*
X123376508Y-73399582D01*
G37*
G36*
X132934001Y-73573053D02*
G01*
X133070638Y-73629649D01*
X133193609Y-73711816D01*
X133298184Y-73816391D01*
X133380351Y-73939362D01*
X133436947Y-74075999D01*
X133465800Y-74221052D01*
X133465800Y-74368948D01*
X133436947Y-74514001D01*
X133380351Y-74650638D01*
X133298184Y-74773609D01*
X133193609Y-74878184D01*
X133070638Y-74960351D01*
X132934001Y-75016947D01*
X132788948Y-75045800D01*
X132641052Y-75045800D01*
X132495999Y-75016947D01*
X132359362Y-74960351D01*
X132236391Y-74878184D01*
X132131816Y-74773609D01*
X132049649Y-74650638D01*
X131993053Y-74514001D01*
X131964200Y-74368948D01*
X131964200Y-74221052D01*
X131993053Y-74075999D01*
X132049649Y-73939362D01*
X132131816Y-73816391D01*
X132236391Y-73711816D01*
X132359362Y-73629649D01*
X132495999Y-73573053D01*
X132641052Y-73544200D01*
X132788948Y-73544200D01*
X132934001Y-73573053D01*
G37*
G36*
X127854001Y-73573053D02*
G01*
X127990638Y-73629649D01*
X128113609Y-73711816D01*
X128218184Y-73816391D01*
X128300351Y-73939362D01*
X128356947Y-74075999D01*
X128385800Y-74221052D01*
X128385800Y-74368948D01*
X128356947Y-74514001D01*
X128300351Y-74650638D01*
X128218184Y-74773609D01*
X128113609Y-74878184D01*
X127990638Y-74960351D01*
X127854001Y-75016947D01*
X127708948Y-75045800D01*
X127561052Y-75045800D01*
X127415999Y-75016947D01*
X127279362Y-74960351D01*
X127156391Y-74878184D01*
X127051816Y-74773609D01*
X126969649Y-74650638D01*
X126913053Y-74514001D01*
X126884200Y-74368948D01*
X126884200Y-74221052D01*
X126913053Y-74075999D01*
X126969649Y-73939362D01*
X127051816Y-73816391D01*
X127156391Y-73711816D01*
X127279362Y-73629649D01*
X127415999Y-73573053D01*
X127561052Y-73544200D01*
X127708948Y-73544200D01*
X127854001Y-73573053D01*
G37*
G36*
X140583169Y-72841895D02*
G01*
X140738005Y-72906031D01*
X140877354Y-72999140D01*
X140995860Y-73117646D01*
X141088969Y-73256995D01*
X141153105Y-73411831D01*
X141185800Y-73576203D01*
X141185800Y-73743797D01*
X141153105Y-73908169D01*
X141088969Y-74063005D01*
X140995860Y-74202354D01*
X140877354Y-74320860D01*
X140738005Y-74413969D01*
X140583169Y-74478105D01*
X140418797Y-74510800D01*
X140251203Y-74510800D01*
X140086831Y-74478105D01*
X139931995Y-74413969D01*
X139792646Y-74320860D01*
X139674140Y-74202354D01*
X139581031Y-74063005D01*
X139516895Y-73908169D01*
X139484200Y-73743797D01*
X139484200Y-73576203D01*
X139516895Y-73411831D01*
X139581031Y-73256995D01*
X139674140Y-73117646D01*
X139792646Y-72999140D01*
X139931995Y-72906031D01*
X140086831Y-72841895D01*
X140251203Y-72809200D01*
X140418797Y-72809200D01*
X140583169Y-72841895D01*
G37*
G36*
X138083169Y-72841895D02*
G01*
X138238005Y-72906031D01*
X138377354Y-72999140D01*
X138495860Y-73117646D01*
X138588969Y-73256995D01*
X138653105Y-73411831D01*
X138685800Y-73576203D01*
X138685800Y-73743797D01*
X138653105Y-73908169D01*
X138588969Y-74063005D01*
X138495860Y-74202354D01*
X138377354Y-74320860D01*
X138238005Y-74413969D01*
X138083169Y-74478105D01*
X137918797Y-74510800D01*
X137751203Y-74510800D01*
X137586831Y-74478105D01*
X137431995Y-74413969D01*
X137292646Y-74320860D01*
X137174140Y-74202354D01*
X137081031Y-74063005D01*
X137016895Y-73908169D01*
X136984200Y-73743797D01*
X136984200Y-73576203D01*
X137016895Y-73411831D01*
X137081031Y-73256995D01*
X137174140Y-73117646D01*
X137292646Y-72999140D01*
X137431995Y-72906031D01*
X137586831Y-72841895D01*
X137751203Y-72809200D01*
X137918797Y-72809200D01*
X138083169Y-72841895D01*
G37*
G36*
X154553169Y-71571895D02*
G01*
X154708005Y-71636031D01*
X154847354Y-71729140D01*
X154965860Y-71847646D01*
X155058969Y-71986995D01*
X155123105Y-72141831D01*
X155155800Y-72306203D01*
X155155800Y-72473797D01*
X155123105Y-72638169D01*
X155058969Y-72793005D01*
X154965860Y-72932354D01*
X154847354Y-73050860D01*
X154708005Y-73143969D01*
X154553169Y-73208105D01*
X154388797Y-73240800D01*
X154221203Y-73240800D01*
X154056831Y-73208105D01*
X153901995Y-73143969D01*
X153762646Y-73050860D01*
X153644140Y-72932354D01*
X153551031Y-72793005D01*
X153486895Y-72638169D01*
X153454200Y-72473797D01*
X153454200Y-72306203D01*
X153486895Y-72141831D01*
X153551031Y-71986995D01*
X153644140Y-71847646D01*
X153762646Y-71729140D01*
X153901995Y-71636031D01*
X154056831Y-71571895D01*
X154221203Y-71539200D01*
X154388797Y-71539200D01*
X154553169Y-71571895D01*
G37*
G36*
X146933169Y-71571895D02*
G01*
X147088005Y-71636031D01*
X147227354Y-71729140D01*
X147345860Y-71847646D01*
X147438969Y-71986995D01*
X147503105Y-72141831D01*
X147535800Y-72306203D01*
X147535800Y-72473797D01*
X147503105Y-72638169D01*
X147438969Y-72793005D01*
X147345860Y-72932354D01*
X147227354Y-73050860D01*
X147088005Y-73143969D01*
X146933169Y-73208105D01*
X146768797Y-73240800D01*
X146601203Y-73240800D01*
X146436831Y-73208105D01*
X146281995Y-73143969D01*
X146142646Y-73050860D01*
X146024140Y-72932354D01*
X145931031Y-72793005D01*
X145866895Y-72638169D01*
X145834200Y-72473797D01*
X145834200Y-72306203D01*
X145866895Y-72141831D01*
X145931031Y-71986995D01*
X146024140Y-71847646D01*
X146142646Y-71729140D01*
X146281995Y-71636031D01*
X146436831Y-71571895D01*
X146601203Y-71539200D01*
X146768797Y-71539200D01*
X146933169Y-71571895D01*
G37*
G36*
X123376508Y-70899582D02*
G01*
X123567741Y-70978793D01*
X123739847Y-71093791D01*
X123886209Y-71240153D01*
X124001207Y-71412259D01*
X124080418Y-71603492D01*
X124120800Y-71806505D01*
X124120800Y-72013495D01*
X124080418Y-72216508D01*
X124001207Y-72407741D01*
X123886209Y-72579847D01*
X123739847Y-72726209D01*
X123567741Y-72841207D01*
X123376508Y-72920418D01*
X123173495Y-72960800D01*
X122966505Y-72960800D01*
X122763492Y-72920418D01*
X122572259Y-72841207D01*
X122400153Y-72726209D01*
X122253791Y-72579847D01*
X122138793Y-72407741D01*
X122059582Y-72216508D01*
X122019200Y-72013495D01*
X122019200Y-71806505D01*
X122059582Y-71603492D01*
X122138793Y-71412259D01*
X122253791Y-71240153D01*
X122400153Y-71093791D01*
X122572259Y-70978793D01*
X122763492Y-70899582D01*
X122966505Y-70859200D01*
X123173495Y-70859200D01*
X123376508Y-70899582D01*
G37*
G36*
X108876508Y-70899582D02*
G01*
X109067741Y-70978793D01*
X109239847Y-71093791D01*
X109386209Y-71240153D01*
X109501207Y-71412259D01*
X109580418Y-71603492D01*
X109620800Y-71806505D01*
X109620800Y-72013495D01*
X109580418Y-72216508D01*
X109501207Y-72407741D01*
X109386209Y-72579847D01*
X109239847Y-72726209D01*
X109067741Y-72841207D01*
X108876508Y-72920418D01*
X108673495Y-72960800D01*
X108466505Y-72960800D01*
X108263492Y-72920418D01*
X108072259Y-72841207D01*
X107900153Y-72726209D01*
X107753791Y-72579847D01*
X107638793Y-72407741D01*
X107559582Y-72216508D01*
X107519200Y-72013495D01*
X107519200Y-71806505D01*
X107559582Y-71603492D01*
X107638793Y-71412259D01*
X107753791Y-71240153D01*
X107900153Y-71093791D01*
X108072259Y-70978793D01*
X108263492Y-70899582D01*
X108466505Y-70859200D01*
X108673495Y-70859200D01*
X108876508Y-70899582D01*
G37*
G36*
X127854001Y-71033053D02*
G01*
X127990638Y-71089649D01*
X128113609Y-71171816D01*
X128218184Y-71276391D01*
X128300351Y-71399362D01*
X128356947Y-71535999D01*
X128385800Y-71681052D01*
X128385800Y-71828948D01*
X128356947Y-71974001D01*
X128300351Y-72110638D01*
X128218184Y-72233609D01*
X128113609Y-72338184D01*
X127990638Y-72420351D01*
X127854001Y-72476947D01*
X127708948Y-72505800D01*
X127561052Y-72505800D01*
X127415999Y-72476947D01*
X127279362Y-72420351D01*
X127156391Y-72338184D01*
X127051816Y-72233609D01*
X126969649Y-72110638D01*
X126913053Y-71974001D01*
X126884200Y-71828948D01*
X126884200Y-71681052D01*
X126913053Y-71535999D01*
X126969649Y-71399362D01*
X127051816Y-71276391D01*
X127156391Y-71171816D01*
X127279362Y-71089649D01*
X127415999Y-71033053D01*
X127561052Y-71004200D01*
X127708948Y-71004200D01*
X127854001Y-71033053D01*
G37*
G36*
X132934001Y-71033053D02*
G01*
X133070638Y-71089649D01*
X133193609Y-71171816D01*
X133298184Y-71276391D01*
X133380351Y-71399362D01*
X133436947Y-71535999D01*
X133465800Y-71681052D01*
X133465800Y-71828948D01*
X133436947Y-71974001D01*
X133380351Y-72110638D01*
X133298184Y-72233609D01*
X133193609Y-72338184D01*
X133070638Y-72420351D01*
X132934001Y-72476947D01*
X132788948Y-72505800D01*
X132641052Y-72505800D01*
X132495999Y-72476947D01*
X132359362Y-72420351D01*
X132236391Y-72338184D01*
X132131816Y-72233609D01*
X132049649Y-72110638D01*
X131993053Y-71974001D01*
X131964200Y-71828948D01*
X131964200Y-71681052D01*
X131993053Y-71535999D01*
X132049649Y-71399362D01*
X132131816Y-71276391D01*
X132236391Y-71171816D01*
X132359362Y-71089649D01*
X132495999Y-71033053D01*
X132641052Y-71004200D01*
X132788948Y-71004200D01*
X132934001Y-71033053D01*
G37*
G36*
X154553169Y-69031895D02*
G01*
X154708005Y-69096031D01*
X154847354Y-69189140D01*
X154965860Y-69307646D01*
X155058969Y-69446995D01*
X155123105Y-69601831D01*
X155155800Y-69766203D01*
X155155800Y-69933797D01*
X155123105Y-70098169D01*
X155058969Y-70253005D01*
X154965860Y-70392354D01*
X154847354Y-70510860D01*
X154708005Y-70603969D01*
X154553169Y-70668105D01*
X154388797Y-70700800D01*
X154221203Y-70700800D01*
X154056831Y-70668105D01*
X153901995Y-70603969D01*
X153762646Y-70510860D01*
X153644140Y-70392354D01*
X153551031Y-70253005D01*
X153486895Y-70098169D01*
X153454200Y-69933797D01*
X153454200Y-69766203D01*
X153486895Y-69601831D01*
X153551031Y-69446995D01*
X153644140Y-69307646D01*
X153762646Y-69189140D01*
X153901995Y-69096031D01*
X154056831Y-69031895D01*
X154221203Y-68999200D01*
X154388797Y-68999200D01*
X154553169Y-69031895D01*
G37*
G36*
X146933169Y-69031895D02*
G01*
X147088005Y-69096031D01*
X147227354Y-69189140D01*
X147345860Y-69307646D01*
X147438969Y-69446995D01*
X147503105Y-69601831D01*
X147535800Y-69766203D01*
X147535800Y-69933797D01*
X147503105Y-70098169D01*
X147438969Y-70253005D01*
X147345860Y-70392354D01*
X147227354Y-70510860D01*
X147088005Y-70603969D01*
X146933169Y-70668105D01*
X146768797Y-70700800D01*
X146601203Y-70700800D01*
X146436831Y-70668105D01*
X146281995Y-70603969D01*
X146142646Y-70510860D01*
X146024140Y-70392354D01*
X145931031Y-70253005D01*
X145866895Y-70098169D01*
X145834200Y-69933797D01*
X145834200Y-69766203D01*
X145866895Y-69601831D01*
X145931031Y-69446995D01*
X146024140Y-69307646D01*
X146142646Y-69189140D01*
X146281995Y-69096031D01*
X146436831Y-69031895D01*
X146601203Y-68999200D01*
X146768797Y-68999200D01*
X146933169Y-69031895D01*
G37*
G36*
X158998169Y-68991895D02*
G01*
X159153005Y-69056031D01*
X159292354Y-69149140D01*
X159410860Y-69267646D01*
X159503969Y-69406995D01*
X159568105Y-69561831D01*
X159600800Y-69726203D01*
X159600800Y-69893797D01*
X159568105Y-70058169D01*
X159503969Y-70213005D01*
X159410860Y-70352354D01*
X159292354Y-70470860D01*
X159153005Y-70563969D01*
X158998169Y-70628105D01*
X158833797Y-70660800D01*
X158666203Y-70660800D01*
X158501831Y-70628105D01*
X158346995Y-70563969D01*
X158207646Y-70470860D01*
X158089140Y-70352354D01*
X157996031Y-70213005D01*
X157931895Y-70058169D01*
X157899200Y-69893797D01*
X157899200Y-69726203D01*
X157931895Y-69561831D01*
X157996031Y-69406995D01*
X158089140Y-69267646D01*
X158207646Y-69149140D01*
X158346995Y-69056031D01*
X158501831Y-68991895D01*
X158666203Y-68959200D01*
X158833797Y-68959200D01*
X158998169Y-68991895D01*
G37*
G36*
X127854001Y-68493053D02*
G01*
X127990638Y-68549649D01*
X128113609Y-68631816D01*
X128218184Y-68736391D01*
X128300351Y-68859362D01*
X128356947Y-68995999D01*
X128385800Y-69141052D01*
X128385800Y-69288948D01*
X128356947Y-69434001D01*
X128300351Y-69570638D01*
X128218184Y-69693609D01*
X128113609Y-69798184D01*
X127990638Y-69880351D01*
X127854001Y-69936947D01*
X127708948Y-69965800D01*
X127561052Y-69965800D01*
X127415999Y-69936947D01*
X127279362Y-69880351D01*
X127156391Y-69798184D01*
X127051816Y-69693609D01*
X126969649Y-69570638D01*
X126913053Y-69434001D01*
X126884200Y-69288948D01*
X126884200Y-69141052D01*
X126913053Y-68995999D01*
X126969649Y-68859362D01*
X127051816Y-68736391D01*
X127156391Y-68631816D01*
X127279362Y-68549649D01*
X127415999Y-68493053D01*
X127561052Y-68464200D01*
X127708948Y-68464200D01*
X127854001Y-68493053D01*
G37*
G36*
X132934001Y-68493053D02*
G01*
X133070638Y-68549649D01*
X133193609Y-68631816D01*
X133298184Y-68736391D01*
X133380351Y-68859362D01*
X133436947Y-68995999D01*
X133465800Y-69141052D01*
X133465800Y-69288948D01*
X133436947Y-69434001D01*
X133380351Y-69570638D01*
X133298184Y-69693609D01*
X133193609Y-69798184D01*
X133070638Y-69880351D01*
X132934001Y-69936947D01*
X132788948Y-69965800D01*
X132641052Y-69965800D01*
X132495999Y-69936947D01*
X132359362Y-69880351D01*
X132236391Y-69798184D01*
X132131816Y-69693609D01*
X132049649Y-69570638D01*
X131993053Y-69434001D01*
X131964200Y-69288948D01*
X131964200Y-69141052D01*
X131993053Y-68995999D01*
X132049649Y-68859362D01*
X132131816Y-68736391D01*
X132236391Y-68631816D01*
X132359362Y-68549649D01*
X132495999Y-68493053D01*
X132641052Y-68464200D01*
X132788948Y-68464200D01*
X132934001Y-68493053D01*
G37*
G36*
X117220800Y-69860800D02*
G01*
X113919200Y-69860800D01*
X113919200Y-67759200D01*
X117220800Y-67759200D01*
X117220800Y-69860800D01*
G37*
G36*
X138083169Y-67761895D02*
G01*
X138238005Y-67826031D01*
X138377354Y-67919140D01*
X138495860Y-68037646D01*
X138588969Y-68176995D01*
X138653105Y-68331831D01*
X138685800Y-68496203D01*
X138685800Y-68663797D01*
X138653105Y-68828169D01*
X138588969Y-68983005D01*
X138495860Y-69122354D01*
X138377354Y-69240860D01*
X138238005Y-69333969D01*
X138083169Y-69398105D01*
X137918797Y-69430800D01*
X137751203Y-69430800D01*
X137586831Y-69398105D01*
X137431995Y-69333969D01*
X137292646Y-69240860D01*
X137174140Y-69122354D01*
X137081031Y-68983005D01*
X137016895Y-68828169D01*
X136984200Y-68663797D01*
X136984200Y-68496203D01*
X137016895Y-68331831D01*
X137081031Y-68176995D01*
X137174140Y-68037646D01*
X137292646Y-67919140D01*
X137431995Y-67826031D01*
X137586831Y-67761895D01*
X137751203Y-67729200D01*
X137918797Y-67729200D01*
X138083169Y-67761895D01*
G37*
G36*
X140583169Y-67761895D02*
G01*
X140738005Y-67826031D01*
X140877354Y-67919140D01*
X140995860Y-68037646D01*
X141088969Y-68176995D01*
X141153105Y-68331831D01*
X141185800Y-68496203D01*
X141185800Y-68663797D01*
X141153105Y-68828169D01*
X141088969Y-68983005D01*
X140995860Y-69122354D01*
X140877354Y-69240860D01*
X140738005Y-69333969D01*
X140583169Y-69398105D01*
X140418797Y-69430800D01*
X140251203Y-69430800D01*
X140086831Y-69398105D01*
X139931995Y-69333969D01*
X139792646Y-69240860D01*
X139674140Y-69122354D01*
X139581031Y-68983005D01*
X139516895Y-68828169D01*
X139484200Y-68663797D01*
X139484200Y-68496203D01*
X139516895Y-68331831D01*
X139581031Y-68176995D01*
X139674140Y-68037646D01*
X139792646Y-67919140D01*
X139931995Y-67826031D01*
X140086831Y-67761895D01*
X140251203Y-67729200D01*
X140418797Y-67729200D01*
X140583169Y-67761895D01*
G37*
G36*
X154553169Y-66491895D02*
G01*
X154708005Y-66556031D01*
X154847354Y-66649140D01*
X154965860Y-66767646D01*
X155058969Y-66906995D01*
X155123105Y-67061831D01*
X155155800Y-67226203D01*
X155155800Y-67393797D01*
X155123105Y-67558169D01*
X155058969Y-67713005D01*
X154965860Y-67852354D01*
X154847354Y-67970860D01*
X154708005Y-68063969D01*
X154553169Y-68128105D01*
X154388797Y-68160800D01*
X154221203Y-68160800D01*
X154056831Y-68128105D01*
X153901995Y-68063969D01*
X153762646Y-67970860D01*
X153644140Y-67852354D01*
X153551031Y-67713005D01*
X153486895Y-67558169D01*
X153454200Y-67393797D01*
X153454200Y-67226203D01*
X153486895Y-67061831D01*
X153551031Y-66906995D01*
X153644140Y-66767646D01*
X153762646Y-66649140D01*
X153901995Y-66556031D01*
X154056831Y-66491895D01*
X154221203Y-66459200D01*
X154388797Y-66459200D01*
X154553169Y-66491895D01*
G37*
G36*
X158998169Y-66491895D02*
G01*
X159153005Y-66556031D01*
X159292354Y-66649140D01*
X159410860Y-66767646D01*
X159503969Y-66906995D01*
X159568105Y-67061831D01*
X159600800Y-67226203D01*
X159600800Y-67393797D01*
X159568105Y-67558169D01*
X159503969Y-67713005D01*
X159410860Y-67852354D01*
X159292354Y-67970860D01*
X159153005Y-68063969D01*
X158998169Y-68128105D01*
X158833797Y-68160800D01*
X158666203Y-68160800D01*
X158501831Y-68128105D01*
X158346995Y-68063969D01*
X158207646Y-67970860D01*
X158089140Y-67852354D01*
X157996031Y-67713005D01*
X157931895Y-67558169D01*
X157899200Y-67393797D01*
X157899200Y-67226203D01*
X157931895Y-67061831D01*
X157996031Y-66906995D01*
X158089140Y-66767646D01*
X158207646Y-66649140D01*
X158346995Y-66556031D01*
X158501831Y-66491895D01*
X158666203Y-66459200D01*
X158833797Y-66459200D01*
X158998169Y-66491895D01*
G37*
G36*
X147535800Y-68160800D02*
G01*
X145834200Y-68160800D01*
X145834200Y-66459200D01*
X147535800Y-66459200D01*
X147535800Y-68160800D01*
G37*
G36*
X127854001Y-65953053D02*
G01*
X127990638Y-66009649D01*
X128113609Y-66091816D01*
X128218184Y-66196391D01*
X128300351Y-66319362D01*
X128356947Y-66455999D01*
X128385800Y-66601052D01*
X128385800Y-66748948D01*
X128356947Y-66894001D01*
X128300351Y-67030638D01*
X128218184Y-67153609D01*
X128113609Y-67258184D01*
X127990638Y-67340351D01*
X127854001Y-67396947D01*
X127708948Y-67425800D01*
X127561052Y-67425800D01*
X127415999Y-67396947D01*
X127279362Y-67340351D01*
X127156391Y-67258184D01*
X127051816Y-67153609D01*
X126969649Y-67030638D01*
X126913053Y-66894001D01*
X126884200Y-66748948D01*
X126884200Y-66601052D01*
X126913053Y-66455999D01*
X126969649Y-66319362D01*
X127051816Y-66196391D01*
X127156391Y-66091816D01*
X127279362Y-66009649D01*
X127415999Y-65953053D01*
X127561052Y-65924200D01*
X127708948Y-65924200D01*
X127854001Y-65953053D01*
G37*
G36*
X132934001Y-65953053D02*
G01*
X133070638Y-66009649D01*
X133193609Y-66091816D01*
X133298184Y-66196391D01*
X133380351Y-66319362D01*
X133436947Y-66455999D01*
X133465800Y-66601052D01*
X133465800Y-66748948D01*
X133436947Y-66894001D01*
X133380351Y-67030638D01*
X133298184Y-67153609D01*
X133193609Y-67258184D01*
X133070638Y-67340351D01*
X132934001Y-67396947D01*
X132788948Y-67425800D01*
X132641052Y-67425800D01*
X132495999Y-67396947D01*
X132359362Y-67340351D01*
X132236391Y-67258184D01*
X132131816Y-67153609D01*
X132049649Y-67030638D01*
X131993053Y-66894001D01*
X131964200Y-66748948D01*
X131964200Y-66601052D01*
X131993053Y-66455999D01*
X132049649Y-66319362D01*
X132131816Y-66196391D01*
X132236391Y-66091816D01*
X132359362Y-66009649D01*
X132495999Y-65953053D01*
X132641052Y-65924200D01*
X132788948Y-65924200D01*
X132934001Y-65953053D01*
G37*
G36*
X116838169Y-58871895D02*
G01*
X116993005Y-58936031D01*
X117132354Y-59029140D01*
X117250860Y-59147646D01*
X117343969Y-59286995D01*
X117408105Y-59441831D01*
X117440800Y-59606203D01*
X117440800Y-59773797D01*
X117408105Y-59938169D01*
X117343969Y-60093005D01*
X117250860Y-60232354D01*
X117132354Y-60350860D01*
X116993005Y-60443969D01*
X116838169Y-60508105D01*
X116673797Y-60540800D01*
X116506203Y-60540800D01*
X116341831Y-60508105D01*
X116186995Y-60443969D01*
X116047646Y-60350860D01*
X115929140Y-60232354D01*
X115836031Y-60093005D01*
X115771895Y-59938169D01*
X115739200Y-59773797D01*
X115739200Y-59606203D01*
X115771895Y-59441831D01*
X115836031Y-59286995D01*
X115929140Y-59147646D01*
X116047646Y-59029140D01*
X116186995Y-58936031D01*
X116341831Y-58871895D01*
X116506203Y-58839200D01*
X116673797Y-58839200D01*
X116838169Y-58871895D01*
G37*
G36*
X114298169Y-58871895D02*
G01*
X114453005Y-58936031D01*
X114592354Y-59029140D01*
X114710860Y-59147646D01*
X114803969Y-59286995D01*
X114868105Y-59441831D01*
X114900800Y-59606203D01*
X114900800Y-59773797D01*
X114868105Y-59938169D01*
X114803969Y-60093005D01*
X114710860Y-60232354D01*
X114592354Y-60350860D01*
X114453005Y-60443969D01*
X114298169Y-60508105D01*
X114133797Y-60540800D01*
X113966203Y-60540800D01*
X113801831Y-60508105D01*
X113646995Y-60443969D01*
X113507646Y-60350860D01*
X113389140Y-60232354D01*
X113296031Y-60093005D01*
X113231895Y-59938169D01*
X113199200Y-59773797D01*
X113199200Y-59606203D01*
X113231895Y-59441831D01*
X113296031Y-59286995D01*
X113389140Y-59147646D01*
X113507646Y-59029140D01*
X113646995Y-58936031D01*
X113801831Y-58871895D01*
X113966203Y-58839200D01*
X114133797Y-58839200D01*
X114298169Y-58871895D01*
G37*
G36*
X121918169Y-58871895D02*
G01*
X122073005Y-58936031D01*
X122212354Y-59029140D01*
X122330860Y-59147646D01*
X122423969Y-59286995D01*
X122488105Y-59441831D01*
X122520800Y-59606203D01*
X122520800Y-59773797D01*
X122488105Y-59938169D01*
X122423969Y-60093005D01*
X122330860Y-60232354D01*
X122212354Y-60350860D01*
X122073005Y-60443969D01*
X121918169Y-60508105D01*
X121753797Y-60540800D01*
X121586203Y-60540800D01*
X121421831Y-60508105D01*
X121266995Y-60443969D01*
X121127646Y-60350860D01*
X121009140Y-60232354D01*
X120916031Y-60093005D01*
X120851895Y-59938169D01*
X120819200Y-59773797D01*
X120819200Y-59606203D01*
X120851895Y-59441831D01*
X120916031Y-59286995D01*
X121009140Y-59147646D01*
X121127646Y-59029140D01*
X121266995Y-58936031D01*
X121421831Y-58871895D01*
X121586203Y-58839200D01*
X121753797Y-58839200D01*
X121918169Y-58871895D01*
G37*
G36*
X158998169Y-58871895D02*
G01*
X159153005Y-58936031D01*
X159292354Y-59029140D01*
X159410860Y-59147646D01*
X159503969Y-59286995D01*
X159568105Y-59441831D01*
X159600800Y-59606203D01*
X159600800Y-59773797D01*
X159568105Y-59938169D01*
X159503969Y-60093005D01*
X159410860Y-60232354D01*
X159292354Y-60350860D01*
X159153005Y-60443969D01*
X158998169Y-60508105D01*
X158833797Y-60540800D01*
X158666203Y-60540800D01*
X158501831Y-60508105D01*
X158346995Y-60443969D01*
X158207646Y-60350860D01*
X158089140Y-60232354D01*
X157996031Y-60093005D01*
X157931895Y-59938169D01*
X157899200Y-59773797D01*
X157899200Y-59606203D01*
X157931895Y-59441831D01*
X157996031Y-59286995D01*
X158089140Y-59147646D01*
X158207646Y-59029140D01*
X158346995Y-58936031D01*
X158501831Y-58871895D01*
X158666203Y-58839200D01*
X158833797Y-58839200D01*
X158998169Y-58871895D01*
G37*
G36*
X156458169Y-58871895D02*
G01*
X156613005Y-58936031D01*
X156752354Y-59029140D01*
X156870860Y-59147646D01*
X156963969Y-59286995D01*
X157028105Y-59441831D01*
X157060800Y-59606203D01*
X157060800Y-59773797D01*
X157028105Y-59938169D01*
X156963969Y-60093005D01*
X156870860Y-60232354D01*
X156752354Y-60350860D01*
X156613005Y-60443969D01*
X156458169Y-60508105D01*
X156293797Y-60540800D01*
X156126203Y-60540800D01*
X155961831Y-60508105D01*
X155806995Y-60443969D01*
X155667646Y-60350860D01*
X155549140Y-60232354D01*
X155456031Y-60093005D01*
X155391895Y-59938169D01*
X155359200Y-59773797D01*
X155359200Y-59606203D01*
X155391895Y-59441831D01*
X155456031Y-59286995D01*
X155549140Y-59147646D01*
X155667646Y-59029140D01*
X155806995Y-58936031D01*
X155961831Y-58871895D01*
X156126203Y-58839200D01*
X156293797Y-58839200D01*
X156458169Y-58871895D01*
G37*
G36*
X153918169Y-58871895D02*
G01*
X154073005Y-58936031D01*
X154212354Y-59029140D01*
X154330860Y-59147646D01*
X154423969Y-59286995D01*
X154488105Y-59441831D01*
X154520800Y-59606203D01*
X154520800Y-59773797D01*
X154488105Y-59938169D01*
X154423969Y-60093005D01*
X154330860Y-60232354D01*
X154212354Y-60350860D01*
X154073005Y-60443969D01*
X153918169Y-60508105D01*
X153753797Y-60540800D01*
X153586203Y-60540800D01*
X153421831Y-60508105D01*
X153266995Y-60443969D01*
X153127646Y-60350860D01*
X153009140Y-60232354D01*
X152916031Y-60093005D01*
X152851895Y-59938169D01*
X152819200Y-59773797D01*
X152819200Y-59606203D01*
X152851895Y-59441831D01*
X152916031Y-59286995D01*
X153009140Y-59147646D01*
X153127646Y-59029140D01*
X153266995Y-58936031D01*
X153421831Y-58871895D01*
X153586203Y-58839200D01*
X153753797Y-58839200D01*
X153918169Y-58871895D01*
G37*
G36*
X151378169Y-58871895D02*
G01*
X151533005Y-58936031D01*
X151672354Y-59029140D01*
X151790860Y-59147646D01*
X151883969Y-59286995D01*
X151948105Y-59441831D01*
X151980800Y-59606203D01*
X151980800Y-59773797D01*
X151948105Y-59938169D01*
X151883969Y-60093005D01*
X151790860Y-60232354D01*
X151672354Y-60350860D01*
X151533005Y-60443969D01*
X151378169Y-60508105D01*
X151213797Y-60540800D01*
X151046203Y-60540800D01*
X150881831Y-60508105D01*
X150726995Y-60443969D01*
X150587646Y-60350860D01*
X150469140Y-60232354D01*
X150376031Y-60093005D01*
X150311895Y-59938169D01*
X150279200Y-59773797D01*
X150279200Y-59606203D01*
X150311895Y-59441831D01*
X150376031Y-59286995D01*
X150469140Y-59147646D01*
X150587646Y-59029140D01*
X150726995Y-58936031D01*
X150881831Y-58871895D01*
X151046203Y-58839200D01*
X151213797Y-58839200D01*
X151378169Y-58871895D01*
G37*
G36*
X119378169Y-58871895D02*
G01*
X119533005Y-58936031D01*
X119672354Y-59029140D01*
X119790860Y-59147646D01*
X119883969Y-59286995D01*
X119948105Y-59441831D01*
X119980800Y-59606203D01*
X119980800Y-59773797D01*
X119948105Y-59938169D01*
X119883969Y-60093005D01*
X119790860Y-60232354D01*
X119672354Y-60350860D01*
X119533005Y-60443969D01*
X119378169Y-60508105D01*
X119213797Y-60540800D01*
X119046203Y-60540800D01*
X118881831Y-60508105D01*
X118726995Y-60443969D01*
X118587646Y-60350860D01*
X118469140Y-60232354D01*
X118376031Y-60093005D01*
X118311895Y-59938169D01*
X118279200Y-59773797D01*
X118279200Y-59606203D01*
X118311895Y-59441831D01*
X118376031Y-59286995D01*
X118469140Y-59147646D01*
X118587646Y-59029140D01*
X118726995Y-58936031D01*
X118881831Y-58871895D01*
X119046203Y-58839200D01*
X119213797Y-58839200D01*
X119378169Y-58871895D01*
G37*
G36*
X146298169Y-58871895D02*
G01*
X146453005Y-58936031D01*
X146592354Y-59029140D01*
X146710860Y-59147646D01*
X146803969Y-59286995D01*
X146868105Y-59441831D01*
X146900800Y-59606203D01*
X146900800Y-59773797D01*
X146868105Y-59938169D01*
X146803969Y-60093005D01*
X146710860Y-60232354D01*
X146592354Y-60350860D01*
X146453005Y-60443969D01*
X146298169Y-60508105D01*
X146133797Y-60540800D01*
X145966203Y-60540800D01*
X145801831Y-60508105D01*
X145646995Y-60443969D01*
X145507646Y-60350860D01*
X145389140Y-60232354D01*
X145296031Y-60093005D01*
X145231895Y-59938169D01*
X145199200Y-59773797D01*
X145199200Y-59606203D01*
X145231895Y-59441831D01*
X145296031Y-59286995D01*
X145389140Y-59147646D01*
X145507646Y-59029140D01*
X145646995Y-58936031D01*
X145801831Y-58871895D01*
X145966203Y-58839200D01*
X146133797Y-58839200D01*
X146298169Y-58871895D01*
G37*
G36*
X143758169Y-58871895D02*
G01*
X143913005Y-58936031D01*
X144052354Y-59029140D01*
X144170860Y-59147646D01*
X144263969Y-59286995D01*
X144328105Y-59441831D01*
X144360800Y-59606203D01*
X144360800Y-59773797D01*
X144328105Y-59938169D01*
X144263969Y-60093005D01*
X144170860Y-60232354D01*
X144052354Y-60350860D01*
X143913005Y-60443969D01*
X143758169Y-60508105D01*
X143593797Y-60540800D01*
X143426203Y-60540800D01*
X143261831Y-60508105D01*
X143106995Y-60443969D01*
X142967646Y-60350860D01*
X142849140Y-60232354D01*
X142756031Y-60093005D01*
X142691895Y-59938169D01*
X142659200Y-59773797D01*
X142659200Y-59606203D01*
X142691895Y-59441831D01*
X142756031Y-59286995D01*
X142849140Y-59147646D01*
X142967646Y-59029140D01*
X143106995Y-58936031D01*
X143261831Y-58871895D01*
X143426203Y-58839200D01*
X143593797Y-58839200D01*
X143758169Y-58871895D01*
G37*
G36*
X141218169Y-58871895D02*
G01*
X141373005Y-58936031D01*
X141512354Y-59029140D01*
X141630860Y-59147646D01*
X141723969Y-59286995D01*
X141788105Y-59441831D01*
X141820800Y-59606203D01*
X141820800Y-59773797D01*
X141788105Y-59938169D01*
X141723969Y-60093005D01*
X141630860Y-60232354D01*
X141512354Y-60350860D01*
X141373005Y-60443969D01*
X141218169Y-60508105D01*
X141053797Y-60540800D01*
X140886203Y-60540800D01*
X140721831Y-60508105D01*
X140566995Y-60443969D01*
X140427646Y-60350860D01*
X140309140Y-60232354D01*
X140216031Y-60093005D01*
X140151895Y-59938169D01*
X140119200Y-59773797D01*
X140119200Y-59606203D01*
X140151895Y-59441831D01*
X140216031Y-59286995D01*
X140309140Y-59147646D01*
X140427646Y-59029140D01*
X140566995Y-58936031D01*
X140721831Y-58871895D01*
X140886203Y-58839200D01*
X141053797Y-58839200D01*
X141218169Y-58871895D01*
G37*
G36*
X124458169Y-58871895D02*
G01*
X124613005Y-58936031D01*
X124752354Y-59029140D01*
X124870860Y-59147646D01*
X124963969Y-59286995D01*
X125028105Y-59441831D01*
X125060800Y-59606203D01*
X125060800Y-59773797D01*
X125028105Y-59938169D01*
X124963969Y-60093005D01*
X124870860Y-60232354D01*
X124752354Y-60350860D01*
X124613005Y-60443969D01*
X124458169Y-60508105D01*
X124293797Y-60540800D01*
X124126203Y-60540800D01*
X123961831Y-60508105D01*
X123806995Y-60443969D01*
X123667646Y-60350860D01*
X123549140Y-60232354D01*
X123456031Y-60093005D01*
X123391895Y-59938169D01*
X123359200Y-59773797D01*
X123359200Y-59606203D01*
X123391895Y-59441831D01*
X123456031Y-59286995D01*
X123549140Y-59147646D01*
X123667646Y-59029140D01*
X123806995Y-58936031D01*
X123961831Y-58871895D01*
X124126203Y-58839200D01*
X124293797Y-58839200D01*
X124458169Y-58871895D01*
G37*
G36*
X137158169Y-58871895D02*
G01*
X137313005Y-58936031D01*
X137452354Y-59029140D01*
X137570860Y-59147646D01*
X137663969Y-59286995D01*
X137728105Y-59441831D01*
X137760800Y-59606203D01*
X137760800Y-59773797D01*
X137728105Y-59938169D01*
X137663969Y-60093005D01*
X137570860Y-60232354D01*
X137452354Y-60350860D01*
X137313005Y-60443969D01*
X137158169Y-60508105D01*
X136993797Y-60540800D01*
X136826203Y-60540800D01*
X136661831Y-60508105D01*
X136506995Y-60443969D01*
X136367646Y-60350860D01*
X136249140Y-60232354D01*
X136156031Y-60093005D01*
X136091895Y-59938169D01*
X136059200Y-59773797D01*
X136059200Y-59606203D01*
X136091895Y-59441831D01*
X136156031Y-59286995D01*
X136249140Y-59147646D01*
X136367646Y-59029140D01*
X136506995Y-58936031D01*
X136661831Y-58871895D01*
X136826203Y-58839200D01*
X136993797Y-58839200D01*
X137158169Y-58871895D01*
G37*
G36*
X134618169Y-58871895D02*
G01*
X134773005Y-58936031D01*
X134912354Y-59029140D01*
X135030860Y-59147646D01*
X135123969Y-59286995D01*
X135188105Y-59441831D01*
X135220800Y-59606203D01*
X135220800Y-59773797D01*
X135188105Y-59938169D01*
X135123969Y-60093005D01*
X135030860Y-60232354D01*
X134912354Y-60350860D01*
X134773005Y-60443969D01*
X134618169Y-60508105D01*
X134453797Y-60540800D01*
X134286203Y-60540800D01*
X134121831Y-60508105D01*
X133966995Y-60443969D01*
X133827646Y-60350860D01*
X133709140Y-60232354D01*
X133616031Y-60093005D01*
X133551895Y-59938169D01*
X133519200Y-59773797D01*
X133519200Y-59606203D01*
X133551895Y-59441831D01*
X133616031Y-59286995D01*
X133709140Y-59147646D01*
X133827646Y-59029140D01*
X133966995Y-58936031D01*
X134121831Y-58871895D01*
X134286203Y-58839200D01*
X134453797Y-58839200D01*
X134618169Y-58871895D01*
G37*
G36*
X132078169Y-58871895D02*
G01*
X132233005Y-58936031D01*
X132372354Y-59029140D01*
X132490860Y-59147646D01*
X132583969Y-59286995D01*
X132648105Y-59441831D01*
X132680800Y-59606203D01*
X132680800Y-59773797D01*
X132648105Y-59938169D01*
X132583969Y-60093005D01*
X132490860Y-60232354D01*
X132372354Y-60350860D01*
X132233005Y-60443969D01*
X132078169Y-60508105D01*
X131913797Y-60540800D01*
X131746203Y-60540800D01*
X131581831Y-60508105D01*
X131426995Y-60443969D01*
X131287646Y-60350860D01*
X131169140Y-60232354D01*
X131076031Y-60093005D01*
X131011895Y-59938169D01*
X130979200Y-59773797D01*
X130979200Y-59606203D01*
X131011895Y-59441831D01*
X131076031Y-59286995D01*
X131169140Y-59147646D01*
X131287646Y-59029140D01*
X131426995Y-58936031D01*
X131581831Y-58871895D01*
X131746203Y-58839200D01*
X131913797Y-58839200D01*
X132078169Y-58871895D01*
G37*
G36*
X129538169Y-58871895D02*
G01*
X129693005Y-58936031D01*
X129832354Y-59029140D01*
X129950860Y-59147646D01*
X130043969Y-59286995D01*
X130108105Y-59441831D01*
X130140800Y-59606203D01*
X130140800Y-59773797D01*
X130108105Y-59938169D01*
X130043969Y-60093005D01*
X129950860Y-60232354D01*
X129832354Y-60350860D01*
X129693005Y-60443969D01*
X129538169Y-60508105D01*
X129373797Y-60540800D01*
X129206203Y-60540800D01*
X129041831Y-60508105D01*
X128886995Y-60443969D01*
X128747646Y-60350860D01*
X128629140Y-60232354D01*
X128536031Y-60093005D01*
X128471895Y-59938169D01*
X128439200Y-59773797D01*
X128439200Y-59606203D01*
X128471895Y-59441831D01*
X128536031Y-59286995D01*
X128629140Y-59147646D01*
X128747646Y-59029140D01*
X128886995Y-58936031D01*
X129041831Y-58871895D01*
X129206203Y-58839200D01*
X129373797Y-58839200D01*
X129538169Y-58871895D01*
G37*
G36*
X126998169Y-58871895D02*
G01*
X127153005Y-58936031D01*
X127292354Y-59029140D01*
X127410860Y-59147646D01*
X127503969Y-59286995D01*
X127568105Y-59441831D01*
X127600800Y-59606203D01*
X127600800Y-59773797D01*
X127568105Y-59938169D01*
X127503969Y-60093005D01*
X127410860Y-60232354D01*
X127292354Y-60350860D01*
X127153005Y-60443969D01*
X126998169Y-60508105D01*
X126833797Y-60540800D01*
X126666203Y-60540800D01*
X126501831Y-60508105D01*
X126346995Y-60443969D01*
X126207646Y-60350860D01*
X126089140Y-60232354D01*
X125996031Y-60093005D01*
X125931895Y-59938169D01*
X125899200Y-59773797D01*
X125899200Y-59606203D01*
X125931895Y-59441831D01*
X125996031Y-59286995D01*
X126089140Y-59147646D01*
X126207646Y-59029140D01*
X126346995Y-58936031D01*
X126501831Y-58871895D01*
X126666203Y-58839200D01*
X126833797Y-58839200D01*
X126998169Y-58871895D01*
G37*
G36*
X148838169Y-58871895D02*
G01*
X148993005Y-58936031D01*
X149132354Y-59029140D01*
X149250860Y-59147646D01*
X149343969Y-59286995D01*
X149408105Y-59441831D01*
X149440800Y-59606203D01*
X149440800Y-59773797D01*
X149408105Y-59938169D01*
X149343969Y-60093005D01*
X149250860Y-60232354D01*
X149132354Y-60350860D01*
X148993005Y-60443969D01*
X148838169Y-60508105D01*
X148673797Y-60540800D01*
X148506203Y-60540800D01*
X148341831Y-60508105D01*
X148186995Y-60443969D01*
X148047646Y-60350860D01*
X147929140Y-60232354D01*
X147836031Y-60093005D01*
X147771895Y-59938169D01*
X147739200Y-59773797D01*
X147739200Y-59606203D01*
X147771895Y-59441831D01*
X147836031Y-59286995D01*
X147929140Y-59147646D01*
X148047646Y-59029140D01*
X148186995Y-58936031D01*
X148341831Y-58871895D01*
X148506203Y-58839200D01*
X148673797Y-58839200D01*
X148838169Y-58871895D01*
G37*
M02*
