G04 #@! TF.GenerationSoftware,KiCad,Pcbnew,(5.1.5)-3*
G04 #@! TF.CreationDate,2020-03-16T16:37:23-04:00*
G04 #@! TF.ProjectId,StupidDogFocuserPCB,53747570-6964-4446-9f67-466f63757365,1*
G04 #@! TF.SameCoordinates,Original*
G04 #@! TF.FileFunction,Legend,Top*
G04 #@! TF.FilePolarity,Positive*
%FSLAX46Y46*%
G04 Gerber Fmt 4.6, Leading zero omitted, Abs format (unit mm)*
G04 Created by KiCad (PCBNEW (5.1.5)-3) date 2020-03-16 16:37:23*
%MOMM*%
%LPD*%
G04 APERTURE LIST*
%ADD10C,0.150000*%
%ADD11C,0.120000*%
%ADD12C,0.100000*%
%ADD13C,0.010000*%
G04 APERTURE END LIST*
D10*
X102595171Y-62812939D02*
X102488882Y-62819319D01*
X102365165Y-62890747D01*
X102265256Y-63003415D01*
X102230397Y-63133513D01*
X102236776Y-63239801D01*
X102290775Y-63428568D01*
X102362204Y-63552286D01*
X102498681Y-63693434D01*
X102587539Y-63752103D01*
X102717637Y-63786962D01*
X102865165Y-63756773D01*
X102947643Y-63709154D01*
X103047552Y-63596486D01*
X103064981Y-63531437D01*
X102898315Y-63242762D01*
X102733357Y-63338000D01*
X103483754Y-63399630D02*
X102983754Y-62533605D01*
X103978626Y-63113916D01*
X103478626Y-62247890D01*
X104391019Y-62875821D02*
X103891019Y-62009795D01*
X104097215Y-61890747D01*
X104244743Y-61860558D01*
X104374840Y-61895418D01*
X104463699Y-61954087D01*
X104600176Y-62095235D01*
X104671605Y-62218952D01*
X104725604Y-62407719D01*
X104731983Y-62514007D01*
X104697124Y-62644105D01*
X104597215Y-62756773D01*
X104391019Y-62875821D01*
X140350952Y-105862380D02*
X139779523Y-105862380D01*
X140065238Y-105862380D02*
X140065238Y-104862380D01*
X139970000Y-105005238D01*
X139874761Y-105100476D01*
X139779523Y-105148095D01*
X140731904Y-104957619D02*
X140779523Y-104910000D01*
X140874761Y-104862380D01*
X141112857Y-104862380D01*
X141208095Y-104910000D01*
X141255714Y-104957619D01*
X141303333Y-105052857D01*
X141303333Y-105148095D01*
X141255714Y-105290952D01*
X140684285Y-105862380D01*
X141303333Y-105862380D01*
X141589047Y-104862380D02*
X141922380Y-105862380D01*
X142255714Y-104862380D01*
X102743095Y-96655000D02*
X102647857Y-96607380D01*
X102505000Y-96607380D01*
X102362142Y-96655000D01*
X102266904Y-96750238D01*
X102219285Y-96845476D01*
X102171666Y-97035952D01*
X102171666Y-97178809D01*
X102219285Y-97369285D01*
X102266904Y-97464523D01*
X102362142Y-97559761D01*
X102505000Y-97607380D01*
X102600238Y-97607380D01*
X102743095Y-97559761D01*
X102790714Y-97512142D01*
X102790714Y-97178809D01*
X102600238Y-97178809D01*
X103219285Y-97607380D02*
X103219285Y-96607380D01*
X103790714Y-97607380D01*
X103790714Y-96607380D01*
X104266904Y-97607380D02*
X104266904Y-96607380D01*
X104505000Y-96607380D01*
X104647857Y-96655000D01*
X104743095Y-96750238D01*
X104790714Y-96845476D01*
X104838333Y-97035952D01*
X104838333Y-97178809D01*
X104790714Y-97369285D01*
X104743095Y-97464523D01*
X104647857Y-97559761D01*
X104505000Y-97607380D01*
X104266904Y-97607380D01*
X103005000Y-92527380D02*
X102528809Y-92527380D01*
X102528809Y-91527380D01*
X103338333Y-92527380D02*
X103338333Y-91527380D01*
X103814523Y-92527380D02*
X103814523Y-91527380D01*
X104147857Y-92241666D01*
X104481190Y-91527380D01*
X104481190Y-92527380D01*
X102941428Y-86923571D02*
X103084285Y-86971190D01*
X103131904Y-87018809D01*
X103179523Y-87114047D01*
X103179523Y-87256904D01*
X103131904Y-87352142D01*
X103084285Y-87399761D01*
X102989047Y-87447380D01*
X102608095Y-87447380D01*
X102608095Y-86447380D01*
X102941428Y-86447380D01*
X103036666Y-86495000D01*
X103084285Y-86542619D01*
X103131904Y-86637857D01*
X103131904Y-86733095D01*
X103084285Y-86828333D01*
X103036666Y-86875952D01*
X102941428Y-86923571D01*
X102608095Y-86923571D01*
X103179523Y-82367380D02*
X102846190Y-81891190D01*
X102608095Y-82367380D02*
X102608095Y-81367380D01*
X102989047Y-81367380D01*
X103084285Y-81415000D01*
X103131904Y-81462619D01*
X103179523Y-81557857D01*
X103179523Y-81700714D01*
X103131904Y-81795952D01*
X103084285Y-81843571D01*
X102989047Y-81891190D01*
X102608095Y-81891190D01*
X102274761Y-76763571D02*
X102417619Y-76811190D01*
X102465238Y-76858809D01*
X102512857Y-76954047D01*
X102512857Y-77096904D01*
X102465238Y-77192142D01*
X102417619Y-77239761D01*
X102322380Y-77287380D01*
X101941428Y-77287380D01*
X101941428Y-76287380D01*
X102274761Y-76287380D01*
X102370000Y-76335000D01*
X102417619Y-76382619D01*
X102465238Y-76477857D01*
X102465238Y-76573095D01*
X102417619Y-76668333D01*
X102370000Y-76715952D01*
X102274761Y-76763571D01*
X101941428Y-76763571D01*
X103084285Y-77287380D02*
X102989047Y-77239761D01*
X102941428Y-77144523D01*
X102941428Y-76287380D01*
X103465238Y-77287380D02*
X103465238Y-76287380D01*
X103560476Y-76906428D02*
X103846190Y-77287380D01*
X103846190Y-76620714D02*
X103465238Y-77001666D01*
X102187380Y-71255000D02*
X102092142Y-71207380D01*
X101949285Y-71207380D01*
X101806428Y-71255000D01*
X101711190Y-71350238D01*
X101663571Y-71445476D01*
X101615952Y-71635952D01*
X101615952Y-71778809D01*
X101663571Y-71969285D01*
X101711190Y-72064523D01*
X101806428Y-72159761D01*
X101949285Y-72207380D01*
X102044523Y-72207380D01*
X102187380Y-72159761D01*
X102235000Y-72112142D01*
X102235000Y-71778809D01*
X102044523Y-71778809D01*
X102663571Y-72207380D02*
X102663571Y-71540714D01*
X102663571Y-71731190D02*
X102711190Y-71635952D01*
X102758809Y-71588333D01*
X102854047Y-71540714D01*
X102949285Y-71540714D01*
D11*
X120650000Y-67310000D02*
G75*
G03X120650000Y-67310000I-635000J0D01*
G01*
D12*
G36*
X127000000Y-88900000D02*
G01*
X119380000Y-88900000D01*
X119380000Y-84455000D01*
X127000000Y-84455000D01*
X127000000Y-88900000D01*
G37*
X127000000Y-88900000D02*
X119380000Y-88900000D01*
X119380000Y-84455000D01*
X127000000Y-84455000D01*
X127000000Y-88900000D01*
D10*
X125166904Y-68984761D02*
X125309761Y-69032380D01*
X125547857Y-69032380D01*
X125643095Y-68984761D01*
X125690714Y-68937142D01*
X125738333Y-68841904D01*
X125738333Y-68746666D01*
X125690714Y-68651428D01*
X125643095Y-68603809D01*
X125547857Y-68556190D01*
X125357380Y-68508571D01*
X125262142Y-68460952D01*
X125214523Y-68413333D01*
X125166904Y-68318095D01*
X125166904Y-68222857D01*
X125214523Y-68127619D01*
X125262142Y-68080000D01*
X125357380Y-68032380D01*
X125595476Y-68032380D01*
X125738333Y-68080000D01*
X126166904Y-69032380D02*
X126166904Y-68032380D01*
X126738333Y-69032380D01*
X126738333Y-68032380D01*
X127119285Y-68032380D02*
X127785952Y-68032380D01*
X127357380Y-69032380D01*
X128595476Y-68365714D02*
X128595476Y-69032380D01*
X128357380Y-67984761D02*
X128119285Y-68699047D01*
X128738333Y-68699047D01*
X129119285Y-69032380D02*
X129119285Y-68032380D01*
X129119285Y-68508571D02*
X129690714Y-68508571D01*
X129690714Y-69032380D02*
X129690714Y-68032380D01*
X130738333Y-68937142D02*
X130690714Y-68984761D01*
X130547857Y-69032380D01*
X130452619Y-69032380D01*
X130309761Y-68984761D01*
X130214523Y-68889523D01*
X130166904Y-68794285D01*
X130119285Y-68603809D01*
X130119285Y-68460952D01*
X130166904Y-68270476D01*
X130214523Y-68175238D01*
X130309761Y-68080000D01*
X130452619Y-68032380D01*
X130547857Y-68032380D01*
X130690714Y-68080000D01*
X130738333Y-68127619D01*
X131690714Y-69032380D02*
X131119285Y-69032380D01*
X131405000Y-69032380D02*
X131405000Y-68032380D01*
X131309761Y-68175238D01*
X131214523Y-68270476D01*
X131119285Y-68318095D01*
X132547857Y-68365714D02*
X132547857Y-69032380D01*
X132309761Y-67984761D02*
X132071666Y-68699047D01*
X132690714Y-68699047D01*
X103013095Y-104592380D02*
X103013095Y-103592380D01*
X103251190Y-103592380D01*
X103394047Y-103640000D01*
X103489285Y-103735238D01*
X103536904Y-103830476D01*
X103584523Y-104020952D01*
X103584523Y-104163809D01*
X103536904Y-104354285D01*
X103489285Y-104449523D01*
X103394047Y-104544761D01*
X103251190Y-104592380D01*
X103013095Y-104592380D01*
X104013095Y-104592380D02*
X104013095Y-103592380D01*
X104441666Y-104592380D02*
X104441666Y-104068571D01*
X104394047Y-103973333D01*
X104298809Y-103925714D01*
X104155952Y-103925714D01*
X104060714Y-103973333D01*
X104013095Y-104020952D01*
X104775000Y-103925714D02*
X105155952Y-103925714D01*
X104917857Y-103592380D02*
X104917857Y-104449523D01*
X104965476Y-104544761D01*
X105060714Y-104592380D01*
X105155952Y-104592380D01*
X105489285Y-104592380D02*
X105489285Y-103592380D01*
X106155952Y-103592380D02*
X106346428Y-103592380D01*
X106441666Y-103640000D01*
X106536904Y-103735238D01*
X106584523Y-103925714D01*
X106584523Y-104259047D01*
X106536904Y-104449523D01*
X106441666Y-104544761D01*
X106346428Y-104592380D01*
X106155952Y-104592380D01*
X106060714Y-104544761D01*
X105965476Y-104449523D01*
X105917857Y-104259047D01*
X105917857Y-103925714D01*
X105965476Y-103735238D01*
X106060714Y-103640000D01*
X106155952Y-103592380D01*
X131262619Y-86129761D02*
X131405476Y-86177380D01*
X131643571Y-86177380D01*
X131738809Y-86129761D01*
X131786428Y-86082142D01*
X131834047Y-85986904D01*
X131834047Y-85891666D01*
X131786428Y-85796428D01*
X131738809Y-85748809D01*
X131643571Y-85701190D01*
X131453095Y-85653571D01*
X131357857Y-85605952D01*
X131310238Y-85558333D01*
X131262619Y-85463095D01*
X131262619Y-85367857D01*
X131310238Y-85272619D01*
X131357857Y-85225000D01*
X131453095Y-85177380D01*
X131691190Y-85177380D01*
X131834047Y-85225000D01*
X132119761Y-85510714D02*
X132500714Y-85510714D01*
X132262619Y-85177380D02*
X132262619Y-86034523D01*
X132310238Y-86129761D01*
X132405476Y-86177380D01*
X132500714Y-86177380D01*
X133215000Y-86129761D02*
X133119761Y-86177380D01*
X132929285Y-86177380D01*
X132834047Y-86129761D01*
X132786428Y-86034523D01*
X132786428Y-85653571D01*
X132834047Y-85558333D01*
X132929285Y-85510714D01*
X133119761Y-85510714D01*
X133215000Y-85558333D01*
X133262619Y-85653571D01*
X133262619Y-85748809D01*
X132786428Y-85844047D01*
X133691190Y-85510714D02*
X133691190Y-86510714D01*
X133691190Y-85558333D02*
X133786428Y-85510714D01*
X133976904Y-85510714D01*
X134072142Y-85558333D01*
X134119761Y-85605952D01*
X134167380Y-85701190D01*
X134167380Y-85986904D01*
X134119761Y-86082142D01*
X134072142Y-86129761D01*
X133976904Y-86177380D01*
X133786428Y-86177380D01*
X133691190Y-86129761D01*
X131270476Y-83637380D02*
X131270476Y-82637380D01*
X131508571Y-82637380D01*
X131651428Y-82685000D01*
X131746666Y-82780238D01*
X131794285Y-82875476D01*
X131841904Y-83065952D01*
X131841904Y-83208809D01*
X131794285Y-83399285D01*
X131746666Y-83494523D01*
X131651428Y-83589761D01*
X131508571Y-83637380D01*
X131270476Y-83637380D01*
X132270476Y-83637380D02*
X132270476Y-82970714D01*
X132270476Y-82637380D02*
X132222857Y-82685000D01*
X132270476Y-82732619D01*
X132318095Y-82685000D01*
X132270476Y-82637380D01*
X132270476Y-82732619D01*
X132746666Y-83637380D02*
X132746666Y-82970714D01*
X132746666Y-83161190D02*
X132794285Y-83065952D01*
X132841904Y-83018333D01*
X132937142Y-82970714D01*
X133032380Y-82970714D01*
X136398095Y-104910000D02*
X136302857Y-104862380D01*
X136160000Y-104862380D01*
X136017142Y-104910000D01*
X135921904Y-105005238D01*
X135874285Y-105100476D01*
X135826666Y-105290952D01*
X135826666Y-105433809D01*
X135874285Y-105624285D01*
X135921904Y-105719523D01*
X136017142Y-105814761D01*
X136160000Y-105862380D01*
X136255238Y-105862380D01*
X136398095Y-105814761D01*
X136445714Y-105767142D01*
X136445714Y-105433809D01*
X136255238Y-105433809D01*
X136874285Y-105862380D02*
X136874285Y-104862380D01*
X137445714Y-105862380D01*
X137445714Y-104862380D01*
X137921904Y-105862380D02*
X137921904Y-104862380D01*
X138160000Y-104862380D01*
X138302857Y-104910000D01*
X138398095Y-105005238D01*
X138445714Y-105100476D01*
X138493333Y-105290952D01*
X138493333Y-105433809D01*
X138445714Y-105624285D01*
X138398095Y-105719523D01*
X138302857Y-105814761D01*
X138160000Y-105862380D01*
X137921904Y-105862380D01*
X133159523Y-104862380D02*
X132683333Y-104862380D01*
X132635714Y-105338571D01*
X132683333Y-105290952D01*
X132778571Y-105243333D01*
X133016666Y-105243333D01*
X133111904Y-105290952D01*
X133159523Y-105338571D01*
X133207142Y-105433809D01*
X133207142Y-105671904D01*
X133159523Y-105767142D01*
X133111904Y-105814761D01*
X133016666Y-105862380D01*
X132778571Y-105862380D01*
X132683333Y-105814761D01*
X132635714Y-105767142D01*
X133492857Y-104862380D02*
X133826190Y-105862380D01*
X134159523Y-104862380D01*
X120094761Y-100782380D02*
X120094761Y-99782380D01*
X120332857Y-99782380D01*
X120475714Y-99830000D01*
X120570952Y-99925238D01*
X120618571Y-100020476D01*
X120666190Y-100210952D01*
X120666190Y-100353809D01*
X120618571Y-100544285D01*
X120570952Y-100639523D01*
X120475714Y-100734761D01*
X120332857Y-100782380D01*
X120094761Y-100782380D01*
X121666190Y-100782380D02*
X121332857Y-100306190D01*
X121094761Y-100782380D02*
X121094761Y-99782380D01*
X121475714Y-99782380D01*
X121570952Y-99830000D01*
X121618571Y-99877619D01*
X121666190Y-99972857D01*
X121666190Y-100115714D01*
X121618571Y-100210952D01*
X121570952Y-100258571D01*
X121475714Y-100306190D01*
X121094761Y-100306190D01*
X121951904Y-99782380D02*
X122285238Y-100782380D01*
X122618571Y-99782380D01*
X123094761Y-100210952D02*
X122999523Y-100163333D01*
X122951904Y-100115714D01*
X122904285Y-100020476D01*
X122904285Y-99972857D01*
X122951904Y-99877619D01*
X122999523Y-99830000D01*
X123094761Y-99782380D01*
X123285238Y-99782380D01*
X123380476Y-99830000D01*
X123428095Y-99877619D01*
X123475714Y-99972857D01*
X123475714Y-100020476D01*
X123428095Y-100115714D01*
X123380476Y-100163333D01*
X123285238Y-100210952D01*
X123094761Y-100210952D01*
X122999523Y-100258571D01*
X122951904Y-100306190D01*
X122904285Y-100401428D01*
X122904285Y-100591904D01*
X122951904Y-100687142D01*
X122999523Y-100734761D01*
X123094761Y-100782380D01*
X123285238Y-100782380D01*
X123380476Y-100734761D01*
X123428095Y-100687142D01*
X123475714Y-100591904D01*
X123475714Y-100401428D01*
X123428095Y-100306190D01*
X123380476Y-100258571D01*
X123285238Y-100210952D01*
X124047142Y-100210952D02*
X123951904Y-100163333D01*
X123904285Y-100115714D01*
X123856666Y-100020476D01*
X123856666Y-99972857D01*
X123904285Y-99877619D01*
X123951904Y-99830000D01*
X124047142Y-99782380D01*
X124237619Y-99782380D01*
X124332857Y-99830000D01*
X124380476Y-99877619D01*
X124428095Y-99972857D01*
X124428095Y-100020476D01*
X124380476Y-100115714D01*
X124332857Y-100163333D01*
X124237619Y-100210952D01*
X124047142Y-100210952D01*
X123951904Y-100258571D01*
X123904285Y-100306190D01*
X123856666Y-100401428D01*
X123856666Y-100591904D01*
X123904285Y-100687142D01*
X123951904Y-100734761D01*
X124047142Y-100782380D01*
X124237619Y-100782380D01*
X124332857Y-100734761D01*
X124380476Y-100687142D01*
X124428095Y-100591904D01*
X124428095Y-100401428D01*
X124380476Y-100306190D01*
X124332857Y-100258571D01*
X124237619Y-100210952D01*
X124809047Y-99877619D02*
X124856666Y-99830000D01*
X124951904Y-99782380D01*
X125190000Y-99782380D01*
X125285238Y-99830000D01*
X125332857Y-99877619D01*
X125380476Y-99972857D01*
X125380476Y-100068095D01*
X125332857Y-100210952D01*
X124761428Y-100782380D01*
X125380476Y-100782380D01*
X126285238Y-99782380D02*
X125809047Y-99782380D01*
X125761428Y-100258571D01*
X125809047Y-100210952D01*
X125904285Y-100163333D01*
X126142380Y-100163333D01*
X126237619Y-100210952D01*
X126285238Y-100258571D01*
X126332857Y-100353809D01*
X126332857Y-100591904D01*
X126285238Y-100687142D01*
X126237619Y-100734761D01*
X126142380Y-100782380D01*
X125904285Y-100782380D01*
X125809047Y-100734761D01*
X125761428Y-100687142D01*
X143891904Y-62889761D02*
X144034761Y-62937380D01*
X144272857Y-62937380D01*
X144368095Y-62889761D01*
X144415714Y-62842142D01*
X144463333Y-62746904D01*
X144463333Y-62651666D01*
X144415714Y-62556428D01*
X144368095Y-62508809D01*
X144272857Y-62461190D01*
X144082380Y-62413571D01*
X143987142Y-62365952D01*
X143939523Y-62318333D01*
X143891904Y-62223095D01*
X143891904Y-62127857D01*
X143939523Y-62032619D01*
X143987142Y-61985000D01*
X144082380Y-61937380D01*
X144320476Y-61937380D01*
X144463333Y-61985000D01*
X144749047Y-62270714D02*
X145130000Y-62270714D01*
X144891904Y-61937380D02*
X144891904Y-62794523D01*
X144939523Y-62889761D01*
X145034761Y-62937380D01*
X145130000Y-62937380D01*
X145891904Y-62270714D02*
X145891904Y-62937380D01*
X145463333Y-62270714D02*
X145463333Y-62794523D01*
X145510952Y-62889761D01*
X145606190Y-62937380D01*
X145749047Y-62937380D01*
X145844285Y-62889761D01*
X145891904Y-62842142D01*
X146368095Y-62270714D02*
X146368095Y-63270714D01*
X146368095Y-62318333D02*
X146463333Y-62270714D01*
X146653809Y-62270714D01*
X146749047Y-62318333D01*
X146796666Y-62365952D01*
X146844285Y-62461190D01*
X146844285Y-62746904D01*
X146796666Y-62842142D01*
X146749047Y-62889761D01*
X146653809Y-62937380D01*
X146463333Y-62937380D01*
X146368095Y-62889761D01*
X147272857Y-62937380D02*
X147272857Y-62270714D01*
X147272857Y-61937380D02*
X147225238Y-61985000D01*
X147272857Y-62032619D01*
X147320476Y-61985000D01*
X147272857Y-61937380D01*
X147272857Y-62032619D01*
X148177619Y-62937380D02*
X148177619Y-61937380D01*
X148177619Y-62889761D02*
X148082380Y-62937380D01*
X147891904Y-62937380D01*
X147796666Y-62889761D01*
X147749047Y-62842142D01*
X147701428Y-62746904D01*
X147701428Y-62461190D01*
X147749047Y-62365952D01*
X147796666Y-62318333D01*
X147891904Y-62270714D01*
X148082380Y-62270714D01*
X148177619Y-62318333D01*
X149415714Y-62937380D02*
X149415714Y-61937380D01*
X149653809Y-61937380D01*
X149796666Y-61985000D01*
X149891904Y-62080238D01*
X149939523Y-62175476D01*
X149987142Y-62365952D01*
X149987142Y-62508809D01*
X149939523Y-62699285D01*
X149891904Y-62794523D01*
X149796666Y-62889761D01*
X149653809Y-62937380D01*
X149415714Y-62937380D01*
X150558571Y-62937380D02*
X150463333Y-62889761D01*
X150415714Y-62842142D01*
X150368095Y-62746904D01*
X150368095Y-62461190D01*
X150415714Y-62365952D01*
X150463333Y-62318333D01*
X150558571Y-62270714D01*
X150701428Y-62270714D01*
X150796666Y-62318333D01*
X150844285Y-62365952D01*
X150891904Y-62461190D01*
X150891904Y-62746904D01*
X150844285Y-62842142D01*
X150796666Y-62889761D01*
X150701428Y-62937380D01*
X150558571Y-62937380D01*
X151749047Y-62270714D02*
X151749047Y-63080238D01*
X151701428Y-63175476D01*
X151653809Y-63223095D01*
X151558571Y-63270714D01*
X151415714Y-63270714D01*
X151320476Y-63223095D01*
X151749047Y-62889761D02*
X151653809Y-62937380D01*
X151463333Y-62937380D01*
X151368095Y-62889761D01*
X151320476Y-62842142D01*
X151272857Y-62746904D01*
X151272857Y-62461190D01*
X151320476Y-62365952D01*
X151368095Y-62318333D01*
X151463333Y-62270714D01*
X151653809Y-62270714D01*
X151749047Y-62318333D01*
X153320476Y-62413571D02*
X152987142Y-62413571D01*
X152987142Y-62937380D02*
X152987142Y-61937380D01*
X153463333Y-61937380D01*
X153987142Y-62937380D02*
X153891904Y-62889761D01*
X153844285Y-62842142D01*
X153796666Y-62746904D01*
X153796666Y-62461190D01*
X153844285Y-62365952D01*
X153891904Y-62318333D01*
X153987142Y-62270714D01*
X154130000Y-62270714D01*
X154225238Y-62318333D01*
X154272857Y-62365952D01*
X154320476Y-62461190D01*
X154320476Y-62746904D01*
X154272857Y-62842142D01*
X154225238Y-62889761D01*
X154130000Y-62937380D01*
X153987142Y-62937380D01*
X155177619Y-62889761D02*
X155082380Y-62937380D01*
X154891904Y-62937380D01*
X154796666Y-62889761D01*
X154749047Y-62842142D01*
X154701428Y-62746904D01*
X154701428Y-62461190D01*
X154749047Y-62365952D01*
X154796666Y-62318333D01*
X154891904Y-62270714D01*
X155082380Y-62270714D01*
X155177619Y-62318333D01*
X156034761Y-62270714D02*
X156034761Y-62937380D01*
X155606190Y-62270714D02*
X155606190Y-62794523D01*
X155653809Y-62889761D01*
X155749047Y-62937380D01*
X155891904Y-62937380D01*
X155987142Y-62889761D01*
X156034761Y-62842142D01*
X156463333Y-62889761D02*
X156558571Y-62937380D01*
X156749047Y-62937380D01*
X156844285Y-62889761D01*
X156891904Y-62794523D01*
X156891904Y-62746904D01*
X156844285Y-62651666D01*
X156749047Y-62604047D01*
X156606190Y-62604047D01*
X156510952Y-62556428D01*
X156463333Y-62461190D01*
X156463333Y-62413571D01*
X156510952Y-62318333D01*
X156606190Y-62270714D01*
X156749047Y-62270714D01*
X156844285Y-62318333D01*
X157701428Y-62889761D02*
X157606190Y-62937380D01*
X157415714Y-62937380D01*
X157320476Y-62889761D01*
X157272857Y-62794523D01*
X157272857Y-62413571D01*
X157320476Y-62318333D01*
X157415714Y-62270714D01*
X157606190Y-62270714D01*
X157701428Y-62318333D01*
X157749047Y-62413571D01*
X157749047Y-62508809D01*
X157272857Y-62604047D01*
X158177619Y-62937380D02*
X158177619Y-62270714D01*
X158177619Y-62461190D02*
X158225238Y-62365952D01*
X158272857Y-62318333D01*
X158368095Y-62270714D01*
X158463333Y-62270714D01*
X142415714Y-64539761D02*
X142558571Y-64587380D01*
X142796666Y-64587380D01*
X142891904Y-64539761D01*
X142939523Y-64492142D01*
X142987142Y-64396904D01*
X142987142Y-64301666D01*
X142939523Y-64206428D01*
X142891904Y-64158809D01*
X142796666Y-64111190D01*
X142606190Y-64063571D01*
X142510952Y-64015952D01*
X142463333Y-63968333D01*
X142415714Y-63873095D01*
X142415714Y-63777857D01*
X142463333Y-63682619D01*
X142510952Y-63635000D01*
X142606190Y-63587380D01*
X142844285Y-63587380D01*
X142987142Y-63635000D01*
X143272857Y-63920714D02*
X143653809Y-63920714D01*
X143415714Y-63587380D02*
X143415714Y-64444523D01*
X143463333Y-64539761D01*
X143558571Y-64587380D01*
X143653809Y-64587380D01*
X144415714Y-63920714D02*
X144415714Y-64587380D01*
X143987142Y-63920714D02*
X143987142Y-64444523D01*
X144034761Y-64539761D01*
X144130000Y-64587380D01*
X144272857Y-64587380D01*
X144368095Y-64539761D01*
X144415714Y-64492142D01*
X144891904Y-63920714D02*
X144891904Y-64920714D01*
X144891904Y-63968333D02*
X144987142Y-63920714D01*
X145177619Y-63920714D01*
X145272857Y-63968333D01*
X145320476Y-64015952D01*
X145368095Y-64111190D01*
X145368095Y-64396904D01*
X145320476Y-64492142D01*
X145272857Y-64539761D01*
X145177619Y-64587380D01*
X144987142Y-64587380D01*
X144891904Y-64539761D01*
X145796666Y-64587380D02*
X145796666Y-63920714D01*
X145796666Y-63587380D02*
X145749047Y-63635000D01*
X145796666Y-63682619D01*
X145844285Y-63635000D01*
X145796666Y-63587380D01*
X145796666Y-63682619D01*
X146701428Y-64587380D02*
X146701428Y-63587380D01*
X146701428Y-64539761D02*
X146606190Y-64587380D01*
X146415714Y-64587380D01*
X146320476Y-64539761D01*
X146272857Y-64492142D01*
X146225238Y-64396904D01*
X146225238Y-64111190D01*
X146272857Y-64015952D01*
X146320476Y-63968333D01*
X146415714Y-63920714D01*
X146606190Y-63920714D01*
X146701428Y-63968333D01*
X147939523Y-64587380D02*
X147939523Y-63587380D01*
X148177619Y-63587380D01*
X148320476Y-63635000D01*
X148415714Y-63730238D01*
X148463333Y-63825476D01*
X148510952Y-64015952D01*
X148510952Y-64158809D01*
X148463333Y-64349285D01*
X148415714Y-64444523D01*
X148320476Y-64539761D01*
X148177619Y-64587380D01*
X147939523Y-64587380D01*
X149082380Y-64587380D02*
X148987142Y-64539761D01*
X148939523Y-64492142D01*
X148891904Y-64396904D01*
X148891904Y-64111190D01*
X148939523Y-64015952D01*
X148987142Y-63968333D01*
X149082380Y-63920714D01*
X149225238Y-63920714D01*
X149320476Y-63968333D01*
X149368095Y-64015952D01*
X149415714Y-64111190D01*
X149415714Y-64396904D01*
X149368095Y-64492142D01*
X149320476Y-64539761D01*
X149225238Y-64587380D01*
X149082380Y-64587380D01*
X150272857Y-63920714D02*
X150272857Y-64730238D01*
X150225238Y-64825476D01*
X150177619Y-64873095D01*
X150082380Y-64920714D01*
X149939523Y-64920714D01*
X149844285Y-64873095D01*
X150272857Y-64539761D02*
X150177619Y-64587380D01*
X149987142Y-64587380D01*
X149891904Y-64539761D01*
X149844285Y-64492142D01*
X149796666Y-64396904D01*
X149796666Y-64111190D01*
X149844285Y-64015952D01*
X149891904Y-63968333D01*
X149987142Y-63920714D01*
X150177619Y-63920714D01*
X150272857Y-63968333D01*
X151701428Y-63587380D02*
X151891904Y-63587380D01*
X151987142Y-63635000D01*
X152082380Y-63730238D01*
X152130000Y-63920714D01*
X152130000Y-64254047D01*
X152082380Y-64444523D01*
X151987142Y-64539761D01*
X151891904Y-64587380D01*
X151701428Y-64587380D01*
X151606190Y-64539761D01*
X151510952Y-64444523D01*
X151463333Y-64254047D01*
X151463333Y-63920714D01*
X151510952Y-63730238D01*
X151606190Y-63635000D01*
X151701428Y-63587380D01*
X152558571Y-64587380D02*
X152558571Y-63587380D01*
X152558571Y-63968333D02*
X152653809Y-63920714D01*
X152844285Y-63920714D01*
X152939523Y-63968333D01*
X152987142Y-64015952D01*
X153034761Y-64111190D01*
X153034761Y-64396904D01*
X152987142Y-64492142D01*
X152939523Y-64539761D01*
X152844285Y-64587380D01*
X152653809Y-64587380D01*
X152558571Y-64539761D01*
X153415714Y-64539761D02*
X153510952Y-64587380D01*
X153701428Y-64587380D01*
X153796666Y-64539761D01*
X153844285Y-64444523D01*
X153844285Y-64396904D01*
X153796666Y-64301666D01*
X153701428Y-64254047D01*
X153558571Y-64254047D01*
X153463333Y-64206428D01*
X153415714Y-64111190D01*
X153415714Y-64063571D01*
X153463333Y-63968333D01*
X153558571Y-63920714D01*
X153701428Y-63920714D01*
X153796666Y-63968333D01*
X154653809Y-64539761D02*
X154558571Y-64587380D01*
X154368095Y-64587380D01*
X154272857Y-64539761D01*
X154225238Y-64444523D01*
X154225238Y-64063571D01*
X154272857Y-63968333D01*
X154368095Y-63920714D01*
X154558571Y-63920714D01*
X154653809Y-63968333D01*
X154701428Y-64063571D01*
X154701428Y-64158809D01*
X154225238Y-64254047D01*
X155130000Y-64587380D02*
X155130000Y-63920714D01*
X155130000Y-64111190D02*
X155177619Y-64015952D01*
X155225238Y-63968333D01*
X155320476Y-63920714D01*
X155415714Y-63920714D01*
X155653809Y-63920714D02*
X155891904Y-64587380D01*
X156130000Y-63920714D01*
X156939523Y-64587380D02*
X156939523Y-64063571D01*
X156891904Y-63968333D01*
X156796666Y-63920714D01*
X156606190Y-63920714D01*
X156510952Y-63968333D01*
X156939523Y-64539761D02*
X156844285Y-64587380D01*
X156606190Y-64587380D01*
X156510952Y-64539761D01*
X156463333Y-64444523D01*
X156463333Y-64349285D01*
X156510952Y-64254047D01*
X156606190Y-64206428D01*
X156844285Y-64206428D01*
X156939523Y-64158809D01*
X157272857Y-63920714D02*
X157653809Y-63920714D01*
X157415714Y-63587380D02*
X157415714Y-64444523D01*
X157463333Y-64539761D01*
X157558571Y-64587380D01*
X157653809Y-64587380D01*
X158130000Y-64587380D02*
X158034761Y-64539761D01*
X157987142Y-64492142D01*
X157939523Y-64396904D01*
X157939523Y-64111190D01*
X157987142Y-64015952D01*
X158034761Y-63968333D01*
X158130000Y-63920714D01*
X158272857Y-63920714D01*
X158368095Y-63968333D01*
X158415714Y-64015952D01*
X158463333Y-64111190D01*
X158463333Y-64396904D01*
X158415714Y-64492142D01*
X158368095Y-64539761D01*
X158272857Y-64587380D01*
X158130000Y-64587380D01*
X158891904Y-64587380D02*
X158891904Y-63920714D01*
X158891904Y-64111190D02*
X158939523Y-64015952D01*
X158987142Y-63968333D01*
X159082380Y-63920714D01*
X159177619Y-63920714D01*
X159415714Y-63920714D02*
X159653809Y-64587380D01*
X159891904Y-63920714D02*
X159653809Y-64587380D01*
X159558571Y-64825476D01*
X159510952Y-64873095D01*
X159415714Y-64920714D01*
X143582380Y-65237380D02*
X143582380Y-65951666D01*
X143534761Y-66094523D01*
X143439523Y-66189761D01*
X143296666Y-66237380D01*
X143201428Y-66237380D01*
X144439523Y-66189761D02*
X144344285Y-66237380D01*
X144153809Y-66237380D01*
X144058571Y-66189761D01*
X144010952Y-66094523D01*
X144010952Y-65713571D01*
X144058571Y-65618333D01*
X144153809Y-65570714D01*
X144344285Y-65570714D01*
X144439523Y-65618333D01*
X144487142Y-65713571D01*
X144487142Y-65808809D01*
X144010952Y-65904047D01*
X144772857Y-65570714D02*
X145153809Y-65570714D01*
X144915714Y-66237380D02*
X144915714Y-65380238D01*
X144963333Y-65285000D01*
X145058571Y-65237380D01*
X145153809Y-65237380D01*
X145344285Y-65570714D02*
X145725238Y-65570714D01*
X145487142Y-66237380D02*
X145487142Y-65380238D01*
X145534761Y-65285000D01*
X145630000Y-65237380D01*
X145725238Y-65237380D01*
X146677619Y-65237380D02*
X147010952Y-66237380D01*
X147344285Y-65237380D01*
X147820476Y-66237380D02*
X147725238Y-66189761D01*
X147677619Y-66142142D01*
X147630000Y-66046904D01*
X147630000Y-65761190D01*
X147677619Y-65665952D01*
X147725238Y-65618333D01*
X147820476Y-65570714D01*
X147963333Y-65570714D01*
X148058571Y-65618333D01*
X148106190Y-65665952D01*
X148153809Y-65761190D01*
X148153809Y-66046904D01*
X148106190Y-66142142D01*
X148058571Y-66189761D01*
X147963333Y-66237380D01*
X147820476Y-66237380D01*
X148582380Y-66237380D02*
X148582380Y-65570714D01*
X148582380Y-65237380D02*
X148534761Y-65285000D01*
X148582380Y-65332619D01*
X148630000Y-65285000D01*
X148582380Y-65237380D01*
X148582380Y-65332619D01*
X149487142Y-65570714D02*
X149487142Y-66380238D01*
X149439523Y-66475476D01*
X149391904Y-66523095D01*
X149296666Y-66570714D01*
X149153809Y-66570714D01*
X149058571Y-66523095D01*
X149487142Y-66189761D02*
X149391904Y-66237380D01*
X149201428Y-66237380D01*
X149106190Y-66189761D01*
X149058571Y-66142142D01*
X149010952Y-66046904D01*
X149010952Y-65761190D01*
X149058571Y-65665952D01*
X149106190Y-65618333D01*
X149201428Y-65570714D01*
X149391904Y-65570714D01*
X149487142Y-65618333D01*
X149963333Y-66237380D02*
X149963333Y-65237380D01*
X150391904Y-66237380D02*
X150391904Y-65713571D01*
X150344285Y-65618333D01*
X150249047Y-65570714D01*
X150106190Y-65570714D01*
X150010952Y-65618333D01*
X149963333Y-65665952D01*
X150725238Y-65570714D02*
X151106190Y-65570714D01*
X150868095Y-65237380D02*
X150868095Y-66094523D01*
X150915714Y-66189761D01*
X151010952Y-66237380D01*
X151106190Y-66237380D01*
X151487142Y-66189761D02*
X151487142Y-66237380D01*
X151439523Y-66332619D01*
X151391904Y-66380238D01*
X152963333Y-66618333D02*
X152915714Y-66570714D01*
X152820476Y-66427857D01*
X152772857Y-66332619D01*
X152725238Y-66189761D01*
X152677619Y-65951666D01*
X152677619Y-65761190D01*
X152725238Y-65523095D01*
X152772857Y-65380238D01*
X152820476Y-65285000D01*
X152915714Y-65142142D01*
X152963333Y-65094523D01*
X153772857Y-66189761D02*
X153677619Y-66237380D01*
X153487142Y-66237380D01*
X153391904Y-66189761D01*
X153344285Y-66142142D01*
X153296666Y-66046904D01*
X153296666Y-65761190D01*
X153344285Y-65665952D01*
X153391904Y-65618333D01*
X153487142Y-65570714D01*
X153677619Y-65570714D01*
X153772857Y-65618333D01*
X154106190Y-66618333D02*
X154153809Y-66570714D01*
X154249047Y-66427857D01*
X154296666Y-66332619D01*
X154344285Y-66189761D01*
X154391904Y-65951666D01*
X154391904Y-65761190D01*
X154344285Y-65523095D01*
X154296666Y-65380238D01*
X154249047Y-65285000D01*
X154153809Y-65142142D01*
X154106190Y-65094523D01*
X155582380Y-65332619D02*
X155630000Y-65285000D01*
X155725238Y-65237380D01*
X155963333Y-65237380D01*
X156058571Y-65285000D01*
X156106190Y-65332619D01*
X156153809Y-65427857D01*
X156153809Y-65523095D01*
X156106190Y-65665952D01*
X155534761Y-66237380D01*
X156153809Y-66237380D01*
X156772857Y-65237380D02*
X156868095Y-65237380D01*
X156963333Y-65285000D01*
X157010952Y-65332619D01*
X157058571Y-65427857D01*
X157106190Y-65618333D01*
X157106190Y-65856428D01*
X157058571Y-66046904D01*
X157010952Y-66142142D01*
X156963333Y-66189761D01*
X156868095Y-66237380D01*
X156772857Y-66237380D01*
X156677619Y-66189761D01*
X156630000Y-66142142D01*
X156582380Y-66046904D01*
X156534761Y-65856428D01*
X156534761Y-65618333D01*
X156582380Y-65427857D01*
X156630000Y-65332619D01*
X156677619Y-65285000D01*
X156772857Y-65237380D01*
X157487142Y-65332619D02*
X157534761Y-65285000D01*
X157630000Y-65237380D01*
X157868095Y-65237380D01*
X157963333Y-65285000D01*
X158010952Y-65332619D01*
X158058571Y-65427857D01*
X158058571Y-65523095D01*
X158010952Y-65665952D01*
X157439523Y-66237380D01*
X158058571Y-66237380D01*
X158677619Y-65237380D02*
X158772857Y-65237380D01*
X158868095Y-65285000D01*
X158915714Y-65332619D01*
X158963333Y-65427857D01*
X159010952Y-65618333D01*
X159010952Y-65856428D01*
X158963333Y-66046904D01*
X158915714Y-66142142D01*
X158868095Y-66189761D01*
X158772857Y-66237380D01*
X158677619Y-66237380D01*
X158582380Y-66189761D01*
X158534761Y-66142142D01*
X158487142Y-66046904D01*
X158439523Y-65856428D01*
X158439523Y-65618333D01*
X158487142Y-65427857D01*
X158534761Y-65332619D01*
X158582380Y-65285000D01*
X158677619Y-65237380D01*
D11*
X113880000Y-76170000D02*
X113565000Y-76170000D01*
X116305000Y-76170000D02*
X115990000Y-76170000D01*
X113880000Y-71230000D02*
X113565000Y-71230000D01*
X116305000Y-71230000D02*
X115990000Y-71230000D01*
X113565000Y-71230000D02*
X113565000Y-76170000D01*
X116305000Y-71230000D02*
X116305000Y-76170000D01*
X113880000Y-68470000D02*
X113565000Y-68470000D01*
X116305000Y-68470000D02*
X115990000Y-68470000D01*
X113880000Y-63530000D02*
X113565000Y-63530000D01*
X116305000Y-63530000D02*
X115990000Y-63530000D01*
X113565000Y-63530000D02*
X113565000Y-68470000D01*
X116305000Y-63530000D02*
X116305000Y-68470000D01*
X125515000Y-75040000D02*
X125830000Y-75040000D01*
X123090000Y-75040000D02*
X123405000Y-75040000D01*
X125515000Y-79980000D02*
X125830000Y-79980000D01*
X123090000Y-79980000D02*
X123405000Y-79980000D01*
X125830000Y-79980000D02*
X125830000Y-75040000D01*
X123090000Y-79980000D02*
X123090000Y-75040000D01*
X118325000Y-79980000D02*
X118010000Y-79980000D01*
X120750000Y-79980000D02*
X120435000Y-79980000D01*
X118325000Y-75040000D02*
X118010000Y-75040000D01*
X120750000Y-75040000D02*
X120435000Y-75040000D01*
X118010000Y-75040000D02*
X118010000Y-79980000D01*
X120750000Y-75040000D02*
X120750000Y-79980000D01*
X128485000Y-79900000D02*
X128170000Y-79900000D01*
X130910000Y-79900000D02*
X130595000Y-79900000D01*
X128485000Y-74960000D02*
X128170000Y-74960000D01*
X130910000Y-74960000D02*
X130595000Y-74960000D01*
X128170000Y-74960000D02*
X128170000Y-79900000D01*
X130910000Y-74960000D02*
X130910000Y-79900000D01*
X100965000Y-90500000D02*
X100965000Y-89550000D01*
X100965000Y-84760000D02*
X100965000Y-85710000D01*
X101885000Y-89550000D02*
X101885000Y-85710000D01*
X100045000Y-89550000D02*
X101885000Y-89550000D01*
X100045000Y-85710000D02*
X100045000Y-89550000D01*
X101885000Y-85710000D02*
X100045000Y-85710000D01*
X97790000Y-90500000D02*
X97790000Y-89550000D01*
X97790000Y-84760000D02*
X97790000Y-85710000D01*
X98710000Y-89550000D02*
X98710000Y-85710000D01*
X96870000Y-89550000D02*
X98710000Y-89550000D01*
X96870000Y-85710000D02*
X96870000Y-89550000D01*
X98710000Y-85710000D02*
X96870000Y-85710000D01*
X139700000Y-94945000D02*
X139700000Y-93995000D01*
X139700000Y-89205000D02*
X139700000Y-90155000D01*
X140620000Y-93995000D02*
X140620000Y-90155000D01*
X138780000Y-93995000D02*
X140620000Y-93995000D01*
X138780000Y-90155000D02*
X138780000Y-93995000D01*
X140620000Y-90155000D02*
X138780000Y-90155000D01*
X135890000Y-94945000D02*
X135890000Y-93995000D01*
X135890000Y-89205000D02*
X135890000Y-90155000D01*
X136810000Y-93995000D02*
X136810000Y-90155000D01*
X134970000Y-93995000D02*
X136810000Y-93995000D01*
X134970000Y-90155000D02*
X134970000Y-93995000D01*
X136810000Y-90155000D02*
X134970000Y-90155000D01*
X157175000Y-85090000D02*
X156225000Y-85090000D01*
X151435000Y-85090000D02*
X152385000Y-85090000D01*
X156225000Y-84170000D02*
X152385000Y-84170000D01*
X156225000Y-86010000D02*
X156225000Y-84170000D01*
X152385000Y-86010000D02*
X156225000Y-86010000D01*
X152385000Y-84170000D02*
X152385000Y-86010000D01*
X135890000Y-84785000D02*
X135890000Y-83835000D01*
X135890000Y-79045000D02*
X135890000Y-79995000D01*
X136810000Y-83835000D02*
X136810000Y-79995000D01*
X134970000Y-83835000D02*
X136810000Y-83835000D01*
X134970000Y-79995000D02*
X134970000Y-83835000D01*
X136810000Y-79995000D02*
X134970000Y-79995000D01*
X157175000Y-81280000D02*
X156225000Y-81280000D01*
X151435000Y-81280000D02*
X152385000Y-81280000D01*
X156225000Y-80360000D02*
X152385000Y-80360000D01*
X156225000Y-82200000D02*
X156225000Y-80360000D01*
X152385000Y-82200000D02*
X156225000Y-82200000D01*
X152385000Y-80360000D02*
X152385000Y-82200000D01*
X139700000Y-84785000D02*
X139700000Y-83835000D01*
X139700000Y-79045000D02*
X139700000Y-79995000D01*
X140620000Y-83835000D02*
X140620000Y-79995000D01*
X138780000Y-83835000D02*
X140620000Y-83835000D01*
X138780000Y-79995000D02*
X138780000Y-83835000D01*
X140620000Y-79995000D02*
X138780000Y-79995000D01*
D12*
X111850000Y-69105000D02*
X111850000Y-69605000D01*
X111850000Y-69105000D02*
X111350000Y-69105000D01*
X104550000Y-69105000D02*
X104050000Y-69105000D01*
X104050000Y-69105000D02*
X104050000Y-69605000D01*
X104550000Y-99795000D02*
X104050000Y-99795000D01*
X104050000Y-99795000D02*
X104050000Y-99295000D01*
X111850000Y-99795000D02*
X111350000Y-99795000D01*
X111850000Y-99795000D02*
X111850000Y-99295000D01*
D11*
X114085000Y-101630000D02*
X114400000Y-101630000D01*
X111660000Y-101630000D02*
X111975000Y-101630000D01*
X114085000Y-106570000D02*
X114400000Y-106570000D01*
X111660000Y-106570000D02*
X111975000Y-106570000D01*
X114400000Y-106570000D02*
X114400000Y-101630000D01*
X111660000Y-106570000D02*
X111660000Y-101630000D01*
D12*
X138685000Y-71355000D02*
X138685000Y-70955000D01*
X138285000Y-71355000D02*
X138685000Y-71355000D01*
X138685000Y-64555000D02*
X138285000Y-64555000D01*
X138685000Y-65055000D02*
X138685000Y-64555000D01*
X119185000Y-64555000D02*
X119185000Y-64955000D01*
X119585000Y-64555000D02*
X119185000Y-64555000D01*
X119085000Y-70455000D02*
X120085000Y-71455000D01*
X119085000Y-70155000D02*
X119085000Y-70455000D01*
X120085000Y-71455000D02*
X120085000Y-71825000D01*
X120085000Y-71835000D02*
X120085000Y-72085000D01*
D13*
G36*
X153207489Y-67925877D02*
G01*
X153460815Y-67942080D01*
X153705456Y-67967432D01*
X153926939Y-68001061D01*
X154078341Y-68033495D01*
X154198740Y-68065808D01*
X154322414Y-68102018D01*
X154439700Y-68138922D01*
X154540936Y-68173315D01*
X154616460Y-68201995D01*
X154656608Y-68221758D01*
X154660600Y-68226533D01*
X154652101Y-68257746D01*
X154631763Y-68311711D01*
X154607319Y-68369845D01*
X154586504Y-68413563D01*
X154577709Y-68425687D01*
X154552698Y-68417107D01*
X154490891Y-68395778D01*
X154403495Y-68365568D01*
X154359099Y-68350210D01*
X153934182Y-68229996D01*
X153490869Y-68156952D01*
X153029768Y-68131135D01*
X152551488Y-68152605D01*
X152427652Y-68165559D01*
X152290204Y-68181557D01*
X152351872Y-68069628D01*
X152393774Y-68001414D01*
X152435149Y-67965343D01*
X152496568Y-67947346D01*
X152540120Y-67940875D01*
X152732669Y-67924403D01*
X152959950Y-67919694D01*
X153207489Y-67925877D01*
G37*
X153207489Y-67925877D02*
X153460815Y-67942080D01*
X153705456Y-67967432D01*
X153926939Y-68001061D01*
X154078341Y-68033495D01*
X154198740Y-68065808D01*
X154322414Y-68102018D01*
X154439700Y-68138922D01*
X154540936Y-68173315D01*
X154616460Y-68201995D01*
X154656608Y-68221758D01*
X154660600Y-68226533D01*
X154652101Y-68257746D01*
X154631763Y-68311711D01*
X154607319Y-68369845D01*
X154586504Y-68413563D01*
X154577709Y-68425687D01*
X154552698Y-68417107D01*
X154490891Y-68395778D01*
X154403495Y-68365568D01*
X154359099Y-68350210D01*
X153934182Y-68229996D01*
X153490869Y-68156952D01*
X153029768Y-68131135D01*
X152551488Y-68152605D01*
X152427652Y-68165559D01*
X152290204Y-68181557D01*
X152351872Y-68069628D01*
X152393774Y-68001414D01*
X152435149Y-67965343D01*
X152496568Y-67947346D01*
X152540120Y-67940875D01*
X152732669Y-67924403D01*
X152959950Y-67919694D01*
X153207489Y-67925877D01*
G36*
X152247600Y-68000979D02*
G01*
X152235846Y-68035420D01*
X152206319Y-68094793D01*
X152192044Y-68120364D01*
X152162597Y-68166335D01*
X152129360Y-68199425D01*
X152080802Y-68226066D01*
X152005391Y-68252688D01*
X151899486Y-68283508D01*
X151608378Y-68380688D01*
X151303523Y-68510015D01*
X151001194Y-68663262D01*
X150717665Y-68832203D01*
X150476840Y-69002633D01*
X150390790Y-69068537D01*
X150321744Y-69118966D01*
X150277878Y-69148105D01*
X150266400Y-69152305D01*
X150277765Y-69124949D01*
X150308220Y-69063897D01*
X150352301Y-68979927D01*
X150377491Y-68933180D01*
X150451976Y-68807915D01*
X150524208Y-68715471D01*
X150606825Y-68640097D01*
X150622089Y-68628391D01*
X150705052Y-68573652D01*
X150823870Y-68505259D01*
X150967358Y-68428743D01*
X151124334Y-68349638D01*
X151283616Y-68273477D01*
X151434020Y-68205793D01*
X151564364Y-68152119D01*
X151638000Y-68125742D01*
X151747558Y-68093014D01*
X151866235Y-68061964D01*
X151984040Y-68034640D01*
X152090983Y-68013084D01*
X152177073Y-67999342D01*
X152232319Y-67995459D01*
X152247600Y-68000979D01*
G37*
X152247600Y-68000979D02*
X152235846Y-68035420D01*
X152206319Y-68094793D01*
X152192044Y-68120364D01*
X152162597Y-68166335D01*
X152129360Y-68199425D01*
X152080802Y-68226066D01*
X152005391Y-68252688D01*
X151899486Y-68283508D01*
X151608378Y-68380688D01*
X151303523Y-68510015D01*
X151001194Y-68663262D01*
X150717665Y-68832203D01*
X150476840Y-69002633D01*
X150390790Y-69068537D01*
X150321744Y-69118966D01*
X150277878Y-69148105D01*
X150266400Y-69152305D01*
X150277765Y-69124949D01*
X150308220Y-69063897D01*
X150352301Y-68979927D01*
X150377491Y-68933180D01*
X150451976Y-68807915D01*
X150524208Y-68715471D01*
X150606825Y-68640097D01*
X150622089Y-68628391D01*
X150705052Y-68573652D01*
X150823870Y-68505259D01*
X150967358Y-68428743D01*
X151124334Y-68349638D01*
X151283616Y-68273477D01*
X151434020Y-68205793D01*
X151564364Y-68152119D01*
X151638000Y-68125742D01*
X151747558Y-68093014D01*
X151866235Y-68061964D01*
X151984040Y-68034640D01*
X152090983Y-68013084D01*
X152177073Y-67999342D01*
X152232319Y-67995459D01*
X152247600Y-68000979D01*
G36*
X153862379Y-68433712D02*
G01*
X153871470Y-68474337D01*
X153850239Y-68530938D01*
X153807819Y-68587491D01*
X153753344Y-68627974D01*
X153751042Y-68629033D01*
X153696774Y-68661189D01*
X153673908Y-68702989D01*
X153678466Y-68768327D01*
X153693891Y-68828739D01*
X153703635Y-68889288D01*
X153695189Y-68957064D01*
X153666018Y-69049482D01*
X153659007Y-69068386D01*
X153600233Y-69224730D01*
X153556324Y-69073815D01*
X153529928Y-68976988D01*
X153508172Y-68886474D01*
X153498826Y-68839380D01*
X153475371Y-68773540D01*
X153437525Y-68730346D01*
X153436377Y-68729712D01*
X153397101Y-68687640D01*
X153400403Y-68634612D01*
X153442932Y-68581377D01*
X153492200Y-68550709D01*
X153584859Y-68510372D01*
X153680803Y-68474567D01*
X153767466Y-68447266D01*
X153832284Y-68432440D01*
X153862379Y-68433712D01*
G37*
X153862379Y-68433712D02*
X153871470Y-68474337D01*
X153850239Y-68530938D01*
X153807819Y-68587491D01*
X153753344Y-68627974D01*
X153751042Y-68629033D01*
X153696774Y-68661189D01*
X153673908Y-68702989D01*
X153678466Y-68768327D01*
X153693891Y-68828739D01*
X153703635Y-68889288D01*
X153695189Y-68957064D01*
X153666018Y-69049482D01*
X153659007Y-69068386D01*
X153600233Y-69224730D01*
X153556324Y-69073815D01*
X153529928Y-68976988D01*
X153508172Y-68886474D01*
X153498826Y-68839380D01*
X153475371Y-68773540D01*
X153437525Y-68730346D01*
X153436377Y-68729712D01*
X153397101Y-68687640D01*
X153400403Y-68634612D01*
X153442932Y-68581377D01*
X153492200Y-68550709D01*
X153584859Y-68510372D01*
X153680803Y-68474567D01*
X153767466Y-68447266D01*
X153832284Y-68432440D01*
X153862379Y-68433712D01*
G36*
X154057198Y-68512308D02*
G01*
X154126180Y-68611641D01*
X154146044Y-68721588D01*
X154117091Y-68840985D01*
X154039619Y-68968671D01*
X153913929Y-69103481D01*
X153902251Y-69114131D01*
X153809108Y-69196065D01*
X153746924Y-69244974D01*
X153710924Y-69263940D01*
X153696332Y-69256043D01*
X153695400Y-69247599D01*
X153708995Y-69186657D01*
X153744093Y-69101906D01*
X153792167Y-69010504D01*
X153844685Y-68929613D01*
X153867642Y-68901049D01*
X153919557Y-68836576D01*
X153942170Y-68785070D01*
X153943238Y-68724751D01*
X153940001Y-68697849D01*
X153938680Y-68602296D01*
X153957126Y-68519732D01*
X153957586Y-68518653D01*
X153989498Y-68444607D01*
X154057198Y-68512308D01*
G37*
X154057198Y-68512308D02*
X154126180Y-68611641D01*
X154146044Y-68721588D01*
X154117091Y-68840985D01*
X154039619Y-68968671D01*
X153913929Y-69103481D01*
X153902251Y-69114131D01*
X153809108Y-69196065D01*
X153746924Y-69244974D01*
X153710924Y-69263940D01*
X153696332Y-69256043D01*
X153695400Y-69247599D01*
X153708995Y-69186657D01*
X153744093Y-69101906D01*
X153792167Y-69010504D01*
X153844685Y-68929613D01*
X153867642Y-68901049D01*
X153919557Y-68836576D01*
X153942170Y-68785070D01*
X153943238Y-68724751D01*
X153940001Y-68697849D01*
X153938680Y-68602296D01*
X153957126Y-68519732D01*
X153957586Y-68518653D01*
X153989498Y-68444607D01*
X154057198Y-68512308D01*
G36*
X153184945Y-68686665D02*
G01*
X153217968Y-68694488D01*
X153241337Y-68715598D01*
X153260256Y-68760320D01*
X153279927Y-68838982D01*
X153293147Y-68901393D01*
X153318723Y-69010105D01*
X153347531Y-69109726D01*
X153374066Y-69181585D01*
X153378450Y-69190663D01*
X153403094Y-69271680D01*
X153393732Y-69337189D01*
X153359115Y-69379412D01*
X153307993Y-69390573D01*
X153249119Y-69362895D01*
X153219438Y-69331970D01*
X153193708Y-69281752D01*
X153162994Y-69195557D01*
X153131898Y-69087296D01*
X153113985Y-69013143D01*
X153086413Y-68876126D01*
X153076099Y-68781072D01*
X153084408Y-68721691D01*
X153112707Y-68691696D01*
X153162365Y-68684798D01*
X153184945Y-68686665D01*
G37*
X153184945Y-68686665D02*
X153217968Y-68694488D01*
X153241337Y-68715598D01*
X153260256Y-68760320D01*
X153279927Y-68838982D01*
X153293147Y-68901393D01*
X153318723Y-69010105D01*
X153347531Y-69109726D01*
X153374066Y-69181585D01*
X153378450Y-69190663D01*
X153403094Y-69271680D01*
X153393732Y-69337189D01*
X153359115Y-69379412D01*
X153307993Y-69390573D01*
X153249119Y-69362895D01*
X153219438Y-69331970D01*
X153193708Y-69281752D01*
X153162994Y-69195557D01*
X153131898Y-69087296D01*
X153113985Y-69013143D01*
X153086413Y-68876126D01*
X153076099Y-68781072D01*
X153084408Y-68721691D01*
X153112707Y-68691696D01*
X153162365Y-68684798D01*
X153184945Y-68686665D01*
G36*
X152650707Y-68864207D02*
G01*
X152650757Y-68889947D01*
X152637175Y-68954278D01*
X152612315Y-69047572D01*
X152578532Y-69160201D01*
X152577589Y-69163196D01*
X152541362Y-69272907D01*
X152509569Y-69359603D01*
X152485527Y-69414890D01*
X152472550Y-69430375D01*
X152472218Y-69429896D01*
X152458001Y-69392479D01*
X152437248Y-69325016D01*
X152426014Y-69284850D01*
X152403121Y-69215243D01*
X152380941Y-69171652D01*
X152371298Y-69164200D01*
X152350160Y-69145088D01*
X152350998Y-69099180D01*
X152370287Y-69043612D01*
X152404503Y-68995523D01*
X152406350Y-68993798D01*
X152464593Y-68949071D01*
X152534417Y-68906692D01*
X152599732Y-68875196D01*
X152644445Y-68863116D01*
X152650707Y-68864207D01*
G37*
X152650707Y-68864207D02*
X152650757Y-68889947D01*
X152637175Y-68954278D01*
X152612315Y-69047572D01*
X152578532Y-69160201D01*
X152577589Y-69163196D01*
X152541362Y-69272907D01*
X152509569Y-69359603D01*
X152485527Y-69414890D01*
X152472550Y-69430375D01*
X152472218Y-69429896D01*
X152458001Y-69392479D01*
X152437248Y-69325016D01*
X152426014Y-69284850D01*
X152403121Y-69215243D01*
X152380941Y-69171652D01*
X152371298Y-69164200D01*
X152350160Y-69145088D01*
X152350998Y-69099180D01*
X152370287Y-69043612D01*
X152404503Y-68995523D01*
X152406350Y-68993798D01*
X152464593Y-68949071D01*
X152534417Y-68906692D01*
X152599732Y-68875196D01*
X152644445Y-68863116D01*
X152650707Y-68864207D01*
G36*
X154829993Y-68286277D02*
G01*
X154893490Y-68316458D01*
X154983216Y-68361167D01*
X155089814Y-68415827D01*
X155092588Y-68417268D01*
X155364013Y-68573130D01*
X155627251Y-68755779D01*
X155890206Y-68971371D01*
X156160784Y-69226061D01*
X156258192Y-69325002D01*
X156369884Y-69440448D01*
X156337441Y-69556324D01*
X156315284Y-69624207D01*
X156295603Y-69665912D01*
X156288491Y-69672200D01*
X156265919Y-69654409D01*
X156217264Y-69606148D01*
X156150005Y-69535082D01*
X156082242Y-69460746D01*
X155805437Y-69185599D01*
X155488935Y-68930641D01*
X155142128Y-68702984D01*
X154920950Y-68581196D01*
X154829691Y-68533314D01*
X154758540Y-68493835D01*
X154717510Y-68468424D01*
X154711400Y-68462604D01*
X154721308Y-68426116D01*
X154744849Y-68370716D01*
X154772751Y-68315568D01*
X154795740Y-68279838D01*
X154802081Y-68275200D01*
X154829993Y-68286277D01*
G37*
X154829993Y-68286277D02*
X154893490Y-68316458D01*
X154983216Y-68361167D01*
X155089814Y-68415827D01*
X155092588Y-68417268D01*
X155364013Y-68573130D01*
X155627251Y-68755779D01*
X155890206Y-68971371D01*
X156160784Y-69226061D01*
X156258192Y-69325002D01*
X156369884Y-69440448D01*
X156337441Y-69556324D01*
X156315284Y-69624207D01*
X156295603Y-69665912D01*
X156288491Y-69672200D01*
X156265919Y-69654409D01*
X156217264Y-69606148D01*
X156150005Y-69535082D01*
X156082242Y-69460746D01*
X155805437Y-69185599D01*
X155488935Y-68930641D01*
X155142128Y-68702984D01*
X154920950Y-68581196D01*
X154829691Y-68533314D01*
X154758540Y-68493835D01*
X154717510Y-68468424D01*
X154711400Y-68462604D01*
X154721308Y-68426116D01*
X154744849Y-68370716D01*
X154772751Y-68315568D01*
X154795740Y-68279838D01*
X154802081Y-68275200D01*
X154829993Y-68286277D01*
G36*
X152826383Y-68838995D02*
G01*
X152885941Y-68864279D01*
X152940682Y-68914525D01*
X152941527Y-68915652D01*
X152975865Y-69000792D01*
X152961531Y-69096710D01*
X152899109Y-69201761D01*
X152804588Y-69300705D01*
X152736611Y-69364148D01*
X152700099Y-69408670D01*
X152687621Y-69448026D01*
X152691745Y-69495971D01*
X152693597Y-69506150D01*
X152694645Y-69584603D01*
X152671290Y-69642853D01*
X152632040Y-69672444D01*
X152585401Y-69664919D01*
X152558505Y-69640450D01*
X152552534Y-69599652D01*
X152563926Y-69525806D01*
X152588548Y-69431890D01*
X152622267Y-69330885D01*
X152660948Y-69235768D01*
X152700459Y-69159520D01*
X152720903Y-69130501D01*
X152768274Y-69065862D01*
X152778269Y-69026808D01*
X152755004Y-69007368D01*
X152740942Y-68978339D01*
X152745449Y-68916521D01*
X152745750Y-68914996D01*
X152763307Y-68857819D01*
X152793284Y-68838062D01*
X152826383Y-68838995D01*
G37*
X152826383Y-68838995D02*
X152885941Y-68864279D01*
X152940682Y-68914525D01*
X152941527Y-68915652D01*
X152975865Y-69000792D01*
X152961531Y-69096710D01*
X152899109Y-69201761D01*
X152804588Y-69300705D01*
X152736611Y-69364148D01*
X152700099Y-69408670D01*
X152687621Y-69448026D01*
X152691745Y-69495971D01*
X152693597Y-69506150D01*
X152694645Y-69584603D01*
X152671290Y-69642853D01*
X152632040Y-69672444D01*
X152585401Y-69664919D01*
X152558505Y-69640450D01*
X152552534Y-69599652D01*
X152563926Y-69525806D01*
X152588548Y-69431890D01*
X152622267Y-69330885D01*
X152660948Y-69235768D01*
X152700459Y-69159520D01*
X152720903Y-69130501D01*
X152768274Y-69065862D01*
X152778269Y-69026808D01*
X152755004Y-69007368D01*
X152740942Y-68978339D01*
X152745449Y-68916521D01*
X152745750Y-68914996D01*
X152763307Y-68857819D01*
X152793284Y-68838062D01*
X152826383Y-68838995D01*
G36*
X152167263Y-69121116D02*
G01*
X152190554Y-69168093D01*
X152217462Y-69250039D01*
X152244511Y-69351939D01*
X152268228Y-69458780D01*
X152285137Y-69555550D01*
X152291764Y-69627235D01*
X152289782Y-69650470D01*
X152252025Y-69727907D01*
X152186530Y-69807100D01*
X152110999Y-69867085D01*
X152103219Y-69871409D01*
X152043815Y-69889520D01*
X151961018Y-69899866D01*
X151929815Y-69900800D01*
X151843743Y-69893566D01*
X151781821Y-69865440D01*
X151739705Y-69828613D01*
X151670712Y-69727425D01*
X151624353Y-69588656D01*
X151603645Y-69421586D01*
X151603230Y-69408912D01*
X151611879Y-69312295D01*
X151639415Y-69257497D01*
X151678677Y-69242725D01*
X151722501Y-69266186D01*
X151763723Y-69326087D01*
X151795180Y-69420635D01*
X151802131Y-69458692D01*
X151828672Y-69583582D01*
X151865795Y-69664415D01*
X151916773Y-69707407D01*
X151936765Y-69714242D01*
X152004567Y-69710374D01*
X152050252Y-69677636D01*
X152102283Y-69625605D01*
X152048239Y-69415390D01*
X152022532Y-69310825D01*
X152010150Y-69242415D01*
X152010355Y-69197500D01*
X152022410Y-69163418D01*
X152032583Y-69146587D01*
X152083331Y-69096567D01*
X152135113Y-69095039D01*
X152167263Y-69121116D01*
G37*
X152167263Y-69121116D02*
X152190554Y-69168093D01*
X152217462Y-69250039D01*
X152244511Y-69351939D01*
X152268228Y-69458780D01*
X152285137Y-69555550D01*
X152291764Y-69627235D01*
X152289782Y-69650470D01*
X152252025Y-69727907D01*
X152186530Y-69807100D01*
X152110999Y-69867085D01*
X152103219Y-69871409D01*
X152043815Y-69889520D01*
X151961018Y-69899866D01*
X151929815Y-69900800D01*
X151843743Y-69893566D01*
X151781821Y-69865440D01*
X151739705Y-69828613D01*
X151670712Y-69727425D01*
X151624353Y-69588656D01*
X151603645Y-69421586D01*
X151603230Y-69408912D01*
X151611879Y-69312295D01*
X151639415Y-69257497D01*
X151678677Y-69242725D01*
X151722501Y-69266186D01*
X151763723Y-69326087D01*
X151795180Y-69420635D01*
X151802131Y-69458692D01*
X151828672Y-69583582D01*
X151865795Y-69664415D01*
X151916773Y-69707407D01*
X151936765Y-69714242D01*
X152004567Y-69710374D01*
X152050252Y-69677636D01*
X152102283Y-69625605D01*
X152048239Y-69415390D01*
X152022532Y-69310825D01*
X152010150Y-69242415D01*
X152010355Y-69197500D01*
X152022410Y-69163418D01*
X152032583Y-69146587D01*
X152083331Y-69096567D01*
X152135113Y-69095039D01*
X152167263Y-69121116D01*
G36*
X151468654Y-69380668D02*
G01*
X151497584Y-69412413D01*
X151506093Y-69447429D01*
X151505577Y-69488395D01*
X151484754Y-69516223D01*
X151432403Y-69541094D01*
X151384481Y-69557740D01*
X151306584Y-69588051D01*
X151270624Y-69615440D01*
X151267531Y-69642810D01*
X151282161Y-69698095D01*
X151297143Y-69761100D01*
X151317516Y-69830738D01*
X151349232Y-69918881D01*
X151364971Y-69957935D01*
X151393730Y-70035289D01*
X151399630Y-70083075D01*
X151384453Y-70116150D01*
X151384011Y-70116685D01*
X151326878Y-70151130D01*
X151260667Y-70143785D01*
X151225045Y-70119216D01*
X151200283Y-70078437D01*
X151168141Y-70004072D01*
X151135142Y-69911398D01*
X151131824Y-69901009D01*
X151101051Y-69808185D01*
X151077728Y-69755278D01*
X151055720Y-69733256D01*
X151028888Y-69733087D01*
X151019543Y-69735767D01*
X150904981Y-69764308D01*
X150828604Y-69763478D01*
X150786528Y-69732379D01*
X150774788Y-69679176D01*
X150796262Y-69657001D01*
X150855223Y-69618688D01*
X150943022Y-69569354D01*
X151051006Y-69514115D01*
X151067398Y-69506125D01*
X151220124Y-69435613D01*
X151334715Y-69391627D01*
X151415962Y-69373525D01*
X151468654Y-69380668D01*
G37*
X151468654Y-69380668D02*
X151497584Y-69412413D01*
X151506093Y-69447429D01*
X151505577Y-69488395D01*
X151484754Y-69516223D01*
X151432403Y-69541094D01*
X151384481Y-69557740D01*
X151306584Y-69588051D01*
X151270624Y-69615440D01*
X151267531Y-69642810D01*
X151282161Y-69698095D01*
X151297143Y-69761100D01*
X151317516Y-69830738D01*
X151349232Y-69918881D01*
X151364971Y-69957935D01*
X151393730Y-70035289D01*
X151399630Y-70083075D01*
X151384453Y-70116150D01*
X151384011Y-70116685D01*
X151326878Y-70151130D01*
X151260667Y-70143785D01*
X151225045Y-70119216D01*
X151200283Y-70078437D01*
X151168141Y-70004072D01*
X151135142Y-69911398D01*
X151131824Y-69901009D01*
X151101051Y-69808185D01*
X151077728Y-69755278D01*
X151055720Y-69733256D01*
X151028888Y-69733087D01*
X151019543Y-69735767D01*
X150904981Y-69764308D01*
X150828604Y-69763478D01*
X150786528Y-69732379D01*
X150774788Y-69679176D01*
X150796262Y-69657001D01*
X150855223Y-69618688D01*
X150943022Y-69569354D01*
X151051006Y-69514115D01*
X151067398Y-69506125D01*
X151220124Y-69435613D01*
X151334715Y-69391627D01*
X151415962Y-69373525D01*
X151468654Y-69380668D01*
G36*
X150554010Y-69450770D02*
G01*
X150586051Y-69472229D01*
X150609631Y-69504040D01*
X150639473Y-69581878D01*
X150630422Y-69652335D01*
X150585885Y-69701697D01*
X150557783Y-69712749D01*
X150494375Y-69713922D01*
X150457789Y-69698337D01*
X150405079Y-69683966D01*
X150336489Y-69700670D01*
X150267503Y-69739567D01*
X150213608Y-69791774D01*
X150190288Y-69848406D01*
X150190200Y-69851843D01*
X150194171Y-69874316D01*
X150212242Y-69888637D01*
X150253645Y-69896617D01*
X150327613Y-69900068D01*
X150439772Y-69900800D01*
X150556449Y-69901813D01*
X150633990Y-69906349D01*
X150684043Y-69916656D01*
X150718256Y-69934980D01*
X150744572Y-69959587D01*
X150795338Y-70040611D01*
X150800260Y-70129421D01*
X150758719Y-70229271D01*
X150671942Y-70341402D01*
X150563963Y-70443042D01*
X150451364Y-70520542D01*
X150342481Y-70570509D01*
X150245647Y-70589549D01*
X150169196Y-70574270D01*
X150144480Y-70556120D01*
X150121547Y-70510264D01*
X150114940Y-70449644D01*
X150124506Y-70396245D01*
X150145750Y-70372803D01*
X150188855Y-70360867D01*
X150258392Y-70341865D01*
X150284305Y-70334824D01*
X150358640Y-70305873D01*
X150435421Y-70262598D01*
X150500588Y-70214668D01*
X150540077Y-70171753D01*
X150545800Y-70154993D01*
X150522232Y-70145292D01*
X150458848Y-70136043D01*
X150366622Y-70128574D01*
X150302064Y-70125501D01*
X150188458Y-70120629D01*
X150113600Y-70113677D01*
X150065456Y-70101306D01*
X150031989Y-70080175D01*
X150001165Y-70046942D01*
X149995855Y-70040500D01*
X149949471Y-69948492D01*
X149945505Y-69846715D01*
X149978603Y-69742666D01*
X150043409Y-69643845D01*
X150134567Y-69557747D01*
X150246721Y-69491872D01*
X150374515Y-69453718D01*
X150418705Y-69448524D01*
X150503573Y-69444423D01*
X150554010Y-69450770D01*
G37*
X150554010Y-69450770D02*
X150586051Y-69472229D01*
X150609631Y-69504040D01*
X150639473Y-69581878D01*
X150630422Y-69652335D01*
X150585885Y-69701697D01*
X150557783Y-69712749D01*
X150494375Y-69713922D01*
X150457789Y-69698337D01*
X150405079Y-69683966D01*
X150336489Y-69700670D01*
X150267503Y-69739567D01*
X150213608Y-69791774D01*
X150190288Y-69848406D01*
X150190200Y-69851843D01*
X150194171Y-69874316D01*
X150212242Y-69888637D01*
X150253645Y-69896617D01*
X150327613Y-69900068D01*
X150439772Y-69900800D01*
X150556449Y-69901813D01*
X150633990Y-69906349D01*
X150684043Y-69916656D01*
X150718256Y-69934980D01*
X150744572Y-69959587D01*
X150795338Y-70040611D01*
X150800260Y-70129421D01*
X150758719Y-70229271D01*
X150671942Y-70341402D01*
X150563963Y-70443042D01*
X150451364Y-70520542D01*
X150342481Y-70570509D01*
X150245647Y-70589549D01*
X150169196Y-70574270D01*
X150144480Y-70556120D01*
X150121547Y-70510264D01*
X150114940Y-70449644D01*
X150124506Y-70396245D01*
X150145750Y-70372803D01*
X150188855Y-70360867D01*
X150258392Y-70341865D01*
X150284305Y-70334824D01*
X150358640Y-70305873D01*
X150435421Y-70262598D01*
X150500588Y-70214668D01*
X150540077Y-70171753D01*
X150545800Y-70154993D01*
X150522232Y-70145292D01*
X150458848Y-70136043D01*
X150366622Y-70128574D01*
X150302064Y-70125501D01*
X150188458Y-70120629D01*
X150113600Y-70113677D01*
X150065456Y-70101306D01*
X150031989Y-70080175D01*
X150001165Y-70046942D01*
X149995855Y-70040500D01*
X149949471Y-69948492D01*
X149945505Y-69846715D01*
X149978603Y-69742666D01*
X150043409Y-69643845D01*
X150134567Y-69557747D01*
X150246721Y-69491872D01*
X150374515Y-69453718D01*
X150418705Y-69448524D01*
X150503573Y-69444423D01*
X150554010Y-69450770D01*
G36*
X153025941Y-70391248D02*
G01*
X153055912Y-70451806D01*
X153050956Y-70519168D01*
X153032933Y-70563393D01*
X152997592Y-70582599D01*
X152933432Y-70586600D01*
X152866040Y-70591708D01*
X152825086Y-70616004D01*
X152789624Y-70672939D01*
X152785120Y-70681850D01*
X152731755Y-70810895D01*
X152711824Y-70915761D01*
X152718185Y-70969760D01*
X152747875Y-71012237D01*
X152794570Y-71007030D01*
X152856500Y-70955644D01*
X152894358Y-70905684D01*
X152894645Y-70869995D01*
X152886645Y-70858174D01*
X152879175Y-70817096D01*
X152907984Y-70772838D01*
X152960493Y-70736139D01*
X153024126Y-70717734D01*
X153050834Y-70718007D01*
X153097151Y-70729568D01*
X153122934Y-70760167D01*
X153139352Y-70824539D01*
X153141662Y-70837807D01*
X153162353Y-70917329D01*
X153191116Y-70980710D01*
X153200707Y-70993671D01*
X153223967Y-71026730D01*
X153215160Y-71054446D01*
X153172599Y-71091714D01*
X153111868Y-71133903D01*
X153073903Y-71141032D01*
X153045834Y-71114246D01*
X153039497Y-71103539D01*
X153020361Y-71080848D01*
X152992836Y-71084386D01*
X152943366Y-71117239D01*
X152927888Y-71128939D01*
X152832409Y-71179952D01*
X152732581Y-71197697D01*
X152643123Y-71181497D01*
X152589638Y-71144448D01*
X152553759Y-71074937D01*
X152533631Y-70973563D01*
X152530188Y-70857055D01*
X152544365Y-70742141D01*
X152563467Y-70676238D01*
X152613687Y-70584616D01*
X152688189Y-70494079D01*
X152772894Y-70418862D01*
X152853725Y-70373197D01*
X152867250Y-70369095D01*
X152961098Y-70362080D01*
X153025941Y-70391248D01*
G37*
X153025941Y-70391248D02*
X153055912Y-70451806D01*
X153050956Y-70519168D01*
X153032933Y-70563393D01*
X152997592Y-70582599D01*
X152933432Y-70586600D01*
X152866040Y-70591708D01*
X152825086Y-70616004D01*
X152789624Y-70672939D01*
X152785120Y-70681850D01*
X152731755Y-70810895D01*
X152711824Y-70915761D01*
X152718185Y-70969760D01*
X152747875Y-71012237D01*
X152794570Y-71007030D01*
X152856500Y-70955644D01*
X152894358Y-70905684D01*
X152894645Y-70869995D01*
X152886645Y-70858174D01*
X152879175Y-70817096D01*
X152907984Y-70772838D01*
X152960493Y-70736139D01*
X153024126Y-70717734D01*
X153050834Y-70718007D01*
X153097151Y-70729568D01*
X153122934Y-70760167D01*
X153139352Y-70824539D01*
X153141662Y-70837807D01*
X153162353Y-70917329D01*
X153191116Y-70980710D01*
X153200707Y-70993671D01*
X153223967Y-71026730D01*
X153215160Y-71054446D01*
X153172599Y-71091714D01*
X153111868Y-71133903D01*
X153073903Y-71141032D01*
X153045834Y-71114246D01*
X153039497Y-71103539D01*
X153020361Y-71080848D01*
X152992836Y-71084386D01*
X152943366Y-71117239D01*
X152927888Y-71128939D01*
X152832409Y-71179952D01*
X152732581Y-71197697D01*
X152643123Y-71181497D01*
X152589638Y-71144448D01*
X152553759Y-71074937D01*
X152533631Y-70973563D01*
X152530188Y-70857055D01*
X152544365Y-70742141D01*
X152563467Y-70676238D01*
X152613687Y-70584616D01*
X152688189Y-70494079D01*
X152772894Y-70418862D01*
X152853725Y-70373197D01*
X152867250Y-70369095D01*
X152961098Y-70362080D01*
X153025941Y-70391248D01*
G36*
X152119647Y-70729269D02*
G01*
X152120600Y-70734171D01*
X152105105Y-70803278D01*
X152067812Y-70878462D01*
X152022511Y-70932352D01*
X152019749Y-70934373D01*
X151972638Y-70991495D01*
X151937750Y-71076903D01*
X151922480Y-71168312D01*
X151925889Y-71217151D01*
X151928329Y-71281654D01*
X151916989Y-71356078D01*
X151896447Y-71423506D01*
X151871278Y-71467021D01*
X151856229Y-71474633D01*
X151817897Y-71456553D01*
X151794263Y-71434944D01*
X151744973Y-71344127D01*
X151725342Y-71227741D01*
X151733055Y-71099689D01*
X151765793Y-70973876D01*
X151821240Y-70864204D01*
X151897079Y-70784578D01*
X151903345Y-70780323D01*
X151968462Y-70746670D01*
X152036294Y-70724803D01*
X152091727Y-70717932D01*
X152119647Y-70729269D01*
G37*
X152119647Y-70729269D02*
X152120600Y-70734171D01*
X152105105Y-70803278D01*
X152067812Y-70878462D01*
X152022511Y-70932352D01*
X152019749Y-70934373D01*
X151972638Y-70991495D01*
X151937750Y-71076903D01*
X151922480Y-71168312D01*
X151925889Y-71217151D01*
X151928329Y-71281654D01*
X151916989Y-71356078D01*
X151896447Y-71423506D01*
X151871278Y-71467021D01*
X151856229Y-71474633D01*
X151817897Y-71456553D01*
X151794263Y-71434944D01*
X151744973Y-71344127D01*
X151725342Y-71227741D01*
X151733055Y-71099689D01*
X151765793Y-70973876D01*
X151821240Y-70864204D01*
X151897079Y-70784578D01*
X151903345Y-70780323D01*
X151968462Y-70746670D01*
X152036294Y-70724803D01*
X152091727Y-70717932D01*
X152119647Y-70729269D01*
G36*
X152288054Y-70770963D02*
G01*
X152331093Y-70819988D01*
X152334954Y-70825093D01*
X152380054Y-70925085D01*
X152389794Y-71045062D01*
X152367847Y-71172493D01*
X152317885Y-71294849D01*
X152243581Y-71399602D01*
X152148606Y-71474220D01*
X152144000Y-71476620D01*
X152055692Y-71514809D01*
X151997623Y-71525254D01*
X151974454Y-71507685D01*
X151978182Y-71486222D01*
X151992146Y-71429148D01*
X151993600Y-71410218D01*
X152011281Y-71371473D01*
X152055145Y-71320162D01*
X152068972Y-71307234D01*
X152146646Y-71208215D01*
X152186954Y-71090515D01*
X152186330Y-70983255D01*
X152183192Y-70913587D01*
X152194382Y-70840694D01*
X152215406Y-70780047D01*
X152241771Y-70747119D01*
X152255291Y-70745797D01*
X152288054Y-70770963D01*
G37*
X152288054Y-70770963D02*
X152331093Y-70819988D01*
X152334954Y-70825093D01*
X152380054Y-70925085D01*
X152389794Y-71045062D01*
X152367847Y-71172493D01*
X152317885Y-71294849D01*
X152243581Y-71399602D01*
X152148606Y-71474220D01*
X152144000Y-71476620D01*
X152055692Y-71514809D01*
X151997623Y-71525254D01*
X151974454Y-71507685D01*
X151978182Y-71486222D01*
X151992146Y-71429148D01*
X151993600Y-71410218D01*
X152011281Y-71371473D01*
X152055145Y-71320162D01*
X152068972Y-71307234D01*
X152146646Y-71208215D01*
X152186954Y-71090515D01*
X152186330Y-70983255D01*
X152183192Y-70913587D01*
X152194382Y-70840694D01*
X152215406Y-70780047D01*
X152241771Y-70747119D01*
X152255291Y-70745797D01*
X152288054Y-70770963D01*
G36*
X151139970Y-70934138D02*
G01*
X151105701Y-71001743D01*
X151058396Y-71041152D01*
X150990117Y-71066512D01*
X150891142Y-71098700D01*
X150834216Y-71130970D01*
X150812008Y-71175342D01*
X150817190Y-71243836D01*
X150835219Y-71320520D01*
X150862715Y-71443182D01*
X150870906Y-71537607D01*
X150858416Y-71623088D01*
X150823867Y-71718919D01*
X150803526Y-71764551D01*
X150734943Y-71913803D01*
X150706386Y-71789951D01*
X150682066Y-71689384D01*
X150653015Y-71575821D01*
X150639825Y-71526400D01*
X150615579Y-71435207D01*
X150594835Y-71353668D01*
X150586451Y-71318542D01*
X150557828Y-71262149D01*
X150520340Y-71234281D01*
X150483414Y-71199713D01*
X150468710Y-71141236D01*
X150478603Y-71081702D01*
X150501350Y-71051705D01*
X150574969Y-71008282D01*
X150680636Y-70959781D01*
X150800956Y-70912786D01*
X150918531Y-70873880D01*
X151015967Y-70849648D01*
X151046262Y-70845466D01*
X151179129Y-70834447D01*
X151139970Y-70934138D01*
G37*
X151139970Y-70934138D02*
X151105701Y-71001743D01*
X151058396Y-71041152D01*
X150990117Y-71066512D01*
X150891142Y-71098700D01*
X150834216Y-71130970D01*
X150812008Y-71175342D01*
X150817190Y-71243836D01*
X150835219Y-71320520D01*
X150862715Y-71443182D01*
X150870906Y-71537607D01*
X150858416Y-71623088D01*
X150823867Y-71718919D01*
X150803526Y-71764551D01*
X150734943Y-71913803D01*
X150706386Y-71789951D01*
X150682066Y-71689384D01*
X150653015Y-71575821D01*
X150639825Y-71526400D01*
X150615579Y-71435207D01*
X150594835Y-71353668D01*
X150586451Y-71318542D01*
X150557828Y-71262149D01*
X150520340Y-71234281D01*
X150483414Y-71199713D01*
X150468710Y-71141236D01*
X150478603Y-71081702D01*
X150501350Y-71051705D01*
X150574969Y-71008282D01*
X150680636Y-70959781D01*
X150800956Y-70912786D01*
X150918531Y-70873880D01*
X151015967Y-70849648D01*
X151046262Y-70845466D01*
X151179129Y-70834447D01*
X151139970Y-70934138D01*
G36*
X150230282Y-68916416D02*
G01*
X150225093Y-68943866D01*
X150198089Y-69005337D01*
X150154378Y-69091770D01*
X150099067Y-69194106D01*
X150037264Y-69303286D01*
X149974076Y-69410251D01*
X149914612Y-69505943D01*
X149863979Y-69581304D01*
X149832787Y-69621400D01*
X149698284Y-69788668D01*
X149557807Y-69993010D01*
X149418085Y-70222310D01*
X149285846Y-70464455D01*
X149167818Y-70707331D01*
X149070730Y-70938823D01*
X149019318Y-71086047D01*
X148973636Y-71218302D01*
X148914898Y-71369147D01*
X148848859Y-71525490D01*
X148781270Y-71674246D01*
X148717886Y-71802323D01*
X148664458Y-71896635D01*
X148660017Y-71903504D01*
X148615734Y-71970900D01*
X148615567Y-71909934D01*
X148622675Y-71820296D01*
X148642574Y-71693763D01*
X148672568Y-71541820D01*
X148709965Y-71375956D01*
X148752069Y-71207657D01*
X148796186Y-71048410D01*
X148839623Y-70909702D01*
X148869283Y-70828193D01*
X149053385Y-70418938D01*
X149271949Y-70027665D01*
X149519486Y-69662696D01*
X149790509Y-69332354D01*
X149991685Y-69125772D01*
X150079410Y-69043620D01*
X150153157Y-68977069D01*
X150205676Y-68932483D01*
X150229712Y-68916226D01*
X150230282Y-68916416D01*
G37*
X150230282Y-68916416D02*
X150225093Y-68943866D01*
X150198089Y-69005337D01*
X150154378Y-69091770D01*
X150099067Y-69194106D01*
X150037264Y-69303286D01*
X149974076Y-69410251D01*
X149914612Y-69505943D01*
X149863979Y-69581304D01*
X149832787Y-69621400D01*
X149698284Y-69788668D01*
X149557807Y-69993010D01*
X149418085Y-70222310D01*
X149285846Y-70464455D01*
X149167818Y-70707331D01*
X149070730Y-70938823D01*
X149019318Y-71086047D01*
X148973636Y-71218302D01*
X148914898Y-71369147D01*
X148848859Y-71525490D01*
X148781270Y-71674246D01*
X148717886Y-71802323D01*
X148664458Y-71896635D01*
X148660017Y-71903504D01*
X148615734Y-71970900D01*
X148615567Y-71909934D01*
X148622675Y-71820296D01*
X148642574Y-71693763D01*
X148672568Y-71541820D01*
X148709965Y-71375956D01*
X148752069Y-71207657D01*
X148796186Y-71048410D01*
X148839623Y-70909702D01*
X148869283Y-70828193D01*
X149053385Y-70418938D01*
X149271949Y-70027665D01*
X149519486Y-69662696D01*
X149790509Y-69332354D01*
X149991685Y-69125772D01*
X150079410Y-69043620D01*
X150153157Y-68977069D01*
X150205676Y-68932483D01*
X150229712Y-68916226D01*
X150230282Y-68916416D01*
G36*
X151389657Y-70961534D02*
G01*
X151437570Y-71017425D01*
X151464199Y-71076347D01*
X151477656Y-71158952D01*
X151480421Y-71192599D01*
X151480794Y-71295536D01*
X151463112Y-71389006D01*
X151423013Y-71479602D01*
X151356136Y-71573919D01*
X151258119Y-71678550D01*
X151124602Y-71800089D01*
X151020246Y-71888350D01*
X150945441Y-71948318D01*
X150901079Y-71977353D01*
X150880285Y-71978991D01*
X150876000Y-71962579D01*
X150888997Y-71904770D01*
X150922538Y-71821128D01*
X150968444Y-71727720D01*
X151018537Y-71640614D01*
X151064639Y-71575879D01*
X151081637Y-71558550D01*
X151165783Y-71467481D01*
X151223940Y-71363626D01*
X151251278Y-71259863D01*
X151242967Y-71169075D01*
X151234838Y-71150080D01*
X151230486Y-71089912D01*
X151260902Y-70995324D01*
X151261254Y-70994504D01*
X151309832Y-70881709D01*
X151389657Y-70961534D01*
G37*
X151389657Y-70961534D02*
X151437570Y-71017425D01*
X151464199Y-71076347D01*
X151477656Y-71158952D01*
X151480421Y-71192599D01*
X151480794Y-71295536D01*
X151463112Y-71389006D01*
X151423013Y-71479602D01*
X151356136Y-71573919D01*
X151258119Y-71678550D01*
X151124602Y-71800089D01*
X151020246Y-71888350D01*
X150945441Y-71948318D01*
X150901079Y-71977353D01*
X150880285Y-71978991D01*
X150876000Y-71962579D01*
X150888997Y-71904770D01*
X150922538Y-71821128D01*
X150968444Y-71727720D01*
X151018537Y-71640614D01*
X151064639Y-71575879D01*
X151081637Y-71558550D01*
X151165783Y-71467481D01*
X151223940Y-71363626D01*
X151251278Y-71259863D01*
X151242967Y-71169075D01*
X151234838Y-71150080D01*
X151230486Y-71089912D01*
X151260902Y-70995324D01*
X151261254Y-70994504D01*
X151309832Y-70881709D01*
X151389657Y-70961534D01*
G36*
X156487222Y-69597060D02*
G01*
X156529817Y-69648151D01*
X156588077Y-69728475D01*
X156657170Y-69830633D01*
X156732265Y-69947222D01*
X156808529Y-70070843D01*
X156881130Y-70194096D01*
X156945236Y-70309579D01*
X156967325Y-70351758D01*
X157125872Y-70705466D01*
X157258157Y-71094934D01*
X157339192Y-71409553D01*
X157405651Y-71705872D01*
X157337001Y-71939986D01*
X157305189Y-72043708D01*
X157276315Y-72129373D01*
X157254587Y-72184891D01*
X157247175Y-72198230D01*
X157236266Y-72188294D01*
X157228621Y-72138610D01*
X157226000Y-72066912D01*
X157218150Y-71952523D01*
X157196350Y-71801631D01*
X157163226Y-71625751D01*
X157121404Y-71436400D01*
X157073508Y-71245093D01*
X157022165Y-71063348D01*
X156969999Y-70902679D01*
X156945528Y-70836655D01*
X156877800Y-70679770D01*
X156789096Y-70498369D01*
X156688170Y-70309129D01*
X156583777Y-70128726D01*
X156522039Y-70029996D01*
X156383524Y-69816292D01*
X156414546Y-69705491D01*
X156437245Y-69636190D01*
X156458344Y-69590529D01*
X156465125Y-69582604D01*
X156487222Y-69597060D01*
G37*
X156487222Y-69597060D02*
X156529817Y-69648151D01*
X156588077Y-69728475D01*
X156657170Y-69830633D01*
X156732265Y-69947222D01*
X156808529Y-70070843D01*
X156881130Y-70194096D01*
X156945236Y-70309579D01*
X156967325Y-70351758D01*
X157125872Y-70705466D01*
X157258157Y-71094934D01*
X157339192Y-71409553D01*
X157405651Y-71705872D01*
X157337001Y-71939986D01*
X157305189Y-72043708D01*
X157276315Y-72129373D01*
X157254587Y-72184891D01*
X157247175Y-72198230D01*
X157236266Y-72188294D01*
X157228621Y-72138610D01*
X157226000Y-72066912D01*
X157218150Y-71952523D01*
X157196350Y-71801631D01*
X157163226Y-71625751D01*
X157121404Y-71436400D01*
X157073508Y-71245093D01*
X157022165Y-71063348D01*
X156969999Y-70902679D01*
X156945528Y-70836655D01*
X156877800Y-70679770D01*
X156789096Y-70498369D01*
X156688170Y-70309129D01*
X156583777Y-70128726D01*
X156522039Y-70029996D01*
X156383524Y-69816292D01*
X156414546Y-69705491D01*
X156437245Y-69636190D01*
X156458344Y-69590529D01*
X156465125Y-69582604D01*
X156487222Y-69597060D01*
G36*
X148827610Y-71903780D02*
G01*
X148820691Y-71957856D01*
X148816531Y-71977250D01*
X148803609Y-72068510D01*
X148796478Y-72197396D01*
X148795096Y-72351067D01*
X148799422Y-72516685D01*
X148809414Y-72681410D01*
X148819126Y-72783700D01*
X148852781Y-73036948D01*
X148896268Y-73266785D01*
X148954531Y-73495252D01*
X149032511Y-73744389D01*
X149038709Y-73762796D01*
X149155011Y-74106893D01*
X149091253Y-74232347D01*
X149027496Y-74357801D01*
X148983994Y-74256550D01*
X148851322Y-73910847D01*
X148742857Y-73551609D01*
X148661383Y-73191219D01*
X148609683Y-72842056D01*
X148590540Y-72516504D01*
X148590495Y-72506235D01*
X148592052Y-72406165D01*
X148600454Y-72329885D01*
X148620432Y-72259238D01*
X148656713Y-72176066D01*
X148697950Y-72093600D01*
X148746473Y-72001779D01*
X148787467Y-71930075D01*
X148815042Y-71888506D01*
X148822275Y-71882114D01*
X148827610Y-71903780D01*
G37*
X148827610Y-71903780D02*
X148820691Y-71957856D01*
X148816531Y-71977250D01*
X148803609Y-72068510D01*
X148796478Y-72197396D01*
X148795096Y-72351067D01*
X148799422Y-72516685D01*
X148809414Y-72681410D01*
X148819126Y-72783700D01*
X148852781Y-73036948D01*
X148896268Y-73266785D01*
X148954531Y-73495252D01*
X149032511Y-73744389D01*
X149038709Y-73762796D01*
X149155011Y-74106893D01*
X149091253Y-74232347D01*
X149027496Y-74357801D01*
X148983994Y-74256550D01*
X148851322Y-73910847D01*
X148742857Y-73551609D01*
X148661383Y-73191219D01*
X148609683Y-72842056D01*
X148590540Y-72516504D01*
X148590495Y-72506235D01*
X148592052Y-72406165D01*
X148600454Y-72329885D01*
X148620432Y-72259238D01*
X148656713Y-72176066D01*
X148697950Y-72093600D01*
X148746473Y-72001779D01*
X148787467Y-71930075D01*
X148815042Y-71888506D01*
X148822275Y-71882114D01*
X148827610Y-71903780D01*
G36*
X155177618Y-70816393D02*
G01*
X155227305Y-70850326D01*
X155265129Y-70890676D01*
X155293128Y-70944914D01*
X155313344Y-71020515D01*
X155327814Y-71124952D01*
X155338580Y-71265701D01*
X155347132Y-71437500D01*
X155355144Y-71586661D01*
X155365339Y-71723484D01*
X155376725Y-71837556D01*
X155388311Y-71918464D01*
X155395919Y-71949557D01*
X155411589Y-72008540D01*
X155404625Y-72062515D01*
X155373485Y-72132695D01*
X155340050Y-72206112D01*
X155325000Y-72269758D01*
X155327629Y-72340771D01*
X155347236Y-72436291D01*
X155359100Y-72482997D01*
X155388453Y-72631895D01*
X155393587Y-72773662D01*
X155373747Y-72925584D01*
X155332644Y-73089683D01*
X155306319Y-73189488D01*
X155289816Y-73270446D01*
X155285327Y-73320679D01*
X155288194Y-73330492D01*
X155315896Y-73350620D01*
X155377416Y-73392885D01*
X155464167Y-73451456D01*
X155567561Y-73520501D01*
X155587700Y-73533872D01*
X155706679Y-73614592D01*
X155823205Y-73696777D01*
X155923785Y-73770726D01*
X155994100Y-73826043D01*
X156129302Y-73929420D01*
X156252875Y-73998882D01*
X156381069Y-74042977D01*
X156425900Y-74053162D01*
X156503529Y-74072633D01*
X156546942Y-74098090D01*
X156572373Y-74141463D01*
X156581457Y-74167454D01*
X156596961Y-74235702D01*
X156586148Y-74284650D01*
X156568757Y-74311768D01*
X156493670Y-74379805D01*
X156400535Y-74417977D01*
X156362157Y-74422000D01*
X156277690Y-74406806D01*
X156164068Y-74364435D01*
X156031594Y-74299703D01*
X155890574Y-74217426D01*
X155808317Y-74163144D01*
X155630887Y-74040963D01*
X155489083Y-73945559D01*
X155376750Y-73874816D01*
X155287732Y-73826615D01*
X155215872Y-73798839D01*
X155155015Y-73789371D01*
X155099005Y-73796095D01*
X155041686Y-73816893D01*
X154976902Y-73849647D01*
X154945870Y-73866523D01*
X154857296Y-73914672D01*
X154776296Y-73958307D01*
X154730365Y-73982725D01*
X154660431Y-74019404D01*
X154793865Y-74110291D01*
X154914116Y-74194812D01*
X155019281Y-74275714D01*
X155124518Y-74365466D01*
X155244985Y-74476538D01*
X155282900Y-74512575D01*
X155377702Y-74599239D01*
X155476362Y-74683154D01*
X155562086Y-74750223D01*
X155586636Y-74767588D01*
X155682099Y-74842113D01*
X155766637Y-74926023D01*
X155831846Y-75009059D01*
X155869323Y-75080961D01*
X155874563Y-75119131D01*
X155863152Y-75149761D01*
X155831701Y-75166380D01*
X155767541Y-75173836D01*
X155727400Y-75175412D01*
X155621496Y-75173338D01*
X155514161Y-75163359D01*
X155473400Y-75156701D01*
X155382784Y-75135820D01*
X155309417Y-75109497D01*
X155241756Y-75070458D01*
X155168259Y-75011433D01*
X155077382Y-74925147D01*
X155028848Y-74876603D01*
X154937680Y-74788501D01*
X154849647Y-74710089D01*
X154776199Y-74651216D01*
X154736800Y-74625402D01*
X154656698Y-74573423D01*
X154582171Y-74509736D01*
X154577537Y-74504951D01*
X154515457Y-74453272D01*
X154428370Y-74396950D01*
X154360025Y-74360519D01*
X154274849Y-74315798D01*
X154223301Y-74274627D01*
X154191171Y-74223459D01*
X154176387Y-74185454D01*
X154131209Y-74098803D01*
X154076400Y-74051776D01*
X153927397Y-73982936D01*
X153816107Y-73928062D01*
X153733592Y-73881012D01*
X153670915Y-73835647D01*
X153619135Y-73785825D01*
X153569317Y-73725404D01*
X153535828Y-73680388D01*
X153469947Y-73593391D01*
X153420427Y-73539584D01*
X153375877Y-73509609D01*
X153324902Y-73494108D01*
X153304764Y-73490579D01*
X153205597Y-73457217D01*
X153118259Y-73385011D01*
X153117550Y-73384240D01*
X153068336Y-73333208D01*
X153043716Y-73317465D01*
X153035515Y-73333485D01*
X153035000Y-73348635D01*
X153021901Y-73383826D01*
X152978950Y-73428892D01*
X152900669Y-73488752D01*
X152812750Y-73548097D01*
X152710220Y-73612381D01*
X152614135Y-73667809D01*
X152538021Y-73706807D01*
X152506712Y-73719439D01*
X152440012Y-73754007D01*
X152365784Y-73812196D01*
X152332819Y-73845218D01*
X152242714Y-73944954D01*
X152340407Y-74045973D01*
X152415358Y-74112244D01*
X152496017Y-74167090D01*
X152532392Y-74185270D01*
X152614547Y-74236453D01*
X152648711Y-74304012D01*
X152641318Y-74371140D01*
X152603346Y-74420903D01*
X152539158Y-74437721D01*
X152459772Y-74423212D01*
X152376202Y-74378993D01*
X152313453Y-74323000D01*
X152254195Y-74282579D01*
X152199213Y-74269253D01*
X152102555Y-74261996D01*
X152046504Y-74237570D01*
X152022134Y-74190098D01*
X152019000Y-74150565D01*
X152019000Y-74062855D01*
X151902367Y-74159877D01*
X151821717Y-74228167D01*
X151725065Y-74311705D01*
X151638848Y-74387528D01*
X151561984Y-74452562D01*
X151494137Y-74504124D01*
X151448407Y-74532355D01*
X151444330Y-74533946D01*
X151405512Y-74561969D01*
X151351223Y-74619512D01*
X151298525Y-74686974D01*
X151235273Y-74766839D01*
X151170253Y-74824638D01*
X151085335Y-74874572D01*
X151019125Y-74905840D01*
X150868053Y-74964735D01*
X150737866Y-74997214D01*
X150635845Y-75001934D01*
X150582180Y-74986439D01*
X150528510Y-74975724D01*
X150455103Y-74999481D01*
X150452351Y-75000784D01*
X150398727Y-75022953D01*
X150355424Y-75025508D01*
X150301446Y-75006634D01*
X150253907Y-74983623D01*
X150180812Y-74944795D01*
X150147822Y-74915198D01*
X150148982Y-74882637D01*
X150178338Y-74834914D01*
X150180090Y-74832409D01*
X150206211Y-74787670D01*
X150201074Y-74760979D01*
X150157744Y-74744702D01*
X150090697Y-74734019D01*
X150016121Y-74730504D01*
X149987318Y-74745859D01*
X149987000Y-74748855D01*
X149968709Y-74774821D01*
X149922226Y-74773137D01*
X149860132Y-74746450D01*
X149811148Y-74711842D01*
X149753229Y-74647522D01*
X149733369Y-74576314D01*
X149732999Y-74562159D01*
X149718679Y-74494600D01*
X149682612Y-74456594D01*
X149635138Y-74458158D01*
X149629107Y-74461516D01*
X149610118Y-74453404D01*
X149606001Y-74429849D01*
X149627833Y-74391808D01*
X149690989Y-74333007D01*
X149791964Y-74256579D01*
X149827915Y-74231500D01*
X150077125Y-74067633D01*
X150298838Y-73938003D01*
X150499700Y-73839232D01*
X150686355Y-73767943D01*
X150807173Y-73733775D01*
X150930935Y-73682565D01*
X151010373Y-73614524D01*
X151077075Y-73543085D01*
X151156647Y-73460538D01*
X151198386Y-73418285D01*
X151304873Y-73311775D01*
X151237200Y-73149337D01*
X151199848Y-73047730D01*
X151178800Y-72952786D01*
X151169953Y-72841795D01*
X151168813Y-72771000D01*
X151181618Y-72590354D01*
X151225105Y-72439987D01*
X151304899Y-72305992D01*
X151399507Y-72200399D01*
X151567255Y-72037651D01*
X151706764Y-71907612D01*
X151824351Y-71805755D01*
X151926333Y-71727552D01*
X152019029Y-71668476D01*
X152108754Y-71624001D01*
X152201827Y-71589598D01*
X152285176Y-71565703D01*
X152348781Y-71551539D01*
X152416671Y-71542602D01*
X152498549Y-71538671D01*
X152604118Y-71539525D01*
X152743080Y-71544943D01*
X152880174Y-71552155D01*
X153041302Y-71562828D01*
X153199204Y-71576235D01*
X153340876Y-71591064D01*
X153453315Y-71606002D01*
X153504900Y-71615219D01*
X153606320Y-71636726D01*
X153698446Y-71655929D01*
X153758900Y-71668185D01*
X153835100Y-71683108D01*
X153836317Y-71357104D01*
X153840675Y-71174823D01*
X153853868Y-71041551D01*
X153878396Y-70955893D01*
X153916760Y-70916454D01*
X153971460Y-70921840D01*
X154044995Y-70970656D01*
X154139868Y-71061507D01*
X154216474Y-71145042D01*
X154419300Y-71373284D01*
X154546300Y-71373253D01*
X154625711Y-71369711D01*
X154685131Y-71360736D01*
X154701718Y-71354561D01*
X154727925Y-71322987D01*
X154766264Y-71260658D01*
X154797858Y-71201638D01*
X154852577Y-71106634D01*
X154916810Y-71013654D01*
X154949924Y-70973038D01*
X155006413Y-70905186D01*
X155051454Y-70843011D01*
X155063665Y-70822601D01*
X155093061Y-70766503D01*
X155177618Y-70816393D01*
G37*
X155177618Y-70816393D02*
X155227305Y-70850326D01*
X155265129Y-70890676D01*
X155293128Y-70944914D01*
X155313344Y-71020515D01*
X155327814Y-71124952D01*
X155338580Y-71265701D01*
X155347132Y-71437500D01*
X155355144Y-71586661D01*
X155365339Y-71723484D01*
X155376725Y-71837556D01*
X155388311Y-71918464D01*
X155395919Y-71949557D01*
X155411589Y-72008540D01*
X155404625Y-72062515D01*
X155373485Y-72132695D01*
X155340050Y-72206112D01*
X155325000Y-72269758D01*
X155327629Y-72340771D01*
X155347236Y-72436291D01*
X155359100Y-72482997D01*
X155388453Y-72631895D01*
X155393587Y-72773662D01*
X155373747Y-72925584D01*
X155332644Y-73089683D01*
X155306319Y-73189488D01*
X155289816Y-73270446D01*
X155285327Y-73320679D01*
X155288194Y-73330492D01*
X155315896Y-73350620D01*
X155377416Y-73392885D01*
X155464167Y-73451456D01*
X155567561Y-73520501D01*
X155587700Y-73533872D01*
X155706679Y-73614592D01*
X155823205Y-73696777D01*
X155923785Y-73770726D01*
X155994100Y-73826043D01*
X156129302Y-73929420D01*
X156252875Y-73998882D01*
X156381069Y-74042977D01*
X156425900Y-74053162D01*
X156503529Y-74072633D01*
X156546942Y-74098090D01*
X156572373Y-74141463D01*
X156581457Y-74167454D01*
X156596961Y-74235702D01*
X156586148Y-74284650D01*
X156568757Y-74311768D01*
X156493670Y-74379805D01*
X156400535Y-74417977D01*
X156362157Y-74422000D01*
X156277690Y-74406806D01*
X156164068Y-74364435D01*
X156031594Y-74299703D01*
X155890574Y-74217426D01*
X155808317Y-74163144D01*
X155630887Y-74040963D01*
X155489083Y-73945559D01*
X155376750Y-73874816D01*
X155287732Y-73826615D01*
X155215872Y-73798839D01*
X155155015Y-73789371D01*
X155099005Y-73796095D01*
X155041686Y-73816893D01*
X154976902Y-73849647D01*
X154945870Y-73866523D01*
X154857296Y-73914672D01*
X154776296Y-73958307D01*
X154730365Y-73982725D01*
X154660431Y-74019404D01*
X154793865Y-74110291D01*
X154914116Y-74194812D01*
X155019281Y-74275714D01*
X155124518Y-74365466D01*
X155244985Y-74476538D01*
X155282900Y-74512575D01*
X155377702Y-74599239D01*
X155476362Y-74683154D01*
X155562086Y-74750223D01*
X155586636Y-74767588D01*
X155682099Y-74842113D01*
X155766637Y-74926023D01*
X155831846Y-75009059D01*
X155869323Y-75080961D01*
X155874563Y-75119131D01*
X155863152Y-75149761D01*
X155831701Y-75166380D01*
X155767541Y-75173836D01*
X155727400Y-75175412D01*
X155621496Y-75173338D01*
X155514161Y-75163359D01*
X155473400Y-75156701D01*
X155382784Y-75135820D01*
X155309417Y-75109497D01*
X155241756Y-75070458D01*
X155168259Y-75011433D01*
X155077382Y-74925147D01*
X155028848Y-74876603D01*
X154937680Y-74788501D01*
X154849647Y-74710089D01*
X154776199Y-74651216D01*
X154736800Y-74625402D01*
X154656698Y-74573423D01*
X154582171Y-74509736D01*
X154577537Y-74504951D01*
X154515457Y-74453272D01*
X154428370Y-74396950D01*
X154360025Y-74360519D01*
X154274849Y-74315798D01*
X154223301Y-74274627D01*
X154191171Y-74223459D01*
X154176387Y-74185454D01*
X154131209Y-74098803D01*
X154076400Y-74051776D01*
X153927397Y-73982936D01*
X153816107Y-73928062D01*
X153733592Y-73881012D01*
X153670915Y-73835647D01*
X153619135Y-73785825D01*
X153569317Y-73725404D01*
X153535828Y-73680388D01*
X153469947Y-73593391D01*
X153420427Y-73539584D01*
X153375877Y-73509609D01*
X153324902Y-73494108D01*
X153304764Y-73490579D01*
X153205597Y-73457217D01*
X153118259Y-73385011D01*
X153117550Y-73384240D01*
X153068336Y-73333208D01*
X153043716Y-73317465D01*
X153035515Y-73333485D01*
X153035000Y-73348635D01*
X153021901Y-73383826D01*
X152978950Y-73428892D01*
X152900669Y-73488752D01*
X152812750Y-73548097D01*
X152710220Y-73612381D01*
X152614135Y-73667809D01*
X152538021Y-73706807D01*
X152506712Y-73719439D01*
X152440012Y-73754007D01*
X152365784Y-73812196D01*
X152332819Y-73845218D01*
X152242714Y-73944954D01*
X152340407Y-74045973D01*
X152415358Y-74112244D01*
X152496017Y-74167090D01*
X152532392Y-74185270D01*
X152614547Y-74236453D01*
X152648711Y-74304012D01*
X152641318Y-74371140D01*
X152603346Y-74420903D01*
X152539158Y-74437721D01*
X152459772Y-74423212D01*
X152376202Y-74378993D01*
X152313453Y-74323000D01*
X152254195Y-74282579D01*
X152199213Y-74269253D01*
X152102555Y-74261996D01*
X152046504Y-74237570D01*
X152022134Y-74190098D01*
X152019000Y-74150565D01*
X152019000Y-74062855D01*
X151902367Y-74159877D01*
X151821717Y-74228167D01*
X151725065Y-74311705D01*
X151638848Y-74387528D01*
X151561984Y-74452562D01*
X151494137Y-74504124D01*
X151448407Y-74532355D01*
X151444330Y-74533946D01*
X151405512Y-74561969D01*
X151351223Y-74619512D01*
X151298525Y-74686974D01*
X151235273Y-74766839D01*
X151170253Y-74824638D01*
X151085335Y-74874572D01*
X151019125Y-74905840D01*
X150868053Y-74964735D01*
X150737866Y-74997214D01*
X150635845Y-75001934D01*
X150582180Y-74986439D01*
X150528510Y-74975724D01*
X150455103Y-74999481D01*
X150452351Y-75000784D01*
X150398727Y-75022953D01*
X150355424Y-75025508D01*
X150301446Y-75006634D01*
X150253907Y-74983623D01*
X150180812Y-74944795D01*
X150147822Y-74915198D01*
X150148982Y-74882637D01*
X150178338Y-74834914D01*
X150180090Y-74832409D01*
X150206211Y-74787670D01*
X150201074Y-74760979D01*
X150157744Y-74744702D01*
X150090697Y-74734019D01*
X150016121Y-74730504D01*
X149987318Y-74745859D01*
X149987000Y-74748855D01*
X149968709Y-74774821D01*
X149922226Y-74773137D01*
X149860132Y-74746450D01*
X149811148Y-74711842D01*
X149753229Y-74647522D01*
X149733369Y-74576314D01*
X149732999Y-74562159D01*
X149718679Y-74494600D01*
X149682612Y-74456594D01*
X149635138Y-74458158D01*
X149629107Y-74461516D01*
X149610118Y-74453404D01*
X149606001Y-74429849D01*
X149627833Y-74391808D01*
X149690989Y-74333007D01*
X149791964Y-74256579D01*
X149827915Y-74231500D01*
X150077125Y-74067633D01*
X150298838Y-73938003D01*
X150499700Y-73839232D01*
X150686355Y-73767943D01*
X150807173Y-73733775D01*
X150930935Y-73682565D01*
X151010373Y-73614524D01*
X151077075Y-73543085D01*
X151156647Y-73460538D01*
X151198386Y-73418285D01*
X151304873Y-73311775D01*
X151237200Y-73149337D01*
X151199848Y-73047730D01*
X151178800Y-72952786D01*
X151169953Y-72841795D01*
X151168813Y-72771000D01*
X151181618Y-72590354D01*
X151225105Y-72439987D01*
X151304899Y-72305992D01*
X151399507Y-72200399D01*
X151567255Y-72037651D01*
X151706764Y-71907612D01*
X151824351Y-71805755D01*
X151926333Y-71727552D01*
X152019029Y-71668476D01*
X152108754Y-71624001D01*
X152201827Y-71589598D01*
X152285176Y-71565703D01*
X152348781Y-71551539D01*
X152416671Y-71542602D01*
X152498549Y-71538671D01*
X152604118Y-71539525D01*
X152743080Y-71544943D01*
X152880174Y-71552155D01*
X153041302Y-71562828D01*
X153199204Y-71576235D01*
X153340876Y-71591064D01*
X153453315Y-71606002D01*
X153504900Y-71615219D01*
X153606320Y-71636726D01*
X153698446Y-71655929D01*
X153758900Y-71668185D01*
X153835100Y-71683108D01*
X153836317Y-71357104D01*
X153840675Y-71174823D01*
X153853868Y-71041551D01*
X153878396Y-70955893D01*
X153916760Y-70916454D01*
X153971460Y-70921840D01*
X154044995Y-70970656D01*
X154139868Y-71061507D01*
X154216474Y-71145042D01*
X154419300Y-71373284D01*
X154546300Y-71373253D01*
X154625711Y-71369711D01*
X154685131Y-71360736D01*
X154701718Y-71354561D01*
X154727925Y-71322987D01*
X154766264Y-71260658D01*
X154797858Y-71201638D01*
X154852577Y-71106634D01*
X154916810Y-71013654D01*
X154949924Y-70973038D01*
X155006413Y-70905186D01*
X155051454Y-70843011D01*
X155063665Y-70822601D01*
X155093061Y-70766503D01*
X155177618Y-70816393D01*
G36*
X157443718Y-72085817D02*
G01*
X157448928Y-72145344D01*
X157452671Y-72238368D01*
X157454495Y-72356236D01*
X157454600Y-72394045D01*
X157430152Y-72880755D01*
X157357233Y-73354766D01*
X157236477Y-73813956D01*
X157068519Y-74256205D01*
X156853995Y-74679391D01*
X156692935Y-74938677D01*
X156623325Y-75041363D01*
X156562732Y-75128121D01*
X156517233Y-75190431D01*
X156492906Y-75219776D01*
X156491769Y-75220635D01*
X156491163Y-75202749D01*
X156503978Y-75144588D01*
X156528126Y-75054249D01*
X156561521Y-74939832D01*
X156578244Y-74885116D01*
X156630306Y-74728432D01*
X156692122Y-74560015D01*
X156755936Y-74400136D01*
X156813738Y-74269600D01*
X156955060Y-73945641D01*
X157065001Y-73626183D01*
X157148741Y-73293738D01*
X157211459Y-72930819D01*
X157212497Y-72923400D01*
X157231406Y-72810272D01*
X157258335Y-72678804D01*
X157290649Y-72539017D01*
X157325708Y-72400933D01*
X157360876Y-72274574D01*
X157393516Y-72169963D01*
X157420988Y-72097122D01*
X157437497Y-72068436D01*
X157443718Y-72085817D01*
G37*
X157443718Y-72085817D02*
X157448928Y-72145344D01*
X157452671Y-72238368D01*
X157454495Y-72356236D01*
X157454600Y-72394045D01*
X157430152Y-72880755D01*
X157357233Y-73354766D01*
X157236477Y-73813956D01*
X157068519Y-74256205D01*
X156853995Y-74679391D01*
X156692935Y-74938677D01*
X156623325Y-75041363D01*
X156562732Y-75128121D01*
X156517233Y-75190431D01*
X156492906Y-75219776D01*
X156491769Y-75220635D01*
X156491163Y-75202749D01*
X156503978Y-75144588D01*
X156528126Y-75054249D01*
X156561521Y-74939832D01*
X156578244Y-74885116D01*
X156630306Y-74728432D01*
X156692122Y-74560015D01*
X156755936Y-74400136D01*
X156813738Y-74269600D01*
X156955060Y-73945641D01*
X157065001Y-73626183D01*
X157148741Y-73293738D01*
X157211459Y-72930819D01*
X157212497Y-72923400D01*
X157231406Y-72810272D01*
X157258335Y-72678804D01*
X157290649Y-72539017D01*
X157325708Y-72400933D01*
X157360876Y-72274574D01*
X157393516Y-72169963D01*
X157420988Y-72097122D01*
X157437497Y-72068436D01*
X157443718Y-72085817D01*
G36*
X149240947Y-74290723D02*
G01*
X149274476Y-74346515D01*
X149317983Y-74426370D01*
X149332263Y-74453858D01*
X149556553Y-74835120D01*
X149823166Y-75189344D01*
X150130267Y-75514604D01*
X150476020Y-75808973D01*
X150858589Y-76070526D01*
X150892743Y-76091181D01*
X151010170Y-76158211D01*
X151134347Y-76223784D01*
X151244651Y-76277174D01*
X151280731Y-76292910D01*
X151363476Y-76327371D01*
X151425065Y-76353215D01*
X151453133Y-76365252D01*
X151453576Y-76365472D01*
X151450519Y-76389057D01*
X151432171Y-76440141D01*
X151406223Y-76500916D01*
X151380363Y-76553576D01*
X151362282Y-76580313D01*
X151360507Y-76581000D01*
X151333123Y-76570151D01*
X151269568Y-76540498D01*
X151178892Y-76496383D01*
X151070145Y-76442146D01*
X151053210Y-76433596D01*
X150634662Y-76195676D01*
X150253846Y-75923952D01*
X149909675Y-75617390D01*
X149601063Y-75274955D01*
X149326923Y-74895613D01*
X149176850Y-74646873D01*
X149096111Y-74503446D01*
X149152917Y-74386523D01*
X149187640Y-74320190D01*
X149214591Y-74277872D01*
X149223711Y-74269708D01*
X149240947Y-74290723D01*
G37*
X149240947Y-74290723D02*
X149274476Y-74346515D01*
X149317983Y-74426370D01*
X149332263Y-74453858D01*
X149556553Y-74835120D01*
X149823166Y-75189344D01*
X150130267Y-75514604D01*
X150476020Y-75808973D01*
X150858589Y-76070526D01*
X150892743Y-76091181D01*
X151010170Y-76158211D01*
X151134347Y-76223784D01*
X151244651Y-76277174D01*
X151280731Y-76292910D01*
X151363476Y-76327371D01*
X151425065Y-76353215D01*
X151453133Y-76365252D01*
X151453576Y-76365472D01*
X151450519Y-76389057D01*
X151432171Y-76440141D01*
X151406223Y-76500916D01*
X151380363Y-76553576D01*
X151362282Y-76580313D01*
X151360507Y-76581000D01*
X151333123Y-76570151D01*
X151269568Y-76540498D01*
X151178892Y-76496383D01*
X151070145Y-76442146D01*
X151053210Y-76433596D01*
X150634662Y-76195676D01*
X150253846Y-75923952D01*
X149909675Y-75617390D01*
X149601063Y-75274955D01*
X149326923Y-74895613D01*
X149176850Y-74646873D01*
X149096111Y-74503446D01*
X149152917Y-74386523D01*
X149187640Y-74320190D01*
X149214591Y-74277872D01*
X149223711Y-74269708D01*
X149240947Y-74290723D01*
G36*
X156404321Y-74988854D02*
G01*
X156401314Y-75015482D01*
X156385782Y-75079997D01*
X156360438Y-75171824D01*
X156337346Y-75249877D01*
X156301042Y-75365563D01*
X156269683Y-75447477D01*
X156234295Y-75510703D01*
X156185906Y-75570327D01*
X156115543Y-75641431D01*
X156089435Y-75666653D01*
X155748808Y-75960686D01*
X155372654Y-76222770D01*
X154968054Y-76448624D01*
X154542086Y-76633962D01*
X154415175Y-76679655D01*
X154285452Y-76722881D01*
X154197768Y-76748707D01*
X154146919Y-76758415D01*
X154127704Y-76753288D01*
X154127200Y-76750624D01*
X154134662Y-76723982D01*
X154153670Y-76665245D01*
X154167197Y-76625064D01*
X154190827Y-76562597D01*
X154217863Y-76522572D01*
X154261575Y-76494059D01*
X154335228Y-76466130D01*
X154376747Y-76452444D01*
X154514327Y-76401108D01*
X154680665Y-76328929D01*
X154861929Y-76242753D01*
X155044284Y-76149429D01*
X155213900Y-76055801D01*
X155356942Y-75968718D01*
X155365882Y-75962860D01*
X155606322Y-75788899D01*
X155844532Y-75587948D01*
X156066130Y-75373201D01*
X156256734Y-75157850D01*
X156291716Y-75113476D01*
X156344956Y-75047295D01*
X156385401Y-75002526D01*
X156404310Y-74988844D01*
X156404321Y-74988854D01*
G37*
X156404321Y-74988854D02*
X156401314Y-75015482D01*
X156385782Y-75079997D01*
X156360438Y-75171824D01*
X156337346Y-75249877D01*
X156301042Y-75365563D01*
X156269683Y-75447477D01*
X156234295Y-75510703D01*
X156185906Y-75570327D01*
X156115543Y-75641431D01*
X156089435Y-75666653D01*
X155748808Y-75960686D01*
X155372654Y-76222770D01*
X154968054Y-76448624D01*
X154542086Y-76633962D01*
X154415175Y-76679655D01*
X154285452Y-76722881D01*
X154197768Y-76748707D01*
X154146919Y-76758415D01*
X154127704Y-76753288D01*
X154127200Y-76750624D01*
X154134662Y-76723982D01*
X154153670Y-76665245D01*
X154167197Y-76625064D01*
X154190827Y-76562597D01*
X154217863Y-76522572D01*
X154261575Y-76494059D01*
X154335228Y-76466130D01*
X154376747Y-76452444D01*
X154514327Y-76401108D01*
X154680665Y-76328929D01*
X154861929Y-76242753D01*
X155044284Y-76149429D01*
X155213900Y-76055801D01*
X155356942Y-75968718D01*
X155365882Y-75962860D01*
X155606322Y-75788899D01*
X155844532Y-75587948D01*
X156066130Y-75373201D01*
X156256734Y-75157850D01*
X156291716Y-75113476D01*
X156344956Y-75047295D01*
X156385401Y-75002526D01*
X156404310Y-74988844D01*
X156404321Y-74988854D01*
G36*
X151598756Y-76438430D02*
G01*
X151663303Y-76454235D01*
X151757545Y-76479407D01*
X151871956Y-76511478D01*
X151881908Y-76514329D01*
X152171739Y-76587050D01*
X152466968Y-76641881D01*
X152751225Y-76676309D01*
X153008139Y-76687821D01*
X153011672Y-76687806D01*
X153158359Y-76682284D01*
X153335136Y-76668317D01*
X153524135Y-76647954D01*
X153707488Y-76623245D01*
X153867324Y-76596239D01*
X153935986Y-76581791D01*
X154001254Y-76569310D01*
X154041785Y-76566529D01*
X154046582Y-76568116D01*
X154045147Y-76595738D01*
X154030322Y-76654408D01*
X154019984Y-76687362D01*
X153983676Y-76796900D01*
X153731588Y-76839944D01*
X153426025Y-76879142D01*
X153104205Y-76897169D01*
X152785814Y-76893674D01*
X152490538Y-76868305D01*
X152450800Y-76862788D01*
X152213441Y-76824281D01*
X152006438Y-76781626D01*
X151809350Y-76730178D01*
X151646247Y-76679946D01*
X151489395Y-76628921D01*
X151528266Y-76535110D01*
X151554245Y-76474301D01*
X151571241Y-76437986D01*
X151573428Y-76434457D01*
X151598756Y-76438430D01*
G37*
X151598756Y-76438430D02*
X151663303Y-76454235D01*
X151757545Y-76479407D01*
X151871956Y-76511478D01*
X151881908Y-76514329D01*
X152171739Y-76587050D01*
X152466968Y-76641881D01*
X152751225Y-76676309D01*
X153008139Y-76687821D01*
X153011672Y-76687806D01*
X153158359Y-76682284D01*
X153335136Y-76668317D01*
X153524135Y-76647954D01*
X153707488Y-76623245D01*
X153867324Y-76596239D01*
X153935986Y-76581791D01*
X154001254Y-76569310D01*
X154041785Y-76566529D01*
X154046582Y-76568116D01*
X154045147Y-76595738D01*
X154030322Y-76654408D01*
X154019984Y-76687362D01*
X153983676Y-76796900D01*
X153731588Y-76839944D01*
X153426025Y-76879142D01*
X153104205Y-76897169D01*
X152785814Y-76893674D01*
X152490538Y-76868305D01*
X152450800Y-76862788D01*
X152213441Y-76824281D01*
X152006438Y-76781626D01*
X151809350Y-76730178D01*
X151646247Y-76679946D01*
X151489395Y-76628921D01*
X151528266Y-76535110D01*
X151554245Y-76474301D01*
X151571241Y-76437986D01*
X151573428Y-76434457D01*
X151598756Y-76438430D01*
D11*
X102220000Y-109280000D02*
X100610000Y-109280000D01*
X102220000Y-109280000D02*
X102220000Y-107280000D01*
X101940000Y-96740000D02*
X101940000Y-108990000D01*
X96180000Y-96740000D02*
X101940000Y-96740000D01*
X96180000Y-109000000D02*
X96180000Y-96740000D01*
X101930000Y-109000000D02*
X96190000Y-109000000D01*
X156670000Y-95365000D02*
G75*
G03X156670000Y-95365000I-3000000J0D01*
G01*
X155670000Y-89465000D02*
X159770000Y-89465000D01*
X159770000Y-101265000D02*
X155670000Y-101265000D01*
X151670000Y-101265000D02*
X147570000Y-101265000D01*
X151670000Y-89465000D02*
X147570000Y-89465000D01*
X147570000Y-89465000D02*
X147570000Y-101265000D01*
X146170000Y-91565000D02*
X145870000Y-91265000D01*
X145870000Y-91265000D02*
X146470000Y-91265000D01*
X146470000Y-91265000D02*
X146170000Y-91565000D01*
X159770000Y-89465000D02*
X159770000Y-91865000D01*
X159770000Y-94065000D02*
X159770000Y-96665000D01*
X159770000Y-98865000D02*
X159770000Y-101265000D01*
X153670000Y-94865000D02*
X153670000Y-95865000D01*
X153170000Y-95365000D02*
X154170000Y-95365000D01*
X130940000Y-81785000D02*
X118110000Y-81785000D01*
X130940000Y-102365000D02*
X130940000Y-81785000D01*
X115440000Y-102365000D02*
X130940000Y-102365000D01*
X115440000Y-84455000D02*
X115440000Y-102365000D01*
X118110000Y-84455000D02*
X115440000Y-84455000D01*
X118110000Y-81785000D02*
X118110000Y-84455000D01*
X115440000Y-81785000D02*
X115440000Y-83185000D01*
X116840000Y-81785000D02*
X115440000Y-81785000D01*
X118110000Y-84455000D02*
X118110000Y-102365000D01*
X128270000Y-81785000D02*
X128270000Y-102365000D01*
D10*
X117792142Y-73866666D02*
X117839761Y-73914285D01*
X117887380Y-74057142D01*
X117887380Y-74152380D01*
X117839761Y-74295238D01*
X117744523Y-74390476D01*
X117649285Y-74438095D01*
X117458809Y-74485714D01*
X117315952Y-74485714D01*
X117125476Y-74438095D01*
X117030238Y-74390476D01*
X116935000Y-74295238D01*
X116887380Y-74152380D01*
X116887380Y-74057142D01*
X116935000Y-73914285D01*
X116982619Y-73866666D01*
X116887380Y-73009523D02*
X116887380Y-73200000D01*
X116935000Y-73295238D01*
X116982619Y-73342857D01*
X117125476Y-73438095D01*
X117315952Y-73485714D01*
X117696904Y-73485714D01*
X117792142Y-73438095D01*
X117839761Y-73390476D01*
X117887380Y-73295238D01*
X117887380Y-73104761D01*
X117839761Y-73009523D01*
X117792142Y-72961904D01*
X117696904Y-72914285D01*
X117458809Y-72914285D01*
X117363571Y-72961904D01*
X117315952Y-73009523D01*
X117268333Y-73104761D01*
X117268333Y-73295238D01*
X117315952Y-73390476D01*
X117363571Y-73438095D01*
X117458809Y-73485714D01*
X117792142Y-66166666D02*
X117839761Y-66214285D01*
X117887380Y-66357142D01*
X117887380Y-66452380D01*
X117839761Y-66595238D01*
X117744523Y-66690476D01*
X117649285Y-66738095D01*
X117458809Y-66785714D01*
X117315952Y-66785714D01*
X117125476Y-66738095D01*
X117030238Y-66690476D01*
X116935000Y-66595238D01*
X116887380Y-66452380D01*
X116887380Y-66357142D01*
X116935000Y-66214285D01*
X116982619Y-66166666D01*
X116887380Y-65261904D02*
X116887380Y-65738095D01*
X117363571Y-65785714D01*
X117315952Y-65738095D01*
X117268333Y-65642857D01*
X117268333Y-65404761D01*
X117315952Y-65309523D01*
X117363571Y-65261904D01*
X117458809Y-65214285D01*
X117696904Y-65214285D01*
X117792142Y-65261904D01*
X117839761Y-65309523D01*
X117887380Y-65404761D01*
X117887380Y-65642857D01*
X117839761Y-65738095D01*
X117792142Y-65785714D01*
X122317142Y-77676666D02*
X122364761Y-77724285D01*
X122412380Y-77867142D01*
X122412380Y-77962380D01*
X122364761Y-78105238D01*
X122269523Y-78200476D01*
X122174285Y-78248095D01*
X121983809Y-78295714D01*
X121840952Y-78295714D01*
X121650476Y-78248095D01*
X121555238Y-78200476D01*
X121460000Y-78105238D01*
X121412380Y-77962380D01*
X121412380Y-77867142D01*
X121460000Y-77724285D01*
X121507619Y-77676666D01*
X121745714Y-76819523D02*
X122412380Y-76819523D01*
X121364761Y-77057619D02*
X122079047Y-77295714D01*
X122079047Y-76676666D01*
X122237142Y-77676666D02*
X122284761Y-77724285D01*
X122332380Y-77867142D01*
X122332380Y-77962380D01*
X122284761Y-78105238D01*
X122189523Y-78200476D01*
X122094285Y-78248095D01*
X121903809Y-78295714D01*
X121760952Y-78295714D01*
X121570476Y-78248095D01*
X121475238Y-78200476D01*
X121380000Y-78105238D01*
X121332380Y-77962380D01*
X121332380Y-77867142D01*
X121380000Y-77724285D01*
X121427619Y-77676666D01*
X121332380Y-77343333D02*
X121332380Y-76724285D01*
X121713333Y-77057619D01*
X121713333Y-76914761D01*
X121760952Y-76819523D01*
X121808571Y-76771904D01*
X121903809Y-76724285D01*
X122141904Y-76724285D01*
X122237142Y-76771904D01*
X122284761Y-76819523D01*
X122332380Y-76914761D01*
X122332380Y-77200476D01*
X122284761Y-77295714D01*
X122237142Y-77343333D01*
X132397142Y-77596666D02*
X132444761Y-77644285D01*
X132492380Y-77787142D01*
X132492380Y-77882380D01*
X132444761Y-78025238D01*
X132349523Y-78120476D01*
X132254285Y-78168095D01*
X132063809Y-78215714D01*
X131920952Y-78215714D01*
X131730476Y-78168095D01*
X131635238Y-78120476D01*
X131540000Y-78025238D01*
X131492380Y-77882380D01*
X131492380Y-77787142D01*
X131540000Y-77644285D01*
X131587619Y-77596666D01*
X131587619Y-77215714D02*
X131540000Y-77168095D01*
X131492380Y-77072857D01*
X131492380Y-76834761D01*
X131540000Y-76739523D01*
X131587619Y-76691904D01*
X131682857Y-76644285D01*
X131778095Y-76644285D01*
X131920952Y-76691904D01*
X132492380Y-77263333D01*
X132492380Y-76644285D01*
X101417380Y-80811666D02*
X100941190Y-81145000D01*
X101417380Y-81383095D02*
X100417380Y-81383095D01*
X100417380Y-81002142D01*
X100465000Y-80906904D01*
X100512619Y-80859285D01*
X100607857Y-80811666D01*
X100750714Y-80811666D01*
X100845952Y-80859285D01*
X100893571Y-80906904D01*
X100941190Y-81002142D01*
X100941190Y-81383095D01*
X100845952Y-80240238D02*
X100798333Y-80335476D01*
X100750714Y-80383095D01*
X100655476Y-80430714D01*
X100607857Y-80430714D01*
X100512619Y-80383095D01*
X100465000Y-80335476D01*
X100417380Y-80240238D01*
X100417380Y-80049761D01*
X100465000Y-79954523D01*
X100512619Y-79906904D01*
X100607857Y-79859285D01*
X100655476Y-79859285D01*
X100750714Y-79906904D01*
X100798333Y-79954523D01*
X100845952Y-80049761D01*
X100845952Y-80240238D01*
X100893571Y-80335476D01*
X100941190Y-80383095D01*
X101036428Y-80430714D01*
X101226904Y-80430714D01*
X101322142Y-80383095D01*
X101369761Y-80335476D01*
X101417380Y-80240238D01*
X101417380Y-80049761D01*
X101369761Y-79954523D01*
X101322142Y-79906904D01*
X101226904Y-79859285D01*
X101036428Y-79859285D01*
X100941190Y-79906904D01*
X100893571Y-79954523D01*
X100845952Y-80049761D01*
X98242380Y-80811666D02*
X97766190Y-81145000D01*
X98242380Y-81383095D02*
X97242380Y-81383095D01*
X97242380Y-81002142D01*
X97290000Y-80906904D01*
X97337619Y-80859285D01*
X97432857Y-80811666D01*
X97575714Y-80811666D01*
X97670952Y-80859285D01*
X97718571Y-80906904D01*
X97766190Y-81002142D01*
X97766190Y-81383095D01*
X97242380Y-80478333D02*
X97242380Y-79811666D01*
X98242380Y-80240238D01*
X140152380Y-98591666D02*
X139676190Y-98925000D01*
X140152380Y-99163095D02*
X139152380Y-99163095D01*
X139152380Y-98782142D01*
X139200000Y-98686904D01*
X139247619Y-98639285D01*
X139342857Y-98591666D01*
X139485714Y-98591666D01*
X139580952Y-98639285D01*
X139628571Y-98686904D01*
X139676190Y-98782142D01*
X139676190Y-99163095D01*
X139152380Y-97734523D02*
X139152380Y-97925000D01*
X139200000Y-98020238D01*
X139247619Y-98067857D01*
X139390476Y-98163095D01*
X139580952Y-98210714D01*
X139961904Y-98210714D01*
X140057142Y-98163095D01*
X140104761Y-98115476D01*
X140152380Y-98020238D01*
X140152380Y-97829761D01*
X140104761Y-97734523D01*
X140057142Y-97686904D01*
X139961904Y-97639285D01*
X139723809Y-97639285D01*
X139628571Y-97686904D01*
X139580952Y-97734523D01*
X139533333Y-97829761D01*
X139533333Y-98020238D01*
X139580952Y-98115476D01*
X139628571Y-98163095D01*
X139723809Y-98210714D01*
X136342380Y-98591666D02*
X135866190Y-98925000D01*
X136342380Y-99163095D02*
X135342380Y-99163095D01*
X135342380Y-98782142D01*
X135390000Y-98686904D01*
X135437619Y-98639285D01*
X135532857Y-98591666D01*
X135675714Y-98591666D01*
X135770952Y-98639285D01*
X135818571Y-98686904D01*
X135866190Y-98782142D01*
X135866190Y-99163095D01*
X135342380Y-97686904D02*
X135342380Y-98163095D01*
X135818571Y-98210714D01*
X135770952Y-98163095D01*
X135723333Y-98067857D01*
X135723333Y-97829761D01*
X135770952Y-97734523D01*
X135818571Y-97686904D01*
X135913809Y-97639285D01*
X136151904Y-97639285D01*
X136247142Y-97686904D01*
X136294761Y-97734523D01*
X136342380Y-97829761D01*
X136342380Y-98067857D01*
X136294761Y-98163095D01*
X136247142Y-98210714D01*
X147788333Y-85542380D02*
X147455000Y-85066190D01*
X147216904Y-85542380D02*
X147216904Y-84542380D01*
X147597857Y-84542380D01*
X147693095Y-84590000D01*
X147740714Y-84637619D01*
X147788333Y-84732857D01*
X147788333Y-84875714D01*
X147740714Y-84970952D01*
X147693095Y-85018571D01*
X147597857Y-85066190D01*
X147216904Y-85066190D01*
X148645476Y-84875714D02*
X148645476Y-85542380D01*
X148407380Y-84494761D02*
X148169285Y-85209047D01*
X148788333Y-85209047D01*
X136342380Y-75731666D02*
X135866190Y-76065000D01*
X136342380Y-76303095D02*
X135342380Y-76303095D01*
X135342380Y-75922142D01*
X135390000Y-75826904D01*
X135437619Y-75779285D01*
X135532857Y-75731666D01*
X135675714Y-75731666D01*
X135770952Y-75779285D01*
X135818571Y-75826904D01*
X135866190Y-75922142D01*
X135866190Y-76303095D01*
X135342380Y-75398333D02*
X135342380Y-74779285D01*
X135723333Y-75112619D01*
X135723333Y-74969761D01*
X135770952Y-74874523D01*
X135818571Y-74826904D01*
X135913809Y-74779285D01*
X136151904Y-74779285D01*
X136247142Y-74826904D01*
X136294761Y-74874523D01*
X136342380Y-74969761D01*
X136342380Y-75255476D01*
X136294761Y-75350714D01*
X136247142Y-75398333D01*
X147788333Y-81732380D02*
X147455000Y-81256190D01*
X147216904Y-81732380D02*
X147216904Y-80732380D01*
X147597857Y-80732380D01*
X147693095Y-80780000D01*
X147740714Y-80827619D01*
X147788333Y-80922857D01*
X147788333Y-81065714D01*
X147740714Y-81160952D01*
X147693095Y-81208571D01*
X147597857Y-81256190D01*
X147216904Y-81256190D01*
X148169285Y-80827619D02*
X148216904Y-80780000D01*
X148312142Y-80732380D01*
X148550238Y-80732380D01*
X148645476Y-80780000D01*
X148693095Y-80827619D01*
X148740714Y-80922857D01*
X148740714Y-81018095D01*
X148693095Y-81160952D01*
X148121666Y-81732380D01*
X148740714Y-81732380D01*
X140152380Y-75731666D02*
X139676190Y-76065000D01*
X140152380Y-76303095D02*
X139152380Y-76303095D01*
X139152380Y-75922142D01*
X139200000Y-75826904D01*
X139247619Y-75779285D01*
X139342857Y-75731666D01*
X139485714Y-75731666D01*
X139580952Y-75779285D01*
X139628571Y-75826904D01*
X139676190Y-75922142D01*
X139676190Y-76303095D01*
X140152380Y-74779285D02*
X140152380Y-75350714D01*
X140152380Y-75065000D02*
X139152380Y-75065000D01*
X139295238Y-75160238D01*
X139390476Y-75255476D01*
X139438095Y-75350714D01*
X112212380Y-85448333D02*
X112926666Y-85448333D01*
X113069523Y-85495952D01*
X113164761Y-85591190D01*
X113212380Y-85734047D01*
X113212380Y-85829285D01*
X113212380Y-84448333D02*
X113212380Y-85019761D01*
X113212380Y-84734047D02*
X112212380Y-84734047D01*
X112355238Y-84829285D01*
X112450476Y-84924523D01*
X112498095Y-85019761D01*
X110887142Y-104266666D02*
X110934761Y-104314285D01*
X110982380Y-104457142D01*
X110982380Y-104552380D01*
X110934761Y-104695238D01*
X110839523Y-104790476D01*
X110744285Y-104838095D01*
X110553809Y-104885714D01*
X110410952Y-104885714D01*
X110220476Y-104838095D01*
X110125238Y-104790476D01*
X110030000Y-104695238D01*
X109982380Y-104552380D01*
X109982380Y-104457142D01*
X110030000Y-104314285D01*
X110077619Y-104266666D01*
X110982380Y-103314285D02*
X110982380Y-103885714D01*
X110982380Y-103600000D02*
X109982380Y-103600000D01*
X110125238Y-103695238D01*
X110220476Y-103790476D01*
X110268095Y-103885714D01*
X121793095Y-66762380D02*
X121793095Y-67571904D01*
X121840714Y-67667142D01*
X121888333Y-67714761D01*
X121983571Y-67762380D01*
X122174047Y-67762380D01*
X122269285Y-67714761D01*
X122316904Y-67667142D01*
X122364523Y-67571904D01*
X122364523Y-66762380D01*
X122793095Y-66857619D02*
X122840714Y-66810000D01*
X122935952Y-66762380D01*
X123174047Y-66762380D01*
X123269285Y-66810000D01*
X123316904Y-66857619D01*
X123364523Y-66952857D01*
X123364523Y-67048095D01*
X123316904Y-67190952D01*
X122745476Y-67762380D01*
X123364523Y-67762380D01*
X98512380Y-96011904D02*
X99321904Y-96011904D01*
X99417142Y-95964285D01*
X99464761Y-95916666D01*
X99512380Y-95821428D01*
X99512380Y-95630952D01*
X99464761Y-95535714D01*
X99417142Y-95488095D01*
X99321904Y-95440476D01*
X98512380Y-95440476D01*
X99512380Y-94440476D02*
X99512380Y-95011904D01*
X99512380Y-94726190D02*
X98512380Y-94726190D01*
X98655238Y-94821428D01*
X98750476Y-94916666D01*
X98798095Y-95011904D01*
X147636666Y-88569761D02*
X147779523Y-88617380D01*
X148017619Y-88617380D01*
X148112857Y-88569761D01*
X148160476Y-88522142D01*
X148208095Y-88426904D01*
X148208095Y-88331666D01*
X148160476Y-88236428D01*
X148112857Y-88188809D01*
X148017619Y-88141190D01*
X147827142Y-88093571D01*
X147731904Y-88045952D01*
X147684285Y-87998333D01*
X147636666Y-87903095D01*
X147636666Y-87807857D01*
X147684285Y-87712619D01*
X147731904Y-87665000D01*
X147827142Y-87617380D01*
X148065238Y-87617380D01*
X148208095Y-87665000D01*
X148541428Y-87617380D02*
X148779523Y-88617380D01*
X148970000Y-87903095D01*
X149160476Y-88617380D01*
X149398571Y-87617380D01*
X150303333Y-88617380D02*
X149731904Y-88617380D01*
X150017619Y-88617380D02*
X150017619Y-87617380D01*
X149922380Y-87760238D01*
X149827142Y-87855476D01*
X149731904Y-87903095D01*
X122475714Y-80811666D02*
X122951904Y-80811666D01*
X122380476Y-81097380D02*
X122713809Y-80097380D01*
X123047142Y-81097380D01*
X123904285Y-81097380D02*
X123332857Y-81097380D01*
X123618571Y-81097380D02*
X123618571Y-80097380D01*
X123523333Y-80240238D01*
X123428095Y-80335476D01*
X123332857Y-80383095D01*
M02*
